  0
SECTION
  2
BLOCKS
  0
ENDSEC
  0
SECTION
  2
ENTITIES
  0
LINE
  8
0
 10
5.21844
 20
-3.4557
 11
5.52254
 21
-3.37764
  0
LINE
  8
0
 10
5.52254
 20
-3.37764
 11
5.81444
 21
-3.26205
  0
LINE
  8
0
 10
5.81444
 20
-3.26205
 11
6.08955
 21
-3.11081
  0
LINE
  8
0
 10
6.08955
 20
-3.11081
 11
6.34355
 21
-2.92627
  0
LINE
  8
0
 10
6.34355
 20
-2.92627
 11
6.57242
 21
-2.71136
  0
LINE
  8
0
 10
6.57242
 20
-2.71136
 11
6.77254
 21
-2.46945
  0
LINE
  8
0
 10
6.77254
 20
-2.46945
 11
6.94077
 21
-2.20438
  0
LINE
  8
0
 10
6.94077
 20
-2.20438
 11
7.07443
 21
-1.9203
  0
LINE
  8
0
 10
7.07443
 20
-1.9203
 11
7.17145
 21
-1.62172
  0
LINE
  8
0
 10
7.17145
 20
-1.62172
 11
7.23029
 21
-1.31332
  0
LINE
  8
0
 10
7.23029
 20
-1.31332
 11
7.25
 21
-1
  0
LINE
  8
0
 10
7.25
 20
-1
 11
7.25
 21
1
  0
LINE
  8
0
 10
7.25
 20
1
 11
7.23029
 21
1.31332
  0
LINE
  8
0
 10
7.23029
 20
1.31332
 11
7.17145
 21
1.62172
  0
LINE
  8
0
 10
7.17145
 20
1.62172
 11
7.07443
 21
1.9203
  0
LINE
  8
0
 10
7.07443
 20
1.9203
 11
6.94077
 21
2.20438
  0
LINE
  8
0
 10
6.94077
 20
2.20438
 11
6.77254
 21
2.46945
  0
LINE
  8
0
 10
6.77254
 20
2.46945
 11
6.57242
 21
2.71136
  0
LINE
  8
0
 10
6.57242
 20
2.71136
 11
6.34355
 21
2.92627
  0
LINE
  8
0
 10
6.34355
 20
2.92627
 11
6.08955
 21
3.11081
  0
LINE
  8
0
 10
6.08955
 20
3.11081
 11
5.81444
 21
3.26205
  0
LINE
  8
0
 10
5.81444
 20
3.26205
 11
5.52254
 21
3.37764
  0
LINE
  8
0
 10
5.52254
 20
3.37764
 11
5.21844
 21
3.4557
  0
LINE
  8
0
 10
5.21844
 20
3.4557
 11
4.90697
 21
3.49506
  0
LINE
  8
0
 10
4.90697
 20
3.49506
 11
-4.90697
 21
3.49506
  0
LINE
  8
0
 10
-4.90697
 20
3.49506
 11
-5.21844
 21
3.4557
  0
LINE
  8
0
 10
-5.21844
 20
3.4557
 11
-5.52254
 21
3.37764
  0
LINE
  8
0
 10
-5.52254
 20
3.37764
 11
-5.81444
 21
3.26205
  0
LINE
  8
0
 10
-5.81444
 20
3.26205
 11
-6.08955
 21
3.11081
  0
LINE
  8
0
 10
-6.08955
 20
3.11081
 11
-6.34355
 21
2.92627
  0
LINE
  8
0
 10
-6.34355
 20
2.92627
 11
-6.57242
 21
2.71136
  0
LINE
  8
0
 10
-6.57242
 20
2.71136
 11
-6.77254
 21
2.46945
  0
LINE
  8
0
 10
-6.77254
 20
2.46945
 11
-6.94077
 21
2.20438
  0
LINE
  8
0
 10
-6.94077
 20
2.20438
 11
-7.07443
 21
1.9203
  0
LINE
  8
0
 10
-7.07443
 20
1.9203
 11
-7.17145
 21
1.62172
  0
LINE
  8
0
 10
-7.17145
 20
1.62172
 11
-7.23029
 21
1.31332
  0
LINE
  8
0
 10
-7.23029
 20
1.31332
 11
-7.25
 21
1
  0
LINE
  8
0
 10
-7.25
 20
1
 11
-7.25
 21
-1
  0
LINE
  8
0
 10
-7.25
 20
-1
 11
-7.23029
 21
-1.31332
  0
LINE
  8
0
 10
-7.23029
 20
-1.31332
 11
-7.17145
 21
-1.62172
  0
LINE
  8
0
 10
-7.17145
 20
-1.62172
 11
-7.07443
 21
-1.9203
  0
LINE
  8
0
 10
-7.07443
 20
-1.9203
 11
-6.94077
 21
-2.20438
  0
LINE
  8
0
 10
-6.94077
 20
-2.20438
 11
-6.77254
 21
-2.46945
  0
LINE
  8
0
 10
-6.77254
 20
-2.46945
 11
-6.57242
 21
-2.71136
  0
LINE
  8
0
 10
-6.57242
 20
-2.71136
 11
-6.34355
 21
-2.92627
  0
LINE
  8
0
 10
-6.34355
 20
-2.92627
 11
-6.08955
 21
-3.11081
  0
LINE
  8
0
 10
-6.08955
 20
-3.11081
 11
-5.81444
 21
-3.26205
  0
LINE
  8
0
 10
-5.81444
 20
-3.26205
 11
-5.52254
 21
-3.37764
  0
LINE
  8
0
 10
-5.52254
 20
-3.37764
 11
-5.21844
 21
-3.4557
  0
LINE
  8
0
 10
-5.21844
 20
-3.4557
 11
-4.90697
 21
-3.49506
  0
LINE
  8
0
 10
-4.90697
 20
-3.49506
 11
4.90697
 21
-3.49506
  0
LINE
  8
0
 10
4.90697
 20
-3.49506
 11
5.21844
 21
-3.4557
  0
LINE
  8
0
 10
3.65581
 20
-1.49704
 11
3.46892
 21
-1.47342
  0
LINE
  8
0
 10
3.46892
 20
-1.47342
 11
3.28647
 21
-1.42657
  0
LINE
  8
0
 10
3.28647
 20
-1.42657
 11
3.11133
 21
-1.35724
  0
LINE
  8
0
 10
3.11133
 20
-1.35724
 11
2.94626
 21
-1.26648
  0
LINE
  8
0
 10
2.94626
 20
-1.26648
 11
2.79385
 21
-1.15576
  0
LINE
  8
0
 10
2.79385
 20
-1.15576
 11
2.65654
 21
-1.02681
  0
LINE
  8
0
 10
2.65654
 20
-1.02681
 11
2.53647
 21
-0.881668
  0
LINE
  8
0
 10
2.53647
 20
-0.881668
 11
2.43553
 21
-0.722626
  0
LINE
  8
0
 10
2.43553
 20
-0.722626
 11
2.35533
 21
-0.552185
  0
LINE
  8
0
 10
2.35533
 20
-0.552185
 11
2.29712
 21
-0.373032
  0
LINE
  8
0
 10
2.29712
 20
-0.373032
 11
2.26183
 21
-0.187988
  0
LINE
  8
0
 10
2.26183
 20
-0.187988
 11
2.25
 21
0
  0
LINE
  8
0
 10
2.25
 20
0
 11
2.26183
 21
0.187988
  0
LINE
  8
0
 10
2.26183
 20
0.187988
 11
2.29712
 21
0.373032
  0
LINE
  8
0
 10
2.29712
 20
0.373032
 11
2.35533
 21
0.552185
  0
LINE
  8
0
 10
2.35533
 20
0.552185
 11
2.43553
 21
0.722626
  0
LINE
  8
0
 10
2.43553
 20
0.722626
 11
2.53647
 21
0.881668
  0
LINE
  8
0
 10
2.53647
 20
0.881668
 11
2.65654
 21
1.02681
  0
LINE
  8
0
 10
2.65654
 20
1.02681
 11
2.79385
 21
1.15576
  0
LINE
  8
0
 10
2.79385
 20
1.15576
 11
2.94626
 21
1.26648
  0
LINE
  8
0
 10
2.94626
 20
1.26648
 11
3.11133
 21
1.35724
  0
LINE
  8
0
 10
3.11133
 20
1.35724
 11
3.28647
 21
1.42657
  0
LINE
  8
0
 10
3.28647
 20
1.42657
 11
3.46892
 21
1.47342
  0
LINE
  8
0
 10
3.46892
 20
1.47342
 11
3.65581
 21
1.49704
  0
LINE
  8
0
 10
3.65581
 20
1.49704
 11
3.84418
 21
1.49704
  0
LINE
  8
0
 10
3.84418
 20
1.49704
 11
4.03107
 21
1.47342
  0
LINE
  8
0
 10
4.03107
 20
1.47342
 11
4.21352
 21
1.42657
  0
LINE
  8
0
 10
4.21352
 20
1.42657
 11
4.38866
 21
1.35724
  0
LINE
  8
0
 10
4.38866
 20
1.35724
 11
4.55373
 21
1.26648
  0
LINE
  8
0
 10
4.55373
 20
1.26648
 11
4.70613
 21
1.15576
  0
LINE
  8
0
 10
4.70613
 20
1.15576
 11
4.84344
 21
1.02681
  0
LINE
  8
0
 10
4.84344
 20
1.02681
 11
4.96352
 21
0.881668
  0
LINE
  8
0
 10
4.96352
 20
0.881668
 11
5.06445
 21
0.722626
  0
LINE
  8
0
 10
5.06445
 20
0.722626
 11
5.14465
 21
0.552185
  0
LINE
  8
0
 10
5.14465
 20
0.552185
 11
5.20287
 21
0.373032
  0
LINE
  8
0
 10
5.20287
 20
0.373032
 11
5.23816
 21
0.187988
  0
LINE
  8
0
 10
5.23816
 20
0.187988
 11
5.25
 21
0
  0
LINE
  8
0
 10
5.25
 20
0
 11
5.23816
 21
-0.187988
  0
LINE
  8
0
 10
5.23816
 20
-0.187988
 11
5.20287
 21
-0.373032
  0
LINE
  8
0
 10
5.20287
 20
-0.373032
 11
5.14465
 21
-0.552185
  0
LINE
  8
0
 10
5.14465
 20
-0.552185
 11
5.06445
 21
-0.722626
  0
LINE
  8
0
 10
5.06445
 20
-0.722626
 11
4.96352
 21
-0.881668
  0
LINE
  8
0
 10
4.96352
 20
-0.881668
 11
4.84344
 21
-1.02681
  0
LINE
  8
0
 10
4.84344
 20
-1.02681
 11
4.70613
 21
-1.15576
  0
LINE
  8
0
 10
4.70613
 20
-1.15576
 11
4.55373
 21
-1.26648
  0
LINE
  8
0
 10
4.55373
 20
-1.26648
 11
4.38866
 21
-1.35724
  0
LINE
  8
0
 10
4.38866
 20
-1.35724
 11
4.21352
 21
-1.42657
  0
LINE
  8
0
 10
4.21352
 20
-1.42657
 11
4.03107
 21
-1.47342
  0
LINE
  8
0
 10
4.03107
 20
-1.47342
 11
3.84418
 21
-1.49704
  0
LINE
  8
0
 10
3.84418
 20
-1.49704
 11
3.65581
 21
-1.49704
  0
LINE
  8
0
 10
-3.84418
 20
-1.49704
 11
-4.03107
 21
-1.47342
  0
LINE
  8
0
 10
-4.03107
 20
-1.47342
 11
-4.21352
 21
-1.42657
  0
LINE
  8
0
 10
-4.21352
 20
-1.42657
 11
-4.38866
 21
-1.35724
  0
LINE
  8
0
 10
-4.38866
 20
-1.35724
 11
-4.55373
 21
-1.26648
  0
LINE
  8
0
 10
-4.55373
 20
-1.26648
 11
-4.70613
 21
-1.15576
  0
LINE
  8
0
 10
-4.70613
 20
-1.15576
 11
-4.84344
 21
-1.02681
  0
LINE
  8
0
 10
-4.84344
 20
-1.02681
 11
-4.96352
 21
-0.881668
  0
LINE
  8
0
 10
-4.96352
 20
-0.881668
 11
-5.06445
 21
-0.722626
  0
LINE
  8
0
 10
-5.06445
 20
-0.722626
 11
-5.14465
 21
-0.552185
  0
LINE
  8
0
 10
-5.14465
 20
-0.552185
 11
-5.20287
 21
-0.373032
  0
LINE
  8
0
 10
-5.20287
 20
-0.373032
 11
-5.23816
 21
-0.187988
  0
LINE
  8
0
 10
-5.23816
 20
-0.187988
 11
-5.25
 21
0
  0
LINE
  8
0
 10
-5.25
 20
0
 11
-5.23816
 21
0.187988
  0
LINE
  8
0
 10
-5.23816
 20
0.187988
 11
-5.20287
 21
0.373032
  0
LINE
  8
0
 10
-5.20287
 20
0.373032
 11
-5.14465
 21
0.552185
  0
LINE
  8
0
 10
-5.14465
 20
0.552185
 11
-5.06445
 21
0.722626
  0
LINE
  8
0
 10
-5.06445
 20
0.722626
 11
-4.96352
 21
0.881668
  0
LINE
  8
0
 10
-4.96352
 20
0.881668
 11
-4.84344
 21
1.02681
  0
LINE
  8
0
 10
-4.84344
 20
1.02681
 11
-4.70613
 21
1.15576
  0
LINE
  8
0
 10
-4.70613
 20
1.15576
 11
-4.55373
 21
1.26648
  0
LINE
  8
0
 10
-4.55373
 20
1.26648
 11
-4.38866
 21
1.35724
  0
LINE
  8
0
 10
-4.38866
 20
1.35724
 11
-4.21352
 21
1.42657
  0
LINE
  8
0
 10
-4.21352
 20
1.42657
 11
-4.03107
 21
1.47342
  0
LINE
  8
0
 10
-4.03107
 20
1.47342
 11
-3.84418
 21
1.49704
  0
LINE
  8
0
 10
-3.84418
 20
1.49704
 11
-3.65581
 21
1.49704
  0
LINE
  8
0
 10
-3.65581
 20
1.49704
 11
-3.46892
 21
1.47342
  0
LINE
  8
0
 10
-3.46892
 20
1.47342
 11
-3.28647
 21
1.42657
  0
LINE
  8
0
 10
-3.28647
 20
1.42657
 11
-3.11133
 21
1.35724
  0
LINE
  8
0
 10
-3.11133
 20
1.35724
 11
-2.94626
 21
1.26648
  0
LINE
  8
0
 10
-2.94626
 20
1.26648
 11
-2.79385
 21
1.15576
  0
LINE
  8
0
 10
-2.79385
 20
1.15576
 11
-2.65654
 21
1.02681
  0
LINE
  8
0
 10
-2.65654
 20
1.02681
 11
-2.53647
 21
0.881668
  0
LINE
  8
0
 10
-2.53647
 20
0.881668
 11
-2.43553
 21
0.722626
  0
LINE
  8
0
 10
-2.43553
 20
0.722626
 11
-2.35533
 21
0.552185
  0
LINE
  8
0
 10
-2.35533
 20
0.552185
 11
-2.29712
 21
0.373032
  0
LINE
  8
0
 10
-2.29712
 20
0.373032
 11
-2.26183
 21
0.187988
  0
LINE
  8
0
 10
-2.26183
 20
0.187988
 11
-2.25
 21
0
  0
LINE
  8
0
 10
-2.25
 20
0
 11
-2.26183
 21
-0.187988
  0
LINE
  8
0
 10
-2.26183
 20
-0.187988
 11
-2.29712
 21
-0.373032
  0
LINE
  8
0
 10
-2.29712
 20
-0.373032
 11
-2.35533
 21
-0.552185
  0
LINE
  8
0
 10
-2.35533
 20
-0.552185
 11
-2.43553
 21
-0.722626
  0
LINE
  8
0
 10
-2.43553
 20
-0.722626
 11
-2.53647
 21
-0.881668
  0
LINE
  8
0
 10
-2.53647
 20
-0.881668
 11
-2.65654
 21
-1.02681
  0
LINE
  8
0
 10
-2.65654
 20
-1.02681
 11
-2.79385
 21
-1.15576
  0
LINE
  8
0
 10
-2.79385
 20
-1.15576
 11
-2.94626
 21
-1.26648
  0
LINE
  8
0
 10
-2.94626
 20
-1.26648
 11
-3.11133
 21
-1.35724
  0
LINE
  8
0
 10
-3.11133
 20
-1.35724
 11
-3.28647
 21
-1.42657
  0
LINE
  8
0
 10
-3.28647
 20
-1.42657
 11
-3.46892
 21
-1.47342
  0
LINE
  8
0
 10
-3.46892
 20
-1.47342
 11
-3.65581
 21
-1.49704
  0
LINE
  8
0
 10
-3.65581
 20
-1.49704
 11
-3.84418
 21
-1.49704
  0
ENDSEC
  0
SECTION
  2
OBJECTS
  0
DICTIONARY
  0
ENDSEC
  0
EOF
