solid OpenSCAD_Model
  facet normal -0.998028 -0.0627752 0
    outer loop
      vertex -1.95 0 0
      vertex -1.96419 0.225599 3
      vertex -1.96419 0.225599 0
    endloop
  endfacet
  facet normal -0.998028 -0.0627752 0
    outer loop
      vertex -1.96419 0.225599 3
      vertex -1.95 0 0
      vertex -1.95 0 3
    endloop
  endfacet
  facet normal 0.998028 -0.0627752 0
    outer loop
      vertex -5.55 0 3
      vertex -5.53581 0.225599 0
      vertex -5.53581 0.225599 3
    endloop
  endfacet
  facet normal 0.998028 -0.0627752 0
    outer loop
      vertex -5.53581 0.225599 0
      vertex -5.55 0 3
      vertex -5.55 0 0
    endloop
  endfacet
  facet normal 0 -1 0
    outer loop
      vertex -3.86302 1.79645 0
      vertex -3.63698 1.79645 3
      vertex -3.86302 1.79645 3
    endloop
  endfacet
  facet normal 0 -1 -0
    outer loop
      vertex -3.63698 1.79645 3
      vertex -3.86302 1.79645 0
      vertex -3.63698 1.79645 0
    endloop
  endfacet
  facet normal 0 1 -0
    outer loop
      vertex -3.63698 -1.79645 0
      vertex -3.86302 -1.79645 3
      vertex -3.63698 -1.79645 3
    endloop
  endfacet
  facet normal 0 1 0
    outer loop
      vertex -3.86302 -1.79645 3
      vertex -3.63698 -1.79645 0
      vertex -3.86302 -1.79645 0
    endloop
  endfacet
  facet normal -0.68455 -0.728966 0
    outer loop
      vertex -2.60264 1.38692 0
      vertex -2.43786 1.23218 3
      vertex -2.60264 1.38692 3
    endloop
  endfacet
  facet normal -0.68455 -0.728966 -0
    outer loop
      vertex -2.43786 1.23218 3
      vertex -2.60264 1.38692 0
      vertex -2.43786 1.23218 0
    endloop
  endfacet
  facet normal 0.68455 -0.728966 0
    outer loop
      vertex -5.06214 1.23218 0
      vertex -4.89736 1.38692 3
      vertex -5.06214 1.23218 3
    endloop
  endfacet
  facet normal 0.68455 -0.728966 0
    outer loop
      vertex -4.89736 1.38692 3
      vertex -5.06214 1.23218 0
      vertex -4.89736 1.38692 0
    endloop
  endfacet
  facet normal 0.368116 -0.92978 0
    outer loop
      vertex -4.5164 1.62869 0
      vertex -4.30623 1.7119 3
      vertex -4.5164 1.62869 3
    endloop
  endfacet
  facet normal 0.368116 -0.92978 0
    outer loop
      vertex -4.30623 1.7119 3
      vertex -4.5164 1.62869 0
      vertex -4.30623 1.7119 0
    endloop
  endfacet
  facet normal -0.90482 -0.425794 0
    outer loop
      vertex -2.0764 0.662623 0
      vertex -2.17265 0.867156 3
      vertex -2.17265 0.867156 0
    endloop
  endfacet
  facet normal -0.90482 -0.425794 0
    outer loop
      vertex -2.17265 0.867156 3
      vertex -2.0764 0.662623 0
      vertex -2.0764 0.662623 3
    endloop
  endfacet
  facet normal -0.982285 -0.187395 0
    outer loop
      vertex -1.96419 0.225599 0
      vertex -2.00655 0.447641 3
      vertex -2.00655 0.447641 0
    endloop
  endfacet
  facet normal -0.982285 -0.187395 0
    outer loop
      vertex -2.00655 0.447641 3
      vertex -1.96419 0.225599 0
      vertex -1.96419 0.225599 3
    endloop
  endfacet
  facet normal -0.368116 -0.92978 0
    outer loop
      vertex -3.19377 1.7119 0
      vertex -2.9836 1.62869 3
      vertex -3.19377 1.7119 3
    endloop
  endfacet
  facet normal -0.368116 -0.92978 -0
    outer loop
      vertex -2.9836 1.62869 3
      vertex -3.19377 1.7119 0
      vertex -2.9836 1.62869 0
    endloop
  endfacet
  facet normal -0.248714 -0.968577 0
    outer loop
      vertex -3.41271 1.76812 0
      vertex -3.19377 1.7119 3
      vertex -3.41271 1.76812 3
    endloop
  endfacet
  facet normal -0.248714 -0.968577 -0
    outer loop
      vertex -3.19377 1.7119 3
      vertex -3.41271 1.76812 0
      vertex -3.19377 1.7119 0
    endloop
  endfacet
  facet normal -0.587806 -0.809002 0
    outer loop
      vertex -2.78551 1.51979 0
      vertex -2.60264 1.38692 3
      vertex -2.78551 1.51979 3
    endloop
  endfacet
  facet normal -0.587806 -0.809002 -0
    outer loop
      vertex -2.60264 1.38692 3
      vertex -2.78551 1.51979 0
      vertex -2.60264 1.38692 0
    endloop
  endfacet
  facet normal 0.90482 -0.425794 0
    outer loop
      vertex -5.4236 0.662623 3
      vertex -5.32735 0.867156 0
      vertex -5.32735 0.867156 3
    endloop
  endfacet
  facet normal 0.90482 -0.425794 0
    outer loop
      vertex -5.32735 0.867156 0
      vertex -5.4236 0.662623 3
      vertex -5.4236 0.662623 0
    endloop
  endfacet
  facet normal 0.951059 -0.309009 0
    outer loop
      vertex -5.49345 0.447641 3
      vertex -5.4236 0.662623 0
      vertex -5.4236 0.662623 3
    endloop
  endfacet
  facet normal 0.951059 -0.309009 0
    outer loop
      vertex -5.4236 0.662623 0
      vertex -5.49345 0.447641 3
      vertex -5.49345 0.447641 0
    endloop
  endfacet
  facet normal 0.248714 -0.968577 0
    outer loop
      vertex -4.30623 1.7119 0
      vertex -4.08729 1.76812 3
      vertex -4.30623 1.7119 3
    endloop
  endfacet
  facet normal 0.248714 -0.968577 0
    outer loop
      vertex -4.08729 1.76812 3
      vertex -4.30623 1.7119 0
      vertex -4.08729 1.76812 0
    endloop
  endfacet
  facet normal -0.125325 0.992116 0
    outer loop
      vertex -3.41271 -1.76812 0
      vertex -3.63698 -1.79645 3
      vertex -3.41271 -1.76812 3
    endloop
  endfacet
  facet normal -0.125325 0.992116 0
    outer loop
      vertex -3.63698 -1.79645 3
      vertex -3.41271 -1.76812 0
      vertex -3.63698 -1.79645 0
    endloop
  endfacet
  facet normal -0.368116 0.92978 0
    outer loop
      vertex -2.9836 -1.62869 0
      vertex -3.19377 -1.7119 3
      vertex -2.9836 -1.62869 3
    endloop
  endfacet
  facet normal -0.368116 0.92978 0
    outer loop
      vertex -3.19377 -1.7119 3
      vertex -2.9836 -1.62869 0
      vertex -3.19377 -1.7119 0
    endloop
  endfacet
  facet normal -0.951059 -0.309009 0
    outer loop
      vertex -2.00655 0.447641 0
      vertex -2.0764 0.662623 3
      vertex -2.0764 0.662623 0
    endloop
  endfacet
  facet normal -0.951059 -0.309009 0
    outer loop
      vertex -2.0764 0.662623 3
      vertex -2.00655 0.447641 0
      vertex -2.00655 0.447641 3
    endloop
  endfacet
  facet normal -0.770504 -0.637435 0
    outer loop
      vertex -2.29377 1.05801 0
      vertex -2.43786 1.23218 3
      vertex -2.43786 1.23218 0
    endloop
  endfacet
  facet normal -0.770504 -0.637435 0
    outer loop
      vertex -2.43786 1.23218 3
      vertex -2.29377 1.05801 0
      vertex -2.29377 1.05801 3
    endloop
  endfacet
  facet normal -0.844327 -0.535828 0
    outer loop
      vertex -2.17265 0.867156 0
      vertex -2.29377 1.05801 3
      vertex -2.29377 1.05801 0
    endloop
  endfacet
  facet normal -0.844327 -0.535828 0
    outer loop
      vertex -2.29377 1.05801 3
      vertex -2.17265 0.867156 0
      vertex -2.17265 0.867156 3
    endloop
  endfacet
  facet normal -0.125325 -0.992116 0
    outer loop
      vertex -3.63698 1.79645 0
      vertex -3.41271 1.76812 3
      vertex -3.63698 1.79645 3
    endloop
  endfacet
  facet normal -0.125325 -0.992116 -0
    outer loop
      vertex -3.41271 1.76812 3
      vertex -3.63698 1.79645 0
      vertex -3.41271 1.76812 0
    endloop
  endfacet
  facet normal -0.481751 -0.876308 0
    outer loop
      vertex -2.9836 1.62869 0
      vertex -2.78551 1.51979 3
      vertex -2.9836 1.62869 3
    endloop
  endfacet
  facet normal -0.481751 -0.876308 -0
    outer loop
      vertex -2.78551 1.51979 3
      vertex -2.9836 1.62869 0
      vertex -2.78551 1.51979 0
    endloop
  endfacet
  facet normal 0.844327 -0.535828 0
    outer loop
      vertex -5.32735 0.867156 3
      vertex -5.20623 1.05801 0
      vertex -5.20623 1.05801 3
    endloop
  endfacet
  facet normal 0.844327 -0.535828 0
    outer loop
      vertex -5.20623 1.05801 0
      vertex -5.32735 0.867156 3
      vertex -5.32735 0.867156 0
    endloop
  endfacet
  facet normal 0.770504 -0.637435 0
    outer loop
      vertex -5.20623 1.05801 3
      vertex -5.06214 1.23218 0
      vertex -5.06214 1.23218 3
    endloop
  endfacet
  facet normal 0.770504 -0.637435 0
    outer loop
      vertex -5.06214 1.23218 0
      vertex -5.20623 1.05801 3
      vertex -5.20623 1.05801 0
    endloop
  endfacet
  facet normal 0.982285 -0.187395 0
    outer loop
      vertex -5.53581 0.225599 3
      vertex -5.49345 0.447641 0
      vertex -5.49345 0.447641 3
    endloop
  endfacet
  facet normal 0.982285 -0.187395 0
    outer loop
      vertex -5.49345 0.447641 0
      vertex -5.53581 0.225599 3
      vertex -5.53581 0.225599 0
    endloop
  endfacet
  facet normal 0.481751 -0.876308 0
    outer loop
      vertex -4.71449 1.51979 0
      vertex -4.5164 1.62869 3
      vertex -4.71449 1.51979 3
    endloop
  endfacet
  facet normal 0.481751 -0.876308 0
    outer loop
      vertex -4.5164 1.62869 3
      vertex -4.71449 1.51979 0
      vertex -4.5164 1.62869 0
    endloop
  endfacet
  facet normal 0.587806 -0.809002 0
    outer loop
      vertex -4.89736 1.38692 0
      vertex -4.71449 1.51979 3
      vertex -4.89736 1.38692 3
    endloop
  endfacet
  facet normal 0.587806 -0.809002 0
    outer loop
      vertex -4.71449 1.51979 3
      vertex -4.89736 1.38692 0
      vertex -4.71449 1.51979 0
    endloop
  endfacet
  facet normal 0.125325 -0.992116 0
    outer loop
      vertex -4.08729 1.76812 0
      vertex -3.86302 1.79645 3
      vertex -4.08729 1.76812 3
    endloop
  endfacet
  facet normal 0.125325 -0.992116 0
    outer loop
      vertex -3.86302 1.79645 3
      vertex -4.08729 1.76812 0
      vertex -3.86302 1.79645 0
    endloop
  endfacet
  facet normal -0.998028 0.0627752 0
    outer loop
      vertex -1.96419 -0.225599 0
      vertex -1.95 0 3
      vertex -1.95 0 0
    endloop
  endfacet
  facet normal -0.998028 0.0627752 0
    outer loop
      vertex -1.95 0 3
      vertex -1.96419 -0.225599 0
      vertex -1.96419 -0.225599 3
    endloop
  endfacet
  facet normal -0.481751 0.876308 0
    outer loop
      vertex -2.78551 -1.51979 0
      vertex -2.9836 -1.62869 3
      vertex -2.78551 -1.51979 3
    endloop
  endfacet
  facet normal -0.481751 0.876308 0
    outer loop
      vertex -2.9836 -1.62869 3
      vertex -2.78551 -1.51979 0
      vertex -2.9836 -1.62869 0
    endloop
  endfacet
  facet normal -0.68455 0.728966 0
    outer loop
      vertex -2.43786 -1.23218 0
      vertex -2.60264 -1.38692 3
      vertex -2.43786 -1.23218 3
    endloop
  endfacet
  facet normal -0.68455 0.728966 0
    outer loop
      vertex -2.60264 -1.38692 3
      vertex -2.43786 -1.23218 0
      vertex -2.60264 -1.38692 0
    endloop
  endfacet
  facet normal -0.982285 0.187395 0
    outer loop
      vertex -2.00655 -0.447641 0
      vertex -1.96419 -0.225599 3
      vertex -1.96419 -0.225599 0
    endloop
  endfacet
  facet normal -0.982285 0.187395 0
    outer loop
      vertex -1.96419 -0.225599 3
      vertex -2.00655 -0.447641 0
      vertex -2.00655 -0.447641 3
    endloop
  endfacet
  facet normal -0.90482 0.425794 0
    outer loop
      vertex -2.17265 -0.867156 0
      vertex -2.0764 -0.662623 3
      vertex -2.0764 -0.662623 0
    endloop
  endfacet
  facet normal -0.90482 0.425794 0
    outer loop
      vertex -2.0764 -0.662623 3
      vertex -2.17265 -0.867156 0
      vertex -2.17265 -0.867156 3
    endloop
  endfacet
  facet normal -0.770504 0.637435 0
    outer loop
      vertex -2.43786 -1.23218 0
      vertex -2.29377 -1.05801 3
      vertex -2.29377 -1.05801 0
    endloop
  endfacet
  facet normal -0.770504 0.637435 0
    outer loop
      vertex -2.29377 -1.05801 3
      vertex -2.43786 -1.23218 0
      vertex -2.43786 -1.23218 3
    endloop
  endfacet
  facet normal 0.248714 0.968577 -0
    outer loop
      vertex -4.08729 -1.76812 0
      vertex -4.30623 -1.7119 3
      vertex -4.08729 -1.76812 3
    endloop
  endfacet
  facet normal 0.248714 0.968577 0
    outer loop
      vertex -4.30623 -1.7119 3
      vertex -4.08729 -1.76812 0
      vertex -4.30623 -1.7119 0
    endloop
  endfacet
  facet normal 0.770504 0.637435 0
    outer loop
      vertex -5.06214 -1.23218 3
      vertex -5.20623 -1.05801 0
      vertex -5.20623 -1.05801 3
    endloop
  endfacet
  facet normal 0.770504 0.637435 0
    outer loop
      vertex -5.20623 -1.05801 0
      vertex -5.06214 -1.23218 3
      vertex -5.06214 -1.23218 0
    endloop
  endfacet
  facet normal 0.951059 0.309009 0
    outer loop
      vertex -5.4236 -0.662623 3
      vertex -5.49345 -0.447641 0
      vertex -5.49345 -0.447641 3
    endloop
  endfacet
  facet normal 0.951059 0.309009 0
    outer loop
      vertex -5.49345 -0.447641 0
      vertex -5.4236 -0.662623 3
      vertex -5.4236 -0.662623 0
    endloop
  endfacet
  facet normal -0.248714 0.968577 0
    outer loop
      vertex -3.19377 -1.7119 0
      vertex -3.41271 -1.76812 3
      vertex -3.19377 -1.7119 3
    endloop
  endfacet
  facet normal -0.248714 0.968577 0
    outer loop
      vertex -3.41271 -1.76812 3
      vertex -3.19377 -1.7119 0
      vertex -3.41271 -1.76812 0
    endloop
  endfacet
  facet normal -0.587806 0.809002 0
    outer loop
      vertex -2.60264 -1.38692 0
      vertex -2.78551 -1.51979 3
      vertex -2.60264 -1.38692 3
    endloop
  endfacet
  facet normal -0.587806 0.809002 0
    outer loop
      vertex -2.78551 -1.51979 3
      vertex -2.60264 -1.38692 0
      vertex -2.78551 -1.51979 0
    endloop
  endfacet
  facet normal -0.951059 0.309009 0
    outer loop
      vertex -2.0764 -0.662623 0
      vertex -2.00655 -0.447641 3
      vertex -2.00655 -0.447641 0
    endloop
  endfacet
  facet normal -0.951059 0.309009 0
    outer loop
      vertex -2.00655 -0.447641 3
      vertex -2.0764 -0.662623 0
      vertex -2.0764 -0.662623 3
    endloop
  endfacet
  facet normal -0.844327 0.535828 0
    outer loop
      vertex -2.29377 -1.05801 0
      vertex -2.17265 -0.867156 3
      vertex -2.17265 -0.867156 0
    endloop
  endfacet
  facet normal -0.844327 0.535828 0
    outer loop
      vertex -2.17265 -0.867156 3
      vertex -2.29377 -1.05801 0
      vertex -2.29377 -1.05801 3
    endloop
  endfacet
  facet normal 0.125325 0.992116 -0
    outer loop
      vertex -3.86302 -1.79645 0
      vertex -4.08729 -1.76812 3
      vertex -3.86302 -1.79645 3
    endloop
  endfacet
  facet normal 0.125325 0.992116 0
    outer loop
      vertex -4.08729 -1.76812 3
      vertex -3.86302 -1.79645 0
      vertex -4.08729 -1.76812 0
    endloop
  endfacet
  facet normal 0.368116 0.92978 -0
    outer loop
      vertex -4.30623 -1.7119 0
      vertex -4.5164 -1.62869 3
      vertex -4.30623 -1.7119 3
    endloop
  endfacet
  facet normal 0.368116 0.92978 0
    outer loop
      vertex -4.5164 -1.62869 3
      vertex -4.30623 -1.7119 0
      vertex -4.5164 -1.62869 0
    endloop
  endfacet
  facet normal 0.587806 0.809002 -0
    outer loop
      vertex -4.71449 -1.51979 0
      vertex -4.89736 -1.38692 3
      vertex -4.71449 -1.51979 3
    endloop
  endfacet
  facet normal 0.587806 0.809002 0
    outer loop
      vertex -4.89736 -1.38692 3
      vertex -4.71449 -1.51979 0
      vertex -4.89736 -1.38692 0
    endloop
  endfacet
  facet normal 0.68455 0.728966 -0
    outer loop
      vertex -4.89736 -1.38692 0
      vertex -5.06214 -1.23218 3
      vertex -4.89736 -1.38692 3
    endloop
  endfacet
  facet normal 0.68455 0.728966 0
    outer loop
      vertex -5.06214 -1.23218 3
      vertex -4.89736 -1.38692 0
      vertex -5.06214 -1.23218 0
    endloop
  endfacet
  facet normal 0.982285 0.187395 0
    outer loop
      vertex -5.49345 -0.447641 3
      vertex -5.53581 -0.225599 0
      vertex -5.53581 -0.225599 3
    endloop
  endfacet
  facet normal 0.982285 0.187395 0
    outer loop
      vertex -5.53581 -0.225599 0
      vertex -5.49345 -0.447641 3
      vertex -5.49345 -0.447641 0
    endloop
  endfacet
  facet normal 0.998028 0.0627752 0
    outer loop
      vertex -5.53581 -0.225599 3
      vertex -5.55 0 0
      vertex -5.55 0 3
    endloop
  endfacet
  facet normal 0.998028 0.0627752 0
    outer loop
      vertex -5.55 0 0
      vertex -5.53581 -0.225599 3
      vertex -5.53581 -0.225599 0
    endloop
  endfacet
  facet normal 0.481751 0.876308 -0
    outer loop
      vertex -4.5164 -1.62869 0
      vertex -4.71449 -1.51979 3
      vertex -4.5164 -1.62869 3
    endloop
  endfacet
  facet normal 0.481751 0.876308 0
    outer loop
      vertex -4.71449 -1.51979 3
      vertex -4.5164 -1.62869 0
      vertex -4.71449 -1.51979 0
    endloop
  endfacet
  facet normal 0.844327 0.535828 0
    outer loop
      vertex -5.20623 -1.05801 3
      vertex -5.32735 -0.867156 0
      vertex -5.32735 -0.867156 3
    endloop
  endfacet
  facet normal 0.844327 0.535828 0
    outer loop
      vertex -5.32735 -0.867156 0
      vertex -5.20623 -1.05801 3
      vertex -5.20623 -1.05801 0
    endloop
  endfacet
  facet normal 0.90482 0.425794 0
    outer loop
      vertex -5.32735 -0.867156 3
      vertex -5.4236 -0.662623 0
      vertex -5.4236 -0.662623 3
    endloop
  endfacet
  facet normal 0.90482 0.425794 0
    outer loop
      vertex -5.4236 -0.662623 0
      vertex -5.32735 -0.867156 3
      vertex -5.32735 -0.867156 0
    endloop
  endfacet
  facet normal -0.998028 -0.0627752 0
    outer loop
      vertex 5.55 0 0
      vertex 5.53581 0.225599 3
      vertex 5.53581 0.225599 0
    endloop
  endfacet
  facet normal -0.998028 -0.0627752 0
    outer loop
      vertex 5.53581 0.225599 3
      vertex 5.55 0 0
      vertex 5.55 0 3
    endloop
  endfacet
  facet normal 0.998028 -0.0627752 0
    outer loop
      vertex 1.95 0 3
      vertex 1.96419 0.225599 0
      vertex 1.96419 0.225599 3
    endloop
  endfacet
  facet normal 0.998028 -0.0627752 0
    outer loop
      vertex 1.96419 0.225599 0
      vertex 1.95 0 3
      vertex 1.95 0 0
    endloop
  endfacet
  facet normal 0 -1 0
    outer loop
      vertex 3.63698 1.79645 0
      vertex 3.86302 1.79645 3
      vertex 3.63698 1.79645 3
    endloop
  endfacet
  facet normal 0 -1 -0
    outer loop
      vertex 3.86302 1.79645 3
      vertex 3.63698 1.79645 0
      vertex 3.86302 1.79645 0
    endloop
  endfacet
  facet normal 0 1 -0
    outer loop
      vertex 3.86302 -1.79645 0
      vertex 3.63698 -1.79645 3
      vertex 3.86302 -1.79645 3
    endloop
  endfacet
  facet normal 0 1 0
    outer loop
      vertex 3.63698 -1.79645 3
      vertex 3.86302 -1.79645 0
      vertex 3.63698 -1.79645 0
    endloop
  endfacet
  facet normal -0.68455 -0.728966 0
    outer loop
      vertex 4.89736 1.38692 0
      vertex 5.06214 1.23218 3
      vertex 4.89736 1.38692 3
    endloop
  endfacet
  facet normal -0.68455 -0.728966 -0
    outer loop
      vertex 5.06214 1.23218 3
      vertex 4.89736 1.38692 0
      vertex 5.06214 1.23218 0
    endloop
  endfacet
  facet normal 0.68455 -0.728966 0
    outer loop
      vertex 2.43786 1.23218 0
      vertex 2.60264 1.38692 3
      vertex 2.43786 1.23218 3
    endloop
  endfacet
  facet normal 0.68455 -0.728966 0
    outer loop
      vertex 2.60264 1.38692 3
      vertex 2.43786 1.23218 0
      vertex 2.60264 1.38692 0
    endloop
  endfacet
  facet normal 0.368116 -0.92978 0
    outer loop
      vertex 2.9836 1.62869 0
      vertex 3.19377 1.7119 3
      vertex 2.9836 1.62869 3
    endloop
  endfacet
  facet normal 0.368116 -0.92978 0
    outer loop
      vertex 3.19377 1.7119 3
      vertex 2.9836 1.62869 0
      vertex 3.19377 1.7119 0
    endloop
  endfacet
  facet normal -0.90482 -0.425794 0
    outer loop
      vertex 5.4236 0.662623 0
      vertex 5.32735 0.867156 3
      vertex 5.32735 0.867156 0
    endloop
  endfacet
  facet normal -0.90482 -0.425794 0
    outer loop
      vertex 5.32735 0.867156 3
      vertex 5.4236 0.662623 0
      vertex 5.4236 0.662623 3
    endloop
  endfacet
  facet normal -0.982285 -0.187395 0
    outer loop
      vertex 5.53581 0.225599 0
      vertex 5.49345 0.447641 3
      vertex 5.49345 0.447641 0
    endloop
  endfacet
  facet normal -0.982285 -0.187395 0
    outer loop
      vertex 5.49345 0.447641 3
      vertex 5.53581 0.225599 0
      vertex 5.53581 0.225599 3
    endloop
  endfacet
  facet normal -0.368116 -0.92978 0
    outer loop
      vertex 4.30623 1.7119 0
      vertex 4.5164 1.62869 3
      vertex 4.30623 1.7119 3
    endloop
  endfacet
  facet normal -0.368116 -0.92978 -0
    outer loop
      vertex 4.5164 1.62869 3
      vertex 4.30623 1.7119 0
      vertex 4.5164 1.62869 0
    endloop
  endfacet
  facet normal -0.248714 -0.968577 0
    outer loop
      vertex 4.08729 1.76812 0
      vertex 4.30623 1.7119 3
      vertex 4.08729 1.76812 3
    endloop
  endfacet
  facet normal -0.248714 -0.968577 -0
    outer loop
      vertex 4.30623 1.7119 3
      vertex 4.08729 1.76812 0
      vertex 4.30623 1.7119 0
    endloop
  endfacet
  facet normal -0.587806 -0.809002 0
    outer loop
      vertex 4.71449 1.51979 0
      vertex 4.89736 1.38692 3
      vertex 4.71449 1.51979 3
    endloop
  endfacet
  facet normal -0.587806 -0.809002 -0
    outer loop
      vertex 4.89736 1.38692 3
      vertex 4.71449 1.51979 0
      vertex 4.89736 1.38692 0
    endloop
  endfacet
  facet normal 0.90482 -0.425794 0
    outer loop
      vertex 2.0764 0.662623 3
      vertex 2.17265 0.867156 0
      vertex 2.17265 0.867156 3
    endloop
  endfacet
  facet normal 0.90482 -0.425794 0
    outer loop
      vertex 2.17265 0.867156 0
      vertex 2.0764 0.662623 3
      vertex 2.0764 0.662623 0
    endloop
  endfacet
  facet normal 0.844327 -0.535828 0
    outer loop
      vertex 2.17265 0.867156 3
      vertex 2.29377 1.05801 0
      vertex 2.29377 1.05801 3
    endloop
  endfacet
  facet normal 0.844327 -0.535828 0
    outer loop
      vertex 2.29377 1.05801 0
      vertex 2.17265 0.867156 3
      vertex 2.17265 0.867156 0
    endloop
  endfacet
  facet normal 0.951059 -0.309009 0
    outer loop
      vertex 2.00655 0.447641 3
      vertex 2.0764 0.662623 0
      vertex 2.0764 0.662623 3
    endloop
  endfacet
  facet normal 0.951059 -0.309009 0
    outer loop
      vertex 2.0764 0.662623 0
      vertex 2.00655 0.447641 3
      vertex 2.00655 0.447641 0
    endloop
  endfacet
  facet normal 0.587806 -0.809002 0
    outer loop
      vertex 2.60264 1.38692 0
      vertex 2.78551 1.51979 3
      vertex 2.60264 1.38692 3
    endloop
  endfacet
  facet normal 0.587806 -0.809002 0
    outer loop
      vertex 2.78551 1.51979 3
      vertex 2.60264 1.38692 0
      vertex 2.78551 1.51979 0
    endloop
  endfacet
  facet normal 0.248714 -0.968577 0
    outer loop
      vertex 3.19377 1.7119 0
      vertex 3.41271 1.76812 3
      vertex 3.19377 1.7119 3
    endloop
  endfacet
  facet normal 0.248714 -0.968577 0
    outer loop
      vertex 3.41271 1.76812 3
      vertex 3.19377 1.7119 0
      vertex 3.41271 1.76812 0
    endloop
  endfacet
  facet normal -0.951059 0.309009 0
    outer loop
      vertex 5.4236 -0.662623 0
      vertex 5.49345 -0.447641 3
      vertex 5.49345 -0.447641 0
    endloop
  endfacet
  facet normal -0.951059 0.309009 0
    outer loop
      vertex 5.49345 -0.447641 3
      vertex 5.4236 -0.662623 0
      vertex 5.4236 -0.662623 3
    endloop
  endfacet
  facet normal -0.125325 0.992116 0
    outer loop
      vertex 4.08729 -1.76812 0
      vertex 3.86302 -1.79645 3
      vertex 4.08729 -1.76812 3
    endloop
  endfacet
  facet normal -0.125325 0.992116 0
    outer loop
      vertex 3.86302 -1.79645 3
      vertex 4.08729 -1.76812 0
      vertex 3.86302 -1.79645 0
    endloop
  endfacet
  facet normal -0.951059 -0.309009 0
    outer loop
      vertex 5.49345 0.447641 0
      vertex 5.4236 0.662623 3
      vertex 5.4236 0.662623 0
    endloop
  endfacet
  facet normal -0.951059 -0.309009 0
    outer loop
      vertex 5.4236 0.662623 3
      vertex 5.49345 0.447641 0
      vertex 5.49345 0.447641 3
    endloop
  endfacet
  facet normal -0.770504 -0.637435 0
    outer loop
      vertex 5.20623 1.05801 0
      vertex 5.06214 1.23218 3
      vertex 5.06214 1.23218 0
    endloop
  endfacet
  facet normal -0.770504 -0.637435 0
    outer loop
      vertex 5.06214 1.23218 3
      vertex 5.20623 1.05801 0
      vertex 5.20623 1.05801 3
    endloop
  endfacet
  facet normal -0.844327 -0.535828 0
    outer loop
      vertex 5.32735 0.867156 0
      vertex 5.20623 1.05801 3
      vertex 5.20623 1.05801 0
    endloop
  endfacet
  facet normal -0.844327 -0.535828 0
    outer loop
      vertex 5.20623 1.05801 3
      vertex 5.32735 0.867156 0
      vertex 5.32735 0.867156 3
    endloop
  endfacet
  facet normal -0.125325 -0.992116 0
    outer loop
      vertex 3.86302 1.79645 0
      vertex 4.08729 1.76812 3
      vertex 3.86302 1.79645 3
    endloop
  endfacet
  facet normal -0.125325 -0.992116 -0
    outer loop
      vertex 4.08729 1.76812 3
      vertex 3.86302 1.79645 0
      vertex 4.08729 1.76812 0
    endloop
  endfacet
  facet normal -0.481751 -0.876308 0
    outer loop
      vertex 4.5164 1.62869 0
      vertex 4.71449 1.51979 3
      vertex 4.5164 1.62869 3
    endloop
  endfacet
  facet normal -0.481751 -0.876308 -0
    outer loop
      vertex 4.71449 1.51979 3
      vertex 4.5164 1.62869 0
      vertex 4.71449 1.51979 0
    endloop
  endfacet
  facet normal 0.770504 -0.637435 0
    outer loop
      vertex 2.29377 1.05801 3
      vertex 2.43786 1.23218 0
      vertex 2.43786 1.23218 3
    endloop
  endfacet
  facet normal 0.770504 -0.637435 0
    outer loop
      vertex 2.43786 1.23218 0
      vertex 2.29377 1.05801 3
      vertex 2.29377 1.05801 0
    endloop
  endfacet
  facet normal 0.982285 -0.187395 0
    outer loop
      vertex 1.96419 0.225599 3
      vertex 2.00655 0.447641 0
      vertex 2.00655 0.447641 3
    endloop
  endfacet
  facet normal 0.982285 -0.187395 0
    outer loop
      vertex 2.00655 0.447641 0
      vertex 1.96419 0.225599 3
      vertex 1.96419 0.225599 0
    endloop
  endfacet
  facet normal 0.481751 -0.876308 0
    outer loop
      vertex 2.78551 1.51979 0
      vertex 2.9836 1.62869 3
      vertex 2.78551 1.51979 3
    endloop
  endfacet
  facet normal 0.481751 -0.876308 0
    outer loop
      vertex 2.9836 1.62869 3
      vertex 2.78551 1.51979 0
      vertex 2.9836 1.62869 0
    endloop
  endfacet
  facet normal 0.125325 -0.992116 0
    outer loop
      vertex 3.41271 1.76812 0
      vertex 3.63698 1.79645 3
      vertex 3.41271 1.76812 3
    endloop
  endfacet
  facet normal 0.125325 -0.992116 0
    outer loop
      vertex 3.63698 1.79645 3
      vertex 3.41271 1.76812 0
      vertex 3.63698 1.79645 0
    endloop
  endfacet
  facet normal -0.998028 0.0627752 0
    outer loop
      vertex 5.53581 -0.225599 0
      vertex 5.55 0 3
      vertex 5.55 0 0
    endloop
  endfacet
  facet normal -0.998028 0.0627752 0
    outer loop
      vertex 5.55 0 3
      vertex 5.53581 -0.225599 0
      vertex 5.53581 -0.225599 3
    endloop
  endfacet
  facet normal -0.68455 0.728966 0
    outer loop
      vertex 5.06214 -1.23218 0
      vertex 4.89736 -1.38692 3
      vertex 5.06214 -1.23218 3
    endloop
  endfacet
  facet normal -0.68455 0.728966 0
    outer loop
      vertex 4.89736 -1.38692 3
      vertex 5.06214 -1.23218 0
      vertex 4.89736 -1.38692 0
    endloop
  endfacet
  facet normal -0.982285 0.187395 0
    outer loop
      vertex 5.49345 -0.447641 0
      vertex 5.53581 -0.225599 3
      vertex 5.53581 -0.225599 0
    endloop
  endfacet
  facet normal -0.982285 0.187395 0
    outer loop
      vertex 5.53581 -0.225599 3
      vertex 5.49345 -0.447641 0
      vertex 5.49345 -0.447641 3
    endloop
  endfacet
  facet normal -0.368116 0.92978 0
    outer loop
      vertex 4.5164 -1.62869 0
      vertex 4.30623 -1.7119 3
      vertex 4.5164 -1.62869 3
    endloop
  endfacet
  facet normal -0.368116 0.92978 0
    outer loop
      vertex 4.30623 -1.7119 3
      vertex 4.5164 -1.62869 0
      vertex 4.30623 -1.7119 0
    endloop
  endfacet
  facet normal -0.481751 0.876308 0
    outer loop
      vertex 4.71449 -1.51979 0
      vertex 4.5164 -1.62869 3
      vertex 4.71449 -1.51979 3
    endloop
  endfacet
  facet normal -0.481751 0.876308 0
    outer loop
      vertex 4.5164 -1.62869 3
      vertex 4.71449 -1.51979 0
      vertex 4.5164 -1.62869 0
    endloop
  endfacet
  facet normal -0.90482 0.425794 0
    outer loop
      vertex 5.32735 -0.867156 0
      vertex 5.4236 -0.662623 3
      vertex 5.4236 -0.662623 0
    endloop
  endfacet
  facet normal -0.90482 0.425794 0
    outer loop
      vertex 5.4236 -0.662623 3
      vertex 5.32735 -0.867156 0
      vertex 5.32735 -0.867156 3
    endloop
  endfacet
  facet normal -0.770504 0.637435 0
    outer loop
      vertex 5.06214 -1.23218 0
      vertex 5.20623 -1.05801 3
      vertex 5.20623 -1.05801 0
    endloop
  endfacet
  facet normal -0.770504 0.637435 0
    outer loop
      vertex 5.20623 -1.05801 3
      vertex 5.06214 -1.23218 0
      vertex 5.06214 -1.23218 3
    endloop
  endfacet
  facet normal 0.368116 0.92978 -0
    outer loop
      vertex 3.19377 -1.7119 0
      vertex 2.9836 -1.62869 3
      vertex 3.19377 -1.7119 3
    endloop
  endfacet
  facet normal 0.368116 0.92978 0
    outer loop
      vertex 2.9836 -1.62869 3
      vertex 3.19377 -1.7119 0
      vertex 2.9836 -1.62869 0
    endloop
  endfacet
  facet normal 0.248714 0.968577 -0
    outer loop
      vertex 3.41271 -1.76812 0
      vertex 3.19377 -1.7119 3
      vertex 3.41271 -1.76812 3
    endloop
  endfacet
  facet normal 0.248714 0.968577 0
    outer loop
      vertex 3.19377 -1.7119 3
      vertex 3.41271 -1.76812 0
      vertex 3.19377 -1.7119 0
    endloop
  endfacet
  facet normal 0.770504 0.637435 0
    outer loop
      vertex 2.43786 -1.23218 3
      vertex 2.29377 -1.05801 0
      vertex 2.29377 -1.05801 3
    endloop
  endfacet
  facet normal 0.770504 0.637435 0
    outer loop
      vertex 2.29377 -1.05801 0
      vertex 2.43786 -1.23218 3
      vertex 2.43786 -1.23218 0
    endloop
  endfacet
  facet normal 0.951059 0.309009 0
    outer loop
      vertex 2.0764 -0.662623 3
      vertex 2.00655 -0.447641 0
      vertex 2.00655 -0.447641 3
    endloop
  endfacet
  facet normal 0.951059 0.309009 0
    outer loop
      vertex 2.00655 -0.447641 0
      vertex 2.0764 -0.662623 3
      vertex 2.0764 -0.662623 0
    endloop
  endfacet
  facet normal -0.248714 0.968577 0
    outer loop
      vertex 4.30623 -1.7119 0
      vertex 4.08729 -1.76812 3
      vertex 4.30623 -1.7119 3
    endloop
  endfacet
  facet normal -0.248714 0.968577 0
    outer loop
      vertex 4.08729 -1.76812 3
      vertex 4.30623 -1.7119 0
      vertex 4.08729 -1.76812 0
    endloop
  endfacet
  facet normal -0.587806 0.809002 0
    outer loop
      vertex 4.89736 -1.38692 0
      vertex 4.71449 -1.51979 3
      vertex 4.89736 -1.38692 3
    endloop
  endfacet
  facet normal -0.587806 0.809002 0
    outer loop
      vertex 4.71449 -1.51979 3
      vertex 4.89736 -1.38692 0
      vertex 4.71449 -1.51979 0
    endloop
  endfacet
  facet normal -0.844327 0.535828 0
    outer loop
      vertex 5.20623 -1.05801 0
      vertex 5.32735 -0.867156 3
      vertex 5.32735 -0.867156 0
    endloop
  endfacet
  facet normal -0.844327 0.535828 0
    outer loop
      vertex 5.32735 -0.867156 3
      vertex 5.20623 -1.05801 0
      vertex 5.20623 -1.05801 3
    endloop
  endfacet
  facet normal 0.125325 0.992116 -0
    outer loop
      vertex 3.63698 -1.79645 0
      vertex 3.41271 -1.76812 3
      vertex 3.63698 -1.79645 3
    endloop
  endfacet
  facet normal 0.125325 0.992116 0
    outer loop
      vertex 3.41271 -1.76812 3
      vertex 3.63698 -1.79645 0
      vertex 3.41271 -1.76812 0
    endloop
  endfacet
  facet normal 0.587806 0.809002 -0
    outer loop
      vertex 2.78551 -1.51979 0
      vertex 2.60264 -1.38692 3
      vertex 2.78551 -1.51979 3
    endloop
  endfacet
  facet normal 0.587806 0.809002 0
    outer loop
      vertex 2.60264 -1.38692 3
      vertex 2.78551 -1.51979 0
      vertex 2.60264 -1.38692 0
    endloop
  endfacet
  facet normal 0.68455 0.728966 -0
    outer loop
      vertex 2.60264 -1.38692 0
      vertex 2.43786 -1.23218 3
      vertex 2.60264 -1.38692 3
    endloop
  endfacet
  facet normal 0.68455 0.728966 0
    outer loop
      vertex 2.43786 -1.23218 3
      vertex 2.60264 -1.38692 0
      vertex 2.43786 -1.23218 0
    endloop
  endfacet
  facet normal 0.90482 0.425794 0
    outer loop
      vertex 2.17265 -0.867156 3
      vertex 2.0764 -0.662623 0
      vertex 2.0764 -0.662623 3
    endloop
  endfacet
  facet normal 0.90482 0.425794 0
    outer loop
      vertex 2.0764 -0.662623 0
      vertex 2.17265 -0.867156 3
      vertex 2.17265 -0.867156 0
    endloop
  endfacet
  facet normal 0.982285 0.187395 0
    outer loop
      vertex 2.00655 -0.447641 3
      vertex 1.96419 -0.225599 0
      vertex 1.96419 -0.225599 3
    endloop
  endfacet
  facet normal 0.982285 0.187395 0
    outer loop
      vertex 1.96419 -0.225599 0
      vertex 2.00655 -0.447641 3
      vertex 2.00655 -0.447641 0
    endloop
  endfacet
  facet normal 0.998028 0.0627752 0
    outer loop
      vertex 1.96419 -0.225599 3
      vertex 1.95 0 0
      vertex 1.95 0 3
    endloop
  endfacet
  facet normal 0.998028 0.0627752 0
    outer loop
      vertex 1.95 0 0
      vertex 1.96419 -0.225599 3
      vertex 1.96419 -0.225599 0
    endloop
  endfacet
  facet normal 0.481751 0.876308 -0
    outer loop
      vertex 2.9836 -1.62869 0
      vertex 2.78551 -1.51979 3
      vertex 2.9836 -1.62869 3
    endloop
  endfacet
  facet normal 0.481751 0.876308 0
    outer loop
      vertex 2.78551 -1.51979 3
      vertex 2.9836 -1.62869 0
      vertex 2.78551 -1.51979 0
    endloop
  endfacet
  facet normal 0.844327 0.535828 0
    outer loop
      vertex 2.29377 -1.05801 3
      vertex 2.17265 -0.867156 0
      vertex 2.17265 -0.867156 3
    endloop
  endfacet
  facet normal 0.844327 0.535828 0
    outer loop
      vertex 2.17265 -0.867156 0
      vertex 2.29377 -1.05801 3
      vertex 2.29377 -1.05801 0
    endloop
  endfacet
  facet normal -1 0 0
    outer loop
      vertex -7.25 -1 0
      vertex -7.25 1 3
      vertex -7.25 1 0
    endloop
  endfacet
  facet normal -1 -0 0
    outer loop
      vertex -7.25 1 3
      vertex -7.25 -1 0
      vertex -7.25 -1 3
    endloop
  endfacet
  facet normal -0.998027 -0.0627808 0
    outer loop
      vertex -7.23029 -1.31333 0
      vertex -7.25 -1 3
      vertex -7.25 -1 0
    endloop
  endfacet
  facet normal -0.998027 -0.0627808 0
    outer loop
      vertex -7.25 -1 3
      vertex -7.23029 -1.31333 0
      vertex -7.23029 -1.31333 3
    endloop
  endfacet
  facet normal -0.998027 0.0627808 0
    outer loop
      vertex -7.25 1 0
      vertex -7.23029 1.31333 3
      vertex -7.23029 1.31333 0
    endloop
  endfacet
  facet normal -0.998027 0.0627808 0
    outer loop
      vertex -7.23029 1.31333 3
      vertex -7.25 1 0
      vertex -7.25 1 3
    endloop
  endfacet
  facet normal 0 0 1
    outer loop
      vertex 5.4236 0.662623 3
      vertex 7.25 1 3
      vertex 7.23029 1.31333 3
    endloop
  endfacet
  facet normal 0 0 1
    outer loop
      vertex 7.25 1 3
      vertex 5.55 0 3
      vertex 7.25 -1 3
    endloop
  endfacet
  facet normal 0 0 1
    outer loop
      vertex 5.32735 0.867156 3
      vertex 7.23029 1.31333 3
      vertex 7.17146 1.62172 3
    endloop
  endfacet
  facet normal -0 0 1
    outer loop
      vertex 5.53581 -0.225599 3
      vertex 7.25 -1 3
      vertex 5.55 0 3
    endloop
  endfacet
  facet normal 0 0 1
    outer loop
      vertex 5.32735 0.867156 3
      vertex 7.17146 1.62172 3
      vertex 7.07444 1.92031 3
    endloop
  endfacet
  facet normal -0 0 1
    outer loop
      vertex 5.49345 -0.447641 3
      vertex 7.25 -1 3
      vertex 5.53581 -0.225599 3
    endloop
  endfacet
  facet normal 0 0 1
    outer loop
      vertex 5.20623 1.05801 3
      vertex 7.07444 1.92031 3
      vertex 6.94077 2.20438 3
    endloop
  endfacet
  facet normal -0 0 1
    outer loop
      vertex 5.4236 -0.662623 3
      vertex 7.25 -1 3
      vertex 5.49345 -0.447641 3
    endloop
  endfacet
  facet normal 0 0 1
    outer loop
      vertex 5.20623 1.05801 3
      vertex 6.94077 2.20438 3
      vertex 6.77254 2.46946 3
    endloop
  endfacet
  facet normal 0 0 1
    outer loop
      vertex 7.25 -1 3
      vertex 5.4236 -0.662623 3
      vertex 7.23029 -1.31333 3
    endloop
  endfacet
  facet normal 0 0 1
    outer loop
      vertex 5.06214 1.23218 3
      vertex 6.77254 2.46946 3
      vertex 6.57242 2.71137 3
    endloop
  endfacet
  facet normal -0 0 1
    outer loop
      vertex 5.32735 -0.867156 3
      vertex 7.23029 -1.31333 3
      vertex 5.4236 -0.662623 3
    endloop
  endfacet
  facet normal 0 0 1
    outer loop
      vertex 5.06214 1.23218 3
      vertex 6.57242 2.71137 3
      vertex 6.34356 2.92628 3
    endloop
  endfacet
  facet normal 0 0 1
    outer loop
      vertex 7.23029 -1.31333 3
      vertex 5.32735 -0.867156 3
      vertex 7.17146 -1.62172 3
    endloop
  endfacet
  facet normal 0 0 1
    outer loop
      vertex 4.89736 1.38692 3
      vertex 6.34356 2.92628 3
      vertex 6.08957 3.11082 3
    endloop
  endfacet
  facet normal 0 0 1
    outer loop
      vertex 7.17146 -1.62172 3
      vertex 5.32735 -0.867156 3
      vertex 7.07444 -1.92031 3
    endloop
  endfacet
  facet normal 0 0 1
    outer loop
      vertex 4.89736 1.38692 3
      vertex 6.08957 3.11082 3
      vertex 5.81445 3.26207 3
    endloop
  endfacet
  facet normal -0 0 1
    outer loop
      vertex 5.20623 -1.05801 3
      vertex 7.07444 -1.92031 3
      vertex 5.32735 -0.867156 3
    endloop
  endfacet
  facet normal 0 0 1
    outer loop
      vertex 7.07444 -1.92031 3
      vertex 5.20623 -1.05801 3
      vertex 6.94077 -2.20438 3
    endloop
  endfacet
  facet normal 0 0 1
    outer loop
      vertex 7.25 1 3
      vertex 5.53581 0.225599 3
      vertex 5.55 0 3
    endloop
  endfacet
  facet normal 0 0 1
    outer loop
      vertex 4.71449 1.51979 3
      vertex 5.81445 3.26207 3
      vertex 5.52254 3.37764 3
    endloop
  endfacet
  facet normal 0 0 1
    outer loop
      vertex 7.25 1 3
      vertex 5.49345 0.447641 3
      vertex 5.53581 0.225599 3
    endloop
  endfacet
  facet normal 0 0 1
    outer loop
      vertex 7.25 1 3
      vertex 5.4236 0.662623 3
      vertex 5.49345 0.447641 3
    endloop
  endfacet
  facet normal 0 0 1
    outer loop
      vertex 7.23029 1.31333 3
      vertex 5.32735 0.867156 3
      vertex 5.4236 0.662623 3
    endloop
  endfacet
  facet normal 0 0 1
    outer loop
      vertex 4.71449 1.51979 3
      vertex 5.52254 3.37764 3
      vertex 5.21845 3.45572 3
    endloop
  endfacet
  facet normal 0 0 1
    outer loop
      vertex 7.07444 1.92031 3
      vertex 5.20623 1.05801 3
      vertex 5.32735 0.867156 3
    endloop
  endfacet
  facet normal 0 0 1
    outer loop
      vertex 6.77254 2.46946 3
      vertex 5.06214 1.23218 3
      vertex 5.20623 1.05801 3
    endloop
  endfacet
  facet normal 0 0 1
    outer loop
      vertex 4.5164 1.62869 3
      vertex 5.21845 3.45572 3
      vertex 4.90698 3.49507 3
    endloop
  endfacet
  facet normal 0 0 1
    outer loop
      vertex 6.34356 2.92628 3
      vertex 4.89736 1.38692 3
      vertex 5.06214 1.23218 3
    endloop
  endfacet
  facet normal 0 0 1
    outer loop
      vertex 5.81445 3.26207 3
      vertex 4.71449 1.51979 3
      vertex 4.89736 1.38692 3
    endloop
  endfacet
  facet normal 0 0 1
    outer loop
      vertex 5.21845 3.45572 3
      vertex 4.5164 1.62869 3
      vertex 4.71449 1.51979 3
    endloop
  endfacet
  facet normal 0 0 1
    outer loop
      vertex 4.90698 3.49507 3
      vertex 4.30623 1.7119 3
      vertex 4.5164 1.62869 3
    endloop
  endfacet
  facet normal 0 0 1
    outer loop
      vertex 4.90698 3.49507 3
      vertex 4.08729 1.76812 3
      vertex 4.30623 1.7119 3
    endloop
  endfacet
  facet normal 0 0 1
    outer loop
      vertex 4.90698 3.49507 3
      vertex 3.86302 1.79645 3
      vertex 4.08729 1.76812 3
    endloop
  endfacet
  facet normal 0 0 1
    outer loop
      vertex 4.90698 3.49507 3
      vertex 3.63698 1.79645 3
      vertex 3.86302 1.79645 3
    endloop
  endfacet
  facet normal 0 0 1
    outer loop
      vertex 4.90698 3.49507 3
      vertex 3.41271 1.76812 3
      vertex 3.63698 1.79645 3
    endloop
  endfacet
  facet normal 0 0 1
    outer loop
      vertex 4.90698 3.49507 3
      vertex 3.19377 1.7119 3
      vertex 3.41271 1.76812 3
    endloop
  endfacet
  facet normal 0 0 1
    outer loop
      vertex 4.90698 3.49507 3
      vertex 2.9836 1.62869 3
      vertex 3.19377 1.7119 3
    endloop
  endfacet
  facet normal 0 0 1
    outer loop
      vertex 4.90698 3.49507 3
      vertex 2.78551 1.51979 3
      vertex 2.9836 1.62869 3
    endloop
  endfacet
  facet normal 0 0 1
    outer loop
      vertex -2.78551 1.51979 3
      vertex 2.78551 1.51979 3
      vertex 4.90698 3.49507 3
    endloop
  endfacet
  facet normal 0 0 1
    outer loop
      vertex 1.96419 0.225599 3
      vertex -1.95 0 3
      vertex 1.95 0 3
    endloop
  endfacet
  facet normal 0 0 1
    outer loop
      vertex -1.96419 0.225599 3
      vertex 1.96419 0.225599 3
      vertex 2.00655 0.447641 3
    endloop
  endfacet
  facet normal 0 0 1
    outer loop
      vertex -2.00655 0.447641 3
      vertex 2.00655 0.447641 3
      vertex 2.0764 0.662623 3
    endloop
  endfacet
  facet normal 0 0 1
    outer loop
      vertex -2.0764 0.662623 3
      vertex 2.0764 0.662623 3
      vertex 2.17265 0.867156 3
    endloop
  endfacet
  facet normal 0 0 1
    outer loop
      vertex -2.17265 0.867156 3
      vertex 2.17265 0.867156 3
      vertex 2.29377 1.05801 3
    endloop
  endfacet
  facet normal 0 0 1
    outer loop
      vertex -2.29377 1.05801 3
      vertex 2.29377 1.05801 3
      vertex 2.43786 1.23218 3
    endloop
  endfacet
  facet normal 0 0 1
    outer loop
      vertex -2.43786 1.23218 3
      vertex 2.43786 1.23218 3
      vertex 2.60264 1.38692 3
    endloop
  endfacet
  facet normal 0 0 1
    outer loop
      vertex 2.78551 1.51979 3
      vertex -2.78551 1.51979 3
      vertex 2.60264 1.38692 3
    endloop
  endfacet
  facet normal 0 0 1
    outer loop
      vertex 1.96419 0.225599 3
      vertex -1.96419 0.225599 3
      vertex -1.95 0 3
    endloop
  endfacet
  facet normal 0 0 1
    outer loop
      vertex 2.00655 0.447641 3
      vertex -2.00655 0.447641 3
      vertex -1.96419 0.225599 3
    endloop
  endfacet
  facet normal 0 0 1
    outer loop
      vertex 2.0764 0.662623 3
      vertex -2.0764 0.662623 3
      vertex -2.00655 0.447641 3
    endloop
  endfacet
  facet normal 0 0 1
    outer loop
      vertex 2.17265 0.867156 3
      vertex -2.17265 0.867156 3
      vertex -2.0764 0.662623 3
    endloop
  endfacet
  facet normal 0 0 1
    outer loop
      vertex 2.29377 1.05801 3
      vertex -2.29377 1.05801 3
      vertex -2.17265 0.867156 3
    endloop
  endfacet
  facet normal 0 0 1
    outer loop
      vertex 2.43786 1.23218 3
      vertex -2.43786 1.23218 3
      vertex -2.29377 1.05801 3
    endloop
  endfacet
  facet normal 0 0 1
    outer loop
      vertex 2.60264 1.38692 3
      vertex -2.60264 1.38692 3
      vertex -2.43786 1.23218 3
    endloop
  endfacet
  facet normal 0 0 1
    outer loop
      vertex 2.60264 1.38692 3
      vertex -2.78551 1.51979 3
      vertex -2.60264 1.38692 3
    endloop
  endfacet
  facet normal -0 0 1
    outer loop
      vertex -4.90698 3.49507 3
      vertex -2.78551 1.51979 3
      vertex 4.90698 3.49507 3
    endloop
  endfacet
  facet normal 0 0 1
    outer loop
      vertex -2.78551 1.51979 3
      vertex -4.90698 3.49507 3
      vertex -2.9836 1.62869 3
    endloop
  endfacet
  facet normal 0 0 1
    outer loop
      vertex -2.9836 1.62869 3
      vertex -4.90698 3.49507 3
      vertex -3.19377 1.7119 3
    endloop
  endfacet
  facet normal 0 0 1
    outer loop
      vertex -3.19377 1.7119 3
      vertex -4.90698 3.49507 3
      vertex -3.41271 1.76812 3
    endloop
  endfacet
  facet normal 0 0 1
    outer loop
      vertex -3.41271 1.76812 3
      vertex -4.90698 3.49507 3
      vertex -3.63698 1.79645 3
    endloop
  endfacet
  facet normal 0 0 1
    outer loop
      vertex -3.63698 1.79645 3
      vertex -4.90698 3.49507 3
      vertex -3.86302 1.79645 3
    endloop
  endfacet
  facet normal 0 0 1
    outer loop
      vertex -3.86302 1.79645 3
      vertex -4.90698 3.49507 3
      vertex -4.08729 1.76812 3
    endloop
  endfacet
  facet normal 0 0 1
    outer loop
      vertex -4.90698 3.49507 3
      vertex -4.30623 1.7119 3
      vertex -4.08729 1.76812 3
    endloop
  endfacet
  facet normal 0 0 1
    outer loop
      vertex -4.90698 3.49507 3
      vertex -4.5164 1.62869 3
      vertex -4.30623 1.7119 3
    endloop
  endfacet
  facet normal -0 0 1
    outer loop
      vertex -5.21845 3.45572 3
      vertex -4.5164 1.62869 3
      vertex -4.90698 3.49507 3
    endloop
  endfacet
  facet normal 0 0 1
    outer loop
      vertex -4.5164 1.62869 3
      vertex -5.21845 3.45572 3
      vertex -4.71449 1.51979 3
    endloop
  endfacet
  facet normal -0 0 1
    outer loop
      vertex -5.52254 3.37764 3
      vertex -4.71449 1.51979 3
      vertex -5.21845 3.45572 3
    endloop
  endfacet
  facet normal -0 0 1
    outer loop
      vertex -5.81445 3.26207 3
      vertex -4.71449 1.51979 3
      vertex -5.52254 3.37764 3
    endloop
  endfacet
  facet normal 0 0 1
    outer loop
      vertex -4.71449 1.51979 3
      vertex -5.81445 3.26207 3
      vertex -4.89736 1.38692 3
    endloop
  endfacet
  facet normal -0 0 1
    outer loop
      vertex -6.08957 3.11082 3
      vertex -4.89736 1.38692 3
      vertex -5.81445 3.26207 3
    endloop
  endfacet
  facet normal -0 0 1
    outer loop
      vertex -6.34356 2.92628 3
      vertex -4.89736 1.38692 3
      vertex -6.08957 3.11082 3
    endloop
  endfacet
  facet normal 0 0 1
    outer loop
      vertex -4.89736 1.38692 3
      vertex -6.34356 2.92628 3
      vertex -5.06214 1.23218 3
    endloop
  endfacet
  facet normal -0 0 1
    outer loop
      vertex -6.57242 2.71137 3
      vertex -5.06214 1.23218 3
      vertex -6.34356 2.92628 3
    endloop
  endfacet
  facet normal -0 0 1
    outer loop
      vertex -6.77254 2.46946 3
      vertex -5.06214 1.23218 3
      vertex -6.57242 2.71137 3
    endloop
  endfacet
  facet normal 0 0 1
    outer loop
      vertex -5.06214 1.23218 3
      vertex -6.77254 2.46946 3
      vertex -5.20623 1.05801 3
    endloop
  endfacet
  facet normal -0 0 1
    outer loop
      vertex -6.94077 2.20438 3
      vertex -5.20623 1.05801 3
      vertex -6.77254 2.46946 3
    endloop
  endfacet
  facet normal 0 0 1
    outer loop
      vertex 6.94077 -2.20438 3
      vertex 5.20623 -1.05801 3
      vertex 6.77254 -2.46946 3
    endloop
  endfacet
  facet normal -0 0 1
    outer loop
      vertex 5.06214 -1.23218 3
      vertex 6.77254 -2.46946 3
      vertex 5.20623 -1.05801 3
    endloop
  endfacet
  facet normal 0 0 1
    outer loop
      vertex 6.77254 -2.46946 3
      vertex 5.06214 -1.23218 3
      vertex 6.57242 -2.71137 3
    endloop
  endfacet
  facet normal 0 0 1
    outer loop
      vertex 6.57242 -2.71137 3
      vertex 5.06214 -1.23218 3
      vertex 6.34356 -2.92628 3
    endloop
  endfacet
  facet normal -0 0 1
    outer loop
      vertex 4.89736 -1.38692 3
      vertex 6.34356 -2.92628 3
      vertex 5.06214 -1.23218 3
    endloop
  endfacet
  facet normal 0 0 1
    outer loop
      vertex 6.34356 -2.92628 3
      vertex 4.89736 -1.38692 3
      vertex 6.08957 -3.11082 3
    endloop
  endfacet
  facet normal 0 0 1
    outer loop
      vertex 6.08957 -3.11082 3
      vertex 4.89736 -1.38692 3
      vertex 5.81445 -3.26207 3
    endloop
  endfacet
  facet normal -0 0 1
    outer loop
      vertex 4.71449 -1.51979 3
      vertex 5.81445 -3.26207 3
      vertex 4.89736 -1.38692 3
    endloop
  endfacet
  facet normal 0 0 1
    outer loop
      vertex 5.81445 -3.26207 3
      vertex 4.71449 -1.51979 3
      vertex 5.52254 -3.37764 3
    endloop
  endfacet
  facet normal 0 0 1
    outer loop
      vertex 5.52254 -3.37764 3
      vertex 4.71449 -1.51979 3
      vertex 5.21845 -3.45572 3
    endloop
  endfacet
  facet normal -0 0 1
    outer loop
      vertex 4.5164 -1.62869 3
      vertex 5.21845 -3.45572 3
      vertex 4.71449 -1.51979 3
    endloop
  endfacet
  facet normal 0 0 1
    outer loop
      vertex 5.21845 -3.45572 3
      vertex 4.5164 -1.62869 3
      vertex 4.90698 -3.49507 3
    endloop
  endfacet
  facet normal -0 0 1
    outer loop
      vertex 4.30623 -1.7119 3
      vertex 4.90698 -3.49507 3
      vertex 4.5164 -1.62869 3
    endloop
  endfacet
  facet normal -0 0 1
    outer loop
      vertex 4.08729 -1.76812 3
      vertex 4.90698 -3.49507 3
      vertex 4.30623 -1.7119 3
    endloop
  endfacet
  facet normal -0 0 1
    outer loop
      vertex 3.86302 -1.79645 3
      vertex 4.90698 -3.49507 3
      vertex 4.08729 -1.76812 3
    endloop
  endfacet
  facet normal -0 0 1
    outer loop
      vertex 3.63698 -1.79645 3
      vertex 4.90698 -3.49507 3
      vertex 3.86302 -1.79645 3
    endloop
  endfacet
  facet normal 0 0 1
    outer loop
      vertex 3.41271 -1.76812 3
      vertex 4.90698 -3.49507 3
      vertex 3.63698 -1.79645 3
    endloop
  endfacet
  facet normal 0 0 1
    outer loop
      vertex 3.19377 -1.7119 3
      vertex 4.90698 -3.49507 3
      vertex 3.41271 -1.76812 3
    endloop
  endfacet
  facet normal 0 0 1
    outer loop
      vertex 2.9836 -1.62869 3
      vertex 4.90698 -3.49507 3
      vertex 3.19377 -1.7119 3
    endloop
  endfacet
  facet normal 0 0 1
    outer loop
      vertex 2.78551 -1.51979 3
      vertex 4.90698 -3.49507 3
      vertex 2.9836 -1.62869 3
    endloop
  endfacet
  facet normal 0 0 1
    outer loop
      vertex -2.78551 -1.51979 3
      vertex 2.78551 -1.51979 3
      vertex 2.60264 -1.38692 3
    endloop
  endfacet
  facet normal -0 0 1
    outer loop
      vertex -1.95 0 3
      vertex 1.96419 -0.225599 3
      vertex 1.95 0 3
    endloop
  endfacet
  facet normal 0 0 1
    outer loop
      vertex -1.96419 -0.225599 3
      vertex 1.96419 -0.225599 3
      vertex -1.95 0 3
    endloop
  endfacet
  facet normal 0 0 1
    outer loop
      vertex 1.96419 -0.225599 3
      vertex -1.96419 -0.225599 3
      vertex 2.00655 -0.447641 3
    endloop
  endfacet
  facet normal 0 0 1
    outer loop
      vertex -2.00655 -0.447641 3
      vertex 2.00655 -0.447641 3
      vertex -1.96419 -0.225599 3
    endloop
  endfacet
  facet normal 0 0 1
    outer loop
      vertex 2.00655 -0.447641 3
      vertex -2.00655 -0.447641 3
      vertex 2.0764 -0.662623 3
    endloop
  endfacet
  facet normal 0 0 1
    outer loop
      vertex -2.0764 -0.662623 3
      vertex 2.0764 -0.662623 3
      vertex -2.00655 -0.447641 3
    endloop
  endfacet
  facet normal 0 0 1
    outer loop
      vertex 2.0764 -0.662623 3
      vertex -2.0764 -0.662623 3
      vertex 2.17265 -0.867156 3
    endloop
  endfacet
  facet normal 0 0 1
    outer loop
      vertex -2.17265 -0.867156 3
      vertex 2.17265 -0.867156 3
      vertex -2.0764 -0.662623 3
    endloop
  endfacet
  facet normal 0 0 1
    outer loop
      vertex 2.17265 -0.867156 3
      vertex -2.17265 -0.867156 3
      vertex 2.29377 -1.05801 3
    endloop
  endfacet
  facet normal 0 0 1
    outer loop
      vertex -2.29377 -1.05801 3
      vertex 2.29377 -1.05801 3
      vertex -2.17265 -0.867156 3
    endloop
  endfacet
  facet normal 0 0 1
    outer loop
      vertex 2.29377 -1.05801 3
      vertex -2.29377 -1.05801 3
      vertex 2.43786 -1.23218 3
    endloop
  endfacet
  facet normal 0 0 1
    outer loop
      vertex -2.43786 -1.23218 3
      vertex 2.43786 -1.23218 3
      vertex -2.29377 -1.05801 3
    endloop
  endfacet
  facet normal 0 0 1
    outer loop
      vertex 2.43786 -1.23218 3
      vertex -2.43786 -1.23218 3
      vertex 2.60264 -1.38692 3
    endloop
  endfacet
  facet normal 0 0 1
    outer loop
      vertex -2.60264 -1.38692 3
      vertex 2.60264 -1.38692 3
      vertex -2.43786 -1.23218 3
    endloop
  endfacet
  facet normal 0 0 1
    outer loop
      vertex -2.78551 -1.51979 3
      vertex 2.60264 -1.38692 3
      vertex -2.60264 -1.38692 3
    endloop
  endfacet
  facet normal 0 0 1
    outer loop
      vertex 2.78551 -1.51979 3
      vertex -2.78551 -1.51979 3
      vertex 4.90698 -3.49507 3
    endloop
  endfacet
  facet normal 0 0 1
    outer loop
      vertex -4.90698 -3.49507 3
      vertex -2.78551 -1.51979 3
      vertex -2.9836 -1.62869 3
    endloop
  endfacet
  facet normal 0 0 1
    outer loop
      vertex -4.90698 -3.49507 3
      vertex -2.9836 -1.62869 3
      vertex -3.19377 -1.7119 3
    endloop
  endfacet
  facet normal 0 0 1
    outer loop
      vertex -4.90698 -3.49507 3
      vertex -3.19377 -1.7119 3
      vertex -3.41271 -1.76812 3
    endloop
  endfacet
  facet normal 0 0 1
    outer loop
      vertex -4.90698 -3.49507 3
      vertex -3.41271 -1.76812 3
      vertex -3.63698 -1.79645 3
    endloop
  endfacet
  facet normal 0 0 1
    outer loop
      vertex -4.90698 -3.49507 3
      vertex -3.63698 -1.79645 3
      vertex -3.86302 -1.79645 3
    endloop
  endfacet
  facet normal 0 0 1
    outer loop
      vertex -4.90698 -3.49507 3
      vertex -3.86302 -1.79645 3
      vertex -4.08729 -1.76812 3
    endloop
  endfacet
  facet normal 0 0 1
    outer loop
      vertex -2.78551 -1.51979 3
      vertex -4.90698 -3.49507 3
      vertex 4.90698 -3.49507 3
    endloop
  endfacet
  facet normal 0 0 1
    outer loop
      vertex -4.30623 -1.7119 3
      vertex -4.90698 -3.49507 3
      vertex -4.08729 -1.76812 3
    endloop
  endfacet
  facet normal 0 0 1
    outer loop
      vertex -4.5164 -1.62869 3
      vertex -4.90698 -3.49507 3
      vertex -4.30623 -1.7119 3
    endloop
  endfacet
  facet normal 0 0 1
    outer loop
      vertex -5.21845 -3.45572 3
      vertex -4.5164 -1.62869 3
      vertex -4.71449 -1.51979 3
    endloop
  endfacet
  facet normal 0 0 1
    outer loop
      vertex -5.81445 -3.26207 3
      vertex -4.71449 -1.51979 3
      vertex -4.89736 -1.38692 3
    endloop
  endfacet
  facet normal 0 0 1
    outer loop
      vertex -6.34356 -2.92628 3
      vertex -4.89736 -1.38692 3
      vertex -5.06214 -1.23218 3
    endloop
  endfacet
  facet normal 0 0 1
    outer loop
      vertex -6.77254 -2.46946 3
      vertex -5.06214 -1.23218 3
      vertex -5.20623 -1.05801 3
    endloop
  endfacet
  facet normal 0 0 1
    outer loop
      vertex -4.5164 -1.62869 3
      vertex -5.21845 -3.45572 3
      vertex -4.90698 -3.49507 3
    endloop
  endfacet
  facet normal 0 0 1
    outer loop
      vertex -7.07444 -1.92031 3
      vertex -5.20623 -1.05801 3
      vertex -5.32735 -0.867156 3
    endloop
  endfacet
  facet normal 0 0 1
    outer loop
      vertex -7.23029 -1.31333 3
      vertex -5.32735 -0.867156 3
      vertex -5.4236 -0.662623 3
    endloop
  endfacet
  facet normal 0 0 1
    outer loop
      vertex -7.25 -1 3
      vertex -5.4236 -0.662623 3
      vertex -5.49345 -0.447641 3
    endloop
  endfacet
  facet normal 0 0 1
    outer loop
      vertex -4.71449 -1.51979 3
      vertex -5.52254 -3.37764 3
      vertex -5.21845 -3.45572 3
    endloop
  endfacet
  facet normal 0 0 1
    outer loop
      vertex -7.25 -1 3
      vertex -5.49345 -0.447641 3
      vertex -5.53581 -0.225599 3
    endloop
  endfacet
  facet normal 0 0 1
    outer loop
      vertex -7.25 -1 3
      vertex -5.53581 -0.225599 3
      vertex -5.55 0 3
    endloop
  endfacet
  facet normal -0 0 1
    outer loop
      vertex -7.07444 1.92031 3
      vertex -5.20623 1.05801 3
      vertex -6.94077 2.20438 3
    endloop
  endfacet
  facet normal 0 0 1
    outer loop
      vertex -7.25 -1 3
      vertex -5.55 0 3
      vertex -7.25 1 3
    endloop
  endfacet
  facet normal 0 0 1
    outer loop
      vertex -5.20623 1.05801 3
      vertex -7.07444 1.92031 3
      vertex -5.32735 0.867156 3
    endloop
  endfacet
  facet normal 0 0 1
    outer loop
      vertex -5.4236 -0.662623 3
      vertex -7.25 -1 3
      vertex -7.23029 -1.31333 3
    endloop
  endfacet
  facet normal -0 0 1
    outer loop
      vertex -7.17146 1.62172 3
      vertex -5.32735 0.867156 3
      vertex -7.07444 1.92031 3
    endloop
  endfacet
  facet normal 0 0 1
    outer loop
      vertex -4.71449 -1.51979 3
      vertex -5.81445 -3.26207 3
      vertex -5.52254 -3.37764 3
    endloop
  endfacet
  facet normal -0 0 1
    outer loop
      vertex -7.23029 1.31333 3
      vertex -5.32735 0.867156 3
      vertex -7.17146 1.62172 3
    endloop
  endfacet
  facet normal 0 0 1
    outer loop
      vertex -4.89736 -1.38692 3
      vertex -6.08957 -3.11082 3
      vertex -5.81445 -3.26207 3
    endloop
  endfacet
  facet normal 0 0 1
    outer loop
      vertex -5.32735 0.867156 3
      vertex -7.23029 1.31333 3
      vertex -5.4236 0.662623 3
    endloop
  endfacet
  facet normal 0 0 1
    outer loop
      vertex -4.89736 -1.38692 3
      vertex -6.34356 -2.92628 3
      vertex -6.08957 -3.11082 3
    endloop
  endfacet
  facet normal -0 0 1
    outer loop
      vertex -7.25 1 3
      vertex -5.4236 0.662623 3
      vertex -7.23029 1.31333 3
    endloop
  endfacet
  facet normal 0 0 1
    outer loop
      vertex -5.06214 -1.23218 3
      vertex -6.57242 -2.71137 3
      vertex -6.34356 -2.92628 3
    endloop
  endfacet
  facet normal 0 0 1
    outer loop
      vertex -5.4236 0.662623 3
      vertex -7.25 1 3
      vertex -5.49345 0.447641 3
    endloop
  endfacet
  facet normal 0 0 1
    outer loop
      vertex -5.06214 -1.23218 3
      vertex -6.77254 -2.46946 3
      vertex -6.57242 -2.71137 3
    endloop
  endfacet
  facet normal 0 0 1
    outer loop
      vertex -5.49345 0.447641 3
      vertex -7.25 1 3
      vertex -5.53581 0.225599 3
    endloop
  endfacet
  facet normal 0 0 1
    outer loop
      vertex -5.20623 -1.05801 3
      vertex -6.94077 -2.20438 3
      vertex -6.77254 -2.46946 3
    endloop
  endfacet
  facet normal 0 0 1
    outer loop
      vertex -5.53581 0.225599 3
      vertex -7.25 1 3
      vertex -5.55 0 3
    endloop
  endfacet
  facet normal 0 0 1
    outer loop
      vertex -5.20623 -1.05801 3
      vertex -7.07444 -1.92031 3
      vertex -6.94077 -2.20438 3
    endloop
  endfacet
  facet normal 0 0 1
    outer loop
      vertex -5.32735 -0.867156 3
      vertex -7.17146 -1.62172 3
      vertex -7.07444 -1.92031 3
    endloop
  endfacet
  facet normal 0 0 1
    outer loop
      vertex -5.32735 -0.867156 3
      vertex -7.23029 -1.31333 3
      vertex -7.17146 -1.62172 3
    endloop
  endfacet
  facet normal 0.587797 -0.809009 0
    outer loop
      vertex 6.08957 -3.11082 0
      vertex 6.34356 -2.92628 3
      vertex 6.08957 -3.11082 3
    endloop
  endfacet
  facet normal 0.587797 -0.809009 0
    outer loop
      vertex 6.34356 -2.92628 3
      vertex 6.08957 -3.11082 0
      vertex 6.34356 -2.92628 0
    endloop
  endfacet
  facet normal 0 1 -0
    outer loop
      vertex 4.90698 3.49507 0
      vertex -4.90698 3.49507 3
      vertex 4.90698 3.49507 3
    endloop
  endfacet
  facet normal 0 1 0
    outer loop
      vertex -4.90698 3.49507 3
      vertex 4.90698 3.49507 0
      vertex -4.90698 3.49507 0
    endloop
  endfacet
  facet normal -0.844321 0.535838 0
    outer loop
      vertex -6.94077 2.20438 0
      vertex -6.77254 2.46946 3
      vertex -6.77254 2.46946 0
    endloop
  endfacet
  facet normal -0.844321 0.535838 0
    outer loop
      vertex -6.77254 2.46946 3
      vertex -6.94077 2.20438 0
      vertex -6.94077 2.20438 3
    endloop
  endfacet
  facet normal -0.12534 -0.992114 0
    outer loop
      vertex -5.21845 -3.45572 0
      vertex -4.90698 -3.49507 3
      vertex -5.21845 -3.45572 3
    endloop
  endfacet
  facet normal -0.12534 -0.992114 -0
    outer loop
      vertex -4.90698 -3.49507 3
      vertex -5.21845 -3.45572 0
      vertex -4.90698 -3.49507 0
    endloop
  endfacet
  facet normal 0.951054 -0.309023 0
    outer loop
      vertex 7.07444 -1.92031 3
      vertex 7.17146 -1.62172 0
      vertex 7.17146 -1.62172 3
    endloop
  endfacet
  facet normal 0.951054 -0.309023 0
    outer loop
      vertex 7.17146 -1.62172 0
      vertex 7.07444 -1.92031 3
      vertex 7.07444 -1.92031 0
    endloop
  endfacet
  facet normal 0.12534 0.992114 -0
    outer loop
      vertex 5.21845 3.45572 0
      vertex 4.90698 3.49507 3
      vertex 5.21845 3.45572 3
    endloop
  endfacet
  facet normal 0.12534 0.992114 0
    outer loop
      vertex 4.90698 3.49507 3
      vertex 5.21845 3.45572 0
      vertex 4.90698 3.49507 0
    endloop
  endfacet
  facet normal 0.998027 0.0627808 0
    outer loop
      vertex 7.25 1 3
      vertex 7.23029 1.31333 0
      vertex 7.23029 1.31333 3
    endloop
  endfacet
  facet normal 0.998027 0.0627808 0
    outer loop
      vertex 7.23029 1.31333 0
      vertex 7.25 1 3
      vertex 7.25 1 0
    endloop
  endfacet
  facet normal -0.481757 0.876305 0
    outer loop
      vertex -5.81445 3.26207 0
      vertex -6.08957 3.11082 3
      vertex -5.81445 3.26207 3
    endloop
  endfacet
  facet normal -0.481757 0.876305 0
    outer loop
      vertex -6.08957 3.11082 3
      vertex -5.81445 3.26207 0
      vertex -6.08957 3.11082 0
    endloop
  endfacet
  facet normal 0 0 -1
    outer loop
      vertex 5.4236 -0.662623 0
      vertex 7.25 -1 0
      vertex 7.23029 -1.31333 0
    endloop
  endfacet
  facet normal 0 0 -1
    outer loop
      vertex 7.25 -1 0
      vertex 5.55 0 0
      vertex 7.25 1 0
    endloop
  endfacet
  facet normal 0 0 -1
    outer loop
      vertex 5.32735 -0.867156 0
      vertex 7.23029 -1.31333 0
      vertex 7.17146 -1.62172 0
    endloop
  endfacet
  facet normal 0 0 -1
    outer loop
      vertex 5.53581 0.225599 0
      vertex 7.25 1 0
      vertex 5.55 0 0
    endloop
  endfacet
  facet normal 0 0 -1
    outer loop
      vertex 5.32735 -0.867156 0
      vertex 7.17146 -1.62172 0
      vertex 7.07444 -1.92031 0
    endloop
  endfacet
  facet normal 0 0 -1
    outer loop
      vertex 5.49345 0.447641 0
      vertex 7.25 1 0
      vertex 5.53581 0.225599 0
    endloop
  endfacet
  facet normal 0 0 -1
    outer loop
      vertex 5.20623 -1.05801 0
      vertex 7.07444 -1.92031 0
      vertex 6.94077 -2.20438 0
    endloop
  endfacet
  facet normal 0 0 -1
    outer loop
      vertex 5.4236 0.662623 0
      vertex 7.25 1 0
      vertex 5.49345 0.447641 0
    endloop
  endfacet
  facet normal 0 0 -1
    outer loop
      vertex 5.20623 -1.05801 0
      vertex 6.94077 -2.20438 0
      vertex 6.77254 -2.46946 0
    endloop
  endfacet
  facet normal -0 0 -1
    outer loop
      vertex 7.25 1 0
      vertex 5.4236 0.662623 0
      vertex 7.23029 1.31333 0
    endloop
  endfacet
  facet normal 0 0 -1
    outer loop
      vertex 5.06214 -1.23218 0
      vertex 6.77254 -2.46946 0
      vertex 6.57242 -2.71137 0
    endloop
  endfacet
  facet normal 0 0 -1
    outer loop
      vertex 5.32735 0.867156 0
      vertex 7.23029 1.31333 0
      vertex 5.4236 0.662623 0
    endloop
  endfacet
  facet normal 0 0 -1
    outer loop
      vertex 5.06214 -1.23218 0
      vertex 6.57242 -2.71137 0
      vertex 6.34356 -2.92628 0
    endloop
  endfacet
  facet normal -0 0 -1
    outer loop
      vertex 7.23029 1.31333 0
      vertex 5.32735 0.867156 0
      vertex 7.17146 1.62172 0
    endloop
  endfacet
  facet normal 0 0 -1
    outer loop
      vertex 4.89736 -1.38692 0
      vertex 6.34356 -2.92628 0
      vertex 6.08957 -3.11082 0
    endloop
  endfacet
  facet normal -0 0 -1
    outer loop
      vertex 7.17146 1.62172 0
      vertex 5.32735 0.867156 0
      vertex 7.07444 1.92031 0
    endloop
  endfacet
  facet normal 0 0 -1
    outer loop
      vertex 4.89736 -1.38692 0
      vertex 6.08957 -3.11082 0
      vertex 5.81445 -3.26207 0
    endloop
  endfacet
  facet normal 0 0 -1
    outer loop
      vertex 5.20623 1.05801 0
      vertex 7.07444 1.92031 0
      vertex 5.32735 0.867156 0
    endloop
  endfacet
  facet normal -0 0 -1
    outer loop
      vertex 7.07444 1.92031 0
      vertex 5.20623 1.05801 0
      vertex 6.94077 2.20438 0
    endloop
  endfacet
  facet normal 0 0 -1
    outer loop
      vertex 7.25 -1 0
      vertex 5.53581 -0.225599 0
      vertex 5.55 0 0
    endloop
  endfacet
  facet normal 0 0 -1
    outer loop
      vertex 4.71449 -1.51979 0
      vertex 5.81445 -3.26207 0
      vertex 5.52254 -3.37764 0
    endloop
  endfacet
  facet normal 0 0 -1
    outer loop
      vertex 7.25 -1 0
      vertex 5.49345 -0.447641 0
      vertex 5.53581 -0.225599 0
    endloop
  endfacet
  facet normal 0 0 -1
    outer loop
      vertex 7.25 -1 0
      vertex 5.4236 -0.662623 0
      vertex 5.49345 -0.447641 0
    endloop
  endfacet
  facet normal 0 0 -1
    outer loop
      vertex 7.23029 -1.31333 0
      vertex 5.32735 -0.867156 0
      vertex 5.4236 -0.662623 0
    endloop
  endfacet
  facet normal 0 0 -1
    outer loop
      vertex 4.71449 -1.51979 0
      vertex 5.52254 -3.37764 0
      vertex 5.21845 -3.45572 0
    endloop
  endfacet
  facet normal 0 0 -1
    outer loop
      vertex 7.07444 -1.92031 0
      vertex 5.20623 -1.05801 0
      vertex 5.32735 -0.867156 0
    endloop
  endfacet
  facet normal 0 0 -1
    outer loop
      vertex 6.77254 -2.46946 0
      vertex 5.06214 -1.23218 0
      vertex 5.20623 -1.05801 0
    endloop
  endfacet
  facet normal 0 0 -1
    outer loop
      vertex 4.5164 -1.62869 0
      vertex 5.21845 -3.45572 0
      vertex 4.90698 -3.49507 0
    endloop
  endfacet
  facet normal 0 0 -1
    outer loop
      vertex 6.34356 -2.92628 0
      vertex 4.89736 -1.38692 0
      vertex 5.06214 -1.23218 0
    endloop
  endfacet
  facet normal 0 0 -1
    outer loop
      vertex 5.81445 -3.26207 0
      vertex 4.71449 -1.51979 0
      vertex 4.89736 -1.38692 0
    endloop
  endfacet
  facet normal 0 0 -1
    outer loop
      vertex 5.21845 -3.45572 0
      vertex 4.5164 -1.62869 0
      vertex 4.71449 -1.51979 0
    endloop
  endfacet
  facet normal 0 0 -1
    outer loop
      vertex 4.90698 -3.49507 0
      vertex 4.30623 -1.7119 0
      vertex 4.5164 -1.62869 0
    endloop
  endfacet
  facet normal 0 0 -1
    outer loop
      vertex 4.90698 -3.49507 0
      vertex 4.08729 -1.76812 0
      vertex 4.30623 -1.7119 0
    endloop
  endfacet
  facet normal 0 0 -1
    outer loop
      vertex 4.90698 -3.49507 0
      vertex 3.86302 -1.79645 0
      vertex 4.08729 -1.76812 0
    endloop
  endfacet
  facet normal 0 0 -1
    outer loop
      vertex 4.90698 -3.49507 0
      vertex 3.63698 -1.79645 0
      vertex 3.86302 -1.79645 0
    endloop
  endfacet
  facet normal 0 0 -1
    outer loop
      vertex 4.90698 -3.49507 0
      vertex 3.41271 -1.76812 0
      vertex 3.63698 -1.79645 0
    endloop
  endfacet
  facet normal 0 0 -1
    outer loop
      vertex 4.90698 -3.49507 0
      vertex 3.19377 -1.7119 0
      vertex 3.41271 -1.76812 0
    endloop
  endfacet
  facet normal 0 0 -1
    outer loop
      vertex 4.90698 -3.49507 0
      vertex 2.9836 -1.62869 0
      vertex 3.19377 -1.7119 0
    endloop
  endfacet
  facet normal 0 0 -1
    outer loop
      vertex 4.90698 -3.49507 0
      vertex 2.78551 -1.51979 0
      vertex 2.9836 -1.62869 0
    endloop
  endfacet
  facet normal 0 0 -1
    outer loop
      vertex -2.78551 -1.51979 0
      vertex 2.78551 -1.51979 0
      vertex 4.90698 -3.49507 0
    endloop
  endfacet
  facet normal 0 0 -1
    outer loop
      vertex 1.96419 -0.225599 0
      vertex -1.95 0 0
      vertex 1.95 0 0
    endloop
  endfacet
  facet normal 0 0 -1
    outer loop
      vertex -1.96419 -0.225599 0
      vertex 1.96419 -0.225599 0
      vertex 2.00655 -0.447641 0
    endloop
  endfacet
  facet normal 0 0 -1
    outer loop
      vertex -2.00655 -0.447641 0
      vertex 2.00655 -0.447641 0
      vertex 2.0764 -0.662623 0
    endloop
  endfacet
  facet normal 0 0 -1
    outer loop
      vertex -2.0764 -0.662623 0
      vertex 2.0764 -0.662623 0
      vertex 2.17265 -0.867156 0
    endloop
  endfacet
  facet normal 0 0 -1
    outer loop
      vertex -2.17265 -0.867156 0
      vertex 2.17265 -0.867156 0
      vertex 2.29377 -1.05801 0
    endloop
  endfacet
  facet normal 0 0 -1
    outer loop
      vertex -2.29377 -1.05801 0
      vertex 2.29377 -1.05801 0
      vertex 2.43786 -1.23218 0
    endloop
  endfacet
  facet normal 0 0 -1
    outer loop
      vertex -2.43786 -1.23218 0
      vertex 2.43786 -1.23218 0
      vertex 2.60264 -1.38692 0
    endloop
  endfacet
  facet normal 0 0 -1
    outer loop
      vertex 2.78551 -1.51979 0
      vertex -2.78551 -1.51979 0
      vertex 2.60264 -1.38692 0
    endloop
  endfacet
  facet normal 0 0 -1
    outer loop
      vertex 1.96419 -0.225599 0
      vertex -1.96419 -0.225599 0
      vertex -1.95 0 0
    endloop
  endfacet
  facet normal 0 0 -1
    outer loop
      vertex 2.00655 -0.447641 0
      vertex -2.00655 -0.447641 0
      vertex -1.96419 -0.225599 0
    endloop
  endfacet
  facet normal 0 0 -1
    outer loop
      vertex 2.0764 -0.662623 0
      vertex -2.0764 -0.662623 0
      vertex -2.00655 -0.447641 0
    endloop
  endfacet
  facet normal 0 0 -1
    outer loop
      vertex 2.17265 -0.867156 0
      vertex -2.17265 -0.867156 0
      vertex -2.0764 -0.662623 0
    endloop
  endfacet
  facet normal 0 0 -1
    outer loop
      vertex 2.29377 -1.05801 0
      vertex -2.29377 -1.05801 0
      vertex -2.17265 -0.867156 0
    endloop
  endfacet
  facet normal 0 0 -1
    outer loop
      vertex 2.43786 -1.23218 0
      vertex -2.43786 -1.23218 0
      vertex -2.29377 -1.05801 0
    endloop
  endfacet
  facet normal 0 0 -1
    outer loop
      vertex 2.60264 -1.38692 0
      vertex -2.60264 -1.38692 0
      vertex -2.43786 -1.23218 0
    endloop
  endfacet
  facet normal -0 0 -1
    outer loop
      vertex 2.60264 -1.38692 0
      vertex -2.78551 -1.51979 0
      vertex -2.60264 -1.38692 0
    endloop
  endfacet
  facet normal 0 0 -1
    outer loop
      vertex -4.90698 -3.49507 0
      vertex -2.78551 -1.51979 0
      vertex 4.90698 -3.49507 0
    endloop
  endfacet
  facet normal 0 0 -1
    outer loop
      vertex -2.78551 -1.51979 0
      vertex -4.90698 -3.49507 0
      vertex -2.9836 -1.62869 0
    endloop
  endfacet
  facet normal 0 0 -1
    outer loop
      vertex -2.9836 -1.62869 0
      vertex -4.90698 -3.49507 0
      vertex -3.19377 -1.7119 0
    endloop
  endfacet
  facet normal 0 0 -1
    outer loop
      vertex -3.19377 -1.7119 0
      vertex -4.90698 -3.49507 0
      vertex -3.41271 -1.76812 0
    endloop
  endfacet
  facet normal 0 0 -1
    outer loop
      vertex -3.41271 -1.76812 0
      vertex -4.90698 -3.49507 0
      vertex -3.63698 -1.79645 0
    endloop
  endfacet
  facet normal -0 0 -1
    outer loop
      vertex -3.63698 -1.79645 0
      vertex -4.90698 -3.49507 0
      vertex -3.86302 -1.79645 0
    endloop
  endfacet
  facet normal -0 0 -1
    outer loop
      vertex -3.86302 -1.79645 0
      vertex -4.90698 -3.49507 0
      vertex -4.08729 -1.76812 0
    endloop
  endfacet
  facet normal 0 0 -1
    outer loop
      vertex -4.90698 -3.49507 0
      vertex -4.30623 -1.7119 0
      vertex -4.08729 -1.76812 0
    endloop
  endfacet
  facet normal 0 0 -1
    outer loop
      vertex -4.90698 -3.49507 0
      vertex -4.5164 -1.62869 0
      vertex -4.30623 -1.7119 0
    endloop
  endfacet
  facet normal 0 0 -1
    outer loop
      vertex -5.21845 -3.45572 0
      vertex -4.5164 -1.62869 0
      vertex -4.90698 -3.49507 0
    endloop
  endfacet
  facet normal -0 0 -1
    outer loop
      vertex -4.5164 -1.62869 0
      vertex -5.21845 -3.45572 0
      vertex -4.71449 -1.51979 0
    endloop
  endfacet
  facet normal 0 0 -1
    outer loop
      vertex -5.52254 -3.37764 0
      vertex -4.71449 -1.51979 0
      vertex -5.21845 -3.45572 0
    endloop
  endfacet
  facet normal 0 0 -1
    outer loop
      vertex -5.81445 -3.26207 0
      vertex -4.71449 -1.51979 0
      vertex -5.52254 -3.37764 0
    endloop
  endfacet
  facet normal -0 0 -1
    outer loop
      vertex -4.71449 -1.51979 0
      vertex -5.81445 -3.26207 0
      vertex -4.89736 -1.38692 0
    endloop
  endfacet
  facet normal 0 0 -1
    outer loop
      vertex -6.08957 -3.11082 0
      vertex -4.89736 -1.38692 0
      vertex -5.81445 -3.26207 0
    endloop
  endfacet
  facet normal 0 0 -1
    outer loop
      vertex -6.34356 -2.92628 0
      vertex -4.89736 -1.38692 0
      vertex -6.08957 -3.11082 0
    endloop
  endfacet
  facet normal -0 0 -1
    outer loop
      vertex -4.89736 -1.38692 0
      vertex -6.34356 -2.92628 0
      vertex -5.06214 -1.23218 0
    endloop
  endfacet
  facet normal 0 0 -1
    outer loop
      vertex -6.57242 -2.71137 0
      vertex -5.06214 -1.23218 0
      vertex -6.34356 -2.92628 0
    endloop
  endfacet
  facet normal 0 0 -1
    outer loop
      vertex -6.77254 -2.46946 0
      vertex -5.06214 -1.23218 0
      vertex -6.57242 -2.71137 0
    endloop
  endfacet
  facet normal -0 0 -1
    outer loop
      vertex -5.06214 -1.23218 0
      vertex -6.77254 -2.46946 0
      vertex -5.20623 -1.05801 0
    endloop
  endfacet
  facet normal 0 0 -1
    outer loop
      vertex -6.94077 -2.20438 0
      vertex -5.20623 -1.05801 0
      vertex -6.77254 -2.46946 0
    endloop
  endfacet
  facet normal -0 0 -1
    outer loop
      vertex 6.94077 2.20438 0
      vertex 5.20623 1.05801 0
      vertex 6.77254 2.46946 0
    endloop
  endfacet
  facet normal 0 0 -1
    outer loop
      vertex 5.06214 1.23218 0
      vertex 6.77254 2.46946 0
      vertex 5.20623 1.05801 0
    endloop
  endfacet
  facet normal -0 0 -1
    outer loop
      vertex 6.77254 2.46946 0
      vertex 5.06214 1.23218 0
      vertex 6.57242 2.71137 0
    endloop
  endfacet
  facet normal -0 0 -1
    outer loop
      vertex 6.57242 2.71137 0
      vertex 5.06214 1.23218 0
      vertex 6.34356 2.92628 0
    endloop
  endfacet
  facet normal 0 0 -1
    outer loop
      vertex 4.89736 1.38692 0
      vertex 6.34356 2.92628 0
      vertex 5.06214 1.23218 0
    endloop
  endfacet
  facet normal -0 0 -1
    outer loop
      vertex 6.34356 2.92628 0
      vertex 4.89736 1.38692 0
      vertex 6.08957 3.11082 0
    endloop
  endfacet
  facet normal -0 0 -1
    outer loop
      vertex 6.08957 3.11082 0
      vertex 4.89736 1.38692 0
      vertex 5.81445 3.26207 0
    endloop
  endfacet
  facet normal 0 0 -1
    outer loop
      vertex 4.71449 1.51979 0
      vertex 5.81445 3.26207 0
      vertex 4.89736 1.38692 0
    endloop
  endfacet
  facet normal -0 0 -1
    outer loop
      vertex 5.81445 3.26207 0
      vertex 4.71449 1.51979 0
      vertex 5.52254 3.37764 0
    endloop
  endfacet
  facet normal -0 0 -1
    outer loop
      vertex 5.52254 3.37764 0
      vertex 4.71449 1.51979 0
      vertex 5.21845 3.45572 0
    endloop
  endfacet
  facet normal 0 0 -1
    outer loop
      vertex 4.5164 1.62869 0
      vertex 5.21845 3.45572 0
      vertex 4.71449 1.51979 0
    endloop
  endfacet
  facet normal -0 0 -1
    outer loop
      vertex 5.21845 3.45572 0
      vertex 4.5164 1.62869 0
      vertex 4.90698 3.49507 0
    endloop
  endfacet
  facet normal 0 0 -1
    outer loop
      vertex 4.30623 1.7119 0
      vertex 4.90698 3.49507 0
      vertex 4.5164 1.62869 0
    endloop
  endfacet
  facet normal 0 0 -1
    outer loop
      vertex 4.08729 1.76812 0
      vertex 4.90698 3.49507 0
      vertex 4.30623 1.7119 0
    endloop
  endfacet
  facet normal 0 0 -1
    outer loop
      vertex 3.86302 1.79645 0
      vertex 4.90698 3.49507 0
      vertex 4.08729 1.76812 0
    endloop
  endfacet
  facet normal 0 0 -1
    outer loop
      vertex 3.63698 1.79645 0
      vertex 4.90698 3.49507 0
      vertex 3.86302 1.79645 0
    endloop
  endfacet
  facet normal 0 0 -1
    outer loop
      vertex 3.41271 1.76812 0
      vertex 4.90698 3.49507 0
      vertex 3.63698 1.79645 0
    endloop
  endfacet
  facet normal 0 0 -1
    outer loop
      vertex 3.19377 1.7119 0
      vertex 4.90698 3.49507 0
      vertex 3.41271 1.76812 0
    endloop
  endfacet
  facet normal 0 0 -1
    outer loop
      vertex 2.9836 1.62869 0
      vertex 4.90698 3.49507 0
      vertex 3.19377 1.7119 0
    endloop
  endfacet
  facet normal 0 0 -1
    outer loop
      vertex 2.78551 1.51979 0
      vertex 4.90698 3.49507 0
      vertex 2.9836 1.62869 0
    endloop
  endfacet
  facet normal 0 0 -1
    outer loop
      vertex -2.78551 1.51979 0
      vertex 2.78551 1.51979 0
      vertex 2.60264 1.38692 0
    endloop
  endfacet
  facet normal 0 0 -1
    outer loop
      vertex -1.95 0 0
      vertex 1.96419 0.225599 0
      vertex 1.95 0 0
    endloop
  endfacet
  facet normal 0 0 -1
    outer loop
      vertex -1.96419 0.225599 0
      vertex 1.96419 0.225599 0
      vertex -1.95 0 0
    endloop
  endfacet
  facet normal 0 0 -1
    outer loop
      vertex 1.96419 0.225599 0
      vertex -1.96419 0.225599 0
      vertex 2.00655 0.447641 0
    endloop
  endfacet
  facet normal 0 0 -1
    outer loop
      vertex -2.00655 0.447641 0
      vertex 2.00655 0.447641 0
      vertex -1.96419 0.225599 0
    endloop
  endfacet
  facet normal 0 0 -1
    outer loop
      vertex 2.00655 0.447641 0
      vertex -2.00655 0.447641 0
      vertex 2.0764 0.662623 0
    endloop
  endfacet
  facet normal 0 0 -1
    outer loop
      vertex -2.0764 0.662623 0
      vertex 2.0764 0.662623 0
      vertex -2.00655 0.447641 0
    endloop
  endfacet
  facet normal 0 0 -1
    outer loop
      vertex 2.0764 0.662623 0
      vertex -2.0764 0.662623 0
      vertex 2.17265 0.867156 0
    endloop
  endfacet
  facet normal 0 0 -1
    outer loop
      vertex -2.17265 0.867156 0
      vertex 2.17265 0.867156 0
      vertex -2.0764 0.662623 0
    endloop
  endfacet
  facet normal 0 0 -1
    outer loop
      vertex 2.17265 0.867156 0
      vertex -2.17265 0.867156 0
      vertex 2.29377 1.05801 0
    endloop
  endfacet
  facet normal 0 0 -1
    outer loop
      vertex -2.29377 1.05801 0
      vertex 2.29377 1.05801 0
      vertex -2.17265 0.867156 0
    endloop
  endfacet
  facet normal 0 0 -1
    outer loop
      vertex 2.29377 1.05801 0
      vertex -2.29377 1.05801 0
      vertex 2.43786 1.23218 0
    endloop
  endfacet
  facet normal 0 0 -1
    outer loop
      vertex -2.43786 1.23218 0
      vertex 2.43786 1.23218 0
      vertex -2.29377 1.05801 0
    endloop
  endfacet
  facet normal 0 0 -1
    outer loop
      vertex 2.43786 1.23218 0
      vertex -2.43786 1.23218 0
      vertex 2.60264 1.38692 0
    endloop
  endfacet
  facet normal 0 0 -1
    outer loop
      vertex -2.60264 1.38692 0
      vertex 2.60264 1.38692 0
      vertex -2.43786 1.23218 0
    endloop
  endfacet
  facet normal 0 0 -1
    outer loop
      vertex -2.78551 1.51979 0
      vertex 2.60264 1.38692 0
      vertex -2.60264 1.38692 0
    endloop
  endfacet
  facet normal 0 0 -1
    outer loop
      vertex 2.78551 1.51979 0
      vertex -2.78551 1.51979 0
      vertex 4.90698 3.49507 0
    endloop
  endfacet
  facet normal 0 0 -1
    outer loop
      vertex -4.90698 3.49507 0
      vertex -2.78551 1.51979 0
      vertex -2.9836 1.62869 0
    endloop
  endfacet
  facet normal 0 0 -1
    outer loop
      vertex -4.90698 3.49507 0
      vertex -2.9836 1.62869 0
      vertex -3.19377 1.7119 0
    endloop
  endfacet
  facet normal 0 0 -1
    outer loop
      vertex -4.90698 3.49507 0
      vertex -3.19377 1.7119 0
      vertex -3.41271 1.76812 0
    endloop
  endfacet
  facet normal 0 0 -1
    outer loop
      vertex -4.90698 3.49507 0
      vertex -3.41271 1.76812 0
      vertex -3.63698 1.79645 0
    endloop
  endfacet
  facet normal 0 0 -1
    outer loop
      vertex -4.90698 3.49507 0
      vertex -3.63698 1.79645 0
      vertex -3.86302 1.79645 0
    endloop
  endfacet
  facet normal 0 0 -1
    outer loop
      vertex -4.90698 3.49507 0
      vertex -3.86302 1.79645 0
      vertex -4.08729 1.76812 0
    endloop
  endfacet
  facet normal 0 0 -1
    outer loop
      vertex -2.78551 1.51979 0
      vertex -4.90698 3.49507 0
      vertex 4.90698 3.49507 0
    endloop
  endfacet
  facet normal 0 0 -1
    outer loop
      vertex -4.30623 1.7119 0
      vertex -4.90698 3.49507 0
      vertex -4.08729 1.76812 0
    endloop
  endfacet
  facet normal 0 0 -1
    outer loop
      vertex -4.5164 1.62869 0
      vertex -4.90698 3.49507 0
      vertex -4.30623 1.7119 0
    endloop
  endfacet
  facet normal 0 0 -1
    outer loop
      vertex -5.21845 3.45572 0
      vertex -4.5164 1.62869 0
      vertex -4.71449 1.51979 0
    endloop
  endfacet
  facet normal 0 0 -1
    outer loop
      vertex -5.81445 3.26207 0
      vertex -4.71449 1.51979 0
      vertex -4.89736 1.38692 0
    endloop
  endfacet
  facet normal 0 0 -1
    outer loop
      vertex -6.34356 2.92628 0
      vertex -4.89736 1.38692 0
      vertex -5.06214 1.23218 0
    endloop
  endfacet
  facet normal 0 0 -1
    outer loop
      vertex -6.77254 2.46946 0
      vertex -5.06214 1.23218 0
      vertex -5.20623 1.05801 0
    endloop
  endfacet
  facet normal 0 0 -1
    outer loop
      vertex -4.5164 1.62869 0
      vertex -5.21845 3.45572 0
      vertex -4.90698 3.49507 0
    endloop
  endfacet
  facet normal 0 0 -1
    outer loop
      vertex -7.07444 1.92031 0
      vertex -5.20623 1.05801 0
      vertex -5.32735 0.867156 0
    endloop
  endfacet
  facet normal 0 0 -1
    outer loop
      vertex -7.23029 1.31333 0
      vertex -5.32735 0.867156 0
      vertex -5.4236 0.662623 0
    endloop
  endfacet
  facet normal 0 0 -1
    outer loop
      vertex -7.25 1 0
      vertex -5.4236 0.662623 0
      vertex -5.49345 0.447641 0
    endloop
  endfacet
  facet normal 0 0 -1
    outer loop
      vertex -4.71449 1.51979 0
      vertex -5.52254 3.37764 0
      vertex -5.21845 3.45572 0
    endloop
  endfacet
  facet normal 0 0 -1
    outer loop
      vertex -7.25 1 0
      vertex -5.49345 0.447641 0
      vertex -5.53581 0.225599 0
    endloop
  endfacet
  facet normal 0 0 -1
    outer loop
      vertex -7.25 1 0
      vertex -5.53581 0.225599 0
      vertex -5.55 0 0
    endloop
  endfacet
  facet normal 0 0 -1
    outer loop
      vertex -7.07444 -1.92031 0
      vertex -5.20623 -1.05801 0
      vertex -6.94077 -2.20438 0
    endloop
  endfacet
  facet normal 0 0 -1
    outer loop
      vertex -7.25 1 0
      vertex -5.55 0 0
      vertex -7.25 -1 0
    endloop
  endfacet
  facet normal -0 0 -1
    outer loop
      vertex -5.20623 -1.05801 0
      vertex -7.07444 -1.92031 0
      vertex -5.32735 -0.867156 0
    endloop
  endfacet
  facet normal 0 0 -1
    outer loop
      vertex -5.4236 0.662623 0
      vertex -7.25 1 0
      vertex -7.23029 1.31333 0
    endloop
  endfacet
  facet normal 0 0 -1
    outer loop
      vertex -7.17146 -1.62172 0
      vertex -5.32735 -0.867156 0
      vertex -7.07444 -1.92031 0
    endloop
  endfacet
  facet normal 0 0 -1
    outer loop
      vertex -4.71449 1.51979 0
      vertex -5.81445 3.26207 0
      vertex -5.52254 3.37764 0
    endloop
  endfacet
  facet normal 0 0 -1
    outer loop
      vertex -7.23029 -1.31333 0
      vertex -5.32735 -0.867156 0
      vertex -7.17146 -1.62172 0
    endloop
  endfacet
  facet normal 0 0 -1
    outer loop
      vertex -4.89736 1.38692 0
      vertex -6.08957 3.11082 0
      vertex -5.81445 3.26207 0
    endloop
  endfacet
  facet normal -0 0 -1
    outer loop
      vertex -5.32735 -0.867156 0
      vertex -7.23029 -1.31333 0
      vertex -5.4236 -0.662623 0
    endloop
  endfacet
  facet normal 0 0 -1
    outer loop
      vertex -4.89736 1.38692 0
      vertex -6.34356 2.92628 0
      vertex -6.08957 3.11082 0
    endloop
  endfacet
  facet normal 0 0 -1
    outer loop
      vertex -7.25 -1 0
      vertex -5.4236 -0.662623 0
      vertex -7.23029 -1.31333 0
    endloop
  endfacet
  facet normal 0 0 -1
    outer loop
      vertex -5.06214 1.23218 0
      vertex -6.57242 2.71137 0
      vertex -6.34356 2.92628 0
    endloop
  endfacet
  facet normal -0 0 -1
    outer loop
      vertex -5.4236 -0.662623 0
      vertex -7.25 -1 0
      vertex -5.49345 -0.447641 0
    endloop
  endfacet
  facet normal 0 0 -1
    outer loop
      vertex -5.06214 1.23218 0
      vertex -6.77254 2.46946 0
      vertex -6.57242 2.71137 0
    endloop
  endfacet
  facet normal -0 0 -1
    outer loop
      vertex -5.49345 -0.447641 0
      vertex -7.25 -1 0
      vertex -5.53581 -0.225599 0
    endloop
  endfacet
  facet normal 0 0 -1
    outer loop
      vertex -5.20623 1.05801 0
      vertex -6.94077 2.20438 0
      vertex -6.77254 2.46946 0
    endloop
  endfacet
  facet normal -0 0 -1
    outer loop
      vertex -5.53581 -0.225599 0
      vertex -7.25 -1 0
      vertex -5.55 0 0
    endloop
  endfacet
  facet normal 0 0 -1
    outer loop
      vertex -5.20623 1.05801 0
      vertex -7.07444 1.92031 0
      vertex -6.94077 2.20438 0
    endloop
  endfacet
  facet normal 0 0 -1
    outer loop
      vertex -5.32735 0.867156 0
      vertex -7.17146 1.62172 0
      vertex -7.07444 1.92031 0
    endloop
  endfacet
  facet normal 0 0 -1
    outer loop
      vertex -5.32735 0.867156 0
      vertex -7.23029 1.31333 0
      vertex -7.17146 1.62172 0
    endloop
  endfacet
  facet normal -0.904831 -0.425771 0
    outer loop
      vertex -6.94077 -2.20438 0
      vertex -7.07444 -1.92031 3
      vertex -7.07444 -1.92031 0
    endloop
  endfacet
  facet normal -0.904831 -0.425771 0
    outer loop
      vertex -7.07444 -1.92031 3
      vertex -6.94077 -2.20438 0
      vertex -6.94077 -2.20438 3
    endloop
  endfacet
  facet normal 0 -1 0
    outer loop
      vertex -4.90698 -3.49507 0
      vertex 4.90698 -3.49507 3
      vertex -4.90698 -3.49507 3
    endloop
  endfacet
  facet normal 0 -1 -0
    outer loop
      vertex 4.90698 -3.49507 3
      vertex -4.90698 -3.49507 0
      vertex 4.90698 -3.49507 0
    endloop
  endfacet
  facet normal 0.248699 0.968581 -0
    outer loop
      vertex 5.52254 3.37764 0
      vertex 5.21845 3.45572 3
      vertex 5.52254 3.37764 3
    endloop
  endfacet
  facet normal 0.248699 0.968581 0
    outer loop
      vertex 5.21845 3.45572 3
      vertex 5.52254 3.37764 0
      vertex 5.21845 3.45572 0
    endloop
  endfacet
  facet normal 0.684541 0.728975 -0
    outer loop
      vertex 6.57242 2.71137 0
      vertex 6.34356 2.92628 3
      vertex 6.57242 2.71137 3
    endloop
  endfacet
  facet normal 0.684541 0.728975 0
    outer loop
      vertex 6.34356 2.92628 3
      vertex 6.57242 2.71137 0
      vertex 6.34356 2.92628 0
    endloop
  endfacet
  facet normal 1 -0 0
    outer loop
      vertex 7.25 -1 3
      vertex 7.25 1 0
      vertex 7.25 1 3
    endloop
  endfacet
  facet normal 1 0 0
    outer loop
      vertex 7.25 1 0
      vertex 7.25 -1 3
      vertex 7.25 -1 0
    endloop
  endfacet
  facet normal -0.770522 0.637414 0
    outer loop
      vertex -6.77254 2.46946 0
      vertex -6.57242 2.71137 3
      vertex -6.57242 2.71137 0
    endloop
  endfacet
  facet normal -0.770522 0.637414 0
    outer loop
      vertex -6.57242 2.71137 3
      vertex -6.77254 2.46946 0
      vertex -6.77254 2.46946 3
    endloop
  endfacet
  facet normal -0.684541 0.728975 0
    outer loop
      vertex -6.34356 2.92628 0
      vertex -6.57242 2.71137 3
      vertex -6.34356 2.92628 3
    endloop
  endfacet
  facet normal -0.684541 0.728975 0
    outer loop
      vertex -6.57242 2.71137 3
      vertex -6.34356 2.92628 0
      vertex -6.57242 2.71137 0
    endloop
  endfacet
  facet normal -0.587797 0.809009 0
    outer loop
      vertex -6.08957 3.11082 0
      vertex -6.34356 2.92628 3
      vertex -6.08957 3.11082 3
    endloop
  endfacet
  facet normal -0.587797 0.809009 0
    outer loop
      vertex -6.34356 2.92628 3
      vertex -6.08957 3.11082 0
      vertex -6.34356 2.92628 0
    endloop
  endfacet
  facet normal -0.36811 0.929782 0
    outer loop
      vertex -5.52254 3.37764 0
      vertex -5.81445 3.26207 3
      vertex -5.52254 3.37764 3
    endloop
  endfacet
  facet normal -0.36811 0.929782 0
    outer loop
      vertex -5.81445 3.26207 3
      vertex -5.52254 3.37764 0
      vertex -5.81445 3.26207 0
    endloop
  endfacet
  facet normal -0.248699 0.968581 0
    outer loop
      vertex -5.21845 3.45572 0
      vertex -5.52254 3.37764 3
      vertex -5.21845 3.45572 3
    endloop
  endfacet
  facet normal -0.248699 0.968581 0
    outer loop
      vertex -5.52254 3.37764 3
      vertex -5.21845 3.45572 0
      vertex -5.52254 3.37764 0
    endloop
  endfacet
  facet normal -0.12534 0.992114 0
    outer loop
      vertex -4.90698 3.49507 0
      vertex -5.21845 3.45572 3
      vertex -4.90698 3.49507 3
    endloop
  endfacet
  facet normal -0.12534 0.992114 0
    outer loop
      vertex -5.21845 3.45572 3
      vertex -4.90698 3.49507 0
      vertex -5.21845 3.45572 0
    endloop
  endfacet
  facet normal -0.982286 0.187386 0
    outer loop
      vertex -7.23029 1.31333 0
      vertex -7.17146 1.62172 3
      vertex -7.17146 1.62172 0
    endloop
  endfacet
  facet normal -0.982286 0.187386 0
    outer loop
      vertex -7.17146 1.62172 3
      vertex -7.23029 1.31333 0
      vertex -7.23029 1.31333 3
    endloop
  endfacet
  facet normal -0.951054 0.309023 0
    outer loop
      vertex -7.17146 1.62172 0
      vertex -7.07444 1.92031 3
      vertex -7.07444 1.92031 0
    endloop
  endfacet
  facet normal -0.951054 0.309023 0
    outer loop
      vertex -7.07444 1.92031 3
      vertex -7.17146 1.62172 0
      vertex -7.17146 1.62172 3
    endloop
  endfacet
  facet normal -0.904831 0.425771 0
    outer loop
      vertex -7.07444 1.92031 0
      vertex -6.94077 2.20438 3
      vertex -6.94077 2.20438 0
    endloop
  endfacet
  facet normal -0.904831 0.425771 0
    outer loop
      vertex -6.94077 2.20438 3
      vertex -7.07444 1.92031 0
      vertex -7.07444 1.92031 3
    endloop
  endfacet
  facet normal -0.982286 -0.187386 0
    outer loop
      vertex -7.17146 -1.62172 0
      vertex -7.23029 -1.31333 3
      vertex -7.23029 -1.31333 0
    endloop
  endfacet
  facet normal -0.982286 -0.187386 0
    outer loop
      vertex -7.23029 -1.31333 3
      vertex -7.17146 -1.62172 0
      vertex -7.17146 -1.62172 3
    endloop
  endfacet
  facet normal -0.844321 -0.535838 0
    outer loop
      vertex -6.77254 -2.46946 0
      vertex -6.94077 -2.20438 3
      vertex -6.94077 -2.20438 0
    endloop
  endfacet
  facet normal -0.844321 -0.535838 0
    outer loop
      vertex -6.94077 -2.20438 3
      vertex -6.77254 -2.46946 0
      vertex -6.77254 -2.46946 3
    endloop
  endfacet
  facet normal 0.12534 -0.992114 0
    outer loop
      vertex 4.90698 -3.49507 0
      vertex 5.21845 -3.45572 3
      vertex 4.90698 -3.49507 3
    endloop
  endfacet
  facet normal 0.12534 -0.992114 0
    outer loop
      vertex 5.21845 -3.45572 3
      vertex 4.90698 -3.49507 0
      vertex 5.21845 -3.45572 0
    endloop
  endfacet
  facet normal 0.684541 -0.728975 0
    outer loop
      vertex 6.34356 -2.92628 0
      vertex 6.57242 -2.71137 3
      vertex 6.34356 -2.92628 3
    endloop
  endfacet
  facet normal 0.684541 -0.728975 0
    outer loop
      vertex 6.57242 -2.71137 3
      vertex 6.34356 -2.92628 0
      vertex 6.57242 -2.71137 0
    endloop
  endfacet
  facet normal 0.844321 -0.535838 0
    outer loop
      vertex 6.77254 -2.46946 3
      vertex 6.94077 -2.20438 0
      vertex 6.94077 -2.20438 3
    endloop
  endfacet
  facet normal 0.844321 -0.535838 0
    outer loop
      vertex 6.94077 -2.20438 0
      vertex 6.77254 -2.46946 3
      vertex 6.77254 -2.46946 0
    endloop
  endfacet
  facet normal 0.481757 -0.876305 0
    outer loop
      vertex 5.81445 -3.26207 0
      vertex 6.08957 -3.11082 3
      vertex 5.81445 -3.26207 3
    endloop
  endfacet
  facet normal 0.481757 -0.876305 0
    outer loop
      vertex 6.08957 -3.11082 3
      vertex 5.81445 -3.26207 0
      vertex 6.08957 -3.11082 0
    endloop
  endfacet
  facet normal 0.248699 -0.968581 0
    outer loop
      vertex 5.21845 -3.45572 0
      vertex 5.52254 -3.37764 3
      vertex 5.21845 -3.45572 3
    endloop
  endfacet
  facet normal 0.248699 -0.968581 0
    outer loop
      vertex 5.52254 -3.37764 3
      vertex 5.21845 -3.45572 0
      vertex 5.52254 -3.37764 0
    endloop
  endfacet
  facet normal 0.36811 0.929782 -0
    outer loop
      vertex 5.81445 3.26207 0
      vertex 5.52254 3.37764 3
      vertex 5.81445 3.26207 3
    endloop
  endfacet
  facet normal 0.36811 0.929782 0
    outer loop
      vertex 5.52254 3.37764 3
      vertex 5.81445 3.26207 0
      vertex 5.52254 3.37764 0
    endloop
  endfacet
  facet normal 0.982286 0.187386 0
    outer loop
      vertex 7.23029 1.31333 3
      vertex 7.17146 1.62172 0
      vertex 7.17146 1.62172 3
    endloop
  endfacet
  facet normal 0.982286 0.187386 0
    outer loop
      vertex 7.17146 1.62172 0
      vertex 7.23029 1.31333 3
      vertex 7.23029 1.31333 0
    endloop
  endfacet
  facet normal 0.770522 0.637414 0
    outer loop
      vertex 6.77254 2.46946 3
      vertex 6.57242 2.71137 0
      vertex 6.57242 2.71137 3
    endloop
  endfacet
  facet normal 0.770522 0.637414 0
    outer loop
      vertex 6.57242 2.71137 0
      vertex 6.77254 2.46946 3
      vertex 6.77254 2.46946 0
    endloop
  endfacet
  facet normal 0.998027 -0.0627808 0
    outer loop
      vertex 7.23029 -1.31333 3
      vertex 7.25 -1 0
      vertex 7.25 -1 3
    endloop
  endfacet
  facet normal 0.998027 -0.0627808 0
    outer loop
      vertex 7.25 -1 0
      vertex 7.23029 -1.31333 3
      vertex 7.23029 -1.31333 0
    endloop
  endfacet
  facet normal -0.951054 -0.309023 0
    outer loop
      vertex -7.07444 -1.92031 0
      vertex -7.17146 -1.62172 3
      vertex -7.17146 -1.62172 0
    endloop
  endfacet
  facet normal -0.951054 -0.309023 0
    outer loop
      vertex -7.17146 -1.62172 3
      vertex -7.07444 -1.92031 0
      vertex -7.07444 -1.92031 3
    endloop
  endfacet
  facet normal -0.770522 -0.637414 0
    outer loop
      vertex -6.57242 -2.71137 0
      vertex -6.77254 -2.46946 3
      vertex -6.77254 -2.46946 0
    endloop
  endfacet
  facet normal -0.770522 -0.637414 0
    outer loop
      vertex -6.77254 -2.46946 3
      vertex -6.57242 -2.71137 0
      vertex -6.57242 -2.71137 3
    endloop
  endfacet
  facet normal -0.36811 -0.929782 0
    outer loop
      vertex -5.81445 -3.26207 0
      vertex -5.52254 -3.37764 3
      vertex -5.81445 -3.26207 3
    endloop
  endfacet
  facet normal -0.36811 -0.929782 -0
    outer loop
      vertex -5.52254 -3.37764 3
      vertex -5.81445 -3.26207 0
      vertex -5.52254 -3.37764 0
    endloop
  endfacet
  facet normal -0.248699 -0.968581 0
    outer loop
      vertex -5.52254 -3.37764 0
      vertex -5.21845 -3.45572 3
      vertex -5.52254 -3.37764 3
    endloop
  endfacet
  facet normal -0.248699 -0.968581 -0
    outer loop
      vertex -5.21845 -3.45572 3
      vertex -5.52254 -3.37764 0
      vertex -5.21845 -3.45572 0
    endloop
  endfacet
  facet normal -0.481757 -0.876305 0
    outer loop
      vertex -6.08957 -3.11082 0
      vertex -5.81445 -3.26207 3
      vertex -6.08957 -3.11082 3
    endloop
  endfacet
  facet normal -0.481757 -0.876305 -0
    outer loop
      vertex -5.81445 -3.26207 3
      vertex -6.08957 -3.11082 0
      vertex -5.81445 -3.26207 0
    endloop
  endfacet
  facet normal -0.587797 -0.809009 0
    outer loop
      vertex -6.34356 -2.92628 0
      vertex -6.08957 -3.11082 3
      vertex -6.34356 -2.92628 3
    endloop
  endfacet
  facet normal -0.587797 -0.809009 -0
    outer loop
      vertex -6.08957 -3.11082 3
      vertex -6.34356 -2.92628 0
      vertex -6.08957 -3.11082 0
    endloop
  endfacet
  facet normal -0.684541 -0.728975 0
    outer loop
      vertex -6.57242 -2.71137 0
      vertex -6.34356 -2.92628 3
      vertex -6.57242 -2.71137 3
    endloop
  endfacet
  facet normal -0.684541 -0.728975 -0
    outer loop
      vertex -6.34356 -2.92628 3
      vertex -6.57242 -2.71137 0
      vertex -6.34356 -2.92628 0
    endloop
  endfacet
  facet normal 0.770522 -0.637414 0
    outer loop
      vertex 6.57242 -2.71137 3
      vertex 6.77254 -2.46946 0
      vertex 6.77254 -2.46946 3
    endloop
  endfacet
  facet normal 0.770522 -0.637414 0
    outer loop
      vertex 6.77254 -2.46946 0
      vertex 6.57242 -2.71137 3
      vertex 6.57242 -2.71137 0
    endloop
  endfacet
  facet normal 0.904831 -0.425771 0
    outer loop
      vertex 6.94077 -2.20438 3
      vertex 7.07444 -1.92031 0
      vertex 7.07444 -1.92031 3
    endloop
  endfacet
  facet normal 0.904831 -0.425771 0
    outer loop
      vertex 7.07444 -1.92031 0
      vertex 6.94077 -2.20438 3
      vertex 6.94077 -2.20438 0
    endloop
  endfacet
  facet normal 0.36811 -0.929782 0
    outer loop
      vertex 5.52254 -3.37764 0
      vertex 5.81445 -3.26207 3
      vertex 5.52254 -3.37764 3
    endloop
  endfacet
  facet normal 0.36811 -0.929782 0
    outer loop
      vertex 5.81445 -3.26207 3
      vertex 5.52254 -3.37764 0
      vertex 5.81445 -3.26207 0
    endloop
  endfacet
  facet normal 0.587797 0.809009 -0
    outer loop
      vertex 6.34356 2.92628 0
      vertex 6.08957 3.11082 3
      vertex 6.34356 2.92628 3
    endloop
  endfacet
  facet normal 0.587797 0.809009 0
    outer loop
      vertex 6.08957 3.11082 3
      vertex 6.34356 2.92628 0
      vertex 6.08957 3.11082 0
    endloop
  endfacet
  facet normal 0.481757 0.876305 -0
    outer loop
      vertex 6.08957 3.11082 0
      vertex 5.81445 3.26207 3
      vertex 6.08957 3.11082 3
    endloop
  endfacet
  facet normal 0.481757 0.876305 0
    outer loop
      vertex 5.81445 3.26207 3
      vertex 6.08957 3.11082 0
      vertex 5.81445 3.26207 0
    endloop
  endfacet
  facet normal 0.951054 0.309023 0
    outer loop
      vertex 7.17146 1.62172 3
      vertex 7.07444 1.92031 0
      vertex 7.07444 1.92031 3
    endloop
  endfacet
  facet normal 0.951054 0.309023 0
    outer loop
      vertex 7.07444 1.92031 0
      vertex 7.17146 1.62172 3
      vertex 7.17146 1.62172 0
    endloop
  endfacet
  facet normal 0.904831 0.425771 0
    outer loop
      vertex 7.07444 1.92031 3
      vertex 6.94077 2.20438 0
      vertex 6.94077 2.20438 3
    endloop
  endfacet
  facet normal 0.904831 0.425771 0
    outer loop
      vertex 6.94077 2.20438 0
      vertex 7.07444 1.92031 3
      vertex 7.07444 1.92031 0
    endloop
  endfacet
  facet normal 0.982286 -0.187386 0
    outer loop
      vertex 7.17146 -1.62172 3
      vertex 7.23029 -1.31333 0
      vertex 7.23029 -1.31333 3
    endloop
  endfacet
  facet normal 0.982286 -0.187386 0
    outer loop
      vertex 7.23029 -1.31333 0
      vertex 7.17146 -1.62172 3
      vertex 7.17146 -1.62172 0
    endloop
  endfacet
  facet normal 0.844321 0.535838 0
    outer loop
      vertex 6.94077 2.20438 3
      vertex 6.77254 2.46946 0
      vertex 6.77254 2.46946 3
    endloop
  endfacet
  facet normal 0.844321 0.535838 0
    outer loop
      vertex 6.77254 2.46946 0
      vertex 6.94077 2.20438 3
      vertex 6.94077 2.20438 0
    endloop
  endfacet
endsolid OpenSCAD_Model
