solid OpenSCAD_Model
  facet normal -1 0 0
    outer loop
      vertex -3.5 -1 0
      vertex -3.5 1 3
      vertex -3.5 1 0
    endloop
  endfacet
  facet normal -1 -0 0
    outer loop
      vertex -3.5 1 3
      vertex -3.5 -1 0
      vertex -3.5 -1 3
    endloop
  endfacet
  facet normal -0.998027 0.0627808 0
    outer loop
      vertex -3.5 1 0
      vertex -3.48029 1.31333 3
      vertex -3.48029 1.31333 0
    endloop
  endfacet
  facet normal -0.998027 0.0627808 0
    outer loop
      vertex -3.48029 1.31333 3
      vertex -3.5 1 0
      vertex -3.5 1 3
    endloop
  endfacet
  facet normal -0.998027 -0.0627808 0
    outer loop
      vertex -3.48029 -1.31333 0
      vertex -3.5 -1 3
      vertex -3.5 -1 0
    endloop
  endfacet
  facet normal -0.998027 -0.0627808 0
    outer loop
      vertex -3.5 -1 3
      vertex -3.48029 -1.31333 0
      vertex -3.48029 -1.31333 3
    endloop
  endfacet
  facet normal 0 0 1
    outer loop
      vertex 1.6736 0.662623 3
      vertex 3.5 1 3
      vertex 3.48029 1.31333 3
    endloop
  endfacet
  facet normal 0 0 1
    outer loop
      vertex 3.5 1 3
      vertex 1.8 0 3
      vertex 3.5 -1 3
    endloop
  endfacet
  facet normal 0 0 1
    outer loop
      vertex 1.57735 0.867156 3
      vertex 3.48029 1.31333 3
      vertex 3.42146 1.62172 3
    endloop
  endfacet
  facet normal -0 0 1
    outer loop
      vertex 1.78581 -0.225599 3
      vertex 3.5 -1 3
      vertex 1.8 0 3
    endloop
  endfacet
  facet normal 0 0 1
    outer loop
      vertex 1.57735 0.867156 3
      vertex 3.42146 1.62172 3
      vertex 3.32444 1.92031 3
    endloop
  endfacet
  facet normal -0 0 1
    outer loop
      vertex 1.74345 -0.447641 3
      vertex 3.5 -1 3
      vertex 1.78581 -0.225599 3
    endloop
  endfacet
  facet normal 0 0 1
    outer loop
      vertex 1.45623 1.05801 3
      vertex 3.32444 1.92031 3
      vertex 3.19077 2.20438 3
    endloop
  endfacet
  facet normal -0 0 1
    outer loop
      vertex 1.6736 -0.662623 3
      vertex 3.5 -1 3
      vertex 1.74345 -0.447641 3
    endloop
  endfacet
  facet normal 0 0 1
    outer loop
      vertex 1.45623 1.05801 3
      vertex 3.19077 2.20438 3
      vertex 3.02254 2.46946 3
    endloop
  endfacet
  facet normal 0 0 1
    outer loop
      vertex 3.5 -1 3
      vertex 1.6736 -0.662623 3
      vertex 3.48029 -1.31333 3
    endloop
  endfacet
  facet normal 0 0 1
    outer loop
      vertex 1.31214 1.23218 3
      vertex 3.02254 2.46946 3
      vertex 2.82242 2.71137 3
    endloop
  endfacet
  facet normal -0 0 1
    outer loop
      vertex 1.57735 -0.867156 3
      vertex 3.48029 -1.31333 3
      vertex 1.6736 -0.662623 3
    endloop
  endfacet
  facet normal 0 0 1
    outer loop
      vertex 1.31214 1.23218 3
      vertex 2.82242 2.71137 3
      vertex 2.59356 2.92628 3
    endloop
  endfacet
  facet normal 0 0 1
    outer loop
      vertex 3.48029 -1.31333 3
      vertex 1.57735 -0.867156 3
      vertex 3.42146 -1.62172 3
    endloop
  endfacet
  facet normal 0 0 1
    outer loop
      vertex 1.14736 1.38692 3
      vertex 2.59356 2.92628 3
      vertex 2.33957 3.11082 3
    endloop
  endfacet
  facet normal 0 0 1
    outer loop
      vertex 3.42146 -1.62172 3
      vertex 1.57735 -0.867156 3
      vertex 3.32444 -1.92031 3
    endloop
  endfacet
  facet normal 0 0 1
    outer loop
      vertex 1.14736 1.38692 3
      vertex 2.33957 3.11082 3
      vertex 2.06445 3.26207 3
    endloop
  endfacet
  facet normal -0 0 1
    outer loop
      vertex 1.45623 -1.05801 3
      vertex 3.32444 -1.92031 3
      vertex 1.57735 -0.867156 3
    endloop
  endfacet
  facet normal 0 0 1
    outer loop
      vertex 3.32444 -1.92031 3
      vertex 1.45623 -1.05801 3
      vertex 3.19077 -2.20438 3
    endloop
  endfacet
  facet normal 0 0 1
    outer loop
      vertex 3.5 1 3
      vertex 1.78581 0.225599 3
      vertex 1.8 0 3
    endloop
  endfacet
  facet normal 0 0 1
    outer loop
      vertex 0.964488 1.51979 3
      vertex 2.06445 3.26207 3
      vertex 1.77254 3.37764 3
    endloop
  endfacet
  facet normal 0 0 1
    outer loop
      vertex 3.5 1 3
      vertex 1.74345 0.447641 3
      vertex 1.78581 0.225599 3
    endloop
  endfacet
  facet normal 0 0 1
    outer loop
      vertex 3.5 1 3
      vertex 1.6736 0.662623 3
      vertex 1.74345 0.447641 3
    endloop
  endfacet
  facet normal 0 0 1
    outer loop
      vertex 3.48029 1.31333 3
      vertex 1.57735 0.867156 3
      vertex 1.6736 0.662623 3
    endloop
  endfacet
  facet normal 0 0 1
    outer loop
      vertex 0.964488 1.51979 3
      vertex 1.77254 3.37764 3
      vertex 1.46845 3.45572 3
    endloop
  endfacet
  facet normal 0 0 1
    outer loop
      vertex 3.32444 1.92031 3
      vertex 1.45623 1.05801 3
      vertex 1.57735 0.867156 3
    endloop
  endfacet
  facet normal 0 0 1
    outer loop
      vertex 3.02254 2.46946 3
      vertex 1.31214 1.23218 3
      vertex 1.45623 1.05801 3
    endloop
  endfacet
  facet normal 0 0 1
    outer loop
      vertex 0.766402 1.62869 3
      vertex 1.46845 3.45572 3
      vertex 1.15698 3.49507 3
    endloop
  endfacet
  facet normal 0 0 1
    outer loop
      vertex 2.59356 2.92628 3
      vertex 1.14736 1.38692 3
      vertex 1.31214 1.23218 3
    endloop
  endfacet
  facet normal 0 0 1
    outer loop
      vertex 2.06445 3.26207 3
      vertex 0.964488 1.51979 3
      vertex 1.14736 1.38692 3
    endloop
  endfacet
  facet normal 0 0 1
    outer loop
      vertex 1.46845 3.45572 3
      vertex 0.766402 1.62869 3
      vertex 0.964488 1.51979 3
    endloop
  endfacet
  facet normal 0 0 1
    outer loop
      vertex 1.15698 3.49507 3
      vertex 0.556231 1.7119 3
      vertex 0.766402 1.62869 3
    endloop
  endfacet
  facet normal 0 0 1
    outer loop
      vertex 1.15698 3.49507 3
      vertex 0.337286 1.76812 3
      vertex 0.556231 1.7119 3
    endloop
  endfacet
  facet normal 0 0 1
    outer loop
      vertex 1.15698 3.49507 3
      vertex 0.113023 1.79645 3
      vertex 0.337286 1.76812 3
    endloop
  endfacet
  facet normal 0 0 1
    outer loop
      vertex 1.15698 3.49507 3
      vertex -0.113023 1.79645 3
      vertex 0.113023 1.79645 3
    endloop
  endfacet
  facet normal -0 0 1
    outer loop
      vertex -1.15698 3.49507 3
      vertex -0.113023 1.79645 3
      vertex 1.15698 3.49507 3
    endloop
  endfacet
  facet normal 0 0 1
    outer loop
      vertex -0.113023 1.79645 3
      vertex -1.15698 3.49507 3
      vertex -0.337286 1.76812 3
    endloop
  endfacet
  facet normal 0 0 1
    outer loop
      vertex -0.337286 1.76812 3
      vertex -1.15698 3.49507 3
      vertex -0.556231 1.7119 3
    endloop
  endfacet
  facet normal 0 0 1
    outer loop
      vertex -0.556231 1.7119 3
      vertex -1.15698 3.49507 3
      vertex -0.766402 1.62869 3
    endloop
  endfacet
  facet normal -0 0 1
    outer loop
      vertex -1.46845 3.45572 3
      vertex -0.766402 1.62869 3
      vertex -1.15698 3.49507 3
    endloop
  endfacet
  facet normal 0 0 1
    outer loop
      vertex -0.766402 1.62869 3
      vertex -1.46845 3.45572 3
      vertex -0.964488 1.51979 3
    endloop
  endfacet
  facet normal -0 0 1
    outer loop
      vertex -1.77254 3.37764 3
      vertex -0.964488 1.51979 3
      vertex -1.46845 3.45572 3
    endloop
  endfacet
  facet normal -0 0 1
    outer loop
      vertex -2.06445 3.26207 3
      vertex -0.964488 1.51979 3
      vertex -1.77254 3.37764 3
    endloop
  endfacet
  facet normal 0 0 1
    outer loop
      vertex -0.964488 1.51979 3
      vertex -2.06445 3.26207 3
      vertex -1.14736 1.38692 3
    endloop
  endfacet
  facet normal -0 0 1
    outer loop
      vertex -2.33957 3.11082 3
      vertex -1.14736 1.38692 3
      vertex -2.06445 3.26207 3
    endloop
  endfacet
  facet normal -0 0 1
    outer loop
      vertex -2.59356 2.92628 3
      vertex -1.14736 1.38692 3
      vertex -2.33957 3.11082 3
    endloop
  endfacet
  facet normal 0 0 1
    outer loop
      vertex -1.14736 1.38692 3
      vertex -2.59356 2.92628 3
      vertex -1.31214 1.23218 3
    endloop
  endfacet
  facet normal -0 0 1
    outer loop
      vertex -2.82242 2.71137 3
      vertex -1.31214 1.23218 3
      vertex -2.59356 2.92628 3
    endloop
  endfacet
  facet normal -0 0 1
    outer loop
      vertex -3.02254 2.46946 3
      vertex -1.31214 1.23218 3
      vertex -2.82242 2.71137 3
    endloop
  endfacet
  facet normal 0 0 1
    outer loop
      vertex -1.31214 1.23218 3
      vertex -3.02254 2.46946 3
      vertex -1.45623 1.05801 3
    endloop
  endfacet
  facet normal -0 0 1
    outer loop
      vertex -3.19077 2.20438 3
      vertex -1.45623 1.05801 3
      vertex -3.02254 2.46946 3
    endloop
  endfacet
  facet normal 0 0 1
    outer loop
      vertex 3.19077 -2.20438 3
      vertex 1.45623 -1.05801 3
      vertex 3.02254 -2.46946 3
    endloop
  endfacet
  facet normal -0 0 1
    outer loop
      vertex 1.31214 -1.23218 3
      vertex 3.02254 -2.46946 3
      vertex 1.45623 -1.05801 3
    endloop
  endfacet
  facet normal 0 0 1
    outer loop
      vertex 3.02254 -2.46946 3
      vertex 1.31214 -1.23218 3
      vertex 2.82242 -2.71137 3
    endloop
  endfacet
  facet normal 0 0 1
    outer loop
      vertex 2.82242 -2.71137 3
      vertex 1.31214 -1.23218 3
      vertex 2.59356 -2.92628 3
    endloop
  endfacet
  facet normal -0 0 1
    outer loop
      vertex 1.14736 -1.38692 3
      vertex 2.59356 -2.92628 3
      vertex 1.31214 -1.23218 3
    endloop
  endfacet
  facet normal 0 0 1
    outer loop
      vertex 2.59356 -2.92628 3
      vertex 1.14736 -1.38692 3
      vertex 2.33957 -3.11082 3
    endloop
  endfacet
  facet normal 0 0 1
    outer loop
      vertex 2.33957 -3.11082 3
      vertex 1.14736 -1.38692 3
      vertex 2.06445 -3.26207 3
    endloop
  endfacet
  facet normal -0 0 1
    outer loop
      vertex 0.964488 -1.51979 3
      vertex 2.06445 -3.26207 3
      vertex 1.14736 -1.38692 3
    endloop
  endfacet
  facet normal 0 0 1
    outer loop
      vertex 2.06445 -3.26207 3
      vertex 0.964488 -1.51979 3
      vertex 1.77254 -3.37764 3
    endloop
  endfacet
  facet normal 0 0 1
    outer loop
      vertex 1.77254 -3.37764 3
      vertex 0.964488 -1.51979 3
      vertex 1.46845 -3.45572 3
    endloop
  endfacet
  facet normal -0 0 1
    outer loop
      vertex 0.766402 -1.62869 3
      vertex 1.46845 -3.45572 3
      vertex 0.964488 -1.51979 3
    endloop
  endfacet
  facet normal 0 0 1
    outer loop
      vertex 1.46845 -3.45572 3
      vertex 0.766402 -1.62869 3
      vertex 1.15698 -3.49507 3
    endloop
  endfacet
  facet normal -0 0 1
    outer loop
      vertex 0.556231 -1.7119 3
      vertex 1.15698 -3.49507 3
      vertex 0.766402 -1.62869 3
    endloop
  endfacet
  facet normal -0 0 1
    outer loop
      vertex 0.337286 -1.76812 3
      vertex 1.15698 -3.49507 3
      vertex 0.556231 -1.7119 3
    endloop
  endfacet
  facet normal -0 0 1
    outer loop
      vertex 0.113023 -1.79645 3
      vertex 1.15698 -3.49507 3
      vertex 0.337286 -1.76812 3
    endloop
  endfacet
  facet normal -0 0 1
    outer loop
      vertex -0.113023 -1.79645 3
      vertex 1.15698 -3.49507 3
      vertex 0.113023 -1.79645 3
    endloop
  endfacet
  facet normal 0 0 1
    outer loop
      vertex -1.15698 -3.49507 3
      vertex -0.113023 -1.79645 3
      vertex -0.337286 -1.76812 3
    endloop
  endfacet
  facet normal 0 0 1
    outer loop
      vertex -1.15698 -3.49507 3
      vertex -0.337286 -1.76812 3
      vertex -0.556231 -1.7119 3
    endloop
  endfacet
  facet normal 0 0 1
    outer loop
      vertex -1.15698 -3.49507 3
      vertex -0.556231 -1.7119 3
      vertex -0.766402 -1.62869 3
    endloop
  endfacet
  facet normal 0 0 1
    outer loop
      vertex -1.46845 -3.45572 3
      vertex -0.766402 -1.62869 3
      vertex -0.964488 -1.51979 3
    endloop
  endfacet
  facet normal 0 0 1
    outer loop
      vertex -2.06445 -3.26207 3
      vertex -0.964488 -1.51979 3
      vertex -1.14736 -1.38692 3
    endloop
  endfacet
  facet normal 0 0 1
    outer loop
      vertex -0.113023 -1.79645 3
      vertex -1.15698 -3.49507 3
      vertex 1.15698 -3.49507 3
    endloop
  endfacet
  facet normal 0 0 1
    outer loop
      vertex -2.59356 -2.92628 3
      vertex -1.14736 -1.38692 3
      vertex -1.31214 -1.23218 3
    endloop
  endfacet
  facet normal 0 0 1
    outer loop
      vertex -3.02254 -2.46946 3
      vertex -1.31214 -1.23218 3
      vertex -1.45623 -1.05801 3
    endloop
  endfacet
  facet normal 0 0 1
    outer loop
      vertex -0.766402 -1.62869 3
      vertex -1.46845 -3.45572 3
      vertex -1.15698 -3.49507 3
    endloop
  endfacet
  facet normal 0 0 1
    outer loop
      vertex -3.32444 -1.92031 3
      vertex -1.45623 -1.05801 3
      vertex -1.57735 -0.867156 3
    endloop
  endfacet
  facet normal 0 0 1
    outer loop
      vertex -3.48029 -1.31333 3
      vertex -1.57735 -0.867156 3
      vertex -1.6736 -0.662623 3
    endloop
  endfacet
  facet normal 0 0 1
    outer loop
      vertex -3.5 -1 3
      vertex -1.6736 -0.662623 3
      vertex -1.74345 -0.447641 3
    endloop
  endfacet
  facet normal 0 0 1
    outer loop
      vertex -0.964488 -1.51979 3
      vertex -1.77254 -3.37764 3
      vertex -1.46845 -3.45572 3
    endloop
  endfacet
  facet normal 0 0 1
    outer loop
      vertex -3.5 -1 3
      vertex -1.74345 -0.447641 3
      vertex -1.78581 -0.225599 3
    endloop
  endfacet
  facet normal 0 0 1
    outer loop
      vertex -3.5 -1 3
      vertex -1.78581 -0.225599 3
      vertex -1.8 0 3
    endloop
  endfacet
  facet normal -0 0 1
    outer loop
      vertex -3.32444 1.92031 3
      vertex -1.45623 1.05801 3
      vertex -3.19077 2.20438 3
    endloop
  endfacet
  facet normal 0 0 1
    outer loop
      vertex -3.5 -1 3
      vertex -1.8 0 3
      vertex -3.5 1 3
    endloop
  endfacet
  facet normal 0 0 1
    outer loop
      vertex -1.45623 1.05801 3
      vertex -3.32444 1.92031 3
      vertex -1.57735 0.867156 3
    endloop
  endfacet
  facet normal 0 0 1
    outer loop
      vertex -1.6736 -0.662623 3
      vertex -3.5 -1 3
      vertex -3.48029 -1.31333 3
    endloop
  endfacet
  facet normal -0 0 1
    outer loop
      vertex -3.42146 1.62172 3
      vertex -1.57735 0.867156 3
      vertex -3.32444 1.92031 3
    endloop
  endfacet
  facet normal 0 0 1
    outer loop
      vertex -0.964488 -1.51979 3
      vertex -2.06445 -3.26207 3
      vertex -1.77254 -3.37764 3
    endloop
  endfacet
  facet normal -0 0 1
    outer loop
      vertex -3.48029 1.31333 3
      vertex -1.57735 0.867156 3
      vertex -3.42146 1.62172 3
    endloop
  endfacet
  facet normal 0 0 1
    outer loop
      vertex -1.14736 -1.38692 3
      vertex -2.33957 -3.11082 3
      vertex -2.06445 -3.26207 3
    endloop
  endfacet
  facet normal 0 0 1
    outer loop
      vertex -1.57735 0.867156 3
      vertex -3.48029 1.31333 3
      vertex -1.6736 0.662623 3
    endloop
  endfacet
  facet normal 0 0 1
    outer loop
      vertex -1.14736 -1.38692 3
      vertex -2.59356 -2.92628 3
      vertex -2.33957 -3.11082 3
    endloop
  endfacet
  facet normal -0 0 1
    outer loop
      vertex -3.5 1 3
      vertex -1.6736 0.662623 3
      vertex -3.48029 1.31333 3
    endloop
  endfacet
  facet normal 0 0 1
    outer loop
      vertex -1.31214 -1.23218 3
      vertex -2.82242 -2.71137 3
      vertex -2.59356 -2.92628 3
    endloop
  endfacet
  facet normal 0 0 1
    outer loop
      vertex -1.6736 0.662623 3
      vertex -3.5 1 3
      vertex -1.74345 0.447641 3
    endloop
  endfacet
  facet normal 0 0 1
    outer loop
      vertex -1.31214 -1.23218 3
      vertex -3.02254 -2.46946 3
      vertex -2.82242 -2.71137 3
    endloop
  endfacet
  facet normal 0 0 1
    outer loop
      vertex -1.74345 0.447641 3
      vertex -3.5 1 3
      vertex -1.78581 0.225599 3
    endloop
  endfacet
  facet normal 0 0 1
    outer loop
      vertex -1.45623 -1.05801 3
      vertex -3.19077 -2.20438 3
      vertex -3.02254 -2.46946 3
    endloop
  endfacet
  facet normal 0 0 1
    outer loop
      vertex -1.78581 0.225599 3
      vertex -3.5 1 3
      vertex -1.8 0 3
    endloop
  endfacet
  facet normal 0 0 1
    outer loop
      vertex -1.45623 -1.05801 3
      vertex -3.32444 -1.92031 3
      vertex -3.19077 -2.20438 3
    endloop
  endfacet
  facet normal 0 0 1
    outer loop
      vertex -1.57735 -0.867156 3
      vertex -3.42146 -1.62172 3
      vertex -3.32444 -1.92031 3
    endloop
  endfacet
  facet normal 0 0 1
    outer loop
      vertex -1.57735 -0.867156 3
      vertex -3.48029 -1.31333 3
      vertex -3.42146 -1.62172 3
    endloop
  endfacet
  facet normal 0.36811 -0.929782 0
    outer loop
      vertex 1.77254 -3.37764 0
      vertex 2.06445 -3.26207 3
      vertex 1.77254 -3.37764 3
    endloop
  endfacet
  facet normal 0.36811 -0.929782 0
    outer loop
      vertex 2.06445 -3.26207 3
      vertex 1.77254 -3.37764 0
      vertex 2.06445 -3.26207 0
    endloop
  endfacet
  facet normal 0.951054 -0.309023 0
    outer loop
      vertex 3.32444 -1.92031 3
      vertex 3.42146 -1.62172 0
      vertex 3.42146 -1.62172 3
    endloop
  endfacet
  facet normal 0.951054 -0.309023 0
    outer loop
      vertex 3.42146 -1.62172 0
      vertex 3.32444 -1.92031 3
      vertex 3.32444 -1.92031 0
    endloop
  endfacet
  facet normal -0.36811 -0.929782 0
    outer loop
      vertex -2.06445 -3.26207 0
      vertex -1.77254 -3.37764 3
      vertex -2.06445 -3.26207 3
    endloop
  endfacet
  facet normal -0.36811 -0.929782 -0
    outer loop
      vertex -1.77254 -3.37764 3
      vertex -2.06445 -3.26207 0
      vertex -1.77254 -3.37764 0
    endloop
  endfacet
  facet normal 0.248699 -0.968581 0
    outer loop
      vertex 1.46845 -3.45572 0
      vertex 1.77254 -3.37764 3
      vertex 1.46845 -3.45572 3
    endloop
  endfacet
  facet normal 0.248699 -0.968581 0
    outer loop
      vertex 1.77254 -3.37764 3
      vertex 1.46845 -3.45572 0
      vertex 1.77254 -3.37764 0
    endloop
  endfacet
  facet normal 1 -0 0
    outer loop
      vertex 3.5 -1 3
      vertex 3.5 1 0
      vertex 3.5 1 3
    endloop
  endfacet
  facet normal 1 0 0
    outer loop
      vertex 3.5 1 0
      vertex 3.5 -1 3
      vertex 3.5 -1 0
    endloop
  endfacet
  facet normal 0 1 -0
    outer loop
      vertex 1.15698 3.49507 0
      vertex -1.15698 3.49507 3
      vertex 1.15698 3.49507 3
    endloop
  endfacet
  facet normal 0 1 0
    outer loop
      vertex -1.15698 3.49507 3
      vertex 1.15698 3.49507 0
      vertex -1.15698 3.49507 0
    endloop
  endfacet
  facet normal -0.844321 -0.535838 0
    outer loop
      vertex -3.02254 -2.46946 0
      vertex -3.19077 -2.20438 3
      vertex -3.19077 -2.20438 0
    endloop
  endfacet
  facet normal -0.844321 -0.535838 0
    outer loop
      vertex -3.19077 -2.20438 3
      vertex -3.02254 -2.46946 0
      vertex -3.02254 -2.46946 3
    endloop
  endfacet
  facet normal 0 -1 0
    outer loop
      vertex -1.15698 -3.49507 0
      vertex 1.15698 -3.49507 3
      vertex -1.15698 -3.49507 3
    endloop
  endfacet
  facet normal 0 -1 -0
    outer loop
      vertex 1.15698 -3.49507 3
      vertex -1.15698 -3.49507 0
      vertex 1.15698 -3.49507 0
    endloop
  endfacet
  facet normal -0.481757 -0.876305 0
    outer loop
      vertex -2.33957 -3.11082 0
      vertex -2.06445 -3.26207 3
      vertex -2.33957 -3.11082 3
    endloop
  endfacet
  facet normal -0.481757 -0.876305 -0
    outer loop
      vertex -2.06445 -3.26207 3
      vertex -2.33957 -3.11082 0
      vertex -2.06445 -3.26207 0
    endloop
  endfacet
  facet normal 0.770522 -0.637414 0
    outer loop
      vertex 2.82242 -2.71137 3
      vertex 3.02254 -2.46946 0
      vertex 3.02254 -2.46946 3
    endloop
  endfacet
  facet normal 0.770522 -0.637414 0
    outer loop
      vertex 3.02254 -2.46946 0
      vertex 2.82242 -2.71137 3
      vertex 2.82242 -2.71137 0
    endloop
  endfacet
  facet normal 0.904831 -0.425771 0
    outer loop
      vertex 3.19077 -2.20438 3
      vertex 3.32444 -1.92031 0
      vertex 3.32444 -1.92031 3
    endloop
  endfacet
  facet normal 0.904831 -0.425771 0
    outer loop
      vertex 3.32444 -1.92031 0
      vertex 3.19077 -2.20438 3
      vertex 3.19077 -2.20438 0
    endloop
  endfacet
  facet normal -0.904831 0.425771 0
    outer loop
      vertex -3.32444 1.92031 0
      vertex -3.19077 2.20438 3
      vertex -3.19077 2.20438 0
    endloop
  endfacet
  facet normal -0.904831 0.425771 0
    outer loop
      vertex -3.19077 2.20438 3
      vertex -3.32444 1.92031 0
      vertex -3.32444 1.92031 3
    endloop
  endfacet
  facet normal -0.248699 0.968581 0
    outer loop
      vertex -1.46845 3.45572 0
      vertex -1.77254 3.37764 3
      vertex -1.46845 3.45572 3
    endloop
  endfacet
  facet normal -0.248699 0.968581 0
    outer loop
      vertex -1.77254 3.37764 3
      vertex -1.46845 3.45572 0
      vertex -1.77254 3.37764 0
    endloop
  endfacet
  facet normal -0.684541 0.728975 0
    outer loop
      vertex -2.59356 2.92628 0
      vertex -2.82242 2.71137 3
      vertex -2.59356 2.92628 3
    endloop
  endfacet
  facet normal -0.684541 0.728975 0
    outer loop
      vertex -2.82242 2.71137 3
      vertex -2.59356 2.92628 0
      vertex -2.82242 2.71137 0
    endloop
  endfacet
  facet normal 0.904831 0.425771 0
    outer loop
      vertex 3.32444 1.92031 3
      vertex 3.19077 2.20438 0
      vertex 3.19077 2.20438 3
    endloop
  endfacet
  facet normal 0.904831 0.425771 0
    outer loop
      vertex 3.19077 2.20438 0
      vertex 3.32444 1.92031 3
      vertex 3.32444 1.92031 0
    endloop
  endfacet
  facet normal 0.684541 0.728975 -0
    outer loop
      vertex 2.82242 2.71137 0
      vertex 2.59356 2.92628 3
      vertex 2.82242 2.71137 3
    endloop
  endfacet
  facet normal 0.684541 0.728975 0
    outer loop
      vertex 2.59356 2.92628 3
      vertex 2.82242 2.71137 0
      vertex 2.59356 2.92628 0
    endloop
  endfacet
  facet normal -0.12534 0.992114 0
    outer loop
      vertex -1.15698 3.49507 0
      vertex -1.46845 3.45572 3
      vertex -1.15698 3.49507 3
    endloop
  endfacet
  facet normal -0.12534 0.992114 0
    outer loop
      vertex -1.46845 3.45572 3
      vertex -1.15698 3.49507 0
      vertex -1.46845 3.45572 0
    endloop
  endfacet
  facet normal -0.951054 -0.309023 0
    outer loop
      vertex -3.32444 -1.92031 0
      vertex -3.42146 -1.62172 3
      vertex -3.42146 -1.62172 0
    endloop
  endfacet
  facet normal -0.951054 -0.309023 0
    outer loop
      vertex -3.42146 -1.62172 3
      vertex -3.32444 -1.92031 0
      vertex -3.32444 -1.92031 3
    endloop
  endfacet
  facet normal 0.12534 -0.992114 0
    outer loop
      vertex 1.15698 -3.49507 0
      vertex 1.46845 -3.45572 3
      vertex 1.15698 -3.49507 3
    endloop
  endfacet
  facet normal 0.12534 -0.992114 0
    outer loop
      vertex 1.46845 -3.45572 3
      vertex 1.15698 -3.49507 0
      vertex 1.46845 -3.45572 0
    endloop
  endfacet
  facet normal -0.12534 -0.992114 0
    outer loop
      vertex -1.46845 -3.45572 0
      vertex -1.15698 -3.49507 3
      vertex -1.46845 -3.45572 3
    endloop
  endfacet
  facet normal -0.12534 -0.992114 -0
    outer loop
      vertex -1.15698 -3.49507 3
      vertex -1.46845 -3.45572 0
      vertex -1.15698 -3.49507 0
    endloop
  endfacet
  facet normal -0.684541 -0.728975 0
    outer loop
      vertex -2.82242 -2.71137 0
      vertex -2.59356 -2.92628 3
      vertex -2.82242 -2.71137 3
    endloop
  endfacet
  facet normal -0.684541 -0.728975 -0
    outer loop
      vertex -2.59356 -2.92628 3
      vertex -2.82242 -2.71137 0
      vertex -2.59356 -2.92628 0
    endloop
  endfacet
  facet normal -0.904831 -0.425771 0
    outer loop
      vertex -3.19077 -2.20438 0
      vertex -3.32444 -1.92031 3
      vertex -3.32444 -1.92031 0
    endloop
  endfacet
  facet normal -0.904831 -0.425771 0
    outer loop
      vertex -3.32444 -1.92031 3
      vertex -3.19077 -2.20438 0
      vertex -3.19077 -2.20438 3
    endloop
  endfacet
  facet normal 0 0 -1
    outer loop
      vertex 1.6736 -0.662623 0
      vertex 3.5 -1 0
      vertex 3.48029 -1.31333 0
    endloop
  endfacet
  facet normal 0 0 -1
    outer loop
      vertex 3.5 -1 0
      vertex 1.8 0 0
      vertex 3.5 1 0
    endloop
  endfacet
  facet normal 0 0 -1
    outer loop
      vertex 1.57735 -0.867156 0
      vertex 3.48029 -1.31333 0
      vertex 3.42146 -1.62172 0
    endloop
  endfacet
  facet normal 0 0 -1
    outer loop
      vertex 1.78581 0.225599 0
      vertex 3.5 1 0
      vertex 1.8 0 0
    endloop
  endfacet
  facet normal 0 0 -1
    outer loop
      vertex 1.57735 -0.867156 0
      vertex 3.42146 -1.62172 0
      vertex 3.32444 -1.92031 0
    endloop
  endfacet
  facet normal 0 0 -1
    outer loop
      vertex 1.74345 0.447641 0
      vertex 3.5 1 0
      vertex 1.78581 0.225599 0
    endloop
  endfacet
  facet normal 0 0 -1
    outer loop
      vertex 1.45623 -1.05801 0
      vertex 3.32444 -1.92031 0
      vertex 3.19077 -2.20438 0
    endloop
  endfacet
  facet normal 0 0 -1
    outer loop
      vertex 1.6736 0.662623 0
      vertex 3.5 1 0
      vertex 1.74345 0.447641 0
    endloop
  endfacet
  facet normal 0 0 -1
    outer loop
      vertex 1.45623 -1.05801 0
      vertex 3.19077 -2.20438 0
      vertex 3.02254 -2.46946 0
    endloop
  endfacet
  facet normal -0 0 -1
    outer loop
      vertex 3.5 1 0
      vertex 1.6736 0.662623 0
      vertex 3.48029 1.31333 0
    endloop
  endfacet
  facet normal 0 0 -1
    outer loop
      vertex 1.31214 -1.23218 0
      vertex 3.02254 -2.46946 0
      vertex 2.82242 -2.71137 0
    endloop
  endfacet
  facet normal 0 0 -1
    outer loop
      vertex 1.57735 0.867156 0
      vertex 3.48029 1.31333 0
      vertex 1.6736 0.662623 0
    endloop
  endfacet
  facet normal 0 0 -1
    outer loop
      vertex 1.31214 -1.23218 0
      vertex 2.82242 -2.71137 0
      vertex 2.59356 -2.92628 0
    endloop
  endfacet
  facet normal -0 0 -1
    outer loop
      vertex 3.48029 1.31333 0
      vertex 1.57735 0.867156 0
      vertex 3.42146 1.62172 0
    endloop
  endfacet
  facet normal 0 0 -1
    outer loop
      vertex 1.14736 -1.38692 0
      vertex 2.59356 -2.92628 0
      vertex 2.33957 -3.11082 0
    endloop
  endfacet
  facet normal -0 0 -1
    outer loop
      vertex 3.42146 1.62172 0
      vertex 1.57735 0.867156 0
      vertex 3.32444 1.92031 0
    endloop
  endfacet
  facet normal 0 0 -1
    outer loop
      vertex 1.14736 -1.38692 0
      vertex 2.33957 -3.11082 0
      vertex 2.06445 -3.26207 0
    endloop
  endfacet
  facet normal 0 0 -1
    outer loop
      vertex 1.45623 1.05801 0
      vertex 3.32444 1.92031 0
      vertex 1.57735 0.867156 0
    endloop
  endfacet
  facet normal -0 0 -1
    outer loop
      vertex 3.32444 1.92031 0
      vertex 1.45623 1.05801 0
      vertex 3.19077 2.20438 0
    endloop
  endfacet
  facet normal 0 0 -1
    outer loop
      vertex 3.5 -1 0
      vertex 1.78581 -0.225599 0
      vertex 1.8 0 0
    endloop
  endfacet
  facet normal 0 0 -1
    outer loop
      vertex 0.964488 -1.51979 0
      vertex 2.06445 -3.26207 0
      vertex 1.77254 -3.37764 0
    endloop
  endfacet
  facet normal 0 0 -1
    outer loop
      vertex 3.5 -1 0
      vertex 1.74345 -0.447641 0
      vertex 1.78581 -0.225599 0
    endloop
  endfacet
  facet normal 0 0 -1
    outer loop
      vertex 3.5 -1 0
      vertex 1.6736 -0.662623 0
      vertex 1.74345 -0.447641 0
    endloop
  endfacet
  facet normal 0 0 -1
    outer loop
      vertex 3.48029 -1.31333 0
      vertex 1.57735 -0.867156 0
      vertex 1.6736 -0.662623 0
    endloop
  endfacet
  facet normal 0 0 -1
    outer loop
      vertex 0.964488 -1.51979 0
      vertex 1.77254 -3.37764 0
      vertex 1.46845 -3.45572 0
    endloop
  endfacet
  facet normal 0 0 -1
    outer loop
      vertex 3.32444 -1.92031 0
      vertex 1.45623 -1.05801 0
      vertex 1.57735 -0.867156 0
    endloop
  endfacet
  facet normal 0 0 -1
    outer loop
      vertex 3.02254 -2.46946 0
      vertex 1.31214 -1.23218 0
      vertex 1.45623 -1.05801 0
    endloop
  endfacet
  facet normal 0 0 -1
    outer loop
      vertex 0.766402 -1.62869 0
      vertex 1.46845 -3.45572 0
      vertex 1.15698 -3.49507 0
    endloop
  endfacet
  facet normal 0 0 -1
    outer loop
      vertex 2.59356 -2.92628 0
      vertex 1.14736 -1.38692 0
      vertex 1.31214 -1.23218 0
    endloop
  endfacet
  facet normal 0 0 -1
    outer loop
      vertex 2.06445 -3.26207 0
      vertex 0.964488 -1.51979 0
      vertex 1.14736 -1.38692 0
    endloop
  endfacet
  facet normal 0 0 -1
    outer loop
      vertex 1.46845 -3.45572 0
      vertex 0.766402 -1.62869 0
      vertex 0.964488 -1.51979 0
    endloop
  endfacet
  facet normal 0 0 -1
    outer loop
      vertex 1.15698 -3.49507 0
      vertex 0.556231 -1.7119 0
      vertex 0.766402 -1.62869 0
    endloop
  endfacet
  facet normal 0 0 -1
    outer loop
      vertex 1.15698 -3.49507 0
      vertex 0.337286 -1.76812 0
      vertex 0.556231 -1.7119 0
    endloop
  endfacet
  facet normal 0 0 -1
    outer loop
      vertex 1.15698 -3.49507 0
      vertex 0.113023 -1.79645 0
      vertex 0.337286 -1.76812 0
    endloop
  endfacet
  facet normal 0 0 -1
    outer loop
      vertex 1.15698 -3.49507 0
      vertex -0.113023 -1.79645 0
      vertex 0.113023 -1.79645 0
    endloop
  endfacet
  facet normal 0 0 -1
    outer loop
      vertex -1.15698 -3.49507 0
      vertex -0.113023 -1.79645 0
      vertex 1.15698 -3.49507 0
    endloop
  endfacet
  facet normal -0 0 -1
    outer loop
      vertex -0.113023 -1.79645 0
      vertex -1.15698 -3.49507 0
      vertex -0.337286 -1.76812 0
    endloop
  endfacet
  facet normal -0 0 -1
    outer loop
      vertex -0.337286 -1.76812 0
      vertex -1.15698 -3.49507 0
      vertex -0.556231 -1.7119 0
    endloop
  endfacet
  facet normal -0 0 -1
    outer loop
      vertex -0.556231 -1.7119 0
      vertex -1.15698 -3.49507 0
      vertex -0.766402 -1.62869 0
    endloop
  endfacet
  facet normal 0 0 -1
    outer loop
      vertex -1.46845 -3.45572 0
      vertex -0.766402 -1.62869 0
      vertex -1.15698 -3.49507 0
    endloop
  endfacet
  facet normal -0 0 -1
    outer loop
      vertex -0.766402 -1.62869 0
      vertex -1.46845 -3.45572 0
      vertex -0.964488 -1.51979 0
    endloop
  endfacet
  facet normal 0 0 -1
    outer loop
      vertex -1.77254 -3.37764 0
      vertex -0.964488 -1.51979 0
      vertex -1.46845 -3.45572 0
    endloop
  endfacet
  facet normal 0 0 -1
    outer loop
      vertex -2.06445 -3.26207 0
      vertex -0.964488 -1.51979 0
      vertex -1.77254 -3.37764 0
    endloop
  endfacet
  facet normal -0 0 -1
    outer loop
      vertex -0.964488 -1.51979 0
      vertex -2.06445 -3.26207 0
      vertex -1.14736 -1.38692 0
    endloop
  endfacet
  facet normal 0 0 -1
    outer loop
      vertex -2.33957 -3.11082 0
      vertex -1.14736 -1.38692 0
      vertex -2.06445 -3.26207 0
    endloop
  endfacet
  facet normal 0 0 -1
    outer loop
      vertex -2.59356 -2.92628 0
      vertex -1.14736 -1.38692 0
      vertex -2.33957 -3.11082 0
    endloop
  endfacet
  facet normal -0 0 -1
    outer loop
      vertex -1.14736 -1.38692 0
      vertex -2.59356 -2.92628 0
      vertex -1.31214 -1.23218 0
    endloop
  endfacet
  facet normal 0 0 -1
    outer loop
      vertex -2.82242 -2.71137 0
      vertex -1.31214 -1.23218 0
      vertex -2.59356 -2.92628 0
    endloop
  endfacet
  facet normal 0 0 -1
    outer loop
      vertex -3.02254 -2.46946 0
      vertex -1.31214 -1.23218 0
      vertex -2.82242 -2.71137 0
    endloop
  endfacet
  facet normal -0 0 -1
    outer loop
      vertex -1.31214 -1.23218 0
      vertex -3.02254 -2.46946 0
      vertex -1.45623 -1.05801 0
    endloop
  endfacet
  facet normal 0 0 -1
    outer loop
      vertex -3.19077 -2.20438 0
      vertex -1.45623 -1.05801 0
      vertex -3.02254 -2.46946 0
    endloop
  endfacet
  facet normal -0 0 -1
    outer loop
      vertex 3.19077 2.20438 0
      vertex 1.45623 1.05801 0
      vertex 3.02254 2.46946 0
    endloop
  endfacet
  facet normal 0 0 -1
    outer loop
      vertex 1.31214 1.23218 0
      vertex 3.02254 2.46946 0
      vertex 1.45623 1.05801 0
    endloop
  endfacet
  facet normal -0 0 -1
    outer loop
      vertex 3.02254 2.46946 0
      vertex 1.31214 1.23218 0
      vertex 2.82242 2.71137 0
    endloop
  endfacet
  facet normal -0 0 -1
    outer loop
      vertex 2.82242 2.71137 0
      vertex 1.31214 1.23218 0
      vertex 2.59356 2.92628 0
    endloop
  endfacet
  facet normal 0 0 -1
    outer loop
      vertex 1.14736 1.38692 0
      vertex 2.59356 2.92628 0
      vertex 1.31214 1.23218 0
    endloop
  endfacet
  facet normal -0 0 -1
    outer loop
      vertex 2.59356 2.92628 0
      vertex 1.14736 1.38692 0
      vertex 2.33957 3.11082 0
    endloop
  endfacet
  facet normal -0 0 -1
    outer loop
      vertex 2.33957 3.11082 0
      vertex 1.14736 1.38692 0
      vertex 2.06445 3.26207 0
    endloop
  endfacet
  facet normal 0 0 -1
    outer loop
      vertex 0.964488 1.51979 0
      vertex 2.06445 3.26207 0
      vertex 1.14736 1.38692 0
    endloop
  endfacet
  facet normal -0 0 -1
    outer loop
      vertex 2.06445 3.26207 0
      vertex 0.964488 1.51979 0
      vertex 1.77254 3.37764 0
    endloop
  endfacet
  facet normal -0 0 -1
    outer loop
      vertex 1.77254 3.37764 0
      vertex 0.964488 1.51979 0
      vertex 1.46845 3.45572 0
    endloop
  endfacet
  facet normal 0 0 -1
    outer loop
      vertex 0.766402 1.62869 0
      vertex 1.46845 3.45572 0
      vertex 0.964488 1.51979 0
    endloop
  endfacet
  facet normal -0 0 -1
    outer loop
      vertex 1.46845 3.45572 0
      vertex 0.766402 1.62869 0
      vertex 1.15698 3.49507 0
    endloop
  endfacet
  facet normal 0 0 -1
    outer loop
      vertex 0.556231 1.7119 0
      vertex 1.15698 3.49507 0
      vertex 0.766402 1.62869 0
    endloop
  endfacet
  facet normal 0 0 -1
    outer loop
      vertex 0.337286 1.76812 0
      vertex 1.15698 3.49507 0
      vertex 0.556231 1.7119 0
    endloop
  endfacet
  facet normal 0 0 -1
    outer loop
      vertex 0.113023 1.79645 0
      vertex 1.15698 3.49507 0
      vertex 0.337286 1.76812 0
    endloop
  endfacet
  facet normal 0 0 -1
    outer loop
      vertex -0.113023 1.79645 0
      vertex 1.15698 3.49507 0
      vertex 0.113023 1.79645 0
    endloop
  endfacet
  facet normal 0 0 -1
    outer loop
      vertex -1.15698 3.49507 0
      vertex -0.113023 1.79645 0
      vertex -0.337286 1.76812 0
    endloop
  endfacet
  facet normal 0 0 -1
    outer loop
      vertex -1.15698 3.49507 0
      vertex -0.337286 1.76812 0
      vertex -0.556231 1.7119 0
    endloop
  endfacet
  facet normal 0 0 -1
    outer loop
      vertex -1.15698 3.49507 0
      vertex -0.556231 1.7119 0
      vertex -0.766402 1.62869 0
    endloop
  endfacet
  facet normal 0 0 -1
    outer loop
      vertex -1.46845 3.45572 0
      vertex -0.766402 1.62869 0
      vertex -0.964488 1.51979 0
    endloop
  endfacet
  facet normal 0 0 -1
    outer loop
      vertex -2.06445 3.26207 0
      vertex -0.964488 1.51979 0
      vertex -1.14736 1.38692 0
    endloop
  endfacet
  facet normal 0 0 -1
    outer loop
      vertex -0.113023 1.79645 0
      vertex -1.15698 3.49507 0
      vertex 1.15698 3.49507 0
    endloop
  endfacet
  facet normal 0 0 -1
    outer loop
      vertex -2.59356 2.92628 0
      vertex -1.14736 1.38692 0
      vertex -1.31214 1.23218 0
    endloop
  endfacet
  facet normal 0 0 -1
    outer loop
      vertex -3.02254 2.46946 0
      vertex -1.31214 1.23218 0
      vertex -1.45623 1.05801 0
    endloop
  endfacet
  facet normal 0 0 -1
    outer loop
      vertex -0.766402 1.62869 0
      vertex -1.46845 3.45572 0
      vertex -1.15698 3.49507 0
    endloop
  endfacet
  facet normal 0 0 -1
    outer loop
      vertex -3.32444 1.92031 0
      vertex -1.45623 1.05801 0
      vertex -1.57735 0.867156 0
    endloop
  endfacet
  facet normal 0 0 -1
    outer loop
      vertex -3.48029 1.31333 0
      vertex -1.57735 0.867156 0
      vertex -1.6736 0.662623 0
    endloop
  endfacet
  facet normal 0 0 -1
    outer loop
      vertex -3.5 1 0
      vertex -1.6736 0.662623 0
      vertex -1.74345 0.447641 0
    endloop
  endfacet
  facet normal 0 0 -1
    outer loop
      vertex -0.964488 1.51979 0
      vertex -1.77254 3.37764 0
      vertex -1.46845 3.45572 0
    endloop
  endfacet
  facet normal 0 0 -1
    outer loop
      vertex -3.5 1 0
      vertex -1.74345 0.447641 0
      vertex -1.78581 0.225599 0
    endloop
  endfacet
  facet normal 0 0 -1
    outer loop
      vertex -3.5 1 0
      vertex -1.78581 0.225599 0
      vertex -1.8 0 0
    endloop
  endfacet
  facet normal 0 0 -1
    outer loop
      vertex -3.32444 -1.92031 0
      vertex -1.45623 -1.05801 0
      vertex -3.19077 -2.20438 0
    endloop
  endfacet
  facet normal 0 0 -1
    outer loop
      vertex -3.5 1 0
      vertex -1.8 0 0
      vertex -3.5 -1 0
    endloop
  endfacet
  facet normal -0 0 -1
    outer loop
      vertex -1.45623 -1.05801 0
      vertex -3.32444 -1.92031 0
      vertex -1.57735 -0.867156 0
    endloop
  endfacet
  facet normal 0 0 -1
    outer loop
      vertex -1.6736 0.662623 0
      vertex -3.5 1 0
      vertex -3.48029 1.31333 0
    endloop
  endfacet
  facet normal 0 0 -1
    outer loop
      vertex -3.42146 -1.62172 0
      vertex -1.57735 -0.867156 0
      vertex -3.32444 -1.92031 0
    endloop
  endfacet
  facet normal 0 0 -1
    outer loop
      vertex -0.964488 1.51979 0
      vertex -2.06445 3.26207 0
      vertex -1.77254 3.37764 0
    endloop
  endfacet
  facet normal 0 0 -1
    outer loop
      vertex -3.48029 -1.31333 0
      vertex -1.57735 -0.867156 0
      vertex -3.42146 -1.62172 0
    endloop
  endfacet
  facet normal 0 0 -1
    outer loop
      vertex -1.14736 1.38692 0
      vertex -2.33957 3.11082 0
      vertex -2.06445 3.26207 0
    endloop
  endfacet
  facet normal -0 0 -1
    outer loop
      vertex -1.57735 -0.867156 0
      vertex -3.48029 -1.31333 0
      vertex -1.6736 -0.662623 0
    endloop
  endfacet
  facet normal 0 0 -1
    outer loop
      vertex -1.14736 1.38692 0
      vertex -2.59356 2.92628 0
      vertex -2.33957 3.11082 0
    endloop
  endfacet
  facet normal 0 0 -1
    outer loop
      vertex -3.5 -1 0
      vertex -1.6736 -0.662623 0
      vertex -3.48029 -1.31333 0
    endloop
  endfacet
  facet normal 0 0 -1
    outer loop
      vertex -1.31214 1.23218 0
      vertex -2.82242 2.71137 0
      vertex -2.59356 2.92628 0
    endloop
  endfacet
  facet normal -0 0 -1
    outer loop
      vertex -1.6736 -0.662623 0
      vertex -3.5 -1 0
      vertex -1.74345 -0.447641 0
    endloop
  endfacet
  facet normal 0 0 -1
    outer loop
      vertex -1.31214 1.23218 0
      vertex -3.02254 2.46946 0
      vertex -2.82242 2.71137 0
    endloop
  endfacet
  facet normal -0 0 -1
    outer loop
      vertex -1.74345 -0.447641 0
      vertex -3.5 -1 0
      vertex -1.78581 -0.225599 0
    endloop
  endfacet
  facet normal 0 0 -1
    outer loop
      vertex -1.45623 1.05801 0
      vertex -3.19077 2.20438 0
      vertex -3.02254 2.46946 0
    endloop
  endfacet
  facet normal -0 0 -1
    outer loop
      vertex -1.78581 -0.225599 0
      vertex -3.5 -1 0
      vertex -1.8 0 0
    endloop
  endfacet
  facet normal 0 0 -1
    outer loop
      vertex -1.45623 1.05801 0
      vertex -3.32444 1.92031 0
      vertex -3.19077 2.20438 0
    endloop
  endfacet
  facet normal 0 0 -1
    outer loop
      vertex -1.57735 0.867156 0
      vertex -3.42146 1.62172 0
      vertex -3.32444 1.92031 0
    endloop
  endfacet
  facet normal 0 0 -1
    outer loop
      vertex -1.57735 0.867156 0
      vertex -3.48029 1.31333 0
      vertex -3.42146 1.62172 0
    endloop
  endfacet
  facet normal 0.587797 -0.809009 0
    outer loop
      vertex 2.33957 -3.11082 0
      vertex 2.59356 -2.92628 3
      vertex 2.33957 -3.11082 3
    endloop
  endfacet
  facet normal 0.587797 -0.809009 0
    outer loop
      vertex 2.59356 -2.92628 3
      vertex 2.33957 -3.11082 0
      vertex 2.59356 -2.92628 0
    endloop
  endfacet
  facet normal 0.684541 -0.728975 0
    outer loop
      vertex 2.59356 -2.92628 0
      vertex 2.82242 -2.71137 3
      vertex 2.59356 -2.92628 3
    endloop
  endfacet
  facet normal 0.684541 -0.728975 0
    outer loop
      vertex 2.82242 -2.71137 3
      vertex 2.59356 -2.92628 0
      vertex 2.82242 -2.71137 0
    endloop
  endfacet
  facet normal 0.998027 -0.0627808 0
    outer loop
      vertex 3.48029 -1.31333 3
      vertex 3.5 -1 0
      vertex 3.5 -1 3
    endloop
  endfacet
  facet normal 0.998027 -0.0627808 0
    outer loop
      vertex 3.5 -1 0
      vertex 3.48029 -1.31333 3
      vertex 3.48029 -1.31333 0
    endloop
  endfacet
  facet normal -0.982286 0.187386 0
    outer loop
      vertex -3.48029 1.31333 0
      vertex -3.42146 1.62172 3
      vertex -3.42146 1.62172 0
    endloop
  endfacet
  facet normal -0.982286 0.187386 0
    outer loop
      vertex -3.42146 1.62172 3
      vertex -3.48029 1.31333 0
      vertex -3.48029 1.31333 3
    endloop
  endfacet
  facet normal -0.951054 0.309023 0
    outer loop
      vertex -3.42146 1.62172 0
      vertex -3.32444 1.92031 3
      vertex -3.32444 1.92031 0
    endloop
  endfacet
  facet normal -0.951054 0.309023 0
    outer loop
      vertex -3.32444 1.92031 3
      vertex -3.42146 1.62172 0
      vertex -3.42146 1.62172 3
    endloop
  endfacet
  facet normal -0.844321 0.535838 0
    outer loop
      vertex -3.19077 2.20438 0
      vertex -3.02254 2.46946 3
      vertex -3.02254 2.46946 0
    endloop
  endfacet
  facet normal -0.844321 0.535838 0
    outer loop
      vertex -3.02254 2.46946 3
      vertex -3.19077 2.20438 0
      vertex -3.19077 2.20438 3
    endloop
  endfacet
  facet normal -0.770522 0.637414 0
    outer loop
      vertex -3.02254 2.46946 0
      vertex -2.82242 2.71137 3
      vertex -2.82242 2.71137 0
    endloop
  endfacet
  facet normal -0.770522 0.637414 0
    outer loop
      vertex -2.82242 2.71137 3
      vertex -3.02254 2.46946 0
      vertex -3.02254 2.46946 3
    endloop
  endfacet
  facet normal -0.36811 0.929782 0
    outer loop
      vertex -1.77254 3.37764 0
      vertex -2.06445 3.26207 3
      vertex -1.77254 3.37764 3
    endloop
  endfacet
  facet normal -0.36811 0.929782 0
    outer loop
      vertex -2.06445 3.26207 3
      vertex -1.77254 3.37764 0
      vertex -2.06445 3.26207 0
    endloop
  endfacet
  facet normal 0.951054 0.309023 0
    outer loop
      vertex 3.42146 1.62172 3
      vertex 3.32444 1.92031 0
      vertex 3.32444 1.92031 3
    endloop
  endfacet
  facet normal 0.951054 0.309023 0
    outer loop
      vertex 3.32444 1.92031 0
      vertex 3.42146 1.62172 3
      vertex 3.42146 1.62172 0
    endloop
  endfacet
  facet normal -0.248699 -0.968581 0
    outer loop
      vertex -1.77254 -3.37764 0
      vertex -1.46845 -3.45572 3
      vertex -1.77254 -3.37764 3
    endloop
  endfacet
  facet normal -0.248699 -0.968581 -0
    outer loop
      vertex -1.46845 -3.45572 3
      vertex -1.77254 -3.37764 0
      vertex -1.46845 -3.45572 0
    endloop
  endfacet
  facet normal -0.587797 -0.809009 0
    outer loop
      vertex -2.59356 -2.92628 0
      vertex -2.33957 -3.11082 3
      vertex -2.59356 -2.92628 3
    endloop
  endfacet
  facet normal -0.587797 -0.809009 -0
    outer loop
      vertex -2.33957 -3.11082 3
      vertex -2.59356 -2.92628 0
      vertex -2.33957 -3.11082 0
    endloop
  endfacet
  facet normal -0.770522 -0.637414 0
    outer loop
      vertex -2.82242 -2.71137 0
      vertex -3.02254 -2.46946 3
      vertex -3.02254 -2.46946 0
    endloop
  endfacet
  facet normal -0.770522 -0.637414 0
    outer loop
      vertex -3.02254 -2.46946 3
      vertex -2.82242 -2.71137 0
      vertex -2.82242 -2.71137 3
    endloop
  endfacet
  facet normal -0.982286 -0.187386 0
    outer loop
      vertex -3.42146 -1.62172 0
      vertex -3.48029 -1.31333 3
      vertex -3.48029 -1.31333 0
    endloop
  endfacet
  facet normal -0.982286 -0.187386 0
    outer loop
      vertex -3.48029 -1.31333 3
      vertex -3.42146 -1.62172 0
      vertex -3.42146 -1.62172 3
    endloop
  endfacet
  facet normal 0.844321 -0.535838 0
    outer loop
      vertex 3.02254 -2.46946 3
      vertex 3.19077 -2.20438 0
      vertex 3.19077 -2.20438 3
    endloop
  endfacet
  facet normal 0.844321 -0.535838 0
    outer loop
      vertex 3.19077 -2.20438 0
      vertex 3.02254 -2.46946 3
      vertex 3.02254 -2.46946 0
    endloop
  endfacet
  facet normal 0.481757 -0.876305 0
    outer loop
      vertex 2.06445 -3.26207 0
      vertex 2.33957 -3.11082 3
      vertex 2.06445 -3.26207 3
    endloop
  endfacet
  facet normal 0.481757 -0.876305 0
    outer loop
      vertex 2.33957 -3.11082 3
      vertex 2.06445 -3.26207 0
      vertex 2.33957 -3.11082 0
    endloop
  endfacet
  facet normal 0.982286 -0.187386 0
    outer loop
      vertex 3.42146 -1.62172 3
      vertex 3.48029 -1.31333 0
      vertex 3.48029 -1.31333 3
    endloop
  endfacet
  facet normal 0.982286 -0.187386 0
    outer loop
      vertex 3.48029 -1.31333 0
      vertex 3.42146 -1.62172 3
      vertex 3.42146 -1.62172 0
    endloop
  endfacet
  facet normal -0.587797 0.809009 0
    outer loop
      vertex -2.33957 3.11082 0
      vertex -2.59356 2.92628 3
      vertex -2.33957 3.11082 3
    endloop
  endfacet
  facet normal -0.587797 0.809009 0
    outer loop
      vertex -2.59356 2.92628 3
      vertex -2.33957 3.11082 0
      vertex -2.59356 2.92628 0
    endloop
  endfacet
  facet normal -0.481757 0.876305 0
    outer loop
      vertex -2.06445 3.26207 0
      vertex -2.33957 3.11082 3
      vertex -2.06445 3.26207 3
    endloop
  endfacet
  facet normal -0.481757 0.876305 0
    outer loop
      vertex -2.33957 3.11082 3
      vertex -2.06445 3.26207 0
      vertex -2.33957 3.11082 0
    endloop
  endfacet
  facet normal 0.998027 0.0627808 0
    outer loop
      vertex 3.5 1 3
      vertex 3.48029 1.31333 0
      vertex 3.48029 1.31333 3
    endloop
  endfacet
  facet normal 0.998027 0.0627808 0
    outer loop
      vertex 3.48029 1.31333 0
      vertex 3.5 1 3
      vertex 3.5 1 0
    endloop
  endfacet
  facet normal 0.12534 0.992114 -0
    outer loop
      vertex 1.46845 3.45572 0
      vertex 1.15698 3.49507 3
      vertex 1.46845 3.45572 3
    endloop
  endfacet
  facet normal 0.12534 0.992114 0
    outer loop
      vertex 1.15698 3.49507 3
      vertex 1.46845 3.45572 0
      vertex 1.15698 3.49507 0
    endloop
  endfacet
  facet normal 0.248699 0.968581 -0
    outer loop
      vertex 1.77254 3.37764 0
      vertex 1.46845 3.45572 3
      vertex 1.77254 3.37764 3
    endloop
  endfacet
  facet normal 0.248699 0.968581 0
    outer loop
      vertex 1.46845 3.45572 3
      vertex 1.77254 3.37764 0
      vertex 1.46845 3.45572 0
    endloop
  endfacet
  facet normal 0.36811 0.929782 -0
    outer loop
      vertex 2.06445 3.26207 0
      vertex 1.77254 3.37764 3
      vertex 2.06445 3.26207 3
    endloop
  endfacet
  facet normal 0.36811 0.929782 0
    outer loop
      vertex 1.77254 3.37764 3
      vertex 2.06445 3.26207 0
      vertex 1.77254 3.37764 0
    endloop
  endfacet
  facet normal 0.587797 0.809009 -0
    outer loop
      vertex 2.59356 2.92628 0
      vertex 2.33957 3.11082 3
      vertex 2.59356 2.92628 3
    endloop
  endfacet
  facet normal 0.587797 0.809009 0
    outer loop
      vertex 2.33957 3.11082 3
      vertex 2.59356 2.92628 0
      vertex 2.33957 3.11082 0
    endloop
  endfacet
  facet normal 0.481757 0.876305 -0
    outer loop
      vertex 2.33957 3.11082 0
      vertex 2.06445 3.26207 3
      vertex 2.33957 3.11082 3
    endloop
  endfacet
  facet normal 0.481757 0.876305 0
    outer loop
      vertex 2.06445 3.26207 3
      vertex 2.33957 3.11082 0
      vertex 2.06445 3.26207 0
    endloop
  endfacet
  facet normal 0.982286 0.187386 0
    outer loop
      vertex 3.48029 1.31333 3
      vertex 3.42146 1.62172 0
      vertex 3.42146 1.62172 3
    endloop
  endfacet
  facet normal 0.982286 0.187386 0
    outer loop
      vertex 3.42146 1.62172 0
      vertex 3.48029 1.31333 3
      vertex 3.48029 1.31333 0
    endloop
  endfacet
  facet normal 0.770522 0.637414 0
    outer loop
      vertex 3.02254 2.46946 3
      vertex 2.82242 2.71137 0
      vertex 2.82242 2.71137 3
    endloop
  endfacet
  facet normal 0.770522 0.637414 0
    outer loop
      vertex 2.82242 2.71137 0
      vertex 3.02254 2.46946 3
      vertex 3.02254 2.46946 0
    endloop
  endfacet
  facet normal 0.844321 0.535838 0
    outer loop
      vertex 3.19077 2.20438 3
      vertex 3.02254 2.46946 0
      vertex 3.02254 2.46946 3
    endloop
  endfacet
  facet normal 0.844321 0.535838 0
    outer loop
      vertex 3.02254 2.46946 0
      vertex 3.19077 2.20438 3
      vertex 3.19077 2.20438 0
    endloop
  endfacet
  facet normal -0.998028 -0.0627752 0
    outer loop
      vertex 1.8 0 0
      vertex 1.78581 0.225599 3
      vertex 1.78581 0.225599 0
    endloop
  endfacet
  facet normal -0.998028 -0.0627752 0
    outer loop
      vertex 1.78581 0.225599 3
      vertex 1.8 0 0
      vertex 1.8 0 3
    endloop
  endfacet
  facet normal 0.998028 -0.0627752 0
    outer loop
      vertex -1.8 0 3
      vertex -1.78581 0.225599 0
      vertex -1.78581 0.225599 3
    endloop
  endfacet
  facet normal 0.998028 -0.0627752 0
    outer loop
      vertex -1.78581 0.225599 0
      vertex -1.8 0 3
      vertex -1.8 0 0
    endloop
  endfacet
  facet normal 0 -1 0
    outer loop
      vertex -0.113023 1.79645 0
      vertex 0.113023 1.79645 3
      vertex -0.113023 1.79645 3
    endloop
  endfacet
  facet normal 0 -1 -0
    outer loop
      vertex 0.113023 1.79645 3
      vertex -0.113023 1.79645 0
      vertex 0.113023 1.79645 0
    endloop
  endfacet
  facet normal 0 1 -0
    outer loop
      vertex 0.113023 -1.79645 0
      vertex -0.113023 -1.79645 3
      vertex 0.113023 -1.79645 3
    endloop
  endfacet
  facet normal 0 1 0
    outer loop
      vertex -0.113023 -1.79645 3
      vertex 0.113023 -1.79645 0
      vertex -0.113023 -1.79645 0
    endloop
  endfacet
  facet normal -0.68455 -0.728966 0
    outer loop
      vertex 1.14736 1.38692 0
      vertex 1.31214 1.23218 3
      vertex 1.14736 1.38692 3
    endloop
  endfacet
  facet normal -0.68455 -0.728966 -0
    outer loop
      vertex 1.31214 1.23218 3
      vertex 1.14736 1.38692 0
      vertex 1.31214 1.23218 0
    endloop
  endfacet
  facet normal 0.68455 -0.728966 0
    outer loop
      vertex -1.31214 1.23218 0
      vertex -1.14736 1.38692 3
      vertex -1.31214 1.23218 3
    endloop
  endfacet
  facet normal 0.68455 -0.728966 0
    outer loop
      vertex -1.14736 1.38692 3
      vertex -1.31214 1.23218 0
      vertex -1.14736 1.38692 0
    endloop
  endfacet
  facet normal 0.368115 -0.92978 0
    outer loop
      vertex -0.766402 1.62869 0
      vertex -0.556231 1.7119 3
      vertex -0.766402 1.62869 3
    endloop
  endfacet
  facet normal 0.368115 -0.92978 0
    outer loop
      vertex -0.556231 1.7119 3
      vertex -0.766402 1.62869 0
      vertex -0.556231 1.7119 0
    endloop
  endfacet
  facet normal -0.90482 -0.425794 0
    outer loop
      vertex 1.6736 0.662623 0
      vertex 1.57735 0.867156 3
      vertex 1.57735 0.867156 0
    endloop
  endfacet
  facet normal -0.90482 -0.425794 0
    outer loop
      vertex 1.57735 0.867156 3
      vertex 1.6736 0.662623 0
      vertex 1.6736 0.662623 3
    endloop
  endfacet
  facet normal -0.982285 -0.187395 0
    outer loop
      vertex 1.78581 0.225599 0
      vertex 1.74345 0.447641 3
      vertex 1.74345 0.447641 0
    endloop
  endfacet
  facet normal -0.982285 -0.187395 0
    outer loop
      vertex 1.74345 0.447641 3
      vertex 1.78581 0.225599 0
      vertex 1.78581 0.225599 3
    endloop
  endfacet
  facet normal -0.368115 -0.92978 0
    outer loop
      vertex 0.556231 1.7119 0
      vertex 0.766402 1.62869 3
      vertex 0.556231 1.7119 3
    endloop
  endfacet
  facet normal -0.368115 -0.92978 -0
    outer loop
      vertex 0.766402 1.62869 3
      vertex 0.556231 1.7119 0
      vertex 0.766402 1.62869 0
    endloop
  endfacet
  facet normal -0.248708 -0.968578 0
    outer loop
      vertex 0.337286 1.76812 0
      vertex 0.556231 1.7119 3
      vertex 0.337286 1.76812 3
    endloop
  endfacet
  facet normal -0.248708 -0.968578 -0
    outer loop
      vertex 0.556231 1.7119 3
      vertex 0.337286 1.76812 0
      vertex 0.556231 1.7119 0
    endloop
  endfacet
  facet normal -0.587802 -0.809005 0
    outer loop
      vertex 0.964488 1.51979 0
      vertex 1.14736 1.38692 3
      vertex 0.964488 1.51979 3
    endloop
  endfacet
  facet normal -0.587802 -0.809005 -0
    outer loop
      vertex 1.14736 1.38692 3
      vertex 0.964488 1.51979 0
      vertex 1.14736 1.38692 0
    endloop
  endfacet
  facet normal 0.90482 -0.425794 0
    outer loop
      vertex -1.6736 0.662623 3
      vertex -1.57735 0.867156 0
      vertex -1.57735 0.867156 3
    endloop
  endfacet
  facet normal 0.90482 -0.425794 0
    outer loop
      vertex -1.57735 0.867156 0
      vertex -1.6736 0.662623 3
      vertex -1.6736 0.662623 0
    endloop
  endfacet
  facet normal 0.844327 -0.535828 0
    outer loop
      vertex -1.57735 0.867156 3
      vertex -1.45623 1.05801 0
      vertex -1.45623 1.05801 3
    endloop
  endfacet
  facet normal 0.844327 -0.535828 0
    outer loop
      vertex -1.45623 1.05801 0
      vertex -1.57735 0.867156 3
      vertex -1.57735 0.867156 0
    endloop
  endfacet
  facet normal 0.951059 -0.309009 0
    outer loop
      vertex -1.74345 0.447641 3
      vertex -1.6736 0.662623 0
      vertex -1.6736 0.662623 3
    endloop
  endfacet
  facet normal 0.951059 -0.309009 0
    outer loop
      vertex -1.6736 0.662623 0
      vertex -1.74345 0.447641 3
      vertex -1.74345 0.447641 0
    endloop
  endfacet
  facet normal 0.587802 -0.809005 0
    outer loop
      vertex -1.14736 1.38692 0
      vertex -0.964488 1.51979 3
      vertex -1.14736 1.38692 3
    endloop
  endfacet
  facet normal 0.587802 -0.809005 0
    outer loop
      vertex -0.964488 1.51979 3
      vertex -1.14736 1.38692 0
      vertex -0.964488 1.51979 0
    endloop
  endfacet
  facet normal 0.248708 -0.968578 0
    outer loop
      vertex -0.556231 1.7119 0
      vertex -0.337286 1.76812 3
      vertex -0.556231 1.7119 3
    endloop
  endfacet
  facet normal 0.248708 -0.968578 0
    outer loop
      vertex -0.337286 1.76812 3
      vertex -0.556231 1.7119 0
      vertex -0.337286 1.76812 0
    endloop
  endfacet
  facet normal -0.951059 0.309009 0
    outer loop
      vertex 1.6736 -0.662623 0
      vertex 1.74345 -0.447641 3
      vertex 1.74345 -0.447641 0
    endloop
  endfacet
  facet normal -0.951059 0.309009 0
    outer loop
      vertex 1.74345 -0.447641 3
      vertex 1.6736 -0.662623 0
      vertex 1.6736 -0.662623 3
    endloop
  endfacet
  facet normal -0.125329 0.992115 0
    outer loop
      vertex 0.337286 -1.76812 0
      vertex 0.113023 -1.79645 3
      vertex 0.337286 -1.76812 3
    endloop
  endfacet
  facet normal -0.125329 0.992115 0
    outer loop
      vertex 0.113023 -1.79645 3
      vertex 0.337286 -1.76812 0
      vertex 0.113023 -1.79645 0
    endloop
  endfacet
  facet normal -0.951059 -0.309009 0
    outer loop
      vertex 1.74345 0.447641 0
      vertex 1.6736 0.662623 3
      vertex 1.6736 0.662623 0
    endloop
  endfacet
  facet normal -0.951059 -0.309009 0
    outer loop
      vertex 1.6736 0.662623 3
      vertex 1.74345 0.447641 0
      vertex 1.74345 0.447641 3
    endloop
  endfacet
  facet normal -0.770504 -0.637435 0
    outer loop
      vertex 1.45623 1.05801 0
      vertex 1.31214 1.23218 3
      vertex 1.31214 1.23218 0
    endloop
  endfacet
  facet normal -0.770504 -0.637435 0
    outer loop
      vertex 1.31214 1.23218 3
      vertex 1.45623 1.05801 0
      vertex 1.45623 1.05801 3
    endloop
  endfacet
  facet normal -0.844327 -0.535828 0
    outer loop
      vertex 1.57735 0.867156 0
      vertex 1.45623 1.05801 3
      vertex 1.45623 1.05801 0
    endloop
  endfacet
  facet normal -0.844327 -0.535828 0
    outer loop
      vertex 1.45623 1.05801 3
      vertex 1.57735 0.867156 0
      vertex 1.57735 0.867156 3
    endloop
  endfacet
  facet normal -0.125329 -0.992115 0
    outer loop
      vertex 0.113023 1.79645 0
      vertex 0.337286 1.76812 3
      vertex 0.113023 1.79645 3
    endloop
  endfacet
  facet normal -0.125329 -0.992115 -0
    outer loop
      vertex 0.337286 1.76812 3
      vertex 0.113023 1.79645 0
      vertex 0.337286 1.76812 0
    endloop
  endfacet
  facet normal 0.770504 -0.637435 0
    outer loop
      vertex -1.45623 1.05801 3
      vertex -1.31214 1.23218 0
      vertex -1.31214 1.23218 3
    endloop
  endfacet
  facet normal 0.770504 -0.637435 0
    outer loop
      vertex -1.31214 1.23218 0
      vertex -1.45623 1.05801 3
      vertex -1.45623 1.05801 0
    endloop
  endfacet
  facet normal 0.982285 -0.187395 0
    outer loop
      vertex -1.78581 0.225599 3
      vertex -1.74345 0.447641 0
      vertex -1.74345 0.447641 3
    endloop
  endfacet
  facet normal 0.982285 -0.187395 0
    outer loop
      vertex -1.74345 0.447641 0
      vertex -1.78581 0.225599 3
      vertex -1.78581 0.225599 0
    endloop
  endfacet
  facet normal 0.125329 -0.992115 0
    outer loop
      vertex -0.337286 1.76812 0
      vertex -0.113023 1.79645 3
      vertex -0.337286 1.76812 3
    endloop
  endfacet
  facet normal 0.125329 -0.992115 0
    outer loop
      vertex -0.113023 1.79645 3
      vertex -0.337286 1.76812 0
      vertex -0.113023 1.79645 0
    endloop
  endfacet
  facet normal -0.68455 0.728966 0
    outer loop
      vertex 1.31214 -1.23218 0
      vertex 1.14736 -1.38692 3
      vertex 1.31214 -1.23218 3
    endloop
  endfacet
  facet normal -0.68455 0.728966 0
    outer loop
      vertex 1.14736 -1.38692 3
      vertex 1.31214 -1.23218 0
      vertex 1.14736 -1.38692 0
    endloop
  endfacet
  facet normal -0.982285 0.187395 0
    outer loop
      vertex 1.74345 -0.447641 0
      vertex 1.78581 -0.225599 3
      vertex 1.78581 -0.225599 0
    endloop
  endfacet
  facet normal -0.982285 0.187395 0
    outer loop
      vertex 1.78581 -0.225599 3
      vertex 1.74345 -0.447641 0
      vertex 1.74345 -0.447641 3
    endloop
  endfacet
  facet normal -0.368115 0.92978 0
    outer loop
      vertex 0.766402 -1.62869 0
      vertex 0.556231 -1.7119 3
      vertex 0.766402 -1.62869 3
    endloop
  endfacet
  facet normal -0.368115 0.92978 0
    outer loop
      vertex 0.556231 -1.7119 3
      vertex 0.766402 -1.62869 0
      vertex 0.556231 -1.7119 0
    endloop
  endfacet
  facet normal -0.481758 -0.876304 0
    outer loop
      vertex 0.766402 1.62869 0
      vertex 0.964488 1.51979 3
      vertex 0.766402 1.62869 3
    endloop
  endfacet
  facet normal -0.481758 -0.876304 -0
    outer loop
      vertex 0.964488 1.51979 3
      vertex 0.766402 1.62869 0
      vertex 0.964488 1.51979 0
    endloop
  endfacet
  facet normal 0.481758 -0.876304 0
    outer loop
      vertex -0.964488 1.51979 0
      vertex -0.766402 1.62869 3
      vertex -0.964488 1.51979 3
    endloop
  endfacet
  facet normal 0.481758 -0.876304 0
    outer loop
      vertex -0.766402 1.62869 3
      vertex -0.964488 1.51979 0
      vertex -0.766402 1.62869 0
    endloop
  endfacet
  facet normal -0.481758 0.876304 0
    outer loop
      vertex 0.964488 -1.51979 0
      vertex 0.766402 -1.62869 3
      vertex 0.964488 -1.51979 3
    endloop
  endfacet
  facet normal -0.481758 0.876304 0
    outer loop
      vertex 0.766402 -1.62869 3
      vertex 0.964488 -1.51979 0
      vertex 0.766402 -1.62869 0
    endloop
  endfacet
  facet normal -0.90482 0.425794 0
    outer loop
      vertex 1.57735 -0.867156 0
      vertex 1.6736 -0.662623 3
      vertex 1.6736 -0.662623 0
    endloop
  endfacet
  facet normal -0.90482 0.425794 0
    outer loop
      vertex 1.6736 -0.662623 3
      vertex 1.57735 -0.867156 0
      vertex 1.57735 -0.867156 3
    endloop
  endfacet
  facet normal -0.770504 0.637435 0
    outer loop
      vertex 1.31214 -1.23218 0
      vertex 1.45623 -1.05801 3
      vertex 1.45623 -1.05801 0
    endloop
  endfacet
  facet normal -0.770504 0.637435 0
    outer loop
      vertex 1.45623 -1.05801 3
      vertex 1.31214 -1.23218 0
      vertex 1.31214 -1.23218 3
    endloop
  endfacet
  facet normal -0.998028 0.0627752 0
    outer loop
      vertex 1.78581 -0.225599 0
      vertex 1.8 0 3
      vertex 1.8 0 0
    endloop
  endfacet
  facet normal -0.998028 0.0627752 0
    outer loop
      vertex 1.8 0 3
      vertex 1.78581 -0.225599 0
      vertex 1.78581 -0.225599 3
    endloop
  endfacet
  facet normal 0.368115 0.92978 -0
    outer loop
      vertex -0.556231 -1.7119 0
      vertex -0.766402 -1.62869 3
      vertex -0.556231 -1.7119 3
    endloop
  endfacet
  facet normal 0.368115 0.92978 0
    outer loop
      vertex -0.766402 -1.62869 3
      vertex -0.556231 -1.7119 0
      vertex -0.766402 -1.62869 0
    endloop
  endfacet
  facet normal 0.248708 0.968578 -0
    outer loop
      vertex -0.337286 -1.76812 0
      vertex -0.556231 -1.7119 3
      vertex -0.337286 -1.76812 3
    endloop
  endfacet
  facet normal 0.248708 0.968578 0
    outer loop
      vertex -0.556231 -1.7119 3
      vertex -0.337286 -1.76812 0
      vertex -0.556231 -1.7119 0
    endloop
  endfacet
  facet normal 0.770504 0.637435 0
    outer loop
      vertex -1.31214 -1.23218 3
      vertex -1.45623 -1.05801 0
      vertex -1.45623 -1.05801 3
    endloop
  endfacet
  facet normal 0.770504 0.637435 0
    outer loop
      vertex -1.45623 -1.05801 0
      vertex -1.31214 -1.23218 3
      vertex -1.31214 -1.23218 0
    endloop
  endfacet
  facet normal 0.951059 0.309009 0
    outer loop
      vertex -1.6736 -0.662623 3
      vertex -1.74345 -0.447641 0
      vertex -1.74345 -0.447641 3
    endloop
  endfacet
  facet normal 0.951059 0.309009 0
    outer loop
      vertex -1.74345 -0.447641 0
      vertex -1.6736 -0.662623 3
      vertex -1.6736 -0.662623 0
    endloop
  endfacet
  facet normal -0.248708 0.968578 0
    outer loop
      vertex 0.556231 -1.7119 0
      vertex 0.337286 -1.76812 3
      vertex 0.556231 -1.7119 3
    endloop
  endfacet
  facet normal -0.248708 0.968578 0
    outer loop
      vertex 0.337286 -1.76812 3
      vertex 0.556231 -1.7119 0
      vertex 0.337286 -1.76812 0
    endloop
  endfacet
  facet normal -0.587802 0.809005 0
    outer loop
      vertex 1.14736 -1.38692 0
      vertex 0.964488 -1.51979 3
      vertex 1.14736 -1.38692 3
    endloop
  endfacet
  facet normal -0.587802 0.809005 0
    outer loop
      vertex 0.964488 -1.51979 3
      vertex 1.14736 -1.38692 0
      vertex 0.964488 -1.51979 0
    endloop
  endfacet
  facet normal -0.844327 0.535828 0
    outer loop
      vertex 1.45623 -1.05801 0
      vertex 1.57735 -0.867156 3
      vertex 1.57735 -0.867156 0
    endloop
  endfacet
  facet normal -0.844327 0.535828 0
    outer loop
      vertex 1.57735 -0.867156 3
      vertex 1.45623 -1.05801 0
      vertex 1.45623 -1.05801 3
    endloop
  endfacet
  facet normal 0.125329 0.992115 -0
    outer loop
      vertex -0.113023 -1.79645 0
      vertex -0.337286 -1.76812 3
      vertex -0.113023 -1.79645 3
    endloop
  endfacet
  facet normal 0.125329 0.992115 0
    outer loop
      vertex -0.337286 -1.76812 3
      vertex -0.113023 -1.79645 0
      vertex -0.337286 -1.76812 0
    endloop
  endfacet
  facet normal 0.587802 0.809005 -0
    outer loop
      vertex -0.964488 -1.51979 0
      vertex -1.14736 -1.38692 3
      vertex -0.964488 -1.51979 3
    endloop
  endfacet
  facet normal 0.587802 0.809005 0
    outer loop
      vertex -1.14736 -1.38692 3
      vertex -0.964488 -1.51979 0
      vertex -1.14736 -1.38692 0
    endloop
  endfacet
  facet normal 0.68455 0.728966 -0
    outer loop
      vertex -1.14736 -1.38692 0
      vertex -1.31214 -1.23218 3
      vertex -1.14736 -1.38692 3
    endloop
  endfacet
  facet normal 0.68455 0.728966 0
    outer loop
      vertex -1.31214 -1.23218 3
      vertex -1.14736 -1.38692 0
      vertex -1.31214 -1.23218 0
    endloop
  endfacet
  facet normal 0.982285 0.187395 0
    outer loop
      vertex -1.74345 -0.447641 3
      vertex -1.78581 -0.225599 0
      vertex -1.78581 -0.225599 3
    endloop
  endfacet
  facet normal 0.982285 0.187395 0
    outer loop
      vertex -1.78581 -0.225599 0
      vertex -1.74345 -0.447641 3
      vertex -1.74345 -0.447641 0
    endloop
  endfacet
  facet normal 0.998028 0.0627752 0
    outer loop
      vertex -1.78581 -0.225599 3
      vertex -1.8 0 0
      vertex -1.8 0 3
    endloop
  endfacet
  facet normal 0.998028 0.0627752 0
    outer loop
      vertex -1.8 0 0
      vertex -1.78581 -0.225599 3
      vertex -1.78581 -0.225599 0
    endloop
  endfacet
  facet normal 0.481758 0.876304 -0
    outer loop
      vertex -0.766402 -1.62869 0
      vertex -0.964488 -1.51979 3
      vertex -0.766402 -1.62869 3
    endloop
  endfacet
  facet normal 0.481758 0.876304 0
    outer loop
      vertex -0.964488 -1.51979 3
      vertex -0.766402 -1.62869 0
      vertex -0.964488 -1.51979 0
    endloop
  endfacet
  facet normal 0.844327 0.535828 0
    outer loop
      vertex -1.45623 -1.05801 3
      vertex -1.57735 -0.867156 0
      vertex -1.57735 -0.867156 3
    endloop
  endfacet
  facet normal 0.844327 0.535828 0
    outer loop
      vertex -1.57735 -0.867156 0
      vertex -1.45623 -1.05801 3
      vertex -1.45623 -1.05801 0
    endloop
  endfacet
  facet normal 0.90482 0.425794 0
    outer loop
      vertex -1.57735 -0.867156 3
      vertex -1.6736 -0.662623 0
      vertex -1.6736 -0.662623 3
    endloop
  endfacet
  facet normal 0.90482 0.425794 0
    outer loop
      vertex -1.6736 -0.662623 0
      vertex -1.57735 -0.867156 3
      vertex -1.57735 -0.867156 0
    endloop
  endfacet
endsolid OpenSCAD_Model
