<?xml version="1.0" standalone="no"?>
<!DOCTYPE svg PUBLIC "-//W3C//DTD SVG 1.1//EN" "http://www.w3.org/Graphics/SVG/1.1/DTD/svg11.dtd">
<svg width="68mm" height="68mm" viewBox="-34 -34 68 68" xmlns="http://www.w3.org/2000/svg" version="1.1">
<title>OpenSCAD Model</title>
<path d="
M 31.4684,33.4557 L 31.7725,33.3776 L 32.0644,33.2621 L 32.3396,33.1108 L 32.5936,32.9263 L 32.8224,32.7114
 L 33.0225,32.4695 L 33.1908,32.2044 L 33.3244,31.9203 L 33.4214,31.6217 L 33.4803,31.3133 L 33.5,31
 L 33.5,-31 L 33.4803,-31.3133 L 33.4214,-31.6217 L 33.3244,-31.9203 L 33.1908,-32.2044 L 33.0225,-32.4695
 L 32.8224,-32.7114 L 32.5936,-32.9263 L 32.3396,-33.1108 L 32.0644,-33.2621 L 31.7725,-33.3776 L 31.4684,-33.4557
 L 31.157,-33.4951 L -31.157,-33.4951 L -31.4684,-33.4557 L -31.7725,-33.3776 L -32.0644,-33.2621 L -32.3396,-33.1108
 L -32.5936,-32.9263 L -32.8224,-32.7114 L -33.0225,-32.4695 L -33.1908,-32.2044 L -33.3244,-31.9203 L -33.4214,-31.6217
 L -33.4803,-31.3133 L -33.5,-31 L -33.5,31 L -33.4803,31.3133 L -33.4214,31.6217 L -33.3244,31.9203
 L -33.1908,32.2044 L -33.0225,32.4695 L -32.8224,32.7114 L -32.5936,32.9263 L -32.3396,33.1108 L -32.0644,33.2621
 L -31.7725,33.3776 L -31.4684,33.4557 L -31.157,33.4951 L 31.157,33.4951 z
M -15.0942,-28.503 L -15.2811,-28.5266 L -15.4635,-28.5734 L -15.6387,-28.6427 L -15.8037,-28.7335 L -15.9561,-28.8442
 L -16.0934,-28.9732 L -16.2135,-29.1183 L -16.3145,-29.2774 L -16.3947,-29.4478 L -16.4529,-29.627 L -16.4882,-29.812
 L -16.5,-30 L -16.4882,-30.188 L -16.4529,-30.373 L -16.3947,-30.5522 L -16.3145,-30.7226 L -16.2135,-30.8817
 L -16.0934,-31.0268 L -15.9561,-31.1558 L -15.8037,-31.2665 L -15.6387,-31.3572 L -15.4635,-31.4266 L -15.2811,-31.4734
 L -15.0942,-31.497 L -14.9058,-31.497 L -14.7189,-31.4734 L -14.5365,-31.4266 L -14.3613,-31.3572 L -14.1963,-31.2665
 L -14.0439,-31.1558 L -13.9065,-31.0268 L -13.7865,-30.8817 L -13.6855,-30.7226 L -13.6053,-30.5522 L -13.5471,-30.373
 L -13.5118,-30.188 L -13.5,-30 L -13.5118,-29.812 L -13.5471,-29.627 L -13.6053,-29.4478 L -13.6855,-29.2774
 L -13.7865,-29.1183 L -13.9065,-28.9732 L -14.0439,-28.8442 L -14.1963,-28.7335 L -14.3613,-28.6427 L -14.5365,-28.5734
 L -14.7189,-28.5266 L -14.9058,-28.503 z
M -7.59418,-28.503 L -7.78107,-28.5266 L -7.96352,-28.5734 L -8.13866,-28.6427 L -8.30373,-28.7335 L -8.45613,-28.8442
 L -8.59344,-28.9732 L -8.71352,-29.1183 L -8.81445,-29.2774 L -8.89465,-29.4478 L -8.95287,-29.627 L -8.98816,-29.812
 L -9,-30 L -8.98816,-30.188 L -8.95287,-30.373 L -8.89465,-30.5522 L -8.81445,-30.7226 L -8.71352,-30.8817
 L -8.59344,-31.0268 L -8.45613,-31.1558 L -8.30373,-31.2665 L -8.13866,-31.3572 L -7.96352,-31.4266 L -7.78107,-31.4734
 L -7.59418,-31.497 L -7.40581,-31.497 L -7.21892,-31.4734 L -7.03647,-31.4266 L -6.86133,-31.3572 L -6.69626,-31.2665
 L -6.54385,-31.1558 L -6.40654,-31.0268 L -6.28647,-30.8817 L -6.18553,-30.7226 L -6.10533,-30.5522 L -6.04712,-30.373
 L -6.01183,-30.188 L -6,-30 L -6.01183,-29.812 L -6.04712,-29.627 L -6.10533,-29.4478 L -6.18553,-29.2774
 L -6.28647,-29.1183 L -6.40654,-28.9732 L -6.54385,-28.8442 L -6.69626,-28.7335 L -6.86133,-28.6427 L -7.03647,-28.5734
 L -7.21892,-28.5266 L -7.40581,-28.503 z
M -0.0941772,-28.503 L -0.281067,-28.5266 L -0.463516,-28.5734 L -0.638657,-28.6427 L -0.803726,-28.7335 L -0.956131,-28.8442
 L -1.09344,-28.9732 L -1.21352,-29.1183 L -1.31445,-29.2774 L -1.39465,-29.4478 L -1.45287,-29.627 L -1.48816,-29.812
 L -1.5,-30 L -1.48816,-30.188 L -1.45287,-30.373 L -1.39465,-30.5522 L -1.31445,-30.7226 L -1.21352,-30.8817
 L -1.09344,-31.0268 L -0.956131,-31.1558 L -0.803726,-31.2665 L -0.638657,-31.3572 L -0.463516,-31.4266 L -0.281067,-31.4734
 L -0.0941772,-31.497 L 0.0941772,-31.497 L 0.281067,-31.4734 L 0.463516,-31.4266 L 0.638657,-31.3572 L 0.803726,-31.2665
 L 0.956131,-31.1558 L 1.09344,-31.0268 L 1.21352,-30.8817 L 1.31445,-30.7226 L 1.39465,-30.5522 L 1.45287,-30.373
 L 1.48816,-30.188 L 1.5,-30 L 1.48816,-29.812 L 1.45287,-29.627 L 1.39465,-29.4478 L 1.31445,-29.2774
 L 1.21352,-29.1183 L 1.09344,-28.9732 L 0.956131,-28.8442 L 0.803726,-28.7335 L 0.638657,-28.6427 L 0.463516,-28.5734
 L 0.281067,-28.5266 L 0.0941772,-28.503 z
M -30.0942,-28.503 L -30.2811,-28.5266 L -30.4635,-28.5734 L -30.6387,-28.6427 L -30.8037,-28.7335 L -30.9561,-28.8442
 L -31.0934,-28.9732 L -31.2135,-29.1183 L -31.3145,-29.2774 L -31.3947,-29.4478 L -31.4529,-29.627 L -31.4882,-29.812
 L -31.5,-30 L -31.4882,-30.188 L -31.4529,-30.373 L -31.3947,-30.5522 L -31.3145,-30.7226 L -31.2135,-30.8817
 L -31.0934,-31.0268 L -30.9561,-31.1558 L -30.8037,-31.2665 L -30.6387,-31.3572 L -30.4635,-31.4266 L -30.2811,-31.4734
 L -30.0942,-31.497 L -29.9058,-31.497 L -29.7189,-31.4734 L -29.5365,-31.4266 L -29.3613,-31.3572 L -29.1963,-31.2665
 L -29.0439,-31.1558 L -28.9065,-31.0268 L -28.7865,-30.8817 L -28.6855,-30.7226 L -28.6053,-30.5522 L -28.5471,-30.373
 L -28.5118,-30.188 L -28.5,-30 L -28.5118,-29.812 L -28.5471,-29.627 L -28.6053,-29.4478 L -28.6855,-29.2774
 L -28.7865,-29.1183 L -28.9065,-28.9732 L -29.0439,-28.8442 L -29.1963,-28.7335 L -29.3613,-28.6427 L -29.5365,-28.5734
 L -29.7189,-28.5266 L -29.9058,-28.503 z
M 7.40581,-28.503 L 7.21892,-28.5266 L 7.03647,-28.5734 L 6.86133,-28.6427 L 6.69626,-28.7335 L 6.54385,-28.8442
 L 6.40654,-28.9732 L 6.28647,-29.1183 L 6.18553,-29.2774 L 6.10533,-29.4478 L 6.04712,-29.627 L 6.01183,-29.812
 L 6,-30 L 6.01183,-30.188 L 6.04712,-30.373 L 6.10533,-30.5522 L 6.18553,-30.7226 L 6.28647,-30.8817
 L 6.40654,-31.0268 L 6.54385,-31.1558 L 6.69626,-31.2665 L 6.86133,-31.3572 L 7.03647,-31.4266 L 7.21892,-31.4734
 L 7.40581,-31.497 L 7.59418,-31.497 L 7.78107,-31.4734 L 7.96352,-31.4266 L 8.13866,-31.3572 L 8.30373,-31.2665
 L 8.45613,-31.1558 L 8.59344,-31.0268 L 8.71352,-30.8817 L 8.81445,-30.7226 L 8.89465,-30.5522 L 8.95287,-30.373
 L 8.98816,-30.188 L 9,-30 L 8.98816,-29.812 L 8.95287,-29.627 L 8.89465,-29.4478 L 8.81445,-29.2774
 L 8.71352,-29.1183 L 8.59344,-28.9732 L 8.45613,-28.8442 L 8.30373,-28.7335 L 8.13866,-28.6427 L 7.96352,-28.5734
 L 7.78107,-28.5266 L 7.59418,-28.503 z
M 14.9058,-28.503 L 14.7189,-28.5266 L 14.5365,-28.5734 L 14.3613,-28.6427 L 14.1963,-28.7335 L 14.0439,-28.8442
 L 13.9065,-28.9732 L 13.7865,-29.1183 L 13.6855,-29.2774 L 13.6053,-29.4478 L 13.5471,-29.627 L 13.5118,-29.812
 L 13.5,-30 L 13.5118,-30.188 L 13.5471,-30.373 L 13.6053,-30.5522 L 13.6855,-30.7226 L 13.7865,-30.8817
 L 13.9065,-31.0268 L 14.0439,-31.1558 L 14.1963,-31.2665 L 14.3613,-31.3572 L 14.5365,-31.4266 L 14.7189,-31.4734
 L 14.9058,-31.497 L 15.0942,-31.497 L 15.2811,-31.4734 L 15.4635,-31.4266 L 15.6387,-31.3572 L 15.8037,-31.2665
 L 15.9561,-31.1558 L 16.0934,-31.0268 L 16.2135,-30.8817 L 16.3145,-30.7226 L 16.3947,-30.5522 L 16.4529,-30.373
 L 16.4882,-30.188 L 16.5,-30 L 16.4882,-29.812 L 16.4529,-29.627 L 16.3947,-29.4478 L 16.3145,-29.2774
 L 16.2135,-29.1183 L 16.0934,-28.9732 L 15.9561,-28.8442 L 15.8037,-28.7335 L 15.6387,-28.6427 L 15.4635,-28.5734
 L 15.2811,-28.5266 L 15.0942,-28.503 z
M 22.4058,-28.503 L 22.2189,-28.5266 L 22.0365,-28.5734 L 21.8613,-28.6427 L 21.6963,-28.7335 L 21.5439,-28.8442
 L 21.4065,-28.9732 L 21.2865,-29.1183 L 21.1855,-29.2774 L 21.1053,-29.4478 L 21.0471,-29.627 L 21.0118,-29.812
 L 21,-30 L 21.0118,-30.188 L 21.0471,-30.373 L 21.1053,-30.5522 L 21.1855,-30.7226 L 21.2865,-30.8817
 L 21.4065,-31.0268 L 21.5439,-31.1558 L 21.6963,-31.2665 L 21.8613,-31.3572 L 22.0365,-31.4266 L 22.2189,-31.4734
 L 22.4058,-31.497 L 22.5942,-31.497 L 22.7811,-31.4734 L 22.9635,-31.4266 L 23.1387,-31.3572 L 23.3037,-31.2665
 L 23.4561,-31.1558 L 23.5934,-31.0268 L 23.7135,-30.8817 L 23.8145,-30.7226 L 23.8947,-30.5522 L 23.9529,-30.373
 L 23.9882,-30.188 L 24,-30 L 23.9882,-29.812 L 23.9529,-29.627 L 23.8947,-29.4478 L 23.8145,-29.2774
 L 23.7135,-29.1183 L 23.5934,-28.9732 L 23.4561,-28.8442 L 23.3037,-28.7335 L 23.1387,-28.6427 L 22.9635,-28.5734
 L 22.7811,-28.5266 L 22.5942,-28.503 z
M -22.5942,-28.503 L -22.7811,-28.5266 L -22.9635,-28.5734 L -23.1387,-28.6427 L -23.3037,-28.7335 L -23.4561,-28.8442
 L -23.5934,-28.9732 L -23.7135,-29.1183 L -23.8145,-29.2774 L -23.8947,-29.4478 L -23.9529,-29.627 L -23.9882,-29.812
 L -24,-30 L -23.9882,-30.188 L -23.9529,-30.373 L -23.8947,-30.5522 L -23.8145,-30.7226 L -23.7135,-30.8817
 L -23.5934,-31.0268 L -23.4561,-31.1558 L -23.3037,-31.2665 L -23.1387,-31.3572 L -22.9635,-31.4266 L -22.7811,-31.4734
 L -22.5942,-31.497 L -22.4058,-31.497 L -22.2189,-31.4734 L -22.0365,-31.4266 L -21.8613,-31.3572 L -21.6963,-31.2665
 L -21.5439,-31.1558 L -21.4065,-31.0268 L -21.2865,-30.8817 L -21.1855,-30.7226 L -21.1053,-30.5522 L -21.0471,-30.373
 L -21.0118,-30.188 L -21,-30 L -21.0118,-29.812 L -21.0471,-29.627 L -21.1053,-29.4478 L -21.1855,-29.2774
 L -21.2865,-29.1183 L -21.4065,-28.9732 L -21.5439,-28.8442 L -21.6963,-28.7335 L -21.8613,-28.6427 L -22.0365,-28.5734
 L -22.2189,-28.5266 L -22.4058,-28.503 z
M 29.9058,-28.503 L 29.7189,-28.5266 L 29.5365,-28.5734 L 29.3613,-28.6427 L 29.1963,-28.7335 L 29.0439,-28.8442
 L 28.9065,-28.9732 L 28.7865,-29.1183 L 28.6855,-29.2774 L 28.6053,-29.4478 L 28.5471,-29.627 L 28.5118,-29.812
 L 28.5,-30 L 28.5118,-30.188 L 28.5471,-30.373 L 28.6053,-30.5522 L 28.6855,-30.7226 L 28.7865,-30.8817
 L 28.9065,-31.0268 L 29.0439,-31.1558 L 29.1963,-31.2665 L 29.3613,-31.3572 L 29.5365,-31.4266 L 29.7189,-31.4734
 L 29.9058,-31.497 L 30.0942,-31.497 L 30.2811,-31.4734 L 30.4635,-31.4266 L 30.6387,-31.3572 L 30.8037,-31.2665
 L 30.9561,-31.1558 L 31.0934,-31.0268 L 31.2135,-30.8817 L 31.3145,-30.7226 L 31.3947,-30.5522 L 31.4529,-30.373
 L 31.4882,-30.188 L 31.5,-30 L 31.4882,-29.812 L 31.4529,-29.627 L 31.3947,-29.4478 L 31.3145,-29.2774
 L 31.2135,-29.1183 L 31.0934,-28.9732 L 30.9561,-28.8442 L 30.8037,-28.7335 L 30.6387,-28.6427 L 30.4635,-28.5734
 L 30.2811,-28.5266 L 30.0942,-28.503 z
M -0.0941772,-21.003 L -0.281067,-21.0266 L -0.463516,-21.0734 L -0.638657,-21.1427 L -0.803726,-21.2335 L -0.956131,-21.3442
 L -1.09344,-21.4732 L -1.21352,-21.6183 L -1.31445,-21.7774 L -1.39465,-21.9478 L -1.45287,-22.127 L -1.48816,-22.312
 L -1.5,-22.5 L -1.48816,-22.688 L -1.45287,-22.873 L -1.39465,-23.0522 L -1.31445,-23.2226 L -1.21352,-23.3817
 L -1.09344,-23.5268 L -0.956131,-23.6558 L -0.803726,-23.7665 L -0.638657,-23.8572 L -0.463516,-23.9266 L -0.281067,-23.9734
 L -0.0941772,-23.997 L 0.0941772,-23.997 L 0.281067,-23.9734 L 0.463516,-23.9266 L 0.638657,-23.8572 L 0.803726,-23.7665
 L 0.956131,-23.6558 L 1.09344,-23.5268 L 1.21352,-23.3817 L 1.31445,-23.2226 L 1.39465,-23.0522 L 1.45287,-22.873
 L 1.48816,-22.688 L 1.5,-22.5 L 1.48816,-22.312 L 1.45287,-22.127 L 1.39465,-21.9478 L 1.31445,-21.7774
 L 1.21352,-21.6183 L 1.09344,-21.4732 L 0.956131,-21.3442 L 0.803726,-21.2335 L 0.638657,-21.1427 L 0.463516,-21.0734
 L 0.281067,-21.0266 L 0.0941772,-21.003 z
M 7.40581,-21.003 L 7.21892,-21.0266 L 7.03647,-21.0734 L 6.86133,-21.1427 L 6.69626,-21.2335 L 6.54385,-21.3442
 L 6.40654,-21.4732 L 6.28647,-21.6183 L 6.18553,-21.7774 L 6.10533,-21.9478 L 6.04712,-22.127 L 6.01183,-22.312
 L 6,-22.5 L 6.01183,-22.688 L 6.04712,-22.873 L 6.10533,-23.0522 L 6.18553,-23.2226 L 6.28647,-23.3817
 L 6.40654,-23.5268 L 6.54385,-23.6558 L 6.69626,-23.7665 L 6.86133,-23.8572 L 7.03647,-23.9266 L 7.21892,-23.9734
 L 7.40581,-23.997 L 7.59418,-23.997 L 7.78107,-23.9734 L 7.96352,-23.9266 L 8.13866,-23.8572 L 8.30373,-23.7665
 L 8.45613,-23.6558 L 8.59344,-23.5268 L 8.71352,-23.3817 L 8.81445,-23.2226 L 8.89465,-23.0522 L 8.95287,-22.873
 L 8.98816,-22.688 L 9,-22.5 L 8.98816,-22.312 L 8.95287,-22.127 L 8.89465,-21.9478 L 8.81445,-21.7774
 L 8.71352,-21.6183 L 8.59344,-21.4732 L 8.45613,-21.3442 L 8.30373,-21.2335 L 8.13866,-21.1427 L 7.96352,-21.0734
 L 7.78107,-21.0266 L 7.59418,-21.003 z
M 14.9058,-21.003 L 14.7189,-21.0266 L 14.5365,-21.0734 L 14.3613,-21.1427 L 14.1963,-21.2335 L 14.0439,-21.3442
 L 13.9065,-21.4732 L 13.7865,-21.6183 L 13.6855,-21.7774 L 13.6053,-21.9478 L 13.5471,-22.127 L 13.5118,-22.312
 L 13.5,-22.5 L 13.5118,-22.688 L 13.5471,-22.873 L 13.6053,-23.0522 L 13.6855,-23.2226 L 13.7865,-23.3817
 L 13.9065,-23.5268 L 14.0439,-23.6558 L 14.1963,-23.7665 L 14.3613,-23.8572 L 14.5365,-23.9266 L 14.7189,-23.9734
 L 14.9058,-23.997 L 15.0942,-23.997 L 15.2811,-23.9734 L 15.4635,-23.9266 L 15.6387,-23.8572 L 15.8037,-23.7665
 L 15.9561,-23.6558 L 16.0934,-23.5268 L 16.2135,-23.3817 L 16.3145,-23.2226 L 16.3947,-23.0522 L 16.4529,-22.873
 L 16.4882,-22.688 L 16.5,-22.5 L 16.4882,-22.312 L 16.4529,-22.127 L 16.3947,-21.9478 L 16.3145,-21.7774
 L 16.2135,-21.6183 L 16.0934,-21.4732 L 15.9561,-21.3442 L 15.8037,-21.2335 L 15.6387,-21.1427 L 15.4635,-21.0734
 L 15.2811,-21.0266 L 15.0942,-21.003 z
M -15.0942,-21.003 L -15.2811,-21.0266 L -15.4635,-21.0734 L -15.6387,-21.1427 L -15.8037,-21.2335 L -15.9561,-21.3442
 L -16.0934,-21.4732 L -16.2135,-21.6183 L -16.3145,-21.7774 L -16.3947,-21.9478 L -16.4529,-22.127 L -16.4882,-22.312
 L -16.5,-22.5 L -16.4882,-22.688 L -16.4529,-22.873 L -16.3947,-23.0522 L -16.3145,-23.2226 L -16.2135,-23.3817
 L -16.0934,-23.5268 L -15.9561,-23.6558 L -15.8037,-23.7665 L -15.6387,-23.8572 L -15.4635,-23.9266 L -15.2811,-23.9734
 L -15.0942,-23.997 L -14.9058,-23.997 L -14.7189,-23.9734 L -14.5365,-23.9266 L -14.3613,-23.8572 L -14.1963,-23.7665
 L -14.0439,-23.6558 L -13.9065,-23.5268 L -13.7865,-23.3817 L -13.6855,-23.2226 L -13.6053,-23.0522 L -13.5471,-22.873
 L -13.5118,-22.688 L -13.5,-22.5 L -13.5118,-22.312 L -13.5471,-22.127 L -13.6053,-21.9478 L -13.6855,-21.7774
 L -13.7865,-21.6183 L -13.9065,-21.4732 L -14.0439,-21.3442 L -14.1963,-21.2335 L -14.3613,-21.1427 L -14.5365,-21.0734
 L -14.7189,-21.0266 L -14.9058,-21.003 z
M 29.9058,-21.003 L 29.7189,-21.0266 L 29.5365,-21.0734 L 29.3613,-21.1427 L 29.1963,-21.2335 L 29.0439,-21.3442
 L 28.9065,-21.4732 L 28.7865,-21.6183 L 28.6855,-21.7774 L 28.6053,-21.9478 L 28.5471,-22.127 L 28.5118,-22.312
 L 28.5,-22.5 L 28.5118,-22.688 L 28.5471,-22.873 L 28.6053,-23.0522 L 28.6855,-23.2226 L 28.7865,-23.3817
 L 28.9065,-23.5268 L 29.0439,-23.6558 L 29.1963,-23.7665 L 29.3613,-23.8572 L 29.5365,-23.9266 L 29.7189,-23.9734
 L 29.9058,-23.997 L 30.0942,-23.997 L 30.2811,-23.9734 L 30.4635,-23.9266 L 30.6387,-23.8572 L 30.8037,-23.7665
 L 30.9561,-23.6558 L 31.0934,-23.5268 L 31.2135,-23.3817 L 31.3145,-23.2226 L 31.3947,-23.0522 L 31.4529,-22.873
 L 31.4882,-22.688 L 31.5,-22.5 L 31.4882,-22.312 L 31.4529,-22.127 L 31.3947,-21.9478 L 31.3145,-21.7774
 L 31.2135,-21.6183 L 31.0934,-21.4732 L 30.9561,-21.3442 L 30.8037,-21.2335 L 30.6387,-21.1427 L 30.4635,-21.0734
 L 30.2811,-21.0266 L 30.0942,-21.003 z
M -7.59418,-21.003 L -7.78107,-21.0266 L -7.96352,-21.0734 L -8.13866,-21.1427 L -8.30373,-21.2335 L -8.45613,-21.3442
 L -8.59344,-21.4732 L -8.71352,-21.6183 L -8.81445,-21.7774 L -8.89465,-21.9478 L -8.95287,-22.127 L -8.98816,-22.312
 L -9,-22.5 L -8.98816,-22.688 L -8.95287,-22.873 L -8.89465,-23.0522 L -8.81445,-23.2226 L -8.71352,-23.3817
 L -8.59344,-23.5268 L -8.45613,-23.6558 L -8.30373,-23.7665 L -8.13866,-23.8572 L -7.96352,-23.9266 L -7.78107,-23.9734
 L -7.59418,-23.997 L -7.40581,-23.997 L -7.21892,-23.9734 L -7.03647,-23.9266 L -6.86133,-23.8572 L -6.69626,-23.7665
 L -6.54385,-23.6558 L -6.40654,-23.5268 L -6.28647,-23.3817 L -6.18553,-23.2226 L -6.10533,-23.0522 L -6.04712,-22.873
 L -6.01183,-22.688 L -6,-22.5 L -6.01183,-22.312 L -6.04712,-22.127 L -6.10533,-21.9478 L -6.18553,-21.7774
 L -6.28647,-21.6183 L -6.40654,-21.4732 L -6.54385,-21.3442 L -6.69626,-21.2335 L -6.86133,-21.1427 L -7.03647,-21.0734
 L -7.21892,-21.0266 L -7.40581,-21.003 z
M 22.4058,-21.003 L 22.2189,-21.0266 L 22.0365,-21.0734 L 21.8613,-21.1427 L 21.6963,-21.2335 L 21.5439,-21.3442
 L 21.4065,-21.4732 L 21.2865,-21.6183 L 21.1855,-21.7774 L 21.1053,-21.9478 L 21.0471,-22.127 L 21.0118,-22.312
 L 21,-22.5 L 21.0118,-22.688 L 21.0471,-22.873 L 21.1053,-23.0522 L 21.1855,-23.2226 L 21.2865,-23.3817
 L 21.4065,-23.5268 L 21.5439,-23.6558 L 21.6963,-23.7665 L 21.8613,-23.8572 L 22.0365,-23.9266 L 22.2189,-23.9734
 L 22.4058,-23.997 L 22.5942,-23.997 L 22.7811,-23.9734 L 22.9635,-23.9266 L 23.1387,-23.8572 L 23.3037,-23.7665
 L 23.4561,-23.6558 L 23.5934,-23.5268 L 23.7135,-23.3817 L 23.8145,-23.2226 L 23.8947,-23.0522 L 23.9529,-22.873
 L 23.9882,-22.688 L 24,-22.5 L 23.9882,-22.312 L 23.9529,-22.127 L 23.8947,-21.9478 L 23.8145,-21.7774
 L 23.7135,-21.6183 L 23.5934,-21.4732 L 23.4561,-21.3442 L 23.3037,-21.2335 L 23.1387,-21.1427 L 22.9635,-21.0734
 L 22.7811,-21.0266 L 22.5942,-21.003 z
M -23.8145,-21.7774 L -23.8947,-21.9478 L -23.9529,-22.127 L -23.9882,-22.312 L -24,-22.5 L -23.9882,-22.688
 L -23.9529,-22.873 L -23.8947,-23.0522 L -23.8145,-23.2226 L -23.7135,-23.3817 L -23.5934,-23.5268 L -23.4561,-23.6558
 L -23.3037,-23.7665 L -23.1387,-23.8572 L -22.9635,-23.9266 L -22.7811,-23.9734 L -22.5942,-23.997 L -22.4058,-23.997
 L -22.2189,-23.9734 L -22.0365,-23.9266 L -21.8613,-23.8572 L -21.6963,-23.7665 L -21.5439,-23.6558 L -21.4065,-23.5268
 L -21.2865,-23.3817 L -21.1855,-23.2226 L -21.1053,-23.0522 L -21.0471,-22.873 L -21.0118,-22.688 L -21,-22.5
 L -21.0118,-22.312 L -21.0471,-22.127 L -21.1053,-21.9478 L -21.1855,-21.7774 L -21.2865,-21.6183 L -21.4065,-21.4732
 L -21.5439,-21.3442 L -21.6963,-21.2335 L -21.8613,-21.1427 L -22.0365,-21.0734 L -22.2189,-21.0266 L -22.4058,-21.003
 L -22.5942,-21.003 L -22.7811,-21.0266 L -22.9635,-21.0734 L -23.1387,-21.1427 L -23.3037,-21.2335 L -23.4561,-21.3442
 L -23.5934,-21.4732 L -23.7135,-21.6183 z
M -30.0942,-13.5029 L -30.2811,-13.5266 L -30.4635,-13.5734 L -30.6387,-13.6427 L -30.8037,-13.7335 L -30.9561,-13.8442
 L -31.0934,-13.9732 L -31.2135,-14.1183 L -31.3145,-14.2774 L -31.3947,-14.4478 L -31.4529,-14.627 L -31.4882,-14.812
 L -31.5,-15 L -31.4882,-15.188 L -31.4529,-15.373 L -31.3947,-15.5522 L -31.3145,-15.7226 L -31.2135,-15.8817
 L -31.0934,-16.0268 L -30.9561,-16.1558 L -30.8037,-16.2665 L -30.6387,-16.3572 L -30.4635,-16.4266 L -30.2811,-16.4734
 L -30.0942,-16.497 L -29.9058,-16.497 L -29.7189,-16.4734 L -29.5365,-16.4266 L -29.3613,-16.3572 L -29.1963,-16.2665
 L -29.0439,-16.1558 L -28.9065,-16.0268 L -28.7865,-15.8817 L -28.6855,-15.7226 L -28.6053,-15.5522 L -28.5471,-15.373
 L -28.5118,-15.188 L -28.5,-15 L -28.5118,-14.812 L -28.5471,-14.627 L -28.6053,-14.4478 L -28.6855,-14.2774
 L -28.7865,-14.1183 L -28.9065,-13.9732 L -29.0439,-13.8442 L -29.1963,-13.7335 L -29.3613,-13.6427 L -29.5365,-13.5734
 L -29.7189,-13.5266 L -29.9058,-13.5029 z
M 22.4058,-13.5029 L 22.2189,-13.5266 L 22.0365,-13.5734 L 21.8613,-13.6427 L 21.6963,-13.7335 L 21.5439,-13.8442
 L 21.4065,-13.9732 L 21.2865,-14.1183 L 21.1855,-14.2774 L 21.1053,-14.4478 L 21.0471,-14.627 L 21.0118,-14.812
 L 21,-15 L 21.0118,-15.188 L 21.0471,-15.373 L 21.1053,-15.5522 L 21.1855,-15.7226 L 21.2865,-15.8817
 L 21.4065,-16.0268 L 21.5439,-16.1558 L 21.6963,-16.2665 L 21.8613,-16.3572 L 22.0365,-16.4266 L 22.2189,-16.4734
 L 22.4058,-16.497 L 22.5942,-16.497 L 22.7811,-16.4734 L 22.9635,-16.4266 L 23.1387,-16.3572 L 23.3037,-16.2665
 L 23.4561,-16.1558 L 23.5934,-16.0268 L 23.7135,-15.8817 L 23.8145,-15.7226 L 23.8947,-15.5522 L 23.9529,-15.373
 L 23.9882,-15.188 L 24,-15 L 23.9882,-14.812 L 23.9529,-14.627 L 23.8947,-14.4478 L 23.8145,-14.2774
 L 23.7135,-14.1183 L 23.5934,-13.9732 L 23.4561,-13.8442 L 23.3037,-13.7335 L 23.1387,-13.6427 L 22.9635,-13.5734
 L 22.7811,-13.5266 L 22.5942,-13.5029 z
M -0.0941772,-13.5029 L -0.281067,-13.5266 L -0.463516,-13.5734 L -0.638657,-13.6427 L -0.803726,-13.7335 L -0.956131,-13.8442
 L -1.09344,-13.9732 L -1.21352,-14.1183 L -1.31445,-14.2774 L -1.39465,-14.4478 L -1.45287,-14.627 L -1.48816,-14.812
 L -1.5,-15 L -1.48816,-15.188 L -1.45287,-15.373 L -1.39465,-15.5522 L -1.31445,-15.7226 L -1.21352,-15.8817
 L -1.09344,-16.0268 L -0.956131,-16.1558 L -0.803726,-16.2665 L -0.638657,-16.3572 L -0.463516,-16.4266 L -0.281067,-16.4734
 L -0.0941772,-16.497 L 0.0941772,-16.497 L 0.281067,-16.4734 L 0.463516,-16.4266 L 0.638657,-16.3572 L 0.803726,-16.2665
 L 0.956131,-16.1558 L 1.09344,-16.0268 L 1.21352,-15.8817 L 1.31445,-15.7226 L 1.39465,-15.5522 L 1.45287,-15.373
 L 1.48816,-15.188 L 1.5,-15 L 1.48816,-14.812 L 1.45287,-14.627 L 1.39465,-14.4478 L 1.31445,-14.2774
 L 1.21352,-14.1183 L 1.09344,-13.9732 L 0.956131,-13.8442 L 0.803726,-13.7335 L 0.638657,-13.6427 L 0.463516,-13.5734
 L 0.281067,-13.5266 L 0.0941772,-13.5029 z
M -7.59418,-13.5029 L -7.78107,-13.5266 L -7.96352,-13.5734 L -8.13866,-13.6427 L -8.30373,-13.7335 L -8.45613,-13.8442
 L -8.59344,-13.9732 L -8.71352,-14.1183 L -8.81445,-14.2774 L -8.89465,-14.4478 L -8.95287,-14.627 L -8.98816,-14.812
 L -9,-15 L -8.98816,-15.188 L -8.95287,-15.373 L -8.89465,-15.5522 L -8.81445,-15.7226 L -8.71352,-15.8817
 L -8.59344,-16.0268 L -8.45613,-16.1558 L -8.30373,-16.2665 L -8.13866,-16.3572 L -7.96352,-16.4266 L -7.78107,-16.4734
 L -7.59418,-16.497 L -7.40581,-16.497 L -7.21892,-16.4734 L -7.03647,-16.4266 L -6.86133,-16.3572 L -6.69626,-16.2665
 L -6.54385,-16.1558 L -6.40654,-16.0268 L -6.28647,-15.8817 L -6.18553,-15.7226 L -6.10533,-15.5522 L -6.04712,-15.373
 L -6.01183,-15.188 L -6,-15 L -6.01183,-14.812 L -6.04712,-14.627 L -6.10533,-14.4478 L -6.18553,-14.2774
 L -6.28647,-14.1183 L -6.40654,-13.9732 L -6.54385,-13.8442 L -6.69626,-13.7335 L -6.86133,-13.6427 L -7.03647,-13.5734
 L -7.21892,-13.5266 L -7.40581,-13.5029 z
M 29.9058,-13.5029 L 29.7189,-13.5266 L 29.5365,-13.5734 L 29.3613,-13.6427 L 29.1963,-13.7335 L 29.0439,-13.8442
 L 28.9065,-13.9732 L 28.7865,-14.1183 L 28.6855,-14.2774 L 28.6053,-14.4478 L 28.5471,-14.627 L 28.5118,-14.812
 L 28.5,-15 L 28.5118,-15.188 L 28.5471,-15.373 L 28.6053,-15.5522 L 28.6855,-15.7226 L 28.7865,-15.8817
 L 28.9065,-16.0268 L 29.0439,-16.1558 L 29.1963,-16.2665 L 29.3613,-16.3572 L 29.5365,-16.4266 L 29.7189,-16.4734
 L 29.9058,-16.497 L 30.0942,-16.497 L 30.2811,-16.4734 L 30.4635,-16.4266 L 30.6387,-16.3572 L 30.8037,-16.2665
 L 30.9561,-16.1558 L 31.0934,-16.0268 L 31.2135,-15.8817 L 31.3145,-15.7226 L 31.3947,-15.5522 L 31.4529,-15.373
 L 31.4882,-15.188 L 31.5,-15 L 31.4882,-14.812 L 31.4529,-14.627 L 31.3947,-14.4478 L 31.3145,-14.2774
 L 31.2135,-14.1183 L 31.0934,-13.9732 L 30.9561,-13.8442 L 30.8037,-13.7335 L 30.6387,-13.6427 L 30.4635,-13.5734
 L 30.2811,-13.5266 L 30.0942,-13.5029 z
M 14.9058,-13.5029 L 14.7189,-13.5266 L 14.5365,-13.5734 L 14.3613,-13.6427 L 14.1963,-13.7335 L 14.0439,-13.8442
 L 13.9065,-13.9732 L 13.7865,-14.1183 L 13.6855,-14.2774 L 13.6053,-14.4478 L 13.5471,-14.627 L 13.5118,-14.812
 L 13.5,-15 L 13.5118,-15.188 L 13.5471,-15.373 L 13.6053,-15.5522 L 13.6855,-15.7226 L 13.7865,-15.8817
 L 13.9065,-16.0268 L 14.0439,-16.1558 L 14.1963,-16.2665 L 14.3613,-16.3572 L 14.5365,-16.4266 L 14.7189,-16.4734
 L 14.9058,-16.497 L 15.0942,-16.497 L 15.2811,-16.4734 L 15.4635,-16.4266 L 15.6387,-16.3572 L 15.8037,-16.2665
 L 15.9561,-16.1558 L 16.0934,-16.0268 L 16.2135,-15.8817 L 16.3145,-15.7226 L 16.3947,-15.5522 L 16.4529,-15.373
 L 16.4882,-15.188 L 16.5,-15 L 16.4882,-14.812 L 16.4529,-14.627 L 16.3947,-14.4478 L 16.3145,-14.2774
 L 16.2135,-14.1183 L 16.0934,-13.9732 L 15.9561,-13.8442 L 15.8037,-13.7335 L 15.6387,-13.6427 L 15.4635,-13.5734
 L 15.2811,-13.5266 L 15.0942,-13.5029 z
M 7.40581,-13.5029 L 7.21892,-13.5266 L 7.03647,-13.5734 L 6.86133,-13.6427 L 6.69626,-13.7335 L 6.54385,-13.8442
 L 6.40654,-13.9732 L 6.28647,-14.1183 L 6.18553,-14.2774 L 6.10533,-14.4478 L 6.04712,-14.627 L 6.01183,-14.812
 L 6,-15 L 6.01183,-15.188 L 6.04712,-15.373 L 6.10533,-15.5522 L 6.18553,-15.7226 L 6.28647,-15.8817
 L 6.40654,-16.0268 L 6.54385,-16.1558 L 6.69626,-16.2665 L 6.86133,-16.3572 L 7.03647,-16.4266 L 7.21892,-16.4734
 L 7.40581,-16.497 L 7.59418,-16.497 L 7.78107,-16.4734 L 7.96352,-16.4266 L 8.13866,-16.3572 L 8.30373,-16.2665
 L 8.45613,-16.1558 L 8.59344,-16.0268 L 8.71352,-15.8817 L 8.81445,-15.7226 L 8.89465,-15.5522 L 8.95287,-15.373
 L 8.98816,-15.188 L 9,-15 L 8.98816,-14.812 L 8.95287,-14.627 L 8.89465,-14.4478 L 8.81445,-14.2774
 L 8.71352,-14.1183 L 8.59344,-13.9732 L 8.45613,-13.8442 L 8.30373,-13.7335 L 8.13866,-13.6427 L 7.96352,-13.5734
 L 7.78107,-13.5266 L 7.59418,-13.5029 z
M -22.5942,-13.5029 L -22.7811,-13.5266 L -22.9635,-13.5734 L -23.1387,-13.6427 L -23.3037,-13.7335 L -23.4561,-13.8442
 L -23.5934,-13.9732 L -23.7135,-14.1183 L -23.8145,-14.2774 L -23.8947,-14.4478 L -23.9529,-14.627 L -23.9882,-14.812
 L -24,-15 L -23.9882,-15.188 L -23.9529,-15.373 L -23.8947,-15.5522 L -23.8145,-15.7226 L -23.7135,-15.8817
 L -23.5934,-16.0268 L -23.4561,-16.1558 L -23.3037,-16.2665 L -23.1387,-16.3572 L -22.9635,-16.4266 L -22.7811,-16.4734
 L -22.5942,-16.497 L -22.4058,-16.497 L -22.2189,-16.4734 L -22.0365,-16.4266 L -21.8613,-16.3572 L -21.6963,-16.2665
 L -21.5439,-16.1558 L -21.4065,-16.0268 L -21.2865,-15.8817 L -21.1855,-15.7226 L -21.1053,-15.5522 L -21.0471,-15.373
 L -21.0118,-15.188 L -21,-15 L -21.0118,-14.812 L -21.0471,-14.627 L -21.1053,-14.4478 L -21.1855,-14.2774
 L -21.2865,-14.1183 L -21.4065,-13.9732 L -21.5439,-13.8442 L -21.6963,-13.7335 L -21.8613,-13.6427 L -22.0365,-13.5734
 L -22.2189,-13.5266 L -22.4058,-13.5029 z
M -15.0942,-13.5029 L -15.2811,-13.5266 L -15.4635,-13.5734 L -15.6387,-13.6427 L -15.8037,-13.7335 L -15.9561,-13.8442
 L -16.0934,-13.9732 L -16.2135,-14.1183 L -16.3145,-14.2774 L -16.3947,-14.4478 L -16.4529,-14.627 L -16.4882,-14.812
 L -16.5,-15 L -16.4882,-15.188 L -16.4529,-15.373 L -16.3947,-15.5522 L -16.3145,-15.7226 L -16.2135,-15.8817
 L -16.0934,-16.0268 L -15.9561,-16.1558 L -15.8037,-16.2665 L -15.6387,-16.3572 L -15.4635,-16.4266 L -15.2811,-16.4734
 L -15.0942,-16.497 L -14.9058,-16.497 L -14.7189,-16.4734 L -14.5365,-16.4266 L -14.3613,-16.3572 L -14.1963,-16.2665
 L -14.0439,-16.1558 L -13.9065,-16.0268 L -13.7865,-15.8817 L -13.6855,-15.7226 L -13.6053,-15.5522 L -13.5471,-15.373
 L -13.5118,-15.188 L -13.5,-15 L -13.5118,-14.812 L -13.5471,-14.627 L -13.6053,-14.4478 L -13.6855,-14.2774
 L -13.7865,-14.1183 L -13.9065,-13.9732 L -14.0439,-13.8442 L -14.1963,-13.7335 L -14.3613,-13.6427 L -14.5365,-13.5734
 L -14.7189,-13.5266 L -14.9058,-13.5029 z
M 29.9058,-6.00294 L 29.7189,-6.02657 L 29.5365,-6.07341 L 29.3613,-6.14275 L 29.1963,-6.23351 L 29.0439,-6.34422
 L 28.9065,-6.47318 L 28.7865,-6.61832 L 28.6855,-6.77736 L 28.6053,-6.9478 L 28.5471,-7.12695 L 28.5118,-7.312
 L 28.5,-7.5 L 28.5118,-7.68799 L 28.5471,-7.87303 L 28.6053,-8.05219 L 28.6855,-8.22263 L 28.7865,-8.38167
 L 28.9065,-8.52681 L 29.0439,-8.65576 L 29.1963,-8.76648 L 29.3613,-8.85724 L 29.5365,-8.92657 L 29.7189,-8.97342
 L 29.9058,-8.99704 L 30.0942,-8.99704 L 30.2811,-8.97342 L 30.4635,-8.92657 L 30.6387,-8.85724 L 30.8037,-8.76648
 L 30.9561,-8.65576 L 31.0934,-8.52681 L 31.2135,-8.38167 L 31.3145,-8.22263 L 31.3947,-8.05219 L 31.4529,-7.87303
 L 31.4882,-7.68799 L 31.5,-7.5 L 31.4882,-7.312 L 31.4529,-7.12695 L 31.3947,-6.9478 L 31.3145,-6.77736
 L 31.2135,-6.61832 L 31.0934,-6.47318 L 30.9561,-6.34422 L 30.8037,-6.23351 L 30.6387,-6.14275 L 30.4635,-6.07341
 L 30.2811,-6.02657 L 30.0942,-6.00294 z
M 14.9058,-6.00294 L 14.7189,-6.02657 L 14.5365,-6.07341 L 14.3613,-6.14275 L 14.1963,-6.23351 L 14.0439,-6.34422
 L 13.9065,-6.47318 L 13.7865,-6.61832 L 13.6855,-6.77736 L 13.6053,-6.9478 L 13.5471,-7.12695 L 13.5118,-7.312
 L 13.5,-7.5 L 13.5118,-7.68799 L 13.5471,-7.87303 L 13.6053,-8.05219 L 13.6855,-8.22263 L 13.7865,-8.38167
 L 13.9065,-8.52681 L 14.0439,-8.65576 L 14.1963,-8.76648 L 14.3613,-8.85724 L 14.5365,-8.92657 L 14.7189,-8.97342
 L 14.9058,-8.99704 L 15.0942,-8.99704 L 15.2811,-8.97342 L 15.4635,-8.92657 L 15.6387,-8.85724 L 15.8037,-8.76648
 L 15.9561,-8.65576 L 16.0934,-8.52681 L 16.2135,-8.38167 L 16.3145,-8.22263 L 16.3947,-8.05219 L 16.4529,-7.87303
 L 16.4882,-7.68799 L 16.5,-7.5 L 16.4882,-7.312 L 16.4529,-7.12695 L 16.3947,-6.9478 L 16.3145,-6.77736
 L 16.2135,-6.61832 L 16.0934,-6.47318 L 15.9561,-6.34422 L 15.8037,-6.23351 L 15.6387,-6.14275 L 15.4635,-6.07341
 L 15.2811,-6.02657 L 15.0942,-6.00294 z
M -30.0942,-6.00294 L -30.2811,-6.02657 L -30.4635,-6.07341 L -30.6387,-6.14275 L -30.8037,-6.23351 L -30.9561,-6.34422
 L -31.0934,-6.47318 L -31.2135,-6.61832 L -31.3145,-6.77736 L -31.3947,-6.9478 L -31.4529,-7.12695 L -31.4882,-7.312
 L -31.5,-7.5 L -31.4882,-7.68799 L -31.4529,-7.87303 L -31.3947,-8.05219 L -31.3145,-8.22263 L -31.2135,-8.38167
 L -31.0934,-8.52681 L -30.9561,-8.65576 L -30.8037,-8.76648 L -30.6387,-8.85724 L -30.4635,-8.92657 L -30.2811,-8.97342
 L -30.0942,-8.99704 L -29.9058,-8.99704 L -29.7189,-8.97342 L -29.5365,-8.92657 L -29.3613,-8.85724 L -29.1963,-8.76648
 L -29.0439,-8.65576 L -28.9065,-8.52681 L -28.7865,-8.38167 L -28.6855,-8.22263 L -28.6053,-8.05219 L -28.5471,-7.87303
 L -28.5118,-7.68799 L -28.5,-7.5 L -28.5118,-7.312 L -28.5471,-7.12695 L -28.6053,-6.9478 L -28.6855,-6.77736
 L -28.7865,-6.61832 L -28.9065,-6.47318 L -29.0439,-6.34422 L -29.1963,-6.23351 L -29.3613,-6.14275 L -29.5365,-6.07341
 L -29.7189,-6.02657 L -29.9058,-6.00294 z
M 7.40581,-6.00294 L 7.21892,-6.02657 L 7.03647,-6.07341 L 6.86133,-6.14275 L 6.69626,-6.23351 L 6.54385,-6.34422
 L 6.40654,-6.47318 L 6.28647,-6.61832 L 6.18553,-6.77736 L 6.10533,-6.9478 L 6.04712,-7.12695 L 6.01183,-7.312
 L 6,-7.5 L 6.01183,-7.68799 L 6.04712,-7.87303 L 6.10533,-8.05219 L 6.18553,-8.22263 L 6.28647,-8.38167
 L 6.40654,-8.52681 L 6.54385,-8.65576 L 6.69626,-8.76648 L 6.86133,-8.85724 L 7.03647,-8.92657 L 7.21892,-8.97342
 L 7.40581,-8.99704 L 7.59418,-8.99704 L 7.78107,-8.97342 L 7.96352,-8.92657 L 8.13866,-8.85724 L 8.30373,-8.76648
 L 8.45613,-8.65576 L 8.59344,-8.52681 L 8.71352,-8.38167 L 8.81445,-8.22263 L 8.89465,-8.05219 L 8.95287,-7.87303
 L 8.98816,-7.68799 L 9,-7.5 L 8.98816,-7.312 L 8.95287,-7.12695 L 8.89465,-6.9478 L 8.81445,-6.77736
 L 8.71352,-6.61832 L 8.59344,-6.47318 L 8.45613,-6.34422 L 8.30373,-6.23351 L 8.13866,-6.14275 L 7.96352,-6.07341
 L 7.78107,-6.02657 L 7.59418,-6.00294 z
M -0.0941772,-6.00294 L -0.281067,-6.02657 L -0.463516,-6.07341 L -0.638657,-6.14275 L -0.803726,-6.23351 L -0.956131,-6.34422
 L -1.09344,-6.47318 L -1.21352,-6.61832 L -1.31445,-6.77736 L -1.39465,-6.9478 L -1.45287,-7.12695 L -1.48816,-7.312
 L -1.5,-7.5 L -1.48816,-7.68799 L -1.45287,-7.87303 L -1.39465,-8.05219 L -1.31445,-8.22263 L -1.21352,-8.38167
 L -1.09344,-8.52681 L -0.956131,-8.65576 L -0.803726,-8.76648 L -0.638657,-8.85724 L -0.463516,-8.92657 L -0.281067,-8.97342
 L -0.0941772,-8.99704 L 0.0941772,-8.99704 L 0.281067,-8.97342 L 0.463516,-8.92657 L 0.638657,-8.85724 L 0.803726,-8.76648
 L 0.956131,-8.65576 L 1.09344,-8.52681 L 1.21352,-8.38167 L 1.31445,-8.22263 L 1.39465,-8.05219 L 1.45287,-7.87303
 L 1.48816,-7.68799 L 1.5,-7.5 L 1.48816,-7.312 L 1.45287,-7.12695 L 1.39465,-6.9478 L 1.31445,-6.77736
 L 1.21352,-6.61832 L 1.09344,-6.47318 L 0.956131,-6.34422 L 0.803726,-6.23351 L 0.638657,-6.14275 L 0.463516,-6.07341
 L 0.281067,-6.02657 L 0.0941772,-6.00294 z
M -22.5942,-6.00294 L -22.7811,-6.02657 L -22.9635,-6.07341 L -23.1387,-6.14275 L -23.3037,-6.23351 L -23.4561,-6.34422
 L -23.5934,-6.47318 L -23.7135,-6.61832 L -23.8145,-6.77736 L -23.8947,-6.9478 L -23.9529,-7.12695 L -23.9882,-7.312
 L -24,-7.5 L -23.9882,-7.68799 L -23.9529,-7.87303 L -23.8947,-8.05219 L -23.8145,-8.22263 L -23.7135,-8.38167
 L -23.5934,-8.52681 L -23.4561,-8.65576 L -23.3037,-8.76648 L -23.1387,-8.85724 L -22.9635,-8.92657 L -22.7811,-8.97342
 L -22.5942,-8.99704 L -22.4058,-8.99704 L -22.2189,-8.97342 L -22.0365,-8.92657 L -21.8613,-8.85724 L -21.6963,-8.76648
 L -21.5439,-8.65576 L -21.4065,-8.52681 L -21.2865,-8.38167 L -21.1855,-8.22263 L -21.1053,-8.05219 L -21.0471,-7.87303
 L -21.0118,-7.68799 L -21,-7.5 L -21.0118,-7.312 L -21.0471,-7.12695 L -21.1053,-6.9478 L -21.1855,-6.77736
 L -21.2865,-6.61832 L -21.4065,-6.47318 L -21.5439,-6.34422 L -21.6963,-6.23351 L -21.8613,-6.14275 L -22.0365,-6.07341
 L -22.2189,-6.02657 L -22.4058,-6.00294 z
M -15.0942,-6.00294 L -15.2811,-6.02657 L -15.4635,-6.07341 L -15.6387,-6.14275 L -15.8037,-6.23351 L -15.9561,-6.34422
 L -16.0934,-6.47318 L -16.2135,-6.61832 L -16.3145,-6.77736 L -16.3947,-6.9478 L -16.4529,-7.12695 L -16.4882,-7.312
 L -16.5,-7.5 L -16.4882,-7.68799 L -16.4529,-7.87303 L -16.3947,-8.05219 L -16.3145,-8.22263 L -16.2135,-8.38167
 L -16.0934,-8.52681 L -15.9561,-8.65576 L -15.8037,-8.76648 L -15.6387,-8.85724 L -15.4635,-8.92657 L -15.2811,-8.97342
 L -15.0942,-8.99704 L -14.9058,-8.99704 L -14.7189,-8.97342 L -14.5365,-8.92657 L -14.3613,-8.85724 L -14.1963,-8.76648
 L -14.0439,-8.65576 L -13.9065,-8.52681 L -13.7865,-8.38167 L -13.6855,-8.22263 L -13.6053,-8.05219 L -13.5471,-7.87303
 L -13.5118,-7.68799 L -13.5,-7.5 L -13.5118,-7.312 L -13.5471,-7.12695 L -13.6053,-6.9478 L -13.6855,-6.77736
 L -13.7865,-6.61832 L -13.9065,-6.47318 L -14.0439,-6.34422 L -14.1963,-6.23351 L -14.3613,-6.14275 L -14.5365,-6.07341
 L -14.7189,-6.02657 L -14.9058,-6.00294 z
M 22.4058,-6.00294 L 22.2189,-6.02657 L 22.0365,-6.07341 L 21.8613,-6.14275 L 21.6963,-6.23351 L 21.5439,-6.34422
 L 21.4065,-6.47318 L 21.2865,-6.61832 L 21.1855,-6.77736 L 21.1053,-6.9478 L 21.0471,-7.12695 L 21.0118,-7.312
 L 21,-7.5 L 21.0118,-7.68799 L 21.0471,-7.87303 L 21.1053,-8.05219 L 21.1855,-8.22263 L 21.2865,-8.38167
 L 21.4065,-8.52681 L 21.5439,-8.65576 L 21.6963,-8.76648 L 21.8613,-8.85724 L 22.0365,-8.92657 L 22.2189,-8.97342
 L 22.4058,-8.99704 L 22.5942,-8.99704 L 22.7811,-8.97342 L 22.9635,-8.92657 L 23.1387,-8.85724 L 23.3037,-8.76648
 L 23.4561,-8.65576 L 23.5934,-8.52681 L 23.7135,-8.38167 L 23.8145,-8.22263 L 23.8947,-8.05219 L 23.9529,-7.87303
 L 23.9882,-7.68799 L 24,-7.5 L 23.9882,-7.312 L 23.9529,-7.12695 L 23.8947,-6.9478 L 23.8145,-6.77736
 L 23.7135,-6.61832 L 23.5934,-6.47318 L 23.4561,-6.34422 L 23.3037,-6.23351 L 23.1387,-6.14275 L 22.9635,-6.07341
 L 22.7811,-6.02657 L 22.5942,-6.00294 z
M -7.59418,-6.00294 L -7.78107,-6.02657 L -7.96352,-6.07341 L -8.13866,-6.14275 L -8.30373,-6.23351 L -8.45613,-6.34422
 L -8.59344,-6.47318 L -8.71352,-6.61832 L -8.81445,-6.77736 L -8.89465,-6.9478 L -8.95287,-7.12695 L -8.98816,-7.312
 L -9,-7.5 L -8.98816,-7.68799 L -8.95287,-7.87303 L -8.89465,-8.05219 L -8.81445,-8.22263 L -8.71352,-8.38167
 L -8.59344,-8.52681 L -8.45613,-8.65576 L -8.30373,-8.76648 L -8.13866,-8.85724 L -7.96352,-8.92657 L -7.78107,-8.97342
 L -7.59418,-8.99704 L -7.40581,-8.99704 L -7.21892,-8.97342 L -7.03647,-8.92657 L -6.86133,-8.85724 L -6.69626,-8.76648
 L -6.54385,-8.65576 L -6.40654,-8.52681 L -6.28647,-8.38167 L -6.18553,-8.22263 L -6.10533,-8.05219 L -6.04712,-7.87303
 L -6.01183,-7.68799 L -6,-7.5 L -6.01183,-7.312 L -6.04712,-7.12695 L -6.10533,-6.9478 L -6.18553,-6.77736
 L -6.28647,-6.61832 L -6.40654,-6.47318 L -6.54385,-6.34422 L -6.69626,-6.23351 L -6.86133,-6.14275 L -7.03647,-6.07341
 L -7.21892,-6.02657 L -7.40581,-6.00294 z
M -7.59418,1.49704 L -7.78107,1.47342 L -7.96352,1.42657 L -8.13866,1.35724 L -8.30373,1.26648 L -8.45613,1.15576
 L -8.59344,1.02681 L -8.71352,0.881668 L -8.81445,0.722626 L -8.89465,0.552185 L -8.95287,0.373032 L -8.98816,0.187988
 L -9,-0 L -8.98816,-0.187988 L -8.95287,-0.373032 L -8.89465,-0.552185 L -8.81445,-0.722626 L -8.71352,-0.881668
 L -8.59344,-1.02681 L -8.45613,-1.15576 L -8.30373,-1.26648 L -8.13866,-1.35724 L -7.96352,-1.42657 L -7.78107,-1.47342
 L -7.59418,-1.49704 L -7.40581,-1.49704 L -7.21892,-1.47342 L -7.03647,-1.42657 L -6.86133,-1.35724 L -6.69626,-1.26648
 L -6.54385,-1.15576 L -6.40654,-1.02681 L -6.28647,-0.881668 L -6.18553,-0.722626 L -6.10533,-0.552185 L -6.04712,-0.373032
 L -6.01183,-0.187988 L -6,-0 L -6.01183,0.187988 L -6.04712,0.373032 L -6.10533,0.552185 L -6.18553,0.722626
 L -6.28647,0.881668 L -6.40654,1.02681 L -6.54385,1.15576 L -6.69626,1.26648 L -6.86133,1.35724 L -7.03647,1.42657
 L -7.21892,1.47342 L -7.40581,1.49704 z
M -30.0942,1.49704 L -30.2811,1.47342 L -30.4635,1.42657 L -30.6387,1.35724 L -30.8037,1.26648 L -30.9561,1.15576
 L -31.0934,1.02681 L -31.2135,0.881668 L -31.3145,0.722626 L -31.3947,0.552185 L -31.4529,0.373032 L -31.4882,0.187988
 L -31.5,-0 L -31.4882,-0.187988 L -31.4529,-0.373032 L -31.3947,-0.552185 L -31.3145,-0.722626 L -31.2135,-0.881668
 L -31.0934,-1.02681 L -30.9561,-1.15576 L -30.8037,-1.26648 L -30.6387,-1.35724 L -30.4635,-1.42657 L -30.2811,-1.47342
 L -30.0942,-1.49704 L -29.9058,-1.49704 L -29.7189,-1.47342 L -29.5365,-1.42657 L -29.3613,-1.35724 L -29.1963,-1.26648
 L -29.0439,-1.15576 L -28.9065,-1.02681 L -28.7865,-0.881668 L -28.6855,-0.722626 L -28.6053,-0.552185 L -28.5471,-0.373032
 L -28.5118,-0.187988 L -28.5,-0 L -28.5118,0.187988 L -28.5471,0.373032 L -28.6053,0.552185 L -28.6855,0.722626
 L -28.7865,0.881668 L -28.9065,1.02681 L -29.0439,1.15576 L -29.1963,1.26648 L -29.3613,1.35724 L -29.5365,1.42657
 L -29.7189,1.47342 L -29.9058,1.49704 z
M 7.40581,1.49704 L 7.21892,1.47342 L 7.03647,1.42657 L 6.86133,1.35724 L 6.69626,1.26648 L 6.54385,1.15576
 L 6.40654,1.02681 L 6.28647,0.881668 L 6.18553,0.722626 L 6.10533,0.552185 L 6.04712,0.373032 L 6.01183,0.187988
 L 6,-0 L 6.01183,-0.187988 L 6.04712,-0.373032 L 6.10533,-0.552185 L 6.18553,-0.722626 L 6.28647,-0.881668
 L 6.40654,-1.02681 L 6.54385,-1.15576 L 6.69626,-1.26648 L 6.86133,-1.35724 L 7.03647,-1.42657 L 7.21892,-1.47342
 L 7.40581,-1.49704 L 7.59418,-1.49704 L 7.78107,-1.47342 L 7.96352,-1.42657 L 8.13866,-1.35724 L 8.30373,-1.26648
 L 8.45613,-1.15576 L 8.59344,-1.02681 L 8.71352,-0.881668 L 8.81445,-0.722626 L 8.89465,-0.552185 L 8.95287,-0.373032
 L 8.98816,-0.187988 L 9,-0 L 8.98816,0.187988 L 8.95287,0.373032 L 8.89465,0.552185 L 8.81445,0.722626
 L 8.71352,0.881668 L 8.59344,1.02681 L 8.45613,1.15576 L 8.30373,1.26648 L 8.13866,1.35724 L 7.96352,1.42657
 L 7.78107,1.47342 L 7.59418,1.49704 z
M 14.9058,1.49704 L 14.7189,1.47342 L 14.5365,1.42657 L 14.3613,1.35724 L 14.1963,1.26648 L 14.0439,1.15576
 L 13.9065,1.02681 L 13.7865,0.881668 L 13.6855,0.722626 L 13.6053,0.552185 L 13.5471,0.373032 L 13.5118,0.187988
 L 13.5,-0 L 13.5118,-0.187988 L 13.5471,-0.373032 L 13.6053,-0.552185 L 13.6855,-0.722626 L 13.7865,-0.881668
 L 13.9065,-1.02681 L 14.0439,-1.15576 L 14.1963,-1.26648 L 14.3613,-1.35724 L 14.5365,-1.42657 L 14.7189,-1.47342
 L 14.9058,-1.49704 L 15.0942,-1.49704 L 15.2811,-1.47342 L 15.4635,-1.42657 L 15.6387,-1.35724 L 15.8037,-1.26648
 L 15.9561,-1.15576 L 16.0934,-1.02681 L 16.2135,-0.881668 L 16.3145,-0.722626 L 16.3947,-0.552185 L 16.4529,-0.373032
 L 16.4882,-0.187988 L 16.5,-0 L 16.4882,0.187988 L 16.4529,0.373032 L 16.3947,0.552185 L 16.3145,0.722626
 L 16.2135,0.881668 L 16.0934,1.02681 L 15.9561,1.15576 L 15.8037,1.26648 L 15.6387,1.35724 L 15.4635,1.42657
 L 15.2811,1.47342 L 15.0942,1.49704 z
M -22.5942,1.49704 L -22.7811,1.47342 L -22.9635,1.42657 L -23.1387,1.35724 L -23.3037,1.26648 L -23.4561,1.15576
 L -23.5934,1.02681 L -23.7135,0.881668 L -23.8145,0.722626 L -23.8947,0.552185 L -23.9529,0.373032 L -23.9882,0.187988
 L -24,-0 L -23.9882,-0.187988 L -23.9529,-0.373032 L -23.8947,-0.552185 L -23.8145,-0.722626 L -23.7135,-0.881668
 L -23.5934,-1.02681 L -23.4561,-1.15576 L -23.3037,-1.26648 L -23.1387,-1.35724 L -22.9635,-1.42657 L -22.7811,-1.47342
 L -22.5942,-1.49704 L -22.4058,-1.49704 L -22.2189,-1.47342 L -22.0365,-1.42657 L -21.8613,-1.35724 L -21.6963,-1.26648
 L -21.5439,-1.15576 L -21.4065,-1.02681 L -21.2865,-0.881668 L -21.1855,-0.722626 L -21.1053,-0.552185 L -21.0471,-0.373032
 L -21.0118,-0.187988 L -21,-0 L -21.0118,0.187988 L -21.0471,0.373032 L -21.1053,0.552185 L -21.1855,0.722626
 L -21.2865,0.881668 L -21.4065,1.02681 L -21.5439,1.15576 L -21.6963,1.26648 L -21.8613,1.35724 L -22.0365,1.42657
 L -22.2189,1.47342 L -22.4058,1.49704 z
M 22.4058,1.49704 L 22.2189,1.47342 L 22.0365,1.42657 L 21.8613,1.35724 L 21.6963,1.26648 L 21.5439,1.15576
 L 21.4065,1.02681 L 21.2865,0.881668 L 21.1855,0.722626 L 21.1053,0.552185 L 21.0471,0.373032 L 21.0118,0.187988
 L 21,-0 L 21.0118,-0.187988 L 21.0471,-0.373032 L 21.1053,-0.552185 L 21.1855,-0.722626 L 21.2865,-0.881668
 L 21.4065,-1.02681 L 21.5439,-1.15576 L 21.6963,-1.26648 L 21.8613,-1.35724 L 22.0365,-1.42657 L 22.2189,-1.47342
 L 22.4058,-1.49704 L 22.5942,-1.49704 L 22.7811,-1.47342 L 22.9635,-1.42657 L 23.1387,-1.35724 L 23.3037,-1.26648
 L 23.4561,-1.15576 L 23.5934,-1.02681 L 23.7135,-0.881668 L 23.8145,-0.722626 L 23.8947,-0.552185 L 23.9529,-0.373032
 L 23.9882,-0.187988 L 24,-0 L 23.9882,0.187988 L 23.9529,0.373032 L 23.8947,0.552185 L 23.8145,0.722626
 L 23.7135,0.881668 L 23.5934,1.02681 L 23.4561,1.15576 L 23.3037,1.26648 L 23.1387,1.35724 L 22.9635,1.42657
 L 22.7811,1.47342 L 22.5942,1.49704 z
M -15.0942,1.49704 L -15.2811,1.47342 L -15.4635,1.42657 L -15.6387,1.35724 L -15.8037,1.26648 L -15.9561,1.15576
 L -16.0934,1.02681 L -16.2135,0.881668 L -16.3145,0.722626 L -16.3947,0.552185 L -16.4529,0.373032 L -16.4882,0.187988
 L -16.5,-0 L -16.4882,-0.187988 L -16.4529,-0.373032 L -16.3947,-0.552185 L -16.3145,-0.722626 L -16.2135,-0.881668
 L -16.0934,-1.02681 L -15.9561,-1.15576 L -15.8037,-1.26648 L -15.6387,-1.35724 L -15.4635,-1.42657 L -15.2811,-1.47342
 L -15.0942,-1.49704 L -14.9058,-1.49704 L -14.7189,-1.47342 L -14.5365,-1.42657 L -14.3613,-1.35724 L -14.1963,-1.26648
 L -14.0439,-1.15576 L -13.9065,-1.02681 L -13.7865,-0.881668 L -13.6855,-0.722626 L -13.6053,-0.552185 L -13.5471,-0.373032
 L -13.5118,-0.187988 L -13.5,-0 L -13.5118,0.187988 L -13.5471,0.373032 L -13.6053,0.552185 L -13.6855,0.722626
 L -13.7865,0.881668 L -13.9065,1.02681 L -14.0439,1.15576 L -14.1963,1.26648 L -14.3613,1.35724 L -14.5365,1.42657
 L -14.7189,1.47342 L -14.9058,1.49704 z
M 29.9058,1.49704 L 29.7189,1.47342 L 29.5365,1.42657 L 29.3613,1.35724 L 29.1963,1.26648 L 29.0439,1.15576
 L 28.9065,1.02681 L 28.7865,0.881668 L 28.6855,0.722626 L 28.6053,0.552185 L 28.5471,0.373032 L 28.5118,0.187988
 L 28.5,-0 L 28.5118,-0.187988 L 28.5471,-0.373032 L 28.6053,-0.552185 L 28.6855,-0.722626 L 28.7865,-0.881668
 L 28.9065,-1.02681 L 29.0439,-1.15576 L 29.1963,-1.26648 L 29.3613,-1.35724 L 29.5365,-1.42657 L 29.7189,-1.47342
 L 29.9058,-1.49704 L 30.0942,-1.49704 L 30.2811,-1.47342 L 30.4635,-1.42657 L 30.6387,-1.35724 L 30.8037,-1.26648
 L 30.9561,-1.15576 L 31.0934,-1.02681 L 31.2135,-0.881668 L 31.3145,-0.722626 L 31.3947,-0.552185 L 31.4529,-0.373032
 L 31.4882,-0.187988 L 31.5,-0 L 31.4882,0.187988 L 31.4529,0.373032 L 31.3947,0.552185 L 31.3145,0.722626
 L 31.2135,0.881668 L 31.0934,1.02681 L 30.9561,1.15576 L 30.8037,1.26648 L 30.6387,1.35724 L 30.4635,1.42657
 L 30.2811,1.47342 L 30.0942,1.49704 z
M -0.0941772,1.49704 L -0.281067,1.47342 L -0.463516,1.42657 L -0.638657,1.35724 L -0.803726,1.26648 L -0.956131,1.15576
 L -1.09344,1.02681 L -1.21352,0.881668 L -1.31445,0.722626 L -1.39465,0.552185 L -1.45287,0.373032 L -1.48816,0.187988
 L -1.5,-0 L -1.48816,-0.187988 L -1.45287,-0.373032 L -1.39465,-0.552185 L -1.31445,-0.722626 L -1.21352,-0.881668
 L -1.09344,-1.02681 L -0.956131,-1.15576 L -0.803726,-1.26648 L -0.638657,-1.35724 L -0.463516,-1.42657 L -0.281067,-1.47342
 L -0.0941772,-1.49704 L 0.0941772,-1.49704 L 0.281067,-1.47342 L 0.463516,-1.42657 L 0.638657,-1.35724 L 0.803726,-1.26648
 L 0.956131,-1.15576 L 1.09344,-1.02681 L 1.21352,-0.881668 L 1.31445,-0.722626 L 1.39465,-0.552185 L 1.45287,-0.373032
 L 1.48816,-0.187988 L 1.5,-0 L 1.48816,0.187988 L 1.45287,0.373032 L 1.39465,0.552185 L 1.31445,0.722626
 L 1.21352,0.881668 L 1.09344,1.02681 L 0.956131,1.15576 L 0.803726,1.26648 L 0.638657,1.35724 L 0.463516,1.42657
 L 0.281067,1.47342 L 0.0941772,1.49704 z
M 14.9058,8.99704 L 14.7189,8.97342 L 14.5365,8.92657 L 14.3613,8.85724 L 14.1963,8.76648 L 14.0439,8.65576
 L 13.9065,8.52681 L 13.7865,8.38167 L 13.6855,8.22263 L 13.6053,8.05219 L 13.5471,7.87303 L 13.5118,7.68799
 L 13.5,7.5 L 13.5118,7.312 L 13.5471,7.12695 L 13.6053,6.9478 L 13.6855,6.77736 L 13.7865,6.61832
 L 13.9065,6.47318 L 14.0439,6.34422 L 14.1963,6.23351 L 14.3613,6.14275 L 14.5365,6.07341 L 14.7189,6.02657
 L 14.9058,6.00294 L 15.0942,6.00294 L 15.2811,6.02657 L 15.4635,6.07341 L 15.6387,6.14275 L 15.8037,6.23351
 L 15.9561,6.34422 L 16.0934,6.47318 L 16.2135,6.61832 L 16.3145,6.77736 L 16.3947,6.9478 L 16.4529,7.12695
 L 16.4882,7.312 L 16.5,7.5 L 16.4882,7.68799 L 16.4529,7.87303 L 16.3947,8.05219 L 16.3145,8.22263
 L 16.2135,8.38167 L 16.0934,8.52681 L 15.9561,8.65576 L 15.8037,8.76648 L 15.6387,8.85724 L 15.4635,8.92657
 L 15.2811,8.97342 L 15.0942,8.99704 z
M 22.4058,8.99704 L 22.2189,8.97342 L 22.0365,8.92657 L 21.8613,8.85724 L 21.6963,8.76648 L 21.5439,8.65576
 L 21.4065,8.52681 L 21.2865,8.38167 L 21.1855,8.22263 L 21.1053,8.05219 L 21.0471,7.87303 L 21.0118,7.68799
 L 21,7.5 L 21.0118,7.312 L 21.0471,7.12695 L 21.1053,6.9478 L 21.1855,6.77736 L 21.2865,6.61832
 L 21.4065,6.47318 L 21.5439,6.34422 L 21.6963,6.23351 L 21.8613,6.14275 L 22.0365,6.07341 L 22.2189,6.02657
 L 22.4058,6.00294 L 22.5942,6.00294 L 22.7811,6.02657 L 22.9635,6.07341 L 23.1387,6.14275 L 23.3037,6.23351
 L 23.4561,6.34422 L 23.5934,6.47318 L 23.7135,6.61832 L 23.8145,6.77736 L 23.8947,6.9478 L 23.9529,7.12695
 L 23.9882,7.312 L 24,7.5 L 23.9882,7.68799 L 23.9529,7.87303 L 23.8947,8.05219 L 23.8145,8.22263
 L 23.7135,8.38167 L 23.5934,8.52681 L 23.4561,8.65576 L 23.3037,8.76648 L 23.1387,8.85724 L 22.9635,8.92657
 L 22.7811,8.97342 L 22.5942,8.99704 z
M -30.0942,8.99704 L -30.2811,8.97342 L -30.4635,8.92657 L -30.6387,8.85724 L -30.8037,8.76648 L -30.9561,8.65576
 L -31.0934,8.52681 L -31.2135,8.38167 L -31.3145,8.22263 L -31.3947,8.05219 L -31.4529,7.87303 L -31.4882,7.68799
 L -31.5,7.5 L -31.4882,7.312 L -31.4529,7.12695 L -31.3947,6.9478 L -31.3145,6.77736 L -31.2135,6.61832
 L -31.0934,6.47318 L -30.9561,6.34422 L -30.8037,6.23351 L -30.6387,6.14275 L -30.4635,6.07341 L -30.2811,6.02657
 L -30.0942,6.00294 L -29.9058,6.00294 L -29.7189,6.02657 L -29.5365,6.07341 L -29.3613,6.14275 L -29.1963,6.23351
 L -29.0439,6.34422 L -28.9065,6.47318 L -28.7865,6.61832 L -28.6855,6.77736 L -28.6053,6.9478 L -28.5471,7.12695
 L -28.5118,7.312 L -28.5,7.5 L -28.5118,7.68799 L -28.5471,7.87303 L -28.6053,8.05219 L -28.6855,8.22263
 L -28.7865,8.38167 L -28.9065,8.52681 L -29.0439,8.65576 L -29.1963,8.76648 L -29.3613,8.85724 L -29.5365,8.92657
 L -29.7189,8.97342 L -29.9058,8.99704 z
M 29.9058,8.99704 L 29.7189,8.97342 L 29.5365,8.92657 L 29.3613,8.85724 L 29.1963,8.76648 L 29.0439,8.65576
 L 28.9065,8.52681 L 28.7865,8.38167 L 28.6855,8.22263 L 28.6053,8.05219 L 28.5471,7.87303 L 28.5118,7.68799
 L 28.5,7.5 L 28.5118,7.312 L 28.5471,7.12695 L 28.6053,6.9478 L 28.6855,6.77736 L 28.7865,6.61832
 L 28.9065,6.47318 L 29.0439,6.34422 L 29.1963,6.23351 L 29.3613,6.14275 L 29.5365,6.07341 L 29.7189,6.02657
 L 29.9058,6.00294 L 30.0942,6.00294 L 30.2811,6.02657 L 30.4635,6.07341 L 30.6387,6.14275 L 30.8037,6.23351
 L 30.9561,6.34422 L 31.0934,6.47318 L 31.2135,6.61832 L 31.3145,6.77736 L 31.3947,6.9478 L 31.4529,7.12695
 L 31.4882,7.312 L 31.5,7.5 L 31.4882,7.68799 L 31.4529,7.87303 L 31.3947,8.05219 L 31.3145,8.22263
 L 31.2135,8.38167 L 31.0934,8.52681 L 30.9561,8.65576 L 30.8037,8.76648 L 30.6387,8.85724 L 30.4635,8.92657
 L 30.2811,8.97342 L 30.0942,8.99704 z
M -0.0941772,8.99704 L -0.281067,8.97342 L -0.463516,8.92657 L -0.638657,8.85724 L -0.803726,8.76648 L -0.956131,8.65576
 L -1.09344,8.52681 L -1.21352,8.38167 L -1.31445,8.22263 L -1.39465,8.05219 L -1.45287,7.87303 L -1.48816,7.68799
 L -1.5,7.5 L -1.48816,7.312 L -1.45287,7.12695 L -1.39465,6.9478 L -1.31445,6.77736 L -1.21352,6.61832
 L -1.09344,6.47318 L -0.956131,6.34422 L -0.803726,6.23351 L -0.638657,6.14275 L -0.463516,6.07341 L -0.281067,6.02657
 L -0.0941772,6.00294 L 0.0941772,6.00294 L 0.281067,6.02657 L 0.463516,6.07341 L 0.638657,6.14275 L 0.803726,6.23351
 L 0.956131,6.34422 L 1.09344,6.47318 L 1.21352,6.61832 L 1.31445,6.77736 L 1.39465,6.9478 L 1.45287,7.12695
 L 1.48816,7.312 L 1.5,7.5 L 1.48816,7.68799 L 1.45287,7.87303 L 1.39465,8.05219 L 1.31445,8.22263
 L 1.21352,8.38167 L 1.09344,8.52681 L 0.956131,8.65576 L 0.803726,8.76648 L 0.638657,8.85724 L 0.463516,8.92657
 L 0.281067,8.97342 L 0.0941772,8.99704 z
M 7.40581,8.99704 L 7.21892,8.97342 L 7.03647,8.92657 L 6.86133,8.85724 L 6.69626,8.76648 L 6.54385,8.65576
 L 6.40654,8.52681 L 6.28647,8.38167 L 6.18553,8.22263 L 6.10533,8.05219 L 6.04712,7.87303 L 6.01183,7.68799
 L 6,7.5 L 6.01183,7.312 L 6.04712,7.12695 L 6.10533,6.9478 L 6.18553,6.77736 L 6.28647,6.61832
 L 6.40654,6.47318 L 6.54385,6.34422 L 6.69626,6.23351 L 6.86133,6.14275 L 7.03647,6.07341 L 7.21892,6.02657
 L 7.40581,6.00294 L 7.59418,6.00294 L 7.78107,6.02657 L 7.96352,6.07341 L 8.13866,6.14275 L 8.30373,6.23351
 L 8.45613,6.34422 L 8.59344,6.47318 L 8.71352,6.61832 L 8.81445,6.77736 L 8.89465,6.9478 L 8.95287,7.12695
 L 8.98816,7.312 L 9,7.5 L 8.98816,7.68799 L 8.95287,7.87303 L 8.89465,8.05219 L 8.81445,8.22263
 L 8.71352,8.38167 L 8.59344,8.52681 L 8.45613,8.65576 L 8.30373,8.76648 L 8.13866,8.85724 L 7.96352,8.92657
 L 7.78107,8.97342 L 7.59418,8.99704 z
M -15.0942,8.99704 L -15.2811,8.97342 L -15.4635,8.92657 L -15.6387,8.85724 L -15.8037,8.76648 L -15.9561,8.65576
 L -16.0934,8.52681 L -16.2135,8.38167 L -16.3145,8.22263 L -16.3947,8.05219 L -16.4529,7.87303 L -16.4882,7.68799
 L -16.5,7.5 L -16.4882,7.312 L -16.4529,7.12695 L -16.3947,6.9478 L -16.3145,6.77736 L -16.2135,6.61832
 L -16.0934,6.47318 L -15.9561,6.34422 L -15.8037,6.23351 L -15.6387,6.14275 L -15.4635,6.07341 L -15.2811,6.02657
 L -15.0942,6.00294 L -14.9058,6.00294 L -14.7189,6.02657 L -14.5365,6.07341 L -14.3613,6.14275 L -14.1963,6.23351
 L -14.0439,6.34422 L -13.9065,6.47318 L -13.7865,6.61832 L -13.6855,6.77736 L -13.6053,6.9478 L -13.5471,7.12695
 L -13.5118,7.312 L -13.5,7.5 L -13.5118,7.68799 L -13.5471,7.87303 L -13.6053,8.05219 L -13.6855,8.22263
 L -13.7865,8.38167 L -13.9065,8.52681 L -14.0439,8.65576 L -14.1963,8.76648 L -14.3613,8.85724 L -14.5365,8.92657
 L -14.7189,8.97342 L -14.9058,8.99704 z
M -7.59418,8.99704 L -7.78107,8.97342 L -7.96352,8.92657 L -8.13866,8.85724 L -8.30373,8.76648 L -8.45613,8.65576
 L -8.59344,8.52681 L -8.71352,8.38167 L -8.81445,8.22263 L -8.89465,8.05219 L -8.95287,7.87303 L -8.98816,7.68799
 L -9,7.5 L -8.98816,7.312 L -8.95287,7.12695 L -8.89465,6.9478 L -8.81445,6.77736 L -8.71352,6.61832
 L -8.59344,6.47318 L -8.45613,6.34422 L -8.30373,6.23351 L -8.13866,6.14275 L -7.96352,6.07341 L -7.78107,6.02657
 L -7.59418,6.00294 L -7.40581,6.00294 L -7.21892,6.02657 L -7.03647,6.07341 L -6.86133,6.14275 L -6.69626,6.23351
 L -6.54385,6.34422 L -6.40654,6.47318 L -6.28647,6.61832 L -6.18553,6.77736 L -6.10533,6.9478 L -6.04712,7.12695
 L -6.01183,7.312 L -6,7.5 L -6.01183,7.68799 L -6.04712,7.87303 L -6.10533,8.05219 L -6.18553,8.22263
 L -6.28647,8.38167 L -6.40654,8.52681 L -6.54385,8.65576 L -6.69626,8.76648 L -6.86133,8.85724 L -7.03647,8.92657
 L -7.21892,8.97342 L -7.40581,8.99704 z
M -22.5942,8.99704 L -22.7811,8.97342 L -22.9635,8.92657 L -23.1387,8.85724 L -23.3037,8.76648 L -23.4561,8.65576
 L -23.5934,8.52681 L -23.7135,8.38167 L -23.8145,8.22263 L -23.8947,8.05219 L -23.9529,7.87303 L -23.9882,7.68799
 L -24,7.5 L -23.9882,7.312 L -23.9529,7.12695 L -23.8947,6.9478 L -23.8145,6.77736 L -23.7135,6.61832
 L -23.5934,6.47318 L -23.4561,6.34422 L -23.3037,6.23351 L -23.1387,6.14275 L -22.9635,6.07341 L -22.7811,6.02657
 L -22.5942,6.00294 L -22.4058,6.00294 L -22.2189,6.02657 L -22.0365,6.07341 L -21.8613,6.14275 L -21.6963,6.23351
 L -21.5439,6.34422 L -21.4065,6.47318 L -21.2865,6.61832 L -21.1855,6.77736 L -21.1053,6.9478 L -21.0471,7.12695
 L -21.0118,7.312 L -21,7.5 L -21.0118,7.68799 L -21.0471,7.87303 L -21.1053,8.05219 L -21.1855,8.22263
 L -21.2865,8.38167 L -21.4065,8.52681 L -21.5439,8.65576 L -21.6963,8.76648 L -21.8613,8.85724 L -22.0365,8.92657
 L -22.2189,8.97342 L -22.4058,8.99704 z
M -15.0942,16.497 L -15.2811,16.4734 L -15.4635,16.4266 L -15.6387,16.3572 L -15.8037,16.2665 L -15.9561,16.1558
 L -16.0934,16.0268 L -16.2135,15.8817 L -16.3145,15.7226 L -16.3947,15.5522 L -16.4529,15.373 L -16.4882,15.188
 L -16.5,15 L -16.4882,14.812 L -16.4529,14.627 L -16.3947,14.4478 L -16.3145,14.2774 L -16.2135,14.1183
 L -16.0934,13.9732 L -15.9561,13.8442 L -15.8037,13.7335 L -15.6387,13.6427 L -15.4635,13.5734 L -15.2811,13.5266
 L -15.0942,13.5029 L -14.9058,13.5029 L -14.7189,13.5266 L -14.5365,13.5734 L -14.3613,13.6427 L -14.1963,13.7335
 L -14.0439,13.8442 L -13.9065,13.9732 L -13.7865,14.1183 L -13.6855,14.2774 L -13.6053,14.4478 L -13.5471,14.627
 L -13.5118,14.812 L -13.5,15 L -13.5118,15.188 L -13.5471,15.373 L -13.6053,15.5522 L -13.6855,15.7226
 L -13.7865,15.8817 L -13.9065,16.0268 L -14.0439,16.1558 L -14.1963,16.2665 L -14.3613,16.3572 L -14.5365,16.4266
 L -14.7189,16.4734 L -14.9058,16.497 z
M 22.4058,16.497 L 22.2189,16.4734 L 22.0365,16.4266 L 21.8613,16.3572 L 21.6963,16.2665 L 21.5439,16.1558
 L 21.4065,16.0268 L 21.2865,15.8817 L 21.1855,15.7226 L 21.1053,15.5522 L 21.0471,15.373 L 21.0118,15.188
 L 21,15 L 21.0118,14.812 L 21.0471,14.627 L 21.1053,14.4478 L 21.1855,14.2774 L 21.2865,14.1183
 L 21.4065,13.9732 L 21.5439,13.8442 L 21.6963,13.7335 L 21.8613,13.6427 L 22.0365,13.5734 L 22.2189,13.5266
 L 22.4058,13.5029 L 22.5942,13.5029 L 22.7811,13.5266 L 22.9635,13.5734 L 23.1387,13.6427 L 23.3037,13.7335
 L 23.4561,13.8442 L 23.5934,13.9732 L 23.7135,14.1183 L 23.8145,14.2774 L 23.8947,14.4478 L 23.9529,14.627
 L 23.9882,14.812 L 24,15 L 23.9882,15.188 L 23.9529,15.373 L 23.8947,15.5522 L 23.8145,15.7226
 L 23.7135,15.8817 L 23.5934,16.0268 L 23.4561,16.1558 L 23.3037,16.2665 L 23.1387,16.3572 L 22.9635,16.4266
 L 22.7811,16.4734 L 22.5942,16.497 z
M -30.0942,16.497 L -30.2811,16.4734 L -30.4635,16.4266 L -30.6387,16.3572 L -30.8037,16.2665 L -30.9561,16.1558
 L -31.0934,16.0268 L -31.2135,15.8817 L -31.3145,15.7226 L -31.3947,15.5522 L -31.4529,15.373 L -31.4882,15.188
 L -31.5,15 L -31.4882,14.812 L -31.4529,14.627 L -31.3947,14.4478 L -31.3145,14.2774 L -31.2135,14.1183
 L -31.0934,13.9732 L -30.9561,13.8442 L -30.8037,13.7335 L -30.6387,13.6427 L -30.4635,13.5734 L -30.2811,13.5266
 L -30.0942,13.5029 L -29.9058,13.5029 L -29.7189,13.5266 L -29.5365,13.5734 L -29.3613,13.6427 L -29.1963,13.7335
 L -29.0439,13.8442 L -28.9065,13.9732 L -28.7865,14.1183 L -28.6855,14.2774 L -28.6053,14.4478 L -28.5471,14.627
 L -28.5118,14.812 L -28.5,15 L -28.5118,15.188 L -28.5471,15.373 L -28.6053,15.5522 L -28.6855,15.7226
 L -28.7865,15.8817 L -28.9065,16.0268 L -29.0439,16.1558 L -29.1963,16.2665 L -29.3613,16.3572 L -29.5365,16.4266
 L -29.7189,16.4734 L -29.9058,16.497 z
M -22.5942,16.497 L -22.7811,16.4734 L -22.9635,16.4266 L -23.1387,16.3572 L -23.3037,16.2665 L -23.4561,16.1558
 L -23.5934,16.0268 L -23.7135,15.8817 L -23.8145,15.7226 L -23.8947,15.5522 L -23.9529,15.373 L -23.9882,15.188
 L -24,15 L -23.9882,14.812 L -23.9529,14.627 L -23.8947,14.4478 L -23.8145,14.2774 L -23.7135,14.1183
 L -23.5934,13.9732 L -23.4561,13.8442 L -23.3037,13.7335 L -23.1387,13.6427 L -22.9635,13.5734 L -22.7811,13.5266
 L -22.5942,13.5029 L -22.4058,13.5029 L -22.2189,13.5266 L -22.0365,13.5734 L -21.8613,13.6427 L -21.6963,13.7335
 L -21.5439,13.8442 L -21.4065,13.9732 L -21.2865,14.1183 L -21.1855,14.2774 L -21.1053,14.4478 L -21.0471,14.627
 L -21.0118,14.812 L -21,15 L -21.0118,15.188 L -21.0471,15.373 L -21.1053,15.5522 L -21.1855,15.7226
 L -21.2865,15.8817 L -21.4065,16.0268 L -21.5439,16.1558 L -21.6963,16.2665 L -21.8613,16.3572 L -22.0365,16.4266
 L -22.2189,16.4734 L -22.4058,16.497 z
M -7.59418,16.497 L -7.78107,16.4734 L -7.96352,16.4266 L -8.13866,16.3572 L -8.30373,16.2665 L -8.45613,16.1558
 L -8.59344,16.0268 L -8.71352,15.8817 L -8.81445,15.7226 L -8.89465,15.5522 L -8.95287,15.373 L -8.98816,15.188
 L -9,15 L -8.98816,14.812 L -8.95287,14.627 L -8.89465,14.4478 L -8.81445,14.2774 L -8.71352,14.1183
 L -8.59344,13.9732 L -8.45613,13.8442 L -8.30373,13.7335 L -8.13866,13.6427 L -7.96352,13.5734 L -7.78107,13.5266
 L -7.59418,13.5029 L -7.40581,13.5029 L -7.21892,13.5266 L -7.03647,13.5734 L -6.86133,13.6427 L -6.69626,13.7335
 L -6.54385,13.8442 L -6.40654,13.9732 L -6.28647,14.1183 L -6.18553,14.2774 L -6.10533,14.4478 L -6.04712,14.627
 L -6.01183,14.812 L -6,15 L -6.01183,15.188 L -6.04712,15.373 L -6.10533,15.5522 L -6.18553,15.7226
 L -6.28647,15.8817 L -6.40654,16.0268 L -6.54385,16.1558 L -6.69626,16.2665 L -6.86133,16.3572 L -7.03647,16.4266
 L -7.21892,16.4734 L -7.40581,16.497 z
M 14.9058,16.497 L 14.7189,16.4734 L 14.5365,16.4266 L 14.3613,16.3572 L 14.1963,16.2665 L 14.0439,16.1558
 L 13.9065,16.0268 L 13.7865,15.8817 L 13.6855,15.7226 L 13.6053,15.5522 L 13.5471,15.373 L 13.5118,15.188
 L 13.5,15 L 13.5118,14.812 L 13.5471,14.627 L 13.6053,14.4478 L 13.6855,14.2774 L 13.7865,14.1183
 L 13.9065,13.9732 L 14.0439,13.8442 L 14.1963,13.7335 L 14.3613,13.6427 L 14.5365,13.5734 L 14.7189,13.5266
 L 14.9058,13.5029 L 15.0942,13.5029 L 15.2811,13.5266 L 15.4635,13.5734 L 15.6387,13.6427 L 15.8037,13.7335
 L 15.9561,13.8442 L 16.0934,13.9732 L 16.2135,14.1183 L 16.3145,14.2774 L 16.3947,14.4478 L 16.4529,14.627
 L 16.4882,14.812 L 16.5,15 L 16.4882,15.188 L 16.4529,15.373 L 16.3947,15.5522 L 16.3145,15.7226
 L 16.2135,15.8817 L 16.0934,16.0268 L 15.9561,16.1558 L 15.8037,16.2665 L 15.6387,16.3572 L 15.4635,16.4266
 L 15.2811,16.4734 L 15.0942,16.497 z
M 7.40581,16.497 L 7.21892,16.4734 L 7.03647,16.4266 L 6.86133,16.3572 L 6.69626,16.2665 L 6.54385,16.1558
 L 6.40654,16.0268 L 6.28647,15.8817 L 6.18553,15.7226 L 6.10533,15.5522 L 6.04712,15.373 L 6.01183,15.188
 L 6,15 L 6.01183,14.812 L 6.04712,14.627 L 6.10533,14.4478 L 6.18553,14.2774 L 6.28647,14.1183
 L 6.40654,13.9732 L 6.54385,13.8442 L 6.69626,13.7335 L 6.86133,13.6427 L 7.03647,13.5734 L 7.21892,13.5266
 L 7.40581,13.5029 L 7.59418,13.5029 L 7.78107,13.5266 L 7.96352,13.5734 L 8.13866,13.6427 L 8.30373,13.7335
 L 8.45613,13.8442 L 8.59344,13.9732 L 8.71352,14.1183 L 8.81445,14.2774 L 8.89465,14.4478 L 8.95287,14.627
 L 8.98816,14.812 L 9,15 L 8.98816,15.188 L 8.95287,15.373 L 8.89465,15.5522 L 8.81445,15.7226
 L 8.71352,15.8817 L 8.59344,16.0268 L 8.45613,16.1558 L 8.30373,16.2665 L 8.13866,16.3572 L 7.96352,16.4266
 L 7.78107,16.4734 L 7.59418,16.497 z
M 29.9058,16.497 L 29.7189,16.4734 L 29.5365,16.4266 L 29.3613,16.3572 L 29.1963,16.2665 L 29.0439,16.1558
 L 28.9065,16.0268 L 28.7865,15.8817 L 28.6855,15.7226 L 28.6053,15.5522 L 28.5471,15.373 L 28.5118,15.188
 L 28.5,15 L 28.5118,14.812 L 28.5471,14.627 L 28.6053,14.4478 L 28.6855,14.2774 L 28.7865,14.1183
 L 28.9065,13.9732 L 29.0439,13.8442 L 29.1963,13.7335 L 29.3613,13.6427 L 29.5365,13.5734 L 29.7189,13.5266
 L 29.9058,13.5029 L 30.0942,13.5029 L 30.2811,13.5266 L 30.4635,13.5734 L 30.6387,13.6427 L 30.8037,13.7335
 L 30.9561,13.8442 L 31.0934,13.9732 L 31.2135,14.1183 L 31.3145,14.2774 L 31.3947,14.4478 L 31.4529,14.627
 L 31.4882,14.812 L 31.5,15 L 31.4882,15.188 L 31.4529,15.373 L 31.3947,15.5522 L 31.3145,15.7226
 L 31.2135,15.8817 L 31.0934,16.0268 L 30.9561,16.1558 L 30.8037,16.2665 L 30.6387,16.3572 L 30.4635,16.4266
 L 30.2811,16.4734 L 30.0942,16.497 z
M -0.0941772,16.497 L -0.281067,16.4734 L -0.463516,16.4266 L -0.638657,16.3572 L -0.803726,16.2665 L -0.956131,16.1558
 L -1.09344,16.0268 L -1.21352,15.8817 L -1.31445,15.7226 L -1.39465,15.5522 L -1.45287,15.373 L -1.48816,15.188
 L -1.5,15 L -1.48816,14.812 L -1.45287,14.627 L -1.39465,14.4478 L -1.31445,14.2774 L -1.21352,14.1183
 L -1.09344,13.9732 L -0.956131,13.8442 L -0.803726,13.7335 L -0.638657,13.6427 L -0.463516,13.5734 L -0.281067,13.5266
 L -0.0941772,13.5029 L 0.0941772,13.5029 L 0.281067,13.5266 L 0.463516,13.5734 L 0.638657,13.6427 L 0.803726,13.7335
 L 0.956131,13.8442 L 1.09344,13.9732 L 1.21352,14.1183 L 1.31445,14.2774 L 1.39465,14.4478 L 1.45287,14.627
 L 1.48816,14.812 L 1.5,15 L 1.48816,15.188 L 1.45287,15.373 L 1.39465,15.5522 L 1.31445,15.7226
 L 1.21352,15.8817 L 1.09344,16.0268 L 0.956131,16.1558 L 0.803726,16.2665 L 0.638657,16.3572 L 0.463516,16.4266
 L 0.281067,16.4734 L 0.0941772,16.497 z
M -7.59418,23.997 L -7.78107,23.9734 L -7.96352,23.9266 L -8.13866,23.8572 L -8.30373,23.7665 L -8.45613,23.6558
 L -8.59344,23.5268 L -8.71352,23.3817 L -8.81445,23.2226 L -8.89465,23.0522 L -8.95287,22.873 L -8.98816,22.688
 L -9,22.5 L -8.98816,22.312 L -8.95287,22.127 L -8.89465,21.9478 L -8.81445,21.7774 L -8.71352,21.6183
 L -8.59344,21.4732 L -8.45613,21.3442 L -8.30373,21.2335 L -8.13866,21.1427 L -7.96352,21.0734 L -7.78107,21.0266
 L -7.59418,21.003 L -7.40581,21.003 L -7.21892,21.0266 L -7.03647,21.0734 L -6.86133,21.1427 L -6.69626,21.2335
 L -6.54385,21.3442 L -6.40654,21.4732 L -6.28647,21.6183 L -6.18553,21.7774 L -6.10533,21.9478 L -6.04712,22.127
 L -6.01183,22.312 L -6,22.5 L -6.01183,22.688 L -6.04712,22.873 L -6.10533,23.0522 L -6.18553,23.2226
 L -6.28647,23.3817 L -6.40654,23.5268 L -6.54385,23.6558 L -6.69626,23.7665 L -6.86133,23.8572 L -7.03647,23.9266
 L -7.21892,23.9734 L -7.40581,23.997 z
M 29.9058,23.997 L 29.7189,23.9734 L 29.5365,23.9266 L 29.3613,23.8572 L 29.1963,23.7665 L 29.0439,23.6558
 L 28.9065,23.5268 L 28.7865,23.3817 L 28.6855,23.2226 L 28.6053,23.0522 L 28.5471,22.873 L 28.5118,22.688
 L 28.5,22.5 L 28.5118,22.312 L 28.5471,22.127 L 28.6053,21.9478 L 28.6855,21.7774 L 28.7865,21.6183
 L 28.9065,21.4732 L 29.0439,21.3442 L 29.1963,21.2335 L 29.3613,21.1427 L 29.5365,21.0734 L 29.7189,21.0266
 L 29.9058,21.003 L 30.0942,21.003 L 30.2811,21.0266 L 30.4635,21.0734 L 30.6387,21.1427 L 30.8037,21.2335
 L 30.9561,21.3442 L 31.0934,21.4732 L 31.2135,21.6183 L 31.3145,21.7774 L 31.3947,21.9478 L 31.4529,22.127
 L 31.4882,22.312 L 31.5,22.5 L 31.4882,22.688 L 31.4529,22.873 L 31.3947,23.0522 L 31.3145,23.2226
 L 31.2135,23.3817 L 31.0934,23.5268 L 30.9561,23.6558 L 30.8037,23.7665 L 30.6387,23.8572 L 30.4635,23.9266
 L 30.2811,23.9734 L 30.0942,23.997 z
M 22.4058,23.997 L 22.2189,23.9734 L 22.0365,23.9266 L 21.8613,23.8572 L 21.6963,23.7665 L 21.5439,23.6558
 L 21.4065,23.5268 L 21.2865,23.3817 L 21.1855,23.2226 L 21.1053,23.0522 L 21.0471,22.873 L 21.0118,22.688
 L 21,22.5 L 21.0118,22.312 L 21.0471,22.127 L 21.1053,21.9478 L 21.1855,21.7774 L 21.2865,21.6183
 L 21.4065,21.4732 L 21.5439,21.3442 L 21.6963,21.2335 L 21.8613,21.1427 L 22.0365,21.0734 L 22.2189,21.0266
 L 22.4058,21.003 L 22.5942,21.003 L 22.7811,21.0266 L 22.9635,21.0734 L 23.1387,21.1427 L 23.3037,21.2335
 L 23.4561,21.3442 L 23.5934,21.4732 L 23.7135,21.6183 L 23.8145,21.7774 L 23.8947,21.9478 L 23.9529,22.127
 L 23.9882,22.312 L 24,22.5 L 23.9882,22.688 L 23.9529,22.873 L 23.8947,23.0522 L 23.8145,23.2226
 L 23.7135,23.3817 L 23.5934,23.5268 L 23.4561,23.6558 L 23.3037,23.7665 L 23.1387,23.8572 L 22.9635,23.9266
 L 22.7811,23.9734 L 22.5942,23.997 z
M -0.0941772,23.997 L -0.281067,23.9734 L -0.463516,23.9266 L -0.638657,23.8572 L -0.803726,23.7665 L -0.956131,23.6558
 L -1.09344,23.5268 L -1.21352,23.3817 L -1.31445,23.2226 L -1.39465,23.0522 L -1.45287,22.873 L -1.48816,22.688
 L -1.5,22.5 L -1.48816,22.312 L -1.45287,22.127 L -1.39465,21.9478 L -1.31445,21.7774 L -1.21352,21.6183
 L -1.09344,21.4732 L -0.956131,21.3442 L -0.803726,21.2335 L -0.638657,21.1427 L -0.463516,21.0734 L -0.281067,21.0266
 L -0.0941772,21.003 L 0.0941772,21.003 L 0.281067,21.0266 L 0.463516,21.0734 L 0.638657,21.1427 L 0.803726,21.2335
 L 0.956131,21.3442 L 1.09344,21.4732 L 1.21352,21.6183 L 1.31445,21.7774 L 1.39465,21.9478 L 1.45287,22.127
 L 1.48816,22.312 L 1.5,22.5 L 1.48816,22.688 L 1.45287,22.873 L 1.39465,23.0522 L 1.31445,23.2226
 L 1.21352,23.3817 L 1.09344,23.5268 L 0.956131,23.6558 L 0.803726,23.7665 L 0.638657,23.8572 L 0.463516,23.9266
 L 0.281067,23.9734 L 0.0941772,23.997 z
M 7.40581,23.997 L 7.21892,23.9734 L 7.03647,23.9266 L 6.86133,23.8572 L 6.69626,23.7665 L 6.54385,23.6558
 L 6.40654,23.5268 L 6.28647,23.3817 L 6.18553,23.2226 L 6.10533,23.0522 L 6.04712,22.873 L 6.01183,22.688
 L 6,22.5 L 6.01183,22.312 L 6.04712,22.127 L 6.10533,21.9478 L 6.18553,21.7774 L 6.28647,21.6183
 L 6.40654,21.4732 L 6.54385,21.3442 L 6.69626,21.2335 L 6.86133,21.1427 L 7.03647,21.0734 L 7.21892,21.0266
 L 7.40581,21.003 L 7.59418,21.003 L 7.78107,21.0266 L 7.96352,21.0734 L 8.13866,21.1427 L 8.30373,21.2335
 L 8.45613,21.3442 L 8.59344,21.4732 L 8.71352,21.6183 L 8.81445,21.7774 L 8.89465,21.9478 L 8.95287,22.127
 L 8.98816,22.312 L 9,22.5 L 8.98816,22.688 L 8.95287,22.873 L 8.89465,23.0522 L 8.81445,23.2226
 L 8.71352,23.3817 L 8.59344,23.5268 L 8.45613,23.6558 L 8.30373,23.7665 L 8.13866,23.8572 L 7.96352,23.9266
 L 7.78107,23.9734 L 7.59418,23.997 z
M -30.0942,23.997 L -30.2811,23.9734 L -30.4635,23.9266 L -30.6387,23.8572 L -30.8037,23.7665 L -30.9561,23.6558
 L -31.0934,23.5268 L -31.2135,23.3817 L -31.3145,23.2226 L -31.3947,23.0522 L -31.4529,22.873 L -31.4882,22.688
 L -31.5,22.5 L -31.4882,22.312 L -31.4529,22.127 L -31.3947,21.9478 L -31.3145,21.7774 L -31.2135,21.6183
 L -31.0934,21.4732 L -30.9561,21.3442 L -30.8037,21.2335 L -30.6387,21.1427 L -30.4635,21.0734 L -30.2811,21.0266
 L -30.0942,21.003 L -29.9058,21.003 L -29.7189,21.0266 L -29.5365,21.0734 L -29.3613,21.1427 L -29.1963,21.2335
 L -29.0439,21.3442 L -28.9065,21.4732 L -28.7865,21.6183 L -28.6855,21.7774 L -28.6053,21.9478 L -28.5471,22.127
 L -28.5118,22.312 L -28.5,22.5 L -28.5118,22.688 L -28.5471,22.873 L -28.6053,23.0522 L -28.6855,23.2226
 L -28.7865,23.3817 L -28.9065,23.5268 L -29.0439,23.6558 L -29.1963,23.7665 L -29.3613,23.8572 L -29.5365,23.9266
 L -29.7189,23.9734 L -29.9058,23.997 z
M -22.5942,23.997 L -22.7811,23.9734 L -22.9635,23.9266 L -23.1387,23.8572 L -23.3037,23.7665 L -23.4561,23.6558
 L -23.5934,23.5268 L -23.7135,23.3817 L -23.8145,23.2226 L -23.8947,23.0522 L -23.9529,22.873 L -23.9882,22.688
 L -24,22.5 L -23.9882,22.312 L -23.9529,22.127 L -23.8947,21.9478 L -23.8145,21.7774 L -23.7135,21.6183
 L -23.5934,21.4732 L -23.4561,21.3442 L -23.3037,21.2335 L -23.1387,21.1427 L -22.9635,21.0734 L -22.7811,21.0266
 L -22.5942,21.003 L -22.4058,21.003 L -22.2189,21.0266 L -22.0365,21.0734 L -21.8613,21.1427 L -21.6963,21.2335
 L -21.5439,21.3442 L -21.4065,21.4732 L -21.2865,21.6183 L -21.1855,21.7774 L -21.1053,21.9478 L -21.0471,22.127
 L -21.0118,22.312 L -21,22.5 L -21.0118,22.688 L -21.0471,22.873 L -21.1053,23.0522 L -21.1855,23.2226
 L -21.2865,23.3817 L -21.4065,23.5268 L -21.5439,23.6558 L -21.6963,23.7665 L -21.8613,23.8572 L -22.0365,23.9266
 L -22.2189,23.9734 L -22.4058,23.997 z
M -15.0942,23.997 L -15.2811,23.9734 L -15.4635,23.9266 L -15.6387,23.8572 L -15.8037,23.7665 L -15.9561,23.6558
 L -16.0934,23.5268 L -16.2135,23.3817 L -16.3145,23.2226 L -16.3947,23.0522 L -16.4529,22.873 L -16.4882,22.688
 L -16.5,22.5 L -16.4882,22.312 L -16.4529,22.127 L -16.3947,21.9478 L -16.3145,21.7774 L -16.2135,21.6183
 L -16.0934,21.4732 L -15.9561,21.3442 L -15.8037,21.2335 L -15.6387,21.1427 L -15.4635,21.0734 L -15.2811,21.0266
 L -15.0942,21.003 L -14.9058,21.003 L -14.7189,21.0266 L -14.5365,21.0734 L -14.3613,21.1427 L -14.1963,21.2335
 L -14.0439,21.3442 L -13.9065,21.4732 L -13.7865,21.6183 L -13.6855,21.7774 L -13.6053,21.9478 L -13.5471,22.127
 L -13.5118,22.312 L -13.5,22.5 L -13.5118,22.688 L -13.5471,22.873 L -13.6053,23.0522 L -13.6855,23.2226
 L -13.7865,23.3817 L -13.9065,23.5268 L -14.0439,23.6558 L -14.1963,23.7665 L -14.3613,23.8572 L -14.5365,23.9266
 L -14.7189,23.9734 L -14.9058,23.997 z
M 14.9058,23.997 L 14.7189,23.9734 L 14.5365,23.9266 L 14.3613,23.8572 L 14.1963,23.7665 L 14.0439,23.6558
 L 13.9065,23.5268 L 13.7865,23.3817 L 13.6855,23.2226 L 13.6053,23.0522 L 13.5471,22.873 L 13.5118,22.688
 L 13.5,22.5 L 13.5118,22.312 L 13.5471,22.127 L 13.6053,21.9478 L 13.6855,21.7774 L 13.7865,21.6183
 L 13.9065,21.4732 L 14.0439,21.3442 L 14.1963,21.2335 L 14.3613,21.1427 L 14.5365,21.0734 L 14.7189,21.0266
 L 14.9058,21.003 L 15.0942,21.003 L 15.2811,21.0266 L 15.4635,21.0734 L 15.6387,21.1427 L 15.8037,21.2335
 L 15.9561,21.3442 L 16.0934,21.4732 L 16.2135,21.6183 L 16.3145,21.7774 L 16.3947,21.9478 L 16.4529,22.127
 L 16.4882,22.312 L 16.5,22.5 L 16.4882,22.688 L 16.4529,22.873 L 16.3947,23.0522 L 16.3145,23.2226
 L 16.2135,23.3817 L 16.0934,23.5268 L 15.9561,23.6558 L 15.8037,23.7665 L 15.6387,23.8572 L 15.4635,23.9266
 L 15.2811,23.9734 L 15.0942,23.997 z
M -22.5942,31.497 L -22.7811,31.4734 L -22.9635,31.4266 L -23.1387,31.3572 L -23.3037,31.2665 L -23.4561,31.1558
 L -23.5934,31.0268 L -23.7135,30.8817 L -23.8145,30.7226 L -23.8947,30.5522 L -23.9529,30.373 L -23.9882,30.188
 L -24,30 L -23.9882,29.812 L -23.9529,29.627 L -23.8947,29.4478 L -23.8145,29.2774 L -23.7135,29.1183
 L -23.5934,28.9732 L -23.4561,28.8442 L -23.3037,28.7335 L -23.1387,28.6427 L -22.9635,28.5734 L -22.7811,28.5266
 L -22.5942,28.503 L -22.4058,28.503 L -22.2189,28.5266 L -22.0365,28.5734 L -21.8613,28.6427 L -21.6963,28.7335
 L -21.5439,28.8442 L -21.4065,28.9732 L -21.2865,29.1183 L -21.1855,29.2774 L -21.1053,29.4478 L -21.0471,29.627
 L -21.0118,29.812 L -21,30 L -21.0118,30.188 L -21.0471,30.373 L -21.1053,30.5522 L -21.1855,30.7226
 L -21.2865,30.8817 L -21.4065,31.0268 L -21.5439,31.1558 L -21.6963,31.2665 L -21.8613,31.3572 L -22.0365,31.4266
 L -22.2189,31.4734 L -22.4058,31.497 z
M 7.40581,31.497 L 7.21892,31.4734 L 7.03647,31.4266 L 6.86133,31.3572 L 6.69626,31.2665 L 6.54385,31.1558
 L 6.40654,31.0268 L 6.28647,30.8817 L 6.18553,30.7226 L 6.10533,30.5522 L 6.04712,30.373 L 6.01183,30.188
 L 6,30 L 6.01183,29.812 L 6.04712,29.627 L 6.10533,29.4478 L 6.18553,29.2774 L 6.28647,29.1183
 L 6.40654,28.9732 L 6.54385,28.8442 L 6.69626,28.7335 L 6.86133,28.6427 L 7.03647,28.5734 L 7.21892,28.5266
 L 7.40581,28.503 L 7.59418,28.503 L 7.78107,28.5266 L 7.96352,28.5734 L 8.13866,28.6427 L 8.30373,28.7335
 L 8.45613,28.8442 L 8.59344,28.9732 L 8.71352,29.1183 L 8.81445,29.2774 L 8.89465,29.4478 L 8.95287,29.627
 L 8.98816,29.812 L 9,30 L 8.98816,30.188 L 8.95287,30.373 L 8.89465,30.5522 L 8.81445,30.7226
 L 8.71352,30.8817 L 8.59344,31.0268 L 8.45613,31.1558 L 8.30373,31.2665 L 8.13866,31.3572 L 7.96352,31.4266
 L 7.78107,31.4734 L 7.59418,31.497 z
M -30.0942,31.497 L -30.2811,31.4734 L -30.4635,31.4266 L -30.6387,31.3572 L -30.8037,31.2665 L -30.9561,31.1558
 L -31.0934,31.0268 L -31.2135,30.8817 L -31.3145,30.7226 L -31.3947,30.5522 L -31.4529,30.373 L -31.4882,30.188
 L -31.5,30 L -31.4882,29.812 L -31.4529,29.627 L -31.3947,29.4478 L -31.3145,29.2774 L -31.2135,29.1183
 L -31.0934,28.9732 L -30.9561,28.8442 L -30.8037,28.7335 L -30.6387,28.6427 L -30.4635,28.5734 L -30.2811,28.5266
 L -30.0942,28.503 L -29.9058,28.503 L -29.7189,28.5266 L -29.5365,28.5734 L -29.3613,28.6427 L -29.1963,28.7335
 L -29.0439,28.8442 L -28.9065,28.9732 L -28.7865,29.1183 L -28.6855,29.2774 L -28.6053,29.4478 L -28.5471,29.627
 L -28.5118,29.812 L -28.5,30 L -28.5118,30.188 L -28.5471,30.373 L -28.6053,30.5522 L -28.6855,30.7226
 L -28.7865,30.8817 L -28.9065,31.0268 L -29.0439,31.1558 L -29.1963,31.2665 L -29.3613,31.3572 L -29.5365,31.4266
 L -29.7189,31.4734 L -29.9058,31.497 z
M 29.9058,31.497 L 29.7189,31.4734 L 29.5365,31.4266 L 29.3613,31.3572 L 29.1963,31.2665 L 29.0439,31.1558
 L 28.9065,31.0268 L 28.7865,30.8817 L 28.6855,30.7226 L 28.6053,30.5522 L 28.5471,30.373 L 28.5118,30.188
 L 28.5,30 L 28.5118,29.812 L 28.5471,29.627 L 28.6053,29.4478 L 28.6855,29.2774 L 28.7865,29.1183
 L 28.9065,28.9732 L 29.0439,28.8442 L 29.1963,28.7335 L 29.3613,28.6427 L 29.5365,28.5734 L 29.7189,28.5266
 L 29.9058,28.503 L 30.0942,28.503 L 30.2811,28.5266 L 30.4635,28.5734 L 30.6387,28.6427 L 30.8037,28.7335
 L 30.9561,28.8442 L 31.0934,28.9732 L 31.2135,29.1183 L 31.3145,29.2774 L 31.3947,29.4478 L 31.4529,29.627
 L 31.4882,29.812 L 31.5,30 L 31.4882,30.188 L 31.4529,30.373 L 31.3947,30.5522 L 31.3145,30.7226
 L 31.2135,30.8817 L 31.0934,31.0268 L 30.9561,31.1558 L 30.8037,31.2665 L 30.6387,31.3572 L 30.4635,31.4266
 L 30.2811,31.4734 L 30.0942,31.497 z
M -0.0941772,31.497 L -0.281067,31.4734 L -0.463516,31.4266 L -0.638657,31.3572 L -0.803726,31.2665 L -0.956131,31.1558
 L -1.09344,31.0268 L -1.21352,30.8817 L -1.31445,30.7226 L -1.39465,30.5522 L -1.45287,30.373 L -1.48816,30.188
 L -1.5,30 L -1.48816,29.812 L -1.45287,29.627 L -1.39465,29.4478 L -1.31445,29.2774 L -1.21352,29.1183
 L -1.09344,28.9732 L -0.956131,28.8442 L -0.803726,28.7335 L -0.638657,28.6427 L -0.463516,28.5734 L -0.281067,28.5266
 L -0.0941772,28.503 L 0.0941772,28.503 L 0.281067,28.5266 L 0.463516,28.5734 L 0.638657,28.6427 L 0.803726,28.7335
 L 0.956131,28.8442 L 1.09344,28.9732 L 1.21352,29.1183 L 1.31445,29.2774 L 1.39465,29.4478 L 1.45287,29.627
 L 1.48816,29.812 L 1.5,30 L 1.48816,30.188 L 1.45287,30.373 L 1.39465,30.5522 L 1.31445,30.7226
 L 1.21352,30.8817 L 1.09344,31.0268 L 0.956131,31.1558 L 0.803726,31.2665 L 0.638657,31.3572 L 0.463516,31.4266
 L 0.281067,31.4734 L 0.0941772,31.497 z
M -15.0942,31.497 L -15.2811,31.4734 L -15.4635,31.4266 L -15.6387,31.3572 L -15.8037,31.2665 L -15.9561,31.1558
 L -16.0934,31.0268 L -16.2135,30.8817 L -16.3145,30.7226 L -16.3947,30.5522 L -16.4529,30.373 L -16.4882,30.188
 L -16.5,30 L -16.4882,29.812 L -16.4529,29.627 L -16.3947,29.4478 L -16.3145,29.2774 L -16.2135,29.1183
 L -16.0934,28.9732 L -15.9561,28.8442 L -15.8037,28.7335 L -15.6387,28.6427 L -15.4635,28.5734 L -15.2811,28.5266
 L -15.0942,28.503 L -14.9058,28.503 L -14.7189,28.5266 L -14.5365,28.5734 L -14.3613,28.6427 L -14.1963,28.7335
 L -14.0439,28.8442 L -13.9065,28.9732 L -13.7865,29.1183 L -13.6855,29.2774 L -13.6053,29.4478 L -13.5471,29.627
 L -13.5118,29.812 L -13.5,30 L -13.5118,30.188 L -13.5471,30.373 L -13.6053,30.5522 L -13.6855,30.7226
 L -13.7865,30.8817 L -13.9065,31.0268 L -14.0439,31.1558 L -14.1963,31.2665 L -14.3613,31.3572 L -14.5365,31.4266
 L -14.7189,31.4734 L -14.9058,31.497 z
M 22.4058,31.497 L 22.2189,31.4734 L 22.0365,31.4266 L 21.8613,31.3572 L 21.6963,31.2665 L 21.5439,31.1558
 L 21.4065,31.0268 L 21.2865,30.8817 L 21.1855,30.7226 L 21.1053,30.5522 L 21.0471,30.373 L 21.0118,30.188
 L 21,30 L 21.0118,29.812 L 21.0471,29.627 L 21.1053,29.4478 L 21.1855,29.2774 L 21.2865,29.1183
 L 21.4065,28.9732 L 21.5439,28.8442 L 21.6963,28.7335 L 21.8613,28.6427 L 22.0365,28.5734 L 22.2189,28.5266
 L 22.4058,28.503 L 22.5942,28.503 L 22.7811,28.5266 L 22.9635,28.5734 L 23.1387,28.6427 L 23.3037,28.7335
 L 23.4561,28.8442 L 23.5934,28.9732 L 23.7135,29.1183 L 23.8145,29.2774 L 23.8947,29.4478 L 23.9529,29.627
 L 23.9882,29.812 L 24,30 L 23.9882,30.188 L 23.9529,30.373 L 23.8947,30.5522 L 23.8145,30.7226
 L 23.7135,30.8817 L 23.5934,31.0268 L 23.4561,31.1558 L 23.3037,31.2665 L 23.1387,31.3572 L 22.9635,31.4266
 L 22.7811,31.4734 L 22.5942,31.497 z
M -7.59418,31.497 L -7.78107,31.4734 L -7.96352,31.4266 L -8.13866,31.3572 L -8.30373,31.2665 L -8.45613,31.1558
 L -8.59344,31.0268 L -8.71352,30.8817 L -8.81445,30.7226 L -8.89465,30.5522 L -8.95287,30.373 L -8.98816,30.188
 L -9,30 L -8.98816,29.812 L -8.95287,29.627 L -8.89465,29.4478 L -8.81445,29.2774 L -8.71352,29.1183
 L -8.59344,28.9732 L -8.45613,28.8442 L -8.30373,28.7335 L -8.13866,28.6427 L -7.96352,28.5734 L -7.78107,28.5266
 L -7.59418,28.503 L -7.40581,28.503 L -7.21892,28.5266 L -7.03647,28.5734 L -6.86133,28.6427 L -6.69626,28.7335
 L -6.54385,28.8442 L -6.40654,28.9732 L -6.28647,29.1183 L -6.18553,29.2774 L -6.10533,29.4478 L -6.04712,29.627
 L -6.01183,29.812 L -6,30 L -6.01183,30.188 L -6.04712,30.373 L -6.10533,30.5522 L -6.18553,30.7226
 L -6.28647,30.8817 L -6.40654,31.0268 L -6.54385,31.1558 L -6.69626,31.2665 L -6.86133,31.3572 L -7.03647,31.4266
 L -7.21892,31.4734 L -7.40581,31.497 z
M 14.9058,31.497 L 14.7189,31.4734 L 14.5365,31.4266 L 14.3613,31.3572 L 14.1963,31.2665 L 14.0439,31.1558
 L 13.9065,31.0268 L 13.7865,30.8817 L 13.6855,30.7226 L 13.6053,30.5522 L 13.5471,30.373 L 13.5118,30.188
 L 13.5,30 L 13.5118,29.812 L 13.5471,29.627 L 13.6053,29.4478 L 13.6855,29.2774 L 13.7865,29.1183
 L 13.9065,28.9732 L 14.0439,28.8442 L 14.1963,28.7335 L 14.3613,28.6427 L 14.5365,28.5734 L 14.7189,28.5266
 L 14.9058,28.503 L 15.0942,28.503 L 15.2811,28.5266 L 15.4635,28.5734 L 15.6387,28.6427 L 15.8037,28.7335
 L 15.9561,28.8442 L 16.0934,28.9732 L 16.2135,29.1183 L 16.3145,29.2774 L 16.3947,29.4478 L 16.4529,29.627
 L 16.4882,29.812 L 16.5,30 L 16.4882,30.188 L 16.4529,30.373 L 16.3947,30.5522 L 16.3145,30.7226
 L 16.2135,30.8817 L 16.0934,31.0268 L 15.9561,31.1558 L 15.8037,31.2665 L 15.6387,31.3572 L 15.4635,31.4266
 L 15.2811,31.4734 L 15.0942,31.497 z
M -29.1963,-21.2335 L -29.3613,-21.1427 L -29.5365,-21.0734 L -29.7189,-21.0266 L -29.9058,-21.003 L -30.0942,-21.003
 L -30.2811,-21.0266 L -30.4635,-21.0734 L -30.6387,-21.1427 L -30.8037,-21.2335 L -30.9561,-21.3442 L -31.0934,-21.4732
 L -31.2135,-21.6183 L -31.3145,-21.7774 L -31.3947,-21.9478 L -31.4529,-22.127 L -31.4882,-22.312 L -31.5,-22.5
 L -31.4882,-22.688 L -31.4529,-22.873 L -31.3947,-23.0522 L -31.3145,-23.2226 L -31.2135,-23.3817 L -31.0934,-23.5268
 L -30.9561,-23.6558 L -30.8037,-23.7665 L -30.6387,-23.8572 L -30.4635,-23.9266 L -30.2811,-23.9734 L -30.0942,-23.997
 L -29.9058,-23.997 L -29.7189,-23.9734 L -29.5365,-23.9266 L -29.3613,-23.8572 L -29.1963,-23.7665 L -29.0439,-23.6558
 L -28.9065,-23.5268 L -28.7865,-23.3817 L -28.6855,-23.2226 L -28.6053,-23.0522 L -28.5471,-22.873 L -28.5118,-22.688
 L -28.5,-22.5 L -28.5118,-22.312 L -28.5471,-22.127 L -28.6053,-21.9478 L -28.6855,-21.7774 L -28.7865,-21.6183
 L -28.9065,-21.4732 L -29.0439,-21.3442 z
" stroke="black" fill="lightgray" stroke-width="0.5"/>
</svg>
