  0
SECTION
  2
BLOCKS
  0
ENDSEC
  0
SECTION
  2
ENTITIES
  0
LINE
  8
0
 10
31.4684
 20
-10.9557
 11
31.7725
 21
-10.8776
  0
LINE
  8
0
 10
31.7725
 20
-10.8776
 11
32.0644
 21
-10.7621
  0
LINE
  8
0
 10
32.0644
 20
-10.7621
 11
32.3396
 21
-10.6108
  0
LINE
  8
0
 10
32.3396
 20
-10.6108
 11
32.5936
 21
-10.4263
  0
LINE
  8
0
 10
32.5936
 20
-10.4263
 11
32.8224
 21
-10.2114
  0
LINE
  8
0
 10
32.8224
 20
-10.2114
 11
33.0225
 21
-9.96945
  0
LINE
  8
0
 10
33.0225
 20
-9.96945
 11
33.1908
 21
-9.70438
  0
LINE
  8
0
 10
33.1908
 20
-9.70438
 11
33.3244
 21
-9.4203
  0
LINE
  8
0
 10
33.3244
 20
-9.4203
 11
33.4214
 21
-9.12172
  0
LINE
  8
0
 10
33.4214
 20
-9.12172
 11
33.4803
 21
-8.81332
  0
LINE
  8
0
 10
33.4803
 20
-8.81332
 11
33.5
 21
-8.5
  0
LINE
  8
0
 10
33.5
 20
-8.5
 11
33.5
 21
8.5
  0
LINE
  8
0
 10
33.5
 20
8.5
 11
33.4803
 21
8.81332
  0
LINE
  8
0
 10
33.4803
 20
8.81332
 11
33.4214
 21
9.12172
  0
LINE
  8
0
 10
33.4214
 20
9.12172
 11
33.3244
 21
9.4203
  0
LINE
  8
0
 10
33.3244
 20
9.4203
 11
33.1908
 21
9.70438
  0
LINE
  8
0
 10
33.1908
 20
9.70438
 11
33.0225
 21
9.96945
  0
LINE
  8
0
 10
33.0225
 20
9.96945
 11
32.8224
 21
10.2114
  0
LINE
  8
0
 10
32.8224
 20
10.2114
 11
32.5936
 21
10.4263
  0
LINE
  8
0
 10
32.5936
 20
10.4263
 11
32.3396
 21
10.6108
  0
LINE
  8
0
 10
32.3396
 20
10.6108
 11
32.0644
 21
10.7621
  0
LINE
  8
0
 10
32.0644
 20
10.7621
 11
31.7725
 21
10.8776
  0
LINE
  8
0
 10
31.7725
 20
10.8776
 11
31.4684
 21
10.9557
  0
LINE
  8
0
 10
31.4684
 20
10.9557
 11
31.157
 21
10.9951
  0
LINE
  8
0
 10
31.157
 20
10.9951
 11
-31.157
 21
10.9951
  0
LINE
  8
0
 10
-31.157
 20
10.9951
 11
-31.4684
 21
10.9557
  0
LINE
  8
0
 10
-31.4684
 20
10.9557
 11
-31.7725
 21
10.8776
  0
LINE
  8
0
 10
-31.7725
 20
10.8776
 11
-32.0644
 21
10.7621
  0
LINE
  8
0
 10
-32.0644
 20
10.7621
 11
-32.3396
 21
10.6108
  0
LINE
  8
0
 10
-32.3396
 20
10.6108
 11
-32.5936
 21
10.4263
  0
LINE
  8
0
 10
-32.5936
 20
10.4263
 11
-32.8224
 21
10.2114
  0
LINE
  8
0
 10
-32.8224
 20
10.2114
 11
-33.0225
 21
9.96945
  0
LINE
  8
0
 10
-33.0225
 20
9.96945
 11
-33.1908
 21
9.70438
  0
LINE
  8
0
 10
-33.1908
 20
9.70438
 11
-33.3244
 21
9.4203
  0
LINE
  8
0
 10
-33.3244
 20
9.4203
 11
-33.4214
 21
9.12172
  0
LINE
  8
0
 10
-33.4214
 20
9.12172
 11
-33.4803
 21
8.81332
  0
LINE
  8
0
 10
-33.4803
 20
8.81332
 11
-33.5
 21
8.5
  0
LINE
  8
0
 10
-33.5
 20
8.5
 11
-33.5
 21
-8.5
  0
LINE
  8
0
 10
-33.5
 20
-8.5
 11
-33.4803
 21
-8.81332
  0
LINE
  8
0
 10
-33.4803
 20
-8.81332
 11
-33.4214
 21
-9.12172
  0
LINE
  8
0
 10
-33.4214
 20
-9.12172
 11
-33.3244
 21
-9.4203
  0
LINE
  8
0
 10
-33.3244
 20
-9.4203
 11
-33.1908
 21
-9.70438
  0
LINE
  8
0
 10
-33.1908
 20
-9.70438
 11
-33.0225
 21
-9.96945
  0
LINE
  8
0
 10
-33.0225
 20
-9.96945
 11
-32.8224
 21
-10.2114
  0
LINE
  8
0
 10
-32.8224
 20
-10.2114
 11
-32.5936
 21
-10.4263
  0
LINE
  8
0
 10
-32.5936
 20
-10.4263
 11
-32.3396
 21
-10.6108
  0
LINE
  8
0
 10
-32.3396
 20
-10.6108
 11
-32.0644
 21
-10.7621
  0
LINE
  8
0
 10
-32.0644
 20
-10.7621
 11
-31.7725
 21
-10.8776
  0
LINE
  8
0
 10
-31.7725
 20
-10.8776
 11
-31.4684
 21
-10.9557
  0
LINE
  8
0
 10
-31.4684
 20
-10.9557
 11
-31.157
 21
-10.9951
  0
LINE
  8
0
 10
-31.157
 20
-10.9951
 11
31.157
 21
-10.9951
  0
LINE
  8
0
 10
31.157
 20
-10.9951
 11
31.4684
 21
-10.9557
  0
LINE
  8
0
 10
-7.59418
 20
6.00294
 11
-7.78107
 21
6.02657
  0
LINE
  8
0
 10
-7.78107
 20
6.02657
 11
-7.96352
 21
6.07341
  0
LINE
  8
0
 10
-7.96352
 20
6.07341
 11
-8.13866
 21
6.14275
  0
LINE
  8
0
 10
-8.13866
 20
6.14275
 11
-8.30373
 21
6.23351
  0
LINE
  8
0
 10
-8.30373
 20
6.23351
 11
-8.45613
 21
6.34422
  0
LINE
  8
0
 10
-8.45613
 20
6.34422
 11
-8.59344
 21
6.47318
  0
LINE
  8
0
 10
-8.59344
 20
6.47318
 11
-8.71352
 21
6.61832
  0
LINE
  8
0
 10
-8.71352
 20
6.61832
 11
-8.81445
 21
6.77736
  0
LINE
  8
0
 10
-8.81445
 20
6.77736
 11
-8.89465
 21
6.9478
  0
LINE
  8
0
 10
-8.89465
 20
6.9478
 11
-8.95287
 21
7.12695
  0
LINE
  8
0
 10
-8.95287
 20
7.12695
 11
-8.98816
 21
7.312
  0
LINE
  8
0
 10
-8.98816
 20
7.312
 11
-9
 21
7.5
  0
LINE
  8
0
 10
-9
 20
7.5
 11
-8.98816
 21
7.68799
  0
LINE
  8
0
 10
-8.98816
 20
7.68799
 11
-8.95287
 21
7.87303
  0
LINE
  8
0
 10
-8.95287
 20
7.87303
 11
-8.89465
 21
8.05219
  0
LINE
  8
0
 10
-8.89465
 20
8.05219
 11
-8.81445
 21
8.22263
  0
LINE
  8
0
 10
-8.81445
 20
8.22263
 11
-8.71352
 21
8.38167
  0
LINE
  8
0
 10
-8.71352
 20
8.38167
 11
-8.59344
 21
8.52681
  0
LINE
  8
0
 10
-8.59344
 20
8.52681
 11
-8.45613
 21
8.65576
  0
LINE
  8
0
 10
-8.45613
 20
8.65576
 11
-8.30373
 21
8.76648
  0
LINE
  8
0
 10
-8.30373
 20
8.76648
 11
-8.13866
 21
8.85724
  0
LINE
  8
0
 10
-8.13866
 20
8.85724
 11
-7.96352
 21
8.92657
  0
LINE
  8
0
 10
-7.96352
 20
8.92657
 11
-7.78107
 21
8.97342
  0
LINE
  8
0
 10
-7.78107
 20
8.97342
 11
-7.59418
 21
8.99704
  0
LINE
  8
0
 10
-7.59418
 20
8.99704
 11
-7.40581
 21
8.99704
  0
LINE
  8
0
 10
-7.40581
 20
8.99704
 11
-7.21892
 21
8.97342
  0
LINE
  8
0
 10
-7.21892
 20
8.97342
 11
-7.03647
 21
8.92657
  0
LINE
  8
0
 10
-7.03647
 20
8.92657
 11
-6.86133
 21
8.85724
  0
LINE
  8
0
 10
-6.86133
 20
8.85724
 11
-6.69626
 21
8.76648
  0
LINE
  8
0
 10
-6.69626
 20
8.76648
 11
-6.54385
 21
8.65576
  0
LINE
  8
0
 10
-6.54385
 20
8.65576
 11
-6.40654
 21
8.52681
  0
LINE
  8
0
 10
-6.40654
 20
8.52681
 11
-6.28647
 21
8.38167
  0
LINE
  8
0
 10
-6.28647
 20
8.38167
 11
-6.18553
 21
8.22263
  0
LINE
  8
0
 10
-6.18553
 20
8.22263
 11
-6.10533
 21
8.05219
  0
LINE
  8
0
 10
-6.10533
 20
8.05219
 11
-6.04712
 21
7.87303
  0
LINE
  8
0
 10
-6.04712
 20
7.87303
 11
-6.01183
 21
7.68799
  0
LINE
  8
0
 10
-6.01183
 20
7.68799
 11
-6
 21
7.5
  0
LINE
  8
0
 10
-6
 20
7.5
 11
-6.01183
 21
7.312
  0
LINE
  8
0
 10
-6.01183
 20
7.312
 11
-6.04712
 21
7.12695
  0
LINE
  8
0
 10
-6.04712
 20
7.12695
 11
-6.10533
 21
6.9478
  0
LINE
  8
0
 10
-6.10533
 20
6.9478
 11
-6.18553
 21
6.77736
  0
LINE
  8
0
 10
-6.18553
 20
6.77736
 11
-6.28647
 21
6.61832
  0
LINE
  8
0
 10
-6.28647
 20
6.61832
 11
-6.40654
 21
6.47318
  0
LINE
  8
0
 10
-6.40654
 20
6.47318
 11
-6.54385
 21
6.34422
  0
LINE
  8
0
 10
-6.54385
 20
6.34422
 11
-6.69626
 21
6.23351
  0
LINE
  8
0
 10
-6.69626
 20
6.23351
 11
-6.86133
 21
6.14275
  0
LINE
  8
0
 10
-6.86133
 20
6.14275
 11
-7.03647
 21
6.07341
  0
LINE
  8
0
 10
-7.03647
 20
6.07341
 11
-7.21892
 21
6.02657
  0
LINE
  8
0
 10
-7.21892
 20
6.02657
 11
-7.40581
 21
6.00294
  0
LINE
  8
0
 10
-7.40581
 20
6.00294
 11
-7.59418
 21
6.00294
  0
LINE
  8
0
 10
21.1855
 20
6.77736
 11
21.1053
 21
6.9478
  0
LINE
  8
0
 10
21.1053
 20
6.9478
 11
21.0471
 21
7.12695
  0
LINE
  8
0
 10
21.0471
 20
7.12695
 11
21.0118
 21
7.312
  0
LINE
  8
0
 10
21.0118
 20
7.312
 11
21
 21
7.5
  0
LINE
  8
0
 10
21
 20
7.5
 11
21.0118
 21
7.68799
  0
LINE
  8
0
 10
21.0118
 20
7.68799
 11
21.0471
 21
7.87303
  0
LINE
  8
0
 10
21.0471
 20
7.87303
 11
21.1053
 21
8.05219
  0
LINE
  8
0
 10
21.1053
 20
8.05219
 11
21.1855
 21
8.22263
  0
LINE
  8
0
 10
21.1855
 20
8.22263
 11
21.2865
 21
8.38167
  0
LINE
  8
0
 10
21.2865
 20
8.38167
 11
21.4065
 21
8.52681
  0
LINE
  8
0
 10
21.4065
 20
8.52681
 11
21.5439
 21
8.65576
  0
LINE
  8
0
 10
21.5439
 20
8.65576
 11
21.6963
 21
8.76648
  0
LINE
  8
0
 10
21.6963
 20
8.76648
 11
21.8613
 21
8.85724
  0
LINE
  8
0
 10
21.8613
 20
8.85724
 11
22.0365
 21
8.92657
  0
LINE
  8
0
 10
22.0365
 20
8.92657
 11
22.2189
 21
8.97342
  0
LINE
  8
0
 10
22.2189
 20
8.97342
 11
22.4058
 21
8.99704
  0
LINE
  8
0
 10
22.4058
 20
8.99704
 11
22.5942
 21
8.99704
  0
LINE
  8
0
 10
22.5942
 20
8.99704
 11
22.7811
 21
8.97342
  0
LINE
  8
0
 10
22.7811
 20
8.97342
 11
22.9635
 21
8.92657
  0
LINE
  8
0
 10
22.9635
 20
8.92657
 11
23.1387
 21
8.85724
  0
LINE
  8
0
 10
23.1387
 20
8.85724
 11
23.3037
 21
8.76648
  0
LINE
  8
0
 10
23.3037
 20
8.76648
 11
23.4561
 21
8.65576
  0
LINE
  8
0
 10
23.4561
 20
8.65576
 11
23.5934
 21
8.52681
  0
LINE
  8
0
 10
23.5934
 20
8.52681
 11
23.7135
 21
8.38167
  0
LINE
  8
0
 10
23.7135
 20
8.38167
 11
23.8145
 21
8.22263
  0
LINE
  8
0
 10
23.8145
 20
8.22263
 11
23.8947
 21
8.05219
  0
LINE
  8
0
 10
23.8947
 20
8.05219
 11
23.9529
 21
7.87303
  0
LINE
  8
0
 10
23.9529
 20
7.87303
 11
23.9882
 21
7.68799
  0
LINE
  8
0
 10
23.9882
 20
7.68799
 11
24
 21
7.5
  0
LINE
  8
0
 10
24
 20
7.5
 11
23.9882
 21
7.312
  0
LINE
  8
0
 10
23.9882
 20
7.312
 11
23.9529
 21
7.12695
  0
LINE
  8
0
 10
23.9529
 20
7.12695
 11
23.8947
 21
6.9478
  0
LINE
  8
0
 10
23.8947
 20
6.9478
 11
23.8145
 21
6.77736
  0
LINE
  8
0
 10
23.8145
 20
6.77736
 11
23.7135
 21
6.61832
  0
LINE
  8
0
 10
23.7135
 20
6.61832
 11
23.5934
 21
6.47318
  0
LINE
  8
0
 10
23.5934
 20
6.47318
 11
23.4561
 21
6.34422
  0
LINE
  8
0
 10
23.4561
 20
6.34422
 11
23.3037
 21
6.23351
  0
LINE
  8
0
 10
23.3037
 20
6.23351
 11
23.1387
 21
6.14275
  0
LINE
  8
0
 10
23.1387
 20
6.14275
 11
22.9635
 21
6.07341
  0
LINE
  8
0
 10
22.9635
 20
6.07341
 11
22.7811
 21
6.02657
  0
LINE
  8
0
 10
22.7811
 20
6.02657
 11
22.5942
 21
6.00294
  0
LINE
  8
0
 10
22.5942
 20
6.00294
 11
22.4058
 21
6.00294
  0
LINE
  8
0
 10
22.4058
 20
6.00294
 11
22.2189
 21
6.02657
  0
LINE
  8
0
 10
22.2189
 20
6.02657
 11
22.0365
 21
6.07341
  0
LINE
  8
0
 10
22.0365
 20
6.07341
 11
21.8613
 21
6.14275
  0
LINE
  8
0
 10
21.8613
 20
6.14275
 11
21.6963
 21
6.23351
  0
LINE
  8
0
 10
21.6963
 20
6.23351
 11
21.5439
 21
6.34422
  0
LINE
  8
0
 10
21.5439
 20
6.34422
 11
21.4065
 21
6.47318
  0
LINE
  8
0
 10
21.4065
 20
6.47318
 11
21.2865
 21
6.61832
  0
LINE
  8
0
 10
21.2865
 20
6.61832
 11
21.1855
 21
6.77736
  0
LINE
  8
0
 10
-22.5942
 20
6.00294
 11
-22.7811
 21
6.02657
  0
LINE
  8
0
 10
-22.7811
 20
6.02657
 11
-22.9635
 21
6.07341
  0
LINE
  8
0
 10
-22.9635
 20
6.07341
 11
-23.1387
 21
6.14275
  0
LINE
  8
0
 10
-23.1387
 20
6.14275
 11
-23.3037
 21
6.23351
  0
LINE
  8
0
 10
-23.3037
 20
6.23351
 11
-23.4561
 21
6.34422
  0
LINE
  8
0
 10
-23.4561
 20
6.34422
 11
-23.5934
 21
6.47318
  0
LINE
  8
0
 10
-23.5934
 20
6.47318
 11
-23.7135
 21
6.61832
  0
LINE
  8
0
 10
-23.7135
 20
6.61832
 11
-23.8145
 21
6.77736
  0
LINE
  8
0
 10
-23.8145
 20
6.77736
 11
-23.8947
 21
6.9478
  0
LINE
  8
0
 10
-23.8947
 20
6.9478
 11
-23.9529
 21
7.12695
  0
LINE
  8
0
 10
-23.9529
 20
7.12695
 11
-23.9882
 21
7.312
  0
LINE
  8
0
 10
-23.9882
 20
7.312
 11
-24
 21
7.5
  0
LINE
  8
0
 10
-24
 20
7.5
 11
-23.9882
 21
7.68799
  0
LINE
  8
0
 10
-23.9882
 20
7.68799
 11
-23.9529
 21
7.87303
  0
LINE
  8
0
 10
-23.9529
 20
7.87303
 11
-23.8947
 21
8.05219
  0
LINE
  8
0
 10
-23.8947
 20
8.05219
 11
-23.8145
 21
8.22263
  0
LINE
  8
0
 10
-23.8145
 20
8.22263
 11
-23.7135
 21
8.38167
  0
LINE
  8
0
 10
-23.7135
 20
8.38167
 11
-23.5934
 21
8.52681
  0
LINE
  8
0
 10
-23.5934
 20
8.52681
 11
-23.4561
 21
8.65576
  0
LINE
  8
0
 10
-23.4561
 20
8.65576
 11
-23.3037
 21
8.76648
  0
LINE
  8
0
 10
-23.3037
 20
8.76648
 11
-23.1387
 21
8.85724
  0
LINE
  8
0
 10
-23.1387
 20
8.85724
 11
-22.9635
 21
8.92657
  0
LINE
  8
0
 10
-22.9635
 20
8.92657
 11
-22.7811
 21
8.97342
  0
LINE
  8
0
 10
-22.7811
 20
8.97342
 11
-22.5942
 21
8.99704
  0
LINE
  8
0
 10
-22.5942
 20
8.99704
 11
-22.4058
 21
8.99704
  0
LINE
  8
0
 10
-22.4058
 20
8.99704
 11
-22.2189
 21
8.97342
  0
LINE
  8
0
 10
-22.2189
 20
8.97342
 11
-22.0365
 21
8.92657
  0
LINE
  8
0
 10
-22.0365
 20
8.92657
 11
-21.8613
 21
8.85724
  0
LINE
  8
0
 10
-21.8613
 20
8.85724
 11
-21.6963
 21
8.76648
  0
LINE
  8
0
 10
-21.6963
 20
8.76648
 11
-21.5439
 21
8.65576
  0
LINE
  8
0
 10
-21.5439
 20
8.65576
 11
-21.4065
 21
8.52681
  0
LINE
  8
0
 10
-21.4065
 20
8.52681
 11
-21.2865
 21
8.38167
  0
LINE
  8
0
 10
-21.2865
 20
8.38167
 11
-21.1855
 21
8.22263
  0
LINE
  8
0
 10
-21.1855
 20
8.22263
 11
-21.1053
 21
8.05219
  0
LINE
  8
0
 10
-21.1053
 20
8.05219
 11
-21.0471
 21
7.87303
  0
LINE
  8
0
 10
-21.0471
 20
7.87303
 11
-21.0118
 21
7.68799
  0
LINE
  8
0
 10
-21.0118
 20
7.68799
 11
-21
 21
7.5
  0
LINE
  8
0
 10
-21
 20
7.5
 11
-21.0118
 21
7.312
  0
LINE
  8
0
 10
-21.0118
 20
7.312
 11
-21.0471
 21
7.12695
  0
LINE
  8
0
 10
-21.0471
 20
7.12695
 11
-21.1053
 21
6.9478
  0
LINE
  8
0
 10
-21.1053
 20
6.9478
 11
-21.1855
 21
6.77736
  0
LINE
  8
0
 10
-21.1855
 20
6.77736
 11
-21.2865
 21
6.61832
  0
LINE
  8
0
 10
-21.2865
 20
6.61832
 11
-21.4065
 21
6.47318
  0
LINE
  8
0
 10
-21.4065
 20
6.47318
 11
-21.5439
 21
6.34422
  0
LINE
  8
0
 10
-21.5439
 20
6.34422
 11
-21.6963
 21
6.23351
  0
LINE
  8
0
 10
-21.6963
 20
6.23351
 11
-21.8613
 21
6.14275
  0
LINE
  8
0
 10
-21.8613
 20
6.14275
 11
-22.0365
 21
6.07341
  0
LINE
  8
0
 10
-22.0365
 20
6.07341
 11
-22.2189
 21
6.02657
  0
LINE
  8
0
 10
-22.2189
 20
6.02657
 11
-22.4058
 21
6.00294
  0
LINE
  8
0
 10
-22.4058
 20
6.00294
 11
-22.5942
 21
6.00294
  0
LINE
  8
0
 10
29.9058
 20
6.00294
 11
29.7189
 21
6.02657
  0
LINE
  8
0
 10
29.7189
 20
6.02657
 11
29.5365
 21
6.07341
  0
LINE
  8
0
 10
29.5365
 20
6.07341
 11
29.3613
 21
6.14275
  0
LINE
  8
0
 10
29.3613
 20
6.14275
 11
29.1963
 21
6.23351
  0
LINE
  8
0
 10
29.1963
 20
6.23351
 11
29.0439
 21
6.34422
  0
LINE
  8
0
 10
29.0439
 20
6.34422
 11
28.9065
 21
6.47318
  0
LINE
  8
0
 10
28.9065
 20
6.47318
 11
28.7865
 21
6.61832
  0
LINE
  8
0
 10
28.7865
 20
6.61832
 11
28.6855
 21
6.77736
  0
LINE
  8
0
 10
28.6855
 20
6.77736
 11
28.6053
 21
6.9478
  0
LINE
  8
0
 10
28.6053
 20
6.9478
 11
28.5471
 21
7.12695
  0
LINE
  8
0
 10
28.5471
 20
7.12695
 11
28.5118
 21
7.312
  0
LINE
  8
0
 10
28.5118
 20
7.312
 11
28.5
 21
7.5
  0
LINE
  8
0
 10
28.5
 20
7.5
 11
28.5118
 21
7.68799
  0
LINE
  8
0
 10
28.5118
 20
7.68799
 11
28.5471
 21
7.87303
  0
LINE
  8
0
 10
28.5471
 20
7.87303
 11
28.6053
 21
8.05219
  0
LINE
  8
0
 10
28.6053
 20
8.05219
 11
28.6855
 21
8.22263
  0
LINE
  8
0
 10
28.6855
 20
8.22263
 11
28.7865
 21
8.38167
  0
LINE
  8
0
 10
28.7865
 20
8.38167
 11
28.9065
 21
8.52681
  0
LINE
  8
0
 10
28.9065
 20
8.52681
 11
29.0439
 21
8.65576
  0
LINE
  8
0
 10
29.0439
 20
8.65576
 11
29.1963
 21
8.76648
  0
LINE
  8
0
 10
29.1963
 20
8.76648
 11
29.3613
 21
8.85724
  0
LINE
  8
0
 10
29.3613
 20
8.85724
 11
29.5365
 21
8.92657
  0
LINE
  8
0
 10
29.5365
 20
8.92657
 11
29.7189
 21
8.97342
  0
LINE
  8
0
 10
29.7189
 20
8.97342
 11
29.9058
 21
8.99704
  0
LINE
  8
0
 10
29.9058
 20
8.99704
 11
30.0942
 21
8.99704
  0
LINE
  8
0
 10
30.0942
 20
8.99704
 11
30.2811
 21
8.97342
  0
LINE
  8
0
 10
30.2811
 20
8.97342
 11
30.4635
 21
8.92657
  0
LINE
  8
0
 10
30.4635
 20
8.92657
 11
30.6387
 21
8.85724
  0
LINE
  8
0
 10
30.6387
 20
8.85724
 11
30.8037
 21
8.76648
  0
LINE
  8
0
 10
30.8037
 20
8.76648
 11
30.9561
 21
8.65576
  0
LINE
  8
0
 10
30.9561
 20
8.65576
 11
31.0934
 21
8.52681
  0
LINE
  8
0
 10
31.0934
 20
8.52681
 11
31.2135
 21
8.38167
  0
LINE
  8
0
 10
31.2135
 20
8.38167
 11
31.3145
 21
8.22263
  0
LINE
  8
0
 10
31.3145
 20
8.22263
 11
31.3947
 21
8.05219
  0
LINE
  8
0
 10
31.3947
 20
8.05219
 11
31.4529
 21
7.87303
  0
LINE
  8
0
 10
31.4529
 20
7.87303
 11
31.4882
 21
7.68799
  0
LINE
  8
0
 10
31.4882
 20
7.68799
 11
31.5
 21
7.5
  0
LINE
  8
0
 10
31.5
 20
7.5
 11
31.4882
 21
7.312
  0
LINE
  8
0
 10
31.4882
 20
7.312
 11
31.4529
 21
7.12695
  0
LINE
  8
0
 10
31.4529
 20
7.12695
 11
31.3947
 21
6.9478
  0
LINE
  8
0
 10
31.3947
 20
6.9478
 11
31.3145
 21
6.77736
  0
LINE
  8
0
 10
31.3145
 20
6.77736
 11
31.2135
 21
6.61832
  0
LINE
  8
0
 10
31.2135
 20
6.61832
 11
31.0934
 21
6.47318
  0
LINE
  8
0
 10
31.0934
 20
6.47318
 11
30.9561
 21
6.34422
  0
LINE
  8
0
 10
30.9561
 20
6.34422
 11
30.8037
 21
6.23351
  0
LINE
  8
0
 10
30.8037
 20
6.23351
 11
30.6387
 21
6.14275
  0
LINE
  8
0
 10
30.6387
 20
6.14275
 11
30.4635
 21
6.07341
  0
LINE
  8
0
 10
30.4635
 20
6.07341
 11
30.2811
 21
6.02657
  0
LINE
  8
0
 10
30.2811
 20
6.02657
 11
30.0942
 21
6.00294
  0
LINE
  8
0
 10
30.0942
 20
6.00294
 11
29.9058
 21
6.00294
  0
LINE
  8
0
 10
-15.0942
 20
6.00294
 11
-15.2811
 21
6.02657
  0
LINE
  8
0
 10
-15.2811
 20
6.02657
 11
-15.4635
 21
6.07341
  0
LINE
  8
0
 10
-15.4635
 20
6.07341
 11
-15.6387
 21
6.14275
  0
LINE
  8
0
 10
-15.6387
 20
6.14275
 11
-15.8037
 21
6.23351
  0
LINE
  8
0
 10
-15.8037
 20
6.23351
 11
-15.9561
 21
6.34422
  0
LINE
  8
0
 10
-15.9561
 20
6.34422
 11
-16.0934
 21
6.47318
  0
LINE
  8
0
 10
-16.0934
 20
6.47318
 11
-16.2135
 21
6.61832
  0
LINE
  8
0
 10
-16.2135
 20
6.61832
 11
-16.3145
 21
6.77736
  0
LINE
  8
0
 10
-16.3145
 20
6.77736
 11
-16.3947
 21
6.9478
  0
LINE
  8
0
 10
-16.3947
 20
6.9478
 11
-16.4529
 21
7.12695
  0
LINE
  8
0
 10
-16.4529
 20
7.12695
 11
-16.4882
 21
7.312
  0
LINE
  8
0
 10
-16.4882
 20
7.312
 11
-16.5
 21
7.5
  0
LINE
  8
0
 10
-16.5
 20
7.5
 11
-16.4882
 21
7.68799
  0
LINE
  8
0
 10
-16.4882
 20
7.68799
 11
-16.4529
 21
7.87303
  0
LINE
  8
0
 10
-16.4529
 20
7.87303
 11
-16.3947
 21
8.05219
  0
LINE
  8
0
 10
-16.3947
 20
8.05219
 11
-16.3145
 21
8.22263
  0
LINE
  8
0
 10
-16.3145
 20
8.22263
 11
-16.2135
 21
8.38167
  0
LINE
  8
0
 10
-16.2135
 20
8.38167
 11
-16.0934
 21
8.52681
  0
LINE
  8
0
 10
-16.0934
 20
8.52681
 11
-15.9561
 21
8.65576
  0
LINE
  8
0
 10
-15.9561
 20
8.65576
 11
-15.8037
 21
8.76648
  0
LINE
  8
0
 10
-15.8037
 20
8.76648
 11
-15.6387
 21
8.85724
  0
LINE
  8
0
 10
-15.6387
 20
8.85724
 11
-15.4635
 21
8.92657
  0
LINE
  8
0
 10
-15.4635
 20
8.92657
 11
-15.2811
 21
8.97342
  0
LINE
  8
0
 10
-15.2811
 20
8.97342
 11
-15.0942
 21
8.99704
  0
LINE
  8
0
 10
-15.0942
 20
8.99704
 11
-14.9058
 21
8.99704
  0
LINE
  8
0
 10
-14.9058
 20
8.99704
 11
-14.7189
 21
8.97342
  0
LINE
  8
0
 10
-14.7189
 20
8.97342
 11
-14.5365
 21
8.92657
  0
LINE
  8
0
 10
-14.5365
 20
8.92657
 11
-14.3613
 21
8.85724
  0
LINE
  8
0
 10
-14.3613
 20
8.85724
 11
-14.1963
 21
8.76648
  0
LINE
  8
0
 10
-14.1963
 20
8.76648
 11
-14.0439
 21
8.65576
  0
LINE
  8
0
 10
-14.0439
 20
8.65576
 11
-13.9065
 21
8.52681
  0
LINE
  8
0
 10
-13.9065
 20
8.52681
 11
-13.7865
 21
8.38167
  0
LINE
  8
0
 10
-13.7865
 20
8.38167
 11
-13.6855
 21
8.22263
  0
LINE
  8
0
 10
-13.6855
 20
8.22263
 11
-13.6053
 21
8.05219
  0
LINE
  8
0
 10
-13.6053
 20
8.05219
 11
-13.5471
 21
7.87303
  0
LINE
  8
0
 10
-13.5471
 20
7.87303
 11
-13.5118
 21
7.68799
  0
LINE
  8
0
 10
-13.5118
 20
7.68799
 11
-13.5
 21
7.5
  0
LINE
  8
0
 10
-13.5
 20
7.5
 11
-13.5118
 21
7.312
  0
LINE
  8
0
 10
-13.5118
 20
7.312
 11
-13.5471
 21
7.12695
  0
LINE
  8
0
 10
-13.5471
 20
7.12695
 11
-13.6053
 21
6.9478
  0
LINE
  8
0
 10
-13.6053
 20
6.9478
 11
-13.6855
 21
6.77736
  0
LINE
  8
0
 10
-13.6855
 20
6.77736
 11
-13.7865
 21
6.61832
  0
LINE
  8
0
 10
-13.7865
 20
6.61832
 11
-13.9065
 21
6.47318
  0
LINE
  8
0
 10
-13.9065
 20
6.47318
 11
-14.0439
 21
6.34422
  0
LINE
  8
0
 10
-14.0439
 20
6.34422
 11
-14.1963
 21
6.23351
  0
LINE
  8
0
 10
-14.1963
 20
6.23351
 11
-14.3613
 21
6.14275
  0
LINE
  8
0
 10
-14.3613
 20
6.14275
 11
-14.5365
 21
6.07341
  0
LINE
  8
0
 10
-14.5365
 20
6.07341
 11
-14.7189
 21
6.02657
  0
LINE
  8
0
 10
-14.7189
 20
6.02657
 11
-14.9058
 21
6.00294
  0
LINE
  8
0
 10
-14.9058
 20
6.00294
 11
-15.0942
 21
6.00294
  0
LINE
  8
0
 10
-0.0941772
 20
6.00294
 11
-0.281067
 21
6.02657
  0
LINE
  8
0
 10
-0.281067
 20
6.02657
 11
-0.463516
 21
6.07341
  0
LINE
  8
0
 10
-0.463516
 20
6.07341
 11
-0.638657
 21
6.14275
  0
LINE
  8
0
 10
-0.638657
 20
6.14275
 11
-0.803726
 21
6.23351
  0
LINE
  8
0
 10
-0.803726
 20
6.23351
 11
-0.956131
 21
6.34422
  0
LINE
  8
0
 10
-0.956131
 20
6.34422
 11
-1.09344
 21
6.47318
  0
LINE
  8
0
 10
-1.09344
 20
6.47318
 11
-1.21352
 21
6.61832
  0
LINE
  8
0
 10
-1.21352
 20
6.61832
 11
-1.31445
 21
6.77736
  0
LINE
  8
0
 10
-1.31445
 20
6.77736
 11
-1.39465
 21
6.9478
  0
LINE
  8
0
 10
-1.39465
 20
6.9478
 11
-1.45287
 21
7.12695
  0
LINE
  8
0
 10
-1.45287
 20
7.12695
 11
-1.48816
 21
7.312
  0
LINE
  8
0
 10
-1.48816
 20
7.312
 11
-1.5
 21
7.5
  0
LINE
  8
0
 10
-1.5
 20
7.5
 11
-1.48816
 21
7.68799
  0
LINE
  8
0
 10
-1.48816
 20
7.68799
 11
-1.45287
 21
7.87303
  0
LINE
  8
0
 10
-1.45287
 20
7.87303
 11
-1.39465
 21
8.05219
  0
LINE
  8
0
 10
-1.39465
 20
8.05219
 11
-1.31445
 21
8.22263
  0
LINE
  8
0
 10
-1.31445
 20
8.22263
 11
-1.21352
 21
8.38167
  0
LINE
  8
0
 10
-1.21352
 20
8.38167
 11
-1.09344
 21
8.52681
  0
LINE
  8
0
 10
-1.09344
 20
8.52681
 11
-0.956131
 21
8.65576
  0
LINE
  8
0
 10
-0.956131
 20
8.65576
 11
-0.803726
 21
8.76648
  0
LINE
  8
0
 10
-0.803726
 20
8.76648
 11
-0.638657
 21
8.85724
  0
LINE
  8
0
 10
-0.638657
 20
8.85724
 11
-0.463516
 21
8.92657
  0
LINE
  8
0
 10
-0.463516
 20
8.92657
 11
-0.281067
 21
8.97342
  0
LINE
  8
0
 10
-0.281067
 20
8.97342
 11
-0.0941772
 21
8.99704
  0
LINE
  8
0
 10
-0.0941772
 20
8.99704
 11
0.0941772
 21
8.99704
  0
LINE
  8
0
 10
0.0941772
 20
8.99704
 11
0.281067
 21
8.97342
  0
LINE
  8
0
 10
0.281067
 20
8.97342
 11
0.463516
 21
8.92657
  0
LINE
  8
0
 10
0.463516
 20
8.92657
 11
0.638657
 21
8.85724
  0
LINE
  8
0
 10
0.638657
 20
8.85724
 11
0.803726
 21
8.76648
  0
LINE
  8
0
 10
0.803726
 20
8.76648
 11
0.956131
 21
8.65576
  0
LINE
  8
0
 10
0.956131
 20
8.65576
 11
1.09344
 21
8.52681
  0
LINE
  8
0
 10
1.09344
 20
8.52681
 11
1.21352
 21
8.38167
  0
LINE
  8
0
 10
1.21352
 20
8.38167
 11
1.31445
 21
8.22263
  0
LINE
  8
0
 10
1.31445
 20
8.22263
 11
1.39465
 21
8.05219
  0
LINE
  8
0
 10
1.39465
 20
8.05219
 11
1.45287
 21
7.87303
  0
LINE
  8
0
 10
1.45287
 20
7.87303
 11
1.48816
 21
7.68799
  0
LINE
  8
0
 10
1.48816
 20
7.68799
 11
1.5
 21
7.5
  0
LINE
  8
0
 10
1.5
 20
7.5
 11
1.48816
 21
7.312
  0
LINE
  8
0
 10
1.48816
 20
7.312
 11
1.45287
 21
7.12695
  0
LINE
  8
0
 10
1.45287
 20
7.12695
 11
1.39465
 21
6.9478
  0
LINE
  8
0
 10
1.39465
 20
6.9478
 11
1.31445
 21
6.77736
  0
LINE
  8
0
 10
1.31445
 20
6.77736
 11
1.21352
 21
6.61832
  0
LINE
  8
0
 10
1.21352
 20
6.61832
 11
1.09344
 21
6.47318
  0
LINE
  8
0
 10
1.09344
 20
6.47318
 11
0.956131
 21
6.34422
  0
LINE
  8
0
 10
0.956131
 20
6.34422
 11
0.803726
 21
6.23351
  0
LINE
  8
0
 10
0.803726
 20
6.23351
 11
0.638657
 21
6.14275
  0
LINE
  8
0
 10
0.638657
 20
6.14275
 11
0.463516
 21
6.07341
  0
LINE
  8
0
 10
0.463516
 20
6.07341
 11
0.281067
 21
6.02657
  0
LINE
  8
0
 10
0.281067
 20
6.02657
 11
0.0941772
 21
6.00294
  0
LINE
  8
0
 10
0.0941772
 20
6.00294
 11
-0.0941772
 21
6.00294
  0
LINE
  8
0
 10
-30.0942
 20
6.00294
 11
-30.2811
 21
6.02657
  0
LINE
  8
0
 10
-30.2811
 20
6.02657
 11
-30.4635
 21
6.07341
  0
LINE
  8
0
 10
-30.4635
 20
6.07341
 11
-30.6387
 21
6.14275
  0
LINE
  8
0
 10
-30.6387
 20
6.14275
 11
-30.8037
 21
6.23351
  0
LINE
  8
0
 10
-30.8037
 20
6.23351
 11
-30.9561
 21
6.34422
  0
LINE
  8
0
 10
-30.9561
 20
6.34422
 11
-31.0934
 21
6.47318
  0
LINE
  8
0
 10
-31.0934
 20
6.47318
 11
-31.2135
 21
6.61832
  0
LINE
  8
0
 10
-31.2135
 20
6.61832
 11
-31.3145
 21
6.77736
  0
LINE
  8
0
 10
-31.3145
 20
6.77736
 11
-31.3947
 21
6.9478
  0
LINE
  8
0
 10
-31.3947
 20
6.9478
 11
-31.4529
 21
7.12695
  0
LINE
  8
0
 10
-31.4529
 20
7.12695
 11
-31.4882
 21
7.312
  0
LINE
  8
0
 10
-31.4882
 20
7.312
 11
-31.5
 21
7.5
  0
LINE
  8
0
 10
-31.5
 20
7.5
 11
-31.4882
 21
7.68799
  0
LINE
  8
0
 10
-31.4882
 20
7.68799
 11
-31.4529
 21
7.87303
  0
LINE
  8
0
 10
-31.4529
 20
7.87303
 11
-31.3947
 21
8.05219
  0
LINE
  8
0
 10
-31.3947
 20
8.05219
 11
-31.3145
 21
8.22263
  0
LINE
  8
0
 10
-31.3145
 20
8.22263
 11
-31.2135
 21
8.38167
  0
LINE
  8
0
 10
-31.2135
 20
8.38167
 11
-31.0934
 21
8.52681
  0
LINE
  8
0
 10
-31.0934
 20
8.52681
 11
-30.9561
 21
8.65576
  0
LINE
  8
0
 10
-30.9561
 20
8.65576
 11
-30.8037
 21
8.76648
  0
LINE
  8
0
 10
-30.8037
 20
8.76648
 11
-30.6387
 21
8.85724
  0
LINE
  8
0
 10
-30.6387
 20
8.85724
 11
-30.4635
 21
8.92657
  0
LINE
  8
0
 10
-30.4635
 20
8.92657
 11
-30.2811
 21
8.97342
  0
LINE
  8
0
 10
-30.2811
 20
8.97342
 11
-30.0942
 21
8.99704
  0
LINE
  8
0
 10
-30.0942
 20
8.99704
 11
-29.9058
 21
8.99704
  0
LINE
  8
0
 10
-29.9058
 20
8.99704
 11
-29.7189
 21
8.97342
  0
LINE
  8
0
 10
-29.7189
 20
8.97342
 11
-29.5365
 21
8.92657
  0
LINE
  8
0
 10
-29.5365
 20
8.92657
 11
-29.3613
 21
8.85724
  0
LINE
  8
0
 10
-29.3613
 20
8.85724
 11
-29.1963
 21
8.76648
  0
LINE
  8
0
 10
-29.1963
 20
8.76648
 11
-29.0439
 21
8.65576
  0
LINE
  8
0
 10
-29.0439
 20
8.65576
 11
-28.9065
 21
8.52681
  0
LINE
  8
0
 10
-28.9065
 20
8.52681
 11
-28.7865
 21
8.38167
  0
LINE
  8
0
 10
-28.7865
 20
8.38167
 11
-28.6855
 21
8.22263
  0
LINE
  8
0
 10
-28.6855
 20
8.22263
 11
-28.6053
 21
8.05219
  0
LINE
  8
0
 10
-28.6053
 20
8.05219
 11
-28.5471
 21
7.87303
  0
LINE
  8
0
 10
-28.5471
 20
7.87303
 11
-28.5118
 21
7.68799
  0
LINE
  8
0
 10
-28.5118
 20
7.68799
 11
-28.5
 21
7.5
  0
LINE
  8
0
 10
-28.5
 20
7.5
 11
-28.5118
 21
7.312
  0
LINE
  8
0
 10
-28.5118
 20
7.312
 11
-28.5471
 21
7.12695
  0
LINE
  8
0
 10
-28.5471
 20
7.12695
 11
-28.6053
 21
6.9478
  0
LINE
  8
0
 10
-28.6053
 20
6.9478
 11
-28.6855
 21
6.77736
  0
LINE
  8
0
 10
-28.6855
 20
6.77736
 11
-28.7865
 21
6.61832
  0
LINE
  8
0
 10
-28.7865
 20
6.61832
 11
-28.9065
 21
6.47318
  0
LINE
  8
0
 10
-28.9065
 20
6.47318
 11
-29.0439
 21
6.34422
  0
LINE
  8
0
 10
-29.0439
 20
6.34422
 11
-29.1963
 21
6.23351
  0
LINE
  8
0
 10
-29.1963
 20
6.23351
 11
-29.3613
 21
6.14275
  0
LINE
  8
0
 10
-29.3613
 20
6.14275
 11
-29.5365
 21
6.07341
  0
LINE
  8
0
 10
-29.5365
 20
6.07341
 11
-29.7189
 21
6.02657
  0
LINE
  8
0
 10
-29.7189
 20
6.02657
 11
-29.9058
 21
6.00294
  0
LINE
  8
0
 10
-29.9058
 20
6.00294
 11
-30.0942
 21
6.00294
  0
LINE
  8
0
 10
-30.0942
 20
-1.49704
 11
-30.2811
 21
-1.47342
  0
LINE
  8
0
 10
-30.2811
 20
-1.47342
 11
-30.4635
 21
-1.42657
  0
LINE
  8
0
 10
-30.4635
 20
-1.42657
 11
-30.6387
 21
-1.35724
  0
LINE
  8
0
 10
-30.6387
 20
-1.35724
 11
-30.8037
 21
-1.26648
  0
LINE
  8
0
 10
-30.8037
 20
-1.26648
 11
-30.9561
 21
-1.15576
  0
LINE
  8
0
 10
-30.9561
 20
-1.15576
 11
-31.0934
 21
-1.02681
  0
LINE
  8
0
 10
-31.0934
 20
-1.02681
 11
-31.2135
 21
-0.881668
  0
LINE
  8
0
 10
-31.2135
 20
-0.881668
 11
-31.3145
 21
-0.722626
  0
LINE
  8
0
 10
-31.3145
 20
-0.722626
 11
-31.3947
 21
-0.552185
  0
LINE
  8
0
 10
-31.3947
 20
-0.552185
 11
-31.4529
 21
-0.373032
  0
LINE
  8
0
 10
-31.4529
 20
-0.373032
 11
-31.4882
 21
-0.187988
  0
LINE
  8
0
 10
-31.4882
 20
-0.187988
 11
-31.5
 21
0
  0
LINE
  8
0
 10
-31.5
 20
0
 11
-31.4882
 21
0.187988
  0
LINE
  8
0
 10
-31.4882
 20
0.187988
 11
-31.4529
 21
0.373032
  0
LINE
  8
0
 10
-31.4529
 20
0.373032
 11
-31.3947
 21
0.552185
  0
LINE
  8
0
 10
-31.3947
 20
0.552185
 11
-31.3145
 21
0.722626
  0
LINE
  8
0
 10
-31.3145
 20
0.722626
 11
-31.2135
 21
0.881668
  0
LINE
  8
0
 10
-31.2135
 20
0.881668
 11
-31.0934
 21
1.02681
  0
LINE
  8
0
 10
-31.0934
 20
1.02681
 11
-30.9561
 21
1.15576
  0
LINE
  8
0
 10
-30.9561
 20
1.15576
 11
-30.8037
 21
1.26648
  0
LINE
  8
0
 10
-30.8037
 20
1.26648
 11
-30.6387
 21
1.35724
  0
LINE
  8
0
 10
-30.6387
 20
1.35724
 11
-30.4635
 21
1.42657
  0
LINE
  8
0
 10
-30.4635
 20
1.42657
 11
-30.2811
 21
1.47342
  0
LINE
  8
0
 10
-30.2811
 20
1.47342
 11
-30.0942
 21
1.49704
  0
LINE
  8
0
 10
-30.0942
 20
1.49704
 11
-29.9058
 21
1.49704
  0
LINE
  8
0
 10
-29.9058
 20
1.49704
 11
-29.7189
 21
1.47342
  0
LINE
  8
0
 10
-29.7189
 20
1.47342
 11
-29.5365
 21
1.42657
  0
LINE
  8
0
 10
-29.5365
 20
1.42657
 11
-29.3613
 21
1.35724
  0
LINE
  8
0
 10
-29.3613
 20
1.35724
 11
-29.1963
 21
1.26648
  0
LINE
  8
0
 10
-29.1963
 20
1.26648
 11
-29.0439
 21
1.15576
  0
LINE
  8
0
 10
-29.0439
 20
1.15576
 11
-28.9065
 21
1.02681
  0
LINE
  8
0
 10
-28.9065
 20
1.02681
 11
-28.7865
 21
0.881668
  0
LINE
  8
0
 10
-28.7865
 20
0.881668
 11
-28.6855
 21
0.722626
  0
LINE
  8
0
 10
-28.6855
 20
0.722626
 11
-28.6053
 21
0.552185
  0
LINE
  8
0
 10
-28.6053
 20
0.552185
 11
-28.5471
 21
0.373032
  0
LINE
  8
0
 10
-28.5471
 20
0.373032
 11
-28.5118
 21
0.187988
  0
LINE
  8
0
 10
-28.5118
 20
0.187988
 11
-28.5
 21
0
  0
LINE
  8
0
 10
-28.5
 20
0
 11
-28.5118
 21
-0.187988
  0
LINE
  8
0
 10
-28.5118
 20
-0.187988
 11
-28.5471
 21
-0.373032
  0
LINE
  8
0
 10
-28.5471
 20
-0.373032
 11
-28.6053
 21
-0.552185
  0
LINE
  8
0
 10
-28.6053
 20
-0.552185
 11
-28.6855
 21
-0.722626
  0
LINE
  8
0
 10
-28.6855
 20
-0.722626
 11
-28.7865
 21
-0.881668
  0
LINE
  8
0
 10
-28.7865
 20
-0.881668
 11
-28.9065
 21
-1.02681
  0
LINE
  8
0
 10
-28.9065
 20
-1.02681
 11
-29.0439
 21
-1.15576
  0
LINE
  8
0
 10
-29.0439
 20
-1.15576
 11
-29.1963
 21
-1.26648
  0
LINE
  8
0
 10
-29.1963
 20
-1.26648
 11
-29.3613
 21
-1.35724
  0
LINE
  8
0
 10
-29.3613
 20
-1.35724
 11
-29.5365
 21
-1.42657
  0
LINE
  8
0
 10
-29.5365
 20
-1.42657
 11
-29.7189
 21
-1.47342
  0
LINE
  8
0
 10
-29.7189
 20
-1.47342
 11
-29.9058
 21
-1.49704
  0
LINE
  8
0
 10
-29.9058
 20
-1.49704
 11
-30.0942
 21
-1.49704
  0
LINE
  8
0
 10
22.4058
 20
-1.49704
 11
22.2189
 21
-1.47342
  0
LINE
  8
0
 10
22.2189
 20
-1.47342
 11
22.0365
 21
-1.42657
  0
LINE
  8
0
 10
22.0365
 20
-1.42657
 11
21.8613
 21
-1.35724
  0
LINE
  8
0
 10
21.8613
 20
-1.35724
 11
21.6963
 21
-1.26648
  0
LINE
  8
0
 10
21.6963
 20
-1.26648
 11
21.5439
 21
-1.15576
  0
LINE
  8
0
 10
21.5439
 20
-1.15576
 11
21.4065
 21
-1.02681
  0
LINE
  8
0
 10
21.4065
 20
-1.02681
 11
21.2865
 21
-0.881668
  0
LINE
  8
0
 10
21.2865
 20
-0.881668
 11
21.1855
 21
-0.722626
  0
LINE
  8
0
 10
21.1855
 20
-0.722626
 11
21.1053
 21
-0.552185
  0
LINE
  8
0
 10
21.1053
 20
-0.552185
 11
21.0471
 21
-0.373032
  0
LINE
  8
0
 10
21.0471
 20
-0.373032
 11
21.0118
 21
-0.187988
  0
LINE
  8
0
 10
21.0118
 20
-0.187988
 11
21
 21
0
  0
LINE
  8
0
 10
21
 20
0
 11
21.0118
 21
0.187988
  0
LINE
  8
0
 10
21.0118
 20
0.187988
 11
21.0471
 21
0.373032
  0
LINE
  8
0
 10
21.0471
 20
0.373032
 11
21.1053
 21
0.552185
  0
LINE
  8
0
 10
21.1053
 20
0.552185
 11
21.1855
 21
0.722626
  0
LINE
  8
0
 10
21.1855
 20
0.722626
 11
21.2865
 21
0.881668
  0
LINE
  8
0
 10
21.2865
 20
0.881668
 11
21.4065
 21
1.02681
  0
LINE
  8
0
 10
21.4065
 20
1.02681
 11
21.5439
 21
1.15576
  0
LINE
  8
0
 10
21.5439
 20
1.15576
 11
21.6963
 21
1.26648
  0
LINE
  8
0
 10
21.6963
 20
1.26648
 11
21.8613
 21
1.35724
  0
LINE
  8
0
 10
21.8613
 20
1.35724
 11
22.0365
 21
1.42657
  0
LINE
  8
0
 10
22.0365
 20
1.42657
 11
22.2189
 21
1.47342
  0
LINE
  8
0
 10
22.2189
 20
1.47342
 11
22.4058
 21
1.49704
  0
LINE
  8
0
 10
22.4058
 20
1.49704
 11
22.5942
 21
1.49704
  0
LINE
  8
0
 10
22.5942
 20
1.49704
 11
22.7811
 21
1.47342
  0
LINE
  8
0
 10
22.7811
 20
1.47342
 11
22.9635
 21
1.42657
  0
LINE
  8
0
 10
22.9635
 20
1.42657
 11
23.1387
 21
1.35724
  0
LINE
  8
0
 10
23.1387
 20
1.35724
 11
23.3037
 21
1.26648
  0
LINE
  8
0
 10
23.3037
 20
1.26648
 11
23.4561
 21
1.15576
  0
LINE
  8
0
 10
23.4561
 20
1.15576
 11
23.5934
 21
1.02681
  0
LINE
  8
0
 10
23.5934
 20
1.02681
 11
23.7135
 21
0.881668
  0
LINE
  8
0
 10
23.7135
 20
0.881668
 11
23.8145
 21
0.722626
  0
LINE
  8
0
 10
23.8145
 20
0.722626
 11
23.8947
 21
0.552185
  0
LINE
  8
0
 10
23.8947
 20
0.552185
 11
23.9529
 21
0.373032
  0
LINE
  8
0
 10
23.9529
 20
0.373032
 11
23.9882
 21
0.187988
  0
LINE
  8
0
 10
23.9882
 20
0.187988
 11
24
 21
0
  0
LINE
  8
0
 10
24
 20
0
 11
23.9882
 21
-0.187988
  0
LINE
  8
0
 10
23.9882
 20
-0.187988
 11
23.9529
 21
-0.373032
  0
LINE
  8
0
 10
23.9529
 20
-0.373032
 11
23.8947
 21
-0.552185
  0
LINE
  8
0
 10
23.8947
 20
-0.552185
 11
23.8145
 21
-0.722626
  0
LINE
  8
0
 10
23.8145
 20
-0.722626
 11
23.7135
 21
-0.881668
  0
LINE
  8
0
 10
23.7135
 20
-0.881668
 11
23.5934
 21
-1.02681
  0
LINE
  8
0
 10
23.5934
 20
-1.02681
 11
23.4561
 21
-1.15576
  0
LINE
  8
0
 10
23.4561
 20
-1.15576
 11
23.3037
 21
-1.26648
  0
LINE
  8
0
 10
23.3037
 20
-1.26648
 11
23.1387
 21
-1.35724
  0
LINE
  8
0
 10
23.1387
 20
-1.35724
 11
22.9635
 21
-1.42657
  0
LINE
  8
0
 10
22.9635
 20
-1.42657
 11
22.7811
 21
-1.47342
  0
LINE
  8
0
 10
22.7811
 20
-1.47342
 11
22.5942
 21
-1.49704
  0
LINE
  8
0
 10
22.5942
 20
-1.49704
 11
22.4058
 21
-1.49704
  0
LINE
  8
0
 10
-15.0942
 20
-1.49704
 11
-15.2811
 21
-1.47342
  0
LINE
  8
0
 10
-15.2811
 20
-1.47342
 11
-15.4635
 21
-1.42657
  0
LINE
  8
0
 10
-15.4635
 20
-1.42657
 11
-15.6387
 21
-1.35724
  0
LINE
  8
0
 10
-15.6387
 20
-1.35724
 11
-15.8037
 21
-1.26648
  0
LINE
  8
0
 10
-15.8037
 20
-1.26648
 11
-15.9561
 21
-1.15576
  0
LINE
  8
0
 10
-15.9561
 20
-1.15576
 11
-16.0934
 21
-1.02681
  0
LINE
  8
0
 10
-16.0934
 20
-1.02681
 11
-16.2135
 21
-0.881668
  0
LINE
  8
0
 10
-16.2135
 20
-0.881668
 11
-16.3145
 21
-0.722626
  0
LINE
  8
0
 10
-16.3145
 20
-0.722626
 11
-16.3947
 21
-0.552185
  0
LINE
  8
0
 10
-16.3947
 20
-0.552185
 11
-16.4529
 21
-0.373032
  0
LINE
  8
0
 10
-16.4529
 20
-0.373032
 11
-16.4882
 21
-0.187988
  0
LINE
  8
0
 10
-16.4882
 20
-0.187988
 11
-16.5
 21
0
  0
LINE
  8
0
 10
-16.5
 20
0
 11
-16.4882
 21
0.187988
  0
LINE
  8
0
 10
-16.4882
 20
0.187988
 11
-16.4529
 21
0.373032
  0
LINE
  8
0
 10
-16.4529
 20
0.373032
 11
-16.3947
 21
0.552185
  0
LINE
  8
0
 10
-16.3947
 20
0.552185
 11
-16.3145
 21
0.722626
  0
LINE
  8
0
 10
-16.3145
 20
0.722626
 11
-16.2135
 21
0.881668
  0
LINE
  8
0
 10
-16.2135
 20
0.881668
 11
-16.0934
 21
1.02681
  0
LINE
  8
0
 10
-16.0934
 20
1.02681
 11
-15.9561
 21
1.15576
  0
LINE
  8
0
 10
-15.9561
 20
1.15576
 11
-15.8037
 21
1.26648
  0
LINE
  8
0
 10
-15.8037
 20
1.26648
 11
-15.6387
 21
1.35724
  0
LINE
  8
0
 10
-15.6387
 20
1.35724
 11
-15.4635
 21
1.42657
  0
LINE
  8
0
 10
-15.4635
 20
1.42657
 11
-15.2811
 21
1.47342
  0
LINE
  8
0
 10
-15.2811
 20
1.47342
 11
-15.0942
 21
1.49704
  0
LINE
  8
0
 10
-15.0942
 20
1.49704
 11
-14.9058
 21
1.49704
  0
LINE
  8
0
 10
-14.9058
 20
1.49704
 11
-14.7189
 21
1.47342
  0
LINE
  8
0
 10
-14.7189
 20
1.47342
 11
-14.5365
 21
1.42657
  0
LINE
  8
0
 10
-14.5365
 20
1.42657
 11
-14.3613
 21
1.35724
  0
LINE
  8
0
 10
-14.3613
 20
1.35724
 11
-14.1963
 21
1.26648
  0
LINE
  8
0
 10
-14.1963
 20
1.26648
 11
-14.0439
 21
1.15576
  0
LINE
  8
0
 10
-14.0439
 20
1.15576
 11
-13.9065
 21
1.02681
  0
LINE
  8
0
 10
-13.9065
 20
1.02681
 11
-13.7865
 21
0.881668
  0
LINE
  8
0
 10
-13.7865
 20
0.881668
 11
-13.6855
 21
0.722626
  0
LINE
  8
0
 10
-13.6855
 20
0.722626
 11
-13.6053
 21
0.552185
  0
LINE
  8
0
 10
-13.6053
 20
0.552185
 11
-13.5471
 21
0.373032
  0
LINE
  8
0
 10
-13.5471
 20
0.373032
 11
-13.5118
 21
0.187988
  0
LINE
  8
0
 10
-13.5118
 20
0.187988
 11
-13.5
 21
0
  0
LINE
  8
0
 10
-13.5
 20
0
 11
-13.5118
 21
-0.187988
  0
LINE
  8
0
 10
-13.5118
 20
-0.187988
 11
-13.5471
 21
-0.373032
  0
LINE
  8
0
 10
-13.5471
 20
-0.373032
 11
-13.6053
 21
-0.552185
  0
LINE
  8
0
 10
-13.6053
 20
-0.552185
 11
-13.6855
 21
-0.722626
  0
LINE
  8
0
 10
-13.6855
 20
-0.722626
 11
-13.7865
 21
-0.881668
  0
LINE
  8
0
 10
-13.7865
 20
-0.881668
 11
-13.9065
 21
-1.02681
  0
LINE
  8
0
 10
-13.9065
 20
-1.02681
 11
-14.0439
 21
-1.15576
  0
LINE
  8
0
 10
-14.0439
 20
-1.15576
 11
-14.1963
 21
-1.26648
  0
LINE
  8
0
 10
-14.1963
 20
-1.26648
 11
-14.3613
 21
-1.35724
  0
LINE
  8
0
 10
-14.3613
 20
-1.35724
 11
-14.5365
 21
-1.42657
  0
LINE
  8
0
 10
-14.5365
 20
-1.42657
 11
-14.7189
 21
-1.47342
  0
LINE
  8
0
 10
-14.7189
 20
-1.47342
 11
-14.9058
 21
-1.49704
  0
LINE
  8
0
 10
-14.9058
 20
-1.49704
 11
-15.0942
 21
-1.49704
  0
LINE
  8
0
 10
-22.5942
 20
-1.49704
 11
-22.7811
 21
-1.47342
  0
LINE
  8
0
 10
-22.7811
 20
-1.47342
 11
-22.9635
 21
-1.42657
  0
LINE
  8
0
 10
-22.9635
 20
-1.42657
 11
-23.1387
 21
-1.35724
  0
LINE
  8
0
 10
-23.1387
 20
-1.35724
 11
-23.3037
 21
-1.26648
  0
LINE
  8
0
 10
-23.3037
 20
-1.26648
 11
-23.4561
 21
-1.15576
  0
LINE
  8
0
 10
-23.4561
 20
-1.15576
 11
-23.5934
 21
-1.02681
  0
LINE
  8
0
 10
-23.5934
 20
-1.02681
 11
-23.7135
 21
-0.881668
  0
LINE
  8
0
 10
-23.7135
 20
-0.881668
 11
-23.8145
 21
-0.722626
  0
LINE
  8
0
 10
-23.8145
 20
-0.722626
 11
-23.8947
 21
-0.552185
  0
LINE
  8
0
 10
-23.8947
 20
-0.552185
 11
-23.9529
 21
-0.373032
  0
LINE
  8
0
 10
-23.9529
 20
-0.373032
 11
-23.9882
 21
-0.187988
  0
LINE
  8
0
 10
-23.9882
 20
-0.187988
 11
-24
 21
0
  0
LINE
  8
0
 10
-24
 20
0
 11
-23.9882
 21
0.187988
  0
LINE
  8
0
 10
-23.9882
 20
0.187988
 11
-23.9529
 21
0.373032
  0
LINE
  8
0
 10
-23.9529
 20
0.373032
 11
-23.8947
 21
0.552185
  0
LINE
  8
0
 10
-23.8947
 20
0.552185
 11
-23.8145
 21
0.722626
  0
LINE
  8
0
 10
-23.8145
 20
0.722626
 11
-23.7135
 21
0.881668
  0
LINE
  8
0
 10
-23.7135
 20
0.881668
 11
-23.5934
 21
1.02681
  0
LINE
  8
0
 10
-23.5934
 20
1.02681
 11
-23.4561
 21
1.15576
  0
LINE
  8
0
 10
-23.4561
 20
1.15576
 11
-23.3037
 21
1.26648
  0
LINE
  8
0
 10
-23.3037
 20
1.26648
 11
-23.1387
 21
1.35724
  0
LINE
  8
0
 10
-23.1387
 20
1.35724
 11
-22.9635
 21
1.42657
  0
LINE
  8
0
 10
-22.9635
 20
1.42657
 11
-22.7811
 21
1.47342
  0
LINE
  8
0
 10
-22.7811
 20
1.47342
 11
-22.5942
 21
1.49704
  0
LINE
  8
0
 10
-22.5942
 20
1.49704
 11
-22.4058
 21
1.49704
  0
LINE
  8
0
 10
-22.4058
 20
1.49704
 11
-22.2189
 21
1.47342
  0
LINE
  8
0
 10
-22.2189
 20
1.47342
 11
-22.0365
 21
1.42657
  0
LINE
  8
0
 10
-22.0365
 20
1.42657
 11
-21.8613
 21
1.35724
  0
LINE
  8
0
 10
-21.8613
 20
1.35724
 11
-21.6963
 21
1.26648
  0
LINE
  8
0
 10
-21.6963
 20
1.26648
 11
-21.5439
 21
1.15576
  0
LINE
  8
0
 10
-21.5439
 20
1.15576
 11
-21.4065
 21
1.02681
  0
LINE
  8
0
 10
-21.4065
 20
1.02681
 11
-21.2865
 21
0.881668
  0
LINE
  8
0
 10
-21.2865
 20
0.881668
 11
-21.1855
 21
0.722626
  0
LINE
  8
0
 10
-21.1855
 20
0.722626
 11
-21.1053
 21
0.552185
  0
LINE
  8
0
 10
-21.1053
 20
0.552185
 11
-21.0471
 21
0.373032
  0
LINE
  8
0
 10
-21.0471
 20
0.373032
 11
-21.0118
 21
0.187988
  0
LINE
  8
0
 10
-21.0118
 20
0.187988
 11
-21
 21
0
  0
LINE
  8
0
 10
-21
 20
0
 11
-21.0118
 21
-0.187988
  0
LINE
  8
0
 10
-21.0118
 20
-0.187988
 11
-21.0471
 21
-0.373032
  0
LINE
  8
0
 10
-21.0471
 20
-0.373032
 11
-21.1053
 21
-0.552185
  0
LINE
  8
0
 10
-21.1053
 20
-0.552185
 11
-21.1855
 21
-0.722626
  0
LINE
  8
0
 10
-21.1855
 20
-0.722626
 11
-21.2865
 21
-0.881668
  0
LINE
  8
0
 10
-21.2865
 20
-0.881668
 11
-21.4065
 21
-1.02681
  0
LINE
  8
0
 10
-21.4065
 20
-1.02681
 11
-21.5439
 21
-1.15576
  0
LINE
  8
0
 10
-21.5439
 20
-1.15576
 11
-21.6963
 21
-1.26648
  0
LINE
  8
0
 10
-21.6963
 20
-1.26648
 11
-21.8613
 21
-1.35724
  0
LINE
  8
0
 10
-21.8613
 20
-1.35724
 11
-22.0365
 21
-1.42657
  0
LINE
  8
0
 10
-22.0365
 20
-1.42657
 11
-22.2189
 21
-1.47342
  0
LINE
  8
0
 10
-22.2189
 20
-1.47342
 11
-22.4058
 21
-1.49704
  0
LINE
  8
0
 10
-22.4058
 20
-1.49704
 11
-22.5942
 21
-1.49704
  0
LINE
  8
0
 10
-7.59418
 20
-1.49704
 11
-7.78107
 21
-1.47342
  0
LINE
  8
0
 10
-7.78107
 20
-1.47342
 11
-7.96352
 21
-1.42657
  0
LINE
  8
0
 10
-7.96352
 20
-1.42657
 11
-8.13866
 21
-1.35724
  0
LINE
  8
0
 10
-8.13866
 20
-1.35724
 11
-8.30373
 21
-1.26648
  0
LINE
  8
0
 10
-8.30373
 20
-1.26648
 11
-8.45613
 21
-1.15576
  0
LINE
  8
0
 10
-8.45613
 20
-1.15576
 11
-8.59344
 21
-1.02681
  0
LINE
  8
0
 10
-8.59344
 20
-1.02681
 11
-8.71352
 21
-0.881668
  0
LINE
  8
0
 10
-8.71352
 20
-0.881668
 11
-8.81445
 21
-0.722626
  0
LINE
  8
0
 10
-8.81445
 20
-0.722626
 11
-8.89465
 21
-0.552185
  0
LINE
  8
0
 10
-8.89465
 20
-0.552185
 11
-8.95287
 21
-0.373032
  0
LINE
  8
0
 10
-8.95287
 20
-0.373032
 11
-8.98816
 21
-0.187988
  0
LINE
  8
0
 10
-8.98816
 20
-0.187988
 11
-9
 21
0
  0
LINE
  8
0
 10
-9
 20
0
 11
-8.98816
 21
0.187988
  0
LINE
  8
0
 10
-8.98816
 20
0.187988
 11
-8.95287
 21
0.373032
  0
LINE
  8
0
 10
-8.95287
 20
0.373032
 11
-8.89465
 21
0.552185
  0
LINE
  8
0
 10
-8.89465
 20
0.552185
 11
-8.81445
 21
0.722626
  0
LINE
  8
0
 10
-8.81445
 20
0.722626
 11
-8.71352
 21
0.881668
  0
LINE
  8
0
 10
-8.71352
 20
0.881668
 11
-8.59344
 21
1.02681
  0
LINE
  8
0
 10
-8.59344
 20
1.02681
 11
-8.45613
 21
1.15576
  0
LINE
  8
0
 10
-8.45613
 20
1.15576
 11
-8.30373
 21
1.26648
  0
LINE
  8
0
 10
-8.30373
 20
1.26648
 11
-8.13866
 21
1.35724
  0
LINE
  8
0
 10
-8.13866
 20
1.35724
 11
-7.96352
 21
1.42657
  0
LINE
  8
0
 10
-7.96352
 20
1.42657
 11
-7.78107
 21
1.47342
  0
LINE
  8
0
 10
-7.78107
 20
1.47342
 11
-7.59418
 21
1.49704
  0
LINE
  8
0
 10
-7.59418
 20
1.49704
 11
-7.40581
 21
1.49704
  0
LINE
  8
0
 10
-7.40581
 20
1.49704
 11
-7.21892
 21
1.47342
  0
LINE
  8
0
 10
-7.21892
 20
1.47342
 11
-7.03647
 21
1.42657
  0
LINE
  8
0
 10
-7.03647
 20
1.42657
 11
-6.86133
 21
1.35724
  0
LINE
  8
0
 10
-6.86133
 20
1.35724
 11
-6.69626
 21
1.26648
  0
LINE
  8
0
 10
-6.69626
 20
1.26648
 11
-6.54385
 21
1.15576
  0
LINE
  8
0
 10
-6.54385
 20
1.15576
 11
-6.40654
 21
1.02681
  0
LINE
  8
0
 10
-6.40654
 20
1.02681
 11
-6.28647
 21
0.881668
  0
LINE
  8
0
 10
-6.28647
 20
0.881668
 11
-6.18553
 21
0.722626
  0
LINE
  8
0
 10
-6.18553
 20
0.722626
 11
-6.10533
 21
0.552185
  0
LINE
  8
0
 10
-6.10533
 20
0.552185
 11
-6.04712
 21
0.373032
  0
LINE
  8
0
 10
-6.04712
 20
0.373032
 11
-6.01183
 21
0.187988
  0
LINE
  8
0
 10
-6.01183
 20
0.187988
 11
-6
 21
0
  0
LINE
  8
0
 10
-6
 20
0
 11
-6.01183
 21
-0.187988
  0
LINE
  8
0
 10
-6.01183
 20
-0.187988
 11
-6.04712
 21
-0.373032
  0
LINE
  8
0
 10
-6.04712
 20
-0.373032
 11
-6.10533
 21
-0.552185
  0
LINE
  8
0
 10
-6.10533
 20
-0.552185
 11
-6.18553
 21
-0.722626
  0
LINE
  8
0
 10
-6.18553
 20
-0.722626
 11
-6.28647
 21
-0.881668
  0
LINE
  8
0
 10
-6.28647
 20
-0.881668
 11
-6.40654
 21
-1.02681
  0
LINE
  8
0
 10
-6.40654
 20
-1.02681
 11
-6.54385
 21
-1.15576
  0
LINE
  8
0
 10
-6.54385
 20
-1.15576
 11
-6.69626
 21
-1.26648
  0
LINE
  8
0
 10
-6.69626
 20
-1.26648
 11
-6.86133
 21
-1.35724
  0
LINE
  8
0
 10
-6.86133
 20
-1.35724
 11
-7.03647
 21
-1.42657
  0
LINE
  8
0
 10
-7.03647
 20
-1.42657
 11
-7.21892
 21
-1.47342
  0
LINE
  8
0
 10
-7.21892
 20
-1.47342
 11
-7.40581
 21
-1.49704
  0
LINE
  8
0
 10
-7.40581
 20
-1.49704
 11
-7.59418
 21
-1.49704
  0
LINE
  8
0
 10
29.9058
 20
-1.49704
 11
29.7189
 21
-1.47342
  0
LINE
  8
0
 10
29.7189
 20
-1.47342
 11
29.5365
 21
-1.42657
  0
LINE
  8
0
 10
29.5365
 20
-1.42657
 11
29.3613
 21
-1.35724
  0
LINE
  8
0
 10
29.3613
 20
-1.35724
 11
29.1963
 21
-1.26648
  0
LINE
  8
0
 10
29.1963
 20
-1.26648
 11
29.0439
 21
-1.15576
  0
LINE
  8
0
 10
29.0439
 20
-1.15576
 11
28.9065
 21
-1.02681
  0
LINE
  8
0
 10
28.9065
 20
-1.02681
 11
28.7865
 21
-0.881668
  0
LINE
  8
0
 10
28.7865
 20
-0.881668
 11
28.6855
 21
-0.722626
  0
LINE
  8
0
 10
28.6855
 20
-0.722626
 11
28.6053
 21
-0.552185
  0
LINE
  8
0
 10
28.6053
 20
-0.552185
 11
28.5471
 21
-0.373032
  0
LINE
  8
0
 10
28.5471
 20
-0.373032
 11
28.5118
 21
-0.187988
  0
LINE
  8
0
 10
28.5118
 20
-0.187988
 11
28.5
 21
0
  0
LINE
  8
0
 10
28.5
 20
0
 11
28.5118
 21
0.187988
  0
LINE
  8
0
 10
28.5118
 20
0.187988
 11
28.5471
 21
0.373032
  0
LINE
  8
0
 10
28.5471
 20
0.373032
 11
28.6053
 21
0.552185
  0
LINE
  8
0
 10
28.6053
 20
0.552185
 11
28.6855
 21
0.722626
  0
LINE
  8
0
 10
28.6855
 20
0.722626
 11
28.7865
 21
0.881668
  0
LINE
  8
0
 10
28.7865
 20
0.881668
 11
28.9065
 21
1.02681
  0
LINE
  8
0
 10
28.9065
 20
1.02681
 11
29.0439
 21
1.15576
  0
LINE
  8
0
 10
29.0439
 20
1.15576
 11
29.1963
 21
1.26648
  0
LINE
  8
0
 10
29.1963
 20
1.26648
 11
29.3613
 21
1.35724
  0
LINE
  8
0
 10
29.3613
 20
1.35724
 11
29.5365
 21
1.42657
  0
LINE
  8
0
 10
29.5365
 20
1.42657
 11
29.7189
 21
1.47342
  0
LINE
  8
0
 10
29.7189
 20
1.47342
 11
29.9058
 21
1.49704
  0
LINE
  8
0
 10
29.9058
 20
1.49704
 11
30.0942
 21
1.49704
  0
LINE
  8
0
 10
30.0942
 20
1.49704
 11
30.2811
 21
1.47342
  0
LINE
  8
0
 10
30.2811
 20
1.47342
 11
30.4635
 21
1.42657
  0
LINE
  8
0
 10
30.4635
 20
1.42657
 11
30.6387
 21
1.35724
  0
LINE
  8
0
 10
30.6387
 20
1.35724
 11
30.8037
 21
1.26648
  0
LINE
  8
0
 10
30.8037
 20
1.26648
 11
30.9561
 21
1.15576
  0
LINE
  8
0
 10
30.9561
 20
1.15576
 11
31.0934
 21
1.02681
  0
LINE
  8
0
 10
31.0934
 20
1.02681
 11
31.2135
 21
0.881668
  0
LINE
  8
0
 10
31.2135
 20
0.881668
 11
31.3145
 21
0.722626
  0
LINE
  8
0
 10
31.3145
 20
0.722626
 11
31.3947
 21
0.552185
  0
LINE
  8
0
 10
31.3947
 20
0.552185
 11
31.4529
 21
0.373032
  0
LINE
  8
0
 10
31.4529
 20
0.373032
 11
31.4882
 21
0.187988
  0
LINE
  8
0
 10
31.4882
 20
0.187988
 11
31.5
 21
0
  0
LINE
  8
0
 10
31.5
 20
0
 11
31.4882
 21
-0.187988
  0
LINE
  8
0
 10
31.4882
 20
-0.187988
 11
31.4529
 21
-0.373032
  0
LINE
  8
0
 10
31.4529
 20
-0.373032
 11
31.3947
 21
-0.552185
  0
LINE
  8
0
 10
31.3947
 20
-0.552185
 11
31.3145
 21
-0.722626
  0
LINE
  8
0
 10
31.3145
 20
-0.722626
 11
31.2135
 21
-0.881668
  0
LINE
  8
0
 10
31.2135
 20
-0.881668
 11
31.0934
 21
-1.02681
  0
LINE
  8
0
 10
31.0934
 20
-1.02681
 11
30.9561
 21
-1.15576
  0
LINE
  8
0
 10
30.9561
 20
-1.15576
 11
30.8037
 21
-1.26648
  0
LINE
  8
0
 10
30.8037
 20
-1.26648
 11
30.6387
 21
-1.35724
  0
LINE
  8
0
 10
30.6387
 20
-1.35724
 11
30.4635
 21
-1.42657
  0
LINE
  8
0
 10
30.4635
 20
-1.42657
 11
30.2811
 21
-1.47342
  0
LINE
  8
0
 10
30.2811
 20
-1.47342
 11
30.0942
 21
-1.49704
  0
LINE
  8
0
 10
30.0942
 20
-1.49704
 11
29.9058
 21
-1.49704
  0
LINE
  8
0
 10
-0.0941772
 20
-1.49704
 11
-0.281067
 21
-1.47342
  0
LINE
  8
0
 10
-0.281067
 20
-1.47342
 11
-0.463516
 21
-1.42657
  0
LINE
  8
0
 10
-0.463516
 20
-1.42657
 11
-0.638657
 21
-1.35724
  0
LINE
  8
0
 10
-0.638657
 20
-1.35724
 11
-0.803726
 21
-1.26648
  0
LINE
  8
0
 10
-0.803726
 20
-1.26648
 11
-0.956131
 21
-1.15576
  0
LINE
  8
0
 10
-0.956131
 20
-1.15576
 11
-1.09344
 21
-1.02681
  0
LINE
  8
0
 10
-1.09344
 20
-1.02681
 11
-1.21352
 21
-0.881668
  0
LINE
  8
0
 10
-1.21352
 20
-0.881668
 11
-1.31445
 21
-0.722626
  0
LINE
  8
0
 10
-1.31445
 20
-0.722626
 11
-1.39465
 21
-0.552185
  0
LINE
  8
0
 10
-1.39465
 20
-0.552185
 11
-1.45287
 21
-0.373032
  0
LINE
  8
0
 10
-1.45287
 20
-0.373032
 11
-1.48816
 21
-0.187988
  0
LINE
  8
0
 10
-1.48816
 20
-0.187988
 11
-1.5
 21
0
  0
LINE
  8
0
 10
-1.5
 20
0
 11
-1.48816
 21
0.187988
  0
LINE
  8
0
 10
-1.48816
 20
0.187988
 11
-1.45287
 21
0.373032
  0
LINE
  8
0
 10
-1.45287
 20
0.373032
 11
-1.39465
 21
0.552185
  0
LINE
  8
0
 10
-1.39465
 20
0.552185
 11
-1.31445
 21
0.722626
  0
LINE
  8
0
 10
-1.31445
 20
0.722626
 11
-1.21352
 21
0.881668
  0
LINE
  8
0
 10
-1.21352
 20
0.881668
 11
-1.09344
 21
1.02681
  0
LINE
  8
0
 10
-1.09344
 20
1.02681
 11
-0.956131
 21
1.15576
  0
LINE
  8
0
 10
-0.956131
 20
1.15576
 11
-0.803726
 21
1.26648
  0
LINE
  8
0
 10
-0.803726
 20
1.26648
 11
-0.638657
 21
1.35724
  0
LINE
  8
0
 10
-0.638657
 20
1.35724
 11
-0.463516
 21
1.42657
  0
LINE
  8
0
 10
-0.463516
 20
1.42657
 11
-0.281067
 21
1.47342
  0
LINE
  8
0
 10
-0.281067
 20
1.47342
 11
-0.0941772
 21
1.49704
  0
LINE
  8
0
 10
-0.0941772
 20
1.49704
 11
0.0941772
 21
1.49704
  0
LINE
  8
0
 10
0.0941772
 20
1.49704
 11
0.281067
 21
1.47342
  0
LINE
  8
0
 10
0.281067
 20
1.47342
 11
0.463516
 21
1.42657
  0
LINE
  8
0
 10
0.463516
 20
1.42657
 11
0.638657
 21
1.35724
  0
LINE
  8
0
 10
0.638657
 20
1.35724
 11
0.803726
 21
1.26648
  0
LINE
  8
0
 10
0.803726
 20
1.26648
 11
0.956131
 21
1.15576
  0
LINE
  8
0
 10
0.956131
 20
1.15576
 11
1.09344
 21
1.02681
  0
LINE
  8
0
 10
1.09344
 20
1.02681
 11
1.21352
 21
0.881668
  0
LINE
  8
0
 10
1.21352
 20
0.881668
 11
1.31445
 21
0.722626
  0
LINE
  8
0
 10
1.31445
 20
0.722626
 11
1.39465
 21
0.552185
  0
LINE
  8
0
 10
1.39465
 20
0.552185
 11
1.45287
 21
0.373032
  0
LINE
  8
0
 10
1.45287
 20
0.373032
 11
1.48816
 21
0.187988
  0
LINE
  8
0
 10
1.48816
 20
0.187988
 11
1.5
 21
0
  0
LINE
  8
0
 10
1.5
 20
0
 11
1.48816
 21
-0.187988
  0
LINE
  8
0
 10
1.48816
 20
-0.187988
 11
1.45287
 21
-0.373032
  0
LINE
  8
0
 10
1.45287
 20
-0.373032
 11
1.39465
 21
-0.552185
  0
LINE
  8
0
 10
1.39465
 20
-0.552185
 11
1.31445
 21
-0.722626
  0
LINE
  8
0
 10
1.31445
 20
-0.722626
 11
1.21352
 21
-0.881668
  0
LINE
  8
0
 10
1.21352
 20
-0.881668
 11
1.09344
 21
-1.02681
  0
LINE
  8
0
 10
1.09344
 20
-1.02681
 11
0.956131
 21
-1.15576
  0
LINE
  8
0
 10
0.956131
 20
-1.15576
 11
0.803726
 21
-1.26648
  0
LINE
  8
0
 10
0.803726
 20
-1.26648
 11
0.638657
 21
-1.35724
  0
LINE
  8
0
 10
0.638657
 20
-1.35724
 11
0.463516
 21
-1.42657
  0
LINE
  8
0
 10
0.463516
 20
-1.42657
 11
0.281067
 21
-1.47342
  0
LINE
  8
0
 10
0.281067
 20
-1.47342
 11
0.0941772
 21
-1.49704
  0
LINE
  8
0
 10
0.0941772
 20
-1.49704
 11
-0.0941772
 21
-1.49704
  0
LINE
  8
0
 10
14.9058
 20
-1.49704
 11
14.7189
 21
-1.47342
  0
LINE
  8
0
 10
14.7189
 20
-1.47342
 11
14.5365
 21
-1.42657
  0
LINE
  8
0
 10
14.5365
 20
-1.42657
 11
14.3613
 21
-1.35724
  0
LINE
  8
0
 10
14.3613
 20
-1.35724
 11
14.1963
 21
-1.26648
  0
LINE
  8
0
 10
14.1963
 20
-1.26648
 11
14.0439
 21
-1.15576
  0
LINE
  8
0
 10
14.0439
 20
-1.15576
 11
13.9065
 21
-1.02681
  0
LINE
  8
0
 10
13.9065
 20
-1.02681
 11
13.7865
 21
-0.881668
  0
LINE
  8
0
 10
13.7865
 20
-0.881668
 11
13.6855
 21
-0.722626
  0
LINE
  8
0
 10
13.6855
 20
-0.722626
 11
13.6053
 21
-0.552185
  0
LINE
  8
0
 10
13.6053
 20
-0.552185
 11
13.5471
 21
-0.373032
  0
LINE
  8
0
 10
13.5471
 20
-0.373032
 11
13.5118
 21
-0.187988
  0
LINE
  8
0
 10
13.5118
 20
-0.187988
 11
13.5
 21
0
  0
LINE
  8
0
 10
13.5
 20
0
 11
13.5118
 21
0.187988
  0
LINE
  8
0
 10
13.5118
 20
0.187988
 11
13.5471
 21
0.373032
  0
LINE
  8
0
 10
13.5471
 20
0.373032
 11
13.6053
 21
0.552185
  0
LINE
  8
0
 10
13.6053
 20
0.552185
 11
13.6855
 21
0.722626
  0
LINE
  8
0
 10
13.6855
 20
0.722626
 11
13.7865
 21
0.881668
  0
LINE
  8
0
 10
13.7865
 20
0.881668
 11
13.9065
 21
1.02681
  0
LINE
  8
0
 10
13.9065
 20
1.02681
 11
14.0439
 21
1.15576
  0
LINE
  8
0
 10
14.0439
 20
1.15576
 11
14.1963
 21
1.26648
  0
LINE
  8
0
 10
14.1963
 20
1.26648
 11
14.3613
 21
1.35724
  0
LINE
  8
0
 10
14.3613
 20
1.35724
 11
14.5365
 21
1.42657
  0
LINE
  8
0
 10
14.5365
 20
1.42657
 11
14.7189
 21
1.47342
  0
LINE
  8
0
 10
14.7189
 20
1.47342
 11
14.9058
 21
1.49704
  0
LINE
  8
0
 10
14.9058
 20
1.49704
 11
15.0942
 21
1.49704
  0
LINE
  8
0
 10
15.0942
 20
1.49704
 11
15.2811
 21
1.47342
  0
LINE
  8
0
 10
15.2811
 20
1.47342
 11
15.4635
 21
1.42657
  0
LINE
  8
0
 10
15.4635
 20
1.42657
 11
15.6387
 21
1.35724
  0
LINE
  8
0
 10
15.6387
 20
1.35724
 11
15.8037
 21
1.26648
  0
LINE
  8
0
 10
15.8037
 20
1.26648
 11
15.9561
 21
1.15576
  0
LINE
  8
0
 10
15.9561
 20
1.15576
 11
16.0934
 21
1.02681
  0
LINE
  8
0
 10
16.0934
 20
1.02681
 11
16.2135
 21
0.881668
  0
LINE
  8
0
 10
16.2135
 20
0.881668
 11
16.3145
 21
0.722626
  0
LINE
  8
0
 10
16.3145
 20
0.722626
 11
16.3947
 21
0.552185
  0
LINE
  8
0
 10
16.3947
 20
0.552185
 11
16.4529
 21
0.373032
  0
LINE
  8
0
 10
16.4529
 20
0.373032
 11
16.4882
 21
0.187988
  0
LINE
  8
0
 10
16.4882
 20
0.187988
 11
16.5
 21
0
  0
LINE
  8
0
 10
16.5
 20
0
 11
16.4882
 21
-0.187988
  0
LINE
  8
0
 10
16.4882
 20
-0.187988
 11
16.4529
 21
-0.373032
  0
LINE
  8
0
 10
16.4529
 20
-0.373032
 11
16.3947
 21
-0.552185
  0
LINE
  8
0
 10
16.3947
 20
-0.552185
 11
16.3145
 21
-0.722626
  0
LINE
  8
0
 10
16.3145
 20
-0.722626
 11
16.2135
 21
-0.881668
  0
LINE
  8
0
 10
16.2135
 20
-0.881668
 11
16.0934
 21
-1.02681
  0
LINE
  8
0
 10
16.0934
 20
-1.02681
 11
15.9561
 21
-1.15576
  0
LINE
  8
0
 10
15.9561
 20
-1.15576
 11
15.8037
 21
-1.26648
  0
LINE
  8
0
 10
15.8037
 20
-1.26648
 11
15.6387
 21
-1.35724
  0
LINE
  8
0
 10
15.6387
 20
-1.35724
 11
15.4635
 21
-1.42657
  0
LINE
  8
0
 10
15.4635
 20
-1.42657
 11
15.2811
 21
-1.47342
  0
LINE
  8
0
 10
15.2811
 20
-1.47342
 11
15.0942
 21
-1.49704
  0
LINE
  8
0
 10
15.0942
 20
-1.49704
 11
14.9058
 21
-1.49704
  0
LINE
  8
0
 10
7.40581
 20
-1.49704
 11
7.21892
 21
-1.47342
  0
LINE
  8
0
 10
7.21892
 20
-1.47342
 11
7.03647
 21
-1.42657
  0
LINE
  8
0
 10
7.03647
 20
-1.42657
 11
6.86133
 21
-1.35724
  0
LINE
  8
0
 10
6.86133
 20
-1.35724
 11
6.69626
 21
-1.26648
  0
LINE
  8
0
 10
6.69626
 20
-1.26648
 11
6.54385
 21
-1.15576
  0
LINE
  8
0
 10
6.54385
 20
-1.15576
 11
6.40654
 21
-1.02681
  0
LINE
  8
0
 10
6.40654
 20
-1.02681
 11
6.28647
 21
-0.881668
  0
LINE
  8
0
 10
6.28647
 20
-0.881668
 11
6.18553
 21
-0.722626
  0
LINE
  8
0
 10
6.18553
 20
-0.722626
 11
6.10533
 21
-0.552185
  0
LINE
  8
0
 10
6.10533
 20
-0.552185
 11
6.04712
 21
-0.373032
  0
LINE
  8
0
 10
6.04712
 20
-0.373032
 11
6.01183
 21
-0.187988
  0
LINE
  8
0
 10
6.01183
 20
-0.187988
 11
6
 21
0
  0
LINE
  8
0
 10
6
 20
0
 11
6.01183
 21
0.187988
  0
LINE
  8
0
 10
6.01183
 20
0.187988
 11
6.04712
 21
0.373032
  0
LINE
  8
0
 10
6.04712
 20
0.373032
 11
6.10533
 21
0.552185
  0
LINE
  8
0
 10
6.10533
 20
0.552185
 11
6.18553
 21
0.722626
  0
LINE
  8
0
 10
6.18553
 20
0.722626
 11
6.28647
 21
0.881668
  0
LINE
  8
0
 10
6.28647
 20
0.881668
 11
6.40654
 21
1.02681
  0
LINE
  8
0
 10
6.40654
 20
1.02681
 11
6.54385
 21
1.15576
  0
LINE
  8
0
 10
6.54385
 20
1.15576
 11
6.69626
 21
1.26648
  0
LINE
  8
0
 10
6.69626
 20
1.26648
 11
6.86133
 21
1.35724
  0
LINE
  8
0
 10
6.86133
 20
1.35724
 11
7.03647
 21
1.42657
  0
LINE
  8
0
 10
7.03647
 20
1.42657
 11
7.21892
 21
1.47342
  0
LINE
  8
0
 10
7.21892
 20
1.47342
 11
7.40581
 21
1.49704
  0
LINE
  8
0
 10
7.40581
 20
1.49704
 11
7.59418
 21
1.49704
  0
LINE
  8
0
 10
7.59418
 20
1.49704
 11
7.78107
 21
1.47342
  0
LINE
  8
0
 10
7.78107
 20
1.47342
 11
7.96352
 21
1.42657
  0
LINE
  8
0
 10
7.96352
 20
1.42657
 11
8.13866
 21
1.35724
  0
LINE
  8
0
 10
8.13866
 20
1.35724
 11
8.30373
 21
1.26648
  0
LINE
  8
0
 10
8.30373
 20
1.26648
 11
8.45613
 21
1.15576
  0
LINE
  8
0
 10
8.45613
 20
1.15576
 11
8.59344
 21
1.02681
  0
LINE
  8
0
 10
8.59344
 20
1.02681
 11
8.71352
 21
0.881668
  0
LINE
  8
0
 10
8.71352
 20
0.881668
 11
8.81445
 21
0.722626
  0
LINE
  8
0
 10
8.81445
 20
0.722626
 11
8.89465
 21
0.552185
  0
LINE
  8
0
 10
8.89465
 20
0.552185
 11
8.95287
 21
0.373032
  0
LINE
  8
0
 10
8.95287
 20
0.373032
 11
8.98816
 21
0.187988
  0
LINE
  8
0
 10
8.98816
 20
0.187988
 11
9
 21
0
  0
LINE
  8
0
 10
9
 20
0
 11
8.98816
 21
-0.187988
  0
LINE
  8
0
 10
8.98816
 20
-0.187988
 11
8.95287
 21
-0.373032
  0
LINE
  8
0
 10
8.95287
 20
-0.373032
 11
8.89465
 21
-0.552185
  0
LINE
  8
0
 10
8.89465
 20
-0.552185
 11
8.81445
 21
-0.722626
  0
LINE
  8
0
 10
8.81445
 20
-0.722626
 11
8.71352
 21
-0.881668
  0
LINE
  8
0
 10
8.71352
 20
-0.881668
 11
8.59344
 21
-1.02681
  0
LINE
  8
0
 10
8.59344
 20
-1.02681
 11
8.45613
 21
-1.15576
  0
LINE
  8
0
 10
8.45613
 20
-1.15576
 11
8.30373
 21
-1.26648
  0
LINE
  8
0
 10
8.30373
 20
-1.26648
 11
8.13866
 21
-1.35724
  0
LINE
  8
0
 10
8.13866
 20
-1.35724
 11
7.96352
 21
-1.42657
  0
LINE
  8
0
 10
7.96352
 20
-1.42657
 11
7.78107
 21
-1.47342
  0
LINE
  8
0
 10
7.78107
 20
-1.47342
 11
7.59418
 21
-1.49704
  0
LINE
  8
0
 10
7.59418
 20
-1.49704
 11
7.40581
 21
-1.49704
  0
LINE
  8
0
 10
22.4058
 20
-8.99704
 11
22.2189
 21
-8.97342
  0
LINE
  8
0
 10
22.2189
 20
-8.97342
 11
22.0365
 21
-8.92657
  0
LINE
  8
0
 10
22.0365
 20
-8.92657
 11
21.8613
 21
-8.85724
  0
LINE
  8
0
 10
21.8613
 20
-8.85724
 11
21.6963
 21
-8.76648
  0
LINE
  8
0
 10
21.6963
 20
-8.76648
 11
21.5439
 21
-8.65576
  0
LINE
  8
0
 10
21.5439
 20
-8.65576
 11
21.4065
 21
-8.52681
  0
LINE
  8
0
 10
21.4065
 20
-8.52681
 11
21.2865
 21
-8.38167
  0
LINE
  8
0
 10
21.2865
 20
-8.38167
 11
21.1855
 21
-8.22263
  0
LINE
  8
0
 10
21.1855
 20
-8.22263
 11
21.1053
 21
-8.05219
  0
LINE
  8
0
 10
21.1053
 20
-8.05219
 11
21.0471
 21
-7.87303
  0
LINE
  8
0
 10
21.0471
 20
-7.87303
 11
21.0118
 21
-7.68799
  0
LINE
  8
0
 10
21.0118
 20
-7.68799
 11
21
 21
-7.5
  0
LINE
  8
0
 10
21
 20
-7.5
 11
21.0118
 21
-7.312
  0
LINE
  8
0
 10
21.0118
 20
-7.312
 11
21.0471
 21
-7.12695
  0
LINE
  8
0
 10
21.0471
 20
-7.12695
 11
21.1053
 21
-6.9478
  0
LINE
  8
0
 10
21.1053
 20
-6.9478
 11
21.1855
 21
-6.77736
  0
LINE
  8
0
 10
21.1855
 20
-6.77736
 11
21.2865
 21
-6.61832
  0
LINE
  8
0
 10
21.2865
 20
-6.61832
 11
21.4065
 21
-6.47318
  0
LINE
  8
0
 10
21.4065
 20
-6.47318
 11
21.5439
 21
-6.34422
  0
LINE
  8
0
 10
21.5439
 20
-6.34422
 11
21.6963
 21
-6.23351
  0
LINE
  8
0
 10
21.6963
 20
-6.23351
 11
21.8613
 21
-6.14275
  0
LINE
  8
0
 10
21.8613
 20
-6.14275
 11
22.0365
 21
-6.07341
  0
LINE
  8
0
 10
22.0365
 20
-6.07341
 11
22.2189
 21
-6.02657
  0
LINE
  8
0
 10
22.2189
 20
-6.02657
 11
22.4058
 21
-6.00294
  0
LINE
  8
0
 10
22.4058
 20
-6.00294
 11
22.5942
 21
-6.00294
  0
LINE
  8
0
 10
22.5942
 20
-6.00294
 11
22.7811
 21
-6.02657
  0
LINE
  8
0
 10
22.7811
 20
-6.02657
 11
22.9635
 21
-6.07341
  0
LINE
  8
0
 10
22.9635
 20
-6.07341
 11
23.1387
 21
-6.14275
  0
LINE
  8
0
 10
23.1387
 20
-6.14275
 11
23.3037
 21
-6.23351
  0
LINE
  8
0
 10
23.3037
 20
-6.23351
 11
23.4561
 21
-6.34422
  0
LINE
  8
0
 10
23.4561
 20
-6.34422
 11
23.5934
 21
-6.47318
  0
LINE
  8
0
 10
23.5934
 20
-6.47318
 11
23.7135
 21
-6.61832
  0
LINE
  8
0
 10
23.7135
 20
-6.61832
 11
23.8145
 21
-6.77736
  0
LINE
  8
0
 10
23.8145
 20
-6.77736
 11
23.8947
 21
-6.9478
  0
LINE
  8
0
 10
23.8947
 20
-6.9478
 11
23.9529
 21
-7.12695
  0
LINE
  8
0
 10
23.9529
 20
-7.12695
 11
23.9882
 21
-7.312
  0
LINE
  8
0
 10
23.9882
 20
-7.312
 11
24
 21
-7.5
  0
LINE
  8
0
 10
24
 20
-7.5
 11
23.9882
 21
-7.68799
  0
LINE
  8
0
 10
23.9882
 20
-7.68799
 11
23.9529
 21
-7.87303
  0
LINE
  8
0
 10
23.9529
 20
-7.87303
 11
23.8947
 21
-8.05219
  0
LINE
  8
0
 10
23.8947
 20
-8.05219
 11
23.8145
 21
-8.22263
  0
LINE
  8
0
 10
23.8145
 20
-8.22263
 11
23.7135
 21
-8.38167
  0
LINE
  8
0
 10
23.7135
 20
-8.38167
 11
23.5934
 21
-8.52681
  0
LINE
  8
0
 10
23.5934
 20
-8.52681
 11
23.4561
 21
-8.65576
  0
LINE
  8
0
 10
23.4561
 20
-8.65576
 11
23.3037
 21
-8.76648
  0
LINE
  8
0
 10
23.3037
 20
-8.76648
 11
23.1387
 21
-8.85724
  0
LINE
  8
0
 10
23.1387
 20
-8.85724
 11
22.9635
 21
-8.92657
  0
LINE
  8
0
 10
22.9635
 20
-8.92657
 11
22.7811
 21
-8.97342
  0
LINE
  8
0
 10
22.7811
 20
-8.97342
 11
22.5942
 21
-8.99704
  0
LINE
  8
0
 10
22.5942
 20
-8.99704
 11
22.4058
 21
-8.99704
  0
LINE
  8
0
 10
-30.0942
 20
-8.99704
 11
-30.2811
 21
-8.97342
  0
LINE
  8
0
 10
-30.2811
 20
-8.97342
 11
-30.4635
 21
-8.92657
  0
LINE
  8
0
 10
-30.4635
 20
-8.92657
 11
-30.6387
 21
-8.85724
  0
LINE
  8
0
 10
-30.6387
 20
-8.85724
 11
-30.8037
 21
-8.76648
  0
LINE
  8
0
 10
-30.8037
 20
-8.76648
 11
-30.9561
 21
-8.65576
  0
LINE
  8
0
 10
-30.9561
 20
-8.65576
 11
-31.0934
 21
-8.52681
  0
LINE
  8
0
 10
-31.0934
 20
-8.52681
 11
-31.2135
 21
-8.38167
  0
LINE
  8
0
 10
-31.2135
 20
-8.38167
 11
-31.3145
 21
-8.22263
  0
LINE
  8
0
 10
-31.3145
 20
-8.22263
 11
-31.3947
 21
-8.05219
  0
LINE
  8
0
 10
-31.3947
 20
-8.05219
 11
-31.4529
 21
-7.87303
  0
LINE
  8
0
 10
-31.4529
 20
-7.87303
 11
-31.4882
 21
-7.68799
  0
LINE
  8
0
 10
-31.4882
 20
-7.68799
 11
-31.5
 21
-7.5
  0
LINE
  8
0
 10
-31.5
 20
-7.5
 11
-31.4882
 21
-7.312
  0
LINE
  8
0
 10
-31.4882
 20
-7.312
 11
-31.4529
 21
-7.12695
  0
LINE
  8
0
 10
-31.4529
 20
-7.12695
 11
-31.3947
 21
-6.9478
  0
LINE
  8
0
 10
-31.3947
 20
-6.9478
 11
-31.3145
 21
-6.77736
  0
LINE
  8
0
 10
-31.3145
 20
-6.77736
 11
-31.2135
 21
-6.61832
  0
LINE
  8
0
 10
-31.2135
 20
-6.61832
 11
-31.0934
 21
-6.47318
  0
LINE
  8
0
 10
-31.0934
 20
-6.47318
 11
-30.9561
 21
-6.34422
  0
LINE
  8
0
 10
-30.9561
 20
-6.34422
 11
-30.8037
 21
-6.23351
  0
LINE
  8
0
 10
-30.8037
 20
-6.23351
 11
-30.6387
 21
-6.14275
  0
LINE
  8
0
 10
-30.6387
 20
-6.14275
 11
-30.4635
 21
-6.07341
  0
LINE
  8
0
 10
-30.4635
 20
-6.07341
 11
-30.2811
 21
-6.02657
  0
LINE
  8
0
 10
-30.2811
 20
-6.02657
 11
-30.0942
 21
-6.00294
  0
LINE
  8
0
 10
-30.0942
 20
-6.00294
 11
-29.9058
 21
-6.00294
  0
LINE
  8
0
 10
-29.9058
 20
-6.00294
 11
-29.7189
 21
-6.02657
  0
LINE
  8
0
 10
-29.7189
 20
-6.02657
 11
-29.5365
 21
-6.07341
  0
LINE
  8
0
 10
-29.5365
 20
-6.07341
 11
-29.3613
 21
-6.14275
  0
LINE
  8
0
 10
-29.3613
 20
-6.14275
 11
-29.1963
 21
-6.23351
  0
LINE
  8
0
 10
-29.1963
 20
-6.23351
 11
-29.0439
 21
-6.34422
  0
LINE
  8
0
 10
-29.0439
 20
-6.34422
 11
-28.9065
 21
-6.47318
  0
LINE
  8
0
 10
-28.9065
 20
-6.47318
 11
-28.7865
 21
-6.61832
  0
LINE
  8
0
 10
-28.7865
 20
-6.61832
 11
-28.6855
 21
-6.77736
  0
LINE
  8
0
 10
-28.6855
 20
-6.77736
 11
-28.6053
 21
-6.9478
  0
LINE
  8
0
 10
-28.6053
 20
-6.9478
 11
-28.5471
 21
-7.12695
  0
LINE
  8
0
 10
-28.5471
 20
-7.12695
 11
-28.5118
 21
-7.312
  0
LINE
  8
0
 10
-28.5118
 20
-7.312
 11
-28.5
 21
-7.5
  0
LINE
  8
0
 10
-28.5
 20
-7.5
 11
-28.5118
 21
-7.68799
  0
LINE
  8
0
 10
-28.5118
 20
-7.68799
 11
-28.5471
 21
-7.87303
  0
LINE
  8
0
 10
-28.5471
 20
-7.87303
 11
-28.6053
 21
-8.05219
  0
LINE
  8
0
 10
-28.6053
 20
-8.05219
 11
-28.6855
 21
-8.22263
  0
LINE
  8
0
 10
-28.6855
 20
-8.22263
 11
-28.7865
 21
-8.38167
  0
LINE
  8
0
 10
-28.7865
 20
-8.38167
 11
-28.9065
 21
-8.52681
  0
LINE
  8
0
 10
-28.9065
 20
-8.52681
 11
-29.0439
 21
-8.65576
  0
LINE
  8
0
 10
-29.0439
 20
-8.65576
 11
-29.1963
 21
-8.76648
  0
LINE
  8
0
 10
-29.1963
 20
-8.76648
 11
-29.3613
 21
-8.85724
  0
LINE
  8
0
 10
-29.3613
 20
-8.85724
 11
-29.5365
 21
-8.92657
  0
LINE
  8
0
 10
-29.5365
 20
-8.92657
 11
-29.7189
 21
-8.97342
  0
LINE
  8
0
 10
-29.7189
 20
-8.97342
 11
-29.9058
 21
-8.99704
  0
LINE
  8
0
 10
-29.9058
 20
-8.99704
 11
-30.0942
 21
-8.99704
  0
LINE
  8
0
 10
14.9058
 20
-8.99704
 11
14.7189
 21
-8.97342
  0
LINE
  8
0
 10
14.7189
 20
-8.97342
 11
14.5365
 21
-8.92657
  0
LINE
  8
0
 10
14.5365
 20
-8.92657
 11
14.3613
 21
-8.85724
  0
LINE
  8
0
 10
14.3613
 20
-8.85724
 11
14.1963
 21
-8.76648
  0
LINE
  8
0
 10
14.1963
 20
-8.76648
 11
14.0439
 21
-8.65576
  0
LINE
  8
0
 10
14.0439
 20
-8.65576
 11
13.9065
 21
-8.52681
  0
LINE
  8
0
 10
13.9065
 20
-8.52681
 11
13.7865
 21
-8.38167
  0
LINE
  8
0
 10
13.7865
 20
-8.38167
 11
13.6855
 21
-8.22263
  0
LINE
  8
0
 10
13.6855
 20
-8.22263
 11
13.6053
 21
-8.05219
  0
LINE
  8
0
 10
13.6053
 20
-8.05219
 11
13.5471
 21
-7.87303
  0
LINE
  8
0
 10
13.5471
 20
-7.87303
 11
13.5118
 21
-7.68799
  0
LINE
  8
0
 10
13.5118
 20
-7.68799
 11
13.5
 21
-7.5
  0
LINE
  8
0
 10
13.5
 20
-7.5
 11
13.5118
 21
-7.312
  0
LINE
  8
0
 10
13.5118
 20
-7.312
 11
13.5471
 21
-7.12695
  0
LINE
  8
0
 10
13.5471
 20
-7.12695
 11
13.6053
 21
-6.9478
  0
LINE
  8
0
 10
13.6053
 20
-6.9478
 11
13.6855
 21
-6.77736
  0
LINE
  8
0
 10
13.6855
 20
-6.77736
 11
13.7865
 21
-6.61832
  0
LINE
  8
0
 10
13.7865
 20
-6.61832
 11
13.9065
 21
-6.47318
  0
LINE
  8
0
 10
13.9065
 20
-6.47318
 11
14.0439
 21
-6.34422
  0
LINE
  8
0
 10
14.0439
 20
-6.34422
 11
14.1963
 21
-6.23351
  0
LINE
  8
0
 10
14.1963
 20
-6.23351
 11
14.3613
 21
-6.14275
  0
LINE
  8
0
 10
14.3613
 20
-6.14275
 11
14.5365
 21
-6.07341
  0
LINE
  8
0
 10
14.5365
 20
-6.07341
 11
14.7189
 21
-6.02657
  0
LINE
  8
0
 10
14.7189
 20
-6.02657
 11
14.9058
 21
-6.00294
  0
LINE
  8
0
 10
14.9058
 20
-6.00294
 11
15.0942
 21
-6.00294
  0
LINE
  8
0
 10
15.0942
 20
-6.00294
 11
15.2811
 21
-6.02657
  0
LINE
  8
0
 10
15.2811
 20
-6.02657
 11
15.4635
 21
-6.07341
  0
LINE
  8
0
 10
15.4635
 20
-6.07341
 11
15.6387
 21
-6.14275
  0
LINE
  8
0
 10
15.6387
 20
-6.14275
 11
15.8037
 21
-6.23351
  0
LINE
  8
0
 10
15.8037
 20
-6.23351
 11
15.9561
 21
-6.34422
  0
LINE
  8
0
 10
15.9561
 20
-6.34422
 11
16.0934
 21
-6.47318
  0
LINE
  8
0
 10
16.0934
 20
-6.47318
 11
16.2135
 21
-6.61832
  0
LINE
  8
0
 10
16.2135
 20
-6.61832
 11
16.3145
 21
-6.77736
  0
LINE
  8
0
 10
16.3145
 20
-6.77736
 11
16.3947
 21
-6.9478
  0
LINE
  8
0
 10
16.3947
 20
-6.9478
 11
16.4529
 21
-7.12695
  0
LINE
  8
0
 10
16.4529
 20
-7.12695
 11
16.4882
 21
-7.312
  0
LINE
  8
0
 10
16.4882
 20
-7.312
 11
16.5
 21
-7.5
  0
LINE
  8
0
 10
16.5
 20
-7.5
 11
16.4882
 21
-7.68799
  0
LINE
  8
0
 10
16.4882
 20
-7.68799
 11
16.4529
 21
-7.87303
  0
LINE
  8
0
 10
16.4529
 20
-7.87303
 11
16.3947
 21
-8.05219
  0
LINE
  8
0
 10
16.3947
 20
-8.05219
 11
16.3145
 21
-8.22263
  0
LINE
  8
0
 10
16.3145
 20
-8.22263
 11
16.2135
 21
-8.38167
  0
LINE
  8
0
 10
16.2135
 20
-8.38167
 11
16.0934
 21
-8.52681
  0
LINE
  8
0
 10
16.0934
 20
-8.52681
 11
15.9561
 21
-8.65576
  0
LINE
  8
0
 10
15.9561
 20
-8.65576
 11
15.8037
 21
-8.76648
  0
LINE
  8
0
 10
15.8037
 20
-8.76648
 11
15.6387
 21
-8.85724
  0
LINE
  8
0
 10
15.6387
 20
-8.85724
 11
15.4635
 21
-8.92657
  0
LINE
  8
0
 10
15.4635
 20
-8.92657
 11
15.2811
 21
-8.97342
  0
LINE
  8
0
 10
15.2811
 20
-8.97342
 11
15.0942
 21
-8.99704
  0
LINE
  8
0
 10
15.0942
 20
-8.99704
 11
14.9058
 21
-8.99704
  0
LINE
  8
0
 10
-22.5942
 20
-8.99704
 11
-22.7811
 21
-8.97342
  0
LINE
  8
0
 10
-22.7811
 20
-8.97342
 11
-22.9635
 21
-8.92657
  0
LINE
  8
0
 10
-22.9635
 20
-8.92657
 11
-23.1387
 21
-8.85724
  0
LINE
  8
0
 10
-23.1387
 20
-8.85724
 11
-23.3037
 21
-8.76648
  0
LINE
  8
0
 10
-23.3037
 20
-8.76648
 11
-23.4561
 21
-8.65576
  0
LINE
  8
0
 10
-23.4561
 20
-8.65576
 11
-23.5934
 21
-8.52681
  0
LINE
  8
0
 10
-23.5934
 20
-8.52681
 11
-23.7135
 21
-8.38167
  0
LINE
  8
0
 10
-23.7135
 20
-8.38167
 11
-23.8145
 21
-8.22263
  0
LINE
  8
0
 10
-23.8145
 20
-8.22263
 11
-23.8947
 21
-8.05219
  0
LINE
  8
0
 10
-23.8947
 20
-8.05219
 11
-23.9529
 21
-7.87303
  0
LINE
  8
0
 10
-23.9529
 20
-7.87303
 11
-23.9882
 21
-7.68799
  0
LINE
  8
0
 10
-23.9882
 20
-7.68799
 11
-24
 21
-7.5
  0
LINE
  8
0
 10
-24
 20
-7.5
 11
-23.9882
 21
-7.312
  0
LINE
  8
0
 10
-23.9882
 20
-7.312
 11
-23.9529
 21
-7.12695
  0
LINE
  8
0
 10
-23.9529
 20
-7.12695
 11
-23.8947
 21
-6.9478
  0
LINE
  8
0
 10
-23.8947
 20
-6.9478
 11
-23.8145
 21
-6.77736
  0
LINE
  8
0
 10
-23.8145
 20
-6.77736
 11
-23.7135
 21
-6.61832
  0
LINE
  8
0
 10
-23.7135
 20
-6.61832
 11
-23.5934
 21
-6.47318
  0
LINE
  8
0
 10
-23.5934
 20
-6.47318
 11
-23.4561
 21
-6.34422
  0
LINE
  8
0
 10
-23.4561
 20
-6.34422
 11
-23.3037
 21
-6.23351
  0
LINE
  8
0
 10
-23.3037
 20
-6.23351
 11
-23.1387
 21
-6.14275
  0
LINE
  8
0
 10
-23.1387
 20
-6.14275
 11
-22.9635
 21
-6.07341
  0
LINE
  8
0
 10
-22.9635
 20
-6.07341
 11
-22.7811
 21
-6.02657
  0
LINE
  8
0
 10
-22.7811
 20
-6.02657
 11
-22.5942
 21
-6.00294
  0
LINE
  8
0
 10
-22.5942
 20
-6.00294
 11
-22.4058
 21
-6.00294
  0
LINE
  8
0
 10
-22.4058
 20
-6.00294
 11
-22.2189
 21
-6.02657
  0
LINE
  8
0
 10
-22.2189
 20
-6.02657
 11
-22.0365
 21
-6.07341
  0
LINE
  8
0
 10
-22.0365
 20
-6.07341
 11
-21.8613
 21
-6.14275
  0
LINE
  8
0
 10
-21.8613
 20
-6.14275
 11
-21.6963
 21
-6.23351
  0
LINE
  8
0
 10
-21.6963
 20
-6.23351
 11
-21.5439
 21
-6.34422
  0
LINE
  8
0
 10
-21.5439
 20
-6.34422
 11
-21.4065
 21
-6.47318
  0
LINE
  8
0
 10
-21.4065
 20
-6.47318
 11
-21.2865
 21
-6.61832
  0
LINE
  8
0
 10
-21.2865
 20
-6.61832
 11
-21.1855
 21
-6.77736
  0
LINE
  8
0
 10
-21.1855
 20
-6.77736
 11
-21.1053
 21
-6.9478
  0
LINE
  8
0
 10
-21.1053
 20
-6.9478
 11
-21.0471
 21
-7.12695
  0
LINE
  8
0
 10
-21.0471
 20
-7.12695
 11
-21.0118
 21
-7.312
  0
LINE
  8
0
 10
-21.0118
 20
-7.312
 11
-21
 21
-7.5
  0
LINE
  8
0
 10
-21
 20
-7.5
 11
-21.0118
 21
-7.68799
  0
LINE
  8
0
 10
-21.0118
 20
-7.68799
 11
-21.0471
 21
-7.87303
  0
LINE
  8
0
 10
-21.0471
 20
-7.87303
 11
-21.1053
 21
-8.05219
  0
LINE
  8
0
 10
-21.1053
 20
-8.05219
 11
-21.1855
 21
-8.22263
  0
LINE
  8
0
 10
-21.1855
 20
-8.22263
 11
-21.2865
 21
-8.38167
  0
LINE
  8
0
 10
-21.2865
 20
-8.38167
 11
-21.4065
 21
-8.52681
  0
LINE
  8
0
 10
-21.4065
 20
-8.52681
 11
-21.5439
 21
-8.65576
  0
LINE
  8
0
 10
-21.5439
 20
-8.65576
 11
-21.6963
 21
-8.76648
  0
LINE
  8
0
 10
-21.6963
 20
-8.76648
 11
-21.8613
 21
-8.85724
  0
LINE
  8
0
 10
-21.8613
 20
-8.85724
 11
-22.0365
 21
-8.92657
  0
LINE
  8
0
 10
-22.0365
 20
-8.92657
 11
-22.2189
 21
-8.97342
  0
LINE
  8
0
 10
-22.2189
 20
-8.97342
 11
-22.4058
 21
-8.99704
  0
LINE
  8
0
 10
-22.4058
 20
-8.99704
 11
-22.5942
 21
-8.99704
  0
LINE
  8
0
 10
29.9058
 20
-8.99704
 11
29.7189
 21
-8.97342
  0
LINE
  8
0
 10
29.7189
 20
-8.97342
 11
29.5365
 21
-8.92657
  0
LINE
  8
0
 10
29.5365
 20
-8.92657
 11
29.3613
 21
-8.85724
  0
LINE
  8
0
 10
29.3613
 20
-8.85724
 11
29.1963
 21
-8.76648
  0
LINE
  8
0
 10
29.1963
 20
-8.76648
 11
29.0439
 21
-8.65576
  0
LINE
  8
0
 10
29.0439
 20
-8.65576
 11
28.9065
 21
-8.52681
  0
LINE
  8
0
 10
28.9065
 20
-8.52681
 11
28.7865
 21
-8.38167
  0
LINE
  8
0
 10
28.7865
 20
-8.38167
 11
28.6855
 21
-8.22263
  0
LINE
  8
0
 10
28.6855
 20
-8.22263
 11
28.6053
 21
-8.05219
  0
LINE
  8
0
 10
28.6053
 20
-8.05219
 11
28.5471
 21
-7.87303
  0
LINE
  8
0
 10
28.5471
 20
-7.87303
 11
28.5118
 21
-7.68799
  0
LINE
  8
0
 10
28.5118
 20
-7.68799
 11
28.5
 21
-7.5
  0
LINE
  8
0
 10
28.5
 20
-7.5
 11
28.5118
 21
-7.312
  0
LINE
  8
0
 10
28.5118
 20
-7.312
 11
28.5471
 21
-7.12695
  0
LINE
  8
0
 10
28.5471
 20
-7.12695
 11
28.6053
 21
-6.9478
  0
LINE
  8
0
 10
28.6053
 20
-6.9478
 11
28.6855
 21
-6.77736
  0
LINE
  8
0
 10
28.6855
 20
-6.77736
 11
28.7865
 21
-6.61832
  0
LINE
  8
0
 10
28.7865
 20
-6.61832
 11
28.9065
 21
-6.47318
  0
LINE
  8
0
 10
28.9065
 20
-6.47318
 11
29.0439
 21
-6.34422
  0
LINE
  8
0
 10
29.0439
 20
-6.34422
 11
29.1963
 21
-6.23351
  0
LINE
  8
0
 10
29.1963
 20
-6.23351
 11
29.3613
 21
-6.14275
  0
LINE
  8
0
 10
29.3613
 20
-6.14275
 11
29.5365
 21
-6.07341
  0
LINE
  8
0
 10
29.5365
 20
-6.07341
 11
29.7189
 21
-6.02657
  0
LINE
  8
0
 10
29.7189
 20
-6.02657
 11
29.9058
 21
-6.00294
  0
LINE
  8
0
 10
29.9058
 20
-6.00294
 11
30.0942
 21
-6.00294
  0
LINE
  8
0
 10
30.0942
 20
-6.00294
 11
30.2811
 21
-6.02657
  0
LINE
  8
0
 10
30.2811
 20
-6.02657
 11
30.4635
 21
-6.07341
  0
LINE
  8
0
 10
30.4635
 20
-6.07341
 11
30.6387
 21
-6.14275
  0
LINE
  8
0
 10
30.6387
 20
-6.14275
 11
30.8037
 21
-6.23351
  0
LINE
  8
0
 10
30.8037
 20
-6.23351
 11
30.9561
 21
-6.34422
  0
LINE
  8
0
 10
30.9561
 20
-6.34422
 11
31.0934
 21
-6.47318
  0
LINE
  8
0
 10
31.0934
 20
-6.47318
 11
31.2135
 21
-6.61832
  0
LINE
  8
0
 10
31.2135
 20
-6.61832
 11
31.3145
 21
-6.77736
  0
LINE
  8
0
 10
31.3145
 20
-6.77736
 11
31.3947
 21
-6.9478
  0
LINE
  8
0
 10
31.3947
 20
-6.9478
 11
31.4529
 21
-7.12695
  0
LINE
  8
0
 10
31.4529
 20
-7.12695
 11
31.4882
 21
-7.312
  0
LINE
  8
0
 10
31.4882
 20
-7.312
 11
31.5
 21
-7.5
  0
LINE
  8
0
 10
31.5
 20
-7.5
 11
31.4882
 21
-7.68799
  0
LINE
  8
0
 10
31.4882
 20
-7.68799
 11
31.4529
 21
-7.87303
  0
LINE
  8
0
 10
31.4529
 20
-7.87303
 11
31.3947
 21
-8.05219
  0
LINE
  8
0
 10
31.3947
 20
-8.05219
 11
31.3145
 21
-8.22263
  0
LINE
  8
0
 10
31.3145
 20
-8.22263
 11
31.2135
 21
-8.38167
  0
LINE
  8
0
 10
31.2135
 20
-8.38167
 11
31.0934
 21
-8.52681
  0
LINE
  8
0
 10
31.0934
 20
-8.52681
 11
30.9561
 21
-8.65576
  0
LINE
  8
0
 10
30.9561
 20
-8.65576
 11
30.8037
 21
-8.76648
  0
LINE
  8
0
 10
30.8037
 20
-8.76648
 11
30.6387
 21
-8.85724
  0
LINE
  8
0
 10
30.6387
 20
-8.85724
 11
30.4635
 21
-8.92657
  0
LINE
  8
0
 10
30.4635
 20
-8.92657
 11
30.2811
 21
-8.97342
  0
LINE
  8
0
 10
30.2811
 20
-8.97342
 11
30.0942
 21
-8.99704
  0
LINE
  8
0
 10
30.0942
 20
-8.99704
 11
29.9058
 21
-8.99704
  0
LINE
  8
0
 10
-15.0942
 20
-8.99704
 11
-15.2811
 21
-8.97342
  0
LINE
  8
0
 10
-15.2811
 20
-8.97342
 11
-15.4635
 21
-8.92657
  0
LINE
  8
0
 10
-15.4635
 20
-8.92657
 11
-15.6387
 21
-8.85724
  0
LINE
  8
0
 10
-15.6387
 20
-8.85724
 11
-15.8037
 21
-8.76648
  0
LINE
  8
0
 10
-15.8037
 20
-8.76648
 11
-15.9561
 21
-8.65576
  0
LINE
  8
0
 10
-15.9561
 20
-8.65576
 11
-16.0934
 21
-8.52681
  0
LINE
  8
0
 10
-16.0934
 20
-8.52681
 11
-16.2135
 21
-8.38167
  0
LINE
  8
0
 10
-16.2135
 20
-8.38167
 11
-16.3145
 21
-8.22263
  0
LINE
  8
0
 10
-16.3145
 20
-8.22263
 11
-16.3947
 21
-8.05219
  0
LINE
  8
0
 10
-16.3947
 20
-8.05219
 11
-16.4529
 21
-7.87303
  0
LINE
  8
0
 10
-16.4529
 20
-7.87303
 11
-16.4882
 21
-7.68799
  0
LINE
  8
0
 10
-16.4882
 20
-7.68799
 11
-16.5
 21
-7.5
  0
LINE
  8
0
 10
-16.5
 20
-7.5
 11
-16.4882
 21
-7.312
  0
LINE
  8
0
 10
-16.4882
 20
-7.312
 11
-16.4529
 21
-7.12695
  0
LINE
  8
0
 10
-16.4529
 20
-7.12695
 11
-16.3947
 21
-6.9478
  0
LINE
  8
0
 10
-16.3947
 20
-6.9478
 11
-16.3145
 21
-6.77736
  0
LINE
  8
0
 10
-16.3145
 20
-6.77736
 11
-16.2135
 21
-6.61832
  0
LINE
  8
0
 10
-16.2135
 20
-6.61832
 11
-16.0934
 21
-6.47318
  0
LINE
  8
0
 10
-16.0934
 20
-6.47318
 11
-15.9561
 21
-6.34422
  0
LINE
  8
0
 10
-15.9561
 20
-6.34422
 11
-15.8037
 21
-6.23351
  0
LINE
  8
0
 10
-15.8037
 20
-6.23351
 11
-15.6387
 21
-6.14275
  0
LINE
  8
0
 10
-15.6387
 20
-6.14275
 11
-15.4635
 21
-6.07341
  0
LINE
  8
0
 10
-15.4635
 20
-6.07341
 11
-15.2811
 21
-6.02657
  0
LINE
  8
0
 10
-15.2811
 20
-6.02657
 11
-15.0942
 21
-6.00294
  0
LINE
  8
0
 10
-15.0942
 20
-6.00294
 11
-14.9058
 21
-6.00294
  0
LINE
  8
0
 10
-14.9058
 20
-6.00294
 11
-14.7189
 21
-6.02657
  0
LINE
  8
0
 10
-14.7189
 20
-6.02657
 11
-14.5365
 21
-6.07341
  0
LINE
  8
0
 10
-14.5365
 20
-6.07341
 11
-14.3613
 21
-6.14275
  0
LINE
  8
0
 10
-14.3613
 20
-6.14275
 11
-14.1963
 21
-6.23351
  0
LINE
  8
0
 10
-14.1963
 20
-6.23351
 11
-14.0439
 21
-6.34422
  0
LINE
  8
0
 10
-14.0439
 20
-6.34422
 11
-13.9065
 21
-6.47318
  0
LINE
  8
0
 10
-13.9065
 20
-6.47318
 11
-13.7865
 21
-6.61832
  0
LINE
  8
0
 10
-13.7865
 20
-6.61832
 11
-13.6855
 21
-6.77736
  0
LINE
  8
0
 10
-13.6855
 20
-6.77736
 11
-13.6053
 21
-6.9478
  0
LINE
  8
0
 10
-13.6053
 20
-6.9478
 11
-13.5471
 21
-7.12695
  0
LINE
  8
0
 10
-13.5471
 20
-7.12695
 11
-13.5118
 21
-7.312
  0
LINE
  8
0
 10
-13.5118
 20
-7.312
 11
-13.5
 21
-7.5
  0
LINE
  8
0
 10
-13.5
 20
-7.5
 11
-13.5118
 21
-7.68799
  0
LINE
  8
0
 10
-13.5118
 20
-7.68799
 11
-13.5471
 21
-7.87303
  0
LINE
  8
0
 10
-13.5471
 20
-7.87303
 11
-13.6053
 21
-8.05219
  0
LINE
  8
0
 10
-13.6053
 20
-8.05219
 11
-13.6855
 21
-8.22263
  0
LINE
  8
0
 10
-13.6855
 20
-8.22263
 11
-13.7865
 21
-8.38167
  0
LINE
  8
0
 10
-13.7865
 20
-8.38167
 11
-13.9065
 21
-8.52681
  0
LINE
  8
0
 10
-13.9065
 20
-8.52681
 11
-14.0439
 21
-8.65576
  0
LINE
  8
0
 10
-14.0439
 20
-8.65576
 11
-14.1963
 21
-8.76648
  0
LINE
  8
0
 10
-14.1963
 20
-8.76648
 11
-14.3613
 21
-8.85724
  0
LINE
  8
0
 10
-14.3613
 20
-8.85724
 11
-14.5365
 21
-8.92657
  0
LINE
  8
0
 10
-14.5365
 20
-8.92657
 11
-14.7189
 21
-8.97342
  0
LINE
  8
0
 10
-14.7189
 20
-8.97342
 11
-14.9058
 21
-8.99704
  0
LINE
  8
0
 10
-14.9058
 20
-8.99704
 11
-15.0942
 21
-8.99704
  0
LINE
  8
0
 10
7.40581
 20
-8.99704
 11
7.21892
 21
-8.97342
  0
LINE
  8
0
 10
7.21892
 20
-8.97342
 11
7.03647
 21
-8.92657
  0
LINE
  8
0
 10
7.03647
 20
-8.92657
 11
6.86133
 21
-8.85724
  0
LINE
  8
0
 10
6.86133
 20
-8.85724
 11
6.69626
 21
-8.76648
  0
LINE
  8
0
 10
6.69626
 20
-8.76648
 11
6.54385
 21
-8.65576
  0
LINE
  8
0
 10
6.54385
 20
-8.65576
 11
6.40654
 21
-8.52681
  0
LINE
  8
0
 10
6.40654
 20
-8.52681
 11
6.28647
 21
-8.38167
  0
LINE
  8
0
 10
6.28647
 20
-8.38167
 11
6.18553
 21
-8.22263
  0
LINE
  8
0
 10
6.18553
 20
-8.22263
 11
6.10533
 21
-8.05219
  0
LINE
  8
0
 10
6.10533
 20
-8.05219
 11
6.04712
 21
-7.87303
  0
LINE
  8
0
 10
6.04712
 20
-7.87303
 11
6.01183
 21
-7.68799
  0
LINE
  8
0
 10
6.01183
 20
-7.68799
 11
6
 21
-7.5
  0
LINE
  8
0
 10
6
 20
-7.5
 11
6.01183
 21
-7.312
  0
LINE
  8
0
 10
6.01183
 20
-7.312
 11
6.04712
 21
-7.12695
  0
LINE
  8
0
 10
6.04712
 20
-7.12695
 11
6.10533
 21
-6.9478
  0
LINE
  8
0
 10
6.10533
 20
-6.9478
 11
6.18553
 21
-6.77736
  0
LINE
  8
0
 10
6.18553
 20
-6.77736
 11
6.28647
 21
-6.61832
  0
LINE
  8
0
 10
6.28647
 20
-6.61832
 11
6.40654
 21
-6.47318
  0
LINE
  8
0
 10
6.40654
 20
-6.47318
 11
6.54385
 21
-6.34422
  0
LINE
  8
0
 10
6.54385
 20
-6.34422
 11
6.69626
 21
-6.23351
  0
LINE
  8
0
 10
6.69626
 20
-6.23351
 11
6.86133
 21
-6.14275
  0
LINE
  8
0
 10
6.86133
 20
-6.14275
 11
7.03647
 21
-6.07341
  0
LINE
  8
0
 10
7.03647
 20
-6.07341
 11
7.21892
 21
-6.02657
  0
LINE
  8
0
 10
7.21892
 20
-6.02657
 11
7.40581
 21
-6.00294
  0
LINE
  8
0
 10
7.40581
 20
-6.00294
 11
7.59418
 21
-6.00294
  0
LINE
  8
0
 10
7.59418
 20
-6.00294
 11
7.78107
 21
-6.02657
  0
LINE
  8
0
 10
7.78107
 20
-6.02657
 11
7.96352
 21
-6.07341
  0
LINE
  8
0
 10
7.96352
 20
-6.07341
 11
8.13866
 21
-6.14275
  0
LINE
  8
0
 10
8.13866
 20
-6.14275
 11
8.30373
 21
-6.23351
  0
LINE
  8
0
 10
8.30373
 20
-6.23351
 11
8.45613
 21
-6.34422
  0
LINE
  8
0
 10
8.45613
 20
-6.34422
 11
8.59344
 21
-6.47318
  0
LINE
  8
0
 10
8.59344
 20
-6.47318
 11
8.71352
 21
-6.61832
  0
LINE
  8
0
 10
8.71352
 20
-6.61832
 11
8.81445
 21
-6.77736
  0
LINE
  8
0
 10
8.81445
 20
-6.77736
 11
8.89465
 21
-6.9478
  0
LINE
  8
0
 10
8.89465
 20
-6.9478
 11
8.95287
 21
-7.12695
  0
LINE
  8
0
 10
8.95287
 20
-7.12695
 11
8.98816
 21
-7.312
  0
LINE
  8
0
 10
8.98816
 20
-7.312
 11
9
 21
-7.5
  0
LINE
  8
0
 10
9
 20
-7.5
 11
8.98816
 21
-7.68799
  0
LINE
  8
0
 10
8.98816
 20
-7.68799
 11
8.95287
 21
-7.87303
  0
LINE
  8
0
 10
8.95287
 20
-7.87303
 11
8.89465
 21
-8.05219
  0
LINE
  8
0
 10
8.89465
 20
-8.05219
 11
8.81445
 21
-8.22263
  0
LINE
  8
0
 10
8.81445
 20
-8.22263
 11
8.71352
 21
-8.38167
  0
LINE
  8
0
 10
8.71352
 20
-8.38167
 11
8.59344
 21
-8.52681
  0
LINE
  8
0
 10
8.59344
 20
-8.52681
 11
8.45613
 21
-8.65576
  0
LINE
  8
0
 10
8.45613
 20
-8.65576
 11
8.30373
 21
-8.76648
  0
LINE
  8
0
 10
8.30373
 20
-8.76648
 11
8.13866
 21
-8.85724
  0
LINE
  8
0
 10
8.13866
 20
-8.85724
 11
7.96352
 21
-8.92657
  0
LINE
  8
0
 10
7.96352
 20
-8.92657
 11
7.78107
 21
-8.97342
  0
LINE
  8
0
 10
7.78107
 20
-8.97342
 11
7.59418
 21
-8.99704
  0
LINE
  8
0
 10
7.59418
 20
-8.99704
 11
7.40581
 21
-8.99704
  0
LINE
  8
0
 10
-7.59418
 20
-8.99704
 11
-7.78107
 21
-8.97342
  0
LINE
  8
0
 10
-7.78107
 20
-8.97342
 11
-7.96352
 21
-8.92657
  0
LINE
  8
0
 10
-7.96352
 20
-8.92657
 11
-8.13866
 21
-8.85724
  0
LINE
  8
0
 10
-8.13866
 20
-8.85724
 11
-8.30373
 21
-8.76648
  0
LINE
  8
0
 10
-8.30373
 20
-8.76648
 11
-8.45613
 21
-8.65576
  0
LINE
  8
0
 10
-8.45613
 20
-8.65576
 11
-8.59344
 21
-8.52681
  0
LINE
  8
0
 10
-8.59344
 20
-8.52681
 11
-8.71352
 21
-8.38167
  0
LINE
  8
0
 10
-8.71352
 20
-8.38167
 11
-8.81445
 21
-8.22263
  0
LINE
  8
0
 10
-8.81445
 20
-8.22263
 11
-8.89465
 21
-8.05219
  0
LINE
  8
0
 10
-8.89465
 20
-8.05219
 11
-8.95287
 21
-7.87303
  0
LINE
  8
0
 10
-8.95287
 20
-7.87303
 11
-8.98816
 21
-7.68799
  0
LINE
  8
0
 10
-8.98816
 20
-7.68799
 11
-9
 21
-7.5
  0
LINE
  8
0
 10
-9
 20
-7.5
 11
-8.98816
 21
-7.312
  0
LINE
  8
0
 10
-8.98816
 20
-7.312
 11
-8.95287
 21
-7.12695
  0
LINE
  8
0
 10
-8.95287
 20
-7.12695
 11
-8.89465
 21
-6.9478
  0
LINE
  8
0
 10
-8.89465
 20
-6.9478
 11
-8.81445
 21
-6.77736
  0
LINE
  8
0
 10
-8.81445
 20
-6.77736
 11
-8.71352
 21
-6.61832
  0
LINE
  8
0
 10
-8.71352
 20
-6.61832
 11
-8.59344
 21
-6.47318
  0
LINE
  8
0
 10
-8.59344
 20
-6.47318
 11
-8.45613
 21
-6.34422
  0
LINE
  8
0
 10
-8.45613
 20
-6.34422
 11
-8.30373
 21
-6.23351
  0
LINE
  8
0
 10
-8.30373
 20
-6.23351
 11
-8.13866
 21
-6.14275
  0
LINE
  8
0
 10
-8.13866
 20
-6.14275
 11
-7.96352
 21
-6.07341
  0
LINE
  8
0
 10
-7.96352
 20
-6.07341
 11
-7.78107
 21
-6.02657
  0
LINE
  8
0
 10
-7.78107
 20
-6.02657
 11
-7.59418
 21
-6.00294
  0
LINE
  8
0
 10
-7.59418
 20
-6.00294
 11
-7.40581
 21
-6.00294
  0
LINE
  8
0
 10
-7.40581
 20
-6.00294
 11
-7.21892
 21
-6.02657
  0
LINE
  8
0
 10
-7.21892
 20
-6.02657
 11
-7.03647
 21
-6.07341
  0
LINE
  8
0
 10
-7.03647
 20
-6.07341
 11
-6.86133
 21
-6.14275
  0
LINE
  8
0
 10
-6.86133
 20
-6.14275
 11
-6.69626
 21
-6.23351
  0
LINE
  8
0
 10
-6.69626
 20
-6.23351
 11
-6.54385
 21
-6.34422
  0
LINE
  8
0
 10
-6.54385
 20
-6.34422
 11
-6.40654
 21
-6.47318
  0
LINE
  8
0
 10
-6.40654
 20
-6.47318
 11
-6.28647
 21
-6.61832
  0
LINE
  8
0
 10
-6.28647
 20
-6.61832
 11
-6.18553
 21
-6.77736
  0
LINE
  8
0
 10
-6.18553
 20
-6.77736
 11
-6.10533
 21
-6.9478
  0
LINE
  8
0
 10
-6.10533
 20
-6.9478
 11
-6.04712
 21
-7.12695
  0
LINE
  8
0
 10
-6.04712
 20
-7.12695
 11
-6.01183
 21
-7.312
  0
LINE
  8
0
 10
-6.01183
 20
-7.312
 11
-6
 21
-7.5
  0
LINE
  8
0
 10
-6
 20
-7.5
 11
-6.01183
 21
-7.68799
  0
LINE
  8
0
 10
-6.01183
 20
-7.68799
 11
-6.04712
 21
-7.87303
  0
LINE
  8
0
 10
-6.04712
 20
-7.87303
 11
-6.10533
 21
-8.05219
  0
LINE
  8
0
 10
-6.10533
 20
-8.05219
 11
-6.18553
 21
-8.22263
  0
LINE
  8
0
 10
-6.18553
 20
-8.22263
 11
-6.28647
 21
-8.38167
  0
LINE
  8
0
 10
-6.28647
 20
-8.38167
 11
-6.40654
 21
-8.52681
  0
LINE
  8
0
 10
-6.40654
 20
-8.52681
 11
-6.54385
 21
-8.65576
  0
LINE
  8
0
 10
-6.54385
 20
-8.65576
 11
-6.69626
 21
-8.76648
  0
LINE
  8
0
 10
-6.69626
 20
-8.76648
 11
-6.86133
 21
-8.85724
  0
LINE
  8
0
 10
-6.86133
 20
-8.85724
 11
-7.03647
 21
-8.92657
  0
LINE
  8
0
 10
-7.03647
 20
-8.92657
 11
-7.21892
 21
-8.97342
  0
LINE
  8
0
 10
-7.21892
 20
-8.97342
 11
-7.40581
 21
-8.99704
  0
LINE
  8
0
 10
-7.40581
 20
-8.99704
 11
-7.59418
 21
-8.99704
  0
LINE
  8
0
 10
-0.0941772
 20
-8.99704
 11
-0.281067
 21
-8.97342
  0
LINE
  8
0
 10
-0.281067
 20
-8.97342
 11
-0.463516
 21
-8.92657
  0
LINE
  8
0
 10
-0.463516
 20
-8.92657
 11
-0.638657
 21
-8.85724
  0
LINE
  8
0
 10
-0.638657
 20
-8.85724
 11
-0.803726
 21
-8.76648
  0
LINE
  8
0
 10
-0.803726
 20
-8.76648
 11
-0.956131
 21
-8.65576
  0
LINE
  8
0
 10
-0.956131
 20
-8.65576
 11
-1.09344
 21
-8.52681
  0
LINE
  8
0
 10
-1.09344
 20
-8.52681
 11
-1.21352
 21
-8.38167
  0
LINE
  8
0
 10
-1.21352
 20
-8.38167
 11
-1.31445
 21
-8.22263
  0
LINE
  8
0
 10
-1.31445
 20
-8.22263
 11
-1.39465
 21
-8.05219
  0
LINE
  8
0
 10
-1.39465
 20
-8.05219
 11
-1.45287
 21
-7.87303
  0
LINE
  8
0
 10
-1.45287
 20
-7.87303
 11
-1.48816
 21
-7.68799
  0
LINE
  8
0
 10
-1.48816
 20
-7.68799
 11
-1.5
 21
-7.5
  0
LINE
  8
0
 10
-1.5
 20
-7.5
 11
-1.48816
 21
-7.312
  0
LINE
  8
0
 10
-1.48816
 20
-7.312
 11
-1.45287
 21
-7.12695
  0
LINE
  8
0
 10
-1.45287
 20
-7.12695
 11
-1.39465
 21
-6.9478
  0
LINE
  8
0
 10
-1.39465
 20
-6.9478
 11
-1.31445
 21
-6.77736
  0
LINE
  8
0
 10
-1.31445
 20
-6.77736
 11
-1.21352
 21
-6.61832
  0
LINE
  8
0
 10
-1.21352
 20
-6.61832
 11
-1.09344
 21
-6.47318
  0
LINE
  8
0
 10
-1.09344
 20
-6.47318
 11
-0.956131
 21
-6.34422
  0
LINE
  8
0
 10
-0.956131
 20
-6.34422
 11
-0.803726
 21
-6.23351
  0
LINE
  8
0
 10
-0.803726
 20
-6.23351
 11
-0.638657
 21
-6.14275
  0
LINE
  8
0
 10
-0.638657
 20
-6.14275
 11
-0.463516
 21
-6.07341
  0
LINE
  8
0
 10
-0.463516
 20
-6.07341
 11
-0.281067
 21
-6.02657
  0
LINE
  8
0
 10
-0.281067
 20
-6.02657
 11
-0.0941772
 21
-6.00294
  0
LINE
  8
0
 10
-0.0941772
 20
-6.00294
 11
0.0941772
 21
-6.00294
  0
LINE
  8
0
 10
0.0941772
 20
-6.00294
 11
0.281067
 21
-6.02657
  0
LINE
  8
0
 10
0.281067
 20
-6.02657
 11
0.463516
 21
-6.07341
  0
LINE
  8
0
 10
0.463516
 20
-6.07341
 11
0.638657
 21
-6.14275
  0
LINE
  8
0
 10
0.638657
 20
-6.14275
 11
0.803726
 21
-6.23351
  0
LINE
  8
0
 10
0.803726
 20
-6.23351
 11
0.956131
 21
-6.34422
  0
LINE
  8
0
 10
0.956131
 20
-6.34422
 11
1.09344
 21
-6.47318
  0
LINE
  8
0
 10
1.09344
 20
-6.47318
 11
1.21352
 21
-6.61832
  0
LINE
  8
0
 10
1.21352
 20
-6.61832
 11
1.31445
 21
-6.77736
  0
LINE
  8
0
 10
1.31445
 20
-6.77736
 11
1.39465
 21
-6.9478
  0
LINE
  8
0
 10
1.39465
 20
-6.9478
 11
1.45287
 21
-7.12695
  0
LINE
  8
0
 10
1.45287
 20
-7.12695
 11
1.48816
 21
-7.312
  0
LINE
  8
0
 10
1.48816
 20
-7.312
 11
1.5
 21
-7.5
  0
LINE
  8
0
 10
1.5
 20
-7.5
 11
1.48816
 21
-7.68799
  0
LINE
  8
0
 10
1.48816
 20
-7.68799
 11
1.45287
 21
-7.87303
  0
LINE
  8
0
 10
1.45287
 20
-7.87303
 11
1.39465
 21
-8.05219
  0
LINE
  8
0
 10
1.39465
 20
-8.05219
 11
1.31445
 21
-8.22263
  0
LINE
  8
0
 10
1.31445
 20
-8.22263
 11
1.21352
 21
-8.38167
  0
LINE
  8
0
 10
1.21352
 20
-8.38167
 11
1.09344
 21
-8.52681
  0
LINE
  8
0
 10
1.09344
 20
-8.52681
 11
0.956131
 21
-8.65576
  0
LINE
  8
0
 10
0.956131
 20
-8.65576
 11
0.803726
 21
-8.76648
  0
LINE
  8
0
 10
0.803726
 20
-8.76648
 11
0.638657
 21
-8.85724
  0
LINE
  8
0
 10
0.638657
 20
-8.85724
 11
0.463516
 21
-8.92657
  0
LINE
  8
0
 10
0.463516
 20
-8.92657
 11
0.281067
 21
-8.97342
  0
LINE
  8
0
 10
0.281067
 20
-8.97342
 11
0.0941772
 21
-8.99704
  0
LINE
  8
0
 10
0.0941772
 20
-8.99704
 11
-0.0941772
 21
-8.99704
  0
LINE
  8
0
 10
8.30373
 20
6.23351
 11
8.13866
 21
6.14275
  0
LINE
  8
0
 10
8.13866
 20
6.14275
 11
7.96352
 21
6.07341
  0
LINE
  8
0
 10
7.96352
 20
6.07341
 11
7.78107
 21
6.02657
  0
LINE
  8
0
 10
7.78107
 20
6.02657
 11
7.59418
 21
6.00294
  0
LINE
  8
0
 10
7.59418
 20
6.00294
 11
7.40581
 21
6.00294
  0
LINE
  8
0
 10
7.40581
 20
6.00294
 11
7.21892
 21
6.02657
  0
LINE
  8
0
 10
7.21892
 20
6.02657
 11
7.03647
 21
6.07341
  0
LINE
  8
0
 10
7.03647
 20
6.07341
 11
6.86133
 21
6.14275
  0
LINE
  8
0
 10
6.86133
 20
6.14275
 11
6.69626
 21
6.23351
  0
LINE
  8
0
 10
6.69626
 20
6.23351
 11
6.54385
 21
6.34422
  0
LINE
  8
0
 10
6.54385
 20
6.34422
 11
6.40654
 21
6.47318
  0
LINE
  8
0
 10
6.40654
 20
6.47318
 11
6.28647
 21
6.61832
  0
LINE
  8
0
 10
6.28647
 20
6.61832
 11
6.18553
 21
6.77736
  0
LINE
  8
0
 10
6.18553
 20
6.77736
 11
6.10533
 21
6.9478
  0
LINE
  8
0
 10
6.10533
 20
6.9478
 11
6.04712
 21
7.12695
  0
LINE
  8
0
 10
6.04712
 20
7.12695
 11
6.01183
 21
7.312
  0
LINE
  8
0
 10
6.01183
 20
7.312
 11
6
 21
7.5
  0
LINE
  8
0
 10
6
 20
7.5
 11
6.01183
 21
7.68799
  0
LINE
  8
0
 10
6.01183
 20
7.68799
 11
6.04712
 21
7.87303
  0
LINE
  8
0
 10
6.04712
 20
7.87303
 11
6.10533
 21
8.05219
  0
LINE
  8
0
 10
6.10533
 20
8.05219
 11
6.18553
 21
8.22263
  0
LINE
  8
0
 10
6.18553
 20
8.22263
 11
6.28647
 21
8.38167
  0
LINE
  8
0
 10
6.28647
 20
8.38167
 11
6.40654
 21
8.52681
  0
LINE
  8
0
 10
6.40654
 20
8.52681
 11
6.54385
 21
8.65576
  0
LINE
  8
0
 10
6.54385
 20
8.65576
 11
6.69626
 21
8.76648
  0
LINE
  8
0
 10
6.69626
 20
8.76648
 11
6.86133
 21
8.85724
  0
LINE
  8
0
 10
6.86133
 20
8.85724
 11
7.03647
 21
8.92657
  0
LINE
  8
0
 10
7.03647
 20
8.92657
 11
7.21892
 21
8.97342
  0
LINE
  8
0
 10
7.21892
 20
8.97342
 11
7.40581
 21
8.99704
  0
LINE
  8
0
 10
7.40581
 20
8.99704
 11
7.59418
 21
8.99704
  0
LINE
  8
0
 10
7.59418
 20
8.99704
 11
7.78107
 21
8.97342
  0
LINE
  8
0
 10
7.78107
 20
8.97342
 11
7.96352
 21
8.92657
  0
LINE
  8
0
 10
7.96352
 20
8.92657
 11
8.13866
 21
8.85724
  0
LINE
  8
0
 10
8.13866
 20
8.85724
 11
8.30373
 21
8.76648
  0
LINE
  8
0
 10
8.30373
 20
8.76648
 11
8.45613
 21
8.65576
  0
LINE
  8
0
 10
8.45613
 20
8.65576
 11
8.59344
 21
8.52681
  0
LINE
  8
0
 10
8.59344
 20
8.52681
 11
8.71352
 21
8.38167
  0
LINE
  8
0
 10
8.71352
 20
8.38167
 11
8.81445
 21
8.22263
  0
LINE
  8
0
 10
8.81445
 20
8.22263
 11
8.89465
 21
8.05219
  0
LINE
  8
0
 10
8.89465
 20
8.05219
 11
8.95287
 21
7.87303
  0
LINE
  8
0
 10
8.95287
 20
7.87303
 11
8.98816
 21
7.68799
  0
LINE
  8
0
 10
8.98816
 20
7.68799
 11
9
 21
7.5
  0
LINE
  8
0
 10
9
 20
7.5
 11
8.98816
 21
7.312
  0
LINE
  8
0
 10
8.98816
 20
7.312
 11
8.95287
 21
7.12695
  0
LINE
  8
0
 10
8.95287
 20
7.12695
 11
8.89465
 21
6.9478
  0
LINE
  8
0
 10
8.89465
 20
6.9478
 11
8.81445
 21
6.77736
  0
LINE
  8
0
 10
8.81445
 20
6.77736
 11
8.71352
 21
6.61832
  0
LINE
  8
0
 10
8.71352
 20
6.61832
 11
8.59344
 21
6.47318
  0
LINE
  8
0
 10
8.59344
 20
6.47318
 11
8.45613
 21
6.34422
  0
LINE
  8
0
 10
8.45613
 20
6.34422
 11
8.30373
 21
6.23351
  0
LINE
  8
0
 10
13.6855
 20
6.77736
 11
13.6053
 21
6.9478
  0
LINE
  8
0
 10
13.6053
 20
6.9478
 11
13.5471
 21
7.12695
  0
LINE
  8
0
 10
13.5471
 20
7.12695
 11
13.5118
 21
7.312
  0
LINE
  8
0
 10
13.5118
 20
7.312
 11
13.5
 21
7.5
  0
LINE
  8
0
 10
13.5
 20
7.5
 11
13.5118
 21
7.68799
  0
LINE
  8
0
 10
13.5118
 20
7.68799
 11
13.5471
 21
7.87303
  0
LINE
  8
0
 10
13.5471
 20
7.87303
 11
13.6053
 21
8.05219
  0
LINE
  8
0
 10
13.6053
 20
8.05219
 11
13.6855
 21
8.22263
  0
LINE
  8
0
 10
13.6855
 20
8.22263
 11
13.7865
 21
8.38167
  0
LINE
  8
0
 10
13.7865
 20
8.38167
 11
13.9065
 21
8.52681
  0
LINE
  8
0
 10
13.9065
 20
8.52681
 11
14.0439
 21
8.65576
  0
LINE
  8
0
 10
14.0439
 20
8.65576
 11
14.1963
 21
8.76648
  0
LINE
  8
0
 10
14.1963
 20
8.76648
 11
14.3613
 21
8.85724
  0
LINE
  8
0
 10
14.3613
 20
8.85724
 11
14.5365
 21
8.92657
  0
LINE
  8
0
 10
14.5365
 20
8.92657
 11
14.7189
 21
8.97342
  0
LINE
  8
0
 10
14.7189
 20
8.97342
 11
14.9058
 21
8.99704
  0
LINE
  8
0
 10
14.9058
 20
8.99704
 11
15.0942
 21
8.99704
  0
LINE
  8
0
 10
15.0942
 20
8.99704
 11
15.2811
 21
8.97342
  0
LINE
  8
0
 10
15.2811
 20
8.97342
 11
15.4635
 21
8.92657
  0
LINE
  8
0
 10
15.4635
 20
8.92657
 11
15.6387
 21
8.85724
  0
LINE
  8
0
 10
15.6387
 20
8.85724
 11
15.8037
 21
8.76648
  0
LINE
  8
0
 10
15.8037
 20
8.76648
 11
15.9561
 21
8.65576
  0
LINE
  8
0
 10
15.9561
 20
8.65576
 11
16.0934
 21
8.52681
  0
LINE
  8
0
 10
16.0934
 20
8.52681
 11
16.2135
 21
8.38167
  0
LINE
  8
0
 10
16.2135
 20
8.38167
 11
16.3145
 21
8.22263
  0
LINE
  8
0
 10
16.3145
 20
8.22263
 11
16.3947
 21
8.05219
  0
LINE
  8
0
 10
16.3947
 20
8.05219
 11
16.4529
 21
7.87303
  0
LINE
  8
0
 10
16.4529
 20
7.87303
 11
16.4882
 21
7.68799
  0
LINE
  8
0
 10
16.4882
 20
7.68799
 11
16.5
 21
7.5
  0
LINE
  8
0
 10
16.5
 20
7.5
 11
16.4882
 21
7.312
  0
LINE
  8
0
 10
16.4882
 20
7.312
 11
16.4529
 21
7.12695
  0
LINE
  8
0
 10
16.4529
 20
7.12695
 11
16.3947
 21
6.9478
  0
LINE
  8
0
 10
16.3947
 20
6.9478
 11
16.3145
 21
6.77736
  0
LINE
  8
0
 10
16.3145
 20
6.77736
 11
16.2135
 21
6.61832
  0
LINE
  8
0
 10
16.2135
 20
6.61832
 11
16.0934
 21
6.47318
  0
LINE
  8
0
 10
16.0934
 20
6.47318
 11
15.9561
 21
6.34422
  0
LINE
  8
0
 10
15.9561
 20
6.34422
 11
15.8037
 21
6.23351
  0
LINE
  8
0
 10
15.8037
 20
6.23351
 11
15.6387
 21
6.14275
  0
LINE
  8
0
 10
15.6387
 20
6.14275
 11
15.4635
 21
6.07341
  0
LINE
  8
0
 10
15.4635
 20
6.07341
 11
15.2811
 21
6.02657
  0
LINE
  8
0
 10
15.2811
 20
6.02657
 11
15.0942
 21
6.00294
  0
LINE
  8
0
 10
15.0942
 20
6.00294
 11
14.9058
 21
6.00294
  0
LINE
  8
0
 10
14.9058
 20
6.00294
 11
14.7189
 21
6.02657
  0
LINE
  8
0
 10
14.7189
 20
6.02657
 11
14.5365
 21
6.07341
  0
LINE
  8
0
 10
14.5365
 20
6.07341
 11
14.3613
 21
6.14275
  0
LINE
  8
0
 10
14.3613
 20
6.14275
 11
14.1963
 21
6.23351
  0
LINE
  8
0
 10
14.1963
 20
6.23351
 11
14.0439
 21
6.34422
  0
LINE
  8
0
 10
14.0439
 20
6.34422
 11
13.9065
 21
6.47318
  0
LINE
  8
0
 10
13.9065
 20
6.47318
 11
13.7865
 21
6.61832
  0
LINE
  8
0
 10
13.7865
 20
6.61832
 11
13.6855
 21
6.77736
  0
ENDSEC
  0
SECTION
  2
OBJECTS
  0
DICTIONARY
  0
ENDSEC
  0
EOF
