<?xml version="1.0" standalone="no"?>
<!DOCTYPE svg PUBLIC "-//W3C//DTD SVG 1.1//EN" "http://www.w3.org/Graphics/SVG/1.1/DTD/svg11.dtd">
<svg width="8mm" height="8mm" viewBox="-4 -4 8 8" xmlns="http://www.w3.org/2000/svg" version="1.1">
<title>OpenSCAD Model</title>
<path d="
M 1.46844,3.4557 L 1.77254,3.37764 L 2.06444,3.26205 L 2.33955,3.11081 L 2.59355,2.92627 L 2.82242,2.71136
 L 3.02254,2.46945 L 3.19077,2.20438 L 3.32443,1.9203 L 3.42145,1.62172 L 3.48029,1.31332 L 3.5,1
 L 3.5,-1 L 3.48029,-1.31332 L 3.42145,-1.62172 L 3.32443,-1.9203 L 3.19077,-2.20438 L 3.02254,-2.46945
 L 2.82242,-2.71136 L 2.59355,-2.92627 L 2.33955,-3.11081 L 2.06444,-3.26205 L 1.77254,-3.37764 L 1.46844,-3.4557
 L 1.15697,-3.49506 L -1.15697,-3.49506 L -1.46844,-3.4557 L -1.77254,-3.37764 L -2.06444,-3.26205 L -2.33955,-3.11081
 L -2.59355,-2.92627 L -2.82242,-2.71136 L -3.02254,-2.46945 L -3.19077,-2.20438 L -3.32443,-1.9203 L -3.42145,-1.62172
 L -3.48029,-1.31332 L -3.5,-1 L -3.5,1 L -3.48029,1.31332 L -3.42145,1.62172 L -3.32443,1.9203
 L -3.19077,2.20438 L -3.02254,2.46945 L -2.82242,2.71136 L -2.59355,2.92627 L -2.33955,3.11081 L -2.06444,3.26205
 L -1.77254,3.37764 L -1.46844,3.4557 L -1.15697,3.49506 L 1.15697,3.49506 z
M -0.0941772,1.49704 L -0.281067,1.47342 L -0.463516,1.42657 L -0.638657,1.35724 L -0.803726,1.26648 L -0.956131,1.15576
 L -1.09344,1.02681 L -1.21352,0.881668 L -1.31445,0.722626 L -1.39465,0.552185 L -1.45287,0.373032 L -1.48816,0.187988
 L -1.5,-0 L -1.48816,-0.187988 L -1.45287,-0.373032 L -1.39465,-0.552185 L -1.31445,-0.722626 L -1.21352,-0.881668
 L -1.09344,-1.02681 L -0.956131,-1.15576 L -0.803726,-1.26648 L -0.638657,-1.35724 L -0.463516,-1.42657 L -0.281067,-1.47342
 L -0.0941772,-1.49704 L 0.0941772,-1.49704 L 0.281067,-1.47342 L 0.463516,-1.42657 L 0.638657,-1.35724 L 0.803726,-1.26648
 L 0.956131,-1.15576 L 1.09344,-1.02681 L 1.21352,-0.881668 L 1.31445,-0.722626 L 1.39465,-0.552185 L 1.45287,-0.373032
 L 1.48816,-0.187988 L 1.5,-0 L 1.48816,0.187988 L 1.45287,0.373032 L 1.39465,0.552185 L 1.31445,0.722626
 L 1.21352,0.881668 L 1.09344,1.02681 L 0.956131,1.15576 L 0.803726,1.26648 L 0.638657,1.35724 L 0.463516,1.42657
 L 0.281067,1.47342 L 0.0941772,1.49704 z
" stroke="black" fill="lightgray" stroke-width="0.5"/>
</svg>
