  0
SECTION
  2
BLOCKS
  0
ENDSEC
  0
SECTION
  2
ENTITIES
  0
LINE
  8
0
 10
1.46844
 20
-3.4557
 11
1.77254
 21
-3.37764
  0
LINE
  8
0
 10
1.77254
 20
-3.37764
 11
2.06444
 21
-3.26205
  0
LINE
  8
0
 10
2.06444
 20
-3.26205
 11
2.33955
 21
-3.11081
  0
LINE
  8
0
 10
2.33955
 20
-3.11081
 11
2.59355
 21
-2.92627
  0
LINE
  8
0
 10
2.59355
 20
-2.92627
 11
2.82242
 21
-2.71136
  0
LINE
  8
0
 10
2.82242
 20
-2.71136
 11
3.02254
 21
-2.46945
  0
LINE
  8
0
 10
3.02254
 20
-2.46945
 11
3.19077
 21
-2.20438
  0
LINE
  8
0
 10
3.19077
 20
-2.20438
 11
3.32443
 21
-1.9203
  0
LINE
  8
0
 10
3.32443
 20
-1.9203
 11
3.42145
 21
-1.62172
  0
LINE
  8
0
 10
3.42145
 20
-1.62172
 11
3.48029
 21
-1.31332
  0
LINE
  8
0
 10
3.48029
 20
-1.31332
 11
3.5
 21
-1
  0
LINE
  8
0
 10
3.5
 20
-1
 11
3.5
 21
1
  0
LINE
  8
0
 10
3.5
 20
1
 11
3.48029
 21
1.31332
  0
LINE
  8
0
 10
3.48029
 20
1.31332
 11
3.42145
 21
1.62172
  0
LINE
  8
0
 10
3.42145
 20
1.62172
 11
3.32443
 21
1.9203
  0
LINE
  8
0
 10
3.32443
 20
1.9203
 11
3.19077
 21
2.20438
  0
LINE
  8
0
 10
3.19077
 20
2.20438
 11
3.02254
 21
2.46945
  0
LINE
  8
0
 10
3.02254
 20
2.46945
 11
2.82242
 21
2.71136
  0
LINE
  8
0
 10
2.82242
 20
2.71136
 11
2.59355
 21
2.92627
  0
LINE
  8
0
 10
2.59355
 20
2.92627
 11
2.33955
 21
3.11081
  0
LINE
  8
0
 10
2.33955
 20
3.11081
 11
2.06444
 21
3.26205
  0
LINE
  8
0
 10
2.06444
 20
3.26205
 11
1.77254
 21
3.37764
  0
LINE
  8
0
 10
1.77254
 20
3.37764
 11
1.46844
 21
3.4557
  0
LINE
  8
0
 10
1.46844
 20
3.4557
 11
1.15697
 21
3.49506
  0
LINE
  8
0
 10
1.15697
 20
3.49506
 11
-1.15697
 21
3.49506
  0
LINE
  8
0
 10
-1.15697
 20
3.49506
 11
-1.46844
 21
3.4557
  0
LINE
  8
0
 10
-1.46844
 20
3.4557
 11
-1.77254
 21
3.37764
  0
LINE
  8
0
 10
-1.77254
 20
3.37764
 11
-2.06444
 21
3.26205
  0
LINE
  8
0
 10
-2.06444
 20
3.26205
 11
-2.33955
 21
3.11081
  0
LINE
  8
0
 10
-2.33955
 20
3.11081
 11
-2.59355
 21
2.92627
  0
LINE
  8
0
 10
-2.59355
 20
2.92627
 11
-2.82242
 21
2.71136
  0
LINE
  8
0
 10
-2.82242
 20
2.71136
 11
-3.02254
 21
2.46945
  0
LINE
  8
0
 10
-3.02254
 20
2.46945
 11
-3.19077
 21
2.20438
  0
LINE
  8
0
 10
-3.19077
 20
2.20438
 11
-3.32443
 21
1.9203
  0
LINE
  8
0
 10
-3.32443
 20
1.9203
 11
-3.42145
 21
1.62172
  0
LINE
  8
0
 10
-3.42145
 20
1.62172
 11
-3.48029
 21
1.31332
  0
LINE
  8
0
 10
-3.48029
 20
1.31332
 11
-3.5
 21
1
  0
LINE
  8
0
 10
-3.5
 20
1
 11
-3.5
 21
-1
  0
LINE
  8
0
 10
-3.5
 20
-1
 11
-3.48029
 21
-1.31332
  0
LINE
  8
0
 10
-3.48029
 20
-1.31332
 11
-3.42145
 21
-1.62172
  0
LINE
  8
0
 10
-3.42145
 20
-1.62172
 11
-3.32443
 21
-1.9203
  0
LINE
  8
0
 10
-3.32443
 20
-1.9203
 11
-3.19077
 21
-2.20438
  0
LINE
  8
0
 10
-3.19077
 20
-2.20438
 11
-3.02254
 21
-2.46945
  0
LINE
  8
0
 10
-3.02254
 20
-2.46945
 11
-2.82242
 21
-2.71136
  0
LINE
  8
0
 10
-2.82242
 20
-2.71136
 11
-2.59355
 21
-2.92627
  0
LINE
  8
0
 10
-2.59355
 20
-2.92627
 11
-2.33955
 21
-3.11081
  0
LINE
  8
0
 10
-2.33955
 20
-3.11081
 11
-2.06444
 21
-3.26205
  0
LINE
  8
0
 10
-2.06444
 20
-3.26205
 11
-1.77254
 21
-3.37764
  0
LINE
  8
0
 10
-1.77254
 20
-3.37764
 11
-1.46844
 21
-3.4557
  0
LINE
  8
0
 10
-1.46844
 20
-3.4557
 11
-1.15697
 21
-3.49506
  0
LINE
  8
0
 10
-1.15697
 20
-3.49506
 11
1.15697
 21
-3.49506
  0
LINE
  8
0
 10
1.15697
 20
-3.49506
 11
1.46844
 21
-3.4557
  0
LINE
  8
0
 10
-0.0941772
 20
-1.49704
 11
-0.281067
 21
-1.47342
  0
LINE
  8
0
 10
-0.281067
 20
-1.47342
 11
-0.463516
 21
-1.42657
  0
LINE
  8
0
 10
-0.463516
 20
-1.42657
 11
-0.638657
 21
-1.35724
  0
LINE
  8
0
 10
-0.638657
 20
-1.35724
 11
-0.803726
 21
-1.26648
  0
LINE
  8
0
 10
-0.803726
 20
-1.26648
 11
-0.956131
 21
-1.15576
  0
LINE
  8
0
 10
-0.956131
 20
-1.15576
 11
-1.09344
 21
-1.02681
  0
LINE
  8
0
 10
-1.09344
 20
-1.02681
 11
-1.21352
 21
-0.881668
  0
LINE
  8
0
 10
-1.21352
 20
-0.881668
 11
-1.31445
 21
-0.722626
  0
LINE
  8
0
 10
-1.31445
 20
-0.722626
 11
-1.39465
 21
-0.552185
  0
LINE
  8
0
 10
-1.39465
 20
-0.552185
 11
-1.45287
 21
-0.373032
  0
LINE
  8
0
 10
-1.45287
 20
-0.373032
 11
-1.48816
 21
-0.187988
  0
LINE
  8
0
 10
-1.48816
 20
-0.187988
 11
-1.5
 21
0
  0
LINE
  8
0
 10
-1.5
 20
0
 11
-1.48816
 21
0.187988
  0
LINE
  8
0
 10
-1.48816
 20
0.187988
 11
-1.45287
 21
0.373032
  0
LINE
  8
0
 10
-1.45287
 20
0.373032
 11
-1.39465
 21
0.552185
  0
LINE
  8
0
 10
-1.39465
 20
0.552185
 11
-1.31445
 21
0.722626
  0
LINE
  8
0
 10
-1.31445
 20
0.722626
 11
-1.21352
 21
0.881668
  0
LINE
  8
0
 10
-1.21352
 20
0.881668
 11
-1.09344
 21
1.02681
  0
LINE
  8
0
 10
-1.09344
 20
1.02681
 11
-0.956131
 21
1.15576
  0
LINE
  8
0
 10
-0.956131
 20
1.15576
 11
-0.803726
 21
1.26648
  0
LINE
  8
0
 10
-0.803726
 20
1.26648
 11
-0.638657
 21
1.35724
  0
LINE
  8
0
 10
-0.638657
 20
1.35724
 11
-0.463516
 21
1.42657
  0
LINE
  8
0
 10
-0.463516
 20
1.42657
 11
-0.281067
 21
1.47342
  0
LINE
  8
0
 10
-0.281067
 20
1.47342
 11
-0.0941772
 21
1.49704
  0
LINE
  8
0
 10
-0.0941772
 20
1.49704
 11
0.0941772
 21
1.49704
  0
LINE
  8
0
 10
0.0941772
 20
1.49704
 11
0.281067
 21
1.47342
  0
LINE
  8
0
 10
0.281067
 20
1.47342
 11
0.463516
 21
1.42657
  0
LINE
  8
0
 10
0.463516
 20
1.42657
 11
0.638657
 21
1.35724
  0
LINE
  8
0
 10
0.638657
 20
1.35724
 11
0.803726
 21
1.26648
  0
LINE
  8
0
 10
0.803726
 20
1.26648
 11
0.956131
 21
1.15576
  0
LINE
  8
0
 10
0.956131
 20
1.15576
 11
1.09344
 21
1.02681
  0
LINE
  8
0
 10
1.09344
 20
1.02681
 11
1.21352
 21
0.881668
  0
LINE
  8
0
 10
1.21352
 20
0.881668
 11
1.31445
 21
0.722626
  0
LINE
  8
0
 10
1.31445
 20
0.722626
 11
1.39465
 21
0.552185
  0
LINE
  8
0
 10
1.39465
 20
0.552185
 11
1.45287
 21
0.373032
  0
LINE
  8
0
 10
1.45287
 20
0.373032
 11
1.48816
 21
0.187988
  0
LINE
  8
0
 10
1.48816
 20
0.187988
 11
1.5
 21
0
  0
LINE
  8
0
 10
1.5
 20
0
 11
1.48816
 21
-0.187988
  0
LINE
  8
0
 10
1.48816
 20
-0.187988
 11
1.45287
 21
-0.373032
  0
LINE
  8
0
 10
1.45287
 20
-0.373032
 11
1.39465
 21
-0.552185
  0
LINE
  8
0
 10
1.39465
 20
-0.552185
 11
1.31445
 21
-0.722626
  0
LINE
  8
0
 10
1.31445
 20
-0.722626
 11
1.21352
 21
-0.881668
  0
LINE
  8
0
 10
1.21352
 20
-0.881668
 11
1.09344
 21
-1.02681
  0
LINE
  8
0
 10
1.09344
 20
-1.02681
 11
0.956131
 21
-1.15576
  0
LINE
  8
0
 10
0.956131
 20
-1.15576
 11
0.803726
 21
-1.26648
  0
LINE
  8
0
 10
0.803726
 20
-1.26648
 11
0.638657
 21
-1.35724
  0
LINE
  8
0
 10
0.638657
 20
-1.35724
 11
0.463516
 21
-1.42657
  0
LINE
  8
0
 10
0.463516
 20
-1.42657
 11
0.281067
 21
-1.47342
  0
LINE
  8
0
 10
0.281067
 20
-1.47342
 11
0.0941772
 21
-1.49704
  0
LINE
  8
0
 10
0.0941772
 20
-1.49704
 11
-0.0941772
 21
-1.49704
  0
ENDSEC
  0
SECTION
  2
OBJECTS
  0
DICTIONARY
  0
ENDSEC
  0
EOF
