<?xml version="1.0" standalone="no"?>
<!DOCTYPE svg PUBLIC "-//W3C//DTD SVG 1.1//EN" "http://www.w3.org/Graphics/SVG/1.1/DTD/svg11.dtd">
<svg width="16mm" height="8mm" viewBox="-8 -4 16 8" xmlns="http://www.w3.org/2000/svg" version="1.1">
<title>OpenSCAD Model</title>
<path d="
M 5.21844,3.4557 L 5.52254,3.37764 L 5.81444,3.26205 L 6.08955,3.11081 L 6.34355,2.92627 L 6.57242,2.71136
 L 6.77254,2.46945 L 6.94077,2.20438 L 7.07443,1.9203 L 7.17145,1.62172 L 7.23029,1.31332 L 7.25,1
 L 7.25,-1 L 7.23029,-1.31332 L 7.17145,-1.62172 L 7.07443,-1.9203 L 6.94077,-2.20438 L 6.77254,-2.46945
 L 6.57242,-2.71136 L 6.34355,-2.92627 L 6.08955,-3.11081 L 5.81444,-3.26205 L 5.52254,-3.37764 L 5.21844,-3.4557
 L 4.90697,-3.49506 L -4.90697,-3.49506 L -5.21844,-3.4557 L -5.52254,-3.37764 L -5.81444,-3.26205 L -6.08955,-3.11081
 L -6.34355,-2.92627 L -6.57242,-2.71136 L -6.77254,-2.46945 L -6.94077,-2.20438 L -7.07443,-1.9203 L -7.17145,-1.62172
 L -7.23029,-1.31332 L -7.25,-1 L -7.25,1 L -7.23029,1.31332 L -7.17145,1.62172 L -7.07443,1.9203
 L -6.94077,2.20438 L -6.77254,2.46945 L -6.57242,2.71136 L -6.34355,2.92627 L -6.08955,3.11081 L -5.81444,3.26205
 L -5.52254,3.37764 L -5.21844,3.4557 L -4.90697,3.49506 L 4.90697,3.49506 z
M 3.65581,1.49704 L 3.46892,1.47342 L 3.28647,1.42657 L 3.11133,1.35724 L 2.94626,1.26648 L 2.79385,1.15576
 L 2.65654,1.02681 L 2.53647,0.881668 L 2.43553,0.722626 L 2.35533,0.552185 L 2.29712,0.373032 L 2.26183,0.187988
 L 2.25,-0 L 2.26183,-0.187988 L 2.29712,-0.373032 L 2.35533,-0.552185 L 2.43553,-0.722626 L 2.53647,-0.881668
 L 2.65654,-1.02681 L 2.79385,-1.15576 L 2.94626,-1.26648 L 3.11133,-1.35724 L 3.28647,-1.42657 L 3.46892,-1.47342
 L 3.65581,-1.49704 L 3.84418,-1.49704 L 4.03107,-1.47342 L 4.21352,-1.42657 L 4.38866,-1.35724 L 4.55373,-1.26648
 L 4.70613,-1.15576 L 4.84344,-1.02681 L 4.96352,-0.881668 L 5.06445,-0.722626 L 5.14465,-0.552185 L 5.20287,-0.373032
 L 5.23816,-0.187988 L 5.25,-0 L 5.23816,0.187988 L 5.20287,0.373032 L 5.14465,0.552185 L 5.06445,0.722626
 L 4.96352,0.881668 L 4.84344,1.02681 L 4.70613,1.15576 L 4.55373,1.26648 L 4.38866,1.35724 L 4.21352,1.42657
 L 4.03107,1.47342 L 3.84418,1.49704 z
M -3.84418,1.49704 L -4.03107,1.47342 L -4.21352,1.42657 L -4.38866,1.35724 L -4.55373,1.26648 L -4.70613,1.15576
 L -4.84344,1.02681 L -4.96352,0.881668 L -5.06445,0.722626 L -5.14465,0.552185 L -5.20287,0.373032 L -5.23816,0.187988
 L -5.25,-0 L -5.23816,-0.187988 L -5.20287,-0.373032 L -5.14465,-0.552185 L -5.06445,-0.722626 L -4.96352,-0.881668
 L -4.84344,-1.02681 L -4.70613,-1.15576 L -4.55373,-1.26648 L -4.38866,-1.35724 L -4.21352,-1.42657 L -4.03107,-1.47342
 L -3.84418,-1.49704 L -3.65581,-1.49704 L -3.46892,-1.47342 L -3.28647,-1.42657 L -3.11133,-1.35724 L -2.94626,-1.26648
 L -2.79385,-1.15576 L -2.65654,-1.02681 L -2.53647,-0.881668 L -2.43553,-0.722626 L -2.35533,-0.552185 L -2.29712,-0.373032
 L -2.26183,-0.187988 L -2.25,-0 L -2.26183,0.187988 L -2.29712,0.373032 L -2.35533,0.552185 L -2.43553,0.722626
 L -2.53647,0.881668 L -2.65654,1.02681 L -2.79385,1.15576 L -2.94626,1.26648 L -3.11133,1.35724 L -3.28647,1.42657
 L -3.46892,1.47342 L -3.65581,1.49704 z
" stroke="black" fill="lightgray" stroke-width="0.5"/>
</svg>
