<?xml version="1.0" standalone="no"?>
<!DOCTYPE svg PUBLIC "-//W3C//DTD SVG 1.1//EN" "http://www.w3.org/Graphics/SVG/1.1/DTD/svg11.dtd">
<svg width="22mm" height="8mm" viewBox="-11 -4 22 8" xmlns="http://www.w3.org/2000/svg" version="1.1">
<title>OpenSCAD Model</title>
<path d="
M 8.96844,3.4557 L 9.27254,3.37764 L 9.56444,3.26205 L 9.83955,3.11081 L 10.0936,2.92627 L 10.3224,2.71136
 L 10.5225,2.46945 L 10.6908,2.20438 L 10.8244,1.9203 L 10.9214,1.62172 L 10.9803,1.31332 L 11,1
 L 11,-1 L 10.9803,-1.31332 L 10.9214,-1.62172 L 10.8244,-1.9203 L 10.6908,-2.20438 L 10.5225,-2.46945
 L 10.3224,-2.71136 L 10.0936,-2.92627 L 9.83955,-3.11081 L 9.56444,-3.26205 L 9.27254,-3.37764 L 8.96844,-3.4557
 L 8.65697,-3.49506 L -8.65697,-3.49506 L -8.96844,-3.4557 L -9.27254,-3.37764 L -9.56444,-3.26205 L -9.83955,-3.11081
 L -10.0936,-2.92627 L -10.3224,-2.71136 L -10.5225,-2.46945 L -10.6908,-2.20438 L -10.8244,-1.9203 L -10.9214,-1.62172
 L -10.9803,-1.31332 L -11,-1 L -11,1 L -10.9803,1.31332 L -10.9214,1.62172 L -10.8244,1.9203
 L -10.6908,2.20438 L -10.5225,2.46945 L -10.3224,2.71136 L -10.0936,2.92627 L -9.83955,3.11081 L -9.56444,3.26205
 L -9.27254,3.37764 L -8.96844,3.4557 L -8.65697,3.49506 L 8.65697,3.49506 z
M -7.59418,1.49704 L -7.78107,1.47342 L -7.96352,1.42657 L -8.13866,1.35724 L -8.30373,1.26648 L -8.45613,1.15576
 L -8.59344,1.02681 L -8.71352,0.881668 L -8.81445,0.722626 L -8.89465,0.552185 L -8.95287,0.373032 L -8.98816,0.187988
 L -9,-0 L -8.98816,-0.187988 L -8.95287,-0.373032 L -8.89465,-0.552185 L -8.81445,-0.722626 L -8.71352,-0.881668
 L -8.59344,-1.02681 L -8.45613,-1.15576 L -8.30373,-1.26648 L -8.13866,-1.35724 L -7.96352,-1.42657 L -7.78107,-1.47342
 L -7.59418,-1.49704 L -7.40581,-1.49704 L -7.21892,-1.47342 L -7.03647,-1.42657 L -6.86133,-1.35724 L -6.69626,-1.26648
 L -6.54385,-1.15576 L -6.40654,-1.02681 L -6.28647,-0.881668 L -6.18553,-0.722626 L -6.10533,-0.552185 L -6.04712,-0.373032
 L -6.01183,-0.187988 L -6,-0 L -6.01183,0.187988 L -6.04712,0.373032 L -6.10533,0.552185 L -6.18553,0.722626
 L -6.28647,0.881668 L -6.40654,1.02681 L -6.54385,1.15576 L -6.69626,1.26648 L -6.86133,1.35724 L -7.03647,1.42657
 L -7.21892,1.47342 L -7.40581,1.49704 z
M -0.0941772,1.49704 L -0.281067,1.47342 L -0.463516,1.42657 L -0.638657,1.35724 L -0.803726,1.26648 L -0.956131,1.15576
 L -1.09344,1.02681 L -1.21352,0.881668 L -1.31445,0.722626 L -1.39465,0.552185 L -1.45287,0.373032 L -1.48816,0.187988
 L -1.5,-0 L -1.48816,-0.187988 L -1.45287,-0.373032 L -1.39465,-0.552185 L -1.31445,-0.722626 L -1.21352,-0.881668
 L -1.09344,-1.02681 L -0.956131,-1.15576 L -0.803726,-1.26648 L -0.638657,-1.35724 L -0.463516,-1.42657 L -0.281067,-1.47342
 L -0.0941772,-1.49704 L 0.0941772,-1.49704 L 0.281067,-1.47342 L 0.463516,-1.42657 L 0.638657,-1.35724 L 0.803726,-1.26648
 L 0.956131,-1.15576 L 1.09344,-1.02681 L 1.21352,-0.881668 L 1.31445,-0.722626 L 1.39465,-0.552185 L 1.45287,-0.373032
 L 1.48816,-0.187988 L 1.5,-0 L 1.48816,0.187988 L 1.45287,0.373032 L 1.39465,0.552185 L 1.31445,0.722626
 L 1.21352,0.881668 L 1.09344,1.02681 L 0.956131,1.15576 L 0.803726,1.26648 L 0.638657,1.35724 L 0.463516,1.42657
 L 0.281067,1.47342 L 0.0941772,1.49704 z
M 7.40581,1.49704 L 7.21892,1.47342 L 7.03647,1.42657 L 6.86133,1.35724 L 6.69626,1.26648 L 6.54385,1.15576
 L 6.40654,1.02681 L 6.28647,0.881668 L 6.18553,0.722626 L 6.10533,0.552185 L 6.04712,0.373032 L 6.01183,0.187988
 L 6,-0 L 6.01183,-0.187988 L 6.04712,-0.373032 L 6.10533,-0.552185 L 6.18553,-0.722626 L 6.28647,-0.881668
 L 6.40654,-1.02681 L 6.54385,-1.15576 L 6.69626,-1.26648 L 6.86133,-1.35724 L 7.03647,-1.42657 L 7.21892,-1.47342
 L 7.40581,-1.49704 L 7.59418,-1.49704 L 7.78107,-1.47342 L 7.96352,-1.42657 L 8.13866,-1.35724 L 8.30373,-1.26648
 L 8.45613,-1.15576 L 8.59344,-1.02681 L 8.71352,-0.881668 L 8.81445,-0.722626 L 8.89465,-0.552185 L 8.95287,-0.373032
 L 8.98816,-0.187988 L 9,-0 L 8.98816,0.187988 L 8.95287,0.373032 L 8.89465,0.552185 L 8.81445,0.722626
 L 8.71352,0.881668 L 8.59344,1.02681 L 8.45613,1.15576 L 8.30373,1.26648 L 8.13866,1.35724 L 7.96352,1.42657
 L 7.78107,1.47342 L 7.59418,1.49704 z
" stroke="black" fill="lightgray" stroke-width="0.5"/>
</svg>
