  0
SECTION
  2
BLOCKS
  0
ENDSEC
  0
SECTION
  2
ENTITIES
  0
LINE
  8
0
 10
8.96844
 20
-10.9557
 11
9.27254
 21
-10.8776
  0
LINE
  8
0
 10
9.27254
 20
-10.8776
 11
9.56444
 21
-10.7621
  0
LINE
  8
0
 10
9.56444
 20
-10.7621
 11
9.83955
 21
-10.6108
  0
LINE
  8
0
 10
9.83955
 20
-10.6108
 11
10.0936
 21
-10.4263
  0
LINE
  8
0
 10
10.0936
 20
-10.4263
 11
10.3224
 21
-10.2114
  0
LINE
  8
0
 10
10.3224
 20
-10.2114
 11
10.5225
 21
-9.96945
  0
LINE
  8
0
 10
10.5225
 20
-9.96945
 11
10.6908
 21
-9.70438
  0
LINE
  8
0
 10
10.6908
 20
-9.70438
 11
10.8244
 21
-9.4203
  0
LINE
  8
0
 10
10.8244
 20
-9.4203
 11
10.9214
 21
-9.12172
  0
LINE
  8
0
 10
10.9214
 20
-9.12172
 11
10.9803
 21
-8.81332
  0
LINE
  8
0
 10
10.9803
 20
-8.81332
 11
11
 21
-8.5
  0
LINE
  8
0
 10
11
 20
-8.5
 11
11
 21
8.5
  0
LINE
  8
0
 10
11
 20
8.5
 11
10.9803
 21
8.81332
  0
LINE
  8
0
 10
10.9803
 20
8.81332
 11
10.9214
 21
9.12172
  0
LINE
  8
0
 10
10.9214
 20
9.12172
 11
10.8244
 21
9.4203
  0
LINE
  8
0
 10
10.8244
 20
9.4203
 11
10.6908
 21
9.70438
  0
LINE
  8
0
 10
10.6908
 20
9.70438
 11
10.5225
 21
9.96945
  0
LINE
  8
0
 10
10.5225
 20
9.96945
 11
10.3224
 21
10.2114
  0
LINE
  8
0
 10
10.3224
 20
10.2114
 11
10.0936
 21
10.4263
  0
LINE
  8
0
 10
10.0936
 20
10.4263
 11
9.83955
 21
10.6108
  0
LINE
  8
0
 10
9.83955
 20
10.6108
 11
9.56444
 21
10.7621
  0
LINE
  8
0
 10
9.56444
 20
10.7621
 11
9.27254
 21
10.8776
  0
LINE
  8
0
 10
9.27254
 20
10.8776
 11
8.96844
 21
10.9557
  0
LINE
  8
0
 10
8.96844
 20
10.9557
 11
8.65697
 21
10.9951
  0
LINE
  8
0
 10
8.65697
 20
10.9951
 11
-8.65697
 21
10.9951
  0
LINE
  8
0
 10
-8.65697
 20
10.9951
 11
-8.96844
 21
10.9557
  0
LINE
  8
0
 10
-8.96844
 20
10.9557
 11
-9.27254
 21
10.8776
  0
LINE
  8
0
 10
-9.27254
 20
10.8776
 11
-9.56444
 21
10.7621
  0
LINE
  8
0
 10
-9.56444
 20
10.7621
 11
-9.83955
 21
10.6108
  0
LINE
  8
0
 10
-9.83955
 20
10.6108
 11
-10.0936
 21
10.4263
  0
LINE
  8
0
 10
-10.0936
 20
10.4263
 11
-10.3224
 21
10.2114
  0
LINE
  8
0
 10
-10.3224
 20
10.2114
 11
-10.5225
 21
9.96945
  0
LINE
  8
0
 10
-10.5225
 20
9.96945
 11
-10.6908
 21
9.70438
  0
LINE
  8
0
 10
-10.6908
 20
9.70438
 11
-10.8244
 21
9.4203
  0
LINE
  8
0
 10
-10.8244
 20
9.4203
 11
-10.9214
 21
9.12172
  0
LINE
  8
0
 10
-10.9214
 20
9.12172
 11
-10.9803
 21
8.81332
  0
LINE
  8
0
 10
-10.9803
 20
8.81332
 11
-11
 21
8.5
  0
LINE
  8
0
 10
-11
 20
8.5
 11
-11
 21
-8.5
  0
LINE
  8
0
 10
-11
 20
-8.5
 11
-10.9803
 21
-8.81332
  0
LINE
  8
0
 10
-10.9803
 20
-8.81332
 11
-10.9214
 21
-9.12172
  0
LINE
  8
0
 10
-10.9214
 20
-9.12172
 11
-10.8244
 21
-9.4203
  0
LINE
  8
0
 10
-10.8244
 20
-9.4203
 11
-10.6908
 21
-9.70438
  0
LINE
  8
0
 10
-10.6908
 20
-9.70438
 11
-10.5225
 21
-9.96945
  0
LINE
  8
0
 10
-10.5225
 20
-9.96945
 11
-10.3224
 21
-10.2114
  0
LINE
  8
0
 10
-10.3224
 20
-10.2114
 11
-10.0936
 21
-10.4263
  0
LINE
  8
0
 10
-10.0936
 20
-10.4263
 11
-9.83955
 21
-10.6108
  0
LINE
  8
0
 10
-9.83955
 20
-10.6108
 11
-9.56444
 21
-10.7621
  0
LINE
  8
0
 10
-9.56444
 20
-10.7621
 11
-9.27254
 21
-10.8776
  0
LINE
  8
0
 10
-9.27254
 20
-10.8776
 11
-8.96844
 21
-10.9557
  0
LINE
  8
0
 10
-8.96844
 20
-10.9557
 11
-8.65697
 21
-10.9951
  0
LINE
  8
0
 10
-8.65697
 20
-10.9951
 11
8.65697
 21
-10.9951
  0
LINE
  8
0
 10
8.65697
 20
-10.9951
 11
8.96844
 21
-10.9557
  0
LINE
  8
0
 10
-7.59418
 20
6.00294
 11
-7.78107
 21
6.02657
  0
LINE
  8
0
 10
-7.78107
 20
6.02657
 11
-7.96352
 21
6.07341
  0
LINE
  8
0
 10
-7.96352
 20
6.07341
 11
-8.13866
 21
6.14275
  0
LINE
  8
0
 10
-8.13866
 20
6.14275
 11
-8.30373
 21
6.23351
  0
LINE
  8
0
 10
-8.30373
 20
6.23351
 11
-8.45613
 21
6.34422
  0
LINE
  8
0
 10
-8.45613
 20
6.34422
 11
-8.59344
 21
6.47318
  0
LINE
  8
0
 10
-8.59344
 20
6.47318
 11
-8.71352
 21
6.61832
  0
LINE
  8
0
 10
-8.71352
 20
6.61832
 11
-8.81445
 21
6.77736
  0
LINE
  8
0
 10
-8.81445
 20
6.77736
 11
-8.89465
 21
6.9478
  0
LINE
  8
0
 10
-8.89465
 20
6.9478
 11
-8.95287
 21
7.12695
  0
LINE
  8
0
 10
-8.95287
 20
7.12695
 11
-8.98816
 21
7.312
  0
LINE
  8
0
 10
-8.98816
 20
7.312
 11
-9
 21
7.5
  0
LINE
  8
0
 10
-9
 20
7.5
 11
-8.98816
 21
7.68799
  0
LINE
  8
0
 10
-8.98816
 20
7.68799
 11
-8.95287
 21
7.87303
  0
LINE
  8
0
 10
-8.95287
 20
7.87303
 11
-8.89465
 21
8.05219
  0
LINE
  8
0
 10
-8.89465
 20
8.05219
 11
-8.81445
 21
8.22263
  0
LINE
  8
0
 10
-8.81445
 20
8.22263
 11
-8.71352
 21
8.38167
  0
LINE
  8
0
 10
-8.71352
 20
8.38167
 11
-8.59344
 21
8.52681
  0
LINE
  8
0
 10
-8.59344
 20
8.52681
 11
-8.45613
 21
8.65576
  0
LINE
  8
0
 10
-8.45613
 20
8.65576
 11
-8.30373
 21
8.76648
  0
LINE
  8
0
 10
-8.30373
 20
8.76648
 11
-8.13866
 21
8.85724
  0
LINE
  8
0
 10
-8.13866
 20
8.85724
 11
-7.96352
 21
8.92657
  0
LINE
  8
0
 10
-7.96352
 20
8.92657
 11
-7.78107
 21
8.97342
  0
LINE
  8
0
 10
-7.78107
 20
8.97342
 11
-7.59418
 21
8.99704
  0
LINE
  8
0
 10
-7.59418
 20
8.99704
 11
-7.40581
 21
8.99704
  0
LINE
  8
0
 10
-7.40581
 20
8.99704
 11
-7.21892
 21
8.97342
  0
LINE
  8
0
 10
-7.21892
 20
8.97342
 11
-7.03647
 21
8.92657
  0
LINE
  8
0
 10
-7.03647
 20
8.92657
 11
-6.86133
 21
8.85724
  0
LINE
  8
0
 10
-6.86133
 20
8.85724
 11
-6.69626
 21
8.76648
  0
LINE
  8
0
 10
-6.69626
 20
8.76648
 11
-6.54385
 21
8.65576
  0
LINE
  8
0
 10
-6.54385
 20
8.65576
 11
-6.40654
 21
8.52681
  0
LINE
  8
0
 10
-6.40654
 20
8.52681
 11
-6.28647
 21
8.38167
  0
LINE
  8
0
 10
-6.28647
 20
8.38167
 11
-6.18553
 21
8.22263
  0
LINE
  8
0
 10
-6.18553
 20
8.22263
 11
-6.10533
 21
8.05219
  0
LINE
  8
0
 10
-6.10533
 20
8.05219
 11
-6.04712
 21
7.87303
  0
LINE
  8
0
 10
-6.04712
 20
7.87303
 11
-6.01183
 21
7.68799
  0
LINE
  8
0
 10
-6.01183
 20
7.68799
 11
-6
 21
7.5
  0
LINE
  8
0
 10
-6
 20
7.5
 11
-6.01183
 21
7.312
  0
LINE
  8
0
 10
-6.01183
 20
7.312
 11
-6.04712
 21
7.12695
  0
LINE
  8
0
 10
-6.04712
 20
7.12695
 11
-6.10533
 21
6.9478
  0
LINE
  8
0
 10
-6.10533
 20
6.9478
 11
-6.18553
 21
6.77736
  0
LINE
  8
0
 10
-6.18553
 20
6.77736
 11
-6.28647
 21
6.61832
  0
LINE
  8
0
 10
-6.28647
 20
6.61832
 11
-6.40654
 21
6.47318
  0
LINE
  8
0
 10
-6.40654
 20
6.47318
 11
-6.54385
 21
6.34422
  0
LINE
  8
0
 10
-6.54385
 20
6.34422
 11
-6.69626
 21
6.23351
  0
LINE
  8
0
 10
-6.69626
 20
6.23351
 11
-6.86133
 21
6.14275
  0
LINE
  8
0
 10
-6.86133
 20
6.14275
 11
-7.03647
 21
6.07341
  0
LINE
  8
0
 10
-7.03647
 20
6.07341
 11
-7.21892
 21
6.02657
  0
LINE
  8
0
 10
-7.21892
 20
6.02657
 11
-7.40581
 21
6.00294
  0
LINE
  8
0
 10
-7.40581
 20
6.00294
 11
-7.59418
 21
6.00294
  0
LINE
  8
0
 10
-0.0941772
 20
6.00294
 11
-0.281067
 21
6.02657
  0
LINE
  8
0
 10
-0.281067
 20
6.02657
 11
-0.463516
 21
6.07341
  0
LINE
  8
0
 10
-0.463516
 20
6.07341
 11
-0.638657
 21
6.14275
  0
LINE
  8
0
 10
-0.638657
 20
6.14275
 11
-0.803726
 21
6.23351
  0
LINE
  8
0
 10
-0.803726
 20
6.23351
 11
-0.956131
 21
6.34422
  0
LINE
  8
0
 10
-0.956131
 20
6.34422
 11
-1.09344
 21
6.47318
  0
LINE
  8
0
 10
-1.09344
 20
6.47318
 11
-1.21352
 21
6.61832
  0
LINE
  8
0
 10
-1.21352
 20
6.61832
 11
-1.31445
 21
6.77736
  0
LINE
  8
0
 10
-1.31445
 20
6.77736
 11
-1.39465
 21
6.9478
  0
LINE
  8
0
 10
-1.39465
 20
6.9478
 11
-1.45287
 21
7.12695
  0
LINE
  8
0
 10
-1.45287
 20
7.12695
 11
-1.48816
 21
7.312
  0
LINE
  8
0
 10
-1.48816
 20
7.312
 11
-1.5
 21
7.5
  0
LINE
  8
0
 10
-1.5
 20
7.5
 11
-1.48816
 21
7.68799
  0
LINE
  8
0
 10
-1.48816
 20
7.68799
 11
-1.45287
 21
7.87303
  0
LINE
  8
0
 10
-1.45287
 20
7.87303
 11
-1.39465
 21
8.05219
  0
LINE
  8
0
 10
-1.39465
 20
8.05219
 11
-1.31445
 21
8.22263
  0
LINE
  8
0
 10
-1.31445
 20
8.22263
 11
-1.21352
 21
8.38167
  0
LINE
  8
0
 10
-1.21352
 20
8.38167
 11
-1.09344
 21
8.52681
  0
LINE
  8
0
 10
-1.09344
 20
8.52681
 11
-0.956131
 21
8.65576
  0
LINE
  8
0
 10
-0.956131
 20
8.65576
 11
-0.803726
 21
8.76648
  0
LINE
  8
0
 10
-0.803726
 20
8.76648
 11
-0.638657
 21
8.85724
  0
LINE
  8
0
 10
-0.638657
 20
8.85724
 11
-0.463516
 21
8.92657
  0
LINE
  8
0
 10
-0.463516
 20
8.92657
 11
-0.281067
 21
8.97342
  0
LINE
  8
0
 10
-0.281067
 20
8.97342
 11
-0.0941772
 21
8.99704
  0
LINE
  8
0
 10
-0.0941772
 20
8.99704
 11
0.0941772
 21
8.99704
  0
LINE
  8
0
 10
0.0941772
 20
8.99704
 11
0.281067
 21
8.97342
  0
LINE
  8
0
 10
0.281067
 20
8.97342
 11
0.463516
 21
8.92657
  0
LINE
  8
0
 10
0.463516
 20
8.92657
 11
0.638657
 21
8.85724
  0
LINE
  8
0
 10
0.638657
 20
8.85724
 11
0.803726
 21
8.76648
  0
LINE
  8
0
 10
0.803726
 20
8.76648
 11
0.956131
 21
8.65576
  0
LINE
  8
0
 10
0.956131
 20
8.65576
 11
1.09344
 21
8.52681
  0
LINE
  8
0
 10
1.09344
 20
8.52681
 11
1.21352
 21
8.38167
  0
LINE
  8
0
 10
1.21352
 20
8.38167
 11
1.31445
 21
8.22263
  0
LINE
  8
0
 10
1.31445
 20
8.22263
 11
1.39465
 21
8.05219
  0
LINE
  8
0
 10
1.39465
 20
8.05219
 11
1.45287
 21
7.87303
  0
LINE
  8
0
 10
1.45287
 20
7.87303
 11
1.48816
 21
7.68799
  0
LINE
  8
0
 10
1.48816
 20
7.68799
 11
1.5
 21
7.5
  0
LINE
  8
0
 10
1.5
 20
7.5
 11
1.48816
 21
7.312
  0
LINE
  8
0
 10
1.48816
 20
7.312
 11
1.45287
 21
7.12695
  0
LINE
  8
0
 10
1.45287
 20
7.12695
 11
1.39465
 21
6.9478
  0
LINE
  8
0
 10
1.39465
 20
6.9478
 11
1.31445
 21
6.77736
  0
LINE
  8
0
 10
1.31445
 20
6.77736
 11
1.21352
 21
6.61832
  0
LINE
  8
0
 10
1.21352
 20
6.61832
 11
1.09344
 21
6.47318
  0
LINE
  8
0
 10
1.09344
 20
6.47318
 11
0.956131
 21
6.34422
  0
LINE
  8
0
 10
0.956131
 20
6.34422
 11
0.803726
 21
6.23351
  0
LINE
  8
0
 10
0.803726
 20
6.23351
 11
0.638657
 21
6.14275
  0
LINE
  8
0
 10
0.638657
 20
6.14275
 11
0.463516
 21
6.07341
  0
LINE
  8
0
 10
0.463516
 20
6.07341
 11
0.281067
 21
6.02657
  0
LINE
  8
0
 10
0.281067
 20
6.02657
 11
0.0941772
 21
6.00294
  0
LINE
  8
0
 10
0.0941772
 20
6.00294
 11
-0.0941772
 21
6.00294
  0
LINE
  8
0
 10
7.40581
 20
6.00294
 11
7.21892
 21
6.02657
  0
LINE
  8
0
 10
7.21892
 20
6.02657
 11
7.03647
 21
6.07341
  0
LINE
  8
0
 10
7.03647
 20
6.07341
 11
6.86133
 21
6.14275
  0
LINE
  8
0
 10
6.86133
 20
6.14275
 11
6.69626
 21
6.23351
  0
LINE
  8
0
 10
6.69626
 20
6.23351
 11
6.54385
 21
6.34422
  0
LINE
  8
0
 10
6.54385
 20
6.34422
 11
6.40654
 21
6.47318
  0
LINE
  8
0
 10
6.40654
 20
6.47318
 11
6.28647
 21
6.61832
  0
LINE
  8
0
 10
6.28647
 20
6.61832
 11
6.18553
 21
6.77736
  0
LINE
  8
0
 10
6.18553
 20
6.77736
 11
6.10533
 21
6.9478
  0
LINE
  8
0
 10
6.10533
 20
6.9478
 11
6.04712
 21
7.12695
  0
LINE
  8
0
 10
6.04712
 20
7.12695
 11
6.01183
 21
7.312
  0
LINE
  8
0
 10
6.01183
 20
7.312
 11
6
 21
7.5
  0
LINE
  8
0
 10
6
 20
7.5
 11
6.01183
 21
7.68799
  0
LINE
  8
0
 10
6.01183
 20
7.68799
 11
6.04712
 21
7.87303
  0
LINE
  8
0
 10
6.04712
 20
7.87303
 11
6.10533
 21
8.05219
  0
LINE
  8
0
 10
6.10533
 20
8.05219
 11
6.18553
 21
8.22263
  0
LINE
  8
0
 10
6.18553
 20
8.22263
 11
6.28647
 21
8.38167
  0
LINE
  8
0
 10
6.28647
 20
8.38167
 11
6.40654
 21
8.52681
  0
LINE
  8
0
 10
6.40654
 20
8.52681
 11
6.54385
 21
8.65576
  0
LINE
  8
0
 10
6.54385
 20
8.65576
 11
6.69626
 21
8.76648
  0
LINE
  8
0
 10
6.69626
 20
8.76648
 11
6.86133
 21
8.85724
  0
LINE
  8
0
 10
6.86133
 20
8.85724
 11
7.03647
 21
8.92657
  0
LINE
  8
0
 10
7.03647
 20
8.92657
 11
7.21892
 21
8.97342
  0
LINE
  8
0
 10
7.21892
 20
8.97342
 11
7.40581
 21
8.99704
  0
LINE
  8
0
 10
7.40581
 20
8.99704
 11
7.59418
 21
8.99704
  0
LINE
  8
0
 10
7.59418
 20
8.99704
 11
7.78107
 21
8.97342
  0
LINE
  8
0
 10
7.78107
 20
8.97342
 11
7.96352
 21
8.92657
  0
LINE
  8
0
 10
7.96352
 20
8.92657
 11
8.13866
 21
8.85724
  0
LINE
  8
0
 10
8.13866
 20
8.85724
 11
8.30373
 21
8.76648
  0
LINE
  8
0
 10
8.30373
 20
8.76648
 11
8.45613
 21
8.65576
  0
LINE
  8
0
 10
8.45613
 20
8.65576
 11
8.59344
 21
8.52681
  0
LINE
  8
0
 10
8.59344
 20
8.52681
 11
8.71352
 21
8.38167
  0
LINE
  8
0
 10
8.71352
 20
8.38167
 11
8.81445
 21
8.22263
  0
LINE
  8
0
 10
8.81445
 20
8.22263
 11
8.89465
 21
8.05219
  0
LINE
  8
0
 10
8.89465
 20
8.05219
 11
8.95287
 21
7.87303
  0
LINE
  8
0
 10
8.95287
 20
7.87303
 11
8.98816
 21
7.68799
  0
LINE
  8
0
 10
8.98816
 20
7.68799
 11
9
 21
7.5
  0
LINE
  8
0
 10
9
 20
7.5
 11
8.98816
 21
7.312
  0
LINE
  8
0
 10
8.98816
 20
7.312
 11
8.95287
 21
7.12695
  0
LINE
  8
0
 10
8.95287
 20
7.12695
 11
8.89465
 21
6.9478
  0
LINE
  8
0
 10
8.89465
 20
6.9478
 11
8.81445
 21
6.77736
  0
LINE
  8
0
 10
8.81445
 20
6.77736
 11
8.71352
 21
6.61832
  0
LINE
  8
0
 10
8.71352
 20
6.61832
 11
8.59344
 21
6.47318
  0
LINE
  8
0
 10
8.59344
 20
6.47318
 11
8.45613
 21
6.34422
  0
LINE
  8
0
 10
8.45613
 20
6.34422
 11
8.30373
 21
6.23351
  0
LINE
  8
0
 10
8.30373
 20
6.23351
 11
8.13866
 21
6.14275
  0
LINE
  8
0
 10
8.13866
 20
6.14275
 11
7.96352
 21
6.07341
  0
LINE
  8
0
 10
7.96352
 20
6.07341
 11
7.78107
 21
6.02657
  0
LINE
  8
0
 10
7.78107
 20
6.02657
 11
7.59418
 21
6.00294
  0
LINE
  8
0
 10
7.59418
 20
6.00294
 11
7.40581
 21
6.00294
  0
LINE
  8
0
 10
7.40581
 20
-1.49704
 11
7.21892
 21
-1.47342
  0
LINE
  8
0
 10
7.21892
 20
-1.47342
 11
7.03647
 21
-1.42657
  0
LINE
  8
0
 10
7.03647
 20
-1.42657
 11
6.86133
 21
-1.35724
  0
LINE
  8
0
 10
6.86133
 20
-1.35724
 11
6.69626
 21
-1.26648
  0
LINE
  8
0
 10
6.69626
 20
-1.26648
 11
6.54385
 21
-1.15576
  0
LINE
  8
0
 10
6.54385
 20
-1.15576
 11
6.40654
 21
-1.02681
  0
LINE
  8
0
 10
6.40654
 20
-1.02681
 11
6.28647
 21
-0.881668
  0
LINE
  8
0
 10
6.28647
 20
-0.881668
 11
6.18553
 21
-0.722626
  0
LINE
  8
0
 10
6.18553
 20
-0.722626
 11
6.10533
 21
-0.552185
  0
LINE
  8
0
 10
6.10533
 20
-0.552185
 11
6.04712
 21
-0.373032
  0
LINE
  8
0
 10
6.04712
 20
-0.373032
 11
6.01183
 21
-0.187988
  0
LINE
  8
0
 10
6.01183
 20
-0.187988
 11
6
 21
0
  0
LINE
  8
0
 10
6
 20
0
 11
6.01183
 21
0.187988
  0
LINE
  8
0
 10
6.01183
 20
0.187988
 11
6.04712
 21
0.373032
  0
LINE
  8
0
 10
6.04712
 20
0.373032
 11
6.10533
 21
0.552185
  0
LINE
  8
0
 10
6.10533
 20
0.552185
 11
6.18553
 21
0.722626
  0
LINE
  8
0
 10
6.18553
 20
0.722626
 11
6.28647
 21
0.881668
  0
LINE
  8
0
 10
6.28647
 20
0.881668
 11
6.40654
 21
1.02681
  0
LINE
  8
0
 10
6.40654
 20
1.02681
 11
6.54385
 21
1.15576
  0
LINE
  8
0
 10
6.54385
 20
1.15576
 11
6.69626
 21
1.26648
  0
LINE
  8
0
 10
6.69626
 20
1.26648
 11
6.86133
 21
1.35724
  0
LINE
  8
0
 10
6.86133
 20
1.35724
 11
7.03647
 21
1.42657
  0
LINE
  8
0
 10
7.03647
 20
1.42657
 11
7.21892
 21
1.47342
  0
LINE
  8
0
 10
7.21892
 20
1.47342
 11
7.40581
 21
1.49704
  0
LINE
  8
0
 10
7.40581
 20
1.49704
 11
7.59418
 21
1.49704
  0
LINE
  8
0
 10
7.59418
 20
1.49704
 11
7.78107
 21
1.47342
  0
LINE
  8
0
 10
7.78107
 20
1.47342
 11
7.96352
 21
1.42657
  0
LINE
  8
0
 10
7.96352
 20
1.42657
 11
8.13866
 21
1.35724
  0
LINE
  8
0
 10
8.13866
 20
1.35724
 11
8.30373
 21
1.26648
  0
LINE
  8
0
 10
8.30373
 20
1.26648
 11
8.45613
 21
1.15576
  0
LINE
  8
0
 10
8.45613
 20
1.15576
 11
8.59344
 21
1.02681
  0
LINE
  8
0
 10
8.59344
 20
1.02681
 11
8.71352
 21
0.881668
  0
LINE
  8
0
 10
8.71352
 20
0.881668
 11
8.81445
 21
0.722626
  0
LINE
  8
0
 10
8.81445
 20
0.722626
 11
8.89465
 21
0.552185
  0
LINE
  8
0
 10
8.89465
 20
0.552185
 11
8.95287
 21
0.373032
  0
LINE
  8
0
 10
8.95287
 20
0.373032
 11
8.98816
 21
0.187988
  0
LINE
  8
0
 10
8.98816
 20
0.187988
 11
9
 21
0
  0
LINE
  8
0
 10
9
 20
0
 11
8.98816
 21
-0.187988
  0
LINE
  8
0
 10
8.98816
 20
-0.187988
 11
8.95287
 21
-0.373032
  0
LINE
  8
0
 10
8.95287
 20
-0.373032
 11
8.89465
 21
-0.552185
  0
LINE
  8
0
 10
8.89465
 20
-0.552185
 11
8.81445
 21
-0.722626
  0
LINE
  8
0
 10
8.81445
 20
-0.722626
 11
8.71352
 21
-0.881668
  0
LINE
  8
0
 10
8.71352
 20
-0.881668
 11
8.59344
 21
-1.02681
  0
LINE
  8
0
 10
8.59344
 20
-1.02681
 11
8.45613
 21
-1.15576
  0
LINE
  8
0
 10
8.45613
 20
-1.15576
 11
8.30373
 21
-1.26648
  0
LINE
  8
0
 10
8.30373
 20
-1.26648
 11
8.13866
 21
-1.35724
  0
LINE
  8
0
 10
8.13866
 20
-1.35724
 11
7.96352
 21
-1.42657
  0
LINE
  8
0
 10
7.96352
 20
-1.42657
 11
7.78107
 21
-1.47342
  0
LINE
  8
0
 10
7.78107
 20
-1.47342
 11
7.59418
 21
-1.49704
  0
LINE
  8
0
 10
7.59418
 20
-1.49704
 11
7.40581
 21
-1.49704
  0
LINE
  8
0
 10
-7.59418
 20
-1.49704
 11
-7.78107
 21
-1.47342
  0
LINE
  8
0
 10
-7.78107
 20
-1.47342
 11
-7.96352
 21
-1.42657
  0
LINE
  8
0
 10
-7.96352
 20
-1.42657
 11
-8.13866
 21
-1.35724
  0
LINE
  8
0
 10
-8.13866
 20
-1.35724
 11
-8.30373
 21
-1.26648
  0
LINE
  8
0
 10
-8.30373
 20
-1.26648
 11
-8.45613
 21
-1.15576
  0
LINE
  8
0
 10
-8.45613
 20
-1.15576
 11
-8.59344
 21
-1.02681
  0
LINE
  8
0
 10
-8.59344
 20
-1.02681
 11
-8.71352
 21
-0.881668
  0
LINE
  8
0
 10
-8.71352
 20
-0.881668
 11
-8.81445
 21
-0.722626
  0
LINE
  8
0
 10
-8.81445
 20
-0.722626
 11
-8.89465
 21
-0.552185
  0
LINE
  8
0
 10
-8.89465
 20
-0.552185
 11
-8.95287
 21
-0.373032
  0
LINE
  8
0
 10
-8.95287
 20
-0.373032
 11
-8.98816
 21
-0.187988
  0
LINE
  8
0
 10
-8.98816
 20
-0.187988
 11
-9
 21
0
  0
LINE
  8
0
 10
-9
 20
0
 11
-8.98816
 21
0.187988
  0
LINE
  8
0
 10
-8.98816
 20
0.187988
 11
-8.95287
 21
0.373032
  0
LINE
  8
0
 10
-8.95287
 20
0.373032
 11
-8.89465
 21
0.552185
  0
LINE
  8
0
 10
-8.89465
 20
0.552185
 11
-8.81445
 21
0.722626
  0
LINE
  8
0
 10
-8.81445
 20
0.722626
 11
-8.71352
 21
0.881668
  0
LINE
  8
0
 10
-8.71352
 20
0.881668
 11
-8.59344
 21
1.02681
  0
LINE
  8
0
 10
-8.59344
 20
1.02681
 11
-8.45613
 21
1.15576
  0
LINE
  8
0
 10
-8.45613
 20
1.15576
 11
-8.30373
 21
1.26648
  0
LINE
  8
0
 10
-8.30373
 20
1.26648
 11
-8.13866
 21
1.35724
  0
LINE
  8
0
 10
-8.13866
 20
1.35724
 11
-7.96352
 21
1.42657
  0
LINE
  8
0
 10
-7.96352
 20
1.42657
 11
-7.78107
 21
1.47342
  0
LINE
  8
0
 10
-7.78107
 20
1.47342
 11
-7.59418
 21
1.49704
  0
LINE
  8
0
 10
-7.59418
 20
1.49704
 11
-7.40581
 21
1.49704
  0
LINE
  8
0
 10
-7.40581
 20
1.49704
 11
-7.21892
 21
1.47342
  0
LINE
  8
0
 10
-7.21892
 20
1.47342
 11
-7.03647
 21
1.42657
  0
LINE
  8
0
 10
-7.03647
 20
1.42657
 11
-6.86133
 21
1.35724
  0
LINE
  8
0
 10
-6.86133
 20
1.35724
 11
-6.69626
 21
1.26648
  0
LINE
  8
0
 10
-6.69626
 20
1.26648
 11
-6.54385
 21
1.15576
  0
LINE
  8
0
 10
-6.54385
 20
1.15576
 11
-6.40654
 21
1.02681
  0
LINE
  8
0
 10
-6.40654
 20
1.02681
 11
-6.28647
 21
0.881668
  0
LINE
  8
0
 10
-6.28647
 20
0.881668
 11
-6.18553
 21
0.722626
  0
LINE
  8
0
 10
-6.18553
 20
0.722626
 11
-6.10533
 21
0.552185
  0
LINE
  8
0
 10
-6.10533
 20
0.552185
 11
-6.04712
 21
0.373032
  0
LINE
  8
0
 10
-6.04712
 20
0.373032
 11
-6.01183
 21
0.187988
  0
LINE
  8
0
 10
-6.01183
 20
0.187988
 11
-6
 21
0
  0
LINE
  8
0
 10
-6
 20
0
 11
-6.01183
 21
-0.187988
  0
LINE
  8
0
 10
-6.01183
 20
-0.187988
 11
-6.04712
 21
-0.373032
  0
LINE
  8
0
 10
-6.04712
 20
-0.373032
 11
-6.10533
 21
-0.552185
  0
LINE
  8
0
 10
-6.10533
 20
-0.552185
 11
-6.18553
 21
-0.722626
  0
LINE
  8
0
 10
-6.18553
 20
-0.722626
 11
-6.28647
 21
-0.881668
  0
LINE
  8
0
 10
-6.28647
 20
-0.881668
 11
-6.40654
 21
-1.02681
  0
LINE
  8
0
 10
-6.40654
 20
-1.02681
 11
-6.54385
 21
-1.15576
  0
LINE
  8
0
 10
-6.54385
 20
-1.15576
 11
-6.69626
 21
-1.26648
  0
LINE
  8
0
 10
-6.69626
 20
-1.26648
 11
-6.86133
 21
-1.35724
  0
LINE
  8
0
 10
-6.86133
 20
-1.35724
 11
-7.03647
 21
-1.42657
  0
LINE
  8
0
 10
-7.03647
 20
-1.42657
 11
-7.21892
 21
-1.47342
  0
LINE
  8
0
 10
-7.21892
 20
-1.47342
 11
-7.40581
 21
-1.49704
  0
LINE
  8
0
 10
-7.40581
 20
-1.49704
 11
-7.59418
 21
-1.49704
  0
LINE
  8
0
 10
-0.0941772
 20
-1.49704
 11
-0.281067
 21
-1.47342
  0
LINE
  8
0
 10
-0.281067
 20
-1.47342
 11
-0.463516
 21
-1.42657
  0
LINE
  8
0
 10
-0.463516
 20
-1.42657
 11
-0.638657
 21
-1.35724
  0
LINE
  8
0
 10
-0.638657
 20
-1.35724
 11
-0.803726
 21
-1.26648
  0
LINE
  8
0
 10
-0.803726
 20
-1.26648
 11
-0.956131
 21
-1.15576
  0
LINE
  8
0
 10
-0.956131
 20
-1.15576
 11
-1.09344
 21
-1.02681
  0
LINE
  8
0
 10
-1.09344
 20
-1.02681
 11
-1.21352
 21
-0.881668
  0
LINE
  8
0
 10
-1.21352
 20
-0.881668
 11
-1.31445
 21
-0.722626
  0
LINE
  8
0
 10
-1.31445
 20
-0.722626
 11
-1.39465
 21
-0.552185
  0
LINE
  8
0
 10
-1.39465
 20
-0.552185
 11
-1.45287
 21
-0.373032
  0
LINE
  8
0
 10
-1.45287
 20
-0.373032
 11
-1.48816
 21
-0.187988
  0
LINE
  8
0
 10
-1.48816
 20
-0.187988
 11
-1.5
 21
0
  0
LINE
  8
0
 10
-1.5
 20
0
 11
-1.48816
 21
0.187988
  0
LINE
  8
0
 10
-1.48816
 20
0.187988
 11
-1.45287
 21
0.373032
  0
LINE
  8
0
 10
-1.45287
 20
0.373032
 11
-1.39465
 21
0.552185
  0
LINE
  8
0
 10
-1.39465
 20
0.552185
 11
-1.31445
 21
0.722626
  0
LINE
  8
0
 10
-1.31445
 20
0.722626
 11
-1.21352
 21
0.881668
  0
LINE
  8
0
 10
-1.21352
 20
0.881668
 11
-1.09344
 21
1.02681
  0
LINE
  8
0
 10
-1.09344
 20
1.02681
 11
-0.956131
 21
1.15576
  0
LINE
  8
0
 10
-0.956131
 20
1.15576
 11
-0.803726
 21
1.26648
  0
LINE
  8
0
 10
-0.803726
 20
1.26648
 11
-0.638657
 21
1.35724
  0
LINE
  8
0
 10
-0.638657
 20
1.35724
 11
-0.463516
 21
1.42657
  0
LINE
  8
0
 10
-0.463516
 20
1.42657
 11
-0.281067
 21
1.47342
  0
LINE
  8
0
 10
-0.281067
 20
1.47342
 11
-0.0941772
 21
1.49704
  0
LINE
  8
0
 10
-0.0941772
 20
1.49704
 11
0.0941772
 21
1.49704
  0
LINE
  8
0
 10
0.0941772
 20
1.49704
 11
0.281067
 21
1.47342
  0
LINE
  8
0
 10
0.281067
 20
1.47342
 11
0.463516
 21
1.42657
  0
LINE
  8
0
 10
0.463516
 20
1.42657
 11
0.638657
 21
1.35724
  0
LINE
  8
0
 10
0.638657
 20
1.35724
 11
0.803726
 21
1.26648
  0
LINE
  8
0
 10
0.803726
 20
1.26648
 11
0.956131
 21
1.15576
  0
LINE
  8
0
 10
0.956131
 20
1.15576
 11
1.09344
 21
1.02681
  0
LINE
  8
0
 10
1.09344
 20
1.02681
 11
1.21352
 21
0.881668
  0
LINE
  8
0
 10
1.21352
 20
0.881668
 11
1.31445
 21
0.722626
  0
LINE
  8
0
 10
1.31445
 20
0.722626
 11
1.39465
 21
0.552185
  0
LINE
  8
0
 10
1.39465
 20
0.552185
 11
1.45287
 21
0.373032
  0
LINE
  8
0
 10
1.45287
 20
0.373032
 11
1.48816
 21
0.187988
  0
LINE
  8
0
 10
1.48816
 20
0.187988
 11
1.5
 21
0
  0
LINE
  8
0
 10
1.5
 20
0
 11
1.48816
 21
-0.187988
  0
LINE
  8
0
 10
1.48816
 20
-0.187988
 11
1.45287
 21
-0.373032
  0
LINE
  8
0
 10
1.45287
 20
-0.373032
 11
1.39465
 21
-0.552185
  0
LINE
  8
0
 10
1.39465
 20
-0.552185
 11
1.31445
 21
-0.722626
  0
LINE
  8
0
 10
1.31445
 20
-0.722626
 11
1.21352
 21
-0.881668
  0
LINE
  8
0
 10
1.21352
 20
-0.881668
 11
1.09344
 21
-1.02681
  0
LINE
  8
0
 10
1.09344
 20
-1.02681
 11
0.956131
 21
-1.15576
  0
LINE
  8
0
 10
0.956131
 20
-1.15576
 11
0.803726
 21
-1.26648
  0
LINE
  8
0
 10
0.803726
 20
-1.26648
 11
0.638657
 21
-1.35724
  0
LINE
  8
0
 10
0.638657
 20
-1.35724
 11
0.463516
 21
-1.42657
  0
LINE
  8
0
 10
0.463516
 20
-1.42657
 11
0.281067
 21
-1.47342
  0
LINE
  8
0
 10
0.281067
 20
-1.47342
 11
0.0941772
 21
-1.49704
  0
LINE
  8
0
 10
0.0941772
 20
-1.49704
 11
-0.0941772
 21
-1.49704
  0
LINE
  8
0
 10
7.40581
 20
-8.99704
 11
7.21892
 21
-8.97342
  0
LINE
  8
0
 10
7.21892
 20
-8.97342
 11
7.03647
 21
-8.92657
  0
LINE
  8
0
 10
7.03647
 20
-8.92657
 11
6.86133
 21
-8.85724
  0
LINE
  8
0
 10
6.86133
 20
-8.85724
 11
6.69626
 21
-8.76648
  0
LINE
  8
0
 10
6.69626
 20
-8.76648
 11
6.54385
 21
-8.65576
  0
LINE
  8
0
 10
6.54385
 20
-8.65576
 11
6.40654
 21
-8.52681
  0
LINE
  8
0
 10
6.40654
 20
-8.52681
 11
6.28647
 21
-8.38167
  0
LINE
  8
0
 10
6.28647
 20
-8.38167
 11
6.18553
 21
-8.22263
  0
LINE
  8
0
 10
6.18553
 20
-8.22263
 11
6.10533
 21
-8.05219
  0
LINE
  8
0
 10
6.10533
 20
-8.05219
 11
6.04712
 21
-7.87303
  0
LINE
  8
0
 10
6.04712
 20
-7.87303
 11
6.01183
 21
-7.68799
  0
LINE
  8
0
 10
6.01183
 20
-7.68799
 11
6
 21
-7.5
  0
LINE
  8
0
 10
6
 20
-7.5
 11
6.01183
 21
-7.312
  0
LINE
  8
0
 10
6.01183
 20
-7.312
 11
6.04712
 21
-7.12695
  0
LINE
  8
0
 10
6.04712
 20
-7.12695
 11
6.10533
 21
-6.9478
  0
LINE
  8
0
 10
6.10533
 20
-6.9478
 11
6.18553
 21
-6.77736
  0
LINE
  8
0
 10
6.18553
 20
-6.77736
 11
6.28647
 21
-6.61832
  0
LINE
  8
0
 10
6.28647
 20
-6.61832
 11
6.40654
 21
-6.47318
  0
LINE
  8
0
 10
6.40654
 20
-6.47318
 11
6.54385
 21
-6.34422
  0
LINE
  8
0
 10
6.54385
 20
-6.34422
 11
6.69626
 21
-6.23351
  0
LINE
  8
0
 10
6.69626
 20
-6.23351
 11
6.86133
 21
-6.14275
  0
LINE
  8
0
 10
6.86133
 20
-6.14275
 11
7.03647
 21
-6.07341
  0
LINE
  8
0
 10
7.03647
 20
-6.07341
 11
7.21892
 21
-6.02657
  0
LINE
  8
0
 10
7.21892
 20
-6.02657
 11
7.40581
 21
-6.00294
  0
LINE
  8
0
 10
7.40581
 20
-6.00294
 11
7.59418
 21
-6.00294
  0
LINE
  8
0
 10
7.59418
 20
-6.00294
 11
7.78107
 21
-6.02657
  0
LINE
  8
0
 10
7.78107
 20
-6.02657
 11
7.96352
 21
-6.07341
  0
LINE
  8
0
 10
7.96352
 20
-6.07341
 11
8.13866
 21
-6.14275
  0
LINE
  8
0
 10
8.13866
 20
-6.14275
 11
8.30373
 21
-6.23351
  0
LINE
  8
0
 10
8.30373
 20
-6.23351
 11
8.45613
 21
-6.34422
  0
LINE
  8
0
 10
8.45613
 20
-6.34422
 11
8.59344
 21
-6.47318
  0
LINE
  8
0
 10
8.59344
 20
-6.47318
 11
8.71352
 21
-6.61832
  0
LINE
  8
0
 10
8.71352
 20
-6.61832
 11
8.81445
 21
-6.77736
  0
LINE
  8
0
 10
8.81445
 20
-6.77736
 11
8.89465
 21
-6.9478
  0
LINE
  8
0
 10
8.89465
 20
-6.9478
 11
8.95287
 21
-7.12695
  0
LINE
  8
0
 10
8.95287
 20
-7.12695
 11
8.98816
 21
-7.312
  0
LINE
  8
0
 10
8.98816
 20
-7.312
 11
9
 21
-7.5
  0
LINE
  8
0
 10
9
 20
-7.5
 11
8.98816
 21
-7.68799
  0
LINE
  8
0
 10
8.98816
 20
-7.68799
 11
8.95287
 21
-7.87303
  0
LINE
  8
0
 10
8.95287
 20
-7.87303
 11
8.89465
 21
-8.05219
  0
LINE
  8
0
 10
8.89465
 20
-8.05219
 11
8.81445
 21
-8.22263
  0
LINE
  8
0
 10
8.81445
 20
-8.22263
 11
8.71352
 21
-8.38167
  0
LINE
  8
0
 10
8.71352
 20
-8.38167
 11
8.59344
 21
-8.52681
  0
LINE
  8
0
 10
8.59344
 20
-8.52681
 11
8.45613
 21
-8.65576
  0
LINE
  8
0
 10
8.45613
 20
-8.65576
 11
8.30373
 21
-8.76648
  0
LINE
  8
0
 10
8.30373
 20
-8.76648
 11
8.13866
 21
-8.85724
  0
LINE
  8
0
 10
8.13866
 20
-8.85724
 11
7.96352
 21
-8.92657
  0
LINE
  8
0
 10
7.96352
 20
-8.92657
 11
7.78107
 21
-8.97342
  0
LINE
  8
0
 10
7.78107
 20
-8.97342
 11
7.59418
 21
-8.99704
  0
LINE
  8
0
 10
7.59418
 20
-8.99704
 11
7.40581
 21
-8.99704
  0
LINE
  8
0
 10
-0.0941772
 20
-8.99704
 11
-0.281067
 21
-8.97342
  0
LINE
  8
0
 10
-0.281067
 20
-8.97342
 11
-0.463516
 21
-8.92657
  0
LINE
  8
0
 10
-0.463516
 20
-8.92657
 11
-0.638657
 21
-8.85724
  0
LINE
  8
0
 10
-0.638657
 20
-8.85724
 11
-0.803726
 21
-8.76648
  0
LINE
  8
0
 10
-0.803726
 20
-8.76648
 11
-0.956131
 21
-8.65576
  0
LINE
  8
0
 10
-0.956131
 20
-8.65576
 11
-1.09344
 21
-8.52681
  0
LINE
  8
0
 10
-1.09344
 20
-8.52681
 11
-1.21352
 21
-8.38167
  0
LINE
  8
0
 10
-1.21352
 20
-8.38167
 11
-1.31445
 21
-8.22263
  0
LINE
  8
0
 10
-1.31445
 20
-8.22263
 11
-1.39465
 21
-8.05219
  0
LINE
  8
0
 10
-1.39465
 20
-8.05219
 11
-1.45287
 21
-7.87303
  0
LINE
  8
0
 10
-1.45287
 20
-7.87303
 11
-1.48816
 21
-7.68799
  0
LINE
  8
0
 10
-1.48816
 20
-7.68799
 11
-1.5
 21
-7.5
  0
LINE
  8
0
 10
-1.5
 20
-7.5
 11
-1.48816
 21
-7.312
  0
LINE
  8
0
 10
-1.48816
 20
-7.312
 11
-1.45287
 21
-7.12695
  0
LINE
  8
0
 10
-1.45287
 20
-7.12695
 11
-1.39465
 21
-6.9478
  0
LINE
  8
0
 10
-1.39465
 20
-6.9478
 11
-1.31445
 21
-6.77736
  0
LINE
  8
0
 10
-1.31445
 20
-6.77736
 11
-1.21352
 21
-6.61832
  0
LINE
  8
0
 10
-1.21352
 20
-6.61832
 11
-1.09344
 21
-6.47318
  0
LINE
  8
0
 10
-1.09344
 20
-6.47318
 11
-0.956131
 21
-6.34422
  0
LINE
  8
0
 10
-0.956131
 20
-6.34422
 11
-0.803726
 21
-6.23351
  0
LINE
  8
0
 10
-0.803726
 20
-6.23351
 11
-0.638657
 21
-6.14275
  0
LINE
  8
0
 10
-0.638657
 20
-6.14275
 11
-0.463516
 21
-6.07341
  0
LINE
  8
0
 10
-0.463516
 20
-6.07341
 11
-0.281067
 21
-6.02657
  0
LINE
  8
0
 10
-0.281067
 20
-6.02657
 11
-0.0941772
 21
-6.00294
  0
LINE
  8
0
 10
-0.0941772
 20
-6.00294
 11
0.0941772
 21
-6.00294
  0
LINE
  8
0
 10
0.0941772
 20
-6.00294
 11
0.281067
 21
-6.02657
  0
LINE
  8
0
 10
0.281067
 20
-6.02657
 11
0.463516
 21
-6.07341
  0
LINE
  8
0
 10
0.463516
 20
-6.07341
 11
0.638657
 21
-6.14275
  0
LINE
  8
0
 10
0.638657
 20
-6.14275
 11
0.803726
 21
-6.23351
  0
LINE
  8
0
 10
0.803726
 20
-6.23351
 11
0.956131
 21
-6.34422
  0
LINE
  8
0
 10
0.956131
 20
-6.34422
 11
1.09344
 21
-6.47318
  0
LINE
  8
0
 10
1.09344
 20
-6.47318
 11
1.21352
 21
-6.61832
  0
LINE
  8
0
 10
1.21352
 20
-6.61832
 11
1.31445
 21
-6.77736
  0
LINE
  8
0
 10
1.31445
 20
-6.77736
 11
1.39465
 21
-6.9478
  0
LINE
  8
0
 10
1.39465
 20
-6.9478
 11
1.45287
 21
-7.12695
  0
LINE
  8
0
 10
1.45287
 20
-7.12695
 11
1.48816
 21
-7.312
  0
LINE
  8
0
 10
1.48816
 20
-7.312
 11
1.5
 21
-7.5
  0
LINE
  8
0
 10
1.5
 20
-7.5
 11
1.48816
 21
-7.68799
  0
LINE
  8
0
 10
1.48816
 20
-7.68799
 11
1.45287
 21
-7.87303
  0
LINE
  8
0
 10
1.45287
 20
-7.87303
 11
1.39465
 21
-8.05219
  0
LINE
  8
0
 10
1.39465
 20
-8.05219
 11
1.31445
 21
-8.22263
  0
LINE
  8
0
 10
1.31445
 20
-8.22263
 11
1.21352
 21
-8.38167
  0
LINE
  8
0
 10
1.21352
 20
-8.38167
 11
1.09344
 21
-8.52681
  0
LINE
  8
0
 10
1.09344
 20
-8.52681
 11
0.956131
 21
-8.65576
  0
LINE
  8
0
 10
0.956131
 20
-8.65576
 11
0.803726
 21
-8.76648
  0
LINE
  8
0
 10
0.803726
 20
-8.76648
 11
0.638657
 21
-8.85724
  0
LINE
  8
0
 10
0.638657
 20
-8.85724
 11
0.463516
 21
-8.92657
  0
LINE
  8
0
 10
0.463516
 20
-8.92657
 11
0.281067
 21
-8.97342
  0
LINE
  8
0
 10
0.281067
 20
-8.97342
 11
0.0941772
 21
-8.99704
  0
LINE
  8
0
 10
0.0941772
 20
-8.99704
 11
-0.0941772
 21
-8.99704
  0
LINE
  8
0
 10
-7.59418
 20
-8.99704
 11
-7.78107
 21
-8.97342
  0
LINE
  8
0
 10
-7.78107
 20
-8.97342
 11
-7.96352
 21
-8.92657
  0
LINE
  8
0
 10
-7.96352
 20
-8.92657
 11
-8.13866
 21
-8.85724
  0
LINE
  8
0
 10
-8.13866
 20
-8.85724
 11
-8.30373
 21
-8.76648
  0
LINE
  8
0
 10
-8.30373
 20
-8.76648
 11
-8.45613
 21
-8.65576
  0
LINE
  8
0
 10
-8.45613
 20
-8.65576
 11
-8.59344
 21
-8.52681
  0
LINE
  8
0
 10
-8.59344
 20
-8.52681
 11
-8.71352
 21
-8.38167
  0
LINE
  8
0
 10
-8.71352
 20
-8.38167
 11
-8.81445
 21
-8.22263
  0
LINE
  8
0
 10
-8.81445
 20
-8.22263
 11
-8.89465
 21
-8.05219
  0
LINE
  8
0
 10
-8.89465
 20
-8.05219
 11
-8.95287
 21
-7.87303
  0
LINE
  8
0
 10
-8.95287
 20
-7.87303
 11
-8.98816
 21
-7.68799
  0
LINE
  8
0
 10
-8.98816
 20
-7.68799
 11
-9
 21
-7.5
  0
LINE
  8
0
 10
-9
 20
-7.5
 11
-8.98816
 21
-7.312
  0
LINE
  8
0
 10
-8.98816
 20
-7.312
 11
-8.95287
 21
-7.12695
  0
LINE
  8
0
 10
-8.95287
 20
-7.12695
 11
-8.89465
 21
-6.9478
  0
LINE
  8
0
 10
-8.89465
 20
-6.9478
 11
-8.81445
 21
-6.77736
  0
LINE
  8
0
 10
-8.81445
 20
-6.77736
 11
-8.71352
 21
-6.61832
  0
LINE
  8
0
 10
-8.71352
 20
-6.61832
 11
-8.59344
 21
-6.47318
  0
LINE
  8
0
 10
-8.59344
 20
-6.47318
 11
-8.45613
 21
-6.34422
  0
LINE
  8
0
 10
-8.45613
 20
-6.34422
 11
-8.30373
 21
-6.23351
  0
LINE
  8
0
 10
-8.30373
 20
-6.23351
 11
-8.13866
 21
-6.14275
  0
LINE
  8
0
 10
-8.13866
 20
-6.14275
 11
-7.96352
 21
-6.07341
  0
LINE
  8
0
 10
-7.96352
 20
-6.07341
 11
-7.78107
 21
-6.02657
  0
LINE
  8
0
 10
-7.78107
 20
-6.02657
 11
-7.59418
 21
-6.00294
  0
LINE
  8
0
 10
-7.59418
 20
-6.00294
 11
-7.40581
 21
-6.00294
  0
LINE
  8
0
 10
-7.40581
 20
-6.00294
 11
-7.21892
 21
-6.02657
  0
LINE
  8
0
 10
-7.21892
 20
-6.02657
 11
-7.03647
 21
-6.07341
  0
LINE
  8
0
 10
-7.03647
 20
-6.07341
 11
-6.86133
 21
-6.14275
  0
LINE
  8
0
 10
-6.86133
 20
-6.14275
 11
-6.69626
 21
-6.23351
  0
LINE
  8
0
 10
-6.69626
 20
-6.23351
 11
-6.54385
 21
-6.34422
  0
LINE
  8
0
 10
-6.54385
 20
-6.34422
 11
-6.40654
 21
-6.47318
  0
LINE
  8
0
 10
-6.40654
 20
-6.47318
 11
-6.28647
 21
-6.61832
  0
LINE
  8
0
 10
-6.28647
 20
-6.61832
 11
-6.18553
 21
-6.77736
  0
LINE
  8
0
 10
-6.18553
 20
-6.77736
 11
-6.10533
 21
-6.9478
  0
LINE
  8
0
 10
-6.10533
 20
-6.9478
 11
-6.04712
 21
-7.12695
  0
LINE
  8
0
 10
-6.04712
 20
-7.12695
 11
-6.01183
 21
-7.312
  0
LINE
  8
0
 10
-6.01183
 20
-7.312
 11
-6
 21
-7.5
  0
LINE
  8
0
 10
-6
 20
-7.5
 11
-6.01183
 21
-7.68799
  0
LINE
  8
0
 10
-6.01183
 20
-7.68799
 11
-6.04712
 21
-7.87303
  0
LINE
  8
0
 10
-6.04712
 20
-7.87303
 11
-6.10533
 21
-8.05219
  0
LINE
  8
0
 10
-6.10533
 20
-8.05219
 11
-6.18553
 21
-8.22263
  0
LINE
  8
0
 10
-6.18553
 20
-8.22263
 11
-6.28647
 21
-8.38167
  0
LINE
  8
0
 10
-6.28647
 20
-8.38167
 11
-6.40654
 21
-8.52681
  0
LINE
  8
0
 10
-6.40654
 20
-8.52681
 11
-6.54385
 21
-8.65576
  0
LINE
  8
0
 10
-6.54385
 20
-8.65576
 11
-6.69626
 21
-8.76648
  0
LINE
  8
0
 10
-6.69626
 20
-8.76648
 11
-6.86133
 21
-8.85724
  0
LINE
  8
0
 10
-6.86133
 20
-8.85724
 11
-7.03647
 21
-8.92657
  0
LINE
  8
0
 10
-7.03647
 20
-8.92657
 11
-7.21892
 21
-8.97342
  0
LINE
  8
0
 10
-7.21892
 20
-8.97342
 11
-7.40581
 21
-8.99704
  0
LINE
  8
0
 10
-7.40581
 20
-8.99704
 11
-7.59418
 21
-8.99704
  0
ENDSEC
  0
SECTION
  2
OBJECTS
  0
DICTIONARY
  0
ENDSEC
  0
EOF
