<?xml version="1.0" standalone="no"?>
<!DOCTYPE svg PUBLIC "-//W3C//DTD SVG 1.1//EN" "http://www.w3.org/Graphics/SVG/1.1/DTD/svg11.dtd">
<svg width="22mm" height="22mm" viewBox="-11 -11 22 22" xmlns="http://www.w3.org/2000/svg" version="1.1">
<title>OpenSCAD Model</title>
<path d="
M 8.96844,10.9557 L 9.27254,10.8776 L 9.56444,10.7621 L 9.83955,10.6108 L 10.0936,10.4263 L 10.3224,10.2114
 L 10.5225,9.96945 L 10.6908,9.70438 L 10.8244,9.4203 L 10.9214,9.12172 L 10.9803,8.81332 L 11,8.5
 L 11,-8.5 L 10.9803,-8.81332 L 10.9214,-9.12172 L 10.8244,-9.4203 L 10.6908,-9.70438 L 10.5225,-9.96945
 L 10.3224,-10.2114 L 10.0936,-10.4263 L 9.83955,-10.6108 L 9.56444,-10.7621 L 9.27254,-10.8776 L 8.96844,-10.9557
 L 8.65697,-10.9951 L -8.65697,-10.9951 L -8.96844,-10.9557 L -9.27254,-10.8776 L -9.56444,-10.7621 L -9.83955,-10.6108
 L -10.0936,-10.4263 L -10.3224,-10.2114 L -10.5225,-9.96945 L -10.6908,-9.70438 L -10.8244,-9.4203 L -10.9214,-9.12172
 L -10.9803,-8.81332 L -11,-8.5 L -11,8.5 L -10.9803,8.81332 L -10.9214,9.12172 L -10.8244,9.4203
 L -10.6908,9.70438 L -10.5225,9.96945 L -10.3224,10.2114 L -10.0936,10.4263 L -9.83955,10.6108 L -9.56444,10.7621
 L -9.27254,10.8776 L -8.96844,10.9557 L -8.65697,10.9951 L 8.65697,10.9951 z
M -7.59418,-6.00294 L -7.78107,-6.02657 L -7.96352,-6.07341 L -8.13866,-6.14275 L -8.30373,-6.23351 L -8.45613,-6.34422
 L -8.59344,-6.47318 L -8.71352,-6.61832 L -8.81445,-6.77736 L -8.89465,-6.9478 L -8.95287,-7.12695 L -8.98816,-7.312
 L -9,-7.5 L -8.98816,-7.68799 L -8.95287,-7.87303 L -8.89465,-8.05219 L -8.81445,-8.22263 L -8.71352,-8.38167
 L -8.59344,-8.52681 L -8.45613,-8.65576 L -8.30373,-8.76648 L -8.13866,-8.85724 L -7.96352,-8.92657 L -7.78107,-8.97342
 L -7.59418,-8.99704 L -7.40581,-8.99704 L -7.21892,-8.97342 L -7.03647,-8.92657 L -6.86133,-8.85724 L -6.69626,-8.76648
 L -6.54385,-8.65576 L -6.40654,-8.52681 L -6.28647,-8.38167 L -6.18553,-8.22263 L -6.10533,-8.05219 L -6.04712,-7.87303
 L -6.01183,-7.68799 L -6,-7.5 L -6.01183,-7.312 L -6.04712,-7.12695 L -6.10533,-6.9478 L -6.18553,-6.77736
 L -6.28647,-6.61832 L -6.40654,-6.47318 L -6.54385,-6.34422 L -6.69626,-6.23351 L -6.86133,-6.14275 L -7.03647,-6.07341
 L -7.21892,-6.02657 L -7.40581,-6.00294 z
M -0.0941772,-6.00294 L -0.281067,-6.02657 L -0.463516,-6.07341 L -0.638657,-6.14275 L -0.803726,-6.23351 L -0.956131,-6.34422
 L -1.09344,-6.47318 L -1.21352,-6.61832 L -1.31445,-6.77736 L -1.39465,-6.9478 L -1.45287,-7.12695 L -1.48816,-7.312
 L -1.5,-7.5 L -1.48816,-7.68799 L -1.45287,-7.87303 L -1.39465,-8.05219 L -1.31445,-8.22263 L -1.21352,-8.38167
 L -1.09344,-8.52681 L -0.956131,-8.65576 L -0.803726,-8.76648 L -0.638657,-8.85724 L -0.463516,-8.92657 L -0.281067,-8.97342
 L -0.0941772,-8.99704 L 0.0941772,-8.99704 L 0.281067,-8.97342 L 0.463516,-8.92657 L 0.638657,-8.85724 L 0.803726,-8.76648
 L 0.956131,-8.65576 L 1.09344,-8.52681 L 1.21352,-8.38167 L 1.31445,-8.22263 L 1.39465,-8.05219 L 1.45287,-7.87303
 L 1.48816,-7.68799 L 1.5,-7.5 L 1.48816,-7.312 L 1.45287,-7.12695 L 1.39465,-6.9478 L 1.31445,-6.77736
 L 1.21352,-6.61832 L 1.09344,-6.47318 L 0.956131,-6.34422 L 0.803726,-6.23351 L 0.638657,-6.14275 L 0.463516,-6.07341
 L 0.281067,-6.02657 L 0.0941772,-6.00294 z
M 7.40581,-6.00294 L 7.21892,-6.02657 L 7.03647,-6.07341 L 6.86133,-6.14275 L 6.69626,-6.23351 L 6.54385,-6.34422
 L 6.40654,-6.47318 L 6.28647,-6.61832 L 6.18553,-6.77736 L 6.10533,-6.9478 L 6.04712,-7.12695 L 6.01183,-7.312
 L 6,-7.5 L 6.01183,-7.68799 L 6.04712,-7.87303 L 6.10533,-8.05219 L 6.18553,-8.22263 L 6.28647,-8.38167
 L 6.40654,-8.52681 L 6.54385,-8.65576 L 6.69626,-8.76648 L 6.86133,-8.85724 L 7.03647,-8.92657 L 7.21892,-8.97342
 L 7.40581,-8.99704 L 7.59418,-8.99704 L 7.78107,-8.97342 L 7.96352,-8.92657 L 8.13866,-8.85724 L 8.30373,-8.76648
 L 8.45613,-8.65576 L 8.59344,-8.52681 L 8.71352,-8.38167 L 8.81445,-8.22263 L 8.89465,-8.05219 L 8.95287,-7.87303
 L 8.98816,-7.68799 L 9,-7.5 L 8.98816,-7.312 L 8.95287,-7.12695 L 8.89465,-6.9478 L 8.81445,-6.77736
 L 8.71352,-6.61832 L 8.59344,-6.47318 L 8.45613,-6.34422 L 8.30373,-6.23351 L 8.13866,-6.14275 L 7.96352,-6.07341
 L 7.78107,-6.02657 L 7.59418,-6.00294 z
M 7.40581,1.49704 L 7.21892,1.47342 L 7.03647,1.42657 L 6.86133,1.35724 L 6.69626,1.26648 L 6.54385,1.15576
 L 6.40654,1.02681 L 6.28647,0.881668 L 6.18553,0.722626 L 6.10533,0.552185 L 6.04712,0.373032 L 6.01183,0.187988
 L 6,-0 L 6.01183,-0.187988 L 6.04712,-0.373032 L 6.10533,-0.552185 L 6.18553,-0.722626 L 6.28647,-0.881668
 L 6.40654,-1.02681 L 6.54385,-1.15576 L 6.69626,-1.26648 L 6.86133,-1.35724 L 7.03647,-1.42657 L 7.21892,-1.47342
 L 7.40581,-1.49704 L 7.59418,-1.49704 L 7.78107,-1.47342 L 7.96352,-1.42657 L 8.13866,-1.35724 L 8.30373,-1.26648
 L 8.45613,-1.15576 L 8.59344,-1.02681 L 8.71352,-0.881668 L 8.81445,-0.722626 L 8.89465,-0.552185 L 8.95287,-0.373032
 L 8.98816,-0.187988 L 9,-0 L 8.98816,0.187988 L 8.95287,0.373032 L 8.89465,0.552185 L 8.81445,0.722626
 L 8.71352,0.881668 L 8.59344,1.02681 L 8.45613,1.15576 L 8.30373,1.26648 L 8.13866,1.35724 L 7.96352,1.42657
 L 7.78107,1.47342 L 7.59418,1.49704 z
M -7.59418,1.49704 L -7.78107,1.47342 L -7.96352,1.42657 L -8.13866,1.35724 L -8.30373,1.26648 L -8.45613,1.15576
 L -8.59344,1.02681 L -8.71352,0.881668 L -8.81445,0.722626 L -8.89465,0.552185 L -8.95287,0.373032 L -8.98816,0.187988
 L -9,-0 L -8.98816,-0.187988 L -8.95287,-0.373032 L -8.89465,-0.552185 L -8.81445,-0.722626 L -8.71352,-0.881668
 L -8.59344,-1.02681 L -8.45613,-1.15576 L -8.30373,-1.26648 L -8.13866,-1.35724 L -7.96352,-1.42657 L -7.78107,-1.47342
 L -7.59418,-1.49704 L -7.40581,-1.49704 L -7.21892,-1.47342 L -7.03647,-1.42657 L -6.86133,-1.35724 L -6.69626,-1.26648
 L -6.54385,-1.15576 L -6.40654,-1.02681 L -6.28647,-0.881668 L -6.18553,-0.722626 L -6.10533,-0.552185 L -6.04712,-0.373032
 L -6.01183,-0.187988 L -6,-0 L -6.01183,0.187988 L -6.04712,0.373032 L -6.10533,0.552185 L -6.18553,0.722626
 L -6.28647,0.881668 L -6.40654,1.02681 L -6.54385,1.15576 L -6.69626,1.26648 L -6.86133,1.35724 L -7.03647,1.42657
 L -7.21892,1.47342 L -7.40581,1.49704 z
M -0.0941772,1.49704 L -0.281067,1.47342 L -0.463516,1.42657 L -0.638657,1.35724 L -0.803726,1.26648 L -0.956131,1.15576
 L -1.09344,1.02681 L -1.21352,0.881668 L -1.31445,0.722626 L -1.39465,0.552185 L -1.45287,0.373032 L -1.48816,0.187988
 L -1.5,-0 L -1.48816,-0.187988 L -1.45287,-0.373032 L -1.39465,-0.552185 L -1.31445,-0.722626 L -1.21352,-0.881668
 L -1.09344,-1.02681 L -0.956131,-1.15576 L -0.803726,-1.26648 L -0.638657,-1.35724 L -0.463516,-1.42657 L -0.281067,-1.47342
 L -0.0941772,-1.49704 L 0.0941772,-1.49704 L 0.281067,-1.47342 L 0.463516,-1.42657 L 0.638657,-1.35724 L 0.803726,-1.26648
 L 0.956131,-1.15576 L 1.09344,-1.02681 L 1.21352,-0.881668 L 1.31445,-0.722626 L 1.39465,-0.552185 L 1.45287,-0.373032
 L 1.48816,-0.187988 L 1.5,-0 L 1.48816,0.187988 L 1.45287,0.373032 L 1.39465,0.552185 L 1.31445,0.722626
 L 1.21352,0.881668 L 1.09344,1.02681 L 0.956131,1.15576 L 0.803726,1.26648 L 0.638657,1.35724 L 0.463516,1.42657
 L 0.281067,1.47342 L 0.0941772,1.49704 z
M 7.40581,8.99704 L 7.21892,8.97342 L 7.03647,8.92657 L 6.86133,8.85724 L 6.69626,8.76648 L 6.54385,8.65576
 L 6.40654,8.52681 L 6.28647,8.38167 L 6.18553,8.22263 L 6.10533,8.05219 L 6.04712,7.87303 L 6.01183,7.68799
 L 6,7.5 L 6.01183,7.312 L 6.04712,7.12695 L 6.10533,6.9478 L 6.18553,6.77736 L 6.28647,6.61832
 L 6.40654,6.47318 L 6.54385,6.34422 L 6.69626,6.23351 L 6.86133,6.14275 L 7.03647,6.07341 L 7.21892,6.02657
 L 7.40581,6.00294 L 7.59418,6.00294 L 7.78107,6.02657 L 7.96352,6.07341 L 8.13866,6.14275 L 8.30373,6.23351
 L 8.45613,6.34422 L 8.59344,6.47318 L 8.71352,6.61832 L 8.81445,6.77736 L 8.89465,6.9478 L 8.95287,7.12695
 L 8.98816,7.312 L 9,7.5 L 8.98816,7.68799 L 8.95287,7.87303 L 8.89465,8.05219 L 8.81445,8.22263
 L 8.71352,8.38167 L 8.59344,8.52681 L 8.45613,8.65576 L 8.30373,8.76648 L 8.13866,8.85724 L 7.96352,8.92657
 L 7.78107,8.97342 L 7.59418,8.99704 z
M -0.0941772,8.99704 L -0.281067,8.97342 L -0.463516,8.92657 L -0.638657,8.85724 L -0.803726,8.76648 L -0.956131,8.65576
 L -1.09344,8.52681 L -1.21352,8.38167 L -1.31445,8.22263 L -1.39465,8.05219 L -1.45287,7.87303 L -1.48816,7.68799
 L -1.5,7.5 L -1.48816,7.312 L -1.45287,7.12695 L -1.39465,6.9478 L -1.31445,6.77736 L -1.21352,6.61832
 L -1.09344,6.47318 L -0.956131,6.34422 L -0.803726,6.23351 L -0.638657,6.14275 L -0.463516,6.07341 L -0.281067,6.02657
 L -0.0941772,6.00294 L 0.0941772,6.00294 L 0.281067,6.02657 L 0.463516,6.07341 L 0.638657,6.14275 L 0.803726,6.23351
 L 0.956131,6.34422 L 1.09344,6.47318 L 1.21352,6.61832 L 1.31445,6.77736 L 1.39465,6.9478 L 1.45287,7.12695
 L 1.48816,7.312 L 1.5,7.5 L 1.48816,7.68799 L 1.45287,7.87303 L 1.39465,8.05219 L 1.31445,8.22263
 L 1.21352,8.38167 L 1.09344,8.52681 L 0.956131,8.65576 L 0.803726,8.76648 L 0.638657,8.85724 L 0.463516,8.92657
 L 0.281067,8.97342 L 0.0941772,8.99704 z
M -7.59418,8.99704 L -7.78107,8.97342 L -7.96352,8.92657 L -8.13866,8.85724 L -8.30373,8.76648 L -8.45613,8.65576
 L -8.59344,8.52681 L -8.71352,8.38167 L -8.81445,8.22263 L -8.89465,8.05219 L -8.95287,7.87303 L -8.98816,7.68799
 L -9,7.5 L -8.98816,7.312 L -8.95287,7.12695 L -8.89465,6.9478 L -8.81445,6.77736 L -8.71352,6.61832
 L -8.59344,6.47318 L -8.45613,6.34422 L -8.30373,6.23351 L -8.13866,6.14275 L -7.96352,6.07341 L -7.78107,6.02657
 L -7.59418,6.00294 L -7.40581,6.00294 L -7.21892,6.02657 L -7.03647,6.07341 L -6.86133,6.14275 L -6.69626,6.23351
 L -6.54385,6.34422 L -6.40654,6.47318 L -6.28647,6.61832 L -6.18553,6.77736 L -6.10533,6.9478 L -6.04712,7.12695
 L -6.01183,7.312 L -6,7.5 L -6.01183,7.68799 L -6.04712,7.87303 L -6.10533,8.05219 L -6.18553,8.22263
 L -6.28647,8.38167 L -6.40654,8.52681 L -6.54385,8.65576 L -6.69626,8.76648 L -6.86133,8.85724 L -7.03647,8.92657
 L -7.21892,8.97342 L -7.40581,8.99704 z
" stroke="black" fill="lightgray" stroke-width="0.5"/>
</svg>
