<?xml version="1.0" standalone="no"?>
<!DOCTYPE svg PUBLIC "-//W3C//DTD SVG 1.1//EN" "http://www.w3.org/Graphics/SVG/1.1/DTD/svg11.dtd">
<svg width="30mm" height="30mm" viewBox="-15 -15 30 30" xmlns="http://www.w3.org/2000/svg" version="1.1">
<title>OpenSCAD Model</title>
<path d="
M 12.7184,14.7057 L 13.0225,14.6276 L 13.3144,14.5121 L 13.5896,14.3608 L 13.8436,14.1763 L 14.0724,13.9614
 L 14.2725,13.7195 L 14.4408,13.4544 L 14.5744,13.1703 L 14.6714,12.8717 L 14.7303,12.5633 L 14.75,12.25
 L 14.75,-12.25 L 14.7303,-12.5633 L 14.6714,-12.8717 L 14.5744,-13.1703 L 14.4408,-13.4544 L 14.2725,-13.7195
 L 14.0724,-13.9614 L 13.8436,-14.1763 L 13.5896,-14.3608 L 13.3144,-14.5121 L 13.0225,-14.6276 L 12.7184,-14.7057
 L 12.407,-14.7451 L -12.407,-14.7451 L -12.7184,-14.7057 L -13.0225,-14.6276 L -13.3144,-14.5121 L -13.5896,-14.3608
 L -13.8436,-14.1763 L -14.0724,-13.9614 L -14.2725,-13.7195 L -14.4408,-13.4544 L -14.5744,-13.1703 L -14.6714,-12.8717
 L -14.7303,-12.5633 L -14.75,-12.25 L -14.75,12.25 L -14.7303,12.5633 L -14.6714,12.8717 L -14.5744,13.1703
 L -14.4408,13.4544 L -14.2725,13.7195 L -14.0724,13.9614 L -13.8436,14.1763 L -13.5896,14.3608 L -13.3144,14.5121
 L -13.0225,14.6276 L -12.7184,14.7057 L -12.407,14.7451 L 12.407,14.7451 z
M -11.3442,-9.75294 L -11.5311,-9.77657 L -11.7135,-9.82341 L -11.8887,-9.89275 L -12.0537,-9.98351 L -12.2061,-10.0942
 L -12.3434,-10.2232 L -12.4635,-10.3683 L -12.5645,-10.5274 L -12.6447,-10.6978 L -12.7029,-10.877 L -12.7382,-11.062
 L -12.75,-11.25 L -12.7382,-11.438 L -12.7029,-11.623 L -12.6447,-11.8022 L -12.5645,-11.9726 L -12.4635,-12.1317
 L -12.3434,-12.2768 L -12.2061,-12.4058 L -12.0537,-12.5165 L -11.8887,-12.6072 L -11.7135,-12.6766 L -11.5311,-12.7234
 L -11.3442,-12.747 L -11.1558,-12.747 L -10.9689,-12.7234 L -10.7865,-12.6766 L -10.6113,-12.6072 L -10.4463,-12.5165
 L -10.2939,-12.4058 L -10.1565,-12.2768 L -10.0365,-12.1317 L -9.93553,-11.9726 L -9.85533,-11.8022 L -9.79712,-11.623
 L -9.76183,-11.438 L -9.75,-11.25 L -9.76183,-11.062 L -9.79712,-10.877 L -9.85533,-10.6978 L -9.93553,-10.5274
 L -10.0365,-10.3683 L -10.1565,-10.2232 L -10.2939,-10.0942 L -10.4463,-9.98351 L -10.6113,-9.89275 L -10.7865,-9.82341
 L -10.9689,-9.77657 L -11.1558,-9.75294 z
M -3.84418,-9.75294 L -4.03107,-9.77657 L -4.21352,-9.82341 L -4.38866,-9.89275 L -4.55373,-9.98351 L -4.70613,-10.0942
 L -4.84344,-10.2232 L -4.96352,-10.3683 L -5.06445,-10.5274 L -5.14465,-10.6978 L -5.20287,-10.877 L -5.23816,-11.062
 L -5.25,-11.25 L -5.23816,-11.438 L -5.20287,-11.623 L -5.14465,-11.8022 L -5.06445,-11.9726 L -4.96352,-12.1317
 L -4.84344,-12.2768 L -4.70613,-12.4058 L -4.55373,-12.5165 L -4.38866,-12.6072 L -4.21352,-12.6766 L -4.03107,-12.7234
 L -3.84418,-12.747 L -3.65581,-12.747 L -3.46892,-12.7234 L -3.28647,-12.6766 L -3.11133,-12.6072 L -2.94626,-12.5165
 L -2.79385,-12.4058 L -2.65654,-12.2768 L -2.53647,-12.1317 L -2.43553,-11.9726 L -2.35533,-11.8022 L -2.29712,-11.623
 L -2.26183,-11.438 L -2.25,-11.25 L -2.26183,-11.062 L -2.29712,-10.877 L -2.35533,-10.6978 L -2.43553,-10.5274
 L -2.53647,-10.3683 L -2.65654,-10.2232 L -2.79385,-10.0942 L -2.94626,-9.98351 L -3.11133,-9.89275 L -3.28647,-9.82341
 L -3.46892,-9.77657 L -3.65581,-9.75294 z
M 3.65581,-9.75294 L 3.46892,-9.77657 L 3.28647,-9.82341 L 3.11133,-9.89275 L 2.94626,-9.98351 L 2.79385,-10.0942
 L 2.65654,-10.2232 L 2.53647,-10.3683 L 2.43553,-10.5274 L 2.35533,-10.6978 L 2.29712,-10.877 L 2.26183,-11.062
 L 2.25,-11.25 L 2.26183,-11.438 L 2.29712,-11.623 L 2.35533,-11.8022 L 2.43553,-11.9726 L 2.53647,-12.1317
 L 2.65654,-12.2768 L 2.79385,-12.4058 L 2.94626,-12.5165 L 3.11133,-12.6072 L 3.28647,-12.6766 L 3.46892,-12.7234
 L 3.65581,-12.747 L 3.84418,-12.747 L 4.03107,-12.7234 L 4.21352,-12.6766 L 4.38866,-12.6072 L 4.55373,-12.5165
 L 4.70613,-12.4058 L 4.84344,-12.2768 L 4.96352,-12.1317 L 5.06445,-11.9726 L 5.14465,-11.8022 L 5.20287,-11.623
 L 5.23816,-11.438 L 5.25,-11.25 L 5.23816,-11.062 L 5.20287,-10.877 L 5.14465,-10.6978 L 5.06445,-10.5274
 L 4.96352,-10.3683 L 4.84344,-10.2232 L 4.70613,-10.0942 L 4.55373,-9.98351 L 4.38866,-9.89275 L 4.21352,-9.82341
 L 4.03107,-9.77657 L 3.84418,-9.75294 z
M 11.1558,-9.75294 L 10.9689,-9.77657 L 10.7865,-9.82341 L 10.6113,-9.89275 L 10.4463,-9.98351 L 10.2939,-10.0942
 L 10.1565,-10.2232 L 10.0365,-10.3683 L 9.93553,-10.5274 L 9.85533,-10.6978 L 9.79712,-10.877 L 9.76183,-11.062
 L 9.75,-11.25 L 9.76183,-11.438 L 9.79712,-11.623 L 9.85533,-11.8022 L 9.93553,-11.9726 L 10.0365,-12.1317
 L 10.1565,-12.2768 L 10.2939,-12.4058 L 10.4463,-12.5165 L 10.6113,-12.6072 L 10.7865,-12.6766 L 10.9689,-12.7234
 L 11.1558,-12.747 L 11.3442,-12.747 L 11.5311,-12.7234 L 11.7135,-12.6766 L 11.8887,-12.6072 L 12.0537,-12.5165
 L 12.2061,-12.4058 L 12.3434,-12.2768 L 12.4635,-12.1317 L 12.5645,-11.9726 L 12.6447,-11.8022 L 12.7029,-11.623
 L 12.7382,-11.438 L 12.75,-11.25 L 12.7382,-11.062 L 12.7029,-10.877 L 12.6447,-10.6978 L 12.5645,-10.5274
 L 12.4635,-10.3683 L 12.3434,-10.2232 L 12.2061,-10.0942 L 12.0537,-9.98351 L 11.8887,-9.89275 L 11.7135,-9.82341
 L 11.5311,-9.77657 L 11.3442,-9.75294 z
M 11.1558,-2.25294 L 10.9689,-2.27657 L 10.7865,-2.32341 L 10.6113,-2.39275 L 10.4463,-2.48351 L 10.2939,-2.59422
 L 10.1565,-2.72318 L 10.0365,-2.86832 L 9.93553,-3.02736 L 9.85533,-3.1978 L 9.79712,-3.37695 L 9.76183,-3.562
 L 9.75,-3.75 L 9.76183,-3.93799 L 9.79712,-4.12303 L 9.85533,-4.30219 L 9.93553,-4.47263 L 10.0365,-4.63167
 L 10.1565,-4.77681 L 10.2939,-4.90576 L 10.4463,-5.01648 L 10.6113,-5.10724 L 10.7865,-5.17657 L 10.9689,-5.22342
 L 11.1558,-5.24704 L 11.3442,-5.24704 L 11.5311,-5.22342 L 11.7135,-5.17657 L 11.8887,-5.10724 L 12.0537,-5.01648
 L 12.2061,-4.90576 L 12.3434,-4.77681 L 12.4635,-4.63167 L 12.5645,-4.47263 L 12.6447,-4.30219 L 12.7029,-4.12303
 L 12.7382,-3.93799 L 12.75,-3.75 L 12.7382,-3.562 L 12.7029,-3.37695 L 12.6447,-3.1978 L 12.5645,-3.02736
 L 12.4635,-2.86832 L 12.3434,-2.72318 L 12.2061,-2.59422 L 12.0537,-2.48351 L 11.8887,-2.39275 L 11.7135,-2.32341
 L 11.5311,-2.27657 L 11.3442,-2.25294 z
M -11.3442,-2.25294 L -11.5311,-2.27657 L -11.7135,-2.32341 L -11.8887,-2.39275 L -12.0537,-2.48351 L -12.2061,-2.59422
 L -12.3434,-2.72318 L -12.4635,-2.86832 L -12.5645,-3.02736 L -12.6447,-3.1978 L -12.7029,-3.37695 L -12.7382,-3.562
 L -12.75,-3.75 L -12.7382,-3.93799 L -12.7029,-4.12303 L -12.6447,-4.30219 L -12.5645,-4.47263 L -12.4635,-4.63167
 L -12.3434,-4.77681 L -12.2061,-4.90576 L -12.0537,-5.01648 L -11.8887,-5.10724 L -11.7135,-5.17657 L -11.5311,-5.22342
 L -11.3442,-5.24704 L -11.1558,-5.24704 L -10.9689,-5.22342 L -10.7865,-5.17657 L -10.6113,-5.10724 L -10.4463,-5.01648
 L -10.2939,-4.90576 L -10.1565,-4.77681 L -10.0365,-4.63167 L -9.93553,-4.47263 L -9.85533,-4.30219 L -9.79712,-4.12303
 L -9.76183,-3.93799 L -9.75,-3.75 L -9.76183,-3.562 L -9.79712,-3.37695 L -9.85533,-3.1978 L -9.93553,-3.02736
 L -10.0365,-2.86832 L -10.1565,-2.72318 L -10.2939,-2.59422 L -10.4463,-2.48351 L -10.6113,-2.39275 L -10.7865,-2.32341
 L -10.9689,-2.27657 L -11.1558,-2.25294 z
M -3.84418,-2.25294 L -4.03107,-2.27657 L -4.21352,-2.32341 L -4.38866,-2.39275 L -4.55373,-2.48351 L -4.70613,-2.59422
 L -4.84344,-2.72318 L -4.96352,-2.86832 L -5.06445,-3.02736 L -5.14465,-3.1978 L -5.20287,-3.37695 L -5.23816,-3.562
 L -5.25,-3.75 L -5.23816,-3.93799 L -5.20287,-4.12303 L -5.14465,-4.30219 L -5.06445,-4.47263 L -4.96352,-4.63167
 L -4.84344,-4.77681 L -4.70613,-4.90576 L -4.55373,-5.01648 L -4.38866,-5.10724 L -4.21352,-5.17657 L -4.03107,-5.22342
 L -3.84418,-5.24704 L -3.65581,-5.24704 L -3.46892,-5.22342 L -3.28647,-5.17657 L -3.11133,-5.10724 L -2.94626,-5.01648
 L -2.79385,-4.90576 L -2.65654,-4.77681 L -2.53647,-4.63167 L -2.43553,-4.47263 L -2.35533,-4.30219 L -2.29712,-4.12303
 L -2.26183,-3.93799 L -2.25,-3.75 L -2.26183,-3.562 L -2.29712,-3.37695 L -2.35533,-3.1978 L -2.43553,-3.02736
 L -2.53647,-2.86832 L -2.65654,-2.72318 L -2.79385,-2.59422 L -2.94626,-2.48351 L -3.11133,-2.39275 L -3.28647,-2.32341
 L -3.46892,-2.27657 L -3.65581,-2.25294 z
M 3.65581,-2.25294 L 3.46892,-2.27657 L 3.28647,-2.32341 L 3.11133,-2.39275 L 2.94626,-2.48351 L 2.79385,-2.59422
 L 2.65654,-2.72318 L 2.53647,-2.86832 L 2.43553,-3.02736 L 2.35533,-3.1978 L 2.29712,-3.37695 L 2.26183,-3.562
 L 2.25,-3.75 L 2.26183,-3.93799 L 2.29712,-4.12303 L 2.35533,-4.30219 L 2.43553,-4.47263 L 2.53647,-4.63167
 L 2.65654,-4.77681 L 2.79385,-4.90576 L 2.94626,-5.01648 L 3.11133,-5.10724 L 3.28647,-5.17657 L 3.46892,-5.22342
 L 3.65581,-5.24704 L 3.84418,-5.24704 L 4.03107,-5.22342 L 4.21352,-5.17657 L 4.38866,-5.10724 L 4.55373,-5.01648
 L 4.70613,-4.90576 L 4.84344,-4.77681 L 4.96352,-4.63167 L 5.06445,-4.47263 L 5.14465,-4.30219 L 5.20287,-4.12303
 L 5.23816,-3.93799 L 5.25,-3.75 L 5.23816,-3.562 L 5.20287,-3.37695 L 5.14465,-3.1978 L 5.06445,-3.02736
 L 4.96352,-2.86832 L 4.84344,-2.72318 L 4.70613,-2.59422 L 4.55373,-2.48351 L 4.38866,-2.39275 L 4.21352,-2.32341
 L 4.03107,-2.27657 L 3.84418,-2.25294 z
M 11.1558,5.24704 L 10.9689,5.22342 L 10.7865,5.17657 L 10.6113,5.10724 L 10.4463,5.01648 L 10.2939,4.90576
 L 10.1565,4.77681 L 10.0365,4.63167 L 9.93553,4.47263 L 9.85533,4.30219 L 9.79712,4.12303 L 9.76183,3.93799
 L 9.75,3.75 L 9.76183,3.562 L 9.79712,3.37695 L 9.85533,3.1978 L 9.93553,3.02736 L 10.0365,2.86832
 L 10.1565,2.72318 L 10.2939,2.59422 L 10.4463,2.48351 L 10.6113,2.39275 L 10.7865,2.32341 L 10.9689,2.27657
 L 11.1558,2.25294 L 11.3442,2.25294 L 11.5311,2.27657 L 11.7135,2.32341 L 11.8887,2.39275 L 12.0537,2.48351
 L 12.2061,2.59422 L 12.3434,2.72318 L 12.4635,2.86832 L 12.5645,3.02736 L 12.6447,3.1978 L 12.7029,3.37695
 L 12.7382,3.562 L 12.75,3.75 L 12.7382,3.93799 L 12.7029,4.12303 L 12.6447,4.30219 L 12.5645,4.47263
 L 12.4635,4.63167 L 12.3434,4.77681 L 12.2061,4.90576 L 12.0537,5.01648 L 11.8887,5.10724 L 11.7135,5.17657
 L 11.5311,5.22342 L 11.3442,5.24704 z
M -11.3442,5.24704 L -11.5311,5.22342 L -11.7135,5.17657 L -11.8887,5.10724 L -12.0537,5.01648 L -12.2061,4.90576
 L -12.3434,4.77681 L -12.4635,4.63167 L -12.5645,4.47263 L -12.6447,4.30219 L -12.7029,4.12303 L -12.7382,3.93799
 L -12.75,3.75 L -12.7382,3.562 L -12.7029,3.37695 L -12.6447,3.1978 L -12.5645,3.02736 L -12.4635,2.86832
 L -12.3434,2.72318 L -12.2061,2.59422 L -12.0537,2.48351 L -11.8887,2.39275 L -11.7135,2.32341 L -11.5311,2.27657
 L -11.3442,2.25294 L -11.1558,2.25294 L -10.9689,2.27657 L -10.7865,2.32341 L -10.6113,2.39275 L -10.4463,2.48351
 L -10.2939,2.59422 L -10.1565,2.72318 L -10.0365,2.86832 L -9.93553,3.02736 L -9.85533,3.1978 L -9.79712,3.37695
 L -9.76183,3.562 L -9.75,3.75 L -9.76183,3.93799 L -9.79712,4.12303 L -9.85533,4.30219 L -9.93553,4.47263
 L -10.0365,4.63167 L -10.1565,4.77681 L -10.2939,4.90576 L -10.4463,5.01648 L -10.6113,5.10724 L -10.7865,5.17657
 L -10.9689,5.22342 L -11.1558,5.24704 z
M 3.65581,5.24704 L 3.46892,5.22342 L 3.28647,5.17657 L 3.11133,5.10724 L 2.94626,5.01648 L 2.79385,4.90576
 L 2.65654,4.77681 L 2.53647,4.63167 L 2.43553,4.47263 L 2.35533,4.30219 L 2.29712,4.12303 L 2.26183,3.93799
 L 2.25,3.75 L 2.26183,3.562 L 2.29712,3.37695 L 2.35533,3.1978 L 2.43553,3.02736 L 2.53647,2.86832
 L 2.65654,2.72318 L 2.79385,2.59422 L 2.94626,2.48351 L 3.11133,2.39275 L 3.28647,2.32341 L 3.46892,2.27657
 L 3.65581,2.25294 L 3.84418,2.25294 L 4.03107,2.27657 L 4.21352,2.32341 L 4.38866,2.39275 L 4.55373,2.48351
 L 4.70613,2.59422 L 4.84344,2.72318 L 4.96352,2.86832 L 5.06445,3.02736 L 5.14465,3.1978 L 5.20287,3.37695
 L 5.23816,3.562 L 5.25,3.75 L 5.23816,3.93799 L 5.20287,4.12303 L 5.14465,4.30219 L 5.06445,4.47263
 L 4.96352,4.63167 L 4.84344,4.77681 L 4.70613,4.90576 L 4.55373,5.01648 L 4.38866,5.10724 L 4.21352,5.17657
 L 4.03107,5.22342 L 3.84418,5.24704 z
M -3.84418,5.24704 L -4.03107,5.22342 L -4.21352,5.17657 L -4.38866,5.10724 L -4.55373,5.01648 L -4.70613,4.90576
 L -4.84344,4.77681 L -4.96352,4.63167 L -5.06445,4.47263 L -5.14465,4.30219 L -5.20287,4.12303 L -5.23816,3.93799
 L -5.25,3.75 L -5.23816,3.562 L -5.20287,3.37695 L -5.14465,3.1978 L -5.06445,3.02736 L -4.96352,2.86832
 L -4.84344,2.72318 L -4.70613,2.59422 L -4.55373,2.48351 L -4.38866,2.39275 L -4.21352,2.32341 L -4.03107,2.27657
 L -3.84418,2.25294 L -3.65581,2.25294 L -3.46892,2.27657 L -3.28647,2.32341 L -3.11133,2.39275 L -2.94626,2.48351
 L -2.79385,2.59422 L -2.65654,2.72318 L -2.53647,2.86832 L -2.43553,3.02736 L -2.35533,3.1978 L -2.29712,3.37695
 L -2.26183,3.562 L -2.25,3.75 L -2.26183,3.93799 L -2.29712,4.12303 L -2.35533,4.30219 L -2.43553,4.47263
 L -2.53647,4.63167 L -2.65654,4.77681 L -2.79385,4.90576 L -2.94626,5.01648 L -3.11133,5.10724 L -3.28647,5.17657
 L -3.46892,5.22342 L -3.65581,5.24704 z
M -11.3442,12.747 L -11.5311,12.7234 L -11.7135,12.6766 L -11.8887,12.6072 L -12.0537,12.5165 L -12.2061,12.4058
 L -12.3434,12.2768 L -12.4635,12.1317 L -12.5645,11.9726 L -12.6447,11.8022 L -12.7029,11.623 L -12.7382,11.438
 L -12.75,11.25 L -12.7382,11.062 L -12.7029,10.877 L -12.6447,10.6978 L -12.5645,10.5274 L -12.4635,10.3683
 L -12.3434,10.2232 L -12.2061,10.0942 L -12.0537,9.98351 L -11.8887,9.89275 L -11.7135,9.82341 L -11.5311,9.77657
 L -11.3442,9.75294 L -11.1558,9.75294 L -10.9689,9.77657 L -10.7865,9.82341 L -10.6113,9.89275 L -10.4463,9.98351
 L -10.2939,10.0942 L -10.1565,10.2232 L -10.0365,10.3683 L -9.93553,10.5274 L -9.85533,10.6978 L -9.79712,10.877
 L -9.76183,11.062 L -9.75,11.25 L -9.76183,11.438 L -9.79712,11.623 L -9.85533,11.8022 L -9.93553,11.9726
 L -10.0365,12.1317 L -10.1565,12.2768 L -10.2939,12.4058 L -10.4463,12.5165 L -10.6113,12.6072 L -10.7865,12.6766
 L -10.9689,12.7234 L -11.1558,12.747 z
M 11.1558,12.747 L 10.9689,12.7234 L 10.7865,12.6766 L 10.6113,12.6072 L 10.4463,12.5165 L 10.2939,12.4058
 L 10.1565,12.2768 L 10.0365,12.1317 L 9.93553,11.9726 L 9.85533,11.8022 L 9.79712,11.623 L 9.76183,11.438
 L 9.75,11.25 L 9.76183,11.062 L 9.79712,10.877 L 9.85533,10.6978 L 9.93553,10.5274 L 10.0365,10.3683
 L 10.1565,10.2232 L 10.2939,10.0942 L 10.4463,9.98351 L 10.6113,9.89275 L 10.7865,9.82341 L 10.9689,9.77657
 L 11.1558,9.75294 L 11.3442,9.75294 L 11.5311,9.77657 L 11.7135,9.82341 L 11.8887,9.89275 L 12.0537,9.98351
 L 12.2061,10.0942 L 12.3434,10.2232 L 12.4635,10.3683 L 12.5645,10.5274 L 12.6447,10.6978 L 12.7029,10.877
 L 12.7382,11.062 L 12.75,11.25 L 12.7382,11.438 L 12.7029,11.623 L 12.6447,11.8022 L 12.5645,11.9726
 L 12.4635,12.1317 L 12.3434,12.2768 L 12.2061,12.4058 L 12.0537,12.5165 L 11.8887,12.6072 L 11.7135,12.6766
 L 11.5311,12.7234 L 11.3442,12.747 z
M 3.65581,12.747 L 3.46892,12.7234 L 3.28647,12.6766 L 3.11133,12.6072 L 2.94626,12.5165 L 2.79385,12.4058
 L 2.65654,12.2768 L 2.53647,12.1317 L 2.43553,11.9726 L 2.35533,11.8022 L 2.29712,11.623 L 2.26183,11.438
 L 2.25,11.25 L 2.26183,11.062 L 2.29712,10.877 L 2.35533,10.6978 L 2.43553,10.5274 L 2.53647,10.3683
 L 2.65654,10.2232 L 2.79385,10.0942 L 2.94626,9.98351 L 3.11133,9.89275 L 3.28647,9.82341 L 3.46892,9.77657
 L 3.65581,9.75294 L 3.84418,9.75294 L 4.03107,9.77657 L 4.21352,9.82341 L 4.38866,9.89275 L 4.55373,9.98351
 L 4.70613,10.0942 L 4.84344,10.2232 L 4.96352,10.3683 L 5.06445,10.5274 L 5.14465,10.6978 L 5.20287,10.877
 L 5.23816,11.062 L 5.25,11.25 L 5.23816,11.438 L 5.20287,11.623 L 5.14465,11.8022 L 5.06445,11.9726
 L 4.96352,12.1317 L 4.84344,12.2768 L 4.70613,12.4058 L 4.55373,12.5165 L 4.38866,12.6072 L 4.21352,12.6766
 L 4.03107,12.7234 L 3.84418,12.747 z
M -3.84418,12.747 L -4.03107,12.7234 L -4.21352,12.6766 L -4.38866,12.6072 L -4.55373,12.5165 L -4.70613,12.4058
 L -4.84344,12.2768 L -4.96352,12.1317 L -5.06445,11.9726 L -5.14465,11.8022 L -5.20287,11.623 L -5.23816,11.438
 L -5.25,11.25 L -5.23816,11.062 L -5.20287,10.877 L -5.14465,10.6978 L -5.06445,10.5274 L -4.96352,10.3683
 L -4.84344,10.2232 L -4.70613,10.0942 L -4.55373,9.98351 L -4.38866,9.89275 L -4.21352,9.82341 L -4.03107,9.77657
 L -3.84418,9.75294 L -3.65581,9.75294 L -3.46892,9.77657 L -3.28647,9.82341 L -3.11133,9.89275 L -2.94626,9.98351
 L -2.79385,10.0942 L -2.65654,10.2232 L -2.53647,10.3683 L -2.43553,10.5274 L -2.35533,10.6978 L -2.29712,10.877
 L -2.26183,11.062 L -2.25,11.25 L -2.26183,11.438 L -2.29712,11.623 L -2.35533,11.8022 L -2.43553,11.9726
 L -2.53647,12.1317 L -2.65654,12.2768 L -2.79385,12.4058 L -2.94626,12.5165 L -3.11133,12.6072 L -3.28647,12.6766
 L -3.46892,12.7234 L -3.65581,12.747 z
" stroke="black" fill="lightgray" stroke-width="0.5"/>
</svg>
