  0
SECTION
  2
BLOCKS
  0
ENDSEC
  0
SECTION
  2
ENTITIES
  0
LINE
  8
0
 10
16.4684
 20
-18.4557
 11
16.7725
 21
-18.3776
  0
LINE
  8
0
 10
16.7725
 20
-18.3776
 11
17.0644
 21
-18.2621
  0
LINE
  8
0
 10
17.0644
 20
-18.2621
 11
17.3396
 21
-18.1108
  0
LINE
  8
0
 10
17.3396
 20
-18.1108
 11
17.5936
 21
-17.9263
  0
LINE
  8
0
 10
17.5936
 20
-17.9263
 11
17.8224
 21
-17.7114
  0
LINE
  8
0
 10
17.8224
 20
-17.7114
 11
18.0225
 21
-17.4695
  0
LINE
  8
0
 10
18.0225
 20
-17.4695
 11
18.1908
 21
-17.2044
  0
LINE
  8
0
 10
18.1908
 20
-17.2044
 11
18.3244
 21
-16.9203
  0
LINE
  8
0
 10
18.3244
 20
-16.9203
 11
18.4214
 21
-16.6217
  0
LINE
  8
0
 10
18.4214
 20
-16.6217
 11
18.4803
 21
-16.3133
  0
LINE
  8
0
 10
18.4803
 20
-16.3133
 11
18.5
 21
-16
  0
LINE
  8
0
 10
18.5
 20
-16
 11
18.5
 21
16
  0
LINE
  8
0
 10
18.5
 20
16
 11
18.4803
 21
16.3133
  0
LINE
  8
0
 10
18.4803
 20
16.3133
 11
18.4214
 21
16.6217
  0
LINE
  8
0
 10
18.4214
 20
16.6217
 11
18.3244
 21
16.9203
  0
LINE
  8
0
 10
18.3244
 20
16.9203
 11
18.1908
 21
17.2044
  0
LINE
  8
0
 10
18.1908
 20
17.2044
 11
18.0225
 21
17.4695
  0
LINE
  8
0
 10
18.0225
 20
17.4695
 11
17.8224
 21
17.7114
  0
LINE
  8
0
 10
17.8224
 20
17.7114
 11
17.5936
 21
17.9263
  0
LINE
  8
0
 10
17.5936
 20
17.9263
 11
17.3396
 21
18.1108
  0
LINE
  8
0
 10
17.3396
 20
18.1108
 11
17.0644
 21
18.2621
  0
LINE
  8
0
 10
17.0644
 20
18.2621
 11
16.7725
 21
18.3776
  0
LINE
  8
0
 10
16.7725
 20
18.3776
 11
16.4684
 21
18.4557
  0
LINE
  8
0
 10
16.4684
 20
18.4557
 11
16.157
 21
18.4951
  0
LINE
  8
0
 10
16.157
 20
18.4951
 11
-16.157
 21
18.4951
  0
LINE
  8
0
 10
-16.157
 20
18.4951
 11
-16.4684
 21
18.4557
  0
LINE
  8
0
 10
-16.4684
 20
18.4557
 11
-16.7725
 21
18.3776
  0
LINE
  8
0
 10
-16.7725
 20
18.3776
 11
-17.0644
 21
18.2621
  0
LINE
  8
0
 10
-17.0644
 20
18.2621
 11
-17.3396
 21
18.1108
  0
LINE
  8
0
 10
-17.3396
 20
18.1108
 11
-17.5936
 21
17.9263
  0
LINE
  8
0
 10
-17.5936
 20
17.9263
 11
-17.8224
 21
17.7114
  0
LINE
  8
0
 10
-17.8224
 20
17.7114
 11
-18.0225
 21
17.4695
  0
LINE
  8
0
 10
-18.0225
 20
17.4695
 11
-18.1908
 21
17.2044
  0
LINE
  8
0
 10
-18.1908
 20
17.2044
 11
-18.3244
 21
16.9203
  0
LINE
  8
0
 10
-18.3244
 20
16.9203
 11
-18.4214
 21
16.6217
  0
LINE
  8
0
 10
-18.4214
 20
16.6217
 11
-18.4803
 21
16.3133
  0
LINE
  8
0
 10
-18.4803
 20
16.3133
 11
-18.5
 21
16
  0
LINE
  8
0
 10
-18.5
 20
16
 11
-18.5
 21
-16
  0
LINE
  8
0
 10
-18.5
 20
-16
 11
-18.4803
 21
-16.3133
  0
LINE
  8
0
 10
-18.4803
 20
-16.3133
 11
-18.4214
 21
-16.6217
  0
LINE
  8
0
 10
-18.4214
 20
-16.6217
 11
-18.3244
 21
-16.9203
  0
LINE
  8
0
 10
-18.3244
 20
-16.9203
 11
-18.1908
 21
-17.2044
  0
LINE
  8
0
 10
-18.1908
 20
-17.2044
 11
-18.0225
 21
-17.4695
  0
LINE
  8
0
 10
-18.0225
 20
-17.4695
 11
-17.8224
 21
-17.7114
  0
LINE
  8
0
 10
-17.8224
 20
-17.7114
 11
-17.5936
 21
-17.9263
  0
LINE
  8
0
 10
-17.5936
 20
-17.9263
 11
-17.3396
 21
-18.1108
  0
LINE
  8
0
 10
-17.3396
 20
-18.1108
 11
-17.0644
 21
-18.2621
  0
LINE
  8
0
 10
-17.0644
 20
-18.2621
 11
-16.7725
 21
-18.3776
  0
LINE
  8
0
 10
-16.7725
 20
-18.3776
 11
-16.4684
 21
-18.4557
  0
LINE
  8
0
 10
-16.4684
 20
-18.4557
 11
-16.157
 21
-18.4951
  0
LINE
  8
0
 10
-16.157
 20
-18.4951
 11
16.157
 21
-18.4951
  0
LINE
  8
0
 10
16.157
 20
-18.4951
 11
16.4684
 21
-18.4557
  0
LINE
  8
0
 10
-7.59418
 20
13.5029
 11
-7.78107
 21
13.5266
  0
LINE
  8
0
 10
-7.78107
 20
13.5266
 11
-7.96352
 21
13.5734
  0
LINE
  8
0
 10
-7.96352
 20
13.5734
 11
-8.13866
 21
13.6427
  0
LINE
  8
0
 10
-8.13866
 20
13.6427
 11
-8.30373
 21
13.7335
  0
LINE
  8
0
 10
-8.30373
 20
13.7335
 11
-8.45613
 21
13.8442
  0
LINE
  8
0
 10
-8.45613
 20
13.8442
 11
-8.59344
 21
13.9732
  0
LINE
  8
0
 10
-8.59344
 20
13.9732
 11
-8.71352
 21
14.1183
  0
LINE
  8
0
 10
-8.71352
 20
14.1183
 11
-8.81445
 21
14.2774
  0
LINE
  8
0
 10
-8.81445
 20
14.2774
 11
-8.89465
 21
14.4478
  0
LINE
  8
0
 10
-8.89465
 20
14.4478
 11
-8.95287
 21
14.627
  0
LINE
  8
0
 10
-8.95287
 20
14.627
 11
-8.98816
 21
14.812
  0
LINE
  8
0
 10
-8.98816
 20
14.812
 11
-9
 21
15
  0
LINE
  8
0
 10
-9
 20
15
 11
-8.98816
 21
15.188
  0
LINE
  8
0
 10
-8.98816
 20
15.188
 11
-8.95287
 21
15.373
  0
LINE
  8
0
 10
-8.95287
 20
15.373
 11
-8.89465
 21
15.5522
  0
LINE
  8
0
 10
-8.89465
 20
15.5522
 11
-8.81445
 21
15.7226
  0
LINE
  8
0
 10
-8.81445
 20
15.7226
 11
-8.71352
 21
15.8817
  0
LINE
  8
0
 10
-8.71352
 20
15.8817
 11
-8.59344
 21
16.0268
  0
LINE
  8
0
 10
-8.59344
 20
16.0268
 11
-8.45613
 21
16.1558
  0
LINE
  8
0
 10
-8.45613
 20
16.1558
 11
-8.30373
 21
16.2665
  0
LINE
  8
0
 10
-8.30373
 20
16.2665
 11
-8.13866
 21
16.3572
  0
LINE
  8
0
 10
-8.13866
 20
16.3572
 11
-7.96352
 21
16.4266
  0
LINE
  8
0
 10
-7.96352
 20
16.4266
 11
-7.78107
 21
16.4734
  0
LINE
  8
0
 10
-7.78107
 20
16.4734
 11
-7.59418
 21
16.497
  0
LINE
  8
0
 10
-7.59418
 20
16.497
 11
-7.40581
 21
16.497
  0
LINE
  8
0
 10
-7.40581
 20
16.497
 11
-7.21892
 21
16.4734
  0
LINE
  8
0
 10
-7.21892
 20
16.4734
 11
-7.03647
 21
16.4266
  0
LINE
  8
0
 10
-7.03647
 20
16.4266
 11
-6.86133
 21
16.3572
  0
LINE
  8
0
 10
-6.86133
 20
16.3572
 11
-6.69626
 21
16.2665
  0
LINE
  8
0
 10
-6.69626
 20
16.2665
 11
-6.54385
 21
16.1558
  0
LINE
  8
0
 10
-6.54385
 20
16.1558
 11
-6.40654
 21
16.0268
  0
LINE
  8
0
 10
-6.40654
 20
16.0268
 11
-6.28647
 21
15.8817
  0
LINE
  8
0
 10
-6.28647
 20
15.8817
 11
-6.18553
 21
15.7226
  0
LINE
  8
0
 10
-6.18553
 20
15.7226
 11
-6.10533
 21
15.5522
  0
LINE
  8
0
 10
-6.10533
 20
15.5522
 11
-6.04712
 21
15.373
  0
LINE
  8
0
 10
-6.04712
 20
15.373
 11
-6.01183
 21
15.188
  0
LINE
  8
0
 10
-6.01183
 20
15.188
 11
-6
 21
15
  0
LINE
  8
0
 10
-6
 20
15
 11
-6.01183
 21
14.812
  0
LINE
  8
0
 10
-6.01183
 20
14.812
 11
-6.04712
 21
14.627
  0
LINE
  8
0
 10
-6.04712
 20
14.627
 11
-6.10533
 21
14.4478
  0
LINE
  8
0
 10
-6.10533
 20
14.4478
 11
-6.18553
 21
14.2774
  0
LINE
  8
0
 10
-6.18553
 20
14.2774
 11
-6.28647
 21
14.1183
  0
LINE
  8
0
 10
-6.28647
 20
14.1183
 11
-6.40654
 21
13.9732
  0
LINE
  8
0
 10
-6.40654
 20
13.9732
 11
-6.54385
 21
13.8442
  0
LINE
  8
0
 10
-6.54385
 20
13.8442
 11
-6.69626
 21
13.7335
  0
LINE
  8
0
 10
-6.69626
 20
13.7335
 11
-6.86133
 21
13.6427
  0
LINE
  8
0
 10
-6.86133
 20
13.6427
 11
-7.03647
 21
13.5734
  0
LINE
  8
0
 10
-7.03647
 20
13.5734
 11
-7.21892
 21
13.5266
  0
LINE
  8
0
 10
-7.21892
 20
13.5266
 11
-7.40581
 21
13.5029
  0
LINE
  8
0
 10
-7.40581
 20
13.5029
 11
-7.59418
 21
13.5029
  0
LINE
  8
0
 10
-0.0941772
 20
13.5029
 11
-0.281067
 21
13.5266
  0
LINE
  8
0
 10
-0.281067
 20
13.5266
 11
-0.463516
 21
13.5734
  0
LINE
  8
0
 10
-0.463516
 20
13.5734
 11
-0.638657
 21
13.6427
  0
LINE
  8
0
 10
-0.638657
 20
13.6427
 11
-0.803726
 21
13.7335
  0
LINE
  8
0
 10
-0.803726
 20
13.7335
 11
-0.956131
 21
13.8442
  0
LINE
  8
0
 10
-0.956131
 20
13.8442
 11
-1.09344
 21
13.9732
  0
LINE
  8
0
 10
-1.09344
 20
13.9732
 11
-1.21352
 21
14.1183
  0
LINE
  8
0
 10
-1.21352
 20
14.1183
 11
-1.31445
 21
14.2774
  0
LINE
  8
0
 10
-1.31445
 20
14.2774
 11
-1.39465
 21
14.4478
  0
LINE
  8
0
 10
-1.39465
 20
14.4478
 11
-1.45287
 21
14.627
  0
LINE
  8
0
 10
-1.45287
 20
14.627
 11
-1.48816
 21
14.812
  0
LINE
  8
0
 10
-1.48816
 20
14.812
 11
-1.5
 21
15
  0
LINE
  8
0
 10
-1.5
 20
15
 11
-1.48816
 21
15.188
  0
LINE
  8
0
 10
-1.48816
 20
15.188
 11
-1.45287
 21
15.373
  0
LINE
  8
0
 10
-1.45287
 20
15.373
 11
-1.39465
 21
15.5522
  0
LINE
  8
0
 10
-1.39465
 20
15.5522
 11
-1.31445
 21
15.7226
  0
LINE
  8
0
 10
-1.31445
 20
15.7226
 11
-1.21352
 21
15.8817
  0
LINE
  8
0
 10
-1.21352
 20
15.8817
 11
-1.09344
 21
16.0268
  0
LINE
  8
0
 10
-1.09344
 20
16.0268
 11
-0.956131
 21
16.1558
  0
LINE
  8
0
 10
-0.956131
 20
16.1558
 11
-0.803726
 21
16.2665
  0
LINE
  8
0
 10
-0.803726
 20
16.2665
 11
-0.638657
 21
16.3572
  0
LINE
  8
0
 10
-0.638657
 20
16.3572
 11
-0.463516
 21
16.4266
  0
LINE
  8
0
 10
-0.463516
 20
16.4266
 11
-0.281067
 21
16.4734
  0
LINE
  8
0
 10
-0.281067
 20
16.4734
 11
-0.0941772
 21
16.497
  0
LINE
  8
0
 10
-0.0941772
 20
16.497
 11
0.0941772
 21
16.497
  0
LINE
  8
0
 10
0.0941772
 20
16.497
 11
0.281067
 21
16.4734
  0
LINE
  8
0
 10
0.281067
 20
16.4734
 11
0.463516
 21
16.4266
  0
LINE
  8
0
 10
0.463516
 20
16.4266
 11
0.638657
 21
16.3572
  0
LINE
  8
0
 10
0.638657
 20
16.3572
 11
0.803726
 21
16.2665
  0
LINE
  8
0
 10
0.803726
 20
16.2665
 11
0.956131
 21
16.1558
  0
LINE
  8
0
 10
0.956131
 20
16.1558
 11
1.09344
 21
16.0268
  0
LINE
  8
0
 10
1.09344
 20
16.0268
 11
1.21352
 21
15.8817
  0
LINE
  8
0
 10
1.21352
 20
15.8817
 11
1.31445
 21
15.7226
  0
LINE
  8
0
 10
1.31445
 20
15.7226
 11
1.39465
 21
15.5522
  0
LINE
  8
0
 10
1.39465
 20
15.5522
 11
1.45287
 21
15.373
  0
LINE
  8
0
 10
1.45287
 20
15.373
 11
1.48816
 21
15.188
  0
LINE
  8
0
 10
1.48816
 20
15.188
 11
1.5
 21
15
  0
LINE
  8
0
 10
1.5
 20
15
 11
1.48816
 21
14.812
  0
LINE
  8
0
 10
1.48816
 20
14.812
 11
1.45287
 21
14.627
  0
LINE
  8
0
 10
1.45287
 20
14.627
 11
1.39465
 21
14.4478
  0
LINE
  8
0
 10
1.39465
 20
14.4478
 11
1.31445
 21
14.2774
  0
LINE
  8
0
 10
1.31445
 20
14.2774
 11
1.21352
 21
14.1183
  0
LINE
  8
0
 10
1.21352
 20
14.1183
 11
1.09344
 21
13.9732
  0
LINE
  8
0
 10
1.09344
 20
13.9732
 11
0.956131
 21
13.8442
  0
LINE
  8
0
 10
0.956131
 20
13.8442
 11
0.803726
 21
13.7335
  0
LINE
  8
0
 10
0.803726
 20
13.7335
 11
0.638657
 21
13.6427
  0
LINE
  8
0
 10
0.638657
 20
13.6427
 11
0.463516
 21
13.5734
  0
LINE
  8
0
 10
0.463516
 20
13.5734
 11
0.281067
 21
13.5266
  0
LINE
  8
0
 10
0.281067
 20
13.5266
 11
0.0941772
 21
13.5029
  0
LINE
  8
0
 10
0.0941772
 20
13.5029
 11
-0.0941772
 21
13.5029
  0
LINE
  8
0
 10
14.9058
 20
13.5029
 11
14.7189
 21
13.5266
  0
LINE
  8
0
 10
14.7189
 20
13.5266
 11
14.5365
 21
13.5734
  0
LINE
  8
0
 10
14.5365
 20
13.5734
 11
14.3613
 21
13.6427
  0
LINE
  8
0
 10
14.3613
 20
13.6427
 11
14.1963
 21
13.7335
  0
LINE
  8
0
 10
14.1963
 20
13.7335
 11
14.0439
 21
13.8442
  0
LINE
  8
0
 10
14.0439
 20
13.8442
 11
13.9065
 21
13.9732
  0
LINE
  8
0
 10
13.9065
 20
13.9732
 11
13.7865
 21
14.1183
  0
LINE
  8
0
 10
13.7865
 20
14.1183
 11
13.6855
 21
14.2774
  0
LINE
  8
0
 10
13.6855
 20
14.2774
 11
13.6053
 21
14.4478
  0
LINE
  8
0
 10
13.6053
 20
14.4478
 11
13.5471
 21
14.627
  0
LINE
  8
0
 10
13.5471
 20
14.627
 11
13.5118
 21
14.812
  0
LINE
  8
0
 10
13.5118
 20
14.812
 11
13.5
 21
15
  0
LINE
  8
0
 10
13.5
 20
15
 11
13.5118
 21
15.188
  0
LINE
  8
0
 10
13.5118
 20
15.188
 11
13.5471
 21
15.373
  0
LINE
  8
0
 10
13.5471
 20
15.373
 11
13.6053
 21
15.5522
  0
LINE
  8
0
 10
13.6053
 20
15.5522
 11
13.6855
 21
15.7226
  0
LINE
  8
0
 10
13.6855
 20
15.7226
 11
13.7865
 21
15.8817
  0
LINE
  8
0
 10
13.7865
 20
15.8817
 11
13.9065
 21
16.0268
  0
LINE
  8
0
 10
13.9065
 20
16.0268
 11
14.0439
 21
16.1558
  0
LINE
  8
0
 10
14.0439
 20
16.1558
 11
14.1963
 21
16.2665
  0
LINE
  8
0
 10
14.1963
 20
16.2665
 11
14.3613
 21
16.3572
  0
LINE
  8
0
 10
14.3613
 20
16.3572
 11
14.5365
 21
16.4266
  0
LINE
  8
0
 10
14.5365
 20
16.4266
 11
14.7189
 21
16.4734
  0
LINE
  8
0
 10
14.7189
 20
16.4734
 11
14.9058
 21
16.497
  0
LINE
  8
0
 10
14.9058
 20
16.497
 11
15.0942
 21
16.497
  0
LINE
  8
0
 10
15.0942
 20
16.497
 11
15.2811
 21
16.4734
  0
LINE
  8
0
 10
15.2811
 20
16.4734
 11
15.4635
 21
16.4266
  0
LINE
  8
0
 10
15.4635
 20
16.4266
 11
15.6387
 21
16.3572
  0
LINE
  8
0
 10
15.6387
 20
16.3572
 11
15.8037
 21
16.2665
  0
LINE
  8
0
 10
15.8037
 20
16.2665
 11
15.9561
 21
16.1558
  0
LINE
  8
0
 10
15.9561
 20
16.1558
 11
16.0934
 21
16.0268
  0
LINE
  8
0
 10
16.0934
 20
16.0268
 11
16.2135
 21
15.8817
  0
LINE
  8
0
 10
16.2135
 20
15.8817
 11
16.3145
 21
15.7226
  0
LINE
  8
0
 10
16.3145
 20
15.7226
 11
16.3947
 21
15.5522
  0
LINE
  8
0
 10
16.3947
 20
15.5522
 11
16.4529
 21
15.373
  0
LINE
  8
0
 10
16.4529
 20
15.373
 11
16.4882
 21
15.188
  0
LINE
  8
0
 10
16.4882
 20
15.188
 11
16.5
 21
15
  0
LINE
  8
0
 10
16.5
 20
15
 11
16.4882
 21
14.812
  0
LINE
  8
0
 10
16.4882
 20
14.812
 11
16.4529
 21
14.627
  0
LINE
  8
0
 10
16.4529
 20
14.627
 11
16.3947
 21
14.4478
  0
LINE
  8
0
 10
16.3947
 20
14.4478
 11
16.3145
 21
14.2774
  0
LINE
  8
0
 10
16.3145
 20
14.2774
 11
16.2135
 21
14.1183
  0
LINE
  8
0
 10
16.2135
 20
14.1183
 11
16.0934
 21
13.9732
  0
LINE
  8
0
 10
16.0934
 20
13.9732
 11
15.9561
 21
13.8442
  0
LINE
  8
0
 10
15.9561
 20
13.8442
 11
15.8037
 21
13.7335
  0
LINE
  8
0
 10
15.8037
 20
13.7335
 11
15.6387
 21
13.6427
  0
LINE
  8
0
 10
15.6387
 20
13.6427
 11
15.4635
 21
13.5734
  0
LINE
  8
0
 10
15.4635
 20
13.5734
 11
15.2811
 21
13.5266
  0
LINE
  8
0
 10
15.2811
 20
13.5266
 11
15.0942
 21
13.5029
  0
LINE
  8
0
 10
15.0942
 20
13.5029
 11
14.9058
 21
13.5029
  0
LINE
  8
0
 10
7.40581
 20
13.5029
 11
7.21892
 21
13.5266
  0
LINE
  8
0
 10
7.21892
 20
13.5266
 11
7.03647
 21
13.5734
  0
LINE
  8
0
 10
7.03647
 20
13.5734
 11
6.86133
 21
13.6427
  0
LINE
  8
0
 10
6.86133
 20
13.6427
 11
6.69626
 21
13.7335
  0
LINE
  8
0
 10
6.69626
 20
13.7335
 11
6.54385
 21
13.8442
  0
LINE
  8
0
 10
6.54385
 20
13.8442
 11
6.40654
 21
13.9732
  0
LINE
  8
0
 10
6.40654
 20
13.9732
 11
6.28647
 21
14.1183
  0
LINE
  8
0
 10
6.28647
 20
14.1183
 11
6.18553
 21
14.2774
  0
LINE
  8
0
 10
6.18553
 20
14.2774
 11
6.10533
 21
14.4478
  0
LINE
  8
0
 10
6.10533
 20
14.4478
 11
6.04712
 21
14.627
  0
LINE
  8
0
 10
6.04712
 20
14.627
 11
6.01183
 21
14.812
  0
LINE
  8
0
 10
6.01183
 20
14.812
 11
6
 21
15
  0
LINE
  8
0
 10
6
 20
15
 11
6.01183
 21
15.188
  0
LINE
  8
0
 10
6.01183
 20
15.188
 11
6.04712
 21
15.373
  0
LINE
  8
0
 10
6.04712
 20
15.373
 11
6.10533
 21
15.5522
  0
LINE
  8
0
 10
6.10533
 20
15.5522
 11
6.18553
 21
15.7226
  0
LINE
  8
0
 10
6.18553
 20
15.7226
 11
6.28647
 21
15.8817
  0
LINE
  8
0
 10
6.28647
 20
15.8817
 11
6.40654
 21
16.0268
  0
LINE
  8
0
 10
6.40654
 20
16.0268
 11
6.54385
 21
16.1558
  0
LINE
  8
0
 10
6.54385
 20
16.1558
 11
6.69626
 21
16.2665
  0
LINE
  8
0
 10
6.69626
 20
16.2665
 11
6.86133
 21
16.3572
  0
LINE
  8
0
 10
6.86133
 20
16.3572
 11
7.03647
 21
16.4266
  0
LINE
  8
0
 10
7.03647
 20
16.4266
 11
7.21892
 21
16.4734
  0
LINE
  8
0
 10
7.21892
 20
16.4734
 11
7.40581
 21
16.497
  0
LINE
  8
0
 10
7.40581
 20
16.497
 11
7.59418
 21
16.497
  0
LINE
  8
0
 10
7.59418
 20
16.497
 11
7.78107
 21
16.4734
  0
LINE
  8
0
 10
7.78107
 20
16.4734
 11
7.96352
 21
16.4266
  0
LINE
  8
0
 10
7.96352
 20
16.4266
 11
8.13866
 21
16.3572
  0
LINE
  8
0
 10
8.13866
 20
16.3572
 11
8.30373
 21
16.2665
  0
LINE
  8
0
 10
8.30373
 20
16.2665
 11
8.45613
 21
16.1558
  0
LINE
  8
0
 10
8.45613
 20
16.1558
 11
8.59344
 21
16.0268
  0
LINE
  8
0
 10
8.59344
 20
16.0268
 11
8.71352
 21
15.8817
  0
LINE
  8
0
 10
8.71352
 20
15.8817
 11
8.81445
 21
15.7226
  0
LINE
  8
0
 10
8.81445
 20
15.7226
 11
8.89465
 21
15.5522
  0
LINE
  8
0
 10
8.89465
 20
15.5522
 11
8.95287
 21
15.373
  0
LINE
  8
0
 10
8.95287
 20
15.373
 11
8.98816
 21
15.188
  0
LINE
  8
0
 10
8.98816
 20
15.188
 11
9
 21
15
  0
LINE
  8
0
 10
9
 20
15
 11
8.98816
 21
14.812
  0
LINE
  8
0
 10
8.98816
 20
14.812
 11
8.95287
 21
14.627
  0
LINE
  8
0
 10
8.95287
 20
14.627
 11
8.89465
 21
14.4478
  0
LINE
  8
0
 10
8.89465
 20
14.4478
 11
8.81445
 21
14.2774
  0
LINE
  8
0
 10
8.81445
 20
14.2774
 11
8.71352
 21
14.1183
  0
LINE
  8
0
 10
8.71352
 20
14.1183
 11
8.59344
 21
13.9732
  0
LINE
  8
0
 10
8.59344
 20
13.9732
 11
8.45613
 21
13.8442
  0
LINE
  8
0
 10
8.45613
 20
13.8442
 11
8.30373
 21
13.7335
  0
LINE
  8
0
 10
8.30373
 20
13.7335
 11
8.13866
 21
13.6427
  0
LINE
  8
0
 10
8.13866
 20
13.6427
 11
7.96352
 21
13.5734
  0
LINE
  8
0
 10
7.96352
 20
13.5734
 11
7.78107
 21
13.5266
  0
LINE
  8
0
 10
7.78107
 20
13.5266
 11
7.59418
 21
13.5029
  0
LINE
  8
0
 10
7.59418
 20
13.5029
 11
7.40581
 21
13.5029
  0
LINE
  8
0
 10
-15.0942
 20
13.5029
 11
-15.2811
 21
13.5266
  0
LINE
  8
0
 10
-15.2811
 20
13.5266
 11
-15.4635
 21
13.5734
  0
LINE
  8
0
 10
-15.4635
 20
13.5734
 11
-15.6387
 21
13.6427
  0
LINE
  8
0
 10
-15.6387
 20
13.6427
 11
-15.8037
 21
13.7335
  0
LINE
  8
0
 10
-15.8037
 20
13.7335
 11
-15.9561
 21
13.8442
  0
LINE
  8
0
 10
-15.9561
 20
13.8442
 11
-16.0934
 21
13.9732
  0
LINE
  8
0
 10
-16.0934
 20
13.9732
 11
-16.2135
 21
14.1183
  0
LINE
  8
0
 10
-16.2135
 20
14.1183
 11
-16.3145
 21
14.2774
  0
LINE
  8
0
 10
-16.3145
 20
14.2774
 11
-16.3947
 21
14.4478
  0
LINE
  8
0
 10
-16.3947
 20
14.4478
 11
-16.4529
 21
14.627
  0
LINE
  8
0
 10
-16.4529
 20
14.627
 11
-16.4882
 21
14.812
  0
LINE
  8
0
 10
-16.4882
 20
14.812
 11
-16.5
 21
15
  0
LINE
  8
0
 10
-16.5
 20
15
 11
-16.4882
 21
15.188
  0
LINE
  8
0
 10
-16.4882
 20
15.188
 11
-16.4529
 21
15.373
  0
LINE
  8
0
 10
-16.4529
 20
15.373
 11
-16.3947
 21
15.5522
  0
LINE
  8
0
 10
-16.3947
 20
15.5522
 11
-16.3145
 21
15.7226
  0
LINE
  8
0
 10
-16.3145
 20
15.7226
 11
-16.2135
 21
15.8817
  0
LINE
  8
0
 10
-16.2135
 20
15.8817
 11
-16.0934
 21
16.0268
  0
LINE
  8
0
 10
-16.0934
 20
16.0268
 11
-15.9561
 21
16.1558
  0
LINE
  8
0
 10
-15.9561
 20
16.1558
 11
-15.8037
 21
16.2665
  0
LINE
  8
0
 10
-15.8037
 20
16.2665
 11
-15.6387
 21
16.3572
  0
LINE
  8
0
 10
-15.6387
 20
16.3572
 11
-15.4635
 21
16.4266
  0
LINE
  8
0
 10
-15.4635
 20
16.4266
 11
-15.2811
 21
16.4734
  0
LINE
  8
0
 10
-15.2811
 20
16.4734
 11
-15.0942
 21
16.497
  0
LINE
  8
0
 10
-15.0942
 20
16.497
 11
-14.9058
 21
16.497
  0
LINE
  8
0
 10
-14.9058
 20
16.497
 11
-14.7189
 21
16.4734
  0
LINE
  8
0
 10
-14.7189
 20
16.4734
 11
-14.5365
 21
16.4266
  0
LINE
  8
0
 10
-14.5365
 20
16.4266
 11
-14.3613
 21
16.3572
  0
LINE
  8
0
 10
-14.3613
 20
16.3572
 11
-14.1963
 21
16.2665
  0
LINE
  8
0
 10
-14.1963
 20
16.2665
 11
-14.0439
 21
16.1558
  0
LINE
  8
0
 10
-14.0439
 20
16.1558
 11
-13.9065
 21
16.0268
  0
LINE
  8
0
 10
-13.9065
 20
16.0268
 11
-13.7865
 21
15.8817
  0
LINE
  8
0
 10
-13.7865
 20
15.8817
 11
-13.6855
 21
15.7226
  0
LINE
  8
0
 10
-13.6855
 20
15.7226
 11
-13.6053
 21
15.5522
  0
LINE
  8
0
 10
-13.6053
 20
15.5522
 11
-13.5471
 21
15.373
  0
LINE
  8
0
 10
-13.5471
 20
15.373
 11
-13.5118
 21
15.188
  0
LINE
  8
0
 10
-13.5118
 20
15.188
 11
-13.5
 21
15
  0
LINE
  8
0
 10
-13.5
 20
15
 11
-13.5118
 21
14.812
  0
LINE
  8
0
 10
-13.5118
 20
14.812
 11
-13.5471
 21
14.627
  0
LINE
  8
0
 10
-13.5471
 20
14.627
 11
-13.6053
 21
14.4478
  0
LINE
  8
0
 10
-13.6053
 20
14.4478
 11
-13.6855
 21
14.2774
  0
LINE
  8
0
 10
-13.6855
 20
14.2774
 11
-13.7865
 21
14.1183
  0
LINE
  8
0
 10
-13.7865
 20
14.1183
 11
-13.9065
 21
13.9732
  0
LINE
  8
0
 10
-13.9065
 20
13.9732
 11
-14.0439
 21
13.8442
  0
LINE
  8
0
 10
-14.0439
 20
13.8442
 11
-14.1963
 21
13.7335
  0
LINE
  8
0
 10
-14.1963
 20
13.7335
 11
-14.3613
 21
13.6427
  0
LINE
  8
0
 10
-14.3613
 20
13.6427
 11
-14.5365
 21
13.5734
  0
LINE
  8
0
 10
-14.5365
 20
13.5734
 11
-14.7189
 21
13.5266
  0
LINE
  8
0
 10
-14.7189
 20
13.5266
 11
-14.9058
 21
13.5029
  0
LINE
  8
0
 10
-14.9058
 20
13.5029
 11
-15.0942
 21
13.5029
  0
LINE
  8
0
 10
-0.0941772
 20
6.00294
 11
-0.281067
 21
6.02657
  0
LINE
  8
0
 10
-0.281067
 20
6.02657
 11
-0.463516
 21
6.07341
  0
LINE
  8
0
 10
-0.463516
 20
6.07341
 11
-0.638657
 21
6.14275
  0
LINE
  8
0
 10
-0.638657
 20
6.14275
 11
-0.803726
 21
6.23351
  0
LINE
  8
0
 10
-0.803726
 20
6.23351
 11
-0.956131
 21
6.34422
  0
LINE
  8
0
 10
-0.956131
 20
6.34422
 11
-1.09344
 21
6.47318
  0
LINE
  8
0
 10
-1.09344
 20
6.47318
 11
-1.21352
 21
6.61832
  0
LINE
  8
0
 10
-1.21352
 20
6.61832
 11
-1.31445
 21
6.77736
  0
LINE
  8
0
 10
-1.31445
 20
6.77736
 11
-1.39465
 21
6.9478
  0
LINE
  8
0
 10
-1.39465
 20
6.9478
 11
-1.45287
 21
7.12695
  0
LINE
  8
0
 10
-1.45287
 20
7.12695
 11
-1.48816
 21
7.312
  0
LINE
  8
0
 10
-1.48816
 20
7.312
 11
-1.5
 21
7.5
  0
LINE
  8
0
 10
-1.5
 20
7.5
 11
-1.48816
 21
7.68799
  0
LINE
  8
0
 10
-1.48816
 20
7.68799
 11
-1.45287
 21
7.87303
  0
LINE
  8
0
 10
-1.45287
 20
7.87303
 11
-1.39465
 21
8.05219
  0
LINE
  8
0
 10
-1.39465
 20
8.05219
 11
-1.31445
 21
8.22263
  0
LINE
  8
0
 10
-1.31445
 20
8.22263
 11
-1.21352
 21
8.38167
  0
LINE
  8
0
 10
-1.21352
 20
8.38167
 11
-1.09344
 21
8.52681
  0
LINE
  8
0
 10
-1.09344
 20
8.52681
 11
-0.956131
 21
8.65576
  0
LINE
  8
0
 10
-0.956131
 20
8.65576
 11
-0.803726
 21
8.76648
  0
LINE
  8
0
 10
-0.803726
 20
8.76648
 11
-0.638657
 21
8.85724
  0
LINE
  8
0
 10
-0.638657
 20
8.85724
 11
-0.463516
 21
8.92657
  0
LINE
  8
0
 10
-0.463516
 20
8.92657
 11
-0.281067
 21
8.97342
  0
LINE
  8
0
 10
-0.281067
 20
8.97342
 11
-0.0941772
 21
8.99704
  0
LINE
  8
0
 10
-0.0941772
 20
8.99704
 11
0.0941772
 21
8.99704
  0
LINE
  8
0
 10
0.0941772
 20
8.99704
 11
0.281067
 21
8.97342
  0
LINE
  8
0
 10
0.281067
 20
8.97342
 11
0.463516
 21
8.92657
  0
LINE
  8
0
 10
0.463516
 20
8.92657
 11
0.638657
 21
8.85724
  0
LINE
  8
0
 10
0.638657
 20
8.85724
 11
0.803726
 21
8.76648
  0
LINE
  8
0
 10
0.803726
 20
8.76648
 11
0.956131
 21
8.65576
  0
LINE
  8
0
 10
0.956131
 20
8.65576
 11
1.09344
 21
8.52681
  0
LINE
  8
0
 10
1.09344
 20
8.52681
 11
1.21352
 21
8.38167
  0
LINE
  8
0
 10
1.21352
 20
8.38167
 11
1.31445
 21
8.22263
  0
LINE
  8
0
 10
1.31445
 20
8.22263
 11
1.39465
 21
8.05219
  0
LINE
  8
0
 10
1.39465
 20
8.05219
 11
1.45287
 21
7.87303
  0
LINE
  8
0
 10
1.45287
 20
7.87303
 11
1.48816
 21
7.68799
  0
LINE
  8
0
 10
1.48816
 20
7.68799
 11
1.5
 21
7.5
  0
LINE
  8
0
 10
1.5
 20
7.5
 11
1.48816
 21
7.312
  0
LINE
  8
0
 10
1.48816
 20
7.312
 11
1.45287
 21
7.12695
  0
LINE
  8
0
 10
1.45287
 20
7.12695
 11
1.39465
 21
6.9478
  0
LINE
  8
0
 10
1.39465
 20
6.9478
 11
1.31445
 21
6.77736
  0
LINE
  8
0
 10
1.31445
 20
6.77736
 11
1.21352
 21
6.61832
  0
LINE
  8
0
 10
1.21352
 20
6.61832
 11
1.09344
 21
6.47318
  0
LINE
  8
0
 10
1.09344
 20
6.47318
 11
0.956131
 21
6.34422
  0
LINE
  8
0
 10
0.956131
 20
6.34422
 11
0.803726
 21
6.23351
  0
LINE
  8
0
 10
0.803726
 20
6.23351
 11
0.638657
 21
6.14275
  0
LINE
  8
0
 10
0.638657
 20
6.14275
 11
0.463516
 21
6.07341
  0
LINE
  8
0
 10
0.463516
 20
6.07341
 11
0.281067
 21
6.02657
  0
LINE
  8
0
 10
0.281067
 20
6.02657
 11
0.0941772
 21
6.00294
  0
LINE
  8
0
 10
0.0941772
 20
6.00294
 11
-0.0941772
 21
6.00294
  0
LINE
  8
0
 10
-15.0942
 20
6.00294
 11
-15.2811
 21
6.02657
  0
LINE
  8
0
 10
-15.2811
 20
6.02657
 11
-15.4635
 21
6.07341
  0
LINE
  8
0
 10
-15.4635
 20
6.07341
 11
-15.6387
 21
6.14275
  0
LINE
  8
0
 10
-15.6387
 20
6.14275
 11
-15.8037
 21
6.23351
  0
LINE
  8
0
 10
-15.8037
 20
6.23351
 11
-15.9561
 21
6.34422
  0
LINE
  8
0
 10
-15.9561
 20
6.34422
 11
-16.0934
 21
6.47318
  0
LINE
  8
0
 10
-16.0934
 20
6.47318
 11
-16.2135
 21
6.61832
  0
LINE
  8
0
 10
-16.2135
 20
6.61832
 11
-16.3145
 21
6.77736
  0
LINE
  8
0
 10
-16.3145
 20
6.77736
 11
-16.3947
 21
6.9478
  0
LINE
  8
0
 10
-16.3947
 20
6.9478
 11
-16.4529
 21
7.12695
  0
LINE
  8
0
 10
-16.4529
 20
7.12695
 11
-16.4882
 21
7.312
  0
LINE
  8
0
 10
-16.4882
 20
7.312
 11
-16.5
 21
7.5
  0
LINE
  8
0
 10
-16.5
 20
7.5
 11
-16.4882
 21
7.68799
  0
LINE
  8
0
 10
-16.4882
 20
7.68799
 11
-16.4529
 21
7.87303
  0
LINE
  8
0
 10
-16.4529
 20
7.87303
 11
-16.3947
 21
8.05219
  0
LINE
  8
0
 10
-16.3947
 20
8.05219
 11
-16.3145
 21
8.22263
  0
LINE
  8
0
 10
-16.3145
 20
8.22263
 11
-16.2135
 21
8.38167
  0
LINE
  8
0
 10
-16.2135
 20
8.38167
 11
-16.0934
 21
8.52681
  0
LINE
  8
0
 10
-16.0934
 20
8.52681
 11
-15.9561
 21
8.65576
  0
LINE
  8
0
 10
-15.9561
 20
8.65576
 11
-15.8037
 21
8.76648
  0
LINE
  8
0
 10
-15.8037
 20
8.76648
 11
-15.6387
 21
8.85724
  0
LINE
  8
0
 10
-15.6387
 20
8.85724
 11
-15.4635
 21
8.92657
  0
LINE
  8
0
 10
-15.4635
 20
8.92657
 11
-15.2811
 21
8.97342
  0
LINE
  8
0
 10
-15.2811
 20
8.97342
 11
-15.0942
 21
8.99704
  0
LINE
  8
0
 10
-15.0942
 20
8.99704
 11
-14.9058
 21
8.99704
  0
LINE
  8
0
 10
-14.9058
 20
8.99704
 11
-14.7189
 21
8.97342
  0
LINE
  8
0
 10
-14.7189
 20
8.97342
 11
-14.5365
 21
8.92657
  0
LINE
  8
0
 10
-14.5365
 20
8.92657
 11
-14.3613
 21
8.85724
  0
LINE
  8
0
 10
-14.3613
 20
8.85724
 11
-14.1963
 21
8.76648
  0
LINE
  8
0
 10
-14.1963
 20
8.76648
 11
-14.0439
 21
8.65576
  0
LINE
  8
0
 10
-14.0439
 20
8.65576
 11
-13.9065
 21
8.52681
  0
LINE
  8
0
 10
-13.9065
 20
8.52681
 11
-13.7865
 21
8.38167
  0
LINE
  8
0
 10
-13.7865
 20
8.38167
 11
-13.6855
 21
8.22263
  0
LINE
  8
0
 10
-13.6855
 20
8.22263
 11
-13.6053
 21
8.05219
  0
LINE
  8
0
 10
-13.6053
 20
8.05219
 11
-13.5471
 21
7.87303
  0
LINE
  8
0
 10
-13.5471
 20
7.87303
 11
-13.5118
 21
7.68799
  0
LINE
  8
0
 10
-13.5118
 20
7.68799
 11
-13.5
 21
7.5
  0
LINE
  8
0
 10
-13.5
 20
7.5
 11
-13.5118
 21
7.312
  0
LINE
  8
0
 10
-13.5118
 20
7.312
 11
-13.5471
 21
7.12695
  0
LINE
  8
0
 10
-13.5471
 20
7.12695
 11
-13.6053
 21
6.9478
  0
LINE
  8
0
 10
-13.6053
 20
6.9478
 11
-13.6855
 21
6.77736
  0
LINE
  8
0
 10
-13.6855
 20
6.77736
 11
-13.7865
 21
6.61832
  0
LINE
  8
0
 10
-13.7865
 20
6.61832
 11
-13.9065
 21
6.47318
  0
LINE
  8
0
 10
-13.9065
 20
6.47318
 11
-14.0439
 21
6.34422
  0
LINE
  8
0
 10
-14.0439
 20
6.34422
 11
-14.1963
 21
6.23351
  0
LINE
  8
0
 10
-14.1963
 20
6.23351
 11
-14.3613
 21
6.14275
  0
LINE
  8
0
 10
-14.3613
 20
6.14275
 11
-14.5365
 21
6.07341
  0
LINE
  8
0
 10
-14.5365
 20
6.07341
 11
-14.7189
 21
6.02657
  0
LINE
  8
0
 10
-14.7189
 20
6.02657
 11
-14.9058
 21
6.00294
  0
LINE
  8
0
 10
-14.9058
 20
6.00294
 11
-15.0942
 21
6.00294
  0
LINE
  8
0
 10
-7.59418
 20
6.00294
 11
-7.78107
 21
6.02657
  0
LINE
  8
0
 10
-7.78107
 20
6.02657
 11
-7.96352
 21
6.07341
  0
LINE
  8
0
 10
-7.96352
 20
6.07341
 11
-8.13866
 21
6.14275
  0
LINE
  8
0
 10
-8.13866
 20
6.14275
 11
-8.30373
 21
6.23351
  0
LINE
  8
0
 10
-8.30373
 20
6.23351
 11
-8.45613
 21
6.34422
  0
LINE
  8
0
 10
-8.45613
 20
6.34422
 11
-8.59344
 21
6.47318
  0
LINE
  8
0
 10
-8.59344
 20
6.47318
 11
-8.71352
 21
6.61832
  0
LINE
  8
0
 10
-8.71352
 20
6.61832
 11
-8.81445
 21
6.77736
  0
LINE
  8
0
 10
-8.81445
 20
6.77736
 11
-8.89465
 21
6.9478
  0
LINE
  8
0
 10
-8.89465
 20
6.9478
 11
-8.95287
 21
7.12695
  0
LINE
  8
0
 10
-8.95287
 20
7.12695
 11
-8.98816
 21
7.312
  0
LINE
  8
0
 10
-8.98816
 20
7.312
 11
-9
 21
7.5
  0
LINE
  8
0
 10
-9
 20
7.5
 11
-8.98816
 21
7.68799
  0
LINE
  8
0
 10
-8.98816
 20
7.68799
 11
-8.95287
 21
7.87303
  0
LINE
  8
0
 10
-8.95287
 20
7.87303
 11
-8.89465
 21
8.05219
  0
LINE
  8
0
 10
-8.89465
 20
8.05219
 11
-8.81445
 21
8.22263
  0
LINE
  8
0
 10
-8.81445
 20
8.22263
 11
-8.71352
 21
8.38167
  0
LINE
  8
0
 10
-8.71352
 20
8.38167
 11
-8.59344
 21
8.52681
  0
LINE
  8
0
 10
-8.59344
 20
8.52681
 11
-8.45613
 21
8.65576
  0
LINE
  8
0
 10
-8.45613
 20
8.65576
 11
-8.30373
 21
8.76648
  0
LINE
  8
0
 10
-8.30373
 20
8.76648
 11
-8.13866
 21
8.85724
  0
LINE
  8
0
 10
-8.13866
 20
8.85724
 11
-7.96352
 21
8.92657
  0
LINE
  8
0
 10
-7.96352
 20
8.92657
 11
-7.78107
 21
8.97342
  0
LINE
  8
0
 10
-7.78107
 20
8.97342
 11
-7.59418
 21
8.99704
  0
LINE
  8
0
 10
-7.59418
 20
8.99704
 11
-7.40581
 21
8.99704
  0
LINE
  8
0
 10
-7.40581
 20
8.99704
 11
-7.21892
 21
8.97342
  0
LINE
  8
0
 10
-7.21892
 20
8.97342
 11
-7.03647
 21
8.92657
  0
LINE
  8
0
 10
-7.03647
 20
8.92657
 11
-6.86133
 21
8.85724
  0
LINE
  8
0
 10
-6.86133
 20
8.85724
 11
-6.69626
 21
8.76648
  0
LINE
  8
0
 10
-6.69626
 20
8.76648
 11
-6.54385
 21
8.65576
  0
LINE
  8
0
 10
-6.54385
 20
8.65576
 11
-6.40654
 21
8.52681
  0
LINE
  8
0
 10
-6.40654
 20
8.52681
 11
-6.28647
 21
8.38167
  0
LINE
  8
0
 10
-6.28647
 20
8.38167
 11
-6.18553
 21
8.22263
  0
LINE
  8
0
 10
-6.18553
 20
8.22263
 11
-6.10533
 21
8.05219
  0
LINE
  8
0
 10
-6.10533
 20
8.05219
 11
-6.04712
 21
7.87303
  0
LINE
  8
0
 10
-6.04712
 20
7.87303
 11
-6.01183
 21
7.68799
  0
LINE
  8
0
 10
-6.01183
 20
7.68799
 11
-6
 21
7.5
  0
LINE
  8
0
 10
-6
 20
7.5
 11
-6.01183
 21
7.312
  0
LINE
  8
0
 10
-6.01183
 20
7.312
 11
-6.04712
 21
7.12695
  0
LINE
  8
0
 10
-6.04712
 20
7.12695
 11
-6.10533
 21
6.9478
  0
LINE
  8
0
 10
-6.10533
 20
6.9478
 11
-6.18553
 21
6.77736
  0
LINE
  8
0
 10
-6.18553
 20
6.77736
 11
-6.28647
 21
6.61832
  0
LINE
  8
0
 10
-6.28647
 20
6.61832
 11
-6.40654
 21
6.47318
  0
LINE
  8
0
 10
-6.40654
 20
6.47318
 11
-6.54385
 21
6.34422
  0
LINE
  8
0
 10
-6.54385
 20
6.34422
 11
-6.69626
 21
6.23351
  0
LINE
  8
0
 10
-6.69626
 20
6.23351
 11
-6.86133
 21
6.14275
  0
LINE
  8
0
 10
-6.86133
 20
6.14275
 11
-7.03647
 21
6.07341
  0
LINE
  8
0
 10
-7.03647
 20
6.07341
 11
-7.21892
 21
6.02657
  0
LINE
  8
0
 10
-7.21892
 20
6.02657
 11
-7.40581
 21
6.00294
  0
LINE
  8
0
 10
-7.40581
 20
6.00294
 11
-7.59418
 21
6.00294
  0
LINE
  8
0
 10
14.9058
 20
6.00294
 11
14.7189
 21
6.02657
  0
LINE
  8
0
 10
14.7189
 20
6.02657
 11
14.5365
 21
6.07341
  0
LINE
  8
0
 10
14.5365
 20
6.07341
 11
14.3613
 21
6.14275
  0
LINE
  8
0
 10
14.3613
 20
6.14275
 11
14.1963
 21
6.23351
  0
LINE
  8
0
 10
14.1963
 20
6.23351
 11
14.0439
 21
6.34422
  0
LINE
  8
0
 10
14.0439
 20
6.34422
 11
13.9065
 21
6.47318
  0
LINE
  8
0
 10
13.9065
 20
6.47318
 11
13.7865
 21
6.61832
  0
LINE
  8
0
 10
13.7865
 20
6.61832
 11
13.6855
 21
6.77736
  0
LINE
  8
0
 10
13.6855
 20
6.77736
 11
13.6053
 21
6.9478
  0
LINE
  8
0
 10
13.6053
 20
6.9478
 11
13.5471
 21
7.12695
  0
LINE
  8
0
 10
13.5471
 20
7.12695
 11
13.5118
 21
7.312
  0
LINE
  8
0
 10
13.5118
 20
7.312
 11
13.5
 21
7.5
  0
LINE
  8
0
 10
13.5
 20
7.5
 11
13.5118
 21
7.68799
  0
LINE
  8
0
 10
13.5118
 20
7.68799
 11
13.5471
 21
7.87303
  0
LINE
  8
0
 10
13.5471
 20
7.87303
 11
13.6053
 21
8.05219
  0
LINE
  8
0
 10
13.6053
 20
8.05219
 11
13.6855
 21
8.22263
  0
LINE
  8
0
 10
13.6855
 20
8.22263
 11
13.7865
 21
8.38167
  0
LINE
  8
0
 10
13.7865
 20
8.38167
 11
13.9065
 21
8.52681
  0
LINE
  8
0
 10
13.9065
 20
8.52681
 11
14.0439
 21
8.65576
  0
LINE
  8
0
 10
14.0439
 20
8.65576
 11
14.1963
 21
8.76648
  0
LINE
  8
0
 10
14.1963
 20
8.76648
 11
14.3613
 21
8.85724
  0
LINE
  8
0
 10
14.3613
 20
8.85724
 11
14.5365
 21
8.92657
  0
LINE
  8
0
 10
14.5365
 20
8.92657
 11
14.7189
 21
8.97342
  0
LINE
  8
0
 10
14.7189
 20
8.97342
 11
14.9058
 21
8.99704
  0
LINE
  8
0
 10
14.9058
 20
8.99704
 11
15.0942
 21
8.99704
  0
LINE
  8
0
 10
15.0942
 20
8.99704
 11
15.2811
 21
8.97342
  0
LINE
  8
0
 10
15.2811
 20
8.97342
 11
15.4635
 21
8.92657
  0
LINE
  8
0
 10
15.4635
 20
8.92657
 11
15.6387
 21
8.85724
  0
LINE
  8
0
 10
15.6387
 20
8.85724
 11
15.8037
 21
8.76648
  0
LINE
  8
0
 10
15.8037
 20
8.76648
 11
15.9561
 21
8.65576
  0
LINE
  8
0
 10
15.9561
 20
8.65576
 11
16.0934
 21
8.52681
  0
LINE
  8
0
 10
16.0934
 20
8.52681
 11
16.2135
 21
8.38167
  0
LINE
  8
0
 10
16.2135
 20
8.38167
 11
16.3145
 21
8.22263
  0
LINE
  8
0
 10
16.3145
 20
8.22263
 11
16.3947
 21
8.05219
  0
LINE
  8
0
 10
16.3947
 20
8.05219
 11
16.4529
 21
7.87303
  0
LINE
  8
0
 10
16.4529
 20
7.87303
 11
16.4882
 21
7.68799
  0
LINE
  8
0
 10
16.4882
 20
7.68799
 11
16.5
 21
7.5
  0
LINE
  8
0
 10
16.5
 20
7.5
 11
16.4882
 21
7.312
  0
LINE
  8
0
 10
16.4882
 20
7.312
 11
16.4529
 21
7.12695
  0
LINE
  8
0
 10
16.4529
 20
7.12695
 11
16.3947
 21
6.9478
  0
LINE
  8
0
 10
16.3947
 20
6.9478
 11
16.3145
 21
6.77736
  0
LINE
  8
0
 10
16.3145
 20
6.77736
 11
16.2135
 21
6.61832
  0
LINE
  8
0
 10
16.2135
 20
6.61832
 11
16.0934
 21
6.47318
  0
LINE
  8
0
 10
16.0934
 20
6.47318
 11
15.9561
 21
6.34422
  0
LINE
  8
0
 10
15.9561
 20
6.34422
 11
15.8037
 21
6.23351
  0
LINE
  8
0
 10
15.8037
 20
6.23351
 11
15.6387
 21
6.14275
  0
LINE
  8
0
 10
15.6387
 20
6.14275
 11
15.4635
 21
6.07341
  0
LINE
  8
0
 10
15.4635
 20
6.07341
 11
15.2811
 21
6.02657
  0
LINE
  8
0
 10
15.2811
 20
6.02657
 11
15.0942
 21
6.00294
  0
LINE
  8
0
 10
15.0942
 20
6.00294
 11
14.9058
 21
6.00294
  0
LINE
  8
0
 10
7.40581
 20
6.00294
 11
7.21892
 21
6.02657
  0
LINE
  8
0
 10
7.21892
 20
6.02657
 11
7.03647
 21
6.07341
  0
LINE
  8
0
 10
7.03647
 20
6.07341
 11
6.86133
 21
6.14275
  0
LINE
  8
0
 10
6.86133
 20
6.14275
 11
6.69626
 21
6.23351
  0
LINE
  8
0
 10
6.69626
 20
6.23351
 11
6.54385
 21
6.34422
  0
LINE
  8
0
 10
6.54385
 20
6.34422
 11
6.40654
 21
6.47318
  0
LINE
  8
0
 10
6.40654
 20
6.47318
 11
6.28647
 21
6.61832
  0
LINE
  8
0
 10
6.28647
 20
6.61832
 11
6.18553
 21
6.77736
  0
LINE
  8
0
 10
6.18553
 20
6.77736
 11
6.10533
 21
6.9478
  0
LINE
  8
0
 10
6.10533
 20
6.9478
 11
6.04712
 21
7.12695
  0
LINE
  8
0
 10
6.04712
 20
7.12695
 11
6.01183
 21
7.312
  0
LINE
  8
0
 10
6.01183
 20
7.312
 11
6
 21
7.5
  0
LINE
  8
0
 10
6
 20
7.5
 11
6.01183
 21
7.68799
  0
LINE
  8
0
 10
6.01183
 20
7.68799
 11
6.04712
 21
7.87303
  0
LINE
  8
0
 10
6.04712
 20
7.87303
 11
6.10533
 21
8.05219
  0
LINE
  8
0
 10
6.10533
 20
8.05219
 11
6.18553
 21
8.22263
  0
LINE
  8
0
 10
6.18553
 20
8.22263
 11
6.28647
 21
8.38167
  0
LINE
  8
0
 10
6.28647
 20
8.38167
 11
6.40654
 21
8.52681
  0
LINE
  8
0
 10
6.40654
 20
8.52681
 11
6.54385
 21
8.65576
  0
LINE
  8
0
 10
6.54385
 20
8.65576
 11
6.69626
 21
8.76648
  0
LINE
  8
0
 10
6.69626
 20
8.76648
 11
6.86133
 21
8.85724
  0
LINE
  8
0
 10
6.86133
 20
8.85724
 11
7.03647
 21
8.92657
  0
LINE
  8
0
 10
7.03647
 20
8.92657
 11
7.21892
 21
8.97342
  0
LINE
  8
0
 10
7.21892
 20
8.97342
 11
7.40581
 21
8.99704
  0
LINE
  8
0
 10
7.40581
 20
8.99704
 11
7.59418
 21
8.99704
  0
LINE
  8
0
 10
7.59418
 20
8.99704
 11
7.78107
 21
8.97342
  0
LINE
  8
0
 10
7.78107
 20
8.97342
 11
7.96352
 21
8.92657
  0
LINE
  8
0
 10
7.96352
 20
8.92657
 11
8.13866
 21
8.85724
  0
LINE
  8
0
 10
8.13866
 20
8.85724
 11
8.30373
 21
8.76648
  0
LINE
  8
0
 10
8.30373
 20
8.76648
 11
8.45613
 21
8.65576
  0
LINE
  8
0
 10
8.45613
 20
8.65576
 11
8.59344
 21
8.52681
  0
LINE
  8
0
 10
8.59344
 20
8.52681
 11
8.71352
 21
8.38167
  0
LINE
  8
0
 10
8.71352
 20
8.38167
 11
8.81445
 21
8.22263
  0
LINE
  8
0
 10
8.81445
 20
8.22263
 11
8.89465
 21
8.05219
  0
LINE
  8
0
 10
8.89465
 20
8.05219
 11
8.95287
 21
7.87303
  0
LINE
  8
0
 10
8.95287
 20
7.87303
 11
8.98816
 21
7.68799
  0
LINE
  8
0
 10
8.98816
 20
7.68799
 11
9
 21
7.5
  0
LINE
  8
0
 10
9
 20
7.5
 11
8.98816
 21
7.312
  0
LINE
  8
0
 10
8.98816
 20
7.312
 11
8.95287
 21
7.12695
  0
LINE
  8
0
 10
8.95287
 20
7.12695
 11
8.89465
 21
6.9478
  0
LINE
  8
0
 10
8.89465
 20
6.9478
 11
8.81445
 21
6.77736
  0
LINE
  8
0
 10
8.81445
 20
6.77736
 11
8.71352
 21
6.61832
  0
LINE
  8
0
 10
8.71352
 20
6.61832
 11
8.59344
 21
6.47318
  0
LINE
  8
0
 10
8.59344
 20
6.47318
 11
8.45613
 21
6.34422
  0
LINE
  8
0
 10
8.45613
 20
6.34422
 11
8.30373
 21
6.23351
  0
LINE
  8
0
 10
8.30373
 20
6.23351
 11
8.13866
 21
6.14275
  0
LINE
  8
0
 10
8.13866
 20
6.14275
 11
7.96352
 21
6.07341
  0
LINE
  8
0
 10
7.96352
 20
6.07341
 11
7.78107
 21
6.02657
  0
LINE
  8
0
 10
7.78107
 20
6.02657
 11
7.59418
 21
6.00294
  0
LINE
  8
0
 10
7.59418
 20
6.00294
 11
7.40581
 21
6.00294
  0
LINE
  8
0
 10
14.9058
 20
-1.49704
 11
14.7189
 21
-1.47342
  0
LINE
  8
0
 10
14.7189
 20
-1.47342
 11
14.5365
 21
-1.42657
  0
LINE
  8
0
 10
14.5365
 20
-1.42657
 11
14.3613
 21
-1.35724
  0
LINE
  8
0
 10
14.3613
 20
-1.35724
 11
14.1963
 21
-1.26648
  0
LINE
  8
0
 10
14.1963
 20
-1.26648
 11
14.0439
 21
-1.15576
  0
LINE
  8
0
 10
14.0439
 20
-1.15576
 11
13.9065
 21
-1.02681
  0
LINE
  8
0
 10
13.9065
 20
-1.02681
 11
13.7865
 21
-0.881668
  0
LINE
  8
0
 10
13.7865
 20
-0.881668
 11
13.6855
 21
-0.722626
  0
LINE
  8
0
 10
13.6855
 20
-0.722626
 11
13.6053
 21
-0.552185
  0
LINE
  8
0
 10
13.6053
 20
-0.552185
 11
13.5471
 21
-0.373032
  0
LINE
  8
0
 10
13.5471
 20
-0.373032
 11
13.5118
 21
-0.187988
  0
LINE
  8
0
 10
13.5118
 20
-0.187988
 11
13.5
 21
0
  0
LINE
  8
0
 10
13.5
 20
0
 11
13.5118
 21
0.187988
  0
LINE
  8
0
 10
13.5118
 20
0.187988
 11
13.5471
 21
0.373032
  0
LINE
  8
0
 10
13.5471
 20
0.373032
 11
13.6053
 21
0.552185
  0
LINE
  8
0
 10
13.6053
 20
0.552185
 11
13.6855
 21
0.722626
  0
LINE
  8
0
 10
13.6855
 20
0.722626
 11
13.7865
 21
0.881668
  0
LINE
  8
0
 10
13.7865
 20
0.881668
 11
13.9065
 21
1.02681
  0
LINE
  8
0
 10
13.9065
 20
1.02681
 11
14.0439
 21
1.15576
  0
LINE
  8
0
 10
14.0439
 20
1.15576
 11
14.1963
 21
1.26648
  0
LINE
  8
0
 10
14.1963
 20
1.26648
 11
14.3613
 21
1.35724
  0
LINE
  8
0
 10
14.3613
 20
1.35724
 11
14.5365
 21
1.42657
  0
LINE
  8
0
 10
14.5365
 20
1.42657
 11
14.7189
 21
1.47342
  0
LINE
  8
0
 10
14.7189
 20
1.47342
 11
14.9058
 21
1.49704
  0
LINE
  8
0
 10
14.9058
 20
1.49704
 11
15.0942
 21
1.49704
  0
LINE
  8
0
 10
15.0942
 20
1.49704
 11
15.2811
 21
1.47342
  0
LINE
  8
0
 10
15.2811
 20
1.47342
 11
15.4635
 21
1.42657
  0
LINE
  8
0
 10
15.4635
 20
1.42657
 11
15.6387
 21
1.35724
  0
LINE
  8
0
 10
15.6387
 20
1.35724
 11
15.8037
 21
1.26648
  0
LINE
  8
0
 10
15.8037
 20
1.26648
 11
15.9561
 21
1.15576
  0
LINE
  8
0
 10
15.9561
 20
1.15576
 11
16.0934
 21
1.02681
  0
LINE
  8
0
 10
16.0934
 20
1.02681
 11
16.2135
 21
0.881668
  0
LINE
  8
0
 10
16.2135
 20
0.881668
 11
16.3145
 21
0.722626
  0
LINE
  8
0
 10
16.3145
 20
0.722626
 11
16.3947
 21
0.552185
  0
LINE
  8
0
 10
16.3947
 20
0.552185
 11
16.4529
 21
0.373032
  0
LINE
  8
0
 10
16.4529
 20
0.373032
 11
16.4882
 21
0.187988
  0
LINE
  8
0
 10
16.4882
 20
0.187988
 11
16.5
 21
0
  0
LINE
  8
0
 10
16.5
 20
0
 11
16.4882
 21
-0.187988
  0
LINE
  8
0
 10
16.4882
 20
-0.187988
 11
16.4529
 21
-0.373032
  0
LINE
  8
0
 10
16.4529
 20
-0.373032
 11
16.3947
 21
-0.552185
  0
LINE
  8
0
 10
16.3947
 20
-0.552185
 11
16.3145
 21
-0.722626
  0
LINE
  8
0
 10
16.3145
 20
-0.722626
 11
16.2135
 21
-0.881668
  0
LINE
  8
0
 10
16.2135
 20
-0.881668
 11
16.0934
 21
-1.02681
  0
LINE
  8
0
 10
16.0934
 20
-1.02681
 11
15.9561
 21
-1.15576
  0
LINE
  8
0
 10
15.9561
 20
-1.15576
 11
15.8037
 21
-1.26648
  0
LINE
  8
0
 10
15.8037
 20
-1.26648
 11
15.6387
 21
-1.35724
  0
LINE
  8
0
 10
15.6387
 20
-1.35724
 11
15.4635
 21
-1.42657
  0
LINE
  8
0
 10
15.4635
 20
-1.42657
 11
15.2811
 21
-1.47342
  0
LINE
  8
0
 10
15.2811
 20
-1.47342
 11
15.0942
 21
-1.49704
  0
LINE
  8
0
 10
15.0942
 20
-1.49704
 11
14.9058
 21
-1.49704
  0
LINE
  8
0
 10
-15.0942
 20
-1.49704
 11
-15.2811
 21
-1.47342
  0
LINE
  8
0
 10
-15.2811
 20
-1.47342
 11
-15.4635
 21
-1.42657
  0
LINE
  8
0
 10
-15.4635
 20
-1.42657
 11
-15.6387
 21
-1.35724
  0
LINE
  8
0
 10
-15.6387
 20
-1.35724
 11
-15.8037
 21
-1.26648
  0
LINE
  8
0
 10
-15.8037
 20
-1.26648
 11
-15.9561
 21
-1.15576
  0
LINE
  8
0
 10
-15.9561
 20
-1.15576
 11
-16.0934
 21
-1.02681
  0
LINE
  8
0
 10
-16.0934
 20
-1.02681
 11
-16.2135
 21
-0.881668
  0
LINE
  8
0
 10
-16.2135
 20
-0.881668
 11
-16.3145
 21
-0.722626
  0
LINE
  8
0
 10
-16.3145
 20
-0.722626
 11
-16.3947
 21
-0.552185
  0
LINE
  8
0
 10
-16.3947
 20
-0.552185
 11
-16.4529
 21
-0.373032
  0
LINE
  8
0
 10
-16.4529
 20
-0.373032
 11
-16.4882
 21
-0.187988
  0
LINE
  8
0
 10
-16.4882
 20
-0.187988
 11
-16.5
 21
0
  0
LINE
  8
0
 10
-16.5
 20
0
 11
-16.4882
 21
0.187988
  0
LINE
  8
0
 10
-16.4882
 20
0.187988
 11
-16.4529
 21
0.373032
  0
LINE
  8
0
 10
-16.4529
 20
0.373032
 11
-16.3947
 21
0.552185
  0
LINE
  8
0
 10
-16.3947
 20
0.552185
 11
-16.3145
 21
0.722626
  0
LINE
  8
0
 10
-16.3145
 20
0.722626
 11
-16.2135
 21
0.881668
  0
LINE
  8
0
 10
-16.2135
 20
0.881668
 11
-16.0934
 21
1.02681
  0
LINE
  8
0
 10
-16.0934
 20
1.02681
 11
-15.9561
 21
1.15576
  0
LINE
  8
0
 10
-15.9561
 20
1.15576
 11
-15.8037
 21
1.26648
  0
LINE
  8
0
 10
-15.8037
 20
1.26648
 11
-15.6387
 21
1.35724
  0
LINE
  8
0
 10
-15.6387
 20
1.35724
 11
-15.4635
 21
1.42657
  0
LINE
  8
0
 10
-15.4635
 20
1.42657
 11
-15.2811
 21
1.47342
  0
LINE
  8
0
 10
-15.2811
 20
1.47342
 11
-15.0942
 21
1.49704
  0
LINE
  8
0
 10
-15.0942
 20
1.49704
 11
-14.9058
 21
1.49704
  0
LINE
  8
0
 10
-14.9058
 20
1.49704
 11
-14.7189
 21
1.47342
  0
LINE
  8
0
 10
-14.7189
 20
1.47342
 11
-14.5365
 21
1.42657
  0
LINE
  8
0
 10
-14.5365
 20
1.42657
 11
-14.3613
 21
1.35724
  0
LINE
  8
0
 10
-14.3613
 20
1.35724
 11
-14.1963
 21
1.26648
  0
LINE
  8
0
 10
-14.1963
 20
1.26648
 11
-14.0439
 21
1.15576
  0
LINE
  8
0
 10
-14.0439
 20
1.15576
 11
-13.9065
 21
1.02681
  0
LINE
  8
0
 10
-13.9065
 20
1.02681
 11
-13.7865
 21
0.881668
  0
LINE
  8
0
 10
-13.7865
 20
0.881668
 11
-13.6855
 21
0.722626
  0
LINE
  8
0
 10
-13.6855
 20
0.722626
 11
-13.6053
 21
0.552185
  0
LINE
  8
0
 10
-13.6053
 20
0.552185
 11
-13.5471
 21
0.373032
  0
LINE
  8
0
 10
-13.5471
 20
0.373032
 11
-13.5118
 21
0.187988
  0
LINE
  8
0
 10
-13.5118
 20
0.187988
 11
-13.5
 21
0
  0
LINE
  8
0
 10
-13.5
 20
0
 11
-13.5118
 21
-0.187988
  0
LINE
  8
0
 10
-13.5118
 20
-0.187988
 11
-13.5471
 21
-0.373032
  0
LINE
  8
0
 10
-13.5471
 20
-0.373032
 11
-13.6053
 21
-0.552185
  0
LINE
  8
0
 10
-13.6053
 20
-0.552185
 11
-13.6855
 21
-0.722626
  0
LINE
  8
0
 10
-13.6855
 20
-0.722626
 11
-13.7865
 21
-0.881668
  0
LINE
  8
0
 10
-13.7865
 20
-0.881668
 11
-13.9065
 21
-1.02681
  0
LINE
  8
0
 10
-13.9065
 20
-1.02681
 11
-14.0439
 21
-1.15576
  0
LINE
  8
0
 10
-14.0439
 20
-1.15576
 11
-14.1963
 21
-1.26648
  0
LINE
  8
0
 10
-14.1963
 20
-1.26648
 11
-14.3613
 21
-1.35724
  0
LINE
  8
0
 10
-14.3613
 20
-1.35724
 11
-14.5365
 21
-1.42657
  0
LINE
  8
0
 10
-14.5365
 20
-1.42657
 11
-14.7189
 21
-1.47342
  0
LINE
  8
0
 10
-14.7189
 20
-1.47342
 11
-14.9058
 21
-1.49704
  0
LINE
  8
0
 10
-14.9058
 20
-1.49704
 11
-15.0942
 21
-1.49704
  0
LINE
  8
0
 10
-7.59418
 20
-1.49704
 11
-7.78107
 21
-1.47342
  0
LINE
  8
0
 10
-7.78107
 20
-1.47342
 11
-7.96352
 21
-1.42657
  0
LINE
  8
0
 10
-7.96352
 20
-1.42657
 11
-8.13866
 21
-1.35724
  0
LINE
  8
0
 10
-8.13866
 20
-1.35724
 11
-8.30373
 21
-1.26648
  0
LINE
  8
0
 10
-8.30373
 20
-1.26648
 11
-8.45613
 21
-1.15576
  0
LINE
  8
0
 10
-8.45613
 20
-1.15576
 11
-8.59344
 21
-1.02681
  0
LINE
  8
0
 10
-8.59344
 20
-1.02681
 11
-8.71352
 21
-0.881668
  0
LINE
  8
0
 10
-8.71352
 20
-0.881668
 11
-8.81445
 21
-0.722626
  0
LINE
  8
0
 10
-8.81445
 20
-0.722626
 11
-8.89465
 21
-0.552185
  0
LINE
  8
0
 10
-8.89465
 20
-0.552185
 11
-8.95287
 21
-0.373032
  0
LINE
  8
0
 10
-8.95287
 20
-0.373032
 11
-8.98816
 21
-0.187988
  0
LINE
  8
0
 10
-8.98816
 20
-0.187988
 11
-9
 21
0
  0
LINE
  8
0
 10
-9
 20
0
 11
-8.98816
 21
0.187988
  0
LINE
  8
0
 10
-8.98816
 20
0.187988
 11
-8.95287
 21
0.373032
  0
LINE
  8
0
 10
-8.95287
 20
0.373032
 11
-8.89465
 21
0.552185
  0
LINE
  8
0
 10
-8.89465
 20
0.552185
 11
-8.81445
 21
0.722626
  0
LINE
  8
0
 10
-8.81445
 20
0.722626
 11
-8.71352
 21
0.881668
  0
LINE
  8
0
 10
-8.71352
 20
0.881668
 11
-8.59344
 21
1.02681
  0
LINE
  8
0
 10
-8.59344
 20
1.02681
 11
-8.45613
 21
1.15576
  0
LINE
  8
0
 10
-8.45613
 20
1.15576
 11
-8.30373
 21
1.26648
  0
LINE
  8
0
 10
-8.30373
 20
1.26648
 11
-8.13866
 21
1.35724
  0
LINE
  8
0
 10
-8.13866
 20
1.35724
 11
-7.96352
 21
1.42657
  0
LINE
  8
0
 10
-7.96352
 20
1.42657
 11
-7.78107
 21
1.47342
  0
LINE
  8
0
 10
-7.78107
 20
1.47342
 11
-7.59418
 21
1.49704
  0
LINE
  8
0
 10
-7.59418
 20
1.49704
 11
-7.40581
 21
1.49704
  0
LINE
  8
0
 10
-7.40581
 20
1.49704
 11
-7.21892
 21
1.47342
  0
LINE
  8
0
 10
-7.21892
 20
1.47342
 11
-7.03647
 21
1.42657
  0
LINE
  8
0
 10
-7.03647
 20
1.42657
 11
-6.86133
 21
1.35724
  0
LINE
  8
0
 10
-6.86133
 20
1.35724
 11
-6.69626
 21
1.26648
  0
LINE
  8
0
 10
-6.69626
 20
1.26648
 11
-6.54385
 21
1.15576
  0
LINE
  8
0
 10
-6.54385
 20
1.15576
 11
-6.40654
 21
1.02681
  0
LINE
  8
0
 10
-6.40654
 20
1.02681
 11
-6.28647
 21
0.881668
  0
LINE
  8
0
 10
-6.28647
 20
0.881668
 11
-6.18553
 21
0.722626
  0
LINE
  8
0
 10
-6.18553
 20
0.722626
 11
-6.10533
 21
0.552185
  0
LINE
  8
0
 10
-6.10533
 20
0.552185
 11
-6.04712
 21
0.373032
  0
LINE
  8
0
 10
-6.04712
 20
0.373032
 11
-6.01183
 21
0.187988
  0
LINE
  8
0
 10
-6.01183
 20
0.187988
 11
-6
 21
0
  0
LINE
  8
0
 10
-6
 20
0
 11
-6.01183
 21
-0.187988
  0
LINE
  8
0
 10
-6.01183
 20
-0.187988
 11
-6.04712
 21
-0.373032
  0
LINE
  8
0
 10
-6.04712
 20
-0.373032
 11
-6.10533
 21
-0.552185
  0
LINE
  8
0
 10
-6.10533
 20
-0.552185
 11
-6.18553
 21
-0.722626
  0
LINE
  8
0
 10
-6.18553
 20
-0.722626
 11
-6.28647
 21
-0.881668
  0
LINE
  8
0
 10
-6.28647
 20
-0.881668
 11
-6.40654
 21
-1.02681
  0
LINE
  8
0
 10
-6.40654
 20
-1.02681
 11
-6.54385
 21
-1.15576
  0
LINE
  8
0
 10
-6.54385
 20
-1.15576
 11
-6.69626
 21
-1.26648
  0
LINE
  8
0
 10
-6.69626
 20
-1.26648
 11
-6.86133
 21
-1.35724
  0
LINE
  8
0
 10
-6.86133
 20
-1.35724
 11
-7.03647
 21
-1.42657
  0
LINE
  8
0
 10
-7.03647
 20
-1.42657
 11
-7.21892
 21
-1.47342
  0
LINE
  8
0
 10
-7.21892
 20
-1.47342
 11
-7.40581
 21
-1.49704
  0
LINE
  8
0
 10
-7.40581
 20
-1.49704
 11
-7.59418
 21
-1.49704
  0
LINE
  8
0
 10
7.40581
 20
-1.49704
 11
7.21892
 21
-1.47342
  0
LINE
  8
0
 10
7.21892
 20
-1.47342
 11
7.03647
 21
-1.42657
  0
LINE
  8
0
 10
7.03647
 20
-1.42657
 11
6.86133
 21
-1.35724
  0
LINE
  8
0
 10
6.86133
 20
-1.35724
 11
6.69626
 21
-1.26648
  0
LINE
  8
0
 10
6.69626
 20
-1.26648
 11
6.54385
 21
-1.15576
  0
LINE
  8
0
 10
6.54385
 20
-1.15576
 11
6.40654
 21
-1.02681
  0
LINE
  8
0
 10
6.40654
 20
-1.02681
 11
6.28647
 21
-0.881668
  0
LINE
  8
0
 10
6.28647
 20
-0.881668
 11
6.18553
 21
-0.722626
  0
LINE
  8
0
 10
6.18553
 20
-0.722626
 11
6.10533
 21
-0.552185
  0
LINE
  8
0
 10
6.10533
 20
-0.552185
 11
6.04712
 21
-0.373032
  0
LINE
  8
0
 10
6.04712
 20
-0.373032
 11
6.01183
 21
-0.187988
  0
LINE
  8
0
 10
6.01183
 20
-0.187988
 11
6
 21
0
  0
LINE
  8
0
 10
6
 20
0
 11
6.01183
 21
0.187988
  0
LINE
  8
0
 10
6.01183
 20
0.187988
 11
6.04712
 21
0.373032
  0
LINE
  8
0
 10
6.04712
 20
0.373032
 11
6.10533
 21
0.552185
  0
LINE
  8
0
 10
6.10533
 20
0.552185
 11
6.18553
 21
0.722626
  0
LINE
  8
0
 10
6.18553
 20
0.722626
 11
6.28647
 21
0.881668
  0
LINE
  8
0
 10
6.28647
 20
0.881668
 11
6.40654
 21
1.02681
  0
LINE
  8
0
 10
6.40654
 20
1.02681
 11
6.54385
 21
1.15576
  0
LINE
  8
0
 10
6.54385
 20
1.15576
 11
6.69626
 21
1.26648
  0
LINE
  8
0
 10
6.69626
 20
1.26648
 11
6.86133
 21
1.35724
  0
LINE
  8
0
 10
6.86133
 20
1.35724
 11
7.03647
 21
1.42657
  0
LINE
  8
0
 10
7.03647
 20
1.42657
 11
7.21892
 21
1.47342
  0
LINE
  8
0
 10
7.21892
 20
1.47342
 11
7.40581
 21
1.49704
  0
LINE
  8
0
 10
7.40581
 20
1.49704
 11
7.59418
 21
1.49704
  0
LINE
  8
0
 10
7.59418
 20
1.49704
 11
7.78107
 21
1.47342
  0
LINE
  8
0
 10
7.78107
 20
1.47342
 11
7.96352
 21
1.42657
  0
LINE
  8
0
 10
7.96352
 20
1.42657
 11
8.13866
 21
1.35724
  0
LINE
  8
0
 10
8.13866
 20
1.35724
 11
8.30373
 21
1.26648
  0
LINE
  8
0
 10
8.30373
 20
1.26648
 11
8.45613
 21
1.15576
  0
LINE
  8
0
 10
8.45613
 20
1.15576
 11
8.59344
 21
1.02681
  0
LINE
  8
0
 10
8.59344
 20
1.02681
 11
8.71352
 21
0.881668
  0
LINE
  8
0
 10
8.71352
 20
0.881668
 11
8.81445
 21
0.722626
  0
LINE
  8
0
 10
8.81445
 20
0.722626
 11
8.89465
 21
0.552185
  0
LINE
  8
0
 10
8.89465
 20
0.552185
 11
8.95287
 21
0.373032
  0
LINE
  8
0
 10
8.95287
 20
0.373032
 11
8.98816
 21
0.187988
  0
LINE
  8
0
 10
8.98816
 20
0.187988
 11
9
 21
0
  0
LINE
  8
0
 10
9
 20
0
 11
8.98816
 21
-0.187988
  0
LINE
  8
0
 10
8.98816
 20
-0.187988
 11
8.95287
 21
-0.373032
  0
LINE
  8
0
 10
8.95287
 20
-0.373032
 11
8.89465
 21
-0.552185
  0
LINE
  8
0
 10
8.89465
 20
-0.552185
 11
8.81445
 21
-0.722626
  0
LINE
  8
0
 10
8.81445
 20
-0.722626
 11
8.71352
 21
-0.881668
  0
LINE
  8
0
 10
8.71352
 20
-0.881668
 11
8.59344
 21
-1.02681
  0
LINE
  8
0
 10
8.59344
 20
-1.02681
 11
8.45613
 21
-1.15576
  0
LINE
  8
0
 10
8.45613
 20
-1.15576
 11
8.30373
 21
-1.26648
  0
LINE
  8
0
 10
8.30373
 20
-1.26648
 11
8.13866
 21
-1.35724
  0
LINE
  8
0
 10
8.13866
 20
-1.35724
 11
7.96352
 21
-1.42657
  0
LINE
  8
0
 10
7.96352
 20
-1.42657
 11
7.78107
 21
-1.47342
  0
LINE
  8
0
 10
7.78107
 20
-1.47342
 11
7.59418
 21
-1.49704
  0
LINE
  8
0
 10
7.59418
 20
-1.49704
 11
7.40581
 21
-1.49704
  0
LINE
  8
0
 10
-0.0941772
 20
-1.49704
 11
-0.281067
 21
-1.47342
  0
LINE
  8
0
 10
-0.281067
 20
-1.47342
 11
-0.463516
 21
-1.42657
  0
LINE
  8
0
 10
-0.463516
 20
-1.42657
 11
-0.638657
 21
-1.35724
  0
LINE
  8
0
 10
-0.638657
 20
-1.35724
 11
-0.803726
 21
-1.26648
  0
LINE
  8
0
 10
-0.803726
 20
-1.26648
 11
-0.956131
 21
-1.15576
  0
LINE
  8
0
 10
-0.956131
 20
-1.15576
 11
-1.09344
 21
-1.02681
  0
LINE
  8
0
 10
-1.09344
 20
-1.02681
 11
-1.21352
 21
-0.881668
  0
LINE
  8
0
 10
-1.21352
 20
-0.881668
 11
-1.31445
 21
-0.722626
  0
LINE
  8
0
 10
-1.31445
 20
-0.722626
 11
-1.39465
 21
-0.552185
  0
LINE
  8
0
 10
-1.39465
 20
-0.552185
 11
-1.45287
 21
-0.373032
  0
LINE
  8
0
 10
-1.45287
 20
-0.373032
 11
-1.48816
 21
-0.187988
  0
LINE
  8
0
 10
-1.48816
 20
-0.187988
 11
-1.5
 21
0
  0
LINE
  8
0
 10
-1.5
 20
0
 11
-1.48816
 21
0.187988
  0
LINE
  8
0
 10
-1.48816
 20
0.187988
 11
-1.45287
 21
0.373032
  0
LINE
  8
0
 10
-1.45287
 20
0.373032
 11
-1.39465
 21
0.552185
  0
LINE
  8
0
 10
-1.39465
 20
0.552185
 11
-1.31445
 21
0.722626
  0
LINE
  8
0
 10
-1.31445
 20
0.722626
 11
-1.21352
 21
0.881668
  0
LINE
  8
0
 10
-1.21352
 20
0.881668
 11
-1.09344
 21
1.02681
  0
LINE
  8
0
 10
-1.09344
 20
1.02681
 11
-0.956131
 21
1.15576
  0
LINE
  8
0
 10
-0.956131
 20
1.15576
 11
-0.803726
 21
1.26648
  0
LINE
  8
0
 10
-0.803726
 20
1.26648
 11
-0.638657
 21
1.35724
  0
LINE
  8
0
 10
-0.638657
 20
1.35724
 11
-0.463516
 21
1.42657
  0
LINE
  8
0
 10
-0.463516
 20
1.42657
 11
-0.281067
 21
1.47342
  0
LINE
  8
0
 10
-0.281067
 20
1.47342
 11
-0.0941772
 21
1.49704
  0
LINE
  8
0
 10
-0.0941772
 20
1.49704
 11
0.0941772
 21
1.49704
  0
LINE
  8
0
 10
0.0941772
 20
1.49704
 11
0.281067
 21
1.47342
  0
LINE
  8
0
 10
0.281067
 20
1.47342
 11
0.463516
 21
1.42657
  0
LINE
  8
0
 10
0.463516
 20
1.42657
 11
0.638657
 21
1.35724
  0
LINE
  8
0
 10
0.638657
 20
1.35724
 11
0.803726
 21
1.26648
  0
LINE
  8
0
 10
0.803726
 20
1.26648
 11
0.956131
 21
1.15576
  0
LINE
  8
0
 10
0.956131
 20
1.15576
 11
1.09344
 21
1.02681
  0
LINE
  8
0
 10
1.09344
 20
1.02681
 11
1.21352
 21
0.881668
  0
LINE
  8
0
 10
1.21352
 20
0.881668
 11
1.31445
 21
0.722626
  0
LINE
  8
0
 10
1.31445
 20
0.722626
 11
1.39465
 21
0.552185
  0
LINE
  8
0
 10
1.39465
 20
0.552185
 11
1.45287
 21
0.373032
  0
LINE
  8
0
 10
1.45287
 20
0.373032
 11
1.48816
 21
0.187988
  0
LINE
  8
0
 10
1.48816
 20
0.187988
 11
1.5
 21
0
  0
LINE
  8
0
 10
1.5
 20
0
 11
1.48816
 21
-0.187988
  0
LINE
  8
0
 10
1.48816
 20
-0.187988
 11
1.45287
 21
-0.373032
  0
LINE
  8
0
 10
1.45287
 20
-0.373032
 11
1.39465
 21
-0.552185
  0
LINE
  8
0
 10
1.39465
 20
-0.552185
 11
1.31445
 21
-0.722626
  0
LINE
  8
0
 10
1.31445
 20
-0.722626
 11
1.21352
 21
-0.881668
  0
LINE
  8
0
 10
1.21352
 20
-0.881668
 11
1.09344
 21
-1.02681
  0
LINE
  8
0
 10
1.09344
 20
-1.02681
 11
0.956131
 21
-1.15576
  0
LINE
  8
0
 10
0.956131
 20
-1.15576
 11
0.803726
 21
-1.26648
  0
LINE
  8
0
 10
0.803726
 20
-1.26648
 11
0.638657
 21
-1.35724
  0
LINE
  8
0
 10
0.638657
 20
-1.35724
 11
0.463516
 21
-1.42657
  0
LINE
  8
0
 10
0.463516
 20
-1.42657
 11
0.281067
 21
-1.47342
  0
LINE
  8
0
 10
0.281067
 20
-1.47342
 11
0.0941772
 21
-1.49704
  0
LINE
  8
0
 10
0.0941772
 20
-1.49704
 11
-0.0941772
 21
-1.49704
  0
LINE
  8
0
 10
-0.0941772
 20
-8.99704
 11
-0.281067
 21
-8.97342
  0
LINE
  8
0
 10
-0.281067
 20
-8.97342
 11
-0.463516
 21
-8.92657
  0
LINE
  8
0
 10
-0.463516
 20
-8.92657
 11
-0.638657
 21
-8.85724
  0
LINE
  8
0
 10
-0.638657
 20
-8.85724
 11
-0.803726
 21
-8.76648
  0
LINE
  8
0
 10
-0.803726
 20
-8.76648
 11
-0.956131
 21
-8.65576
  0
LINE
  8
0
 10
-0.956131
 20
-8.65576
 11
-1.09344
 21
-8.52681
  0
LINE
  8
0
 10
-1.09344
 20
-8.52681
 11
-1.21352
 21
-8.38167
  0
LINE
  8
0
 10
-1.21352
 20
-8.38167
 11
-1.31445
 21
-8.22263
  0
LINE
  8
0
 10
-1.31445
 20
-8.22263
 11
-1.39465
 21
-8.05219
  0
LINE
  8
0
 10
-1.39465
 20
-8.05219
 11
-1.45287
 21
-7.87303
  0
LINE
  8
0
 10
-1.45287
 20
-7.87303
 11
-1.48816
 21
-7.68799
  0
LINE
  8
0
 10
-1.48816
 20
-7.68799
 11
-1.5
 21
-7.5
  0
LINE
  8
0
 10
-1.5
 20
-7.5
 11
-1.48816
 21
-7.312
  0
LINE
  8
0
 10
-1.48816
 20
-7.312
 11
-1.45287
 21
-7.12695
  0
LINE
  8
0
 10
-1.45287
 20
-7.12695
 11
-1.39465
 21
-6.9478
  0
LINE
  8
0
 10
-1.39465
 20
-6.9478
 11
-1.31445
 21
-6.77736
  0
LINE
  8
0
 10
-1.31445
 20
-6.77736
 11
-1.21352
 21
-6.61832
  0
LINE
  8
0
 10
-1.21352
 20
-6.61832
 11
-1.09344
 21
-6.47318
  0
LINE
  8
0
 10
-1.09344
 20
-6.47318
 11
-0.956131
 21
-6.34422
  0
LINE
  8
0
 10
-0.956131
 20
-6.34422
 11
-0.803726
 21
-6.23351
  0
LINE
  8
0
 10
-0.803726
 20
-6.23351
 11
-0.638657
 21
-6.14275
  0
LINE
  8
0
 10
-0.638657
 20
-6.14275
 11
-0.463516
 21
-6.07341
  0
LINE
  8
0
 10
-0.463516
 20
-6.07341
 11
-0.281067
 21
-6.02657
  0
LINE
  8
0
 10
-0.281067
 20
-6.02657
 11
-0.0941772
 21
-6.00294
  0
LINE
  8
0
 10
-0.0941772
 20
-6.00294
 11
0.0941772
 21
-6.00294
  0
LINE
  8
0
 10
0.0941772
 20
-6.00294
 11
0.281067
 21
-6.02657
  0
LINE
  8
0
 10
0.281067
 20
-6.02657
 11
0.463516
 21
-6.07341
  0
LINE
  8
0
 10
0.463516
 20
-6.07341
 11
0.638657
 21
-6.14275
  0
LINE
  8
0
 10
0.638657
 20
-6.14275
 11
0.803726
 21
-6.23351
  0
LINE
  8
0
 10
0.803726
 20
-6.23351
 11
0.956131
 21
-6.34422
  0
LINE
  8
0
 10
0.956131
 20
-6.34422
 11
1.09344
 21
-6.47318
  0
LINE
  8
0
 10
1.09344
 20
-6.47318
 11
1.21352
 21
-6.61832
  0
LINE
  8
0
 10
1.21352
 20
-6.61832
 11
1.31445
 21
-6.77736
  0
LINE
  8
0
 10
1.31445
 20
-6.77736
 11
1.39465
 21
-6.9478
  0
LINE
  8
0
 10
1.39465
 20
-6.9478
 11
1.45287
 21
-7.12695
  0
LINE
  8
0
 10
1.45287
 20
-7.12695
 11
1.48816
 21
-7.312
  0
LINE
  8
0
 10
1.48816
 20
-7.312
 11
1.5
 21
-7.5
  0
LINE
  8
0
 10
1.5
 20
-7.5
 11
1.48816
 21
-7.68799
  0
LINE
  8
0
 10
1.48816
 20
-7.68799
 11
1.45287
 21
-7.87303
  0
LINE
  8
0
 10
1.45287
 20
-7.87303
 11
1.39465
 21
-8.05219
  0
LINE
  8
0
 10
1.39465
 20
-8.05219
 11
1.31445
 21
-8.22263
  0
LINE
  8
0
 10
1.31445
 20
-8.22263
 11
1.21352
 21
-8.38167
  0
LINE
  8
0
 10
1.21352
 20
-8.38167
 11
1.09344
 21
-8.52681
  0
LINE
  8
0
 10
1.09344
 20
-8.52681
 11
0.956131
 21
-8.65576
  0
LINE
  8
0
 10
0.956131
 20
-8.65576
 11
0.803726
 21
-8.76648
  0
LINE
  8
0
 10
0.803726
 20
-8.76648
 11
0.638657
 21
-8.85724
  0
LINE
  8
0
 10
0.638657
 20
-8.85724
 11
0.463516
 21
-8.92657
  0
LINE
  8
0
 10
0.463516
 20
-8.92657
 11
0.281067
 21
-8.97342
  0
LINE
  8
0
 10
0.281067
 20
-8.97342
 11
0.0941772
 21
-8.99704
  0
LINE
  8
0
 10
0.0941772
 20
-8.99704
 11
-0.0941772
 21
-8.99704
  0
LINE
  8
0
 10
13.6855
 20
-8.22263
 11
13.6053
 21
-8.05219
  0
LINE
  8
0
 10
13.6053
 20
-8.05219
 11
13.5471
 21
-7.87303
  0
LINE
  8
0
 10
13.5471
 20
-7.87303
 11
13.5118
 21
-7.68799
  0
LINE
  8
0
 10
13.5118
 20
-7.68799
 11
13.5
 21
-7.5
  0
LINE
  8
0
 10
13.5
 20
-7.5
 11
13.5118
 21
-7.312
  0
LINE
  8
0
 10
13.5118
 20
-7.312
 11
13.5471
 21
-7.12695
  0
LINE
  8
0
 10
13.5471
 20
-7.12695
 11
13.6053
 21
-6.9478
  0
LINE
  8
0
 10
13.6053
 20
-6.9478
 11
13.6855
 21
-6.77736
  0
LINE
  8
0
 10
13.6855
 20
-6.77736
 11
13.7865
 21
-6.61832
  0
LINE
  8
0
 10
13.7865
 20
-6.61832
 11
13.9065
 21
-6.47318
  0
LINE
  8
0
 10
13.9065
 20
-6.47318
 11
14.0439
 21
-6.34422
  0
LINE
  8
0
 10
14.0439
 20
-6.34422
 11
14.1963
 21
-6.23351
  0
LINE
  8
0
 10
14.1963
 20
-6.23351
 11
14.3613
 21
-6.14275
  0
LINE
  8
0
 10
14.3613
 20
-6.14275
 11
14.5365
 21
-6.07341
  0
LINE
  8
0
 10
14.5365
 20
-6.07341
 11
14.7189
 21
-6.02657
  0
LINE
  8
0
 10
14.7189
 20
-6.02657
 11
14.9058
 21
-6.00294
  0
LINE
  8
0
 10
14.9058
 20
-6.00294
 11
15.0942
 21
-6.00294
  0
LINE
  8
0
 10
15.0942
 20
-6.00294
 11
15.2811
 21
-6.02657
  0
LINE
  8
0
 10
15.2811
 20
-6.02657
 11
15.4635
 21
-6.07341
  0
LINE
  8
0
 10
15.4635
 20
-6.07341
 11
15.6387
 21
-6.14275
  0
LINE
  8
0
 10
15.6387
 20
-6.14275
 11
15.8037
 21
-6.23351
  0
LINE
  8
0
 10
15.8037
 20
-6.23351
 11
15.9561
 21
-6.34422
  0
LINE
  8
0
 10
15.9561
 20
-6.34422
 11
16.0934
 21
-6.47318
  0
LINE
  8
0
 10
16.0934
 20
-6.47318
 11
16.2135
 21
-6.61832
  0
LINE
  8
0
 10
16.2135
 20
-6.61832
 11
16.3145
 21
-6.77736
  0
LINE
  8
0
 10
16.3145
 20
-6.77736
 11
16.3947
 21
-6.9478
  0
LINE
  8
0
 10
16.3947
 20
-6.9478
 11
16.4529
 21
-7.12695
  0
LINE
  8
0
 10
16.4529
 20
-7.12695
 11
16.4882
 21
-7.312
  0
LINE
  8
0
 10
16.4882
 20
-7.312
 11
16.5
 21
-7.5
  0
LINE
  8
0
 10
16.5
 20
-7.5
 11
16.4882
 21
-7.68799
  0
LINE
  8
0
 10
16.4882
 20
-7.68799
 11
16.4529
 21
-7.87303
  0
LINE
  8
0
 10
16.4529
 20
-7.87303
 11
16.3947
 21
-8.05219
  0
LINE
  8
0
 10
16.3947
 20
-8.05219
 11
16.3145
 21
-8.22263
  0
LINE
  8
0
 10
16.3145
 20
-8.22263
 11
16.2135
 21
-8.38167
  0
LINE
  8
0
 10
16.2135
 20
-8.38167
 11
16.0934
 21
-8.52681
  0
LINE
  8
0
 10
16.0934
 20
-8.52681
 11
15.9561
 21
-8.65576
  0
LINE
  8
0
 10
15.9561
 20
-8.65576
 11
15.8037
 21
-8.76648
  0
LINE
  8
0
 10
15.8037
 20
-8.76648
 11
15.6387
 21
-8.85724
  0
LINE
  8
0
 10
15.6387
 20
-8.85724
 11
15.4635
 21
-8.92657
  0
LINE
  8
0
 10
15.4635
 20
-8.92657
 11
15.2811
 21
-8.97342
  0
LINE
  8
0
 10
15.2811
 20
-8.97342
 11
15.0942
 21
-8.99704
  0
LINE
  8
0
 10
15.0942
 20
-8.99704
 11
14.9058
 21
-8.99704
  0
LINE
  8
0
 10
14.9058
 20
-8.99704
 11
14.7189
 21
-8.97342
  0
LINE
  8
0
 10
14.7189
 20
-8.97342
 11
14.5365
 21
-8.92657
  0
LINE
  8
0
 10
14.5365
 20
-8.92657
 11
14.3613
 21
-8.85724
  0
LINE
  8
0
 10
14.3613
 20
-8.85724
 11
14.1963
 21
-8.76648
  0
LINE
  8
0
 10
14.1963
 20
-8.76648
 11
14.0439
 21
-8.65576
  0
LINE
  8
0
 10
14.0439
 20
-8.65576
 11
13.9065
 21
-8.52681
  0
LINE
  8
0
 10
13.9065
 20
-8.52681
 11
13.7865
 21
-8.38167
  0
LINE
  8
0
 10
13.7865
 20
-8.38167
 11
13.6855
 21
-8.22263
  0
LINE
  8
0
 10
-7.59418
 20
-8.99704
 11
-7.78107
 21
-8.97342
  0
LINE
  8
0
 10
-7.78107
 20
-8.97342
 11
-7.96352
 21
-8.92657
  0
LINE
  8
0
 10
-7.96352
 20
-8.92657
 11
-8.13866
 21
-8.85724
  0
LINE
  8
0
 10
-8.13866
 20
-8.85724
 11
-8.30373
 21
-8.76648
  0
LINE
  8
0
 10
-8.30373
 20
-8.76648
 11
-8.45613
 21
-8.65576
  0
LINE
  8
0
 10
-8.45613
 20
-8.65576
 11
-8.59344
 21
-8.52681
  0
LINE
  8
0
 10
-8.59344
 20
-8.52681
 11
-8.71352
 21
-8.38167
  0
LINE
  8
0
 10
-8.71352
 20
-8.38167
 11
-8.81445
 21
-8.22263
  0
LINE
  8
0
 10
-8.81445
 20
-8.22263
 11
-8.89465
 21
-8.05219
  0
LINE
  8
0
 10
-8.89465
 20
-8.05219
 11
-8.95287
 21
-7.87303
  0
LINE
  8
0
 10
-8.95287
 20
-7.87303
 11
-8.98816
 21
-7.68799
  0
LINE
  8
0
 10
-8.98816
 20
-7.68799
 11
-9
 21
-7.5
  0
LINE
  8
0
 10
-9
 20
-7.5
 11
-8.98816
 21
-7.312
  0
LINE
  8
0
 10
-8.98816
 20
-7.312
 11
-8.95287
 21
-7.12695
  0
LINE
  8
0
 10
-8.95287
 20
-7.12695
 11
-8.89465
 21
-6.9478
  0
LINE
  8
0
 10
-8.89465
 20
-6.9478
 11
-8.81445
 21
-6.77736
  0
LINE
  8
0
 10
-8.81445
 20
-6.77736
 11
-8.71352
 21
-6.61832
  0
LINE
  8
0
 10
-8.71352
 20
-6.61832
 11
-8.59344
 21
-6.47318
  0
LINE
  8
0
 10
-8.59344
 20
-6.47318
 11
-8.45613
 21
-6.34422
  0
LINE
  8
0
 10
-8.45613
 20
-6.34422
 11
-8.30373
 21
-6.23351
  0
LINE
  8
0
 10
-8.30373
 20
-6.23351
 11
-8.13866
 21
-6.14275
  0
LINE
  8
0
 10
-8.13866
 20
-6.14275
 11
-7.96352
 21
-6.07341
  0
LINE
  8
0
 10
-7.96352
 20
-6.07341
 11
-7.78107
 21
-6.02657
  0
LINE
  8
0
 10
-7.78107
 20
-6.02657
 11
-7.59418
 21
-6.00294
  0
LINE
  8
0
 10
-7.59418
 20
-6.00294
 11
-7.40581
 21
-6.00294
  0
LINE
  8
0
 10
-7.40581
 20
-6.00294
 11
-7.21892
 21
-6.02657
  0
LINE
  8
0
 10
-7.21892
 20
-6.02657
 11
-7.03647
 21
-6.07341
  0
LINE
  8
0
 10
-7.03647
 20
-6.07341
 11
-6.86133
 21
-6.14275
  0
LINE
  8
0
 10
-6.86133
 20
-6.14275
 11
-6.69626
 21
-6.23351
  0
LINE
  8
0
 10
-6.69626
 20
-6.23351
 11
-6.54385
 21
-6.34422
  0
LINE
  8
0
 10
-6.54385
 20
-6.34422
 11
-6.40654
 21
-6.47318
  0
LINE
  8
0
 10
-6.40654
 20
-6.47318
 11
-6.28647
 21
-6.61832
  0
LINE
  8
0
 10
-6.28647
 20
-6.61832
 11
-6.18553
 21
-6.77736
  0
LINE
  8
0
 10
-6.18553
 20
-6.77736
 11
-6.10533
 21
-6.9478
  0
LINE
  8
0
 10
-6.10533
 20
-6.9478
 11
-6.04712
 21
-7.12695
  0
LINE
  8
0
 10
-6.04712
 20
-7.12695
 11
-6.01183
 21
-7.312
  0
LINE
  8
0
 10
-6.01183
 20
-7.312
 11
-6
 21
-7.5
  0
LINE
  8
0
 10
-6
 20
-7.5
 11
-6.01183
 21
-7.68799
  0
LINE
  8
0
 10
-6.01183
 20
-7.68799
 11
-6.04712
 21
-7.87303
  0
LINE
  8
0
 10
-6.04712
 20
-7.87303
 11
-6.10533
 21
-8.05219
  0
LINE
  8
0
 10
-6.10533
 20
-8.05219
 11
-6.18553
 21
-8.22263
  0
LINE
  8
0
 10
-6.18553
 20
-8.22263
 11
-6.28647
 21
-8.38167
  0
LINE
  8
0
 10
-6.28647
 20
-8.38167
 11
-6.40654
 21
-8.52681
  0
LINE
  8
0
 10
-6.40654
 20
-8.52681
 11
-6.54385
 21
-8.65576
  0
LINE
  8
0
 10
-6.54385
 20
-8.65576
 11
-6.69626
 21
-8.76648
  0
LINE
  8
0
 10
-6.69626
 20
-8.76648
 11
-6.86133
 21
-8.85724
  0
LINE
  8
0
 10
-6.86133
 20
-8.85724
 11
-7.03647
 21
-8.92657
  0
LINE
  8
0
 10
-7.03647
 20
-8.92657
 11
-7.21892
 21
-8.97342
  0
LINE
  8
0
 10
-7.21892
 20
-8.97342
 11
-7.40581
 21
-8.99704
  0
LINE
  8
0
 10
-7.40581
 20
-8.99704
 11
-7.59418
 21
-8.99704
  0
LINE
  8
0
 10
-15.0942
 20
-8.99704
 11
-15.2811
 21
-8.97342
  0
LINE
  8
0
 10
-15.2811
 20
-8.97342
 11
-15.4635
 21
-8.92657
  0
LINE
  8
0
 10
-15.4635
 20
-8.92657
 11
-15.6387
 21
-8.85724
  0
LINE
  8
0
 10
-15.6387
 20
-8.85724
 11
-15.8037
 21
-8.76648
  0
LINE
  8
0
 10
-15.8037
 20
-8.76648
 11
-15.9561
 21
-8.65576
  0
LINE
  8
0
 10
-15.9561
 20
-8.65576
 11
-16.0934
 21
-8.52681
  0
LINE
  8
0
 10
-16.0934
 20
-8.52681
 11
-16.2135
 21
-8.38167
  0
LINE
  8
0
 10
-16.2135
 20
-8.38167
 11
-16.3145
 21
-8.22263
  0
LINE
  8
0
 10
-16.3145
 20
-8.22263
 11
-16.3947
 21
-8.05219
  0
LINE
  8
0
 10
-16.3947
 20
-8.05219
 11
-16.4529
 21
-7.87303
  0
LINE
  8
0
 10
-16.4529
 20
-7.87303
 11
-16.4882
 21
-7.68799
  0
LINE
  8
0
 10
-16.4882
 20
-7.68799
 11
-16.5
 21
-7.5
  0
LINE
  8
0
 10
-16.5
 20
-7.5
 11
-16.4882
 21
-7.312
  0
LINE
  8
0
 10
-16.4882
 20
-7.312
 11
-16.4529
 21
-7.12695
  0
LINE
  8
0
 10
-16.4529
 20
-7.12695
 11
-16.3947
 21
-6.9478
  0
LINE
  8
0
 10
-16.3947
 20
-6.9478
 11
-16.3145
 21
-6.77736
  0
LINE
  8
0
 10
-16.3145
 20
-6.77736
 11
-16.2135
 21
-6.61832
  0
LINE
  8
0
 10
-16.2135
 20
-6.61832
 11
-16.0934
 21
-6.47318
  0
LINE
  8
0
 10
-16.0934
 20
-6.47318
 11
-15.9561
 21
-6.34422
  0
LINE
  8
0
 10
-15.9561
 20
-6.34422
 11
-15.8037
 21
-6.23351
  0
LINE
  8
0
 10
-15.8037
 20
-6.23351
 11
-15.6387
 21
-6.14275
  0
LINE
  8
0
 10
-15.6387
 20
-6.14275
 11
-15.4635
 21
-6.07341
  0
LINE
  8
0
 10
-15.4635
 20
-6.07341
 11
-15.2811
 21
-6.02657
  0
LINE
  8
0
 10
-15.2811
 20
-6.02657
 11
-15.0942
 21
-6.00294
  0
LINE
  8
0
 10
-15.0942
 20
-6.00294
 11
-14.9058
 21
-6.00294
  0
LINE
  8
0
 10
-14.9058
 20
-6.00294
 11
-14.7189
 21
-6.02657
  0
LINE
  8
0
 10
-14.7189
 20
-6.02657
 11
-14.5365
 21
-6.07341
  0
LINE
  8
0
 10
-14.5365
 20
-6.07341
 11
-14.3613
 21
-6.14275
  0
LINE
  8
0
 10
-14.3613
 20
-6.14275
 11
-14.1963
 21
-6.23351
  0
LINE
  8
0
 10
-14.1963
 20
-6.23351
 11
-14.0439
 21
-6.34422
  0
LINE
  8
0
 10
-14.0439
 20
-6.34422
 11
-13.9065
 21
-6.47318
  0
LINE
  8
0
 10
-13.9065
 20
-6.47318
 11
-13.7865
 21
-6.61832
  0
LINE
  8
0
 10
-13.7865
 20
-6.61832
 11
-13.6855
 21
-6.77736
  0
LINE
  8
0
 10
-13.6855
 20
-6.77736
 11
-13.6053
 21
-6.9478
  0
LINE
  8
0
 10
-13.6053
 20
-6.9478
 11
-13.5471
 21
-7.12695
  0
LINE
  8
0
 10
-13.5471
 20
-7.12695
 11
-13.5118
 21
-7.312
  0
LINE
  8
0
 10
-13.5118
 20
-7.312
 11
-13.5
 21
-7.5
  0
LINE
  8
0
 10
-13.5
 20
-7.5
 11
-13.5118
 21
-7.68799
  0
LINE
  8
0
 10
-13.5118
 20
-7.68799
 11
-13.5471
 21
-7.87303
  0
LINE
  8
0
 10
-13.5471
 20
-7.87303
 11
-13.6053
 21
-8.05219
  0
LINE
  8
0
 10
-13.6053
 20
-8.05219
 11
-13.6855
 21
-8.22263
  0
LINE
  8
0
 10
-13.6855
 20
-8.22263
 11
-13.7865
 21
-8.38167
  0
LINE
  8
0
 10
-13.7865
 20
-8.38167
 11
-13.9065
 21
-8.52681
  0
LINE
  8
0
 10
-13.9065
 20
-8.52681
 11
-14.0439
 21
-8.65576
  0
LINE
  8
0
 10
-14.0439
 20
-8.65576
 11
-14.1963
 21
-8.76648
  0
LINE
  8
0
 10
-14.1963
 20
-8.76648
 11
-14.3613
 21
-8.85724
  0
LINE
  8
0
 10
-14.3613
 20
-8.85724
 11
-14.5365
 21
-8.92657
  0
LINE
  8
0
 10
-14.5365
 20
-8.92657
 11
-14.7189
 21
-8.97342
  0
LINE
  8
0
 10
-14.7189
 20
-8.97342
 11
-14.9058
 21
-8.99704
  0
LINE
  8
0
 10
-14.9058
 20
-8.99704
 11
-15.0942
 21
-8.99704
  0
LINE
  8
0
 10
14.9058
 20
-16.497
 11
14.7189
 21
-16.4734
  0
LINE
  8
0
 10
14.7189
 20
-16.4734
 11
14.5365
 21
-16.4266
  0
LINE
  8
0
 10
14.5365
 20
-16.4266
 11
14.3613
 21
-16.3572
  0
LINE
  8
0
 10
14.3613
 20
-16.3572
 11
14.1963
 21
-16.2665
  0
LINE
  8
0
 10
14.1963
 20
-16.2665
 11
14.0439
 21
-16.1558
  0
LINE
  8
0
 10
14.0439
 20
-16.1558
 11
13.9065
 21
-16.0268
  0
LINE
  8
0
 10
13.9065
 20
-16.0268
 11
13.7865
 21
-15.8817
  0
LINE
  8
0
 10
13.7865
 20
-15.8817
 11
13.6855
 21
-15.7226
  0
LINE
  8
0
 10
13.6855
 20
-15.7226
 11
13.6053
 21
-15.5522
  0
LINE
  8
0
 10
13.6053
 20
-15.5522
 11
13.5471
 21
-15.373
  0
LINE
  8
0
 10
13.5471
 20
-15.373
 11
13.5118
 21
-15.188
  0
LINE
  8
0
 10
13.5118
 20
-15.188
 11
13.5
 21
-15
  0
LINE
  8
0
 10
13.5
 20
-15
 11
13.5118
 21
-14.812
  0
LINE
  8
0
 10
13.5118
 20
-14.812
 11
13.5471
 21
-14.627
  0
LINE
  8
0
 10
13.5471
 20
-14.627
 11
13.6053
 21
-14.4478
  0
LINE
  8
0
 10
13.6053
 20
-14.4478
 11
13.6855
 21
-14.2774
  0
LINE
  8
0
 10
13.6855
 20
-14.2774
 11
13.7865
 21
-14.1183
  0
LINE
  8
0
 10
13.7865
 20
-14.1183
 11
13.9065
 21
-13.9732
  0
LINE
  8
0
 10
13.9065
 20
-13.9732
 11
14.0439
 21
-13.8442
  0
LINE
  8
0
 10
14.0439
 20
-13.8442
 11
14.1963
 21
-13.7335
  0
LINE
  8
0
 10
14.1963
 20
-13.7335
 11
14.3613
 21
-13.6427
  0
LINE
  8
0
 10
14.3613
 20
-13.6427
 11
14.5365
 21
-13.5734
  0
LINE
  8
0
 10
14.5365
 20
-13.5734
 11
14.7189
 21
-13.5266
  0
LINE
  8
0
 10
14.7189
 20
-13.5266
 11
14.9058
 21
-13.5029
  0
LINE
  8
0
 10
14.9058
 20
-13.5029
 11
15.0942
 21
-13.5029
  0
LINE
  8
0
 10
15.0942
 20
-13.5029
 11
15.2811
 21
-13.5266
  0
LINE
  8
0
 10
15.2811
 20
-13.5266
 11
15.4635
 21
-13.5734
  0
LINE
  8
0
 10
15.4635
 20
-13.5734
 11
15.6387
 21
-13.6427
  0
LINE
  8
0
 10
15.6387
 20
-13.6427
 11
15.8037
 21
-13.7335
  0
LINE
  8
0
 10
15.8037
 20
-13.7335
 11
15.9561
 21
-13.8442
  0
LINE
  8
0
 10
15.9561
 20
-13.8442
 11
16.0934
 21
-13.9732
  0
LINE
  8
0
 10
16.0934
 20
-13.9732
 11
16.2135
 21
-14.1183
  0
LINE
  8
0
 10
16.2135
 20
-14.1183
 11
16.3145
 21
-14.2774
  0
LINE
  8
0
 10
16.3145
 20
-14.2774
 11
16.3947
 21
-14.4478
  0
LINE
  8
0
 10
16.3947
 20
-14.4478
 11
16.4529
 21
-14.627
  0
LINE
  8
0
 10
16.4529
 20
-14.627
 11
16.4882
 21
-14.812
  0
LINE
  8
0
 10
16.4882
 20
-14.812
 11
16.5
 21
-15
  0
LINE
  8
0
 10
16.5
 20
-15
 11
16.4882
 21
-15.188
  0
LINE
  8
0
 10
16.4882
 20
-15.188
 11
16.4529
 21
-15.373
  0
LINE
  8
0
 10
16.4529
 20
-15.373
 11
16.3947
 21
-15.5522
  0
LINE
  8
0
 10
16.3947
 20
-15.5522
 11
16.3145
 21
-15.7226
  0
LINE
  8
0
 10
16.3145
 20
-15.7226
 11
16.2135
 21
-15.8817
  0
LINE
  8
0
 10
16.2135
 20
-15.8817
 11
16.0934
 21
-16.0268
  0
LINE
  8
0
 10
16.0934
 20
-16.0268
 11
15.9561
 21
-16.1558
  0
LINE
  8
0
 10
15.9561
 20
-16.1558
 11
15.8037
 21
-16.2665
  0
LINE
  8
0
 10
15.8037
 20
-16.2665
 11
15.6387
 21
-16.3572
  0
LINE
  8
0
 10
15.6387
 20
-16.3572
 11
15.4635
 21
-16.4266
  0
LINE
  8
0
 10
15.4635
 20
-16.4266
 11
15.2811
 21
-16.4734
  0
LINE
  8
0
 10
15.2811
 20
-16.4734
 11
15.0942
 21
-16.497
  0
LINE
  8
0
 10
15.0942
 20
-16.497
 11
14.9058
 21
-16.497
  0
LINE
  8
0
 10
-0.0941772
 20
-16.497
 11
-0.281067
 21
-16.4734
  0
LINE
  8
0
 10
-0.281067
 20
-16.4734
 11
-0.463516
 21
-16.4266
  0
LINE
  8
0
 10
-0.463516
 20
-16.4266
 11
-0.638657
 21
-16.3572
  0
LINE
  8
0
 10
-0.638657
 20
-16.3572
 11
-0.803726
 21
-16.2665
  0
LINE
  8
0
 10
-0.803726
 20
-16.2665
 11
-0.956131
 21
-16.1558
  0
LINE
  8
0
 10
-0.956131
 20
-16.1558
 11
-1.09344
 21
-16.0268
  0
LINE
  8
0
 10
-1.09344
 20
-16.0268
 11
-1.21352
 21
-15.8817
  0
LINE
  8
0
 10
-1.21352
 20
-15.8817
 11
-1.31445
 21
-15.7226
  0
LINE
  8
0
 10
-1.31445
 20
-15.7226
 11
-1.39465
 21
-15.5522
  0
LINE
  8
0
 10
-1.39465
 20
-15.5522
 11
-1.45287
 21
-15.373
  0
LINE
  8
0
 10
-1.45287
 20
-15.373
 11
-1.48816
 21
-15.188
  0
LINE
  8
0
 10
-1.48816
 20
-15.188
 11
-1.5
 21
-15
  0
LINE
  8
0
 10
-1.5
 20
-15
 11
-1.48816
 21
-14.812
  0
LINE
  8
0
 10
-1.48816
 20
-14.812
 11
-1.45287
 21
-14.627
  0
LINE
  8
0
 10
-1.45287
 20
-14.627
 11
-1.39465
 21
-14.4478
  0
LINE
  8
0
 10
-1.39465
 20
-14.4478
 11
-1.31445
 21
-14.2774
  0
LINE
  8
0
 10
-1.31445
 20
-14.2774
 11
-1.21352
 21
-14.1183
  0
LINE
  8
0
 10
-1.21352
 20
-14.1183
 11
-1.09344
 21
-13.9732
  0
LINE
  8
0
 10
-1.09344
 20
-13.9732
 11
-0.956131
 21
-13.8442
  0
LINE
  8
0
 10
-0.956131
 20
-13.8442
 11
-0.803726
 21
-13.7335
  0
LINE
  8
0
 10
-0.803726
 20
-13.7335
 11
-0.638657
 21
-13.6427
  0
LINE
  8
0
 10
-0.638657
 20
-13.6427
 11
-0.463516
 21
-13.5734
  0
LINE
  8
0
 10
-0.463516
 20
-13.5734
 11
-0.281067
 21
-13.5266
  0
LINE
  8
0
 10
-0.281067
 20
-13.5266
 11
-0.0941772
 21
-13.5029
  0
LINE
  8
0
 10
-0.0941772
 20
-13.5029
 11
0.0941772
 21
-13.5029
  0
LINE
  8
0
 10
0.0941772
 20
-13.5029
 11
0.281067
 21
-13.5266
  0
LINE
  8
0
 10
0.281067
 20
-13.5266
 11
0.463516
 21
-13.5734
  0
LINE
  8
0
 10
0.463516
 20
-13.5734
 11
0.638657
 21
-13.6427
  0
LINE
  8
0
 10
0.638657
 20
-13.6427
 11
0.803726
 21
-13.7335
  0
LINE
  8
0
 10
0.803726
 20
-13.7335
 11
0.956131
 21
-13.8442
  0
LINE
  8
0
 10
0.956131
 20
-13.8442
 11
1.09344
 21
-13.9732
  0
LINE
  8
0
 10
1.09344
 20
-13.9732
 11
1.21352
 21
-14.1183
  0
LINE
  8
0
 10
1.21352
 20
-14.1183
 11
1.31445
 21
-14.2774
  0
LINE
  8
0
 10
1.31445
 20
-14.2774
 11
1.39465
 21
-14.4478
  0
LINE
  8
0
 10
1.39465
 20
-14.4478
 11
1.45287
 21
-14.627
  0
LINE
  8
0
 10
1.45287
 20
-14.627
 11
1.48816
 21
-14.812
  0
LINE
  8
0
 10
1.48816
 20
-14.812
 11
1.5
 21
-15
  0
LINE
  8
0
 10
1.5
 20
-15
 11
1.48816
 21
-15.188
  0
LINE
  8
0
 10
1.48816
 20
-15.188
 11
1.45287
 21
-15.373
  0
LINE
  8
0
 10
1.45287
 20
-15.373
 11
1.39465
 21
-15.5522
  0
LINE
  8
0
 10
1.39465
 20
-15.5522
 11
1.31445
 21
-15.7226
  0
LINE
  8
0
 10
1.31445
 20
-15.7226
 11
1.21352
 21
-15.8817
  0
LINE
  8
0
 10
1.21352
 20
-15.8817
 11
1.09344
 21
-16.0268
  0
LINE
  8
0
 10
1.09344
 20
-16.0268
 11
0.956131
 21
-16.1558
  0
LINE
  8
0
 10
0.956131
 20
-16.1558
 11
0.803726
 21
-16.2665
  0
LINE
  8
0
 10
0.803726
 20
-16.2665
 11
0.638657
 21
-16.3572
  0
LINE
  8
0
 10
0.638657
 20
-16.3572
 11
0.463516
 21
-16.4266
  0
LINE
  8
0
 10
0.463516
 20
-16.4266
 11
0.281067
 21
-16.4734
  0
LINE
  8
0
 10
0.281067
 20
-16.4734
 11
0.0941772
 21
-16.497
  0
LINE
  8
0
 10
0.0941772
 20
-16.497
 11
-0.0941772
 21
-16.497
  0
LINE
  8
0
 10
-15.0942
 20
-16.497
 11
-15.2811
 21
-16.4734
  0
LINE
  8
0
 10
-15.2811
 20
-16.4734
 11
-15.4635
 21
-16.4266
  0
LINE
  8
0
 10
-15.4635
 20
-16.4266
 11
-15.6387
 21
-16.3572
  0
LINE
  8
0
 10
-15.6387
 20
-16.3572
 11
-15.8037
 21
-16.2665
  0
LINE
  8
0
 10
-15.8037
 20
-16.2665
 11
-15.9561
 21
-16.1558
  0
LINE
  8
0
 10
-15.9561
 20
-16.1558
 11
-16.0934
 21
-16.0268
  0
LINE
  8
0
 10
-16.0934
 20
-16.0268
 11
-16.2135
 21
-15.8817
  0
LINE
  8
0
 10
-16.2135
 20
-15.8817
 11
-16.3145
 21
-15.7226
  0
LINE
  8
0
 10
-16.3145
 20
-15.7226
 11
-16.3947
 21
-15.5522
  0
LINE
  8
0
 10
-16.3947
 20
-15.5522
 11
-16.4529
 21
-15.373
  0
LINE
  8
0
 10
-16.4529
 20
-15.373
 11
-16.4882
 21
-15.188
  0
LINE
  8
0
 10
-16.4882
 20
-15.188
 11
-16.5
 21
-15
  0
LINE
  8
0
 10
-16.5
 20
-15
 11
-16.4882
 21
-14.812
  0
LINE
  8
0
 10
-16.4882
 20
-14.812
 11
-16.4529
 21
-14.627
  0
LINE
  8
0
 10
-16.4529
 20
-14.627
 11
-16.3947
 21
-14.4478
  0
LINE
  8
0
 10
-16.3947
 20
-14.4478
 11
-16.3145
 21
-14.2774
  0
LINE
  8
0
 10
-16.3145
 20
-14.2774
 11
-16.2135
 21
-14.1183
  0
LINE
  8
0
 10
-16.2135
 20
-14.1183
 11
-16.0934
 21
-13.9732
  0
LINE
  8
0
 10
-16.0934
 20
-13.9732
 11
-15.9561
 21
-13.8442
  0
LINE
  8
0
 10
-15.9561
 20
-13.8442
 11
-15.8037
 21
-13.7335
  0
LINE
  8
0
 10
-15.8037
 20
-13.7335
 11
-15.6387
 21
-13.6427
  0
LINE
  8
0
 10
-15.6387
 20
-13.6427
 11
-15.4635
 21
-13.5734
  0
LINE
  8
0
 10
-15.4635
 20
-13.5734
 11
-15.2811
 21
-13.5266
  0
LINE
  8
0
 10
-15.2811
 20
-13.5266
 11
-15.0942
 21
-13.5029
  0
LINE
  8
0
 10
-15.0942
 20
-13.5029
 11
-14.9058
 21
-13.5029
  0
LINE
  8
0
 10
-14.9058
 20
-13.5029
 11
-14.7189
 21
-13.5266
  0
LINE
  8
0
 10
-14.7189
 20
-13.5266
 11
-14.5365
 21
-13.5734
  0
LINE
  8
0
 10
-14.5365
 20
-13.5734
 11
-14.3613
 21
-13.6427
  0
LINE
  8
0
 10
-14.3613
 20
-13.6427
 11
-14.1963
 21
-13.7335
  0
LINE
  8
0
 10
-14.1963
 20
-13.7335
 11
-14.0439
 21
-13.8442
  0
LINE
  8
0
 10
-14.0439
 20
-13.8442
 11
-13.9065
 21
-13.9732
  0
LINE
  8
0
 10
-13.9065
 20
-13.9732
 11
-13.7865
 21
-14.1183
  0
LINE
  8
0
 10
-13.7865
 20
-14.1183
 11
-13.6855
 21
-14.2774
  0
LINE
  8
0
 10
-13.6855
 20
-14.2774
 11
-13.6053
 21
-14.4478
  0
LINE
  8
0
 10
-13.6053
 20
-14.4478
 11
-13.5471
 21
-14.627
  0
LINE
  8
0
 10
-13.5471
 20
-14.627
 11
-13.5118
 21
-14.812
  0
LINE
  8
0
 10
-13.5118
 20
-14.812
 11
-13.5
 21
-15
  0
LINE
  8
0
 10
-13.5
 20
-15
 11
-13.5118
 21
-15.188
  0
LINE
  8
0
 10
-13.5118
 20
-15.188
 11
-13.5471
 21
-15.373
  0
LINE
  8
0
 10
-13.5471
 20
-15.373
 11
-13.6053
 21
-15.5522
  0
LINE
  8
0
 10
-13.6053
 20
-15.5522
 11
-13.6855
 21
-15.7226
  0
LINE
  8
0
 10
-13.6855
 20
-15.7226
 11
-13.7865
 21
-15.8817
  0
LINE
  8
0
 10
-13.7865
 20
-15.8817
 11
-13.9065
 21
-16.0268
  0
LINE
  8
0
 10
-13.9065
 20
-16.0268
 11
-14.0439
 21
-16.1558
  0
LINE
  8
0
 10
-14.0439
 20
-16.1558
 11
-14.1963
 21
-16.2665
  0
LINE
  8
0
 10
-14.1963
 20
-16.2665
 11
-14.3613
 21
-16.3572
  0
LINE
  8
0
 10
-14.3613
 20
-16.3572
 11
-14.5365
 21
-16.4266
  0
LINE
  8
0
 10
-14.5365
 20
-16.4266
 11
-14.7189
 21
-16.4734
  0
LINE
  8
0
 10
-14.7189
 20
-16.4734
 11
-14.9058
 21
-16.497
  0
LINE
  8
0
 10
-14.9058
 20
-16.497
 11
-15.0942
 21
-16.497
  0
LINE
  8
0
 10
7.40581
 20
-16.497
 11
7.21892
 21
-16.4734
  0
LINE
  8
0
 10
7.21892
 20
-16.4734
 11
7.03647
 21
-16.4266
  0
LINE
  8
0
 10
7.03647
 20
-16.4266
 11
6.86133
 21
-16.3572
  0
LINE
  8
0
 10
6.86133
 20
-16.3572
 11
6.69626
 21
-16.2665
  0
LINE
  8
0
 10
6.69626
 20
-16.2665
 11
6.54385
 21
-16.1558
  0
LINE
  8
0
 10
6.54385
 20
-16.1558
 11
6.40654
 21
-16.0268
  0
LINE
  8
0
 10
6.40654
 20
-16.0268
 11
6.28647
 21
-15.8817
  0
LINE
  8
0
 10
6.28647
 20
-15.8817
 11
6.18553
 21
-15.7226
  0
LINE
  8
0
 10
6.18553
 20
-15.7226
 11
6.10533
 21
-15.5522
  0
LINE
  8
0
 10
6.10533
 20
-15.5522
 11
6.04712
 21
-15.373
  0
LINE
  8
0
 10
6.04712
 20
-15.373
 11
6.01183
 21
-15.188
  0
LINE
  8
0
 10
6.01183
 20
-15.188
 11
6
 21
-15
  0
LINE
  8
0
 10
6
 20
-15
 11
6.01183
 21
-14.812
  0
LINE
  8
0
 10
6.01183
 20
-14.812
 11
6.04712
 21
-14.627
  0
LINE
  8
0
 10
6.04712
 20
-14.627
 11
6.10533
 21
-14.4478
  0
LINE
  8
0
 10
6.10533
 20
-14.4478
 11
6.18553
 21
-14.2774
  0
LINE
  8
0
 10
6.18553
 20
-14.2774
 11
6.28647
 21
-14.1183
  0
LINE
  8
0
 10
6.28647
 20
-14.1183
 11
6.40654
 21
-13.9732
  0
LINE
  8
0
 10
6.40654
 20
-13.9732
 11
6.54385
 21
-13.8442
  0
LINE
  8
0
 10
6.54385
 20
-13.8442
 11
6.69626
 21
-13.7335
  0
LINE
  8
0
 10
6.69626
 20
-13.7335
 11
6.86133
 21
-13.6427
  0
LINE
  8
0
 10
6.86133
 20
-13.6427
 11
7.03647
 21
-13.5734
  0
LINE
  8
0
 10
7.03647
 20
-13.5734
 11
7.21892
 21
-13.5266
  0
LINE
  8
0
 10
7.21892
 20
-13.5266
 11
7.40581
 21
-13.5029
  0
LINE
  8
0
 10
7.40581
 20
-13.5029
 11
7.59418
 21
-13.5029
  0
LINE
  8
0
 10
7.59418
 20
-13.5029
 11
7.78107
 21
-13.5266
  0
LINE
  8
0
 10
7.78107
 20
-13.5266
 11
7.96352
 21
-13.5734
  0
LINE
  8
0
 10
7.96352
 20
-13.5734
 11
8.13866
 21
-13.6427
  0
LINE
  8
0
 10
8.13866
 20
-13.6427
 11
8.30373
 21
-13.7335
  0
LINE
  8
0
 10
8.30373
 20
-13.7335
 11
8.45613
 21
-13.8442
  0
LINE
  8
0
 10
8.45613
 20
-13.8442
 11
8.59344
 21
-13.9732
  0
LINE
  8
0
 10
8.59344
 20
-13.9732
 11
8.71352
 21
-14.1183
  0
LINE
  8
0
 10
8.71352
 20
-14.1183
 11
8.81445
 21
-14.2774
  0
LINE
  8
0
 10
8.81445
 20
-14.2774
 11
8.89465
 21
-14.4478
  0
LINE
  8
0
 10
8.89465
 20
-14.4478
 11
8.95287
 21
-14.627
  0
LINE
  8
0
 10
8.95287
 20
-14.627
 11
8.98816
 21
-14.812
  0
LINE
  8
0
 10
8.98816
 20
-14.812
 11
9
 21
-15
  0
LINE
  8
0
 10
9
 20
-15
 11
8.98816
 21
-15.188
  0
LINE
  8
0
 10
8.98816
 20
-15.188
 11
8.95287
 21
-15.373
  0
LINE
  8
0
 10
8.95287
 20
-15.373
 11
8.89465
 21
-15.5522
  0
LINE
  8
0
 10
8.89465
 20
-15.5522
 11
8.81445
 21
-15.7226
  0
LINE
  8
0
 10
8.81445
 20
-15.7226
 11
8.71352
 21
-15.8817
  0
LINE
  8
0
 10
8.71352
 20
-15.8817
 11
8.59344
 21
-16.0268
  0
LINE
  8
0
 10
8.59344
 20
-16.0268
 11
8.45613
 21
-16.1558
  0
LINE
  8
0
 10
8.45613
 20
-16.1558
 11
8.30373
 21
-16.2665
  0
LINE
  8
0
 10
8.30373
 20
-16.2665
 11
8.13866
 21
-16.3572
  0
LINE
  8
0
 10
8.13866
 20
-16.3572
 11
7.96352
 21
-16.4266
  0
LINE
  8
0
 10
7.96352
 20
-16.4266
 11
7.78107
 21
-16.4734
  0
LINE
  8
0
 10
7.78107
 20
-16.4734
 11
7.59418
 21
-16.497
  0
LINE
  8
0
 10
7.59418
 20
-16.497
 11
7.40581
 21
-16.497
  0
LINE
  8
0
 10
-7.59418
 20
-16.497
 11
-7.78107
 21
-16.4734
  0
LINE
  8
0
 10
-7.78107
 20
-16.4734
 11
-7.96352
 21
-16.4266
  0
LINE
  8
0
 10
-7.96352
 20
-16.4266
 11
-8.13866
 21
-16.3572
  0
LINE
  8
0
 10
-8.13866
 20
-16.3572
 11
-8.30373
 21
-16.2665
  0
LINE
  8
0
 10
-8.30373
 20
-16.2665
 11
-8.45613
 21
-16.1558
  0
LINE
  8
0
 10
-8.45613
 20
-16.1558
 11
-8.59344
 21
-16.0268
  0
LINE
  8
0
 10
-8.59344
 20
-16.0268
 11
-8.71352
 21
-15.8817
  0
LINE
  8
0
 10
-8.71352
 20
-15.8817
 11
-8.81445
 21
-15.7226
  0
LINE
  8
0
 10
-8.81445
 20
-15.7226
 11
-8.89465
 21
-15.5522
  0
LINE
  8
0
 10
-8.89465
 20
-15.5522
 11
-8.95287
 21
-15.373
  0
LINE
  8
0
 10
-8.95287
 20
-15.373
 11
-8.98816
 21
-15.188
  0
LINE
  8
0
 10
-8.98816
 20
-15.188
 11
-9
 21
-15
  0
LINE
  8
0
 10
-9
 20
-15
 11
-8.98816
 21
-14.812
  0
LINE
  8
0
 10
-8.98816
 20
-14.812
 11
-8.95287
 21
-14.627
  0
LINE
  8
0
 10
-8.95287
 20
-14.627
 11
-8.89465
 21
-14.4478
  0
LINE
  8
0
 10
-8.89465
 20
-14.4478
 11
-8.81445
 21
-14.2774
  0
LINE
  8
0
 10
-8.81445
 20
-14.2774
 11
-8.71352
 21
-14.1183
  0
LINE
  8
0
 10
-8.71352
 20
-14.1183
 11
-8.59344
 21
-13.9732
  0
LINE
  8
0
 10
-8.59344
 20
-13.9732
 11
-8.45613
 21
-13.8442
  0
LINE
  8
0
 10
-8.45613
 20
-13.8442
 11
-8.30373
 21
-13.7335
  0
LINE
  8
0
 10
-8.30373
 20
-13.7335
 11
-8.13866
 21
-13.6427
  0
LINE
  8
0
 10
-8.13866
 20
-13.6427
 11
-7.96352
 21
-13.5734
  0
LINE
  8
0
 10
-7.96352
 20
-13.5734
 11
-7.78107
 21
-13.5266
  0
LINE
  8
0
 10
-7.78107
 20
-13.5266
 11
-7.59418
 21
-13.5029
  0
LINE
  8
0
 10
-7.59418
 20
-13.5029
 11
-7.40581
 21
-13.5029
  0
LINE
  8
0
 10
-7.40581
 20
-13.5029
 11
-7.21892
 21
-13.5266
  0
LINE
  8
0
 10
-7.21892
 20
-13.5266
 11
-7.03647
 21
-13.5734
  0
LINE
  8
0
 10
-7.03647
 20
-13.5734
 11
-6.86133
 21
-13.6427
  0
LINE
  8
0
 10
-6.86133
 20
-13.6427
 11
-6.69626
 21
-13.7335
  0
LINE
  8
0
 10
-6.69626
 20
-13.7335
 11
-6.54385
 21
-13.8442
  0
LINE
  8
0
 10
-6.54385
 20
-13.8442
 11
-6.40654
 21
-13.9732
  0
LINE
  8
0
 10
-6.40654
 20
-13.9732
 11
-6.28647
 21
-14.1183
  0
LINE
  8
0
 10
-6.28647
 20
-14.1183
 11
-6.18553
 21
-14.2774
  0
LINE
  8
0
 10
-6.18553
 20
-14.2774
 11
-6.10533
 21
-14.4478
  0
LINE
  8
0
 10
-6.10533
 20
-14.4478
 11
-6.04712
 21
-14.627
  0
LINE
  8
0
 10
-6.04712
 20
-14.627
 11
-6.01183
 21
-14.812
  0
LINE
  8
0
 10
-6.01183
 20
-14.812
 11
-6
 21
-15
  0
LINE
  8
0
 10
-6
 20
-15
 11
-6.01183
 21
-15.188
  0
LINE
  8
0
 10
-6.01183
 20
-15.188
 11
-6.04712
 21
-15.373
  0
LINE
  8
0
 10
-6.04712
 20
-15.373
 11
-6.10533
 21
-15.5522
  0
LINE
  8
0
 10
-6.10533
 20
-15.5522
 11
-6.18553
 21
-15.7226
  0
LINE
  8
0
 10
-6.18553
 20
-15.7226
 11
-6.28647
 21
-15.8817
  0
LINE
  8
0
 10
-6.28647
 20
-15.8817
 11
-6.40654
 21
-16.0268
  0
LINE
  8
0
 10
-6.40654
 20
-16.0268
 11
-6.54385
 21
-16.1558
  0
LINE
  8
0
 10
-6.54385
 20
-16.1558
 11
-6.69626
 21
-16.2665
  0
LINE
  8
0
 10
-6.69626
 20
-16.2665
 11
-6.86133
 21
-16.3572
  0
LINE
  8
0
 10
-6.86133
 20
-16.3572
 11
-7.03647
 21
-16.4266
  0
LINE
  8
0
 10
-7.03647
 20
-16.4266
 11
-7.21892
 21
-16.4734
  0
LINE
  8
0
 10
-7.21892
 20
-16.4734
 11
-7.40581
 21
-16.497
  0
LINE
  8
0
 10
-7.40581
 20
-16.497
 11
-7.59418
 21
-16.497
  0
LINE
  8
0
 10
8.30373
 20
-8.76648
 11
8.13866
 21
-8.85724
  0
LINE
  8
0
 10
8.13866
 20
-8.85724
 11
7.96352
 21
-8.92657
  0
LINE
  8
0
 10
7.96352
 20
-8.92657
 11
7.78107
 21
-8.97342
  0
LINE
  8
0
 10
7.78107
 20
-8.97342
 11
7.59418
 21
-8.99704
  0
LINE
  8
0
 10
7.59418
 20
-8.99704
 11
7.40581
 21
-8.99704
  0
LINE
  8
0
 10
7.40581
 20
-8.99704
 11
7.21892
 21
-8.97342
  0
LINE
  8
0
 10
7.21892
 20
-8.97342
 11
7.03647
 21
-8.92657
  0
LINE
  8
0
 10
7.03647
 20
-8.92657
 11
6.86133
 21
-8.85724
  0
LINE
  8
0
 10
6.86133
 20
-8.85724
 11
6.69626
 21
-8.76648
  0
LINE
  8
0
 10
6.69626
 20
-8.76648
 11
6.54385
 21
-8.65576
  0
LINE
  8
0
 10
6.54385
 20
-8.65576
 11
6.40654
 21
-8.52681
  0
LINE
  8
0
 10
6.40654
 20
-8.52681
 11
6.28647
 21
-8.38167
  0
LINE
  8
0
 10
6.28647
 20
-8.38167
 11
6.18553
 21
-8.22263
  0
LINE
  8
0
 10
6.18553
 20
-8.22263
 11
6.10533
 21
-8.05219
  0
LINE
  8
0
 10
6.10533
 20
-8.05219
 11
6.04712
 21
-7.87303
  0
LINE
  8
0
 10
6.04712
 20
-7.87303
 11
6.01183
 21
-7.68799
  0
LINE
  8
0
 10
6.01183
 20
-7.68799
 11
6
 21
-7.5
  0
LINE
  8
0
 10
6
 20
-7.5
 11
6.01183
 21
-7.312
  0
LINE
  8
0
 10
6.01183
 20
-7.312
 11
6.04712
 21
-7.12695
  0
LINE
  8
0
 10
6.04712
 20
-7.12695
 11
6.10533
 21
-6.9478
  0
LINE
  8
0
 10
6.10533
 20
-6.9478
 11
6.18553
 21
-6.77736
  0
LINE
  8
0
 10
6.18553
 20
-6.77736
 11
6.28647
 21
-6.61832
  0
LINE
  8
0
 10
6.28647
 20
-6.61832
 11
6.40654
 21
-6.47318
  0
LINE
  8
0
 10
6.40654
 20
-6.47318
 11
6.54385
 21
-6.34422
  0
LINE
  8
0
 10
6.54385
 20
-6.34422
 11
6.69626
 21
-6.23351
  0
LINE
  8
0
 10
6.69626
 20
-6.23351
 11
6.86133
 21
-6.14275
  0
LINE
  8
0
 10
6.86133
 20
-6.14275
 11
7.03647
 21
-6.07341
  0
LINE
  8
0
 10
7.03647
 20
-6.07341
 11
7.21892
 21
-6.02657
  0
LINE
  8
0
 10
7.21892
 20
-6.02657
 11
7.40581
 21
-6.00294
  0
LINE
  8
0
 10
7.40581
 20
-6.00294
 11
7.59418
 21
-6.00294
  0
LINE
  8
0
 10
7.59418
 20
-6.00294
 11
7.78107
 21
-6.02657
  0
LINE
  8
0
 10
7.78107
 20
-6.02657
 11
7.96352
 21
-6.07341
  0
LINE
  8
0
 10
7.96352
 20
-6.07341
 11
8.13866
 21
-6.14275
  0
LINE
  8
0
 10
8.13866
 20
-6.14275
 11
8.30373
 21
-6.23351
  0
LINE
  8
0
 10
8.30373
 20
-6.23351
 11
8.45613
 21
-6.34422
  0
LINE
  8
0
 10
8.45613
 20
-6.34422
 11
8.59344
 21
-6.47318
  0
LINE
  8
0
 10
8.59344
 20
-6.47318
 11
8.71352
 21
-6.61832
  0
LINE
  8
0
 10
8.71352
 20
-6.61832
 11
8.81445
 21
-6.77736
  0
LINE
  8
0
 10
8.81445
 20
-6.77736
 11
8.89465
 21
-6.9478
  0
LINE
  8
0
 10
8.89465
 20
-6.9478
 11
8.95287
 21
-7.12695
  0
LINE
  8
0
 10
8.95287
 20
-7.12695
 11
8.98816
 21
-7.312
  0
LINE
  8
0
 10
8.98816
 20
-7.312
 11
9
 21
-7.5
  0
LINE
  8
0
 10
9
 20
-7.5
 11
8.98816
 21
-7.68799
  0
LINE
  8
0
 10
8.98816
 20
-7.68799
 11
8.95287
 21
-7.87303
  0
LINE
  8
0
 10
8.95287
 20
-7.87303
 11
8.89465
 21
-8.05219
  0
LINE
  8
0
 10
8.89465
 20
-8.05219
 11
8.81445
 21
-8.22263
  0
LINE
  8
0
 10
8.81445
 20
-8.22263
 11
8.71352
 21
-8.38167
  0
LINE
  8
0
 10
8.71352
 20
-8.38167
 11
8.59344
 21
-8.52681
  0
LINE
  8
0
 10
8.59344
 20
-8.52681
 11
8.45613
 21
-8.65576
  0
LINE
  8
0
 10
8.45613
 20
-8.65576
 11
8.30373
 21
-8.76648
  0
ENDSEC
  0
SECTION
  2
OBJECTS
  0
DICTIONARY
  0
ENDSEC
  0
EOF
