  0
SECTION
  2
BLOCKS
  0
ENDSEC
  0
SECTION
  2
ENTITIES
  0
LINE
  8
0
 10
23.9684
 20
-3.4557
 11
24.2725
 21
-3.37764
  0
LINE
  8
0
 10
24.2725
 20
-3.37764
 11
24.5644
 21
-3.26205
  0
LINE
  8
0
 10
24.5644
 20
-3.26205
 11
24.8396
 21
-3.11081
  0
LINE
  8
0
 10
24.8396
 20
-3.11081
 11
25.0936
 21
-2.92627
  0
LINE
  8
0
 10
25.0936
 20
-2.92627
 11
25.3224
 21
-2.71136
  0
LINE
  8
0
 10
25.3224
 20
-2.71136
 11
25.5225
 21
-2.46945
  0
LINE
  8
0
 10
25.5225
 20
-2.46945
 11
25.6908
 21
-2.20438
  0
LINE
  8
0
 10
25.6908
 20
-2.20438
 11
25.8244
 21
-1.9203
  0
LINE
  8
0
 10
25.8244
 20
-1.9203
 11
25.9214
 21
-1.62172
  0
LINE
  8
0
 10
25.9214
 20
-1.62172
 11
25.9803
 21
-1.31332
  0
LINE
  8
0
 10
25.9803
 20
-1.31332
 11
26
 21
-1
  0
LINE
  8
0
 10
26
 20
-1
 11
26
 21
1
  0
LINE
  8
0
 10
26
 20
1
 11
25.9803
 21
1.31332
  0
LINE
  8
0
 10
25.9803
 20
1.31332
 11
25.9214
 21
1.62172
  0
LINE
  8
0
 10
25.9214
 20
1.62172
 11
25.8244
 21
1.9203
  0
LINE
  8
0
 10
25.8244
 20
1.9203
 11
25.6908
 21
2.20438
  0
LINE
  8
0
 10
25.6908
 20
2.20438
 11
25.5225
 21
2.46945
  0
LINE
  8
0
 10
25.5225
 20
2.46945
 11
25.3224
 21
2.71136
  0
LINE
  8
0
 10
25.3224
 20
2.71136
 11
25.0936
 21
2.92627
  0
LINE
  8
0
 10
25.0936
 20
2.92627
 11
24.8396
 21
3.11081
  0
LINE
  8
0
 10
24.8396
 20
3.11081
 11
24.5644
 21
3.26205
  0
LINE
  8
0
 10
24.5644
 20
3.26205
 11
24.2725
 21
3.37764
  0
LINE
  8
0
 10
24.2725
 20
3.37764
 11
23.9684
 21
3.4557
  0
LINE
  8
0
 10
23.9684
 20
3.4557
 11
23.657
 21
3.49506
  0
LINE
  8
0
 10
23.657
 20
3.49506
 11
-23.657
 21
3.49506
  0
LINE
  8
0
 10
-23.657
 20
3.49506
 11
-23.9684
 21
3.4557
  0
LINE
  8
0
 10
-23.9684
 20
3.4557
 11
-24.2725
 21
3.37764
  0
LINE
  8
0
 10
-24.2725
 20
3.37764
 11
-24.5644
 21
3.26205
  0
LINE
  8
0
 10
-24.5644
 20
3.26205
 11
-24.8396
 21
3.11081
  0
LINE
  8
0
 10
-24.8396
 20
3.11081
 11
-25.0936
 21
2.92627
  0
LINE
  8
0
 10
-25.0936
 20
2.92627
 11
-25.3224
 21
2.71136
  0
LINE
  8
0
 10
-25.3224
 20
2.71136
 11
-25.5225
 21
2.46945
  0
LINE
  8
0
 10
-25.5225
 20
2.46945
 11
-25.6908
 21
2.20438
  0
LINE
  8
0
 10
-25.6908
 20
2.20438
 11
-25.8244
 21
1.9203
  0
LINE
  8
0
 10
-25.8244
 20
1.9203
 11
-25.9214
 21
1.62172
  0
LINE
  8
0
 10
-25.9214
 20
1.62172
 11
-25.9803
 21
1.31332
  0
LINE
  8
0
 10
-25.9803
 20
1.31332
 11
-26
 21
1
  0
LINE
  8
0
 10
-26
 20
1
 11
-26
 21
-1
  0
LINE
  8
0
 10
-26
 20
-1
 11
-25.9803
 21
-1.31332
  0
LINE
  8
0
 10
-25.9803
 20
-1.31332
 11
-25.9214
 21
-1.62172
  0
LINE
  8
0
 10
-25.9214
 20
-1.62172
 11
-25.8244
 21
-1.9203
  0
LINE
  8
0
 10
-25.8244
 20
-1.9203
 11
-25.6908
 21
-2.20438
  0
LINE
  8
0
 10
-25.6908
 20
-2.20438
 11
-25.5225
 21
-2.46945
  0
LINE
  8
0
 10
-25.5225
 20
-2.46945
 11
-25.3224
 21
-2.71136
  0
LINE
  8
0
 10
-25.3224
 20
-2.71136
 11
-25.0936
 21
-2.92627
  0
LINE
  8
0
 10
-25.0936
 20
-2.92627
 11
-24.8396
 21
-3.11081
  0
LINE
  8
0
 10
-24.8396
 20
-3.11081
 11
-24.5644
 21
-3.26205
  0
LINE
  8
0
 10
-24.5644
 20
-3.26205
 11
-24.2725
 21
-3.37764
  0
LINE
  8
0
 10
-24.2725
 20
-3.37764
 11
-23.9684
 21
-3.4557
  0
LINE
  8
0
 10
-23.9684
 20
-3.4557
 11
-23.657
 21
-3.49506
  0
LINE
  8
0
 10
-23.657
 20
-3.49506
 11
23.657
 21
-3.49506
  0
LINE
  8
0
 10
23.657
 20
-3.49506
 11
23.9684
 21
-3.4557
  0
LINE
  8
0
 10
14.9058
 20
-1.49704
 11
14.7189
 21
-1.47342
  0
LINE
  8
0
 10
14.7189
 20
-1.47342
 11
14.5365
 21
-1.42657
  0
LINE
  8
0
 10
14.5365
 20
-1.42657
 11
14.3613
 21
-1.35724
  0
LINE
  8
0
 10
14.3613
 20
-1.35724
 11
14.1963
 21
-1.26648
  0
LINE
  8
0
 10
14.1963
 20
-1.26648
 11
14.0439
 21
-1.15576
  0
LINE
  8
0
 10
14.0439
 20
-1.15576
 11
13.9065
 21
-1.02681
  0
LINE
  8
0
 10
13.9065
 20
-1.02681
 11
13.7865
 21
-0.881668
  0
LINE
  8
0
 10
13.7865
 20
-0.881668
 11
13.6855
 21
-0.722626
  0
LINE
  8
0
 10
13.6855
 20
-0.722626
 11
13.6053
 21
-0.552185
  0
LINE
  8
0
 10
13.6053
 20
-0.552185
 11
13.5471
 21
-0.373032
  0
LINE
  8
0
 10
13.5471
 20
-0.373032
 11
13.5118
 21
-0.187988
  0
LINE
  8
0
 10
13.5118
 20
-0.187988
 11
13.5
 21
0
  0
LINE
  8
0
 10
13.5
 20
0
 11
13.5118
 21
0.187988
  0
LINE
  8
0
 10
13.5118
 20
0.187988
 11
13.5471
 21
0.373032
  0
LINE
  8
0
 10
13.5471
 20
0.373032
 11
13.6053
 21
0.552185
  0
LINE
  8
0
 10
13.6053
 20
0.552185
 11
13.6855
 21
0.722626
  0
LINE
  8
0
 10
13.6855
 20
0.722626
 11
13.7865
 21
0.881668
  0
LINE
  8
0
 10
13.7865
 20
0.881668
 11
13.9065
 21
1.02681
  0
LINE
  8
0
 10
13.9065
 20
1.02681
 11
14.0439
 21
1.15576
  0
LINE
  8
0
 10
14.0439
 20
1.15576
 11
14.1963
 21
1.26648
  0
LINE
  8
0
 10
14.1963
 20
1.26648
 11
14.3613
 21
1.35724
  0
LINE
  8
0
 10
14.3613
 20
1.35724
 11
14.5365
 21
1.42657
  0
LINE
  8
0
 10
14.5365
 20
1.42657
 11
14.7189
 21
1.47342
  0
LINE
  8
0
 10
14.7189
 20
1.47342
 11
14.9058
 21
1.49704
  0
LINE
  8
0
 10
14.9058
 20
1.49704
 11
15.0942
 21
1.49704
  0
LINE
  8
0
 10
15.0942
 20
1.49704
 11
15.2811
 21
1.47342
  0
LINE
  8
0
 10
15.2811
 20
1.47342
 11
15.4635
 21
1.42657
  0
LINE
  8
0
 10
15.4635
 20
1.42657
 11
15.6387
 21
1.35724
  0
LINE
  8
0
 10
15.6387
 20
1.35724
 11
15.8037
 21
1.26648
  0
LINE
  8
0
 10
15.8037
 20
1.26648
 11
15.9561
 21
1.15576
  0
LINE
  8
0
 10
15.9561
 20
1.15576
 11
16.0934
 21
1.02681
  0
LINE
  8
0
 10
16.0934
 20
1.02681
 11
16.2135
 21
0.881668
  0
LINE
  8
0
 10
16.2135
 20
0.881668
 11
16.3145
 21
0.722626
  0
LINE
  8
0
 10
16.3145
 20
0.722626
 11
16.3947
 21
0.552185
  0
LINE
  8
0
 10
16.3947
 20
0.552185
 11
16.4529
 21
0.373032
  0
LINE
  8
0
 10
16.4529
 20
0.373032
 11
16.4882
 21
0.187988
  0
LINE
  8
0
 10
16.4882
 20
0.187988
 11
16.5
 21
0
  0
LINE
  8
0
 10
16.5
 20
0
 11
16.4882
 21
-0.187988
  0
LINE
  8
0
 10
16.4882
 20
-0.187988
 11
16.4529
 21
-0.373032
  0
LINE
  8
0
 10
16.4529
 20
-0.373032
 11
16.3947
 21
-0.552185
  0
LINE
  8
0
 10
16.3947
 20
-0.552185
 11
16.3145
 21
-0.722626
  0
LINE
  8
0
 10
16.3145
 20
-0.722626
 11
16.2135
 21
-0.881668
  0
LINE
  8
0
 10
16.2135
 20
-0.881668
 11
16.0934
 21
-1.02681
  0
LINE
  8
0
 10
16.0934
 20
-1.02681
 11
15.9561
 21
-1.15576
  0
LINE
  8
0
 10
15.9561
 20
-1.15576
 11
15.8037
 21
-1.26648
  0
LINE
  8
0
 10
15.8037
 20
-1.26648
 11
15.6387
 21
-1.35724
  0
LINE
  8
0
 10
15.6387
 20
-1.35724
 11
15.4635
 21
-1.42657
  0
LINE
  8
0
 10
15.4635
 20
-1.42657
 11
15.2811
 21
-1.47342
  0
LINE
  8
0
 10
15.2811
 20
-1.47342
 11
15.0942
 21
-1.49704
  0
LINE
  8
0
 10
15.0942
 20
-1.49704
 11
14.9058
 21
-1.49704
  0
LINE
  8
0
 10
-22.5942
 20
-1.49704
 11
-22.7811
 21
-1.47342
  0
LINE
  8
0
 10
-22.7811
 20
-1.47342
 11
-22.9635
 21
-1.42657
  0
LINE
  8
0
 10
-22.9635
 20
-1.42657
 11
-23.1387
 21
-1.35724
  0
LINE
  8
0
 10
-23.1387
 20
-1.35724
 11
-23.3037
 21
-1.26648
  0
LINE
  8
0
 10
-23.3037
 20
-1.26648
 11
-23.4561
 21
-1.15576
  0
LINE
  8
0
 10
-23.4561
 20
-1.15576
 11
-23.5934
 21
-1.02681
  0
LINE
  8
0
 10
-23.5934
 20
-1.02681
 11
-23.7135
 21
-0.881668
  0
LINE
  8
0
 10
-23.7135
 20
-0.881668
 11
-23.8145
 21
-0.722626
  0
LINE
  8
0
 10
-23.8145
 20
-0.722626
 11
-23.8947
 21
-0.552185
  0
LINE
  8
0
 10
-23.8947
 20
-0.552185
 11
-23.9529
 21
-0.373032
  0
LINE
  8
0
 10
-23.9529
 20
-0.373032
 11
-23.9882
 21
-0.187988
  0
LINE
  8
0
 10
-23.9882
 20
-0.187988
 11
-24
 21
0
  0
LINE
  8
0
 10
-24
 20
0
 11
-23.9882
 21
0.187988
  0
LINE
  8
0
 10
-23.9882
 20
0.187988
 11
-23.9529
 21
0.373032
  0
LINE
  8
0
 10
-23.9529
 20
0.373032
 11
-23.8947
 21
0.552185
  0
LINE
  8
0
 10
-23.8947
 20
0.552185
 11
-23.8145
 21
0.722626
  0
LINE
  8
0
 10
-23.8145
 20
0.722626
 11
-23.7135
 21
0.881668
  0
LINE
  8
0
 10
-23.7135
 20
0.881668
 11
-23.5934
 21
1.02681
  0
LINE
  8
0
 10
-23.5934
 20
1.02681
 11
-23.4561
 21
1.15576
  0
LINE
  8
0
 10
-23.4561
 20
1.15576
 11
-23.3037
 21
1.26648
  0
LINE
  8
0
 10
-23.3037
 20
1.26648
 11
-23.1387
 21
1.35724
  0
LINE
  8
0
 10
-23.1387
 20
1.35724
 11
-22.9635
 21
1.42657
  0
LINE
  8
0
 10
-22.9635
 20
1.42657
 11
-22.7811
 21
1.47342
  0
LINE
  8
0
 10
-22.7811
 20
1.47342
 11
-22.5942
 21
1.49704
  0
LINE
  8
0
 10
-22.5942
 20
1.49704
 11
-22.4058
 21
1.49704
  0
LINE
  8
0
 10
-22.4058
 20
1.49704
 11
-22.2189
 21
1.47342
  0
LINE
  8
0
 10
-22.2189
 20
1.47342
 11
-22.0365
 21
1.42657
  0
LINE
  8
0
 10
-22.0365
 20
1.42657
 11
-21.8613
 21
1.35724
  0
LINE
  8
0
 10
-21.8613
 20
1.35724
 11
-21.6963
 21
1.26648
  0
LINE
  8
0
 10
-21.6963
 20
1.26648
 11
-21.5439
 21
1.15576
  0
LINE
  8
0
 10
-21.5439
 20
1.15576
 11
-21.4065
 21
1.02681
  0
LINE
  8
0
 10
-21.4065
 20
1.02681
 11
-21.2865
 21
0.881668
  0
LINE
  8
0
 10
-21.2865
 20
0.881668
 11
-21.1855
 21
0.722626
  0
LINE
  8
0
 10
-21.1855
 20
0.722626
 11
-21.1053
 21
0.552185
  0
LINE
  8
0
 10
-21.1053
 20
0.552185
 11
-21.0471
 21
0.373032
  0
LINE
  8
0
 10
-21.0471
 20
0.373032
 11
-21.0118
 21
0.187988
  0
LINE
  8
0
 10
-21.0118
 20
0.187988
 11
-21
 21
0
  0
LINE
  8
0
 10
-21
 20
0
 11
-21.0118
 21
-0.187988
  0
LINE
  8
0
 10
-21.0118
 20
-0.187988
 11
-21.0471
 21
-0.373032
  0
LINE
  8
0
 10
-21.0471
 20
-0.373032
 11
-21.1053
 21
-0.552185
  0
LINE
  8
0
 10
-21.1053
 20
-0.552185
 11
-21.1855
 21
-0.722626
  0
LINE
  8
0
 10
-21.1855
 20
-0.722626
 11
-21.2865
 21
-0.881668
  0
LINE
  8
0
 10
-21.2865
 20
-0.881668
 11
-21.4065
 21
-1.02681
  0
LINE
  8
0
 10
-21.4065
 20
-1.02681
 11
-21.5439
 21
-1.15576
  0
LINE
  8
0
 10
-21.5439
 20
-1.15576
 11
-21.6963
 21
-1.26648
  0
LINE
  8
0
 10
-21.6963
 20
-1.26648
 11
-21.8613
 21
-1.35724
  0
LINE
  8
0
 10
-21.8613
 20
-1.35724
 11
-22.0365
 21
-1.42657
  0
LINE
  8
0
 10
-22.0365
 20
-1.42657
 11
-22.2189
 21
-1.47342
  0
LINE
  8
0
 10
-22.2189
 20
-1.47342
 11
-22.4058
 21
-1.49704
  0
LINE
  8
0
 10
-22.4058
 20
-1.49704
 11
-22.5942
 21
-1.49704
  0
LINE
  8
0
 10
-15.0942
 20
-1.49704
 11
-15.2811
 21
-1.47342
  0
LINE
  8
0
 10
-15.2811
 20
-1.47342
 11
-15.4635
 21
-1.42657
  0
LINE
  8
0
 10
-15.4635
 20
-1.42657
 11
-15.6387
 21
-1.35724
  0
LINE
  8
0
 10
-15.6387
 20
-1.35724
 11
-15.8037
 21
-1.26648
  0
LINE
  8
0
 10
-15.8037
 20
-1.26648
 11
-15.9561
 21
-1.15576
  0
LINE
  8
0
 10
-15.9561
 20
-1.15576
 11
-16.0934
 21
-1.02681
  0
LINE
  8
0
 10
-16.0934
 20
-1.02681
 11
-16.2135
 21
-0.881668
  0
LINE
  8
0
 10
-16.2135
 20
-0.881668
 11
-16.3145
 21
-0.722626
  0
LINE
  8
0
 10
-16.3145
 20
-0.722626
 11
-16.3947
 21
-0.552185
  0
LINE
  8
0
 10
-16.3947
 20
-0.552185
 11
-16.4529
 21
-0.373032
  0
LINE
  8
0
 10
-16.4529
 20
-0.373032
 11
-16.4882
 21
-0.187988
  0
LINE
  8
0
 10
-16.4882
 20
-0.187988
 11
-16.5
 21
0
  0
LINE
  8
0
 10
-16.5
 20
0
 11
-16.4882
 21
0.187988
  0
LINE
  8
0
 10
-16.4882
 20
0.187988
 11
-16.4529
 21
0.373032
  0
LINE
  8
0
 10
-16.4529
 20
0.373032
 11
-16.3947
 21
0.552185
  0
LINE
  8
0
 10
-16.3947
 20
0.552185
 11
-16.3145
 21
0.722626
  0
LINE
  8
0
 10
-16.3145
 20
0.722626
 11
-16.2135
 21
0.881668
  0
LINE
  8
0
 10
-16.2135
 20
0.881668
 11
-16.0934
 21
1.02681
  0
LINE
  8
0
 10
-16.0934
 20
1.02681
 11
-15.9561
 21
1.15576
  0
LINE
  8
0
 10
-15.9561
 20
1.15576
 11
-15.8037
 21
1.26648
  0
LINE
  8
0
 10
-15.8037
 20
1.26648
 11
-15.6387
 21
1.35724
  0
LINE
  8
0
 10
-15.6387
 20
1.35724
 11
-15.4635
 21
1.42657
  0
LINE
  8
0
 10
-15.4635
 20
1.42657
 11
-15.2811
 21
1.47342
  0
LINE
  8
0
 10
-15.2811
 20
1.47342
 11
-15.0942
 21
1.49704
  0
LINE
  8
0
 10
-15.0942
 20
1.49704
 11
-14.9058
 21
1.49704
  0
LINE
  8
0
 10
-14.9058
 20
1.49704
 11
-14.7189
 21
1.47342
  0
LINE
  8
0
 10
-14.7189
 20
1.47342
 11
-14.5365
 21
1.42657
  0
LINE
  8
0
 10
-14.5365
 20
1.42657
 11
-14.3613
 21
1.35724
  0
LINE
  8
0
 10
-14.3613
 20
1.35724
 11
-14.1963
 21
1.26648
  0
LINE
  8
0
 10
-14.1963
 20
1.26648
 11
-14.0439
 21
1.15576
  0
LINE
  8
0
 10
-14.0439
 20
1.15576
 11
-13.9065
 21
1.02681
  0
LINE
  8
0
 10
-13.9065
 20
1.02681
 11
-13.7865
 21
0.881668
  0
LINE
  8
0
 10
-13.7865
 20
0.881668
 11
-13.6855
 21
0.722626
  0
LINE
  8
0
 10
-13.6855
 20
0.722626
 11
-13.6053
 21
0.552185
  0
LINE
  8
0
 10
-13.6053
 20
0.552185
 11
-13.5471
 21
0.373032
  0
LINE
  8
0
 10
-13.5471
 20
0.373032
 11
-13.5118
 21
0.187988
  0
LINE
  8
0
 10
-13.5118
 20
0.187988
 11
-13.5
 21
0
  0
LINE
  8
0
 10
-13.5
 20
0
 11
-13.5118
 21
-0.187988
  0
LINE
  8
0
 10
-13.5118
 20
-0.187988
 11
-13.5471
 21
-0.373032
  0
LINE
  8
0
 10
-13.5471
 20
-0.373032
 11
-13.6053
 21
-0.552185
  0
LINE
  8
0
 10
-13.6053
 20
-0.552185
 11
-13.6855
 21
-0.722626
  0
LINE
  8
0
 10
-13.6855
 20
-0.722626
 11
-13.7865
 21
-0.881668
  0
LINE
  8
0
 10
-13.7865
 20
-0.881668
 11
-13.9065
 21
-1.02681
  0
LINE
  8
0
 10
-13.9065
 20
-1.02681
 11
-14.0439
 21
-1.15576
  0
LINE
  8
0
 10
-14.0439
 20
-1.15576
 11
-14.1963
 21
-1.26648
  0
LINE
  8
0
 10
-14.1963
 20
-1.26648
 11
-14.3613
 21
-1.35724
  0
LINE
  8
0
 10
-14.3613
 20
-1.35724
 11
-14.5365
 21
-1.42657
  0
LINE
  8
0
 10
-14.5365
 20
-1.42657
 11
-14.7189
 21
-1.47342
  0
LINE
  8
0
 10
-14.7189
 20
-1.47342
 11
-14.9058
 21
-1.49704
  0
LINE
  8
0
 10
-14.9058
 20
-1.49704
 11
-15.0942
 21
-1.49704
  0
LINE
  8
0
 10
22.4058
 20
-1.49704
 11
22.2189
 21
-1.47342
  0
LINE
  8
0
 10
22.2189
 20
-1.47342
 11
22.0365
 21
-1.42657
  0
LINE
  8
0
 10
22.0365
 20
-1.42657
 11
21.8613
 21
-1.35724
  0
LINE
  8
0
 10
21.8613
 20
-1.35724
 11
21.6963
 21
-1.26648
  0
LINE
  8
0
 10
21.6963
 20
-1.26648
 11
21.5439
 21
-1.15576
  0
LINE
  8
0
 10
21.5439
 20
-1.15576
 11
21.4065
 21
-1.02681
  0
LINE
  8
0
 10
21.4065
 20
-1.02681
 11
21.2865
 21
-0.881668
  0
LINE
  8
0
 10
21.2865
 20
-0.881668
 11
21.1855
 21
-0.722626
  0
LINE
  8
0
 10
21.1855
 20
-0.722626
 11
21.1053
 21
-0.552185
  0
LINE
  8
0
 10
21.1053
 20
-0.552185
 11
21.0471
 21
-0.373032
  0
LINE
  8
0
 10
21.0471
 20
-0.373032
 11
21.0118
 21
-0.187988
  0
LINE
  8
0
 10
21.0118
 20
-0.187988
 11
21
 21
0
  0
LINE
  8
0
 10
21
 20
0
 11
21.0118
 21
0.187988
  0
LINE
  8
0
 10
21.0118
 20
0.187988
 11
21.0471
 21
0.373032
  0
LINE
  8
0
 10
21.0471
 20
0.373032
 11
21.1053
 21
0.552185
  0
LINE
  8
0
 10
21.1053
 20
0.552185
 11
21.1855
 21
0.722626
  0
LINE
  8
0
 10
21.1855
 20
0.722626
 11
21.2865
 21
0.881668
  0
LINE
  8
0
 10
21.2865
 20
0.881668
 11
21.4065
 21
1.02681
  0
LINE
  8
0
 10
21.4065
 20
1.02681
 11
21.5439
 21
1.15576
  0
LINE
  8
0
 10
21.5439
 20
1.15576
 11
21.6963
 21
1.26648
  0
LINE
  8
0
 10
21.6963
 20
1.26648
 11
21.8613
 21
1.35724
  0
LINE
  8
0
 10
21.8613
 20
1.35724
 11
22.0365
 21
1.42657
  0
LINE
  8
0
 10
22.0365
 20
1.42657
 11
22.2189
 21
1.47342
  0
LINE
  8
0
 10
22.2189
 20
1.47342
 11
22.4058
 21
1.49704
  0
LINE
  8
0
 10
22.4058
 20
1.49704
 11
22.5942
 21
1.49704
  0
LINE
  8
0
 10
22.5942
 20
1.49704
 11
22.7811
 21
1.47342
  0
LINE
  8
0
 10
22.7811
 20
1.47342
 11
22.9635
 21
1.42657
  0
LINE
  8
0
 10
22.9635
 20
1.42657
 11
23.1387
 21
1.35724
  0
LINE
  8
0
 10
23.1387
 20
1.35724
 11
23.3037
 21
1.26648
  0
LINE
  8
0
 10
23.3037
 20
1.26648
 11
23.4561
 21
1.15576
  0
LINE
  8
0
 10
23.4561
 20
1.15576
 11
23.5934
 21
1.02681
  0
LINE
  8
0
 10
23.5934
 20
1.02681
 11
23.7135
 21
0.881668
  0
LINE
  8
0
 10
23.7135
 20
0.881668
 11
23.8145
 21
0.722626
  0
LINE
  8
0
 10
23.8145
 20
0.722626
 11
23.8947
 21
0.552185
  0
LINE
  8
0
 10
23.8947
 20
0.552185
 11
23.9529
 21
0.373032
  0
LINE
  8
0
 10
23.9529
 20
0.373032
 11
23.9882
 21
0.187988
  0
LINE
  8
0
 10
23.9882
 20
0.187988
 11
24
 21
0
  0
LINE
  8
0
 10
24
 20
0
 11
23.9882
 21
-0.187988
  0
LINE
  8
0
 10
23.9882
 20
-0.187988
 11
23.9529
 21
-0.373032
  0
LINE
  8
0
 10
23.9529
 20
-0.373032
 11
23.8947
 21
-0.552185
  0
LINE
  8
0
 10
23.8947
 20
-0.552185
 11
23.8145
 21
-0.722626
  0
LINE
  8
0
 10
23.8145
 20
-0.722626
 11
23.7135
 21
-0.881668
  0
LINE
  8
0
 10
23.7135
 20
-0.881668
 11
23.5934
 21
-1.02681
  0
LINE
  8
0
 10
23.5934
 20
-1.02681
 11
23.4561
 21
-1.15576
  0
LINE
  8
0
 10
23.4561
 20
-1.15576
 11
23.3037
 21
-1.26648
  0
LINE
  8
0
 10
23.3037
 20
-1.26648
 11
23.1387
 21
-1.35724
  0
LINE
  8
0
 10
23.1387
 20
-1.35724
 11
22.9635
 21
-1.42657
  0
LINE
  8
0
 10
22.9635
 20
-1.42657
 11
22.7811
 21
-1.47342
  0
LINE
  8
0
 10
22.7811
 20
-1.47342
 11
22.5942
 21
-1.49704
  0
LINE
  8
0
 10
22.5942
 20
-1.49704
 11
22.4058
 21
-1.49704
  0
LINE
  8
0
 10
-0.0941772
 20
-1.49704
 11
-0.281067
 21
-1.47342
  0
LINE
  8
0
 10
-0.281067
 20
-1.47342
 11
-0.463516
 21
-1.42657
  0
LINE
  8
0
 10
-0.463516
 20
-1.42657
 11
-0.638657
 21
-1.35724
  0
LINE
  8
0
 10
-0.638657
 20
-1.35724
 11
-0.803726
 21
-1.26648
  0
LINE
  8
0
 10
-0.803726
 20
-1.26648
 11
-0.956131
 21
-1.15576
  0
LINE
  8
0
 10
-0.956131
 20
-1.15576
 11
-1.09344
 21
-1.02681
  0
LINE
  8
0
 10
-1.09344
 20
-1.02681
 11
-1.21352
 21
-0.881668
  0
LINE
  8
0
 10
-1.21352
 20
-0.881668
 11
-1.31445
 21
-0.722626
  0
LINE
  8
0
 10
-1.31445
 20
-0.722626
 11
-1.39465
 21
-0.552185
  0
LINE
  8
0
 10
-1.39465
 20
-0.552185
 11
-1.45287
 21
-0.373032
  0
LINE
  8
0
 10
-1.45287
 20
-0.373032
 11
-1.48816
 21
-0.187988
  0
LINE
  8
0
 10
-1.48816
 20
-0.187988
 11
-1.5
 21
0
  0
LINE
  8
0
 10
-1.5
 20
0
 11
-1.48816
 21
0.187988
  0
LINE
  8
0
 10
-1.48816
 20
0.187988
 11
-1.45287
 21
0.373032
  0
LINE
  8
0
 10
-1.45287
 20
0.373032
 11
-1.39465
 21
0.552185
  0
LINE
  8
0
 10
-1.39465
 20
0.552185
 11
-1.31445
 21
0.722626
  0
LINE
  8
0
 10
-1.31445
 20
0.722626
 11
-1.21352
 21
0.881668
  0
LINE
  8
0
 10
-1.21352
 20
0.881668
 11
-1.09344
 21
1.02681
  0
LINE
  8
0
 10
-1.09344
 20
1.02681
 11
-0.956131
 21
1.15576
  0
LINE
  8
0
 10
-0.956131
 20
1.15576
 11
-0.803726
 21
1.26648
  0
LINE
  8
0
 10
-0.803726
 20
1.26648
 11
-0.638657
 21
1.35724
  0
LINE
  8
0
 10
-0.638657
 20
1.35724
 11
-0.463516
 21
1.42657
  0
LINE
  8
0
 10
-0.463516
 20
1.42657
 11
-0.281067
 21
1.47342
  0
LINE
  8
0
 10
-0.281067
 20
1.47342
 11
-0.0941772
 21
1.49704
  0
LINE
  8
0
 10
-0.0941772
 20
1.49704
 11
0.0941772
 21
1.49704
  0
LINE
  8
0
 10
0.0941772
 20
1.49704
 11
0.281067
 21
1.47342
  0
LINE
  8
0
 10
0.281067
 20
1.47342
 11
0.463516
 21
1.42657
  0
LINE
  8
0
 10
0.463516
 20
1.42657
 11
0.638657
 21
1.35724
  0
LINE
  8
0
 10
0.638657
 20
1.35724
 11
0.803726
 21
1.26648
  0
LINE
  8
0
 10
0.803726
 20
1.26648
 11
0.956131
 21
1.15576
  0
LINE
  8
0
 10
0.956131
 20
1.15576
 11
1.09344
 21
1.02681
  0
LINE
  8
0
 10
1.09344
 20
1.02681
 11
1.21352
 21
0.881668
  0
LINE
  8
0
 10
1.21352
 20
0.881668
 11
1.31445
 21
0.722626
  0
LINE
  8
0
 10
1.31445
 20
0.722626
 11
1.39465
 21
0.552185
  0
LINE
  8
0
 10
1.39465
 20
0.552185
 11
1.45287
 21
0.373032
  0
LINE
  8
0
 10
1.45287
 20
0.373032
 11
1.48816
 21
0.187988
  0
LINE
  8
0
 10
1.48816
 20
0.187988
 11
1.5
 21
0
  0
LINE
  8
0
 10
1.5
 20
0
 11
1.48816
 21
-0.187988
  0
LINE
  8
0
 10
1.48816
 20
-0.187988
 11
1.45287
 21
-0.373032
  0
LINE
  8
0
 10
1.45287
 20
-0.373032
 11
1.39465
 21
-0.552185
  0
LINE
  8
0
 10
1.39465
 20
-0.552185
 11
1.31445
 21
-0.722626
  0
LINE
  8
0
 10
1.31445
 20
-0.722626
 11
1.21352
 21
-0.881668
  0
LINE
  8
0
 10
1.21352
 20
-0.881668
 11
1.09344
 21
-1.02681
  0
LINE
  8
0
 10
1.09344
 20
-1.02681
 11
0.956131
 21
-1.15576
  0
LINE
  8
0
 10
0.956131
 20
-1.15576
 11
0.803726
 21
-1.26648
  0
LINE
  8
0
 10
0.803726
 20
-1.26648
 11
0.638657
 21
-1.35724
  0
LINE
  8
0
 10
0.638657
 20
-1.35724
 11
0.463516
 21
-1.42657
  0
LINE
  8
0
 10
0.463516
 20
-1.42657
 11
0.281067
 21
-1.47342
  0
LINE
  8
0
 10
0.281067
 20
-1.47342
 11
0.0941772
 21
-1.49704
  0
LINE
  8
0
 10
0.0941772
 20
-1.49704
 11
-0.0941772
 21
-1.49704
  0
LINE
  8
0
 10
7.40581
 20
-1.49704
 11
7.21892
 21
-1.47342
  0
LINE
  8
0
 10
7.21892
 20
-1.47342
 11
7.03647
 21
-1.42657
  0
LINE
  8
0
 10
7.03647
 20
-1.42657
 11
6.86133
 21
-1.35724
  0
LINE
  8
0
 10
6.86133
 20
-1.35724
 11
6.69626
 21
-1.26648
  0
LINE
  8
0
 10
6.69626
 20
-1.26648
 11
6.54385
 21
-1.15576
  0
LINE
  8
0
 10
6.54385
 20
-1.15576
 11
6.40654
 21
-1.02681
  0
LINE
  8
0
 10
6.40654
 20
-1.02681
 11
6.28647
 21
-0.881668
  0
LINE
  8
0
 10
6.28647
 20
-0.881668
 11
6.18553
 21
-0.722626
  0
LINE
  8
0
 10
6.18553
 20
-0.722626
 11
6.10533
 21
-0.552185
  0
LINE
  8
0
 10
6.10533
 20
-0.552185
 11
6.04712
 21
-0.373032
  0
LINE
  8
0
 10
6.04712
 20
-0.373032
 11
6.01183
 21
-0.187988
  0
LINE
  8
0
 10
6.01183
 20
-0.187988
 11
6
 21
0
  0
LINE
  8
0
 10
6
 20
0
 11
6.01183
 21
0.187988
  0
LINE
  8
0
 10
6.01183
 20
0.187988
 11
6.04712
 21
0.373032
  0
LINE
  8
0
 10
6.04712
 20
0.373032
 11
6.10533
 21
0.552185
  0
LINE
  8
0
 10
6.10533
 20
0.552185
 11
6.18553
 21
0.722626
  0
LINE
  8
0
 10
6.18553
 20
0.722626
 11
6.28647
 21
0.881668
  0
LINE
  8
0
 10
6.28647
 20
0.881668
 11
6.40654
 21
1.02681
  0
LINE
  8
0
 10
6.40654
 20
1.02681
 11
6.54385
 21
1.15576
  0
LINE
  8
0
 10
6.54385
 20
1.15576
 11
6.69626
 21
1.26648
  0
LINE
  8
0
 10
6.69626
 20
1.26648
 11
6.86133
 21
1.35724
  0
LINE
  8
0
 10
6.86133
 20
1.35724
 11
7.03647
 21
1.42657
  0
LINE
  8
0
 10
7.03647
 20
1.42657
 11
7.21892
 21
1.47342
  0
LINE
  8
0
 10
7.21892
 20
1.47342
 11
7.40581
 21
1.49704
  0
LINE
  8
0
 10
7.40581
 20
1.49704
 11
7.59418
 21
1.49704
  0
LINE
  8
0
 10
7.59418
 20
1.49704
 11
7.78107
 21
1.47342
  0
LINE
  8
0
 10
7.78107
 20
1.47342
 11
7.96352
 21
1.42657
  0
LINE
  8
0
 10
7.96352
 20
1.42657
 11
8.13866
 21
1.35724
  0
LINE
  8
0
 10
8.13866
 20
1.35724
 11
8.30373
 21
1.26648
  0
LINE
  8
0
 10
8.30373
 20
1.26648
 11
8.45613
 21
1.15576
  0
LINE
  8
0
 10
8.45613
 20
1.15576
 11
8.59344
 21
1.02681
  0
LINE
  8
0
 10
8.59344
 20
1.02681
 11
8.71352
 21
0.881668
  0
LINE
  8
0
 10
8.71352
 20
0.881668
 11
8.81445
 21
0.722626
  0
LINE
  8
0
 10
8.81445
 20
0.722626
 11
8.89465
 21
0.552185
  0
LINE
  8
0
 10
8.89465
 20
0.552185
 11
8.95287
 21
0.373032
  0
LINE
  8
0
 10
8.95287
 20
0.373032
 11
8.98816
 21
0.187988
  0
LINE
  8
0
 10
8.98816
 20
0.187988
 11
9
 21
0
  0
LINE
  8
0
 10
9
 20
0
 11
8.98816
 21
-0.187988
  0
LINE
  8
0
 10
8.98816
 20
-0.187988
 11
8.95287
 21
-0.373032
  0
LINE
  8
0
 10
8.95287
 20
-0.373032
 11
8.89465
 21
-0.552185
  0
LINE
  8
0
 10
8.89465
 20
-0.552185
 11
8.81445
 21
-0.722626
  0
LINE
  8
0
 10
8.81445
 20
-0.722626
 11
8.71352
 21
-0.881668
  0
LINE
  8
0
 10
8.71352
 20
-0.881668
 11
8.59344
 21
-1.02681
  0
LINE
  8
0
 10
8.59344
 20
-1.02681
 11
8.45613
 21
-1.15576
  0
LINE
  8
0
 10
8.45613
 20
-1.15576
 11
8.30373
 21
-1.26648
  0
LINE
  8
0
 10
8.30373
 20
-1.26648
 11
8.13866
 21
-1.35724
  0
LINE
  8
0
 10
8.13866
 20
-1.35724
 11
7.96352
 21
-1.42657
  0
LINE
  8
0
 10
7.96352
 20
-1.42657
 11
7.78107
 21
-1.47342
  0
LINE
  8
0
 10
7.78107
 20
-1.47342
 11
7.59418
 21
-1.49704
  0
LINE
  8
0
 10
7.59418
 20
-1.49704
 11
7.40581
 21
-1.49704
  0
LINE
  8
0
 10
-7.59418
 20
-1.49704
 11
-7.78107
 21
-1.47342
  0
LINE
  8
0
 10
-7.78107
 20
-1.47342
 11
-7.96352
 21
-1.42657
  0
LINE
  8
0
 10
-7.96352
 20
-1.42657
 11
-8.13866
 21
-1.35724
  0
LINE
  8
0
 10
-8.13866
 20
-1.35724
 11
-8.30373
 21
-1.26648
  0
LINE
  8
0
 10
-8.30373
 20
-1.26648
 11
-8.45613
 21
-1.15576
  0
LINE
  8
0
 10
-8.45613
 20
-1.15576
 11
-8.59344
 21
-1.02681
  0
LINE
  8
0
 10
-8.59344
 20
-1.02681
 11
-8.71352
 21
-0.881668
  0
LINE
  8
0
 10
-8.71352
 20
-0.881668
 11
-8.81445
 21
-0.722626
  0
LINE
  8
0
 10
-8.81445
 20
-0.722626
 11
-8.89465
 21
-0.552185
  0
LINE
  8
0
 10
-8.89465
 20
-0.552185
 11
-8.95287
 21
-0.373032
  0
LINE
  8
0
 10
-8.95287
 20
-0.373032
 11
-8.98816
 21
-0.187988
  0
LINE
  8
0
 10
-8.98816
 20
-0.187988
 11
-9
 21
0
  0
LINE
  8
0
 10
-9
 20
0
 11
-8.98816
 21
0.187988
  0
LINE
  8
0
 10
-8.98816
 20
0.187988
 11
-8.95287
 21
0.373032
  0
LINE
  8
0
 10
-8.95287
 20
0.373032
 11
-8.89465
 21
0.552185
  0
LINE
  8
0
 10
-8.89465
 20
0.552185
 11
-8.81445
 21
0.722626
  0
LINE
  8
0
 10
-8.81445
 20
0.722626
 11
-8.71352
 21
0.881668
  0
LINE
  8
0
 10
-8.71352
 20
0.881668
 11
-8.59344
 21
1.02681
  0
LINE
  8
0
 10
-8.59344
 20
1.02681
 11
-8.45613
 21
1.15576
  0
LINE
  8
0
 10
-8.45613
 20
1.15576
 11
-8.30373
 21
1.26648
  0
LINE
  8
0
 10
-8.30373
 20
1.26648
 11
-8.13866
 21
1.35724
  0
LINE
  8
0
 10
-8.13866
 20
1.35724
 11
-7.96352
 21
1.42657
  0
LINE
  8
0
 10
-7.96352
 20
1.42657
 11
-7.78107
 21
1.47342
  0
LINE
  8
0
 10
-7.78107
 20
1.47342
 11
-7.59418
 21
1.49704
  0
LINE
  8
0
 10
-7.59418
 20
1.49704
 11
-7.40581
 21
1.49704
  0
LINE
  8
0
 10
-7.40581
 20
1.49704
 11
-7.21892
 21
1.47342
  0
LINE
  8
0
 10
-7.21892
 20
1.47342
 11
-7.03647
 21
1.42657
  0
LINE
  8
0
 10
-7.03647
 20
1.42657
 11
-6.86133
 21
1.35724
  0
LINE
  8
0
 10
-6.86133
 20
1.35724
 11
-6.69626
 21
1.26648
  0
LINE
  8
0
 10
-6.69626
 20
1.26648
 11
-6.54385
 21
1.15576
  0
LINE
  8
0
 10
-6.54385
 20
1.15576
 11
-6.40654
 21
1.02681
  0
LINE
  8
0
 10
-6.40654
 20
1.02681
 11
-6.28647
 21
0.881668
  0
LINE
  8
0
 10
-6.28647
 20
0.881668
 11
-6.18553
 21
0.722626
  0
LINE
  8
0
 10
-6.18553
 20
0.722626
 11
-6.10533
 21
0.552185
  0
LINE
  8
0
 10
-6.10533
 20
0.552185
 11
-6.04712
 21
0.373032
  0
LINE
  8
0
 10
-6.04712
 20
0.373032
 11
-6.01183
 21
0.187988
  0
LINE
  8
0
 10
-6.01183
 20
0.187988
 11
-6
 21
0
  0
LINE
  8
0
 10
-6
 20
0
 11
-6.01183
 21
-0.187988
  0
LINE
  8
0
 10
-6.01183
 20
-0.187988
 11
-6.04712
 21
-0.373032
  0
LINE
  8
0
 10
-6.04712
 20
-0.373032
 11
-6.10533
 21
-0.552185
  0
LINE
  8
0
 10
-6.10533
 20
-0.552185
 11
-6.18553
 21
-0.722626
  0
LINE
  8
0
 10
-6.18553
 20
-0.722626
 11
-6.28647
 21
-0.881668
  0
LINE
  8
0
 10
-6.28647
 20
-0.881668
 11
-6.40654
 21
-1.02681
  0
LINE
  8
0
 10
-6.40654
 20
-1.02681
 11
-6.54385
 21
-1.15576
  0
LINE
  8
0
 10
-6.54385
 20
-1.15576
 11
-6.69626
 21
-1.26648
  0
LINE
  8
0
 10
-6.69626
 20
-1.26648
 11
-6.86133
 21
-1.35724
  0
LINE
  8
0
 10
-6.86133
 20
-1.35724
 11
-7.03647
 21
-1.42657
  0
LINE
  8
0
 10
-7.03647
 20
-1.42657
 11
-7.21892
 21
-1.47342
  0
LINE
  8
0
 10
-7.21892
 20
-1.47342
 11
-7.40581
 21
-1.49704
  0
LINE
  8
0
 10
-7.40581
 20
-1.49704
 11
-7.59418
 21
-1.49704
  0
ENDSEC
  0
SECTION
  2
OBJECTS
  0
DICTIONARY
  0
ENDSEC
  0
EOF
