<?xml version="1.0" standalone="no"?>
<!DOCTYPE svg PUBLIC "-//W3C//DTD SVG 1.1//EN" "http://www.w3.org/Graphics/SVG/1.1/DTD/svg11.dtd">
<svg width="16mm" height="16mm" viewBox="-8 -8 16 16" xmlns="http://www.w3.org/2000/svg" version="1.1">
<title>OpenSCAD Model</title>
<path d="
M 5.21844,7.2057 L 5.52254,7.12764 L 5.81444,7.01205 L 6.08955,6.86081 L 6.34355,6.67627 L 6.57242,6.46136
 L 6.77254,6.21945 L 6.94077,5.95438 L 7.07443,5.6703 L 7.17145,5.37172 L 7.23029,5.06332 L 7.25,4.75
 L 7.25,-4.75 L 7.23029,-5.06332 L 7.17145,-5.37172 L 7.07443,-5.6703 L 6.94077,-5.95438 L 6.77254,-6.21945
 L 6.57242,-6.46136 L 6.34355,-6.67627 L 6.08955,-6.86081 L 5.81444,-7.01205 L 5.52254,-7.12764 L 5.21844,-7.2057
 L 4.90697,-7.24506 L -4.90697,-7.24506 L -5.21844,-7.2057 L -5.52254,-7.12764 L -5.81444,-7.01205 L -6.08955,-6.86081
 L -6.34355,-6.67627 L -6.57242,-6.46136 L -6.77254,-6.21945 L -6.94077,-5.95438 L -7.07443,-5.6703 L -7.17145,-5.37172
 L -7.23029,-5.06332 L -7.25,-4.75 L -7.25,4.75 L -7.23029,5.06332 L -7.17145,5.37172 L -7.07443,5.6703
 L -6.94077,5.95438 L -6.77254,6.21945 L -6.57242,6.46136 L -6.34355,6.67627 L -6.08955,6.86081 L -5.81444,7.01205
 L -5.52254,7.12764 L -5.21844,7.2057 L -4.90697,7.24506 L 4.90697,7.24506 z
M -3.84418,-2.25294 L -4.03107,-2.27657 L -4.21352,-2.32341 L -4.38866,-2.39275 L -4.55373,-2.48351 L -4.70613,-2.59422
 L -4.84344,-2.72318 L -4.96352,-2.86832 L -5.06445,-3.02736 L -5.14465,-3.1978 L -5.20287,-3.37695 L -5.23816,-3.562
 L -5.25,-3.75 L -5.23816,-3.93799 L -5.20287,-4.12303 L -5.14465,-4.30219 L -5.06445,-4.47263 L -4.96352,-4.63167
 L -4.84344,-4.77681 L -4.70613,-4.90576 L -4.55373,-5.01648 L -4.38866,-5.10724 L -4.21352,-5.17657 L -4.03107,-5.22342
 L -3.84418,-5.24704 L -3.65581,-5.24704 L -3.46892,-5.22342 L -3.28647,-5.17657 L -3.11133,-5.10724 L -2.94626,-5.01648
 L -2.79385,-4.90576 L -2.65654,-4.77681 L -2.53647,-4.63167 L -2.43553,-4.47263 L -2.35533,-4.30219 L -2.29712,-4.12303
 L -2.26183,-3.93799 L -2.25,-3.75 L -2.26183,-3.562 L -2.29712,-3.37695 L -2.35533,-3.1978 L -2.43553,-3.02736
 L -2.53647,-2.86832 L -2.65654,-2.72318 L -2.79385,-2.59422 L -2.94626,-2.48351 L -3.11133,-2.39275 L -3.28647,-2.32341
 L -3.46892,-2.27657 L -3.65581,-2.25294 z
M 3.65581,-2.25294 L 3.46892,-2.27657 L 3.28647,-2.32341 L 3.11133,-2.39275 L 2.94626,-2.48351 L 2.79385,-2.59422
 L 2.65654,-2.72318 L 2.53647,-2.86832 L 2.43553,-3.02736 L 2.35533,-3.1978 L 2.29712,-3.37695 L 2.26183,-3.562
 L 2.25,-3.75 L 2.26183,-3.93799 L 2.29712,-4.12303 L 2.35533,-4.30219 L 2.43553,-4.47263 L 2.53647,-4.63167
 L 2.65654,-4.77681 L 2.79385,-4.90576 L 2.94626,-5.01648 L 3.11133,-5.10724 L 3.28647,-5.17657 L 3.46892,-5.22342
 L 3.65581,-5.24704 L 3.84418,-5.24704 L 4.03107,-5.22342 L 4.21352,-5.17657 L 4.38866,-5.10724 L 4.55373,-5.01648
 L 4.70613,-4.90576 L 4.84344,-4.77681 L 4.96352,-4.63167 L 5.06445,-4.47263 L 5.14465,-4.30219 L 5.20287,-4.12303
 L 5.23816,-3.93799 L 5.25,-3.75 L 5.23816,-3.562 L 5.20287,-3.37695 L 5.14465,-3.1978 L 5.06445,-3.02736
 L 4.96352,-2.86832 L 4.84344,-2.72318 L 4.70613,-2.59422 L 4.55373,-2.48351 L 4.38866,-2.39275 L 4.21352,-2.32341
 L 4.03107,-2.27657 L 3.84418,-2.25294 z
M -3.84418,5.24704 L -4.03107,5.22342 L -4.21352,5.17657 L -4.38866,5.10724 L -4.55373,5.01648 L -4.70613,4.90576
 L -4.84344,4.77681 L -4.96352,4.63167 L -5.06445,4.47263 L -5.14465,4.30219 L -5.20287,4.12303 L -5.23816,3.93799
 L -5.25,3.75 L -5.23816,3.562 L -5.20287,3.37695 L -5.14465,3.1978 L -5.06445,3.02736 L -4.96352,2.86832
 L -4.84344,2.72318 L -4.70613,2.59422 L -4.55373,2.48351 L -4.38866,2.39275 L -4.21352,2.32341 L -4.03107,2.27657
 L -3.84418,2.25294 L -3.65581,2.25294 L -3.46892,2.27657 L -3.28647,2.32341 L -3.11133,2.39275 L -2.94626,2.48351
 L -2.79385,2.59422 L -2.65654,2.72318 L -2.53647,2.86832 L -2.43553,3.02736 L -2.35533,3.1978 L -2.29712,3.37695
 L -2.26183,3.562 L -2.25,3.75 L -2.26183,3.93799 L -2.29712,4.12303 L -2.35533,4.30219 L -2.43553,4.47263
 L -2.53647,4.63167 L -2.65654,4.77681 L -2.79385,4.90576 L -2.94626,5.01648 L -3.11133,5.10724 L -3.28647,5.17657
 L -3.46892,5.22342 L -3.65581,5.24704 z
M 3.65581,5.24704 L 3.46892,5.22342 L 3.28647,5.17657 L 3.11133,5.10724 L 2.94626,5.01648 L 2.79385,4.90576
 L 2.65654,4.77681 L 2.53647,4.63167 L 2.43553,4.47263 L 2.35533,4.30219 L 2.29712,4.12303 L 2.26183,3.93799
 L 2.25,3.75 L 2.26183,3.562 L 2.29712,3.37695 L 2.35533,3.1978 L 2.43553,3.02736 L 2.53647,2.86832
 L 2.65654,2.72318 L 2.79385,2.59422 L 2.94626,2.48351 L 3.11133,2.39275 L 3.28647,2.32341 L 3.46892,2.27657
 L 3.65581,2.25294 L 3.84418,2.25294 L 4.03107,2.27657 L 4.21352,2.32341 L 4.38866,2.39275 L 4.55373,2.48351
 L 4.70613,2.59422 L 4.84344,2.72318 L 4.96352,2.86832 L 5.06445,3.02736 L 5.14465,3.1978 L 5.20287,3.37695
 L 5.23816,3.562 L 5.25,3.75 L 5.23816,3.93799 L 5.20287,4.12303 L 5.14465,4.30219 L 5.06445,4.47263
 L 4.96352,4.63167 L 4.84344,4.77681 L 4.70613,4.90576 L 4.55373,5.01648 L 4.38866,5.10724 L 4.21352,5.17657
 L 4.03107,5.22342 L 3.84418,5.24704 z
" stroke="black" fill="lightgray" stroke-width="0.5"/>
</svg>
