  0
SECTION
  2
BLOCKS
  0
ENDSEC
  0
SECTION
  2
ENTITIES
  0
LINE
  8
0
 10
12.7184
 20
-14.7057
 11
13.0225
 21
-14.6276
  0
LINE
  8
0
 10
13.0225
 20
-14.6276
 11
13.3144
 21
-14.5121
  0
LINE
  8
0
 10
13.3144
 20
-14.5121
 11
13.5896
 21
-14.3608
  0
LINE
  8
0
 10
13.5896
 20
-14.3608
 11
13.8436
 21
-14.1763
  0
LINE
  8
0
 10
13.8436
 20
-14.1763
 11
14.0724
 21
-13.9614
  0
LINE
  8
0
 10
14.0724
 20
-13.9614
 11
14.2725
 21
-13.7195
  0
LINE
  8
0
 10
14.2725
 20
-13.7195
 11
14.4408
 21
-13.4544
  0
LINE
  8
0
 10
14.4408
 20
-13.4544
 11
14.5744
 21
-13.1703
  0
LINE
  8
0
 10
14.5744
 20
-13.1703
 11
14.6714
 21
-12.8717
  0
LINE
  8
0
 10
14.6714
 20
-12.8717
 11
14.7303
 21
-12.5633
  0
LINE
  8
0
 10
14.7303
 20
-12.5633
 11
14.75
 21
-12.25
  0
LINE
  8
0
 10
14.75
 20
-12.25
 11
14.75
 21
12.25
  0
LINE
  8
0
 10
14.75
 20
12.25
 11
14.7303
 21
12.5633
  0
LINE
  8
0
 10
14.7303
 20
12.5633
 11
14.6714
 21
12.8717
  0
LINE
  8
0
 10
14.6714
 20
12.8717
 11
14.5744
 21
13.1703
  0
LINE
  8
0
 10
14.5744
 20
13.1703
 11
14.4408
 21
13.4544
  0
LINE
  8
0
 10
14.4408
 20
13.4544
 11
14.2725
 21
13.7195
  0
LINE
  8
0
 10
14.2725
 20
13.7195
 11
14.0724
 21
13.9614
  0
LINE
  8
0
 10
14.0724
 20
13.9614
 11
13.8436
 21
14.1763
  0
LINE
  8
0
 10
13.8436
 20
14.1763
 11
13.5896
 21
14.3608
  0
LINE
  8
0
 10
13.5896
 20
14.3608
 11
13.3144
 21
14.5121
  0
LINE
  8
0
 10
13.3144
 20
14.5121
 11
13.0225
 21
14.6276
  0
LINE
  8
0
 10
13.0225
 20
14.6276
 11
12.7184
 21
14.7057
  0
LINE
  8
0
 10
12.7184
 20
14.7057
 11
12.407
 21
14.7451
  0
LINE
  8
0
 10
12.407
 20
14.7451
 11
-12.407
 21
14.7451
  0
LINE
  8
0
 10
-12.407
 20
14.7451
 11
-12.7184
 21
14.7057
  0
LINE
  8
0
 10
-12.7184
 20
14.7057
 11
-13.0225
 21
14.6276
  0
LINE
  8
0
 10
-13.0225
 20
14.6276
 11
-13.3144
 21
14.5121
  0
LINE
  8
0
 10
-13.3144
 20
14.5121
 11
-13.5896
 21
14.3608
  0
LINE
  8
0
 10
-13.5896
 20
14.3608
 11
-13.8436
 21
14.1763
  0
LINE
  8
0
 10
-13.8436
 20
14.1763
 11
-14.0724
 21
13.9614
  0
LINE
  8
0
 10
-14.0724
 20
13.9614
 11
-14.2725
 21
13.7195
  0
LINE
  8
0
 10
-14.2725
 20
13.7195
 11
-14.4408
 21
13.4544
  0
LINE
  8
0
 10
-14.4408
 20
13.4544
 11
-14.5744
 21
13.1703
  0
LINE
  8
0
 10
-14.5744
 20
13.1703
 11
-14.6714
 21
12.8717
  0
LINE
  8
0
 10
-14.6714
 20
12.8717
 11
-14.7303
 21
12.5633
  0
LINE
  8
0
 10
-14.7303
 20
12.5633
 11
-14.75
 21
12.25
  0
LINE
  8
0
 10
-14.75
 20
12.25
 11
-14.75
 21
-12.25
  0
LINE
  8
0
 10
-14.75
 20
-12.25
 11
-14.7303
 21
-12.5633
  0
LINE
  8
0
 10
-14.7303
 20
-12.5633
 11
-14.6714
 21
-12.8717
  0
LINE
  8
0
 10
-14.6714
 20
-12.8717
 11
-14.5744
 21
-13.1703
  0
LINE
  8
0
 10
-14.5744
 20
-13.1703
 11
-14.4408
 21
-13.4544
  0
LINE
  8
0
 10
-14.4408
 20
-13.4544
 11
-14.2725
 21
-13.7195
  0
LINE
  8
0
 10
-14.2725
 20
-13.7195
 11
-14.0724
 21
-13.9614
  0
LINE
  8
0
 10
-14.0724
 20
-13.9614
 11
-13.8436
 21
-14.1763
  0
LINE
  8
0
 10
-13.8436
 20
-14.1763
 11
-13.5896
 21
-14.3608
  0
LINE
  8
0
 10
-13.5896
 20
-14.3608
 11
-13.3144
 21
-14.5121
  0
LINE
  8
0
 10
-13.3144
 20
-14.5121
 11
-13.0225
 21
-14.6276
  0
LINE
  8
0
 10
-13.0225
 20
-14.6276
 11
-12.7184
 21
-14.7057
  0
LINE
  8
0
 10
-12.7184
 20
-14.7057
 11
-12.407
 21
-14.7451
  0
LINE
  8
0
 10
-12.407
 20
-14.7451
 11
12.407
 21
-14.7451
  0
LINE
  8
0
 10
12.407
 20
-14.7451
 11
12.7184
 21
-14.7057
  0
LINE
  8
0
 10
-11.3442
 20
9.75294
 11
-11.5311
 21
9.77657
  0
LINE
  8
0
 10
-11.5311
 20
9.77657
 11
-11.7135
 21
9.82341
  0
LINE
  8
0
 10
-11.7135
 20
9.82341
 11
-11.8887
 21
9.89275
  0
LINE
  8
0
 10
-11.8887
 20
9.89275
 11
-12.0537
 21
9.98351
  0
LINE
  8
0
 10
-12.0537
 20
9.98351
 11
-12.2061
 21
10.0942
  0
LINE
  8
0
 10
-12.2061
 20
10.0942
 11
-12.3434
 21
10.2232
  0
LINE
  8
0
 10
-12.3434
 20
10.2232
 11
-12.4635
 21
10.3683
  0
LINE
  8
0
 10
-12.4635
 20
10.3683
 11
-12.5645
 21
10.5274
  0
LINE
  8
0
 10
-12.5645
 20
10.5274
 11
-12.6447
 21
10.6978
  0
LINE
  8
0
 10
-12.6447
 20
10.6978
 11
-12.7029
 21
10.877
  0
LINE
  8
0
 10
-12.7029
 20
10.877
 11
-12.7382
 21
11.062
  0
LINE
  8
0
 10
-12.7382
 20
11.062
 11
-12.75
 21
11.25
  0
LINE
  8
0
 10
-12.75
 20
11.25
 11
-12.7382
 21
11.438
  0
LINE
  8
0
 10
-12.7382
 20
11.438
 11
-12.7029
 21
11.623
  0
LINE
  8
0
 10
-12.7029
 20
11.623
 11
-12.6447
 21
11.8022
  0
LINE
  8
0
 10
-12.6447
 20
11.8022
 11
-12.5645
 21
11.9726
  0
LINE
  8
0
 10
-12.5645
 20
11.9726
 11
-12.4635
 21
12.1317
  0
LINE
  8
0
 10
-12.4635
 20
12.1317
 11
-12.3434
 21
12.2768
  0
LINE
  8
0
 10
-12.3434
 20
12.2768
 11
-12.2061
 21
12.4058
  0
LINE
  8
0
 10
-12.2061
 20
12.4058
 11
-12.0537
 21
12.5165
  0
LINE
  8
0
 10
-12.0537
 20
12.5165
 11
-11.8887
 21
12.6072
  0
LINE
  8
0
 10
-11.8887
 20
12.6072
 11
-11.7135
 21
12.6766
  0
LINE
  8
0
 10
-11.7135
 20
12.6766
 11
-11.5311
 21
12.7234
  0
LINE
  8
0
 10
-11.5311
 20
12.7234
 11
-11.3442
 21
12.747
  0
LINE
  8
0
 10
-11.3442
 20
12.747
 11
-11.1558
 21
12.747
  0
LINE
  8
0
 10
-11.1558
 20
12.747
 11
-10.9689
 21
12.7234
  0
LINE
  8
0
 10
-10.9689
 20
12.7234
 11
-10.7865
 21
12.6766
  0
LINE
  8
0
 10
-10.7865
 20
12.6766
 11
-10.6113
 21
12.6072
  0
LINE
  8
0
 10
-10.6113
 20
12.6072
 11
-10.4463
 21
12.5165
  0
LINE
  8
0
 10
-10.4463
 20
12.5165
 11
-10.2939
 21
12.4058
  0
LINE
  8
0
 10
-10.2939
 20
12.4058
 11
-10.1565
 21
12.2768
  0
LINE
  8
0
 10
-10.1565
 20
12.2768
 11
-10.0365
 21
12.1317
  0
LINE
  8
0
 10
-10.0365
 20
12.1317
 11
-9.93553
 21
11.9726
  0
LINE
  8
0
 10
-9.93553
 20
11.9726
 11
-9.85533
 21
11.8022
  0
LINE
  8
0
 10
-9.85533
 20
11.8022
 11
-9.79712
 21
11.623
  0
LINE
  8
0
 10
-9.79712
 20
11.623
 11
-9.76183
 21
11.438
  0
LINE
  8
0
 10
-9.76183
 20
11.438
 11
-9.75
 21
11.25
  0
LINE
  8
0
 10
-9.75
 20
11.25
 11
-9.76183
 21
11.062
  0
LINE
  8
0
 10
-9.76183
 20
11.062
 11
-9.79712
 21
10.877
  0
LINE
  8
0
 10
-9.79712
 20
10.877
 11
-9.85533
 21
10.6978
  0
LINE
  8
0
 10
-9.85533
 20
10.6978
 11
-9.93553
 21
10.5274
  0
LINE
  8
0
 10
-9.93553
 20
10.5274
 11
-10.0365
 21
10.3683
  0
LINE
  8
0
 10
-10.0365
 20
10.3683
 11
-10.1565
 21
10.2232
  0
LINE
  8
0
 10
-10.1565
 20
10.2232
 11
-10.2939
 21
10.0942
  0
LINE
  8
0
 10
-10.2939
 20
10.0942
 11
-10.4463
 21
9.98351
  0
LINE
  8
0
 10
-10.4463
 20
9.98351
 11
-10.6113
 21
9.89275
  0
LINE
  8
0
 10
-10.6113
 20
9.89275
 11
-10.7865
 21
9.82341
  0
LINE
  8
0
 10
-10.7865
 20
9.82341
 11
-10.9689
 21
9.77657
  0
LINE
  8
0
 10
-10.9689
 20
9.77657
 11
-11.1558
 21
9.75294
  0
LINE
  8
0
 10
-11.1558
 20
9.75294
 11
-11.3442
 21
9.75294
  0
LINE
  8
0
 10
-3.84418
 20
9.75294
 11
-4.03107
 21
9.77657
  0
LINE
  8
0
 10
-4.03107
 20
9.77657
 11
-4.21352
 21
9.82341
  0
LINE
  8
0
 10
-4.21352
 20
9.82341
 11
-4.38866
 21
9.89275
  0
LINE
  8
0
 10
-4.38866
 20
9.89275
 11
-4.55373
 21
9.98351
  0
LINE
  8
0
 10
-4.55373
 20
9.98351
 11
-4.70613
 21
10.0942
  0
LINE
  8
0
 10
-4.70613
 20
10.0942
 11
-4.84344
 21
10.2232
  0
LINE
  8
0
 10
-4.84344
 20
10.2232
 11
-4.96352
 21
10.3683
  0
LINE
  8
0
 10
-4.96352
 20
10.3683
 11
-5.06445
 21
10.5274
  0
LINE
  8
0
 10
-5.06445
 20
10.5274
 11
-5.14465
 21
10.6978
  0
LINE
  8
0
 10
-5.14465
 20
10.6978
 11
-5.20287
 21
10.877
  0
LINE
  8
0
 10
-5.20287
 20
10.877
 11
-5.23816
 21
11.062
  0
LINE
  8
0
 10
-5.23816
 20
11.062
 11
-5.25
 21
11.25
  0
LINE
  8
0
 10
-5.25
 20
11.25
 11
-5.23816
 21
11.438
  0
LINE
  8
0
 10
-5.23816
 20
11.438
 11
-5.20287
 21
11.623
  0
LINE
  8
0
 10
-5.20287
 20
11.623
 11
-5.14465
 21
11.8022
  0
LINE
  8
0
 10
-5.14465
 20
11.8022
 11
-5.06445
 21
11.9726
  0
LINE
  8
0
 10
-5.06445
 20
11.9726
 11
-4.96352
 21
12.1317
  0
LINE
  8
0
 10
-4.96352
 20
12.1317
 11
-4.84344
 21
12.2768
  0
LINE
  8
0
 10
-4.84344
 20
12.2768
 11
-4.70613
 21
12.4058
  0
LINE
  8
0
 10
-4.70613
 20
12.4058
 11
-4.55373
 21
12.5165
  0
LINE
  8
0
 10
-4.55373
 20
12.5165
 11
-4.38866
 21
12.6072
  0
LINE
  8
0
 10
-4.38866
 20
12.6072
 11
-4.21352
 21
12.6766
  0
LINE
  8
0
 10
-4.21352
 20
12.6766
 11
-4.03107
 21
12.7234
  0
LINE
  8
0
 10
-4.03107
 20
12.7234
 11
-3.84418
 21
12.747
  0
LINE
  8
0
 10
-3.84418
 20
12.747
 11
-3.65581
 21
12.747
  0
LINE
  8
0
 10
-3.65581
 20
12.747
 11
-3.46892
 21
12.7234
  0
LINE
  8
0
 10
-3.46892
 20
12.7234
 11
-3.28647
 21
12.6766
  0
LINE
  8
0
 10
-3.28647
 20
12.6766
 11
-3.11133
 21
12.6072
  0
LINE
  8
0
 10
-3.11133
 20
12.6072
 11
-2.94626
 21
12.5165
  0
LINE
  8
0
 10
-2.94626
 20
12.5165
 11
-2.79385
 21
12.4058
  0
LINE
  8
0
 10
-2.79385
 20
12.4058
 11
-2.65654
 21
12.2768
  0
LINE
  8
0
 10
-2.65654
 20
12.2768
 11
-2.53647
 21
12.1317
  0
LINE
  8
0
 10
-2.53647
 20
12.1317
 11
-2.43553
 21
11.9726
  0
LINE
  8
0
 10
-2.43553
 20
11.9726
 11
-2.35533
 21
11.8022
  0
LINE
  8
0
 10
-2.35533
 20
11.8022
 11
-2.29712
 21
11.623
  0
LINE
  8
0
 10
-2.29712
 20
11.623
 11
-2.26183
 21
11.438
  0
LINE
  8
0
 10
-2.26183
 20
11.438
 11
-2.25
 21
11.25
  0
LINE
  8
0
 10
-2.25
 20
11.25
 11
-2.26183
 21
11.062
  0
LINE
  8
0
 10
-2.26183
 20
11.062
 11
-2.29712
 21
10.877
  0
LINE
  8
0
 10
-2.29712
 20
10.877
 11
-2.35533
 21
10.6978
  0
LINE
  8
0
 10
-2.35533
 20
10.6978
 11
-2.43553
 21
10.5274
  0
LINE
  8
0
 10
-2.43553
 20
10.5274
 11
-2.53647
 21
10.3683
  0
LINE
  8
0
 10
-2.53647
 20
10.3683
 11
-2.65654
 21
10.2232
  0
LINE
  8
0
 10
-2.65654
 20
10.2232
 11
-2.79385
 21
10.0942
  0
LINE
  8
0
 10
-2.79385
 20
10.0942
 11
-2.94626
 21
9.98351
  0
LINE
  8
0
 10
-2.94626
 20
9.98351
 11
-3.11133
 21
9.89275
  0
LINE
  8
0
 10
-3.11133
 20
9.89275
 11
-3.28647
 21
9.82341
  0
LINE
  8
0
 10
-3.28647
 20
9.82341
 11
-3.46892
 21
9.77657
  0
LINE
  8
0
 10
-3.46892
 20
9.77657
 11
-3.65581
 21
9.75294
  0
LINE
  8
0
 10
-3.65581
 20
9.75294
 11
-3.84418
 21
9.75294
  0
LINE
  8
0
 10
3.65581
 20
9.75294
 11
3.46892
 21
9.77657
  0
LINE
  8
0
 10
3.46892
 20
9.77657
 11
3.28647
 21
9.82341
  0
LINE
  8
0
 10
3.28647
 20
9.82341
 11
3.11133
 21
9.89275
  0
LINE
  8
0
 10
3.11133
 20
9.89275
 11
2.94626
 21
9.98351
  0
LINE
  8
0
 10
2.94626
 20
9.98351
 11
2.79385
 21
10.0942
  0
LINE
  8
0
 10
2.79385
 20
10.0942
 11
2.65654
 21
10.2232
  0
LINE
  8
0
 10
2.65654
 20
10.2232
 11
2.53647
 21
10.3683
  0
LINE
  8
0
 10
2.53647
 20
10.3683
 11
2.43553
 21
10.5274
  0
LINE
  8
0
 10
2.43553
 20
10.5274
 11
2.35533
 21
10.6978
  0
LINE
  8
0
 10
2.35533
 20
10.6978
 11
2.29712
 21
10.877
  0
LINE
  8
0
 10
2.29712
 20
10.877
 11
2.26183
 21
11.062
  0
LINE
  8
0
 10
2.26183
 20
11.062
 11
2.25
 21
11.25
  0
LINE
  8
0
 10
2.25
 20
11.25
 11
2.26183
 21
11.438
  0
LINE
  8
0
 10
2.26183
 20
11.438
 11
2.29712
 21
11.623
  0
LINE
  8
0
 10
2.29712
 20
11.623
 11
2.35533
 21
11.8022
  0
LINE
  8
0
 10
2.35533
 20
11.8022
 11
2.43553
 21
11.9726
  0
LINE
  8
0
 10
2.43553
 20
11.9726
 11
2.53647
 21
12.1317
  0
LINE
  8
0
 10
2.53647
 20
12.1317
 11
2.65654
 21
12.2768
  0
LINE
  8
0
 10
2.65654
 20
12.2768
 11
2.79385
 21
12.4058
  0
LINE
  8
0
 10
2.79385
 20
12.4058
 11
2.94626
 21
12.5165
  0
LINE
  8
0
 10
2.94626
 20
12.5165
 11
3.11133
 21
12.6072
  0
LINE
  8
0
 10
3.11133
 20
12.6072
 11
3.28647
 21
12.6766
  0
LINE
  8
0
 10
3.28647
 20
12.6766
 11
3.46892
 21
12.7234
  0
LINE
  8
0
 10
3.46892
 20
12.7234
 11
3.65581
 21
12.747
  0
LINE
  8
0
 10
3.65581
 20
12.747
 11
3.84418
 21
12.747
  0
LINE
  8
0
 10
3.84418
 20
12.747
 11
4.03107
 21
12.7234
  0
LINE
  8
0
 10
4.03107
 20
12.7234
 11
4.21352
 21
12.6766
  0
LINE
  8
0
 10
4.21352
 20
12.6766
 11
4.38866
 21
12.6072
  0
LINE
  8
0
 10
4.38866
 20
12.6072
 11
4.55373
 21
12.5165
  0
LINE
  8
0
 10
4.55373
 20
12.5165
 11
4.70613
 21
12.4058
  0
LINE
  8
0
 10
4.70613
 20
12.4058
 11
4.84344
 21
12.2768
  0
LINE
  8
0
 10
4.84344
 20
12.2768
 11
4.96352
 21
12.1317
  0
LINE
  8
0
 10
4.96352
 20
12.1317
 11
5.06445
 21
11.9726
  0
LINE
  8
0
 10
5.06445
 20
11.9726
 11
5.14465
 21
11.8022
  0
LINE
  8
0
 10
5.14465
 20
11.8022
 11
5.20287
 21
11.623
  0
LINE
  8
0
 10
5.20287
 20
11.623
 11
5.23816
 21
11.438
  0
LINE
  8
0
 10
5.23816
 20
11.438
 11
5.25
 21
11.25
  0
LINE
  8
0
 10
5.25
 20
11.25
 11
5.23816
 21
11.062
  0
LINE
  8
0
 10
5.23816
 20
11.062
 11
5.20287
 21
10.877
  0
LINE
  8
0
 10
5.20287
 20
10.877
 11
5.14465
 21
10.6978
  0
LINE
  8
0
 10
5.14465
 20
10.6978
 11
5.06445
 21
10.5274
  0
LINE
  8
0
 10
5.06445
 20
10.5274
 11
4.96352
 21
10.3683
  0
LINE
  8
0
 10
4.96352
 20
10.3683
 11
4.84344
 21
10.2232
  0
LINE
  8
0
 10
4.84344
 20
10.2232
 11
4.70613
 21
10.0942
  0
LINE
  8
0
 10
4.70613
 20
10.0942
 11
4.55373
 21
9.98351
  0
LINE
  8
0
 10
4.55373
 20
9.98351
 11
4.38866
 21
9.89275
  0
LINE
  8
0
 10
4.38866
 20
9.89275
 11
4.21352
 21
9.82341
  0
LINE
  8
0
 10
4.21352
 20
9.82341
 11
4.03107
 21
9.77657
  0
LINE
  8
0
 10
4.03107
 20
9.77657
 11
3.84418
 21
9.75294
  0
LINE
  8
0
 10
3.84418
 20
9.75294
 11
3.65581
 21
9.75294
  0
LINE
  8
0
 10
11.1558
 20
9.75294
 11
10.9689
 21
9.77657
  0
LINE
  8
0
 10
10.9689
 20
9.77657
 11
10.7865
 21
9.82341
  0
LINE
  8
0
 10
10.7865
 20
9.82341
 11
10.6113
 21
9.89275
  0
LINE
  8
0
 10
10.6113
 20
9.89275
 11
10.4463
 21
9.98351
  0
LINE
  8
0
 10
10.4463
 20
9.98351
 11
10.2939
 21
10.0942
  0
LINE
  8
0
 10
10.2939
 20
10.0942
 11
10.1565
 21
10.2232
  0
LINE
  8
0
 10
10.1565
 20
10.2232
 11
10.0365
 21
10.3683
  0
LINE
  8
0
 10
10.0365
 20
10.3683
 11
9.93553
 21
10.5274
  0
LINE
  8
0
 10
9.93553
 20
10.5274
 11
9.85533
 21
10.6978
  0
LINE
  8
0
 10
9.85533
 20
10.6978
 11
9.79712
 21
10.877
  0
LINE
  8
0
 10
9.79712
 20
10.877
 11
9.76183
 21
11.062
  0
LINE
  8
0
 10
9.76183
 20
11.062
 11
9.75
 21
11.25
  0
LINE
  8
0
 10
9.75
 20
11.25
 11
9.76183
 21
11.438
  0
LINE
  8
0
 10
9.76183
 20
11.438
 11
9.79712
 21
11.623
  0
LINE
  8
0
 10
9.79712
 20
11.623
 11
9.85533
 21
11.8022
  0
LINE
  8
0
 10
9.85533
 20
11.8022
 11
9.93553
 21
11.9726
  0
LINE
  8
0
 10
9.93553
 20
11.9726
 11
10.0365
 21
12.1317
  0
LINE
  8
0
 10
10.0365
 20
12.1317
 11
10.1565
 21
12.2768
  0
LINE
  8
0
 10
10.1565
 20
12.2768
 11
10.2939
 21
12.4058
  0
LINE
  8
0
 10
10.2939
 20
12.4058
 11
10.4463
 21
12.5165
  0
LINE
  8
0
 10
10.4463
 20
12.5165
 11
10.6113
 21
12.6072
  0
LINE
  8
0
 10
10.6113
 20
12.6072
 11
10.7865
 21
12.6766
  0
LINE
  8
0
 10
10.7865
 20
12.6766
 11
10.9689
 21
12.7234
  0
LINE
  8
0
 10
10.9689
 20
12.7234
 11
11.1558
 21
12.747
  0
LINE
  8
0
 10
11.1558
 20
12.747
 11
11.3442
 21
12.747
  0
LINE
  8
0
 10
11.3442
 20
12.747
 11
11.5311
 21
12.7234
  0
LINE
  8
0
 10
11.5311
 20
12.7234
 11
11.7135
 21
12.6766
  0
LINE
  8
0
 10
11.7135
 20
12.6766
 11
11.8887
 21
12.6072
  0
LINE
  8
0
 10
11.8887
 20
12.6072
 11
12.0537
 21
12.5165
  0
LINE
  8
0
 10
12.0537
 20
12.5165
 11
12.2061
 21
12.4058
  0
LINE
  8
0
 10
12.2061
 20
12.4058
 11
12.3434
 21
12.2768
  0
LINE
  8
0
 10
12.3434
 20
12.2768
 11
12.4635
 21
12.1317
  0
LINE
  8
0
 10
12.4635
 20
12.1317
 11
12.5645
 21
11.9726
  0
LINE
  8
0
 10
12.5645
 20
11.9726
 11
12.6447
 21
11.8022
  0
LINE
  8
0
 10
12.6447
 20
11.8022
 11
12.7029
 21
11.623
  0
LINE
  8
0
 10
12.7029
 20
11.623
 11
12.7382
 21
11.438
  0
LINE
  8
0
 10
12.7382
 20
11.438
 11
12.75
 21
11.25
  0
LINE
  8
0
 10
12.75
 20
11.25
 11
12.7382
 21
11.062
  0
LINE
  8
0
 10
12.7382
 20
11.062
 11
12.7029
 21
10.877
  0
LINE
  8
0
 10
12.7029
 20
10.877
 11
12.6447
 21
10.6978
  0
LINE
  8
0
 10
12.6447
 20
10.6978
 11
12.5645
 21
10.5274
  0
LINE
  8
0
 10
12.5645
 20
10.5274
 11
12.4635
 21
10.3683
  0
LINE
  8
0
 10
12.4635
 20
10.3683
 11
12.3434
 21
10.2232
  0
LINE
  8
0
 10
12.3434
 20
10.2232
 11
12.2061
 21
10.0942
  0
LINE
  8
0
 10
12.2061
 20
10.0942
 11
12.0537
 21
9.98351
  0
LINE
  8
0
 10
12.0537
 20
9.98351
 11
11.8887
 21
9.89275
  0
LINE
  8
0
 10
11.8887
 20
9.89275
 11
11.7135
 21
9.82341
  0
LINE
  8
0
 10
11.7135
 20
9.82341
 11
11.5311
 21
9.77657
  0
LINE
  8
0
 10
11.5311
 20
9.77657
 11
11.3442
 21
9.75294
  0
LINE
  8
0
 10
11.3442
 20
9.75294
 11
11.1558
 21
9.75294
  0
LINE
  8
0
 10
11.1558
 20
2.25294
 11
10.9689
 21
2.27657
  0
LINE
  8
0
 10
10.9689
 20
2.27657
 11
10.7865
 21
2.32341
  0
LINE
  8
0
 10
10.7865
 20
2.32341
 11
10.6113
 21
2.39275
  0
LINE
  8
0
 10
10.6113
 20
2.39275
 11
10.4463
 21
2.48351
  0
LINE
  8
0
 10
10.4463
 20
2.48351
 11
10.2939
 21
2.59422
  0
LINE
  8
0
 10
10.2939
 20
2.59422
 11
10.1565
 21
2.72318
  0
LINE
  8
0
 10
10.1565
 20
2.72318
 11
10.0365
 21
2.86832
  0
LINE
  8
0
 10
10.0365
 20
2.86832
 11
9.93553
 21
3.02736
  0
LINE
  8
0
 10
9.93553
 20
3.02736
 11
9.85533
 21
3.1978
  0
LINE
  8
0
 10
9.85533
 20
3.1978
 11
9.79712
 21
3.37695
  0
LINE
  8
0
 10
9.79712
 20
3.37695
 11
9.76183
 21
3.562
  0
LINE
  8
0
 10
9.76183
 20
3.562
 11
9.75
 21
3.75
  0
LINE
  8
0
 10
9.75
 20
3.75
 11
9.76183
 21
3.93799
  0
LINE
  8
0
 10
9.76183
 20
3.93799
 11
9.79712
 21
4.12303
  0
LINE
  8
0
 10
9.79712
 20
4.12303
 11
9.85533
 21
4.30219
  0
LINE
  8
0
 10
9.85533
 20
4.30219
 11
9.93553
 21
4.47263
  0
LINE
  8
0
 10
9.93553
 20
4.47263
 11
10.0365
 21
4.63167
  0
LINE
  8
0
 10
10.0365
 20
4.63167
 11
10.1565
 21
4.77681
  0
LINE
  8
0
 10
10.1565
 20
4.77681
 11
10.2939
 21
4.90576
  0
LINE
  8
0
 10
10.2939
 20
4.90576
 11
10.4463
 21
5.01648
  0
LINE
  8
0
 10
10.4463
 20
5.01648
 11
10.6113
 21
5.10724
  0
LINE
  8
0
 10
10.6113
 20
5.10724
 11
10.7865
 21
5.17657
  0
LINE
  8
0
 10
10.7865
 20
5.17657
 11
10.9689
 21
5.22342
  0
LINE
  8
0
 10
10.9689
 20
5.22342
 11
11.1558
 21
5.24704
  0
LINE
  8
0
 10
11.1558
 20
5.24704
 11
11.3442
 21
5.24704
  0
LINE
  8
0
 10
11.3442
 20
5.24704
 11
11.5311
 21
5.22342
  0
LINE
  8
0
 10
11.5311
 20
5.22342
 11
11.7135
 21
5.17657
  0
LINE
  8
0
 10
11.7135
 20
5.17657
 11
11.8887
 21
5.10724
  0
LINE
  8
0
 10
11.8887
 20
5.10724
 11
12.0537
 21
5.01648
  0
LINE
  8
0
 10
12.0537
 20
5.01648
 11
12.2061
 21
4.90576
  0
LINE
  8
0
 10
12.2061
 20
4.90576
 11
12.3434
 21
4.77681
  0
LINE
  8
0
 10
12.3434
 20
4.77681
 11
12.4635
 21
4.63167
  0
LINE
  8
0
 10
12.4635
 20
4.63167
 11
12.5645
 21
4.47263
  0
LINE
  8
0
 10
12.5645
 20
4.47263
 11
12.6447
 21
4.30219
  0
LINE
  8
0
 10
12.6447
 20
4.30219
 11
12.7029
 21
4.12303
  0
LINE
  8
0
 10
12.7029
 20
4.12303
 11
12.7382
 21
3.93799
  0
LINE
  8
0
 10
12.7382
 20
3.93799
 11
12.75
 21
3.75
  0
LINE
  8
0
 10
12.75
 20
3.75
 11
12.7382
 21
3.562
  0
LINE
  8
0
 10
12.7382
 20
3.562
 11
12.7029
 21
3.37695
  0
LINE
  8
0
 10
12.7029
 20
3.37695
 11
12.6447
 21
3.1978
  0
LINE
  8
0
 10
12.6447
 20
3.1978
 11
12.5645
 21
3.02736
  0
LINE
  8
0
 10
12.5645
 20
3.02736
 11
12.4635
 21
2.86832
  0
LINE
  8
0
 10
12.4635
 20
2.86832
 11
12.3434
 21
2.72318
  0
LINE
  8
0
 10
12.3434
 20
2.72318
 11
12.2061
 21
2.59422
  0
LINE
  8
0
 10
12.2061
 20
2.59422
 11
12.0537
 21
2.48351
  0
LINE
  8
0
 10
12.0537
 20
2.48351
 11
11.8887
 21
2.39275
  0
LINE
  8
0
 10
11.8887
 20
2.39275
 11
11.7135
 21
2.32341
  0
LINE
  8
0
 10
11.7135
 20
2.32341
 11
11.5311
 21
2.27657
  0
LINE
  8
0
 10
11.5311
 20
2.27657
 11
11.3442
 21
2.25294
  0
LINE
  8
0
 10
11.3442
 20
2.25294
 11
11.1558
 21
2.25294
  0
LINE
  8
0
 10
-11.3442
 20
2.25294
 11
-11.5311
 21
2.27657
  0
LINE
  8
0
 10
-11.5311
 20
2.27657
 11
-11.7135
 21
2.32341
  0
LINE
  8
0
 10
-11.7135
 20
2.32341
 11
-11.8887
 21
2.39275
  0
LINE
  8
0
 10
-11.8887
 20
2.39275
 11
-12.0537
 21
2.48351
  0
LINE
  8
0
 10
-12.0537
 20
2.48351
 11
-12.2061
 21
2.59422
  0
LINE
  8
0
 10
-12.2061
 20
2.59422
 11
-12.3434
 21
2.72318
  0
LINE
  8
0
 10
-12.3434
 20
2.72318
 11
-12.4635
 21
2.86832
  0
LINE
  8
0
 10
-12.4635
 20
2.86832
 11
-12.5645
 21
3.02736
  0
LINE
  8
0
 10
-12.5645
 20
3.02736
 11
-12.6447
 21
3.1978
  0
LINE
  8
0
 10
-12.6447
 20
3.1978
 11
-12.7029
 21
3.37695
  0
LINE
  8
0
 10
-12.7029
 20
3.37695
 11
-12.7382
 21
3.562
  0
LINE
  8
0
 10
-12.7382
 20
3.562
 11
-12.75
 21
3.75
  0
LINE
  8
0
 10
-12.75
 20
3.75
 11
-12.7382
 21
3.93799
  0
LINE
  8
0
 10
-12.7382
 20
3.93799
 11
-12.7029
 21
4.12303
  0
LINE
  8
0
 10
-12.7029
 20
4.12303
 11
-12.6447
 21
4.30219
  0
LINE
  8
0
 10
-12.6447
 20
4.30219
 11
-12.5645
 21
4.47263
  0
LINE
  8
0
 10
-12.5645
 20
4.47263
 11
-12.4635
 21
4.63167
  0
LINE
  8
0
 10
-12.4635
 20
4.63167
 11
-12.3434
 21
4.77681
  0
LINE
  8
0
 10
-12.3434
 20
4.77681
 11
-12.2061
 21
4.90576
  0
LINE
  8
0
 10
-12.2061
 20
4.90576
 11
-12.0537
 21
5.01648
  0
LINE
  8
0
 10
-12.0537
 20
5.01648
 11
-11.8887
 21
5.10724
  0
LINE
  8
0
 10
-11.8887
 20
5.10724
 11
-11.7135
 21
5.17657
  0
LINE
  8
0
 10
-11.7135
 20
5.17657
 11
-11.5311
 21
5.22342
  0
LINE
  8
0
 10
-11.5311
 20
5.22342
 11
-11.3442
 21
5.24704
  0
LINE
  8
0
 10
-11.3442
 20
5.24704
 11
-11.1558
 21
5.24704
  0
LINE
  8
0
 10
-11.1558
 20
5.24704
 11
-10.9689
 21
5.22342
  0
LINE
  8
0
 10
-10.9689
 20
5.22342
 11
-10.7865
 21
5.17657
  0
LINE
  8
0
 10
-10.7865
 20
5.17657
 11
-10.6113
 21
5.10724
  0
LINE
  8
0
 10
-10.6113
 20
5.10724
 11
-10.4463
 21
5.01648
  0
LINE
  8
0
 10
-10.4463
 20
5.01648
 11
-10.2939
 21
4.90576
  0
LINE
  8
0
 10
-10.2939
 20
4.90576
 11
-10.1565
 21
4.77681
  0
LINE
  8
0
 10
-10.1565
 20
4.77681
 11
-10.0365
 21
4.63167
  0
LINE
  8
0
 10
-10.0365
 20
4.63167
 11
-9.93553
 21
4.47263
  0
LINE
  8
0
 10
-9.93553
 20
4.47263
 11
-9.85533
 21
4.30219
  0
LINE
  8
0
 10
-9.85533
 20
4.30219
 11
-9.79712
 21
4.12303
  0
LINE
  8
0
 10
-9.79712
 20
4.12303
 11
-9.76183
 21
3.93799
  0
LINE
  8
0
 10
-9.76183
 20
3.93799
 11
-9.75
 21
3.75
  0
LINE
  8
0
 10
-9.75
 20
3.75
 11
-9.76183
 21
3.562
  0
LINE
  8
0
 10
-9.76183
 20
3.562
 11
-9.79712
 21
3.37695
  0
LINE
  8
0
 10
-9.79712
 20
3.37695
 11
-9.85533
 21
3.1978
  0
LINE
  8
0
 10
-9.85533
 20
3.1978
 11
-9.93553
 21
3.02736
  0
LINE
  8
0
 10
-9.93553
 20
3.02736
 11
-10.0365
 21
2.86832
  0
LINE
  8
0
 10
-10.0365
 20
2.86832
 11
-10.1565
 21
2.72318
  0
LINE
  8
0
 10
-10.1565
 20
2.72318
 11
-10.2939
 21
2.59422
  0
LINE
  8
0
 10
-10.2939
 20
2.59422
 11
-10.4463
 21
2.48351
  0
LINE
  8
0
 10
-10.4463
 20
2.48351
 11
-10.6113
 21
2.39275
  0
LINE
  8
0
 10
-10.6113
 20
2.39275
 11
-10.7865
 21
2.32341
  0
LINE
  8
0
 10
-10.7865
 20
2.32341
 11
-10.9689
 21
2.27657
  0
LINE
  8
0
 10
-10.9689
 20
2.27657
 11
-11.1558
 21
2.25294
  0
LINE
  8
0
 10
-11.1558
 20
2.25294
 11
-11.3442
 21
2.25294
  0
LINE
  8
0
 10
-3.84418
 20
2.25294
 11
-4.03107
 21
2.27657
  0
LINE
  8
0
 10
-4.03107
 20
2.27657
 11
-4.21352
 21
2.32341
  0
LINE
  8
0
 10
-4.21352
 20
2.32341
 11
-4.38866
 21
2.39275
  0
LINE
  8
0
 10
-4.38866
 20
2.39275
 11
-4.55373
 21
2.48351
  0
LINE
  8
0
 10
-4.55373
 20
2.48351
 11
-4.70613
 21
2.59422
  0
LINE
  8
0
 10
-4.70613
 20
2.59422
 11
-4.84344
 21
2.72318
  0
LINE
  8
0
 10
-4.84344
 20
2.72318
 11
-4.96352
 21
2.86832
  0
LINE
  8
0
 10
-4.96352
 20
2.86832
 11
-5.06445
 21
3.02736
  0
LINE
  8
0
 10
-5.06445
 20
3.02736
 11
-5.14465
 21
3.1978
  0
LINE
  8
0
 10
-5.14465
 20
3.1978
 11
-5.20287
 21
3.37695
  0
LINE
  8
0
 10
-5.20287
 20
3.37695
 11
-5.23816
 21
3.562
  0
LINE
  8
0
 10
-5.23816
 20
3.562
 11
-5.25
 21
3.75
  0
LINE
  8
0
 10
-5.25
 20
3.75
 11
-5.23816
 21
3.93799
  0
LINE
  8
0
 10
-5.23816
 20
3.93799
 11
-5.20287
 21
4.12303
  0
LINE
  8
0
 10
-5.20287
 20
4.12303
 11
-5.14465
 21
4.30219
  0
LINE
  8
0
 10
-5.14465
 20
4.30219
 11
-5.06445
 21
4.47263
  0
LINE
  8
0
 10
-5.06445
 20
4.47263
 11
-4.96352
 21
4.63167
  0
LINE
  8
0
 10
-4.96352
 20
4.63167
 11
-4.84344
 21
4.77681
  0
LINE
  8
0
 10
-4.84344
 20
4.77681
 11
-4.70613
 21
4.90576
  0
LINE
  8
0
 10
-4.70613
 20
4.90576
 11
-4.55373
 21
5.01648
  0
LINE
  8
0
 10
-4.55373
 20
5.01648
 11
-4.38866
 21
5.10724
  0
LINE
  8
0
 10
-4.38866
 20
5.10724
 11
-4.21352
 21
5.17657
  0
LINE
  8
0
 10
-4.21352
 20
5.17657
 11
-4.03107
 21
5.22342
  0
LINE
  8
0
 10
-4.03107
 20
5.22342
 11
-3.84418
 21
5.24704
  0
LINE
  8
0
 10
-3.84418
 20
5.24704
 11
-3.65581
 21
5.24704
  0
LINE
  8
0
 10
-3.65581
 20
5.24704
 11
-3.46892
 21
5.22342
  0
LINE
  8
0
 10
-3.46892
 20
5.22342
 11
-3.28647
 21
5.17657
  0
LINE
  8
0
 10
-3.28647
 20
5.17657
 11
-3.11133
 21
5.10724
  0
LINE
  8
0
 10
-3.11133
 20
5.10724
 11
-2.94626
 21
5.01648
  0
LINE
  8
0
 10
-2.94626
 20
5.01648
 11
-2.79385
 21
4.90576
  0
LINE
  8
0
 10
-2.79385
 20
4.90576
 11
-2.65654
 21
4.77681
  0
LINE
  8
0
 10
-2.65654
 20
4.77681
 11
-2.53647
 21
4.63167
  0
LINE
  8
0
 10
-2.53647
 20
4.63167
 11
-2.43553
 21
4.47263
  0
LINE
  8
0
 10
-2.43553
 20
4.47263
 11
-2.35533
 21
4.30219
  0
LINE
  8
0
 10
-2.35533
 20
4.30219
 11
-2.29712
 21
4.12303
  0
LINE
  8
0
 10
-2.29712
 20
4.12303
 11
-2.26183
 21
3.93799
  0
LINE
  8
0
 10
-2.26183
 20
3.93799
 11
-2.25
 21
3.75
  0
LINE
  8
0
 10
-2.25
 20
3.75
 11
-2.26183
 21
3.562
  0
LINE
  8
0
 10
-2.26183
 20
3.562
 11
-2.29712
 21
3.37695
  0
LINE
  8
0
 10
-2.29712
 20
3.37695
 11
-2.35533
 21
3.1978
  0
LINE
  8
0
 10
-2.35533
 20
3.1978
 11
-2.43553
 21
3.02736
  0
LINE
  8
0
 10
-2.43553
 20
3.02736
 11
-2.53647
 21
2.86832
  0
LINE
  8
0
 10
-2.53647
 20
2.86832
 11
-2.65654
 21
2.72318
  0
LINE
  8
0
 10
-2.65654
 20
2.72318
 11
-2.79385
 21
2.59422
  0
LINE
  8
0
 10
-2.79385
 20
2.59422
 11
-2.94626
 21
2.48351
  0
LINE
  8
0
 10
-2.94626
 20
2.48351
 11
-3.11133
 21
2.39275
  0
LINE
  8
0
 10
-3.11133
 20
2.39275
 11
-3.28647
 21
2.32341
  0
LINE
  8
0
 10
-3.28647
 20
2.32341
 11
-3.46892
 21
2.27657
  0
LINE
  8
0
 10
-3.46892
 20
2.27657
 11
-3.65581
 21
2.25294
  0
LINE
  8
0
 10
-3.65581
 20
2.25294
 11
-3.84418
 21
2.25294
  0
LINE
  8
0
 10
3.65581
 20
2.25294
 11
3.46892
 21
2.27657
  0
LINE
  8
0
 10
3.46892
 20
2.27657
 11
3.28647
 21
2.32341
  0
LINE
  8
0
 10
3.28647
 20
2.32341
 11
3.11133
 21
2.39275
  0
LINE
  8
0
 10
3.11133
 20
2.39275
 11
2.94626
 21
2.48351
  0
LINE
  8
0
 10
2.94626
 20
2.48351
 11
2.79385
 21
2.59422
  0
LINE
  8
0
 10
2.79385
 20
2.59422
 11
2.65654
 21
2.72318
  0
LINE
  8
0
 10
2.65654
 20
2.72318
 11
2.53647
 21
2.86832
  0
LINE
  8
0
 10
2.53647
 20
2.86832
 11
2.43553
 21
3.02736
  0
LINE
  8
0
 10
2.43553
 20
3.02736
 11
2.35533
 21
3.1978
  0
LINE
  8
0
 10
2.35533
 20
3.1978
 11
2.29712
 21
3.37695
  0
LINE
  8
0
 10
2.29712
 20
3.37695
 11
2.26183
 21
3.562
  0
LINE
  8
0
 10
2.26183
 20
3.562
 11
2.25
 21
3.75
  0
LINE
  8
0
 10
2.25
 20
3.75
 11
2.26183
 21
3.93799
  0
LINE
  8
0
 10
2.26183
 20
3.93799
 11
2.29712
 21
4.12303
  0
LINE
  8
0
 10
2.29712
 20
4.12303
 11
2.35533
 21
4.30219
  0
LINE
  8
0
 10
2.35533
 20
4.30219
 11
2.43553
 21
4.47263
  0
LINE
  8
0
 10
2.43553
 20
4.47263
 11
2.53647
 21
4.63167
  0
LINE
  8
0
 10
2.53647
 20
4.63167
 11
2.65654
 21
4.77681
  0
LINE
  8
0
 10
2.65654
 20
4.77681
 11
2.79385
 21
4.90576
  0
LINE
  8
0
 10
2.79385
 20
4.90576
 11
2.94626
 21
5.01648
  0
LINE
  8
0
 10
2.94626
 20
5.01648
 11
3.11133
 21
5.10724
  0
LINE
  8
0
 10
3.11133
 20
5.10724
 11
3.28647
 21
5.17657
  0
LINE
  8
0
 10
3.28647
 20
5.17657
 11
3.46892
 21
5.22342
  0
LINE
  8
0
 10
3.46892
 20
5.22342
 11
3.65581
 21
5.24704
  0
LINE
  8
0
 10
3.65581
 20
5.24704
 11
3.84418
 21
5.24704
  0
LINE
  8
0
 10
3.84418
 20
5.24704
 11
4.03107
 21
5.22342
  0
LINE
  8
0
 10
4.03107
 20
5.22342
 11
4.21352
 21
5.17657
  0
LINE
  8
0
 10
4.21352
 20
5.17657
 11
4.38866
 21
5.10724
  0
LINE
  8
0
 10
4.38866
 20
5.10724
 11
4.55373
 21
5.01648
  0
LINE
  8
0
 10
4.55373
 20
5.01648
 11
4.70613
 21
4.90576
  0
LINE
  8
0
 10
4.70613
 20
4.90576
 11
4.84344
 21
4.77681
  0
LINE
  8
0
 10
4.84344
 20
4.77681
 11
4.96352
 21
4.63167
  0
LINE
  8
0
 10
4.96352
 20
4.63167
 11
5.06445
 21
4.47263
  0
LINE
  8
0
 10
5.06445
 20
4.47263
 11
5.14465
 21
4.30219
  0
LINE
  8
0
 10
5.14465
 20
4.30219
 11
5.20287
 21
4.12303
  0
LINE
  8
0
 10
5.20287
 20
4.12303
 11
5.23816
 21
3.93799
  0
LINE
  8
0
 10
5.23816
 20
3.93799
 11
5.25
 21
3.75
  0
LINE
  8
0
 10
5.25
 20
3.75
 11
5.23816
 21
3.562
  0
LINE
  8
0
 10
5.23816
 20
3.562
 11
5.20287
 21
3.37695
  0
LINE
  8
0
 10
5.20287
 20
3.37695
 11
5.14465
 21
3.1978
  0
LINE
  8
0
 10
5.14465
 20
3.1978
 11
5.06445
 21
3.02736
  0
LINE
  8
0
 10
5.06445
 20
3.02736
 11
4.96352
 21
2.86832
  0
LINE
  8
0
 10
4.96352
 20
2.86832
 11
4.84344
 21
2.72318
  0
LINE
  8
0
 10
4.84344
 20
2.72318
 11
4.70613
 21
2.59422
  0
LINE
  8
0
 10
4.70613
 20
2.59422
 11
4.55373
 21
2.48351
  0
LINE
  8
0
 10
4.55373
 20
2.48351
 11
4.38866
 21
2.39275
  0
LINE
  8
0
 10
4.38866
 20
2.39275
 11
4.21352
 21
2.32341
  0
LINE
  8
0
 10
4.21352
 20
2.32341
 11
4.03107
 21
2.27657
  0
LINE
  8
0
 10
4.03107
 20
2.27657
 11
3.84418
 21
2.25294
  0
LINE
  8
0
 10
3.84418
 20
2.25294
 11
3.65581
 21
2.25294
  0
LINE
  8
0
 10
11.1558
 20
-5.24704
 11
10.9689
 21
-5.22342
  0
LINE
  8
0
 10
10.9689
 20
-5.22342
 11
10.7865
 21
-5.17657
  0
LINE
  8
0
 10
10.7865
 20
-5.17657
 11
10.6113
 21
-5.10724
  0
LINE
  8
0
 10
10.6113
 20
-5.10724
 11
10.4463
 21
-5.01648
  0
LINE
  8
0
 10
10.4463
 20
-5.01648
 11
10.2939
 21
-4.90576
  0
LINE
  8
0
 10
10.2939
 20
-4.90576
 11
10.1565
 21
-4.77681
  0
LINE
  8
0
 10
10.1565
 20
-4.77681
 11
10.0365
 21
-4.63167
  0
LINE
  8
0
 10
10.0365
 20
-4.63167
 11
9.93553
 21
-4.47263
  0
LINE
  8
0
 10
9.93553
 20
-4.47263
 11
9.85533
 21
-4.30219
  0
LINE
  8
0
 10
9.85533
 20
-4.30219
 11
9.79712
 21
-4.12303
  0
LINE
  8
0
 10
9.79712
 20
-4.12303
 11
9.76183
 21
-3.93799
  0
LINE
  8
0
 10
9.76183
 20
-3.93799
 11
9.75
 21
-3.75
  0
LINE
  8
0
 10
9.75
 20
-3.75
 11
9.76183
 21
-3.562
  0
LINE
  8
0
 10
9.76183
 20
-3.562
 11
9.79712
 21
-3.37695
  0
LINE
  8
0
 10
9.79712
 20
-3.37695
 11
9.85533
 21
-3.1978
  0
LINE
  8
0
 10
9.85533
 20
-3.1978
 11
9.93553
 21
-3.02736
  0
LINE
  8
0
 10
9.93553
 20
-3.02736
 11
10.0365
 21
-2.86832
  0
LINE
  8
0
 10
10.0365
 20
-2.86832
 11
10.1565
 21
-2.72318
  0
LINE
  8
0
 10
10.1565
 20
-2.72318
 11
10.2939
 21
-2.59422
  0
LINE
  8
0
 10
10.2939
 20
-2.59422
 11
10.4463
 21
-2.48351
  0
LINE
  8
0
 10
10.4463
 20
-2.48351
 11
10.6113
 21
-2.39275
  0
LINE
  8
0
 10
10.6113
 20
-2.39275
 11
10.7865
 21
-2.32341
  0
LINE
  8
0
 10
10.7865
 20
-2.32341
 11
10.9689
 21
-2.27657
  0
LINE
  8
0
 10
10.9689
 20
-2.27657
 11
11.1558
 21
-2.25294
  0
LINE
  8
0
 10
11.1558
 20
-2.25294
 11
11.3442
 21
-2.25294
  0
LINE
  8
0
 10
11.3442
 20
-2.25294
 11
11.5311
 21
-2.27657
  0
LINE
  8
0
 10
11.5311
 20
-2.27657
 11
11.7135
 21
-2.32341
  0
LINE
  8
0
 10
11.7135
 20
-2.32341
 11
11.8887
 21
-2.39275
  0
LINE
  8
0
 10
11.8887
 20
-2.39275
 11
12.0537
 21
-2.48351
  0
LINE
  8
0
 10
12.0537
 20
-2.48351
 11
12.2061
 21
-2.59422
  0
LINE
  8
0
 10
12.2061
 20
-2.59422
 11
12.3434
 21
-2.72318
  0
LINE
  8
0
 10
12.3434
 20
-2.72318
 11
12.4635
 21
-2.86832
  0
LINE
  8
0
 10
12.4635
 20
-2.86832
 11
12.5645
 21
-3.02736
  0
LINE
  8
0
 10
12.5645
 20
-3.02736
 11
12.6447
 21
-3.1978
  0
LINE
  8
0
 10
12.6447
 20
-3.1978
 11
12.7029
 21
-3.37695
  0
LINE
  8
0
 10
12.7029
 20
-3.37695
 11
12.7382
 21
-3.562
  0
LINE
  8
0
 10
12.7382
 20
-3.562
 11
12.75
 21
-3.75
  0
LINE
  8
0
 10
12.75
 20
-3.75
 11
12.7382
 21
-3.93799
  0
LINE
  8
0
 10
12.7382
 20
-3.93799
 11
12.7029
 21
-4.12303
  0
LINE
  8
0
 10
12.7029
 20
-4.12303
 11
12.6447
 21
-4.30219
  0
LINE
  8
0
 10
12.6447
 20
-4.30219
 11
12.5645
 21
-4.47263
  0
LINE
  8
0
 10
12.5645
 20
-4.47263
 11
12.4635
 21
-4.63167
  0
LINE
  8
0
 10
12.4635
 20
-4.63167
 11
12.3434
 21
-4.77681
  0
LINE
  8
0
 10
12.3434
 20
-4.77681
 11
12.2061
 21
-4.90576
  0
LINE
  8
0
 10
12.2061
 20
-4.90576
 11
12.0537
 21
-5.01648
  0
LINE
  8
0
 10
12.0537
 20
-5.01648
 11
11.8887
 21
-5.10724
  0
LINE
  8
0
 10
11.8887
 20
-5.10724
 11
11.7135
 21
-5.17657
  0
LINE
  8
0
 10
11.7135
 20
-5.17657
 11
11.5311
 21
-5.22342
  0
LINE
  8
0
 10
11.5311
 20
-5.22342
 11
11.3442
 21
-5.24704
  0
LINE
  8
0
 10
11.3442
 20
-5.24704
 11
11.1558
 21
-5.24704
  0
LINE
  8
0
 10
-11.3442
 20
-5.24704
 11
-11.5311
 21
-5.22342
  0
LINE
  8
0
 10
-11.5311
 20
-5.22342
 11
-11.7135
 21
-5.17657
  0
LINE
  8
0
 10
-11.7135
 20
-5.17657
 11
-11.8887
 21
-5.10724
  0
LINE
  8
0
 10
-11.8887
 20
-5.10724
 11
-12.0537
 21
-5.01648
  0
LINE
  8
0
 10
-12.0537
 20
-5.01648
 11
-12.2061
 21
-4.90576
  0
LINE
  8
0
 10
-12.2061
 20
-4.90576
 11
-12.3434
 21
-4.77681
  0
LINE
  8
0
 10
-12.3434
 20
-4.77681
 11
-12.4635
 21
-4.63167
  0
LINE
  8
0
 10
-12.4635
 20
-4.63167
 11
-12.5645
 21
-4.47263
  0
LINE
  8
0
 10
-12.5645
 20
-4.47263
 11
-12.6447
 21
-4.30219
  0
LINE
  8
0
 10
-12.6447
 20
-4.30219
 11
-12.7029
 21
-4.12303
  0
LINE
  8
0
 10
-12.7029
 20
-4.12303
 11
-12.7382
 21
-3.93799
  0
LINE
  8
0
 10
-12.7382
 20
-3.93799
 11
-12.75
 21
-3.75
  0
LINE
  8
0
 10
-12.75
 20
-3.75
 11
-12.7382
 21
-3.562
  0
LINE
  8
0
 10
-12.7382
 20
-3.562
 11
-12.7029
 21
-3.37695
  0
LINE
  8
0
 10
-12.7029
 20
-3.37695
 11
-12.6447
 21
-3.1978
  0
LINE
  8
0
 10
-12.6447
 20
-3.1978
 11
-12.5645
 21
-3.02736
  0
LINE
  8
0
 10
-12.5645
 20
-3.02736
 11
-12.4635
 21
-2.86832
  0
LINE
  8
0
 10
-12.4635
 20
-2.86832
 11
-12.3434
 21
-2.72318
  0
LINE
  8
0
 10
-12.3434
 20
-2.72318
 11
-12.2061
 21
-2.59422
  0
LINE
  8
0
 10
-12.2061
 20
-2.59422
 11
-12.0537
 21
-2.48351
  0
LINE
  8
0
 10
-12.0537
 20
-2.48351
 11
-11.8887
 21
-2.39275
  0
LINE
  8
0
 10
-11.8887
 20
-2.39275
 11
-11.7135
 21
-2.32341
  0
LINE
  8
0
 10
-11.7135
 20
-2.32341
 11
-11.5311
 21
-2.27657
  0
LINE
  8
0
 10
-11.5311
 20
-2.27657
 11
-11.3442
 21
-2.25294
  0
LINE
  8
0
 10
-11.3442
 20
-2.25294
 11
-11.1558
 21
-2.25294
  0
LINE
  8
0
 10
-11.1558
 20
-2.25294
 11
-10.9689
 21
-2.27657
  0
LINE
  8
0
 10
-10.9689
 20
-2.27657
 11
-10.7865
 21
-2.32341
  0
LINE
  8
0
 10
-10.7865
 20
-2.32341
 11
-10.6113
 21
-2.39275
  0
LINE
  8
0
 10
-10.6113
 20
-2.39275
 11
-10.4463
 21
-2.48351
  0
LINE
  8
0
 10
-10.4463
 20
-2.48351
 11
-10.2939
 21
-2.59422
  0
LINE
  8
0
 10
-10.2939
 20
-2.59422
 11
-10.1565
 21
-2.72318
  0
LINE
  8
0
 10
-10.1565
 20
-2.72318
 11
-10.0365
 21
-2.86832
  0
LINE
  8
0
 10
-10.0365
 20
-2.86832
 11
-9.93553
 21
-3.02736
  0
LINE
  8
0
 10
-9.93553
 20
-3.02736
 11
-9.85533
 21
-3.1978
  0
LINE
  8
0
 10
-9.85533
 20
-3.1978
 11
-9.79712
 21
-3.37695
  0
LINE
  8
0
 10
-9.79712
 20
-3.37695
 11
-9.76183
 21
-3.562
  0
LINE
  8
0
 10
-9.76183
 20
-3.562
 11
-9.75
 21
-3.75
  0
LINE
  8
0
 10
-9.75
 20
-3.75
 11
-9.76183
 21
-3.93799
  0
LINE
  8
0
 10
-9.76183
 20
-3.93799
 11
-9.79712
 21
-4.12303
  0
LINE
  8
0
 10
-9.79712
 20
-4.12303
 11
-9.85533
 21
-4.30219
  0
LINE
  8
0
 10
-9.85533
 20
-4.30219
 11
-9.93553
 21
-4.47263
  0
LINE
  8
0
 10
-9.93553
 20
-4.47263
 11
-10.0365
 21
-4.63167
  0
LINE
  8
0
 10
-10.0365
 20
-4.63167
 11
-10.1565
 21
-4.77681
  0
LINE
  8
0
 10
-10.1565
 20
-4.77681
 11
-10.2939
 21
-4.90576
  0
LINE
  8
0
 10
-10.2939
 20
-4.90576
 11
-10.4463
 21
-5.01648
  0
LINE
  8
0
 10
-10.4463
 20
-5.01648
 11
-10.6113
 21
-5.10724
  0
LINE
  8
0
 10
-10.6113
 20
-5.10724
 11
-10.7865
 21
-5.17657
  0
LINE
  8
0
 10
-10.7865
 20
-5.17657
 11
-10.9689
 21
-5.22342
  0
LINE
  8
0
 10
-10.9689
 20
-5.22342
 11
-11.1558
 21
-5.24704
  0
LINE
  8
0
 10
-11.1558
 20
-5.24704
 11
-11.3442
 21
-5.24704
  0
LINE
  8
0
 10
3.65581
 20
-5.24704
 11
3.46892
 21
-5.22342
  0
LINE
  8
0
 10
3.46892
 20
-5.22342
 11
3.28647
 21
-5.17657
  0
LINE
  8
0
 10
3.28647
 20
-5.17657
 11
3.11133
 21
-5.10724
  0
LINE
  8
0
 10
3.11133
 20
-5.10724
 11
2.94626
 21
-5.01648
  0
LINE
  8
0
 10
2.94626
 20
-5.01648
 11
2.79385
 21
-4.90576
  0
LINE
  8
0
 10
2.79385
 20
-4.90576
 11
2.65654
 21
-4.77681
  0
LINE
  8
0
 10
2.65654
 20
-4.77681
 11
2.53647
 21
-4.63167
  0
LINE
  8
0
 10
2.53647
 20
-4.63167
 11
2.43553
 21
-4.47263
  0
LINE
  8
0
 10
2.43553
 20
-4.47263
 11
2.35533
 21
-4.30219
  0
LINE
  8
0
 10
2.35533
 20
-4.30219
 11
2.29712
 21
-4.12303
  0
LINE
  8
0
 10
2.29712
 20
-4.12303
 11
2.26183
 21
-3.93799
  0
LINE
  8
0
 10
2.26183
 20
-3.93799
 11
2.25
 21
-3.75
  0
LINE
  8
0
 10
2.25
 20
-3.75
 11
2.26183
 21
-3.562
  0
LINE
  8
0
 10
2.26183
 20
-3.562
 11
2.29712
 21
-3.37695
  0
LINE
  8
0
 10
2.29712
 20
-3.37695
 11
2.35533
 21
-3.1978
  0
LINE
  8
0
 10
2.35533
 20
-3.1978
 11
2.43553
 21
-3.02736
  0
LINE
  8
0
 10
2.43553
 20
-3.02736
 11
2.53647
 21
-2.86832
  0
LINE
  8
0
 10
2.53647
 20
-2.86832
 11
2.65654
 21
-2.72318
  0
LINE
  8
0
 10
2.65654
 20
-2.72318
 11
2.79385
 21
-2.59422
  0
LINE
  8
0
 10
2.79385
 20
-2.59422
 11
2.94626
 21
-2.48351
  0
LINE
  8
0
 10
2.94626
 20
-2.48351
 11
3.11133
 21
-2.39275
  0
LINE
  8
0
 10
3.11133
 20
-2.39275
 11
3.28647
 21
-2.32341
  0
LINE
  8
0
 10
3.28647
 20
-2.32341
 11
3.46892
 21
-2.27657
  0
LINE
  8
0
 10
3.46892
 20
-2.27657
 11
3.65581
 21
-2.25294
  0
LINE
  8
0
 10
3.65581
 20
-2.25294
 11
3.84418
 21
-2.25294
  0
LINE
  8
0
 10
3.84418
 20
-2.25294
 11
4.03107
 21
-2.27657
  0
LINE
  8
0
 10
4.03107
 20
-2.27657
 11
4.21352
 21
-2.32341
  0
LINE
  8
0
 10
4.21352
 20
-2.32341
 11
4.38866
 21
-2.39275
  0
LINE
  8
0
 10
4.38866
 20
-2.39275
 11
4.55373
 21
-2.48351
  0
LINE
  8
0
 10
4.55373
 20
-2.48351
 11
4.70613
 21
-2.59422
  0
LINE
  8
0
 10
4.70613
 20
-2.59422
 11
4.84344
 21
-2.72318
  0
LINE
  8
0
 10
4.84344
 20
-2.72318
 11
4.96352
 21
-2.86832
  0
LINE
  8
0
 10
4.96352
 20
-2.86832
 11
5.06445
 21
-3.02736
  0
LINE
  8
0
 10
5.06445
 20
-3.02736
 11
5.14465
 21
-3.1978
  0
LINE
  8
0
 10
5.14465
 20
-3.1978
 11
5.20287
 21
-3.37695
  0
LINE
  8
0
 10
5.20287
 20
-3.37695
 11
5.23816
 21
-3.562
  0
LINE
  8
0
 10
5.23816
 20
-3.562
 11
5.25
 21
-3.75
  0
LINE
  8
0
 10
5.25
 20
-3.75
 11
5.23816
 21
-3.93799
  0
LINE
  8
0
 10
5.23816
 20
-3.93799
 11
5.20287
 21
-4.12303
  0
LINE
  8
0
 10
5.20287
 20
-4.12303
 11
5.14465
 21
-4.30219
  0
LINE
  8
0
 10
5.14465
 20
-4.30219
 11
5.06445
 21
-4.47263
  0
LINE
  8
0
 10
5.06445
 20
-4.47263
 11
4.96352
 21
-4.63167
  0
LINE
  8
0
 10
4.96352
 20
-4.63167
 11
4.84344
 21
-4.77681
  0
LINE
  8
0
 10
4.84344
 20
-4.77681
 11
4.70613
 21
-4.90576
  0
LINE
  8
0
 10
4.70613
 20
-4.90576
 11
4.55373
 21
-5.01648
  0
LINE
  8
0
 10
4.55373
 20
-5.01648
 11
4.38866
 21
-5.10724
  0
LINE
  8
0
 10
4.38866
 20
-5.10724
 11
4.21352
 21
-5.17657
  0
LINE
  8
0
 10
4.21352
 20
-5.17657
 11
4.03107
 21
-5.22342
  0
LINE
  8
0
 10
4.03107
 20
-5.22342
 11
3.84418
 21
-5.24704
  0
LINE
  8
0
 10
3.84418
 20
-5.24704
 11
3.65581
 21
-5.24704
  0
LINE
  8
0
 10
-3.84418
 20
-5.24704
 11
-4.03107
 21
-5.22342
  0
LINE
  8
0
 10
-4.03107
 20
-5.22342
 11
-4.21352
 21
-5.17657
  0
LINE
  8
0
 10
-4.21352
 20
-5.17657
 11
-4.38866
 21
-5.10724
  0
LINE
  8
0
 10
-4.38866
 20
-5.10724
 11
-4.55373
 21
-5.01648
  0
LINE
  8
0
 10
-4.55373
 20
-5.01648
 11
-4.70613
 21
-4.90576
  0
LINE
  8
0
 10
-4.70613
 20
-4.90576
 11
-4.84344
 21
-4.77681
  0
LINE
  8
0
 10
-4.84344
 20
-4.77681
 11
-4.96352
 21
-4.63167
  0
LINE
  8
0
 10
-4.96352
 20
-4.63167
 11
-5.06445
 21
-4.47263
  0
LINE
  8
0
 10
-5.06445
 20
-4.47263
 11
-5.14465
 21
-4.30219
  0
LINE
  8
0
 10
-5.14465
 20
-4.30219
 11
-5.20287
 21
-4.12303
  0
LINE
  8
0
 10
-5.20287
 20
-4.12303
 11
-5.23816
 21
-3.93799
  0
LINE
  8
0
 10
-5.23816
 20
-3.93799
 11
-5.25
 21
-3.75
  0
LINE
  8
0
 10
-5.25
 20
-3.75
 11
-5.23816
 21
-3.562
  0
LINE
  8
0
 10
-5.23816
 20
-3.562
 11
-5.20287
 21
-3.37695
  0
LINE
  8
0
 10
-5.20287
 20
-3.37695
 11
-5.14465
 21
-3.1978
  0
LINE
  8
0
 10
-5.14465
 20
-3.1978
 11
-5.06445
 21
-3.02736
  0
LINE
  8
0
 10
-5.06445
 20
-3.02736
 11
-4.96352
 21
-2.86832
  0
LINE
  8
0
 10
-4.96352
 20
-2.86832
 11
-4.84344
 21
-2.72318
  0
LINE
  8
0
 10
-4.84344
 20
-2.72318
 11
-4.70613
 21
-2.59422
  0
LINE
  8
0
 10
-4.70613
 20
-2.59422
 11
-4.55373
 21
-2.48351
  0
LINE
  8
0
 10
-4.55373
 20
-2.48351
 11
-4.38866
 21
-2.39275
  0
LINE
  8
0
 10
-4.38866
 20
-2.39275
 11
-4.21352
 21
-2.32341
  0
LINE
  8
0
 10
-4.21352
 20
-2.32341
 11
-4.03107
 21
-2.27657
  0
LINE
  8
0
 10
-4.03107
 20
-2.27657
 11
-3.84418
 21
-2.25294
  0
LINE
  8
0
 10
-3.84418
 20
-2.25294
 11
-3.65581
 21
-2.25294
  0
LINE
  8
0
 10
-3.65581
 20
-2.25294
 11
-3.46892
 21
-2.27657
  0
LINE
  8
0
 10
-3.46892
 20
-2.27657
 11
-3.28647
 21
-2.32341
  0
LINE
  8
0
 10
-3.28647
 20
-2.32341
 11
-3.11133
 21
-2.39275
  0
LINE
  8
0
 10
-3.11133
 20
-2.39275
 11
-2.94626
 21
-2.48351
  0
LINE
  8
0
 10
-2.94626
 20
-2.48351
 11
-2.79385
 21
-2.59422
  0
LINE
  8
0
 10
-2.79385
 20
-2.59422
 11
-2.65654
 21
-2.72318
  0
LINE
  8
0
 10
-2.65654
 20
-2.72318
 11
-2.53647
 21
-2.86832
  0
LINE
  8
0
 10
-2.53647
 20
-2.86832
 11
-2.43553
 21
-3.02736
  0
LINE
  8
0
 10
-2.43553
 20
-3.02736
 11
-2.35533
 21
-3.1978
  0
LINE
  8
0
 10
-2.35533
 20
-3.1978
 11
-2.29712
 21
-3.37695
  0
LINE
  8
0
 10
-2.29712
 20
-3.37695
 11
-2.26183
 21
-3.562
  0
LINE
  8
0
 10
-2.26183
 20
-3.562
 11
-2.25
 21
-3.75
  0
LINE
  8
0
 10
-2.25
 20
-3.75
 11
-2.26183
 21
-3.93799
  0
LINE
  8
0
 10
-2.26183
 20
-3.93799
 11
-2.29712
 21
-4.12303
  0
LINE
  8
0
 10
-2.29712
 20
-4.12303
 11
-2.35533
 21
-4.30219
  0
LINE
  8
0
 10
-2.35533
 20
-4.30219
 11
-2.43553
 21
-4.47263
  0
LINE
  8
0
 10
-2.43553
 20
-4.47263
 11
-2.53647
 21
-4.63167
  0
LINE
  8
0
 10
-2.53647
 20
-4.63167
 11
-2.65654
 21
-4.77681
  0
LINE
  8
0
 10
-2.65654
 20
-4.77681
 11
-2.79385
 21
-4.90576
  0
LINE
  8
0
 10
-2.79385
 20
-4.90576
 11
-2.94626
 21
-5.01648
  0
LINE
  8
0
 10
-2.94626
 20
-5.01648
 11
-3.11133
 21
-5.10724
  0
LINE
  8
0
 10
-3.11133
 20
-5.10724
 11
-3.28647
 21
-5.17657
  0
LINE
  8
0
 10
-3.28647
 20
-5.17657
 11
-3.46892
 21
-5.22342
  0
LINE
  8
0
 10
-3.46892
 20
-5.22342
 11
-3.65581
 21
-5.24704
  0
LINE
  8
0
 10
-3.65581
 20
-5.24704
 11
-3.84418
 21
-5.24704
  0
LINE
  8
0
 10
-11.3442
 20
-12.747
 11
-11.5311
 21
-12.7234
  0
LINE
  8
0
 10
-11.5311
 20
-12.7234
 11
-11.7135
 21
-12.6766
  0
LINE
  8
0
 10
-11.7135
 20
-12.6766
 11
-11.8887
 21
-12.6072
  0
LINE
  8
0
 10
-11.8887
 20
-12.6072
 11
-12.0537
 21
-12.5165
  0
LINE
  8
0
 10
-12.0537
 20
-12.5165
 11
-12.2061
 21
-12.4058
  0
LINE
  8
0
 10
-12.2061
 20
-12.4058
 11
-12.3434
 21
-12.2768
  0
LINE
  8
0
 10
-12.3434
 20
-12.2768
 11
-12.4635
 21
-12.1317
  0
LINE
  8
0
 10
-12.4635
 20
-12.1317
 11
-12.5645
 21
-11.9726
  0
LINE
  8
0
 10
-12.5645
 20
-11.9726
 11
-12.6447
 21
-11.8022
  0
LINE
  8
0
 10
-12.6447
 20
-11.8022
 11
-12.7029
 21
-11.623
  0
LINE
  8
0
 10
-12.7029
 20
-11.623
 11
-12.7382
 21
-11.438
  0
LINE
  8
0
 10
-12.7382
 20
-11.438
 11
-12.75
 21
-11.25
  0
LINE
  8
0
 10
-12.75
 20
-11.25
 11
-12.7382
 21
-11.062
  0
LINE
  8
0
 10
-12.7382
 20
-11.062
 11
-12.7029
 21
-10.877
  0
LINE
  8
0
 10
-12.7029
 20
-10.877
 11
-12.6447
 21
-10.6978
  0
LINE
  8
0
 10
-12.6447
 20
-10.6978
 11
-12.5645
 21
-10.5274
  0
LINE
  8
0
 10
-12.5645
 20
-10.5274
 11
-12.4635
 21
-10.3683
  0
LINE
  8
0
 10
-12.4635
 20
-10.3683
 11
-12.3434
 21
-10.2232
  0
LINE
  8
0
 10
-12.3434
 20
-10.2232
 11
-12.2061
 21
-10.0942
  0
LINE
  8
0
 10
-12.2061
 20
-10.0942
 11
-12.0537
 21
-9.98351
  0
LINE
  8
0
 10
-12.0537
 20
-9.98351
 11
-11.8887
 21
-9.89275
  0
LINE
  8
0
 10
-11.8887
 20
-9.89275
 11
-11.7135
 21
-9.82341
  0
LINE
  8
0
 10
-11.7135
 20
-9.82341
 11
-11.5311
 21
-9.77657
  0
LINE
  8
0
 10
-11.5311
 20
-9.77657
 11
-11.3442
 21
-9.75294
  0
LINE
  8
0
 10
-11.3442
 20
-9.75294
 11
-11.1558
 21
-9.75294
  0
LINE
  8
0
 10
-11.1558
 20
-9.75294
 11
-10.9689
 21
-9.77657
  0
LINE
  8
0
 10
-10.9689
 20
-9.77657
 11
-10.7865
 21
-9.82341
  0
LINE
  8
0
 10
-10.7865
 20
-9.82341
 11
-10.6113
 21
-9.89275
  0
LINE
  8
0
 10
-10.6113
 20
-9.89275
 11
-10.4463
 21
-9.98351
  0
LINE
  8
0
 10
-10.4463
 20
-9.98351
 11
-10.2939
 21
-10.0942
  0
LINE
  8
0
 10
-10.2939
 20
-10.0942
 11
-10.1565
 21
-10.2232
  0
LINE
  8
0
 10
-10.1565
 20
-10.2232
 11
-10.0365
 21
-10.3683
  0
LINE
  8
0
 10
-10.0365
 20
-10.3683
 11
-9.93553
 21
-10.5274
  0
LINE
  8
0
 10
-9.93553
 20
-10.5274
 11
-9.85533
 21
-10.6978
  0
LINE
  8
0
 10
-9.85533
 20
-10.6978
 11
-9.79712
 21
-10.877
  0
LINE
  8
0
 10
-9.79712
 20
-10.877
 11
-9.76183
 21
-11.062
  0
LINE
  8
0
 10
-9.76183
 20
-11.062
 11
-9.75
 21
-11.25
  0
LINE
  8
0
 10
-9.75
 20
-11.25
 11
-9.76183
 21
-11.438
  0
LINE
  8
0
 10
-9.76183
 20
-11.438
 11
-9.79712
 21
-11.623
  0
LINE
  8
0
 10
-9.79712
 20
-11.623
 11
-9.85533
 21
-11.8022
  0
LINE
  8
0
 10
-9.85533
 20
-11.8022
 11
-9.93553
 21
-11.9726
  0
LINE
  8
0
 10
-9.93553
 20
-11.9726
 11
-10.0365
 21
-12.1317
  0
LINE
  8
0
 10
-10.0365
 20
-12.1317
 11
-10.1565
 21
-12.2768
  0
LINE
  8
0
 10
-10.1565
 20
-12.2768
 11
-10.2939
 21
-12.4058
  0
LINE
  8
0
 10
-10.2939
 20
-12.4058
 11
-10.4463
 21
-12.5165
  0
LINE
  8
0
 10
-10.4463
 20
-12.5165
 11
-10.6113
 21
-12.6072
  0
LINE
  8
0
 10
-10.6113
 20
-12.6072
 11
-10.7865
 21
-12.6766
  0
LINE
  8
0
 10
-10.7865
 20
-12.6766
 11
-10.9689
 21
-12.7234
  0
LINE
  8
0
 10
-10.9689
 20
-12.7234
 11
-11.1558
 21
-12.747
  0
LINE
  8
0
 10
-11.1558
 20
-12.747
 11
-11.3442
 21
-12.747
  0
LINE
  8
0
 10
11.1558
 20
-12.747
 11
10.9689
 21
-12.7234
  0
LINE
  8
0
 10
10.9689
 20
-12.7234
 11
10.7865
 21
-12.6766
  0
LINE
  8
0
 10
10.7865
 20
-12.6766
 11
10.6113
 21
-12.6072
  0
LINE
  8
0
 10
10.6113
 20
-12.6072
 11
10.4463
 21
-12.5165
  0
LINE
  8
0
 10
10.4463
 20
-12.5165
 11
10.2939
 21
-12.4058
  0
LINE
  8
0
 10
10.2939
 20
-12.4058
 11
10.1565
 21
-12.2768
  0
LINE
  8
0
 10
10.1565
 20
-12.2768
 11
10.0365
 21
-12.1317
  0
LINE
  8
0
 10
10.0365
 20
-12.1317
 11
9.93553
 21
-11.9726
  0
LINE
  8
0
 10
9.93553
 20
-11.9726
 11
9.85533
 21
-11.8022
  0
LINE
  8
0
 10
9.85533
 20
-11.8022
 11
9.79712
 21
-11.623
  0
LINE
  8
0
 10
9.79712
 20
-11.623
 11
9.76183
 21
-11.438
  0
LINE
  8
0
 10
9.76183
 20
-11.438
 11
9.75
 21
-11.25
  0
LINE
  8
0
 10
9.75
 20
-11.25
 11
9.76183
 21
-11.062
  0
LINE
  8
0
 10
9.76183
 20
-11.062
 11
9.79712
 21
-10.877
  0
LINE
  8
0
 10
9.79712
 20
-10.877
 11
9.85533
 21
-10.6978
  0
LINE
  8
0
 10
9.85533
 20
-10.6978
 11
9.93553
 21
-10.5274
  0
LINE
  8
0
 10
9.93553
 20
-10.5274
 11
10.0365
 21
-10.3683
  0
LINE
  8
0
 10
10.0365
 20
-10.3683
 11
10.1565
 21
-10.2232
  0
LINE
  8
0
 10
10.1565
 20
-10.2232
 11
10.2939
 21
-10.0942
  0
LINE
  8
0
 10
10.2939
 20
-10.0942
 11
10.4463
 21
-9.98351
  0
LINE
  8
0
 10
10.4463
 20
-9.98351
 11
10.6113
 21
-9.89275
  0
LINE
  8
0
 10
10.6113
 20
-9.89275
 11
10.7865
 21
-9.82341
  0
LINE
  8
0
 10
10.7865
 20
-9.82341
 11
10.9689
 21
-9.77657
  0
LINE
  8
0
 10
10.9689
 20
-9.77657
 11
11.1558
 21
-9.75294
  0
LINE
  8
0
 10
11.1558
 20
-9.75294
 11
11.3442
 21
-9.75294
  0
LINE
  8
0
 10
11.3442
 20
-9.75294
 11
11.5311
 21
-9.77657
  0
LINE
  8
0
 10
11.5311
 20
-9.77657
 11
11.7135
 21
-9.82341
  0
LINE
  8
0
 10
11.7135
 20
-9.82341
 11
11.8887
 21
-9.89275
  0
LINE
  8
0
 10
11.8887
 20
-9.89275
 11
12.0537
 21
-9.98351
  0
LINE
  8
0
 10
12.0537
 20
-9.98351
 11
12.2061
 21
-10.0942
  0
LINE
  8
0
 10
12.2061
 20
-10.0942
 11
12.3434
 21
-10.2232
  0
LINE
  8
0
 10
12.3434
 20
-10.2232
 11
12.4635
 21
-10.3683
  0
LINE
  8
0
 10
12.4635
 20
-10.3683
 11
12.5645
 21
-10.5274
  0
LINE
  8
0
 10
12.5645
 20
-10.5274
 11
12.6447
 21
-10.6978
  0
LINE
  8
0
 10
12.6447
 20
-10.6978
 11
12.7029
 21
-10.877
  0
LINE
  8
0
 10
12.7029
 20
-10.877
 11
12.7382
 21
-11.062
  0
LINE
  8
0
 10
12.7382
 20
-11.062
 11
12.75
 21
-11.25
  0
LINE
  8
0
 10
12.75
 20
-11.25
 11
12.7382
 21
-11.438
  0
LINE
  8
0
 10
12.7382
 20
-11.438
 11
12.7029
 21
-11.623
  0
LINE
  8
0
 10
12.7029
 20
-11.623
 11
12.6447
 21
-11.8022
  0
LINE
  8
0
 10
12.6447
 20
-11.8022
 11
12.5645
 21
-11.9726
  0
LINE
  8
0
 10
12.5645
 20
-11.9726
 11
12.4635
 21
-12.1317
  0
LINE
  8
0
 10
12.4635
 20
-12.1317
 11
12.3434
 21
-12.2768
  0
LINE
  8
0
 10
12.3434
 20
-12.2768
 11
12.2061
 21
-12.4058
  0
LINE
  8
0
 10
12.2061
 20
-12.4058
 11
12.0537
 21
-12.5165
  0
LINE
  8
0
 10
12.0537
 20
-12.5165
 11
11.8887
 21
-12.6072
  0
LINE
  8
0
 10
11.8887
 20
-12.6072
 11
11.7135
 21
-12.6766
  0
LINE
  8
0
 10
11.7135
 20
-12.6766
 11
11.5311
 21
-12.7234
  0
LINE
  8
0
 10
11.5311
 20
-12.7234
 11
11.3442
 21
-12.747
  0
LINE
  8
0
 10
11.3442
 20
-12.747
 11
11.1558
 21
-12.747
  0
LINE
  8
0
 10
3.65581
 20
-12.747
 11
3.46892
 21
-12.7234
  0
LINE
  8
0
 10
3.46892
 20
-12.7234
 11
3.28647
 21
-12.6766
  0
LINE
  8
0
 10
3.28647
 20
-12.6766
 11
3.11133
 21
-12.6072
  0
LINE
  8
0
 10
3.11133
 20
-12.6072
 11
2.94626
 21
-12.5165
  0
LINE
  8
0
 10
2.94626
 20
-12.5165
 11
2.79385
 21
-12.4058
  0
LINE
  8
0
 10
2.79385
 20
-12.4058
 11
2.65654
 21
-12.2768
  0
LINE
  8
0
 10
2.65654
 20
-12.2768
 11
2.53647
 21
-12.1317
  0
LINE
  8
0
 10
2.53647
 20
-12.1317
 11
2.43553
 21
-11.9726
  0
LINE
  8
0
 10
2.43553
 20
-11.9726
 11
2.35533
 21
-11.8022
  0
LINE
  8
0
 10
2.35533
 20
-11.8022
 11
2.29712
 21
-11.623
  0
LINE
  8
0
 10
2.29712
 20
-11.623
 11
2.26183
 21
-11.438
  0
LINE
  8
0
 10
2.26183
 20
-11.438
 11
2.25
 21
-11.25
  0
LINE
  8
0
 10
2.25
 20
-11.25
 11
2.26183
 21
-11.062
  0
LINE
  8
0
 10
2.26183
 20
-11.062
 11
2.29712
 21
-10.877
  0
LINE
  8
0
 10
2.29712
 20
-10.877
 11
2.35533
 21
-10.6978
  0
LINE
  8
0
 10
2.35533
 20
-10.6978
 11
2.43553
 21
-10.5274
  0
LINE
  8
0
 10
2.43553
 20
-10.5274
 11
2.53647
 21
-10.3683
  0
LINE
  8
0
 10
2.53647
 20
-10.3683
 11
2.65654
 21
-10.2232
  0
LINE
  8
0
 10
2.65654
 20
-10.2232
 11
2.79385
 21
-10.0942
  0
LINE
  8
0
 10
2.79385
 20
-10.0942
 11
2.94626
 21
-9.98351
  0
LINE
  8
0
 10
2.94626
 20
-9.98351
 11
3.11133
 21
-9.89275
  0
LINE
  8
0
 10
3.11133
 20
-9.89275
 11
3.28647
 21
-9.82341
  0
LINE
  8
0
 10
3.28647
 20
-9.82341
 11
3.46892
 21
-9.77657
  0
LINE
  8
0
 10
3.46892
 20
-9.77657
 11
3.65581
 21
-9.75294
  0
LINE
  8
0
 10
3.65581
 20
-9.75294
 11
3.84418
 21
-9.75294
  0
LINE
  8
0
 10
3.84418
 20
-9.75294
 11
4.03107
 21
-9.77657
  0
LINE
  8
0
 10
4.03107
 20
-9.77657
 11
4.21352
 21
-9.82341
  0
LINE
  8
0
 10
4.21352
 20
-9.82341
 11
4.38866
 21
-9.89275
  0
LINE
  8
0
 10
4.38866
 20
-9.89275
 11
4.55373
 21
-9.98351
  0
LINE
  8
0
 10
4.55373
 20
-9.98351
 11
4.70613
 21
-10.0942
  0
LINE
  8
0
 10
4.70613
 20
-10.0942
 11
4.84344
 21
-10.2232
  0
LINE
  8
0
 10
4.84344
 20
-10.2232
 11
4.96352
 21
-10.3683
  0
LINE
  8
0
 10
4.96352
 20
-10.3683
 11
5.06445
 21
-10.5274
  0
LINE
  8
0
 10
5.06445
 20
-10.5274
 11
5.14465
 21
-10.6978
  0
LINE
  8
0
 10
5.14465
 20
-10.6978
 11
5.20287
 21
-10.877
  0
LINE
  8
0
 10
5.20287
 20
-10.877
 11
5.23816
 21
-11.062
  0
LINE
  8
0
 10
5.23816
 20
-11.062
 11
5.25
 21
-11.25
  0
LINE
  8
0
 10
5.25
 20
-11.25
 11
5.23816
 21
-11.438
  0
LINE
  8
0
 10
5.23816
 20
-11.438
 11
5.20287
 21
-11.623
  0
LINE
  8
0
 10
5.20287
 20
-11.623
 11
5.14465
 21
-11.8022
  0
LINE
  8
0
 10
5.14465
 20
-11.8022
 11
5.06445
 21
-11.9726
  0
LINE
  8
0
 10
5.06445
 20
-11.9726
 11
4.96352
 21
-12.1317
  0
LINE
  8
0
 10
4.96352
 20
-12.1317
 11
4.84344
 21
-12.2768
  0
LINE
  8
0
 10
4.84344
 20
-12.2768
 11
4.70613
 21
-12.4058
  0
LINE
  8
0
 10
4.70613
 20
-12.4058
 11
4.55373
 21
-12.5165
  0
LINE
  8
0
 10
4.55373
 20
-12.5165
 11
4.38866
 21
-12.6072
  0
LINE
  8
0
 10
4.38866
 20
-12.6072
 11
4.21352
 21
-12.6766
  0
LINE
  8
0
 10
4.21352
 20
-12.6766
 11
4.03107
 21
-12.7234
  0
LINE
  8
0
 10
4.03107
 20
-12.7234
 11
3.84418
 21
-12.747
  0
LINE
  8
0
 10
3.84418
 20
-12.747
 11
3.65581
 21
-12.747
  0
LINE
  8
0
 10
-3.84418
 20
-12.747
 11
-4.03107
 21
-12.7234
  0
LINE
  8
0
 10
-4.03107
 20
-12.7234
 11
-4.21352
 21
-12.6766
  0
LINE
  8
0
 10
-4.21352
 20
-12.6766
 11
-4.38866
 21
-12.6072
  0
LINE
  8
0
 10
-4.38866
 20
-12.6072
 11
-4.55373
 21
-12.5165
  0
LINE
  8
0
 10
-4.55373
 20
-12.5165
 11
-4.70613
 21
-12.4058
  0
LINE
  8
0
 10
-4.70613
 20
-12.4058
 11
-4.84344
 21
-12.2768
  0
LINE
  8
0
 10
-4.84344
 20
-12.2768
 11
-4.96352
 21
-12.1317
  0
LINE
  8
0
 10
-4.96352
 20
-12.1317
 11
-5.06445
 21
-11.9726
  0
LINE
  8
0
 10
-5.06445
 20
-11.9726
 11
-5.14465
 21
-11.8022
  0
LINE
  8
0
 10
-5.14465
 20
-11.8022
 11
-5.20287
 21
-11.623
  0
LINE
  8
0
 10
-5.20287
 20
-11.623
 11
-5.23816
 21
-11.438
  0
LINE
  8
0
 10
-5.23816
 20
-11.438
 11
-5.25
 21
-11.25
  0
LINE
  8
0
 10
-5.25
 20
-11.25
 11
-5.23816
 21
-11.062
  0
LINE
  8
0
 10
-5.23816
 20
-11.062
 11
-5.20287
 21
-10.877
  0
LINE
  8
0
 10
-5.20287
 20
-10.877
 11
-5.14465
 21
-10.6978
  0
LINE
  8
0
 10
-5.14465
 20
-10.6978
 11
-5.06445
 21
-10.5274
  0
LINE
  8
0
 10
-5.06445
 20
-10.5274
 11
-4.96352
 21
-10.3683
  0
LINE
  8
0
 10
-4.96352
 20
-10.3683
 11
-4.84344
 21
-10.2232
  0
LINE
  8
0
 10
-4.84344
 20
-10.2232
 11
-4.70613
 21
-10.0942
  0
LINE
  8
0
 10
-4.70613
 20
-10.0942
 11
-4.55373
 21
-9.98351
  0
LINE
  8
0
 10
-4.55373
 20
-9.98351
 11
-4.38866
 21
-9.89275
  0
LINE
  8
0
 10
-4.38866
 20
-9.89275
 11
-4.21352
 21
-9.82341
  0
LINE
  8
0
 10
-4.21352
 20
-9.82341
 11
-4.03107
 21
-9.77657
  0
LINE
  8
0
 10
-4.03107
 20
-9.77657
 11
-3.84418
 21
-9.75294
  0
LINE
  8
0
 10
-3.84418
 20
-9.75294
 11
-3.65581
 21
-9.75294
  0
LINE
  8
0
 10
-3.65581
 20
-9.75294
 11
-3.46892
 21
-9.77657
  0
LINE
  8
0
 10
-3.46892
 20
-9.77657
 11
-3.28647
 21
-9.82341
  0
LINE
  8
0
 10
-3.28647
 20
-9.82341
 11
-3.11133
 21
-9.89275
  0
LINE
  8
0
 10
-3.11133
 20
-9.89275
 11
-2.94626
 21
-9.98351
  0
LINE
  8
0
 10
-2.94626
 20
-9.98351
 11
-2.79385
 21
-10.0942
  0
LINE
  8
0
 10
-2.79385
 20
-10.0942
 11
-2.65654
 21
-10.2232
  0
LINE
  8
0
 10
-2.65654
 20
-10.2232
 11
-2.53647
 21
-10.3683
  0
LINE
  8
0
 10
-2.53647
 20
-10.3683
 11
-2.43553
 21
-10.5274
  0
LINE
  8
0
 10
-2.43553
 20
-10.5274
 11
-2.35533
 21
-10.6978
  0
LINE
  8
0
 10
-2.35533
 20
-10.6978
 11
-2.29712
 21
-10.877
  0
LINE
  8
0
 10
-2.29712
 20
-10.877
 11
-2.26183
 21
-11.062
  0
LINE
  8
0
 10
-2.26183
 20
-11.062
 11
-2.25
 21
-11.25
  0
LINE
  8
0
 10
-2.25
 20
-11.25
 11
-2.26183
 21
-11.438
  0
LINE
  8
0
 10
-2.26183
 20
-11.438
 11
-2.29712
 21
-11.623
  0
LINE
  8
0
 10
-2.29712
 20
-11.623
 11
-2.35533
 21
-11.8022
  0
LINE
  8
0
 10
-2.35533
 20
-11.8022
 11
-2.43553
 21
-11.9726
  0
LINE
  8
0
 10
-2.43553
 20
-11.9726
 11
-2.53647
 21
-12.1317
  0
LINE
  8
0
 10
-2.53647
 20
-12.1317
 11
-2.65654
 21
-12.2768
  0
LINE
  8
0
 10
-2.65654
 20
-12.2768
 11
-2.79385
 21
-12.4058
  0
LINE
  8
0
 10
-2.79385
 20
-12.4058
 11
-2.94626
 21
-12.5165
  0
LINE
  8
0
 10
-2.94626
 20
-12.5165
 11
-3.11133
 21
-12.6072
  0
LINE
  8
0
 10
-3.11133
 20
-12.6072
 11
-3.28647
 21
-12.6766
  0
LINE
  8
0
 10
-3.28647
 20
-12.6766
 11
-3.46892
 21
-12.7234
  0
LINE
  8
0
 10
-3.46892
 20
-12.7234
 11
-3.65581
 21
-12.747
  0
LINE
  8
0
 10
-3.65581
 20
-12.747
 11
-3.84418
 21
-12.747
  0
ENDSEC
  0
SECTION
  2
OBJECTS
  0
DICTIONARY
  0
ENDSEC
  0
EOF
