<?xml version="1.0" standalone="no"?>
<!DOCTYPE svg PUBLIC "-//W3C//DTD SVG 1.1//EN" "http://www.w3.org/Graphics/SVG/1.1/DTD/svg11.dtd">
<svg width="60mm" height="60mm" viewBox="-30 -30 60 60" xmlns="http://www.w3.org/2000/svg" version="1.1">
<title>OpenSCAD Model</title>
<path d="
M 27.7184,29.7057 L 28.0225,29.6276 L 28.3144,29.5121 L 28.5896,29.3608 L 28.8436,29.1763 L 29.0724,28.9614
 L 29.2725,28.7195 L 29.4408,28.4544 L 29.5744,28.1703 L 29.6714,27.8717 L 29.7303,27.5633 L 29.75,27.25
 L 29.75,-27.25 L 29.7303,-27.5633 L 29.6714,-27.8717 L 29.5744,-28.1703 L 29.4408,-28.4544 L 29.2725,-28.7195
 L 29.0724,-28.9614 L 28.8436,-29.1763 L 28.5896,-29.3608 L 28.3144,-29.5121 L 28.0225,-29.6276 L 27.7184,-29.7057
 L 27.407,-29.7451 L -27.407,-29.7451 L -27.7184,-29.7057 L -28.0225,-29.6276 L -28.3144,-29.5121 L -28.5896,-29.3608
 L -28.8436,-29.1763 L -29.0724,-28.9614 L -29.2725,-28.7195 L -29.4408,-28.4544 L -29.5744,-28.1703 L -29.6714,-27.8717
 L -29.7303,-27.5633 L -29.75,-27.25 L -29.75,27.25 L -29.7303,27.5633 L -29.6714,27.8717 L -29.5744,28.1703
 L -29.4408,28.4544 L -29.2725,28.7195 L -29.0724,28.9614 L -28.8436,29.1763 L -28.5896,29.3608 L -28.3144,29.5121
 L -28.0225,29.6276 L -27.7184,29.7057 L -27.407,29.7451 L 27.407,29.7451 z
M 3.65581,-24.753 L 3.46892,-24.7766 L 3.28647,-24.8234 L 3.11133,-24.8927 L 2.94626,-24.9835 L 2.79385,-25.0942
 L 2.65654,-25.2232 L 2.53647,-25.3683 L 2.43553,-25.5274 L 2.35533,-25.6978 L 2.29712,-25.877 L 2.26183,-26.062
 L 2.25,-26.25 L 2.26183,-26.438 L 2.29712,-26.623 L 2.35533,-26.8022 L 2.43553,-26.9726 L 2.53647,-27.1317
 L 2.65654,-27.2768 L 2.79385,-27.4058 L 2.94626,-27.5165 L 3.11133,-27.6072 L 3.28647,-27.6766 L 3.46892,-27.7234
 L 3.65581,-27.747 L 3.84418,-27.747 L 4.03107,-27.7234 L 4.21352,-27.6766 L 4.38866,-27.6072 L 4.55373,-27.5165
 L 4.70613,-27.4058 L 4.84344,-27.2768 L 4.96352,-27.1317 L 5.06445,-26.9726 L 5.14465,-26.8022 L 5.20287,-26.623
 L 5.23816,-26.438 L 5.25,-26.25 L 5.23816,-26.062 L 5.20287,-25.877 L 5.14465,-25.6978 L 5.06445,-25.5274
 L 4.96352,-25.3683 L 4.84344,-25.2232 L 4.70613,-25.0942 L 4.55373,-24.9835 L 4.38866,-24.8927 L 4.21352,-24.8234
 L 4.03107,-24.7766 L 3.84418,-24.753 z
M 26.1558,-24.753 L 25.9689,-24.7766 L 25.7865,-24.8234 L 25.6113,-24.8927 L 25.4463,-24.9835 L 25.2939,-25.0942
 L 25.1565,-25.2232 L 25.0365,-25.3683 L 24.9355,-25.5274 L 24.8553,-25.6978 L 24.7971,-25.877 L 24.7618,-26.062
 L 24.75,-26.25 L 24.7618,-26.438 L 24.7971,-26.623 L 24.8553,-26.8022 L 24.9355,-26.9726 L 25.0365,-27.1317
 L 25.1565,-27.2768 L 25.2939,-27.4058 L 25.4463,-27.5165 L 25.6113,-27.6072 L 25.7865,-27.6766 L 25.9689,-27.7234
 L 26.1558,-27.747 L 26.3442,-27.747 L 26.5311,-27.7234 L 26.7135,-27.6766 L 26.8887,-27.6072 L 27.0537,-27.5165
 L 27.2061,-27.4058 L 27.3434,-27.2768 L 27.4635,-27.1317 L 27.5645,-26.9726 L 27.6447,-26.8022 L 27.7029,-26.623
 L 27.7382,-26.438 L 27.75,-26.25 L 27.7382,-26.062 L 27.7029,-25.877 L 27.6447,-25.6978 L 27.5645,-25.5274
 L 27.4635,-25.3683 L 27.3434,-25.2232 L 27.2061,-25.0942 L 27.0537,-24.9835 L 26.8887,-24.8927 L 26.7135,-24.8234
 L 26.5311,-24.7766 L 26.3442,-24.753 z
M -18.8442,-24.753 L -19.0311,-24.7766 L -19.2135,-24.8234 L -19.3887,-24.8927 L -19.5537,-24.9835 L -19.7061,-25.0942
 L -19.8434,-25.2232 L -19.9635,-25.3683 L -20.0645,-25.5274 L -20.1447,-25.6978 L -20.2029,-25.877 L -20.2382,-26.062
 L -20.25,-26.25 L -20.2382,-26.438 L -20.2029,-26.623 L -20.1447,-26.8022 L -20.0645,-26.9726 L -19.9635,-27.1317
 L -19.8434,-27.2768 L -19.7061,-27.4058 L -19.5537,-27.5165 L -19.3887,-27.6072 L -19.2135,-27.6766 L -19.0311,-27.7234
 L -18.8442,-27.747 L -18.6558,-27.747 L -18.4689,-27.7234 L -18.2865,-27.6766 L -18.1113,-27.6072 L -17.9463,-27.5165
 L -17.7939,-27.4058 L -17.6565,-27.2768 L -17.5365,-27.1317 L -17.4355,-26.9726 L -17.3553,-26.8022 L -17.2971,-26.623
 L -17.2618,-26.438 L -17.25,-26.25 L -17.2618,-26.062 L -17.2971,-25.877 L -17.3553,-25.6978 L -17.4355,-25.5274
 L -17.5365,-25.3683 L -17.6565,-25.2232 L -17.7939,-25.0942 L -17.9463,-24.9835 L -18.1113,-24.8927 L -18.2865,-24.8234
 L -18.4689,-24.7766 L -18.6558,-24.753 z
M 18.6558,-24.753 L 18.4689,-24.7766 L 18.2865,-24.8234 L 18.1113,-24.8927 L 17.9463,-24.9835 L 17.7939,-25.0942
 L 17.6565,-25.2232 L 17.5365,-25.3683 L 17.4355,-25.5274 L 17.3553,-25.6978 L 17.2971,-25.877 L 17.2618,-26.062
 L 17.25,-26.25 L 17.2618,-26.438 L 17.2971,-26.623 L 17.3553,-26.8022 L 17.4355,-26.9726 L 17.5365,-27.1317
 L 17.6565,-27.2768 L 17.7939,-27.4058 L 17.9463,-27.5165 L 18.1113,-27.6072 L 18.2865,-27.6766 L 18.4689,-27.7234
 L 18.6558,-27.747 L 18.8442,-27.747 L 19.0311,-27.7234 L 19.2135,-27.6766 L 19.3887,-27.6072 L 19.5537,-27.5165
 L 19.7061,-27.4058 L 19.8434,-27.2768 L 19.9635,-27.1317 L 20.0645,-26.9726 L 20.1447,-26.8022 L 20.2029,-26.623
 L 20.2382,-26.438 L 20.25,-26.25 L 20.2382,-26.062 L 20.2029,-25.877 L 20.1447,-25.6978 L 20.0645,-25.5274
 L 19.9635,-25.3683 L 19.8434,-25.2232 L 19.7061,-25.0942 L 19.5537,-24.9835 L 19.3887,-24.8927 L 19.2135,-24.8234
 L 19.0311,-24.7766 L 18.8442,-24.753 z
M -3.84418,-24.753 L -4.03107,-24.7766 L -4.21352,-24.8234 L -4.38866,-24.8927 L -4.55373,-24.9835 L -4.70613,-25.0942
 L -4.84344,-25.2232 L -4.96352,-25.3683 L -5.06445,-25.5274 L -5.14465,-25.6978 L -5.20287,-25.877 L -5.23816,-26.062
 L -5.25,-26.25 L -5.23816,-26.438 L -5.20287,-26.623 L -5.14465,-26.8022 L -5.06445,-26.9726 L -4.96352,-27.1317
 L -4.84344,-27.2768 L -4.70613,-27.4058 L -4.55373,-27.5165 L -4.38866,-27.6072 L -4.21352,-27.6766 L -4.03107,-27.7234
 L -3.84418,-27.747 L -3.65581,-27.747 L -3.46892,-27.7234 L -3.28647,-27.6766 L -3.11133,-27.6072 L -2.94626,-27.5165
 L -2.79385,-27.4058 L -2.65654,-27.2768 L -2.53647,-27.1317 L -2.43553,-26.9726 L -2.35533,-26.8022 L -2.29712,-26.623
 L -2.26183,-26.438 L -2.25,-26.25 L -2.26183,-26.062 L -2.29712,-25.877 L -2.35533,-25.6978 L -2.43553,-25.5274
 L -2.53647,-25.3683 L -2.65654,-25.2232 L -2.79385,-25.0942 L -2.94626,-24.9835 L -3.11133,-24.8927 L -3.28647,-24.8234
 L -3.46892,-24.7766 L -3.65581,-24.753 z
M -26.3442,-24.753 L -26.5311,-24.7766 L -26.7135,-24.8234 L -26.8887,-24.8927 L -27.0537,-24.9835 L -27.2061,-25.0942
 L -27.3434,-25.2232 L -27.4635,-25.3683 L -27.5645,-25.5274 L -27.6447,-25.6978 L -27.7029,-25.877 L -27.7382,-26.062
 L -27.75,-26.25 L -27.7382,-26.438 L -27.7029,-26.623 L -27.6447,-26.8022 L -27.5645,-26.9726 L -27.4635,-27.1317
 L -27.3434,-27.2768 L -27.2061,-27.4058 L -27.0537,-27.5165 L -26.8887,-27.6072 L -26.7135,-27.6766 L -26.5311,-27.7234
 L -26.3442,-27.747 L -26.1558,-27.747 L -25.9689,-27.7234 L -25.7865,-27.6766 L -25.6113,-27.6072 L -25.4463,-27.5165
 L -25.2939,-27.4058 L -25.1565,-27.2768 L -25.0365,-27.1317 L -24.9355,-26.9726 L -24.8553,-26.8022 L -24.7971,-26.623
 L -24.7618,-26.438 L -24.75,-26.25 L -24.7618,-26.062 L -24.7971,-25.877 L -24.8553,-25.6978 L -24.9355,-25.5274
 L -25.0365,-25.3683 L -25.1565,-25.2232 L -25.2939,-25.0942 L -25.4463,-24.9835 L -25.6113,-24.8927 L -25.7865,-24.8234
 L -25.9689,-24.7766 L -26.1558,-24.753 z
M 11.1558,-24.753 L 10.9689,-24.7766 L 10.7865,-24.8234 L 10.6113,-24.8927 L 10.4463,-24.9835 L 10.2939,-25.0942
 L 10.1565,-25.2232 L 10.0365,-25.3683 L 9.93553,-25.5274 L 9.85533,-25.6978 L 9.79712,-25.877 L 9.76183,-26.062
 L 9.75,-26.25 L 9.76183,-26.438 L 9.79712,-26.623 L 9.85533,-26.8022 L 9.93553,-26.9726 L 10.0365,-27.1317
 L 10.1565,-27.2768 L 10.2939,-27.4058 L 10.4463,-27.5165 L 10.6113,-27.6072 L 10.7865,-27.6766 L 10.9689,-27.7234
 L 11.1558,-27.747 L 11.3442,-27.747 L 11.5311,-27.7234 L 11.7135,-27.6766 L 11.8887,-27.6072 L 12.0537,-27.5165
 L 12.2061,-27.4058 L 12.3434,-27.2768 L 12.4635,-27.1317 L 12.5645,-26.9726 L 12.6447,-26.8022 L 12.7029,-26.623
 L 12.7382,-26.438 L 12.75,-26.25 L 12.7382,-26.062 L 12.7029,-25.877 L 12.6447,-25.6978 L 12.5645,-25.5274
 L 12.4635,-25.3683 L 12.3434,-25.2232 L 12.2061,-25.0942 L 12.0537,-24.9835 L 11.8887,-24.8927 L 11.7135,-24.8234
 L 11.5311,-24.7766 L 11.3442,-24.753 z
M -11.3442,-24.753 L -11.5311,-24.7766 L -11.7135,-24.8234 L -11.8887,-24.8927 L -12.0537,-24.9835 L -12.2061,-25.0942
 L -12.3434,-25.2232 L -12.4635,-25.3683 L -12.5645,-25.5274 L -12.6447,-25.6978 L -12.7029,-25.877 L -12.7382,-26.062
 L -12.75,-26.25 L -12.7382,-26.438 L -12.7029,-26.623 L -12.6447,-26.8022 L -12.5645,-26.9726 L -12.4635,-27.1317
 L -12.3434,-27.2768 L -12.2061,-27.4058 L -12.0537,-27.5165 L -11.8887,-27.6072 L -11.7135,-27.6766 L -11.5311,-27.7234
 L -11.3442,-27.747 L -11.1558,-27.747 L -10.9689,-27.7234 L -10.7865,-27.6766 L -10.6113,-27.6072 L -10.4463,-27.5165
 L -10.2939,-27.4058 L -10.1565,-27.2768 L -10.0365,-27.1317 L -9.93553,-26.9726 L -9.85533,-26.8022 L -9.79712,-26.623
 L -9.76183,-26.438 L -9.75,-26.25 L -9.76183,-26.062 L -9.79712,-25.877 L -9.85533,-25.6978 L -9.93553,-25.5274
 L -10.0365,-25.3683 L -10.1565,-25.2232 L -10.2939,-25.0942 L -10.4463,-24.9835 L -10.6113,-24.8927 L -10.7865,-24.8234
 L -10.9689,-24.7766 L -11.1558,-24.753 z
M 26.1558,-17.253 L 25.9689,-17.2766 L 25.7865,-17.3234 L 25.6113,-17.3927 L 25.4463,-17.4835 L 25.2939,-17.5942
 L 25.1565,-17.7232 L 25.0365,-17.8683 L 24.9355,-18.0274 L 24.8553,-18.1978 L 24.7971,-18.377 L 24.7618,-18.562
 L 24.75,-18.75 L 24.7618,-18.938 L 24.7971,-19.123 L 24.8553,-19.3022 L 24.9355,-19.4726 L 25.0365,-19.6317
 L 25.1565,-19.7768 L 25.2939,-19.9058 L 25.4463,-20.0165 L 25.6113,-20.1072 L 25.7865,-20.1766 L 25.9689,-20.2234
 L 26.1558,-20.247 L 26.3442,-20.247 L 26.5311,-20.2234 L 26.7135,-20.1766 L 26.8887,-20.1072 L 27.0537,-20.0165
 L 27.2061,-19.9058 L 27.3434,-19.7768 L 27.4635,-19.6317 L 27.5645,-19.4726 L 27.6447,-19.3022 L 27.7029,-19.123
 L 27.7382,-18.938 L 27.75,-18.75 L 27.7382,-18.562 L 27.7029,-18.377 L 27.6447,-18.1978 L 27.5645,-18.0274
 L 27.4635,-17.8683 L 27.3434,-17.7232 L 27.2061,-17.5942 L 27.0537,-17.4835 L 26.8887,-17.3927 L 26.7135,-17.3234
 L 26.5311,-17.2766 L 26.3442,-17.253 z
M 3.65581,-17.253 L 3.46892,-17.2766 L 3.28647,-17.3234 L 3.11133,-17.3927 L 2.94626,-17.4835 L 2.79385,-17.5942
 L 2.65654,-17.7232 L 2.53647,-17.8683 L 2.43553,-18.0274 L 2.35533,-18.1978 L 2.29712,-18.377 L 2.26183,-18.562
 L 2.25,-18.75 L 2.26183,-18.938 L 2.29712,-19.123 L 2.35533,-19.3022 L 2.43553,-19.4726 L 2.53647,-19.6317
 L 2.65654,-19.7768 L 2.79385,-19.9058 L 2.94626,-20.0165 L 3.11133,-20.1072 L 3.28647,-20.1766 L 3.46892,-20.2234
 L 3.65581,-20.247 L 3.84418,-20.247 L 4.03107,-20.2234 L 4.21352,-20.1766 L 4.38866,-20.1072 L 4.55373,-20.0165
 L 4.70613,-19.9058 L 4.84344,-19.7768 L 4.96352,-19.6317 L 5.06445,-19.4726 L 5.14465,-19.3022 L 5.20287,-19.123
 L 5.23816,-18.938 L 5.25,-18.75 L 5.23816,-18.562 L 5.20287,-18.377 L 5.14465,-18.1978 L 5.06445,-18.0274
 L 4.96352,-17.8683 L 4.84344,-17.7232 L 4.70613,-17.5942 L 4.55373,-17.4835 L 4.38866,-17.3927 L 4.21352,-17.3234
 L 4.03107,-17.2766 L 3.84418,-17.253 z
M -26.3442,-17.253 L -26.5311,-17.2766 L -26.7135,-17.3234 L -26.8887,-17.3927 L -27.0537,-17.4835 L -27.2061,-17.5942
 L -27.3434,-17.7232 L -27.4635,-17.8683 L -27.5645,-18.0274 L -27.6447,-18.1978 L -27.7029,-18.377 L -27.7382,-18.562
 L -27.75,-18.75 L -27.7382,-18.938 L -27.7029,-19.123 L -27.6447,-19.3022 L -27.5645,-19.4726 L -27.4635,-19.6317
 L -27.3434,-19.7768 L -27.2061,-19.9058 L -27.0537,-20.0165 L -26.8887,-20.1072 L -26.7135,-20.1766 L -26.5311,-20.2234
 L -26.3442,-20.247 L -26.1558,-20.247 L -25.9689,-20.2234 L -25.7865,-20.1766 L -25.6113,-20.1072 L -25.4463,-20.0165
 L -25.2939,-19.9058 L -25.1565,-19.7768 L -25.0365,-19.6317 L -24.9355,-19.4726 L -24.8553,-19.3022 L -24.7971,-19.123
 L -24.7618,-18.938 L -24.75,-18.75 L -24.7618,-18.562 L -24.7971,-18.377 L -24.8553,-18.1978 L -24.9355,-18.0274
 L -25.0365,-17.8683 L -25.1565,-17.7232 L -25.2939,-17.5942 L -25.4463,-17.4835 L -25.6113,-17.3927 L -25.7865,-17.3234
 L -25.9689,-17.2766 L -26.1558,-17.253 z
M 11.1558,-17.253 L 10.9689,-17.2766 L 10.7865,-17.3234 L 10.6113,-17.3927 L 10.4463,-17.4835 L 10.2939,-17.5942
 L 10.1565,-17.7232 L 10.0365,-17.8683 L 9.93553,-18.0274 L 9.85533,-18.1978 L 9.79712,-18.377 L 9.76183,-18.562
 L 9.75,-18.75 L 9.76183,-18.938 L 9.79712,-19.123 L 9.85533,-19.3022 L 9.93553,-19.4726 L 10.0365,-19.6317
 L 10.1565,-19.7768 L 10.2939,-19.9058 L 10.4463,-20.0165 L 10.6113,-20.1072 L 10.7865,-20.1766 L 10.9689,-20.2234
 L 11.1558,-20.247 L 11.3442,-20.247 L 11.5311,-20.2234 L 11.7135,-20.1766 L 11.8887,-20.1072 L 12.0537,-20.0165
 L 12.2061,-19.9058 L 12.3434,-19.7768 L 12.4635,-19.6317 L 12.5645,-19.4726 L 12.6447,-19.3022 L 12.7029,-19.123
 L 12.7382,-18.938 L 12.75,-18.75 L 12.7382,-18.562 L 12.7029,-18.377 L 12.6447,-18.1978 L 12.5645,-18.0274
 L 12.4635,-17.8683 L 12.3434,-17.7232 L 12.2061,-17.5942 L 12.0537,-17.4835 L 11.8887,-17.3927 L 11.7135,-17.3234
 L 11.5311,-17.2766 L 11.3442,-17.253 z
M -11.3442,-17.253 L -11.5311,-17.2766 L -11.7135,-17.3234 L -11.8887,-17.3927 L -12.0537,-17.4835 L -12.2061,-17.5942
 L -12.3434,-17.7232 L -12.4635,-17.8683 L -12.5645,-18.0274 L -12.6447,-18.1978 L -12.7029,-18.377 L -12.7382,-18.562
 L -12.75,-18.75 L -12.7382,-18.938 L -12.7029,-19.123 L -12.6447,-19.3022 L -12.5645,-19.4726 L -12.4635,-19.6317
 L -12.3434,-19.7768 L -12.2061,-19.9058 L -12.0537,-20.0165 L -11.8887,-20.1072 L -11.7135,-20.1766 L -11.5311,-20.2234
 L -11.3442,-20.247 L -11.1558,-20.247 L -10.9689,-20.2234 L -10.7865,-20.1766 L -10.6113,-20.1072 L -10.4463,-20.0165
 L -10.2939,-19.9058 L -10.1565,-19.7768 L -10.0365,-19.6317 L -9.93553,-19.4726 L -9.85533,-19.3022 L -9.79712,-19.123
 L -9.76183,-18.938 L -9.75,-18.75 L -9.76183,-18.562 L -9.79712,-18.377 L -9.85533,-18.1978 L -9.93553,-18.0274
 L -10.0365,-17.8683 L -10.1565,-17.7232 L -10.2939,-17.5942 L -10.4463,-17.4835 L -10.6113,-17.3927 L -10.7865,-17.3234
 L -10.9689,-17.2766 L -11.1558,-17.253 z
M 18.6558,-17.253 L 18.4689,-17.2766 L 18.2865,-17.3234 L 18.1113,-17.3927 L 17.9463,-17.4835 L 17.7939,-17.5942
 L 17.6565,-17.7232 L 17.5365,-17.8683 L 17.4355,-18.0274 L 17.3553,-18.1978 L 17.2971,-18.377 L 17.2618,-18.562
 L 17.25,-18.75 L 17.2618,-18.938 L 17.2971,-19.123 L 17.3553,-19.3022 L 17.4355,-19.4726 L 17.5365,-19.6317
 L 17.6565,-19.7768 L 17.7939,-19.9058 L 17.9463,-20.0165 L 18.1113,-20.1072 L 18.2865,-20.1766 L 18.4689,-20.2234
 L 18.6558,-20.247 L 18.8442,-20.247 L 19.0311,-20.2234 L 19.2135,-20.1766 L 19.3887,-20.1072 L 19.5537,-20.0165
 L 19.7061,-19.9058 L 19.8434,-19.7768 L 19.9635,-19.6317 L 20.0645,-19.4726 L 20.1447,-19.3022 L 20.2029,-19.123
 L 20.2382,-18.938 L 20.25,-18.75 L 20.2382,-18.562 L 20.2029,-18.377 L 20.1447,-18.1978 L 20.0645,-18.0274
 L 19.9635,-17.8683 L 19.8434,-17.7232 L 19.7061,-17.5942 L 19.5537,-17.4835 L 19.3887,-17.3927 L 19.2135,-17.3234
 L 19.0311,-17.2766 L 18.8442,-17.253 z
M -18.8442,-17.253 L -19.0311,-17.2766 L -19.2135,-17.3234 L -19.3887,-17.3927 L -19.5537,-17.4835 L -19.7061,-17.5942
 L -19.8434,-17.7232 L -19.9635,-17.8683 L -20.0645,-18.0274 L -20.1447,-18.1978 L -20.2029,-18.377 L -20.2382,-18.562
 L -20.25,-18.75 L -20.2382,-18.938 L -20.2029,-19.123 L -20.1447,-19.3022 L -20.0645,-19.4726 L -19.9635,-19.6317
 L -19.8434,-19.7768 L -19.7061,-19.9058 L -19.5537,-20.0165 L -19.3887,-20.1072 L -19.2135,-20.1766 L -19.0311,-20.2234
 L -18.8442,-20.247 L -18.6558,-20.247 L -18.4689,-20.2234 L -18.2865,-20.1766 L -18.1113,-20.1072 L -17.9463,-20.0165
 L -17.7939,-19.9058 L -17.6565,-19.7768 L -17.5365,-19.6317 L -17.4355,-19.4726 L -17.3553,-19.3022 L -17.2971,-19.123
 L -17.2618,-18.938 L -17.25,-18.75 L -17.2618,-18.562 L -17.2971,-18.377 L -17.3553,-18.1978 L -17.4355,-18.0274
 L -17.5365,-17.8683 L -17.6565,-17.7232 L -17.7939,-17.5942 L -17.9463,-17.4835 L -18.1113,-17.3927 L -18.2865,-17.3234
 L -18.4689,-17.2766 L -18.6558,-17.253 z
M -3.84418,-17.253 L -4.03107,-17.2766 L -4.21352,-17.3234 L -4.38866,-17.3927 L -4.55373,-17.4835 L -4.70613,-17.5942
 L -4.84344,-17.7232 L -4.96352,-17.8683 L -5.06445,-18.0274 L -5.14465,-18.1978 L -5.20287,-18.377 L -5.23816,-18.562
 L -5.25,-18.75 L -5.23816,-18.938 L -5.20287,-19.123 L -5.14465,-19.3022 L -5.06445,-19.4726 L -4.96352,-19.6317
 L -4.84344,-19.7768 L -4.70613,-19.9058 L -4.55373,-20.0165 L -4.38866,-20.1072 L -4.21352,-20.1766 L -4.03107,-20.2234
 L -3.84418,-20.247 L -3.65581,-20.247 L -3.46892,-20.2234 L -3.28647,-20.1766 L -3.11133,-20.1072 L -2.94626,-20.0165
 L -2.79385,-19.9058 L -2.65654,-19.7768 L -2.53647,-19.6317 L -2.43553,-19.4726 L -2.35533,-19.3022 L -2.29712,-19.123
 L -2.26183,-18.938 L -2.25,-18.75 L -2.26183,-18.562 L -2.29712,-18.377 L -2.35533,-18.1978 L -2.43553,-18.0274
 L -2.53647,-17.8683 L -2.65654,-17.7232 L -2.79385,-17.5942 L -2.94626,-17.4835 L -3.11133,-17.3927 L -3.28647,-17.3234
 L -3.46892,-17.2766 L -3.65581,-17.253 z
M 2.43553,-10.5274 L 2.35533,-10.6978 L 2.29712,-10.877 L 2.26183,-11.062 L 2.25,-11.25 L 2.26183,-11.438
 L 2.29712,-11.623 L 2.35533,-11.8022 L 2.43553,-11.9726 L 2.53647,-12.1317 L 2.65654,-12.2768 L 2.79385,-12.4058
 L 2.94626,-12.5165 L 3.11133,-12.6072 L 3.28647,-12.6766 L 3.46892,-12.7234 L 3.65581,-12.747 L 3.84418,-12.747
 L 4.03107,-12.7234 L 4.21352,-12.6766 L 4.38866,-12.6072 L 4.55373,-12.5165 L 4.70613,-12.4058 L 4.84344,-12.2768
 L 4.96352,-12.1317 L 5.06445,-11.9726 L 5.14465,-11.8022 L 5.20287,-11.623 L 5.23816,-11.438 L 5.25,-11.25
 L 5.23816,-11.062 L 5.20287,-10.877 L 5.14465,-10.6978 L 5.06445,-10.5274 L 4.96352,-10.3683 L 4.84344,-10.2232
 L 4.70613,-10.0942 L 4.55373,-9.98351 L 4.38866,-9.89275 L 4.21352,-9.82341 L 4.03107,-9.77657 L 3.84418,-9.75294
 L 3.65581,-9.75294 L 3.46892,-9.77657 L 3.28647,-9.82341 L 3.11133,-9.89275 L 2.94626,-9.98351 L 2.79385,-10.0942
 L 2.65654,-10.2232 L 2.53647,-10.3683 z
M -18.8442,-9.75294 L -19.0311,-9.77657 L -19.2135,-9.82341 L -19.3887,-9.89275 L -19.5537,-9.98351 L -19.7061,-10.0942
 L -19.8434,-10.2232 L -19.9635,-10.3683 L -20.0645,-10.5274 L -20.1447,-10.6978 L -20.2029,-10.877 L -20.2382,-11.062
 L -20.25,-11.25 L -20.2382,-11.438 L -20.2029,-11.623 L -20.1447,-11.8022 L -20.0645,-11.9726 L -19.9635,-12.1317
 L -19.8434,-12.2768 L -19.7061,-12.4058 L -19.5537,-12.5165 L -19.3887,-12.6072 L -19.2135,-12.6766 L -19.0311,-12.7234
 L -18.8442,-12.747 L -18.6558,-12.747 L -18.4689,-12.7234 L -18.2865,-12.6766 L -18.1113,-12.6072 L -17.9463,-12.5165
 L -17.7939,-12.4058 L -17.6565,-12.2768 L -17.5365,-12.1317 L -17.4355,-11.9726 L -17.3553,-11.8022 L -17.2971,-11.623
 L -17.2618,-11.438 L -17.25,-11.25 L -17.2618,-11.062 L -17.2971,-10.877 L -17.3553,-10.6978 L -17.4355,-10.5274
 L -17.5365,-10.3683 L -17.6565,-10.2232 L -17.7939,-10.0942 L -17.9463,-9.98351 L -18.1113,-9.89275 L -18.2865,-9.82341
 L -18.4689,-9.77657 L -18.6558,-9.75294 z
M -11.3442,-9.75294 L -11.5311,-9.77657 L -11.7135,-9.82341 L -11.8887,-9.89275 L -12.0537,-9.98351 L -12.2061,-10.0942
 L -12.3434,-10.2232 L -12.4635,-10.3683 L -12.5645,-10.5274 L -12.6447,-10.6978 L -12.7029,-10.877 L -12.7382,-11.062
 L -12.75,-11.25 L -12.7382,-11.438 L -12.7029,-11.623 L -12.6447,-11.8022 L -12.5645,-11.9726 L -12.4635,-12.1317
 L -12.3434,-12.2768 L -12.2061,-12.4058 L -12.0537,-12.5165 L -11.8887,-12.6072 L -11.7135,-12.6766 L -11.5311,-12.7234
 L -11.3442,-12.747 L -11.1558,-12.747 L -10.9689,-12.7234 L -10.7865,-12.6766 L -10.6113,-12.6072 L -10.4463,-12.5165
 L -10.2939,-12.4058 L -10.1565,-12.2768 L -10.0365,-12.1317 L -9.93553,-11.9726 L -9.85533,-11.8022 L -9.79712,-11.623
 L -9.76183,-11.438 L -9.75,-11.25 L -9.76183,-11.062 L -9.79712,-10.877 L -9.85533,-10.6978 L -9.93553,-10.5274
 L -10.0365,-10.3683 L -10.1565,-10.2232 L -10.2939,-10.0942 L -10.4463,-9.98351 L -10.6113,-9.89275 L -10.7865,-9.82341
 L -10.9689,-9.77657 L -11.1558,-9.75294 z
M 26.1558,-9.75294 L 25.9689,-9.77657 L 25.7865,-9.82341 L 25.6113,-9.89275 L 25.4463,-9.98351 L 25.2939,-10.0942
 L 25.1565,-10.2232 L 25.0365,-10.3683 L 24.9355,-10.5274 L 24.8553,-10.6978 L 24.7971,-10.877 L 24.7618,-11.062
 L 24.75,-11.25 L 24.7618,-11.438 L 24.7971,-11.623 L 24.8553,-11.8022 L 24.9355,-11.9726 L 25.0365,-12.1317
 L 25.1565,-12.2768 L 25.2939,-12.4058 L 25.4463,-12.5165 L 25.6113,-12.6072 L 25.7865,-12.6766 L 25.9689,-12.7234
 L 26.1558,-12.747 L 26.3442,-12.747 L 26.5311,-12.7234 L 26.7135,-12.6766 L 26.8887,-12.6072 L 27.0537,-12.5165
 L 27.2061,-12.4058 L 27.3434,-12.2768 L 27.4635,-12.1317 L 27.5645,-11.9726 L 27.6447,-11.8022 L 27.7029,-11.623
 L 27.7382,-11.438 L 27.75,-11.25 L 27.7382,-11.062 L 27.7029,-10.877 L 27.6447,-10.6978 L 27.5645,-10.5274
 L 27.4635,-10.3683 L 27.3434,-10.2232 L 27.2061,-10.0942 L 27.0537,-9.98351 L 26.8887,-9.89275 L 26.7135,-9.82341
 L 26.5311,-9.77657 L 26.3442,-9.75294 z
M 17.4355,-10.5274 L 17.3553,-10.6978 L 17.2971,-10.877 L 17.2618,-11.062 L 17.25,-11.25 L 17.2618,-11.438
 L 17.2971,-11.623 L 17.3553,-11.8022 L 17.4355,-11.9726 L 17.5365,-12.1317 L 17.6565,-12.2768 L 17.7939,-12.4058
 L 17.9463,-12.5165 L 18.1113,-12.6072 L 18.2865,-12.6766 L 18.4689,-12.7234 L 18.6558,-12.747 L 18.8442,-12.747
 L 19.0311,-12.7234 L 19.2135,-12.6766 L 19.3887,-12.6072 L 19.5537,-12.5165 L 19.7061,-12.4058 L 19.8434,-12.2768
 L 19.9635,-12.1317 L 20.0645,-11.9726 L 20.1447,-11.8022 L 20.2029,-11.623 L 20.2382,-11.438 L 20.25,-11.25
 L 20.2382,-11.062 L 20.2029,-10.877 L 20.1447,-10.6978 L 20.0645,-10.5274 L 19.9635,-10.3683 L 19.8434,-10.2232
 L 19.7061,-10.0942 L 19.5537,-9.98351 L 19.3887,-9.89275 L 19.2135,-9.82341 L 19.0311,-9.77657 L 18.8442,-9.75294
 L 18.6558,-9.75294 L 18.4689,-9.77657 L 18.2865,-9.82341 L 18.1113,-9.89275 L 17.9463,-9.98351 L 17.7939,-10.0942
 L 17.6565,-10.2232 L 17.5365,-10.3683 z
M -26.3442,-9.75294 L -26.5311,-9.77657 L -26.7135,-9.82341 L -26.8887,-9.89275 L -27.0537,-9.98351 L -27.2061,-10.0942
 L -27.3434,-10.2232 L -27.4635,-10.3683 L -27.5645,-10.5274 L -27.6447,-10.6978 L -27.7029,-10.877 L -27.7382,-11.062
 L -27.75,-11.25 L -27.7382,-11.438 L -27.7029,-11.623 L -27.6447,-11.8022 L -27.5645,-11.9726 L -27.4635,-12.1317
 L -27.3434,-12.2768 L -27.2061,-12.4058 L -27.0537,-12.5165 L -26.8887,-12.6072 L -26.7135,-12.6766 L -26.5311,-12.7234
 L -26.3442,-12.747 L -26.1558,-12.747 L -25.9689,-12.7234 L -25.7865,-12.6766 L -25.6113,-12.6072 L -25.4463,-12.5165
 L -25.2939,-12.4058 L -25.1565,-12.2768 L -25.0365,-12.1317 L -24.9355,-11.9726 L -24.8553,-11.8022 L -24.7971,-11.623
 L -24.7618,-11.438 L -24.75,-11.25 L -24.7618,-11.062 L -24.7971,-10.877 L -24.8553,-10.6978 L -24.9355,-10.5274
 L -25.0365,-10.3683 L -25.1565,-10.2232 L -25.2939,-10.0942 L -25.4463,-9.98351 L -25.6113,-9.89275 L -25.7865,-9.82341
 L -25.9689,-9.77657 L -26.1558,-9.75294 z
M -26.3442,-2.25294 L -26.5311,-2.27657 L -26.7135,-2.32341 L -26.8887,-2.39275 L -27.0537,-2.48351 L -27.2061,-2.59422
 L -27.3434,-2.72318 L -27.4635,-2.86832 L -27.5645,-3.02736 L -27.6447,-3.1978 L -27.7029,-3.37695 L -27.7382,-3.562
 L -27.75,-3.75 L -27.7382,-3.93799 L -27.7029,-4.12303 L -27.6447,-4.30219 L -27.5645,-4.47263 L -27.4635,-4.63167
 L -27.3434,-4.77681 L -27.2061,-4.90576 L -27.0537,-5.01648 L -26.8887,-5.10724 L -26.7135,-5.17657 L -26.5311,-5.22342
 L -26.3442,-5.24704 L -26.1558,-5.24704 L -25.9689,-5.22342 L -25.7865,-5.17657 L -25.6113,-5.10724 L -25.4463,-5.01648
 L -25.2939,-4.90576 L -25.1565,-4.77681 L -25.0365,-4.63167 L -24.9355,-4.47263 L -24.8553,-4.30219 L -24.7971,-4.12303
 L -24.7618,-3.93799 L -24.75,-3.75 L -24.7618,-3.562 L -24.7971,-3.37695 L -24.8553,-3.1978 L -24.9355,-3.02736
 L -25.0365,-2.86832 L -25.1565,-2.72318 L -25.2939,-2.59422 L -25.4463,-2.48351 L -25.6113,-2.39275 L -25.7865,-2.32341
 L -25.9689,-2.27657 L -26.1558,-2.25294 z
M -18.8442,-2.25294 L -19.0311,-2.27657 L -19.2135,-2.32341 L -19.3887,-2.39275 L -19.5537,-2.48351 L -19.7061,-2.59422
 L -19.8434,-2.72318 L -19.9635,-2.86832 L -20.0645,-3.02736 L -20.1447,-3.1978 L -20.2029,-3.37695 L -20.2382,-3.562
 L -20.25,-3.75 L -20.2382,-3.93799 L -20.2029,-4.12303 L -20.1447,-4.30219 L -20.0645,-4.47263 L -19.9635,-4.63167
 L -19.8434,-4.77681 L -19.7061,-4.90576 L -19.5537,-5.01648 L -19.3887,-5.10724 L -19.2135,-5.17657 L -19.0311,-5.22342
 L -18.8442,-5.24704 L -18.6558,-5.24704 L -18.4689,-5.22342 L -18.2865,-5.17657 L -18.1113,-5.10724 L -17.9463,-5.01648
 L -17.7939,-4.90576 L -17.6565,-4.77681 L -17.5365,-4.63167 L -17.4355,-4.47263 L -17.3553,-4.30219 L -17.2971,-4.12303
 L -17.2618,-3.93799 L -17.25,-3.75 L -17.2618,-3.562 L -17.2971,-3.37695 L -17.3553,-3.1978 L -17.4355,-3.02736
 L -17.5365,-2.86832 L -17.6565,-2.72318 L -17.7939,-2.59422 L -17.9463,-2.48351 L -18.1113,-2.39275 L -18.2865,-2.32341
 L -18.4689,-2.27657 L -18.6558,-2.25294 z
M 11.1558,-2.25294 L 10.9689,-2.27657 L 10.7865,-2.32341 L 10.6113,-2.39275 L 10.4463,-2.48351 L 10.2939,-2.59422
 L 10.1565,-2.72318 L 10.0365,-2.86832 L 9.93553,-3.02736 L 9.85533,-3.1978 L 9.79712,-3.37695 L 9.76183,-3.562
 L 9.75,-3.75 L 9.76183,-3.93799 L 9.79712,-4.12303 L 9.85533,-4.30219 L 9.93553,-4.47263 L 10.0365,-4.63167
 L 10.1565,-4.77681 L 10.2939,-4.90576 L 10.4463,-5.01648 L 10.6113,-5.10724 L 10.7865,-5.17657 L 10.9689,-5.22342
 L 11.1558,-5.24704 L 11.3442,-5.24704 L 11.5311,-5.22342 L 11.7135,-5.17657 L 11.8887,-5.10724 L 12.0537,-5.01648
 L 12.2061,-4.90576 L 12.3434,-4.77681 L 12.4635,-4.63167 L 12.5645,-4.47263 L 12.6447,-4.30219 L 12.7029,-4.12303
 L 12.7382,-3.93799 L 12.75,-3.75 L 12.7382,-3.562 L 12.7029,-3.37695 L 12.6447,-3.1978 L 12.5645,-3.02736
 L 12.4635,-2.86832 L 12.3434,-2.72318 L 12.2061,-2.59422 L 12.0537,-2.48351 L 11.8887,-2.39275 L 11.7135,-2.32341
 L 11.5311,-2.27657 L 11.3442,-2.25294 z
M -3.84418,-2.25294 L -4.03107,-2.27657 L -4.21352,-2.32341 L -4.38866,-2.39275 L -4.55373,-2.48351 L -4.70613,-2.59422
 L -4.84344,-2.72318 L -4.96352,-2.86832 L -5.06445,-3.02736 L -5.14465,-3.1978 L -5.20287,-3.37695 L -5.23816,-3.562
 L -5.25,-3.75 L -5.23816,-3.93799 L -5.20287,-4.12303 L -5.14465,-4.30219 L -5.06445,-4.47263 L -4.96352,-4.63167
 L -4.84344,-4.77681 L -4.70613,-4.90576 L -4.55373,-5.01648 L -4.38866,-5.10724 L -4.21352,-5.17657 L -4.03107,-5.22342
 L -3.84418,-5.24704 L -3.65581,-5.24704 L -3.46892,-5.22342 L -3.28647,-5.17657 L -3.11133,-5.10724 L -2.94626,-5.01648
 L -2.79385,-4.90576 L -2.65654,-4.77681 L -2.53647,-4.63167 L -2.43553,-4.47263 L -2.35533,-4.30219 L -2.29712,-4.12303
 L -2.26183,-3.93799 L -2.25,-3.75 L -2.26183,-3.562 L -2.29712,-3.37695 L -2.35533,-3.1978 L -2.43553,-3.02736
 L -2.53647,-2.86832 L -2.65654,-2.72318 L -2.79385,-2.59422 L -2.94626,-2.48351 L -3.11133,-2.39275 L -3.28647,-2.32341
 L -3.46892,-2.27657 L -3.65581,-2.25294 z
M 18.6558,-2.25294 L 18.4689,-2.27657 L 18.2865,-2.32341 L 18.1113,-2.39275 L 17.9463,-2.48351 L 17.7939,-2.59422
 L 17.6565,-2.72318 L 17.5365,-2.86832 L 17.4355,-3.02736 L 17.3553,-3.1978 L 17.2971,-3.37695 L 17.2618,-3.562
 L 17.25,-3.75 L 17.2618,-3.93799 L 17.2971,-4.12303 L 17.3553,-4.30219 L 17.4355,-4.47263 L 17.5365,-4.63167
 L 17.6565,-4.77681 L 17.7939,-4.90576 L 17.9463,-5.01648 L 18.1113,-5.10724 L 18.2865,-5.17657 L 18.4689,-5.22342
 L 18.6558,-5.24704 L 18.8442,-5.24704 L 19.0311,-5.22342 L 19.2135,-5.17657 L 19.3887,-5.10724 L 19.5537,-5.01648
 L 19.7061,-4.90576 L 19.8434,-4.77681 L 19.9635,-4.63167 L 20.0645,-4.47263 L 20.1447,-4.30219 L 20.2029,-4.12303
 L 20.2382,-3.93799 L 20.25,-3.75 L 20.2382,-3.562 L 20.2029,-3.37695 L 20.1447,-3.1978 L 20.0645,-3.02736
 L 19.9635,-2.86832 L 19.8434,-2.72318 L 19.7061,-2.59422 L 19.5537,-2.48351 L 19.3887,-2.39275 L 19.2135,-2.32341
 L 19.0311,-2.27657 L 18.8442,-2.25294 z
M -11.3442,-2.25294 L -11.5311,-2.27657 L -11.7135,-2.32341 L -11.8887,-2.39275 L -12.0537,-2.48351 L -12.2061,-2.59422
 L -12.3434,-2.72318 L -12.4635,-2.86832 L -12.5645,-3.02736 L -12.6447,-3.1978 L -12.7029,-3.37695 L -12.7382,-3.562
 L -12.75,-3.75 L -12.7382,-3.93799 L -12.7029,-4.12303 L -12.6447,-4.30219 L -12.5645,-4.47263 L -12.4635,-4.63167
 L -12.3434,-4.77681 L -12.2061,-4.90576 L -12.0537,-5.01648 L -11.8887,-5.10724 L -11.7135,-5.17657 L -11.5311,-5.22342
 L -11.3442,-5.24704 L -11.1558,-5.24704 L -10.9689,-5.22342 L -10.7865,-5.17657 L -10.6113,-5.10724 L -10.4463,-5.01648
 L -10.2939,-4.90576 L -10.1565,-4.77681 L -10.0365,-4.63167 L -9.93553,-4.47263 L -9.85533,-4.30219 L -9.79712,-4.12303
 L -9.76183,-3.93799 L -9.75,-3.75 L -9.76183,-3.562 L -9.79712,-3.37695 L -9.85533,-3.1978 L -9.93553,-3.02736
 L -10.0365,-2.86832 L -10.1565,-2.72318 L -10.2939,-2.59422 L -10.4463,-2.48351 L -10.6113,-2.39275 L -10.7865,-2.32341
 L -10.9689,-2.27657 L -11.1558,-2.25294 z
M 3.65581,-2.25294 L 3.46892,-2.27657 L 3.28647,-2.32341 L 3.11133,-2.39275 L 2.94626,-2.48351 L 2.79385,-2.59422
 L 2.65654,-2.72318 L 2.53647,-2.86832 L 2.43553,-3.02736 L 2.35533,-3.1978 L 2.29712,-3.37695 L 2.26183,-3.562
 L 2.25,-3.75 L 2.26183,-3.93799 L 2.29712,-4.12303 L 2.35533,-4.30219 L 2.43553,-4.47263 L 2.53647,-4.63167
 L 2.65654,-4.77681 L 2.79385,-4.90576 L 2.94626,-5.01648 L 3.11133,-5.10724 L 3.28647,-5.17657 L 3.46892,-5.22342
 L 3.65581,-5.24704 L 3.84418,-5.24704 L 4.03107,-5.22342 L 4.21352,-5.17657 L 4.38866,-5.10724 L 4.55373,-5.01648
 L 4.70613,-4.90576 L 4.84344,-4.77681 L 4.96352,-4.63167 L 5.06445,-4.47263 L 5.14465,-4.30219 L 5.20287,-4.12303
 L 5.23816,-3.93799 L 5.25,-3.75 L 5.23816,-3.562 L 5.20287,-3.37695 L 5.14465,-3.1978 L 5.06445,-3.02736
 L 4.96352,-2.86832 L 4.84344,-2.72318 L 4.70613,-2.59422 L 4.55373,-2.48351 L 4.38866,-2.39275 L 4.21352,-2.32341
 L 4.03107,-2.27657 L 3.84418,-2.25294 z
M 26.1558,-2.25294 L 25.9689,-2.27657 L 25.7865,-2.32341 L 25.6113,-2.39275 L 25.4463,-2.48351 L 25.2939,-2.59422
 L 25.1565,-2.72318 L 25.0365,-2.86832 L 24.9355,-3.02736 L 24.8553,-3.1978 L 24.7971,-3.37695 L 24.7618,-3.562
 L 24.75,-3.75 L 24.7618,-3.93799 L 24.7971,-4.12303 L 24.8553,-4.30219 L 24.9355,-4.47263 L 25.0365,-4.63167
 L 25.1565,-4.77681 L 25.2939,-4.90576 L 25.4463,-5.01648 L 25.6113,-5.10724 L 25.7865,-5.17657 L 25.9689,-5.22342
 L 26.1558,-5.24704 L 26.3442,-5.24704 L 26.5311,-5.22342 L 26.7135,-5.17657 L 26.8887,-5.10724 L 27.0537,-5.01648
 L 27.2061,-4.90576 L 27.3434,-4.77681 L 27.4635,-4.63167 L 27.5645,-4.47263 L 27.6447,-4.30219 L 27.7029,-4.12303
 L 27.7382,-3.93799 L 27.75,-3.75 L 27.7382,-3.562 L 27.7029,-3.37695 L 27.6447,-3.1978 L 27.5645,-3.02736
 L 27.4635,-2.86832 L 27.3434,-2.72318 L 27.2061,-2.59422 L 27.0537,-2.48351 L 26.8887,-2.39275 L 26.7135,-2.32341
 L 26.5311,-2.27657 L 26.3442,-2.25294 z
M 3.65581,5.24704 L 3.46892,5.22342 L 3.28647,5.17657 L 3.11133,5.10724 L 2.94626,5.01648 L 2.79385,4.90576
 L 2.65654,4.77681 L 2.53647,4.63167 L 2.43553,4.47263 L 2.35533,4.30219 L 2.29712,4.12303 L 2.26183,3.93799
 L 2.25,3.75 L 2.26183,3.562 L 2.29712,3.37695 L 2.35533,3.1978 L 2.43553,3.02736 L 2.53647,2.86832
 L 2.65654,2.72318 L 2.79385,2.59422 L 2.94626,2.48351 L 3.11133,2.39275 L 3.28647,2.32341 L 3.46892,2.27657
 L 3.65581,2.25294 L 3.84418,2.25294 L 4.03107,2.27657 L 4.21352,2.32341 L 4.38866,2.39275 L 4.55373,2.48351
 L 4.70613,2.59422 L 4.84344,2.72318 L 4.96352,2.86832 L 5.06445,3.02736 L 5.14465,3.1978 L 5.20287,3.37695
 L 5.23816,3.562 L 5.25,3.75 L 5.23816,3.93799 L 5.20287,4.12303 L 5.14465,4.30219 L 5.06445,4.47263
 L 4.96352,4.63167 L 4.84344,4.77681 L 4.70613,4.90576 L 4.55373,5.01648 L 4.38866,5.10724 L 4.21352,5.17657
 L 4.03107,5.22342 L 3.84418,5.24704 z
M -11.3442,5.24704 L -11.5311,5.22342 L -11.7135,5.17657 L -11.8887,5.10724 L -12.0537,5.01648 L -12.2061,4.90576
 L -12.3434,4.77681 L -12.4635,4.63167 L -12.5645,4.47263 L -12.6447,4.30219 L -12.7029,4.12303 L -12.7382,3.93799
 L -12.75,3.75 L -12.7382,3.562 L -12.7029,3.37695 L -12.6447,3.1978 L -12.5645,3.02736 L -12.4635,2.86832
 L -12.3434,2.72318 L -12.2061,2.59422 L -12.0537,2.48351 L -11.8887,2.39275 L -11.7135,2.32341 L -11.5311,2.27657
 L -11.3442,2.25294 L -11.1558,2.25294 L -10.9689,2.27657 L -10.7865,2.32341 L -10.6113,2.39275 L -10.4463,2.48351
 L -10.2939,2.59422 L -10.1565,2.72318 L -10.0365,2.86832 L -9.93553,3.02736 L -9.85533,3.1978 L -9.79712,3.37695
 L -9.76183,3.562 L -9.75,3.75 L -9.76183,3.93799 L -9.79712,4.12303 L -9.85533,4.30219 L -9.93553,4.47263
 L -10.0365,4.63167 L -10.1565,4.77681 L -10.2939,4.90576 L -10.4463,5.01648 L -10.6113,5.10724 L -10.7865,5.17657
 L -10.9689,5.22342 L -11.1558,5.24704 z
M -3.84418,5.24704 L -4.03107,5.22342 L -4.21352,5.17657 L -4.38866,5.10724 L -4.55373,5.01648 L -4.70613,4.90576
 L -4.84344,4.77681 L -4.96352,4.63167 L -5.06445,4.47263 L -5.14465,4.30219 L -5.20287,4.12303 L -5.23816,3.93799
 L -5.25,3.75 L -5.23816,3.562 L -5.20287,3.37695 L -5.14465,3.1978 L -5.06445,3.02736 L -4.96352,2.86832
 L -4.84344,2.72318 L -4.70613,2.59422 L -4.55373,2.48351 L -4.38866,2.39275 L -4.21352,2.32341 L -4.03107,2.27657
 L -3.84418,2.25294 L -3.65581,2.25294 L -3.46892,2.27657 L -3.28647,2.32341 L -3.11133,2.39275 L -2.94626,2.48351
 L -2.79385,2.59422 L -2.65654,2.72318 L -2.53647,2.86832 L -2.43553,3.02736 L -2.35533,3.1978 L -2.29712,3.37695
 L -2.26183,3.562 L -2.25,3.75 L -2.26183,3.93799 L -2.29712,4.12303 L -2.35533,4.30219 L -2.43553,4.47263
 L -2.53647,4.63167 L -2.65654,4.77681 L -2.79385,4.90576 L -2.94626,5.01648 L -3.11133,5.10724 L -3.28647,5.17657
 L -3.46892,5.22342 L -3.65581,5.24704 z
M 11.1558,5.24704 L 10.9689,5.22342 L 10.7865,5.17657 L 10.6113,5.10724 L 10.4463,5.01648 L 10.2939,4.90576
 L 10.1565,4.77681 L 10.0365,4.63167 L 9.93553,4.47263 L 9.85533,4.30219 L 9.79712,4.12303 L 9.76183,3.93799
 L 9.75,3.75 L 9.76183,3.562 L 9.79712,3.37695 L 9.85533,3.1978 L 9.93553,3.02736 L 10.0365,2.86832
 L 10.1565,2.72318 L 10.2939,2.59422 L 10.4463,2.48351 L 10.6113,2.39275 L 10.7865,2.32341 L 10.9689,2.27657
 L 11.1558,2.25294 L 11.3442,2.25294 L 11.5311,2.27657 L 11.7135,2.32341 L 11.8887,2.39275 L 12.0537,2.48351
 L 12.2061,2.59422 L 12.3434,2.72318 L 12.4635,2.86832 L 12.5645,3.02736 L 12.6447,3.1978 L 12.7029,3.37695
 L 12.7382,3.562 L 12.75,3.75 L 12.7382,3.93799 L 12.7029,4.12303 L 12.6447,4.30219 L 12.5645,4.47263
 L 12.4635,4.63167 L 12.3434,4.77681 L 12.2061,4.90576 L 12.0537,5.01648 L 11.8887,5.10724 L 11.7135,5.17657
 L 11.5311,5.22342 L 11.3442,5.24704 z
M 26.1558,5.24704 L 25.9689,5.22342 L 25.7865,5.17657 L 25.6113,5.10724 L 25.4463,5.01648 L 25.2939,4.90576
 L 25.1565,4.77681 L 25.0365,4.63167 L 24.9355,4.47263 L 24.8553,4.30219 L 24.7971,4.12303 L 24.7618,3.93799
 L 24.75,3.75 L 24.7618,3.562 L 24.7971,3.37695 L 24.8553,3.1978 L 24.9355,3.02736 L 25.0365,2.86832
 L 25.1565,2.72318 L 25.2939,2.59422 L 25.4463,2.48351 L 25.6113,2.39275 L 25.7865,2.32341 L 25.9689,2.27657
 L 26.1558,2.25294 L 26.3442,2.25294 L 26.5311,2.27657 L 26.7135,2.32341 L 26.8887,2.39275 L 27.0537,2.48351
 L 27.2061,2.59422 L 27.3434,2.72318 L 27.4635,2.86832 L 27.5645,3.02736 L 27.6447,3.1978 L 27.7029,3.37695
 L 27.7382,3.562 L 27.75,3.75 L 27.7382,3.93799 L 27.7029,4.12303 L 27.6447,4.30219 L 27.5645,4.47263
 L 27.4635,4.63167 L 27.3434,4.77681 L 27.2061,4.90576 L 27.0537,5.01648 L 26.8887,5.10724 L 26.7135,5.17657
 L 26.5311,5.22342 L 26.3442,5.24704 z
M -18.8442,5.24704 L -19.0311,5.22342 L -19.2135,5.17657 L -19.3887,5.10724 L -19.5537,5.01648 L -19.7061,4.90576
 L -19.8434,4.77681 L -19.9635,4.63167 L -20.0645,4.47263 L -20.1447,4.30219 L -20.2029,4.12303 L -20.2382,3.93799
 L -20.25,3.75 L -20.2382,3.562 L -20.2029,3.37695 L -20.1447,3.1978 L -20.0645,3.02736 L -19.9635,2.86832
 L -19.8434,2.72318 L -19.7061,2.59422 L -19.5537,2.48351 L -19.3887,2.39275 L -19.2135,2.32341 L -19.0311,2.27657
 L -18.8442,2.25294 L -18.6558,2.25294 L -18.4689,2.27657 L -18.2865,2.32341 L -18.1113,2.39275 L -17.9463,2.48351
 L -17.7939,2.59422 L -17.6565,2.72318 L -17.5365,2.86832 L -17.4355,3.02736 L -17.3553,3.1978 L -17.2971,3.37695
 L -17.2618,3.562 L -17.25,3.75 L -17.2618,3.93799 L -17.2971,4.12303 L -17.3553,4.30219 L -17.4355,4.47263
 L -17.5365,4.63167 L -17.6565,4.77681 L -17.7939,4.90576 L -17.9463,5.01648 L -18.1113,5.10724 L -18.2865,5.17657
 L -18.4689,5.22342 L -18.6558,5.24704 z
M 18.6558,5.24704 L 18.4689,5.22342 L 18.2865,5.17657 L 18.1113,5.10724 L 17.9463,5.01648 L 17.7939,4.90576
 L 17.6565,4.77681 L 17.5365,4.63167 L 17.4355,4.47263 L 17.3553,4.30219 L 17.2971,4.12303 L 17.2618,3.93799
 L 17.25,3.75 L 17.2618,3.562 L 17.2971,3.37695 L 17.3553,3.1978 L 17.4355,3.02736 L 17.5365,2.86832
 L 17.6565,2.72318 L 17.7939,2.59422 L 17.9463,2.48351 L 18.1113,2.39275 L 18.2865,2.32341 L 18.4689,2.27657
 L 18.6558,2.25294 L 18.8442,2.25294 L 19.0311,2.27657 L 19.2135,2.32341 L 19.3887,2.39275 L 19.5537,2.48351
 L 19.7061,2.59422 L 19.8434,2.72318 L 19.9635,2.86832 L 20.0645,3.02736 L 20.1447,3.1978 L 20.2029,3.37695
 L 20.2382,3.562 L 20.25,3.75 L 20.2382,3.93799 L 20.2029,4.12303 L 20.1447,4.30219 L 20.0645,4.47263
 L 19.9635,4.63167 L 19.8434,4.77681 L 19.7061,4.90576 L 19.5537,5.01648 L 19.3887,5.10724 L 19.2135,5.17657
 L 19.0311,5.22342 L 18.8442,5.24704 z
M -26.3442,5.24704 L -26.5311,5.22342 L -26.7135,5.17657 L -26.8887,5.10724 L -27.0537,5.01648 L -27.2061,4.90576
 L -27.3434,4.77681 L -27.4635,4.63167 L -27.5645,4.47263 L -27.6447,4.30219 L -27.7029,4.12303 L -27.7382,3.93799
 L -27.75,3.75 L -27.7382,3.562 L -27.7029,3.37695 L -27.6447,3.1978 L -27.5645,3.02736 L -27.4635,2.86832
 L -27.3434,2.72318 L -27.2061,2.59422 L -27.0537,2.48351 L -26.8887,2.39275 L -26.7135,2.32341 L -26.5311,2.27657
 L -26.3442,2.25294 L -26.1558,2.25294 L -25.9689,2.27657 L -25.7865,2.32341 L -25.6113,2.39275 L -25.4463,2.48351
 L -25.2939,2.59422 L -25.1565,2.72318 L -25.0365,2.86832 L -24.9355,3.02736 L -24.8553,3.1978 L -24.7971,3.37695
 L -24.7618,3.562 L -24.75,3.75 L -24.7618,3.93799 L -24.7971,4.12303 L -24.8553,4.30219 L -24.9355,4.47263
 L -25.0365,4.63167 L -25.1565,4.77681 L -25.2939,4.90576 L -25.4463,5.01648 L -25.6113,5.10724 L -25.7865,5.17657
 L -25.9689,5.22342 L -26.1558,5.24704 z
M 26.1558,12.747 L 25.9689,12.7234 L 25.7865,12.6766 L 25.6113,12.6072 L 25.4463,12.5165 L 25.2939,12.4058
 L 25.1565,12.2768 L 25.0365,12.1317 L 24.9355,11.9726 L 24.8553,11.8022 L 24.7971,11.623 L 24.7618,11.438
 L 24.75,11.25 L 24.7618,11.062 L 24.7971,10.877 L 24.8553,10.6978 L 24.9355,10.5274 L 25.0365,10.3683
 L 25.1565,10.2232 L 25.2939,10.0942 L 25.4463,9.98351 L 25.6113,9.89275 L 25.7865,9.82341 L 25.9689,9.77657
 L 26.1558,9.75294 L 26.3442,9.75294 L 26.5311,9.77657 L 26.7135,9.82341 L 26.8887,9.89275 L 27.0537,9.98351
 L 27.2061,10.0942 L 27.3434,10.2232 L 27.4635,10.3683 L 27.5645,10.5274 L 27.6447,10.6978 L 27.7029,10.877
 L 27.7382,11.062 L 27.75,11.25 L 27.7382,11.438 L 27.7029,11.623 L 27.6447,11.8022 L 27.5645,11.9726
 L 27.4635,12.1317 L 27.3434,12.2768 L 27.2061,12.4058 L 27.0537,12.5165 L 26.8887,12.6072 L 26.7135,12.6766
 L 26.5311,12.7234 L 26.3442,12.747 z
M -18.8442,12.747 L -19.0311,12.7234 L -19.2135,12.6766 L -19.3887,12.6072 L -19.5537,12.5165 L -19.7061,12.4058
 L -19.8434,12.2768 L -19.9635,12.1317 L -20.0645,11.9726 L -20.1447,11.8022 L -20.2029,11.623 L -20.2382,11.438
 L -20.25,11.25 L -20.2382,11.062 L -20.2029,10.877 L -20.1447,10.6978 L -20.0645,10.5274 L -19.9635,10.3683
 L -19.8434,10.2232 L -19.7061,10.0942 L -19.5537,9.98351 L -19.3887,9.89275 L -19.2135,9.82341 L -19.0311,9.77657
 L -18.8442,9.75294 L -18.6558,9.75294 L -18.4689,9.77657 L -18.2865,9.82341 L -18.1113,9.89275 L -17.9463,9.98351
 L -17.7939,10.0942 L -17.6565,10.2232 L -17.5365,10.3683 L -17.4355,10.5274 L -17.3553,10.6978 L -17.2971,10.877
 L -17.2618,11.062 L -17.25,11.25 L -17.2618,11.438 L -17.2971,11.623 L -17.3553,11.8022 L -17.4355,11.9726
 L -17.5365,12.1317 L -17.6565,12.2768 L -17.7939,12.4058 L -17.9463,12.5165 L -18.1113,12.6072 L -18.2865,12.6766
 L -18.4689,12.7234 L -18.6558,12.747 z
M 18.6558,12.747 L 18.4689,12.7234 L 18.2865,12.6766 L 18.1113,12.6072 L 17.9463,12.5165 L 17.7939,12.4058
 L 17.6565,12.2768 L 17.5365,12.1317 L 17.4355,11.9726 L 17.3553,11.8022 L 17.2971,11.623 L 17.2618,11.438
 L 17.25,11.25 L 17.2618,11.062 L 17.2971,10.877 L 17.3553,10.6978 L 17.4355,10.5274 L 17.5365,10.3683
 L 17.6565,10.2232 L 17.7939,10.0942 L 17.9463,9.98351 L 18.1113,9.89275 L 18.2865,9.82341 L 18.4689,9.77657
 L 18.6558,9.75294 L 18.8442,9.75294 L 19.0311,9.77657 L 19.2135,9.82341 L 19.3887,9.89275 L 19.5537,9.98351
 L 19.7061,10.0942 L 19.8434,10.2232 L 19.9635,10.3683 L 20.0645,10.5274 L 20.1447,10.6978 L 20.2029,10.877
 L 20.2382,11.062 L 20.25,11.25 L 20.2382,11.438 L 20.2029,11.623 L 20.1447,11.8022 L 20.0645,11.9726
 L 19.9635,12.1317 L 19.8434,12.2768 L 19.7061,12.4058 L 19.5537,12.5165 L 19.3887,12.6072 L 19.2135,12.6766
 L 19.0311,12.7234 L 18.8442,12.747 z
M -5.06445,11.9726 L -5.14465,11.8022 L -5.20287,11.623 L -5.23816,11.438 L -5.25,11.25 L -5.23816,11.062
 L -5.20287,10.877 L -5.14465,10.6978 L -5.06445,10.5274 L -4.96352,10.3683 L -4.84344,10.2232 L -4.70613,10.0942
 L -4.55373,9.98351 L -4.38866,9.89275 L -4.21352,9.82341 L -4.03107,9.77657 L -3.84418,9.75294 L -3.65581,9.75294
 L -3.46892,9.77657 L -3.28647,9.82341 L -3.11133,9.89275 L -2.94626,9.98351 L -2.79385,10.0942 L -2.65654,10.2232
 L -2.53647,10.3683 L -2.43553,10.5274 L -2.35533,10.6978 L -2.29712,10.877 L -2.26183,11.062 L -2.25,11.25
 L -2.26183,11.438 L -2.29712,11.623 L -2.35533,11.8022 L -2.43553,11.9726 L -2.53647,12.1317 L -2.65654,12.2768
 L -2.79385,12.4058 L -2.94626,12.5165 L -3.11133,12.6072 L -3.28647,12.6766 L -3.46892,12.7234 L -3.65581,12.747
 L -3.84418,12.747 L -4.03107,12.7234 L -4.21352,12.6766 L -4.38866,12.6072 L -4.55373,12.5165 L -4.70613,12.4058
 L -4.84344,12.2768 L -4.96352,12.1317 z
M -26.3442,12.747 L -26.5311,12.7234 L -26.7135,12.6766 L -26.8887,12.6072 L -27.0537,12.5165 L -27.2061,12.4058
 L -27.3434,12.2768 L -27.4635,12.1317 L -27.5645,11.9726 L -27.6447,11.8022 L -27.7029,11.623 L -27.7382,11.438
 L -27.75,11.25 L -27.7382,11.062 L -27.7029,10.877 L -27.6447,10.6978 L -27.5645,10.5274 L -27.4635,10.3683
 L -27.3434,10.2232 L -27.2061,10.0942 L -27.0537,9.98351 L -26.8887,9.89275 L -26.7135,9.82341 L -26.5311,9.77657
 L -26.3442,9.75294 L -26.1558,9.75294 L -25.9689,9.77657 L -25.7865,9.82341 L -25.6113,9.89275 L -25.4463,9.98351
 L -25.2939,10.0942 L -25.1565,10.2232 L -25.0365,10.3683 L -24.9355,10.5274 L -24.8553,10.6978 L -24.7971,10.877
 L -24.7618,11.062 L -24.75,11.25 L -24.7618,11.438 L -24.7971,11.623 L -24.8553,11.8022 L -24.9355,11.9726
 L -25.0365,12.1317 L -25.1565,12.2768 L -25.2939,12.4058 L -25.4463,12.5165 L -25.6113,12.6072 L -25.7865,12.6766
 L -25.9689,12.7234 L -26.1558,12.747 z
M 3.65581,12.747 L 3.46892,12.7234 L 3.28647,12.6766 L 3.11133,12.6072 L 2.94626,12.5165 L 2.79385,12.4058
 L 2.65654,12.2768 L 2.53647,12.1317 L 2.43553,11.9726 L 2.35533,11.8022 L 2.29712,11.623 L 2.26183,11.438
 L 2.25,11.25 L 2.26183,11.062 L 2.29712,10.877 L 2.35533,10.6978 L 2.43553,10.5274 L 2.53647,10.3683
 L 2.65654,10.2232 L 2.79385,10.0942 L 2.94626,9.98351 L 3.11133,9.89275 L 3.28647,9.82341 L 3.46892,9.77657
 L 3.65581,9.75294 L 3.84418,9.75294 L 4.03107,9.77657 L 4.21352,9.82341 L 4.38866,9.89275 L 4.55373,9.98351
 L 4.70613,10.0942 L 4.84344,10.2232 L 4.96352,10.3683 L 5.06445,10.5274 L 5.14465,10.6978 L 5.20287,10.877
 L 5.23816,11.062 L 5.25,11.25 L 5.23816,11.438 L 5.20287,11.623 L 5.14465,11.8022 L 5.06445,11.9726
 L 4.96352,12.1317 L 4.84344,12.2768 L 4.70613,12.4058 L 4.55373,12.5165 L 4.38866,12.6072 L 4.21352,12.6766
 L 4.03107,12.7234 L 3.84418,12.747 z
M 11.1558,12.747 L 10.9689,12.7234 L 10.7865,12.6766 L 10.6113,12.6072 L 10.4463,12.5165 L 10.2939,12.4058
 L 10.1565,12.2768 L 10.0365,12.1317 L 9.93553,11.9726 L 9.85533,11.8022 L 9.79712,11.623 L 9.76183,11.438
 L 9.75,11.25 L 9.76183,11.062 L 9.79712,10.877 L 9.85533,10.6978 L 9.93553,10.5274 L 10.0365,10.3683
 L 10.1565,10.2232 L 10.2939,10.0942 L 10.4463,9.98351 L 10.6113,9.89275 L 10.7865,9.82341 L 10.9689,9.77657
 L 11.1558,9.75294 L 11.3442,9.75294 L 11.5311,9.77657 L 11.7135,9.82341 L 11.8887,9.89275 L 12.0537,9.98351
 L 12.2061,10.0942 L 12.3434,10.2232 L 12.4635,10.3683 L 12.5645,10.5274 L 12.6447,10.6978 L 12.7029,10.877
 L 12.7382,11.062 L 12.75,11.25 L 12.7382,11.438 L 12.7029,11.623 L 12.6447,11.8022 L 12.5645,11.9726
 L 12.4635,12.1317 L 12.3434,12.2768 L 12.2061,12.4058 L 12.0537,12.5165 L 11.8887,12.6072 L 11.7135,12.6766
 L 11.5311,12.7234 L 11.3442,12.747 z
M -26.3442,20.247 L -26.5311,20.2234 L -26.7135,20.1766 L -26.8887,20.1072 L -27.0537,20.0165 L -27.2061,19.9058
 L -27.3434,19.7768 L -27.4635,19.6317 L -27.5645,19.4726 L -27.6447,19.3022 L -27.7029,19.123 L -27.7382,18.938
 L -27.75,18.75 L -27.7382,18.562 L -27.7029,18.377 L -27.6447,18.1978 L -27.5645,18.0274 L -27.4635,17.8683
 L -27.3434,17.7232 L -27.2061,17.5942 L -27.0537,17.4835 L -26.8887,17.3927 L -26.7135,17.3234 L -26.5311,17.2766
 L -26.3442,17.253 L -26.1558,17.253 L -25.9689,17.2766 L -25.7865,17.3234 L -25.6113,17.3927 L -25.4463,17.4835
 L -25.2939,17.5942 L -25.1565,17.7232 L -25.0365,17.8683 L -24.9355,18.0274 L -24.8553,18.1978 L -24.7971,18.377
 L -24.7618,18.562 L -24.75,18.75 L -24.7618,18.938 L -24.7971,19.123 L -24.8553,19.3022 L -24.9355,19.4726
 L -25.0365,19.6317 L -25.1565,19.7768 L -25.2939,19.9058 L -25.4463,20.0165 L -25.6113,20.1072 L -25.7865,20.1766
 L -25.9689,20.2234 L -26.1558,20.247 z
M 9.93553,19.4726 L 9.85533,19.3022 L 9.79712,19.123 L 9.76183,18.938 L 9.75,18.75 L 9.76183,18.562
 L 9.79712,18.377 L 9.85533,18.1978 L 9.93553,18.0274 L 10.0365,17.8683 L 10.1565,17.7232 L 10.2939,17.5942
 L 10.4463,17.4835 L 10.6113,17.3927 L 10.7865,17.3234 L 10.9689,17.2766 L 11.1558,17.253 L 11.3442,17.253
 L 11.5311,17.2766 L 11.7135,17.3234 L 11.8887,17.3927 L 12.0537,17.4835 L 12.2061,17.5942 L 12.3434,17.7232
 L 12.4635,17.8683 L 12.5645,18.0274 L 12.6447,18.1978 L 12.7029,18.377 L 12.7382,18.562 L 12.75,18.75
 L 12.7382,18.938 L 12.7029,19.123 L 12.6447,19.3022 L 12.5645,19.4726 L 12.4635,19.6317 L 12.3434,19.7768
 L 12.2061,19.9058 L 12.0537,20.0165 L 11.8887,20.1072 L 11.7135,20.1766 L 11.5311,20.2234 L 11.3442,20.247
 L 11.1558,20.247 L 10.9689,20.2234 L 10.7865,20.1766 L 10.6113,20.1072 L 10.4463,20.0165 L 10.2939,19.9058
 L 10.1565,19.7768 L 10.0365,19.6317 z
M 18.6558,20.247 L 18.4689,20.2234 L 18.2865,20.1766 L 18.1113,20.1072 L 17.9463,20.0165 L 17.7939,19.9058
 L 17.6565,19.7768 L 17.5365,19.6317 L 17.4355,19.4726 L 17.3553,19.3022 L 17.2971,19.123 L 17.2618,18.938
 L 17.25,18.75 L 17.2618,18.562 L 17.2971,18.377 L 17.3553,18.1978 L 17.4355,18.0274 L 17.5365,17.8683
 L 17.6565,17.7232 L 17.7939,17.5942 L 17.9463,17.4835 L 18.1113,17.3927 L 18.2865,17.3234 L 18.4689,17.2766
 L 18.6558,17.253 L 18.8442,17.253 L 19.0311,17.2766 L 19.2135,17.3234 L 19.3887,17.3927 L 19.5537,17.4835
 L 19.7061,17.5942 L 19.8434,17.7232 L 19.9635,17.8683 L 20.0645,18.0274 L 20.1447,18.1978 L 20.2029,18.377
 L 20.2382,18.562 L 20.25,18.75 L 20.2382,18.938 L 20.2029,19.123 L 20.1447,19.3022 L 20.0645,19.4726
 L 19.9635,19.6317 L 19.8434,19.7768 L 19.7061,19.9058 L 19.5537,20.0165 L 19.3887,20.1072 L 19.2135,20.1766
 L 19.0311,20.2234 L 18.8442,20.247 z
M -18.8442,20.247 L -19.0311,20.2234 L -19.2135,20.1766 L -19.3887,20.1072 L -19.5537,20.0165 L -19.7061,19.9058
 L -19.8434,19.7768 L -19.9635,19.6317 L -20.0645,19.4726 L -20.1447,19.3022 L -20.2029,19.123 L -20.2382,18.938
 L -20.25,18.75 L -20.2382,18.562 L -20.2029,18.377 L -20.1447,18.1978 L -20.0645,18.0274 L -19.9635,17.8683
 L -19.8434,17.7232 L -19.7061,17.5942 L -19.5537,17.4835 L -19.3887,17.3927 L -19.2135,17.3234 L -19.0311,17.2766
 L -18.8442,17.253 L -18.6558,17.253 L -18.4689,17.2766 L -18.2865,17.3234 L -18.1113,17.3927 L -17.9463,17.4835
 L -17.7939,17.5942 L -17.6565,17.7232 L -17.5365,17.8683 L -17.4355,18.0274 L -17.3553,18.1978 L -17.2971,18.377
 L -17.2618,18.562 L -17.25,18.75 L -17.2618,18.938 L -17.2971,19.123 L -17.3553,19.3022 L -17.4355,19.4726
 L -17.5365,19.6317 L -17.6565,19.7768 L -17.7939,19.9058 L -17.9463,20.0165 L -18.1113,20.1072 L -18.2865,20.1766
 L -18.4689,20.2234 L -18.6558,20.247 z
M -3.84418,20.247 L -4.03107,20.2234 L -4.21352,20.1766 L -4.38866,20.1072 L -4.55373,20.0165 L -4.70613,19.9058
 L -4.84344,19.7768 L -4.96352,19.6317 L -5.06445,19.4726 L -5.14465,19.3022 L -5.20287,19.123 L -5.23816,18.938
 L -5.25,18.75 L -5.23816,18.562 L -5.20287,18.377 L -5.14465,18.1978 L -5.06445,18.0274 L -4.96352,17.8683
 L -4.84344,17.7232 L -4.70613,17.5942 L -4.55373,17.4835 L -4.38866,17.3927 L -4.21352,17.3234 L -4.03107,17.2766
 L -3.84418,17.253 L -3.65581,17.253 L -3.46892,17.2766 L -3.28647,17.3234 L -3.11133,17.3927 L -2.94626,17.4835
 L -2.79385,17.5942 L -2.65654,17.7232 L -2.53647,17.8683 L -2.43553,18.0274 L -2.35533,18.1978 L -2.29712,18.377
 L -2.26183,18.562 L -2.25,18.75 L -2.26183,18.938 L -2.29712,19.123 L -2.35533,19.3022 L -2.43553,19.4726
 L -2.53647,19.6317 L -2.65654,19.7768 L -2.79385,19.9058 L -2.94626,20.0165 L -3.11133,20.1072 L -3.28647,20.1766
 L -3.46892,20.2234 L -3.65581,20.247 z
M 26.1558,20.247 L 25.9689,20.2234 L 25.7865,20.1766 L 25.6113,20.1072 L 25.4463,20.0165 L 25.2939,19.9058
 L 25.1565,19.7768 L 25.0365,19.6317 L 24.9355,19.4726 L 24.8553,19.3022 L 24.7971,19.123 L 24.7618,18.938
 L 24.75,18.75 L 24.7618,18.562 L 24.7971,18.377 L 24.8553,18.1978 L 24.9355,18.0274 L 25.0365,17.8683
 L 25.1565,17.7232 L 25.2939,17.5942 L 25.4463,17.4835 L 25.6113,17.3927 L 25.7865,17.3234 L 25.9689,17.2766
 L 26.1558,17.253 L 26.3442,17.253 L 26.5311,17.2766 L 26.7135,17.3234 L 26.8887,17.3927 L 27.0537,17.4835
 L 27.2061,17.5942 L 27.3434,17.7232 L 27.4635,17.8683 L 27.5645,18.0274 L 27.6447,18.1978 L 27.7029,18.377
 L 27.7382,18.562 L 27.75,18.75 L 27.7382,18.938 L 27.7029,19.123 L 27.6447,19.3022 L 27.5645,19.4726
 L 27.4635,19.6317 L 27.3434,19.7768 L 27.2061,19.9058 L 27.0537,20.0165 L 26.8887,20.1072 L 26.7135,20.1766
 L 26.5311,20.2234 L 26.3442,20.247 z
M -11.3442,20.247 L -11.5311,20.2234 L -11.7135,20.1766 L -11.8887,20.1072 L -12.0537,20.0165 L -12.2061,19.9058
 L -12.3434,19.7768 L -12.4635,19.6317 L -12.5645,19.4726 L -12.6447,19.3022 L -12.7029,19.123 L -12.7382,18.938
 L -12.75,18.75 L -12.7382,18.562 L -12.7029,18.377 L -12.6447,18.1978 L -12.5645,18.0274 L -12.4635,17.8683
 L -12.3434,17.7232 L -12.2061,17.5942 L -12.0537,17.4835 L -11.8887,17.3927 L -11.7135,17.3234 L -11.5311,17.2766
 L -11.3442,17.253 L -11.1558,17.253 L -10.9689,17.2766 L -10.7865,17.3234 L -10.6113,17.3927 L -10.4463,17.4835
 L -10.2939,17.5942 L -10.1565,17.7232 L -10.0365,17.8683 L -9.93553,18.0274 L -9.85533,18.1978 L -9.79712,18.377
 L -9.76183,18.562 L -9.75,18.75 L -9.76183,18.938 L -9.79712,19.123 L -9.85533,19.3022 L -9.93553,19.4726
 L -10.0365,19.6317 L -10.1565,19.7768 L -10.2939,19.9058 L -10.4463,20.0165 L -10.6113,20.1072 L -10.7865,20.1766
 L -10.9689,20.2234 L -11.1558,20.247 z
M 18.6558,27.747 L 18.4689,27.7234 L 18.2865,27.6766 L 18.1113,27.6072 L 17.9463,27.5165 L 17.7939,27.4058
 L 17.6565,27.2768 L 17.5365,27.1317 L 17.4355,26.9726 L 17.3553,26.8022 L 17.2971,26.623 L 17.2618,26.438
 L 17.25,26.25 L 17.2618,26.062 L 17.2971,25.877 L 17.3553,25.6978 L 17.4355,25.5274 L 17.5365,25.3683
 L 17.6565,25.2232 L 17.7939,25.0942 L 17.9463,24.9835 L 18.1113,24.8927 L 18.2865,24.8234 L 18.4689,24.7766
 L 18.6558,24.753 L 18.8442,24.753 L 19.0311,24.7766 L 19.2135,24.8234 L 19.3887,24.8927 L 19.5537,24.9835
 L 19.7061,25.0942 L 19.8434,25.2232 L 19.9635,25.3683 L 20.0645,25.5274 L 20.1447,25.6978 L 20.2029,25.877
 L 20.2382,26.062 L 20.25,26.25 L 20.2382,26.438 L 20.2029,26.623 L 20.1447,26.8022 L 20.0645,26.9726
 L 19.9635,27.1317 L 19.8434,27.2768 L 19.7061,27.4058 L 19.5537,27.5165 L 19.3887,27.6072 L 19.2135,27.6766
 L 19.0311,27.7234 L 18.8442,27.747 z
M 3.65581,27.747 L 3.46892,27.7234 L 3.28647,27.6766 L 3.11133,27.6072 L 2.94626,27.5165 L 2.79385,27.4058
 L 2.65654,27.2768 L 2.53647,27.1317 L 2.43553,26.9726 L 2.35533,26.8022 L 2.29712,26.623 L 2.26183,26.438
 L 2.25,26.25 L 2.26183,26.062 L 2.29712,25.877 L 2.35533,25.6978 L 2.43553,25.5274 L 2.53647,25.3683
 L 2.65654,25.2232 L 2.79385,25.0942 L 2.94626,24.9835 L 3.11133,24.8927 L 3.28647,24.8234 L 3.46892,24.7766
 L 3.65581,24.753 L 3.84418,24.753 L 4.03107,24.7766 L 4.21352,24.8234 L 4.38866,24.8927 L 4.55373,24.9835
 L 4.70613,25.0942 L 4.84344,25.2232 L 4.96352,25.3683 L 5.06445,25.5274 L 5.14465,25.6978 L 5.20287,25.877
 L 5.23816,26.062 L 5.25,26.25 L 5.23816,26.438 L 5.20287,26.623 L 5.14465,26.8022 L 5.06445,26.9726
 L 4.96352,27.1317 L 4.84344,27.2768 L 4.70613,27.4058 L 4.55373,27.5165 L 4.38866,27.6072 L 4.21352,27.6766
 L 4.03107,27.7234 L 3.84418,27.747 z
M 11.1558,27.747 L 10.9689,27.7234 L 10.7865,27.6766 L 10.6113,27.6072 L 10.4463,27.5165 L 10.2939,27.4058
 L 10.1565,27.2768 L 10.0365,27.1317 L 9.93553,26.9726 L 9.85533,26.8022 L 9.79712,26.623 L 9.76183,26.438
 L 9.75,26.25 L 9.76183,26.062 L 9.79712,25.877 L 9.85533,25.6978 L 9.93553,25.5274 L 10.0365,25.3683
 L 10.1565,25.2232 L 10.2939,25.0942 L 10.4463,24.9835 L 10.6113,24.8927 L 10.7865,24.8234 L 10.9689,24.7766
 L 11.1558,24.753 L 11.3442,24.753 L 11.5311,24.7766 L 11.7135,24.8234 L 11.8887,24.8927 L 12.0537,24.9835
 L 12.2061,25.0942 L 12.3434,25.2232 L 12.4635,25.3683 L 12.5645,25.5274 L 12.6447,25.6978 L 12.7029,25.877
 L 12.7382,26.062 L 12.75,26.25 L 12.7382,26.438 L 12.7029,26.623 L 12.6447,26.8022 L 12.5645,26.9726
 L 12.4635,27.1317 L 12.3434,27.2768 L 12.2061,27.4058 L 12.0537,27.5165 L 11.8887,27.6072 L 11.7135,27.6766
 L 11.5311,27.7234 L 11.3442,27.747 z
M -11.3442,27.747 L -11.5311,27.7234 L -11.7135,27.6766 L -11.8887,27.6072 L -12.0537,27.5165 L -12.2061,27.4058
 L -12.3434,27.2768 L -12.4635,27.1317 L -12.5645,26.9726 L -12.6447,26.8022 L -12.7029,26.623 L -12.7382,26.438
 L -12.75,26.25 L -12.7382,26.062 L -12.7029,25.877 L -12.6447,25.6978 L -12.5645,25.5274 L -12.4635,25.3683
 L -12.3434,25.2232 L -12.2061,25.0942 L -12.0537,24.9835 L -11.8887,24.8927 L -11.7135,24.8234 L -11.5311,24.7766
 L -11.3442,24.753 L -11.1558,24.753 L -10.9689,24.7766 L -10.7865,24.8234 L -10.6113,24.8927 L -10.4463,24.9835
 L -10.2939,25.0942 L -10.1565,25.2232 L -10.0365,25.3683 L -9.93553,25.5274 L -9.85533,25.6978 L -9.79712,25.877
 L -9.76183,26.062 L -9.75,26.25 L -9.76183,26.438 L -9.79712,26.623 L -9.85533,26.8022 L -9.93553,26.9726
 L -10.0365,27.1317 L -10.1565,27.2768 L -10.2939,27.4058 L -10.4463,27.5165 L -10.6113,27.6072 L -10.7865,27.6766
 L -10.9689,27.7234 L -11.1558,27.747 z
M -26.3442,27.747 L -26.5311,27.7234 L -26.7135,27.6766 L -26.8887,27.6072 L -27.0537,27.5165 L -27.2061,27.4058
 L -27.3434,27.2768 L -27.4635,27.1317 L -27.5645,26.9726 L -27.6447,26.8022 L -27.7029,26.623 L -27.7382,26.438
 L -27.75,26.25 L -27.7382,26.062 L -27.7029,25.877 L -27.6447,25.6978 L -27.5645,25.5274 L -27.4635,25.3683
 L -27.3434,25.2232 L -27.2061,25.0942 L -27.0537,24.9835 L -26.8887,24.8927 L -26.7135,24.8234 L -26.5311,24.7766
 L -26.3442,24.753 L -26.1558,24.753 L -25.9689,24.7766 L -25.7865,24.8234 L -25.6113,24.8927 L -25.4463,24.9835
 L -25.2939,25.0942 L -25.1565,25.2232 L -25.0365,25.3683 L -24.9355,25.5274 L -24.8553,25.6978 L -24.7971,25.877
 L -24.7618,26.062 L -24.75,26.25 L -24.7618,26.438 L -24.7971,26.623 L -24.8553,26.8022 L -24.9355,26.9726
 L -25.0365,27.1317 L -25.1565,27.2768 L -25.2939,27.4058 L -25.4463,27.5165 L -25.6113,27.6072 L -25.7865,27.6766
 L -25.9689,27.7234 L -26.1558,27.747 z
M -3.84418,27.747 L -4.03107,27.7234 L -4.21352,27.6766 L -4.38866,27.6072 L -4.55373,27.5165 L -4.70613,27.4058
 L -4.84344,27.2768 L -4.96352,27.1317 L -5.06445,26.9726 L -5.14465,26.8022 L -5.20287,26.623 L -5.23816,26.438
 L -5.25,26.25 L -5.23816,26.062 L -5.20287,25.877 L -5.14465,25.6978 L -5.06445,25.5274 L -4.96352,25.3683
 L -4.84344,25.2232 L -4.70613,25.0942 L -4.55373,24.9835 L -4.38866,24.8927 L -4.21352,24.8234 L -4.03107,24.7766
 L -3.84418,24.753 L -3.65581,24.753 L -3.46892,24.7766 L -3.28647,24.8234 L -3.11133,24.8927 L -2.94626,24.9835
 L -2.79385,25.0942 L -2.65654,25.2232 L -2.53647,25.3683 L -2.43553,25.5274 L -2.35533,25.6978 L -2.29712,25.877
 L -2.26183,26.062 L -2.25,26.25 L -2.26183,26.438 L -2.29712,26.623 L -2.35533,26.8022 L -2.43553,26.9726
 L -2.53647,27.1317 L -2.65654,27.2768 L -2.79385,27.4058 L -2.94626,27.5165 L -3.11133,27.6072 L -3.28647,27.6766
 L -3.46892,27.7234 L -3.65581,27.747 z
M 26.1558,27.747 L 25.9689,27.7234 L 25.7865,27.6766 L 25.6113,27.6072 L 25.4463,27.5165 L 25.2939,27.4058
 L 25.1565,27.2768 L 25.0365,27.1317 L 24.9355,26.9726 L 24.8553,26.8022 L 24.7971,26.623 L 24.7618,26.438
 L 24.75,26.25 L 24.7618,26.062 L 24.7971,25.877 L 24.8553,25.6978 L 24.9355,25.5274 L 25.0365,25.3683
 L 25.1565,25.2232 L 25.2939,25.0942 L 25.4463,24.9835 L 25.6113,24.8927 L 25.7865,24.8234 L 25.9689,24.7766
 L 26.1558,24.753 L 26.3442,24.753 L 26.5311,24.7766 L 26.7135,24.8234 L 26.8887,24.8927 L 27.0537,24.9835
 L 27.2061,25.0942 L 27.3434,25.2232 L 27.4635,25.3683 L 27.5645,25.5274 L 27.6447,25.6978 L 27.7029,25.877
 L 27.7382,26.062 L 27.75,26.25 L 27.7382,26.438 L 27.7029,26.623 L 27.6447,26.8022 L 27.5645,26.9726
 L 27.4635,27.1317 L 27.3434,27.2768 L 27.2061,27.4058 L 27.0537,27.5165 L 26.8887,27.6072 L 26.7135,27.6766
 L 26.5311,27.7234 L 26.3442,27.747 z
M -18.8442,27.747 L -19.0311,27.7234 L -19.2135,27.6766 L -19.3887,27.6072 L -19.5537,27.5165 L -19.7061,27.4058
 L -19.8434,27.2768 L -19.9635,27.1317 L -20.0645,26.9726 L -20.1447,26.8022 L -20.2029,26.623 L -20.2382,26.438
 L -20.25,26.25 L -20.2382,26.062 L -20.2029,25.877 L -20.1447,25.6978 L -20.0645,25.5274 L -19.9635,25.3683
 L -19.8434,25.2232 L -19.7061,25.0942 L -19.5537,24.9835 L -19.3887,24.8927 L -19.2135,24.8234 L -19.0311,24.7766
 L -18.8442,24.753 L -18.6558,24.753 L -18.4689,24.7766 L -18.2865,24.8234 L -18.1113,24.8927 L -17.9463,24.9835
 L -17.7939,25.0942 L -17.6565,25.2232 L -17.5365,25.3683 L -17.4355,25.5274 L -17.3553,25.6978 L -17.2971,25.877
 L -17.2618,26.062 L -17.25,26.25 L -17.2618,26.438 L -17.2971,26.623 L -17.3553,26.8022 L -17.4355,26.9726
 L -17.5365,27.1317 L -17.6565,27.2768 L -17.7939,27.4058 L -17.9463,27.5165 L -18.1113,27.6072 L -18.2865,27.6766
 L -18.4689,27.7234 L -18.6558,27.747 z
M 12.0537,-9.98351 L 11.8887,-9.89275 L 11.7135,-9.82341 L 11.5311,-9.77657 L 11.3442,-9.75294 L 11.1558,-9.75294
 L 10.9689,-9.77657 L 10.7865,-9.82341 L 10.6113,-9.89275 L 10.4463,-9.98351 L 10.2939,-10.0942 L 10.1565,-10.2232
 L 10.0365,-10.3683 L 9.93553,-10.5274 L 9.85533,-10.6978 L 9.79712,-10.877 L 9.76183,-11.062 L 9.75,-11.25
 L 9.76183,-11.438 L 9.79712,-11.623 L 9.85533,-11.8022 L 9.93553,-11.9726 L 10.0365,-12.1317 L 10.1565,-12.2768
 L 10.2939,-12.4058 L 10.4463,-12.5165 L 10.6113,-12.6072 L 10.7865,-12.6766 L 10.9689,-12.7234 L 11.1558,-12.747
 L 11.3442,-12.747 L 11.5311,-12.7234 L 11.7135,-12.6766 L 11.8887,-12.6072 L 12.0537,-12.5165 L 12.2061,-12.4058
 L 12.3434,-12.2768 L 12.4635,-12.1317 L 12.5645,-11.9726 L 12.6447,-11.8022 L 12.7029,-11.623 L 12.7382,-11.438
 L 12.75,-11.25 L 12.7382,-11.062 L 12.7029,-10.877 L 12.6447,-10.6978 L 12.5645,-10.5274 L 12.4635,-10.3683
 L 12.3434,-10.2232 L 12.2061,-10.0942 z
M -2.94626,-9.98351 L -3.11133,-9.89275 L -3.28647,-9.82341 L -3.46892,-9.77657 L -3.65581,-9.75294 L -3.84418,-9.75294
 L -4.03107,-9.77657 L -4.21352,-9.82341 L -4.38866,-9.89275 L -4.55373,-9.98351 L -4.70613,-10.0942 L -4.84344,-10.2232
 L -4.96352,-10.3683 L -5.06445,-10.5274 L -5.14465,-10.6978 L -5.20287,-10.877 L -5.23816,-11.062 L -5.25,-11.25
 L -5.23816,-11.438 L -5.20287,-11.623 L -5.14465,-11.8022 L -5.06445,-11.9726 L -4.96352,-12.1317 L -4.84344,-12.2768
 L -4.70613,-12.4058 L -4.55373,-12.5165 L -4.38866,-12.6072 L -4.21352,-12.6766 L -4.03107,-12.7234 L -3.84418,-12.747
 L -3.65581,-12.747 L -3.46892,-12.7234 L -3.28647,-12.6766 L -3.11133,-12.6072 L -2.94626,-12.5165 L -2.79385,-12.4058
 L -2.65654,-12.2768 L -2.53647,-12.1317 L -2.43553,-11.9726 L -2.35533,-11.8022 L -2.29712,-11.623 L -2.26183,-11.438
 L -2.25,-11.25 L -2.26183,-11.062 L -2.29712,-10.877 L -2.35533,-10.6978 L -2.43553,-10.5274 L -2.53647,-10.3683
 L -2.65654,-10.2232 L -2.79385,-10.0942 z
M -10.4463,12.5165 L -10.6113,12.6072 L -10.7865,12.6766 L -10.9689,12.7234 L -11.1558,12.747 L -11.3442,12.747
 L -11.5311,12.7234 L -11.7135,12.6766 L -11.8887,12.6072 L -12.0537,12.5165 L -12.2061,12.4058 L -12.3434,12.2768
 L -12.4635,12.1317 L -12.5645,11.9726 L -12.6447,11.8022 L -12.7029,11.623 L -12.7382,11.438 L -12.75,11.25
 L -12.7382,11.062 L -12.7029,10.877 L -12.6447,10.6978 L -12.5645,10.5274 L -12.4635,10.3683 L -12.3434,10.2232
 L -12.2061,10.0942 L -12.0537,9.98351 L -11.8887,9.89275 L -11.7135,9.82341 L -11.5311,9.77657 L -11.3442,9.75294
 L -11.1558,9.75294 L -10.9689,9.77657 L -10.7865,9.82341 L -10.6113,9.89275 L -10.4463,9.98351 L -10.2939,10.0942
 L -10.1565,10.2232 L -10.0365,10.3683 L -9.93553,10.5274 L -9.85533,10.6978 L -9.79712,10.877 L -9.76183,11.062
 L -9.75,11.25 L -9.76183,11.438 L -9.79712,11.623 L -9.85533,11.8022 L -9.93553,11.9726 L -10.0365,12.1317
 L -10.1565,12.2768 L -10.2939,12.4058 z
M 4.55373,20.0165 L 4.38866,20.1072 L 4.21352,20.1766 L 4.03107,20.2234 L 3.84418,20.247 L 3.65581,20.247
 L 3.46892,20.2234 L 3.28647,20.1766 L 3.11133,20.1072 L 2.94626,20.0165 L 2.79385,19.9058 L 2.65654,19.7768
 L 2.53647,19.6317 L 2.43553,19.4726 L 2.35533,19.3022 L 2.29712,19.123 L 2.26183,18.938 L 2.25,18.75
 L 2.26183,18.562 L 2.29712,18.377 L 2.35533,18.1978 L 2.43553,18.0274 L 2.53647,17.8683 L 2.65654,17.7232
 L 2.79385,17.5942 L 2.94626,17.4835 L 3.11133,17.3927 L 3.28647,17.3234 L 3.46892,17.2766 L 3.65581,17.253
 L 3.84418,17.253 L 4.03107,17.2766 L 4.21352,17.3234 L 4.38866,17.3927 L 4.55373,17.4835 L 4.70613,17.5942
 L 4.84344,17.7232 L 4.96352,17.8683 L 5.06445,18.0274 L 5.14465,18.1978 L 5.20287,18.377 L 5.23816,18.562
 L 5.25,18.75 L 5.23816,18.938 L 5.20287,19.123 L 5.14465,19.3022 L 5.06445,19.4726 L 4.96352,19.6317
 L 4.84344,19.7768 L 4.70613,19.9058 z
" stroke="black" fill="lightgray" stroke-width="0.5"/>
</svg>
