solid OpenSCAD_Model
  facet normal -1 0 0
    outer loop
      vertex -3.5 -1 0
      vertex -3.5 1 3
      vertex -3.5 1 0
    endloop
  endfacet
  facet normal -1 -0 0
    outer loop
      vertex -3.5 1 3
      vertex -3.5 -1 0
      vertex -3.5 -1 3
    endloop
  endfacet
  facet normal -0.998027 0.0627808 0
    outer loop
      vertex -3.5 1 0
      vertex -3.48029 1.31333 3
      vertex -3.48029 1.31333 0
    endloop
  endfacet
  facet normal -0.998027 0.0627808 0
    outer loop
      vertex -3.48029 1.31333 3
      vertex -3.5 1 0
      vertex -3.5 1 3
    endloop
  endfacet
  facet normal -0.998027 -0.0627808 0
    outer loop
      vertex -3.48029 -1.31333 0
      vertex -3.5 -1 3
      vertex -3.5 -1 0
    endloop
  endfacet
  facet normal -0.998027 -0.0627808 0
    outer loop
      vertex -3.5 -1 3
      vertex -3.48029 -1.31333 0
      vertex -3.48029 -1.31333 3
    endloop
  endfacet
  facet normal 0 0 1
    outer loop
      vertex 1.39466 0.552186 3
      vertex 3.5 1 3
      vertex 3.48029 1.31333 3
    endloop
  endfacet
  facet normal 0 0 1
    outer loop
      vertex 3.5 1 3
      vertex 1.5 0 3
      vertex 3.5 -1 3
    endloop
  endfacet
  facet normal 0 0 1
    outer loop
      vertex 1.31446 0.722631 3
      vertex 3.48029 1.31333 3
      vertex 3.42146 1.62172 3
    endloop
  endfacet
  facet normal -0 0 1
    outer loop
      vertex 1.48817 -0.188 3
      vertex 3.5 -1 3
      vertex 1.5 0 3
    endloop
  endfacet
  facet normal 0 0 1
    outer loop
      vertex 1.31446 0.722631 3
      vertex 3.42146 1.62172 3
      vertex 3.32444 1.92031 3
    endloop
  endfacet
  facet normal -0 0 1
    outer loop
      vertex 1.45287 -0.373034 3
      vertex 3.5 -1 3
      vertex 1.48817 -0.188 3
    endloop
  endfacet
  facet normal 0 0 1
    outer loop
      vertex 1.21352 0.881678 3
      vertex 3.32444 1.92031 3
      vertex 3.19077 2.20438 3
    endloop
  endfacet
  facet normal -0 0 1
    outer loop
      vertex 1.39466 -0.552186 3
      vertex 3.5 -1 3
      vertex 1.45287 -0.373034 3
    endloop
  endfacet
  facet normal 0 0 1
    outer loop
      vertex 1.21352 0.881678 3
      vertex 3.19077 2.20438 3
      vertex 3.02254 2.46946 3
    endloop
  endfacet
  facet normal 0 0 1
    outer loop
      vertex 3.5 -1 3
      vertex 1.39466 -0.552186 3
      vertex 3.48029 -1.31333 3
    endloop
  endfacet
  facet normal 0 0 1
    outer loop
      vertex 1.09345 1.02682 3
      vertex 3.02254 2.46946 3
      vertex 2.82242 2.71137 3
    endloop
  endfacet
  facet normal -0 0 1
    outer loop
      vertex 1.31446 -0.722631 3
      vertex 3.48029 -1.31333 3
      vertex 1.39466 -0.552186 3
    endloop
  endfacet
  facet normal 0 0 1
    outer loop
      vertex 1.09345 1.02682 3
      vertex 2.82242 2.71137 3
      vertex 2.59356 2.92628 3
    endloop
  endfacet
  facet normal 0 0 1
    outer loop
      vertex 3.48029 -1.31333 3
      vertex 1.31446 -0.722631 3
      vertex 3.42146 -1.62172 3
    endloop
  endfacet
  facet normal 0 0 1
    outer loop
      vertex 0.956136 1.15577 3
      vertex 2.59356 2.92628 3
      vertex 2.33957 3.11082 3
    endloop
  endfacet
  facet normal 0 0 1
    outer loop
      vertex 3.42146 -1.62172 3
      vertex 1.31446 -0.722631 3
      vertex 3.32444 -1.92031 3
    endloop
  endfacet
  facet normal 0 0 1
    outer loop
      vertex 0.956136 1.15577 3
      vertex 2.33957 3.11082 3
      vertex 2.06445 3.26207 3
    endloop
  endfacet
  facet normal -0 0 1
    outer loop
      vertex 1.21352 -0.881678 3
      vertex 3.32444 -1.92031 3
      vertex 1.31446 -0.722631 3
    endloop
  endfacet
  facet normal 0 0 1
    outer loop
      vertex 0.80374 1.26649 3
      vertex 2.06445 3.26207 3
      vertex 1.77254 3.37764 3
    endloop
  endfacet
  facet normal 0 0 1
    outer loop
      vertex 3.32444 -1.92031 3
      vertex 1.21352 -0.881678 3
      vertex 3.19077 -2.20438 3
    endloop
  endfacet
  facet normal 0 0 1
    outer loop
      vertex 3.19077 -2.20438 3
      vertex 1.21352 -0.881678 3
      vertex 3.02254 -2.46946 3
    endloop
  endfacet
  facet normal 0 0 1
    outer loop
      vertex 3.5 1 3
      vertex 1.48817 0.188 3
      vertex 1.5 0 3
    endloop
  endfacet
  facet normal 0 0 1
    outer loop
      vertex 0.80374 1.26649 3
      vertex 1.77254 3.37764 3
      vertex 1.46845 3.45572 3
    endloop
  endfacet
  facet normal 0 0 1
    outer loop
      vertex 3.5 1 3
      vertex 1.45287 0.373034 3
      vertex 1.48817 0.188 3
    endloop
  endfacet
  facet normal 0 0 1
    outer loop
      vertex 3.5 1 3
      vertex 1.39466 0.552186 3
      vertex 1.45287 0.373034 3
    endloop
  endfacet
  facet normal 0 0 1
    outer loop
      vertex 3.48029 1.31333 3
      vertex 1.31446 0.722631 3
      vertex 1.39466 0.552186 3
    endloop
  endfacet
  facet normal 0 0 1
    outer loop
      vertex 3.32444 1.92031 3
      vertex 1.21352 0.881678 3
      vertex 1.31446 0.722631 3
    endloop
  endfacet
  facet normal 0 0 1
    outer loop
      vertex 0.638668 1.35724 3
      vertex 1.46845 3.45572 3
      vertex 1.15698 3.49507 3
    endloop
  endfacet
  facet normal 0 0 1
    outer loop
      vertex 3.02254 2.46946 3
      vertex 1.09345 1.02682 3
      vertex 1.21352 0.881678 3
    endloop
  endfacet
  facet normal 0 0 1
    outer loop
      vertex 2.59356 2.92628 3
      vertex 0.956136 1.15577 3
      vertex 1.09345 1.02682 3
    endloop
  endfacet
  facet normal 0 0 1
    outer loop
      vertex 2.06445 3.26207 3
      vertex 0.80374 1.26649 3
      vertex 0.956136 1.15577 3
    endloop
  endfacet
  facet normal 0 0 1
    outer loop
      vertex 1.46845 3.45572 3
      vertex 0.638668 1.35724 3
      vertex 0.80374 1.26649 3
    endloop
  endfacet
  facet normal 0 0 1
    outer loop
      vertex 1.15698 3.49507 3
      vertex 0.463525 1.42658 3
      vertex 0.638668 1.35724 3
    endloop
  endfacet
  facet normal 0 0 1
    outer loop
      vertex 1.15698 3.49507 3
      vertex 0.281072 1.47343 3
      vertex 0.463525 1.42658 3
    endloop
  endfacet
  facet normal 0 0 1
    outer loop
      vertex 1.15698 3.49507 3
      vertex 0.0941849 1.49704 3
      vertex 0.281072 1.47343 3
    endloop
  endfacet
  facet normal 0 0 1
    outer loop
      vertex 1.15698 3.49507 3
      vertex -0.0941849 1.49704 3
      vertex 0.0941849 1.49704 3
    endloop
  endfacet
  facet normal -0 0 1
    outer loop
      vertex -1.15698 3.49507 3
      vertex -0.0941849 1.49704 3
      vertex 1.15698 3.49507 3
    endloop
  endfacet
  facet normal 0 0 1
    outer loop
      vertex -0.0941849 1.49704 3
      vertex -1.15698 3.49507 3
      vertex -0.281072 1.47343 3
    endloop
  endfacet
  facet normal 0 0 1
    outer loop
      vertex -0.281072 1.47343 3
      vertex -1.15698 3.49507 3
      vertex -0.463525 1.42658 3
    endloop
  endfacet
  facet normal 0 0 1
    outer loop
      vertex -0.463525 1.42658 3
      vertex -1.15698 3.49507 3
      vertex -0.638668 1.35724 3
    endloop
  endfacet
  facet normal -0 0 1
    outer loop
      vertex -1.46845 3.45572 3
      vertex -0.638668 1.35724 3
      vertex -1.15698 3.49507 3
    endloop
  endfacet
  facet normal 0 0 1
    outer loop
      vertex -0.638668 1.35724 3
      vertex -1.46845 3.45572 3
      vertex -0.80374 1.26649 3
    endloop
  endfacet
  facet normal -0 0 1
    outer loop
      vertex -1.77254 3.37764 3
      vertex -0.80374 1.26649 3
      vertex -1.46845 3.45572 3
    endloop
  endfacet
  facet normal -0 0 1
    outer loop
      vertex -2.06445 3.26207 3
      vertex -0.80374 1.26649 3
      vertex -1.77254 3.37764 3
    endloop
  endfacet
  facet normal 0 0 1
    outer loop
      vertex -0.80374 1.26649 3
      vertex -2.06445 3.26207 3
      vertex -0.956136 1.15577 3
    endloop
  endfacet
  facet normal -0 0 1
    outer loop
      vertex -2.33957 3.11082 3
      vertex -0.956136 1.15577 3
      vertex -2.06445 3.26207 3
    endloop
  endfacet
  facet normal -0 0 1
    outer loop
      vertex -2.59356 2.92628 3
      vertex -0.956136 1.15577 3
      vertex -2.33957 3.11082 3
    endloop
  endfacet
  facet normal 0 0 1
    outer loop
      vertex -0.956136 1.15577 3
      vertex -2.59356 2.92628 3
      vertex -1.09345 1.02682 3
    endloop
  endfacet
  facet normal -0 0 1
    outer loop
      vertex -2.82242 2.71137 3
      vertex -1.09345 1.02682 3
      vertex -2.59356 2.92628 3
    endloop
  endfacet
  facet normal -0 0 1
    outer loop
      vertex -3.02254 2.46946 3
      vertex -1.09345 1.02682 3
      vertex -2.82242 2.71137 3
    endloop
  endfacet
  facet normal 0 0 1
    outer loop
      vertex -1.09345 1.02682 3
      vertex -3.02254 2.46946 3
      vertex -1.21352 0.881678 3
    endloop
  endfacet
  facet normal -0 0 1
    outer loop
      vertex 1.09345 -1.02682 3
      vertex 3.02254 -2.46946 3
      vertex 1.21352 -0.881678 3
    endloop
  endfacet
  facet normal 0 0 1
    outer loop
      vertex 3.02254 -2.46946 3
      vertex 1.09345 -1.02682 3
      vertex 2.82242 -2.71137 3
    endloop
  endfacet
  facet normal 0 0 1
    outer loop
      vertex 2.82242 -2.71137 3
      vertex 1.09345 -1.02682 3
      vertex 2.59356 -2.92628 3
    endloop
  endfacet
  facet normal -0 0 1
    outer loop
      vertex 0.956136 -1.15577 3
      vertex 2.59356 -2.92628 3
      vertex 1.09345 -1.02682 3
    endloop
  endfacet
  facet normal 0 0 1
    outer loop
      vertex 2.59356 -2.92628 3
      vertex 0.956136 -1.15577 3
      vertex 2.33957 -3.11082 3
    endloop
  endfacet
  facet normal 0 0 1
    outer loop
      vertex 2.33957 -3.11082 3
      vertex 0.956136 -1.15577 3
      vertex 2.06445 -3.26207 3
    endloop
  endfacet
  facet normal -0 0 1
    outer loop
      vertex 0.80374 -1.26649 3
      vertex 2.06445 -3.26207 3
      vertex 0.956136 -1.15577 3
    endloop
  endfacet
  facet normal 0 0 1
    outer loop
      vertex 2.06445 -3.26207 3
      vertex 0.80374 -1.26649 3
      vertex 1.77254 -3.37764 3
    endloop
  endfacet
  facet normal 0 0 1
    outer loop
      vertex 1.77254 -3.37764 3
      vertex 0.80374 -1.26649 3
      vertex 1.46845 -3.45572 3
    endloop
  endfacet
  facet normal -0 0 1
    outer loop
      vertex 0.638668 -1.35724 3
      vertex 1.46845 -3.45572 3
      vertex 0.80374 -1.26649 3
    endloop
  endfacet
  facet normal 0 0 1
    outer loop
      vertex 1.46845 -3.45572 3
      vertex 0.638668 -1.35724 3
      vertex 1.15698 -3.49507 3
    endloop
  endfacet
  facet normal -0 0 1
    outer loop
      vertex 0.463525 -1.42658 3
      vertex 1.15698 -3.49507 3
      vertex 0.638668 -1.35724 3
    endloop
  endfacet
  facet normal -0 0 1
    outer loop
      vertex 0.281072 -1.47343 3
      vertex 1.15698 -3.49507 3
      vertex 0.463525 -1.42658 3
    endloop
  endfacet
  facet normal -0 0 1
    outer loop
      vertex 0.0941849 -1.49704 3
      vertex 1.15698 -3.49507 3
      vertex 0.281072 -1.47343 3
    endloop
  endfacet
  facet normal -0 0 1
    outer loop
      vertex -0.0941849 -1.49704 3
      vertex 1.15698 -3.49507 3
      vertex 0.0941849 -1.49704 3
    endloop
  endfacet
  facet normal 0 0 1
    outer loop
      vertex -1.15698 -3.49507 3
      vertex -0.0941849 -1.49704 3
      vertex -0.281072 -1.47343 3
    endloop
  endfacet
  facet normal 0 0 1
    outer loop
      vertex -1.15698 -3.49507 3
      vertex -0.281072 -1.47343 3
      vertex -0.463525 -1.42658 3
    endloop
  endfacet
  facet normal 0 0 1
    outer loop
      vertex -1.15698 -3.49507 3
      vertex -0.463525 -1.42658 3
      vertex -0.638668 -1.35724 3
    endloop
  endfacet
  facet normal 0 0 1
    outer loop
      vertex -1.46845 -3.45572 3
      vertex -0.638668 -1.35724 3
      vertex -0.80374 -1.26649 3
    endloop
  endfacet
  facet normal 0 0 1
    outer loop
      vertex -2.06445 -3.26207 3
      vertex -0.80374 -1.26649 3
      vertex -0.956136 -1.15577 3
    endloop
  endfacet
  facet normal 0 0 1
    outer loop
      vertex -2.59356 -2.92628 3
      vertex -0.956136 -1.15577 3
      vertex -1.09345 -1.02682 3
    endloop
  endfacet
  facet normal 0 0 1
    outer loop
      vertex -0.0941849 -1.49704 3
      vertex -1.15698 -3.49507 3
      vertex 1.15698 -3.49507 3
    endloop
  endfacet
  facet normal 0 0 1
    outer loop
      vertex -3.02254 -2.46946 3
      vertex -1.09345 -1.02682 3
      vertex -1.21352 -0.881678 3
    endloop
  endfacet
  facet normal 0 0 1
    outer loop
      vertex -3.32444 -1.92031 3
      vertex -1.21352 -0.881678 3
      vertex -1.31446 -0.722631 3
    endloop
  endfacet
  facet normal 0 0 1
    outer loop
      vertex -3.48029 -1.31333 3
      vertex -1.31446 -0.722631 3
      vertex -1.39466 -0.552186 3
    endloop
  endfacet
  facet normal 0 0 1
    outer loop
      vertex -3.5 -1 3
      vertex -1.39466 -0.552186 3
      vertex -1.45287 -0.373034 3
    endloop
  endfacet
  facet normal 0 0 1
    outer loop
      vertex -0.638668 -1.35724 3
      vertex -1.46845 -3.45572 3
      vertex -1.15698 -3.49507 3
    endloop
  endfacet
  facet normal 0 0 1
    outer loop
      vertex -3.5 -1 3
      vertex -1.45287 -0.373034 3
      vertex -1.48817 -0.188 3
    endloop
  endfacet
  facet normal 0 0 1
    outer loop
      vertex -3.5 -1 3
      vertex -1.48817 -0.188 3
      vertex -1.5 0 3
    endloop
  endfacet
  facet normal -0 0 1
    outer loop
      vertex -3.19077 2.20438 3
      vertex -1.21352 0.881678 3
      vertex -3.02254 2.46946 3
    endloop
  endfacet
  facet normal 0 0 1
    outer loop
      vertex -3.5 -1 3
      vertex -1.5 0 3
      vertex -3.5 1 3
    endloop
  endfacet
  facet normal -0 0 1
    outer loop
      vertex -3.32444 1.92031 3
      vertex -1.21352 0.881678 3
      vertex -3.19077 2.20438 3
    endloop
  endfacet
  facet normal 0 0 1
    outer loop
      vertex -1.39466 -0.552186 3
      vertex -3.5 -1 3
      vertex -3.48029 -1.31333 3
    endloop
  endfacet
  facet normal 0 0 1
    outer loop
      vertex -1.21352 0.881678 3
      vertex -3.32444 1.92031 3
      vertex -1.31446 0.722631 3
    endloop
  endfacet
  facet normal 0 0 1
    outer loop
      vertex -0.80374 -1.26649 3
      vertex -1.77254 -3.37764 3
      vertex -1.46845 -3.45572 3
    endloop
  endfacet
  facet normal -0 0 1
    outer loop
      vertex -3.42146 1.62172 3
      vertex -1.31446 0.722631 3
      vertex -3.32444 1.92031 3
    endloop
  endfacet
  facet normal 0 0 1
    outer loop
      vertex -0.80374 -1.26649 3
      vertex -2.06445 -3.26207 3
      vertex -1.77254 -3.37764 3
    endloop
  endfacet
  facet normal -0 0 1
    outer loop
      vertex -3.48029 1.31333 3
      vertex -1.31446 0.722631 3
      vertex -3.42146 1.62172 3
    endloop
  endfacet
  facet normal 0 0 1
    outer loop
      vertex -0.956136 -1.15577 3
      vertex -2.33957 -3.11082 3
      vertex -2.06445 -3.26207 3
    endloop
  endfacet
  facet normal 0 0 1
    outer loop
      vertex -1.31446 0.722631 3
      vertex -3.48029 1.31333 3
      vertex -1.39466 0.552186 3
    endloop
  endfacet
  facet normal 0 0 1
    outer loop
      vertex -0.956136 -1.15577 3
      vertex -2.59356 -2.92628 3
      vertex -2.33957 -3.11082 3
    endloop
  endfacet
  facet normal -0 0 1
    outer loop
      vertex -3.5 1 3
      vertex -1.39466 0.552186 3
      vertex -3.48029 1.31333 3
    endloop
  endfacet
  facet normal 0 0 1
    outer loop
      vertex -1.09345 -1.02682 3
      vertex -2.82242 -2.71137 3
      vertex -2.59356 -2.92628 3
    endloop
  endfacet
  facet normal 0 0 1
    outer loop
      vertex -1.39466 0.552186 3
      vertex -3.5 1 3
      vertex -1.45287 0.373034 3
    endloop
  endfacet
  facet normal 0 0 1
    outer loop
      vertex -1.09345 -1.02682 3
      vertex -3.02254 -2.46946 3
      vertex -2.82242 -2.71137 3
    endloop
  endfacet
  facet normal 0 0 1
    outer loop
      vertex -1.45287 0.373034 3
      vertex -3.5 1 3
      vertex -1.48817 0.188 3
    endloop
  endfacet
  facet normal 0 0 1
    outer loop
      vertex -1.21352 -0.881678 3
      vertex -3.19077 -2.20438 3
      vertex -3.02254 -2.46946 3
    endloop
  endfacet
  facet normal 0 0 1
    outer loop
      vertex -1.48817 0.188 3
      vertex -3.5 1 3
      vertex -1.5 0 3
    endloop
  endfacet
  facet normal 0 0 1
    outer loop
      vertex -1.21352 -0.881678 3
      vertex -3.32444 -1.92031 3
      vertex -3.19077 -2.20438 3
    endloop
  endfacet
  facet normal 0 0 1
    outer loop
      vertex -1.31446 -0.722631 3
      vertex -3.42146 -1.62172 3
      vertex -3.32444 -1.92031 3
    endloop
  endfacet
  facet normal 0 0 1
    outer loop
      vertex -1.31446 -0.722631 3
      vertex -3.48029 -1.31333 3
      vertex -3.42146 -1.62172 3
    endloop
  endfacet
  facet normal 0.36811 -0.929782 0
    outer loop
      vertex 1.77254 -3.37764 0
      vertex 2.06445 -3.26207 3
      vertex 1.77254 -3.37764 3
    endloop
  endfacet
  facet normal 0.36811 -0.929782 0
    outer loop
      vertex 2.06445 -3.26207 3
      vertex 1.77254 -3.37764 0
      vertex 2.06445 -3.26207 0
    endloop
  endfacet
  facet normal 0.951054 -0.309023 0
    outer loop
      vertex 3.32444 -1.92031 3
      vertex 3.42146 -1.62172 0
      vertex 3.42146 -1.62172 3
    endloop
  endfacet
  facet normal 0.951054 -0.309023 0
    outer loop
      vertex 3.42146 -1.62172 0
      vertex 3.32444 -1.92031 3
      vertex 3.32444 -1.92031 0
    endloop
  endfacet
  facet normal -0.36811 -0.929782 0
    outer loop
      vertex -2.06445 -3.26207 0
      vertex -1.77254 -3.37764 3
      vertex -2.06445 -3.26207 3
    endloop
  endfacet
  facet normal -0.36811 -0.929782 -0
    outer loop
      vertex -1.77254 -3.37764 3
      vertex -2.06445 -3.26207 0
      vertex -1.77254 -3.37764 0
    endloop
  endfacet
  facet normal 0.248699 -0.968581 0
    outer loop
      vertex 1.46845 -3.45572 0
      vertex 1.77254 -3.37764 3
      vertex 1.46845 -3.45572 3
    endloop
  endfacet
  facet normal 0.248699 -0.968581 0
    outer loop
      vertex 1.77254 -3.37764 3
      vertex 1.46845 -3.45572 0
      vertex 1.77254 -3.37764 0
    endloop
  endfacet
  facet normal 1 -0 0
    outer loop
      vertex 3.5 -1 3
      vertex 3.5 1 0
      vertex 3.5 1 3
    endloop
  endfacet
  facet normal 1 0 0
    outer loop
      vertex 3.5 1 0
      vertex 3.5 -1 3
      vertex 3.5 -1 0
    endloop
  endfacet
  facet normal 0 1 -0
    outer loop
      vertex 1.15698 3.49507 0
      vertex -1.15698 3.49507 3
      vertex 1.15698 3.49507 3
    endloop
  endfacet
  facet normal 0 1 0
    outer loop
      vertex -1.15698 3.49507 3
      vertex 1.15698 3.49507 0
      vertex -1.15698 3.49507 0
    endloop
  endfacet
  facet normal -0.844321 -0.535838 0
    outer loop
      vertex -3.02254 -2.46946 0
      vertex -3.19077 -2.20438 3
      vertex -3.19077 -2.20438 0
    endloop
  endfacet
  facet normal -0.844321 -0.535838 0
    outer loop
      vertex -3.19077 -2.20438 3
      vertex -3.02254 -2.46946 0
      vertex -3.02254 -2.46946 3
    endloop
  endfacet
  facet normal 0 -1 0
    outer loop
      vertex -1.15698 -3.49507 0
      vertex 1.15698 -3.49507 3
      vertex -1.15698 -3.49507 3
    endloop
  endfacet
  facet normal 0 -1 -0
    outer loop
      vertex 1.15698 -3.49507 3
      vertex -1.15698 -3.49507 0
      vertex 1.15698 -3.49507 0
    endloop
  endfacet
  facet normal -0.481757 -0.876305 0
    outer loop
      vertex -2.33957 -3.11082 0
      vertex -2.06445 -3.26207 3
      vertex -2.33957 -3.11082 3
    endloop
  endfacet
  facet normal -0.481757 -0.876305 -0
    outer loop
      vertex -2.06445 -3.26207 3
      vertex -2.33957 -3.11082 0
      vertex -2.06445 -3.26207 0
    endloop
  endfacet
  facet normal 0.770522 -0.637414 0
    outer loop
      vertex 2.82242 -2.71137 3
      vertex 3.02254 -2.46946 0
      vertex 3.02254 -2.46946 3
    endloop
  endfacet
  facet normal 0.770522 -0.637414 0
    outer loop
      vertex 3.02254 -2.46946 0
      vertex 2.82242 -2.71137 3
      vertex 2.82242 -2.71137 0
    endloop
  endfacet
  facet normal 0.904831 -0.425771 0
    outer loop
      vertex 3.19077 -2.20438 3
      vertex 3.32444 -1.92031 0
      vertex 3.32444 -1.92031 3
    endloop
  endfacet
  facet normal 0.904831 -0.425771 0
    outer loop
      vertex 3.32444 -1.92031 0
      vertex 3.19077 -2.20438 3
      vertex 3.19077 -2.20438 0
    endloop
  endfacet
  facet normal -0.904831 0.425771 0
    outer loop
      vertex -3.32444 1.92031 0
      vertex -3.19077 2.20438 3
      vertex -3.19077 2.20438 0
    endloop
  endfacet
  facet normal -0.904831 0.425771 0
    outer loop
      vertex -3.19077 2.20438 3
      vertex -3.32444 1.92031 0
      vertex -3.32444 1.92031 3
    endloop
  endfacet
  facet normal -0.248699 0.968581 0
    outer loop
      vertex -1.46845 3.45572 0
      vertex -1.77254 3.37764 3
      vertex -1.46845 3.45572 3
    endloop
  endfacet
  facet normal -0.248699 0.968581 0
    outer loop
      vertex -1.77254 3.37764 3
      vertex -1.46845 3.45572 0
      vertex -1.77254 3.37764 0
    endloop
  endfacet
  facet normal -0.684541 0.728975 0
    outer loop
      vertex -2.59356 2.92628 0
      vertex -2.82242 2.71137 3
      vertex -2.59356 2.92628 3
    endloop
  endfacet
  facet normal -0.684541 0.728975 0
    outer loop
      vertex -2.82242 2.71137 3
      vertex -2.59356 2.92628 0
      vertex -2.82242 2.71137 0
    endloop
  endfacet
  facet normal 0.904831 0.425771 0
    outer loop
      vertex 3.32444 1.92031 3
      vertex 3.19077 2.20438 0
      vertex 3.19077 2.20438 3
    endloop
  endfacet
  facet normal 0.904831 0.425771 0
    outer loop
      vertex 3.19077 2.20438 0
      vertex 3.32444 1.92031 3
      vertex 3.32444 1.92031 0
    endloop
  endfacet
  facet normal 0.684541 0.728975 -0
    outer loop
      vertex 2.82242 2.71137 0
      vertex 2.59356 2.92628 3
      vertex 2.82242 2.71137 3
    endloop
  endfacet
  facet normal 0.684541 0.728975 0
    outer loop
      vertex 2.59356 2.92628 3
      vertex 2.82242 2.71137 0
      vertex 2.59356 2.92628 0
    endloop
  endfacet
  facet normal -0.12534 0.992114 0
    outer loop
      vertex -1.15698 3.49507 0
      vertex -1.46845 3.45572 3
      vertex -1.15698 3.49507 3
    endloop
  endfacet
  facet normal -0.12534 0.992114 0
    outer loop
      vertex -1.46845 3.45572 3
      vertex -1.15698 3.49507 0
      vertex -1.46845 3.45572 0
    endloop
  endfacet
  facet normal -0.951054 -0.309023 0
    outer loop
      vertex -3.32444 -1.92031 0
      vertex -3.42146 -1.62172 3
      vertex -3.42146 -1.62172 0
    endloop
  endfacet
  facet normal -0.951054 -0.309023 0
    outer loop
      vertex -3.42146 -1.62172 3
      vertex -3.32444 -1.92031 0
      vertex -3.32444 -1.92031 3
    endloop
  endfacet
  facet normal 0.12534 -0.992114 0
    outer loop
      vertex 1.15698 -3.49507 0
      vertex 1.46845 -3.45572 3
      vertex 1.15698 -3.49507 3
    endloop
  endfacet
  facet normal 0.12534 -0.992114 0
    outer loop
      vertex 1.46845 -3.45572 3
      vertex 1.15698 -3.49507 0
      vertex 1.46845 -3.45572 0
    endloop
  endfacet
  facet normal -0.12534 -0.992114 0
    outer loop
      vertex -1.46845 -3.45572 0
      vertex -1.15698 -3.49507 3
      vertex -1.46845 -3.45572 3
    endloop
  endfacet
  facet normal -0.12534 -0.992114 -0
    outer loop
      vertex -1.15698 -3.49507 3
      vertex -1.46845 -3.45572 0
      vertex -1.15698 -3.49507 0
    endloop
  endfacet
  facet normal -0.684541 -0.728975 0
    outer loop
      vertex -2.82242 -2.71137 0
      vertex -2.59356 -2.92628 3
      vertex -2.82242 -2.71137 3
    endloop
  endfacet
  facet normal -0.684541 -0.728975 -0
    outer loop
      vertex -2.59356 -2.92628 3
      vertex -2.82242 -2.71137 0
      vertex -2.59356 -2.92628 0
    endloop
  endfacet
  facet normal -0.904831 -0.425771 0
    outer loop
      vertex -3.19077 -2.20438 0
      vertex -3.32444 -1.92031 3
      vertex -3.32444 -1.92031 0
    endloop
  endfacet
  facet normal -0.904831 -0.425771 0
    outer loop
      vertex -3.32444 -1.92031 3
      vertex -3.19077 -2.20438 0
      vertex -3.19077 -2.20438 3
    endloop
  endfacet
  facet normal 0 0 -1
    outer loop
      vertex 1.39466 -0.552186 0
      vertex 3.5 -1 0
      vertex 3.48029 -1.31333 0
    endloop
  endfacet
  facet normal 0 0 -1
    outer loop
      vertex 3.5 -1 0
      vertex 1.5 0 0
      vertex 3.5 1 0
    endloop
  endfacet
  facet normal 0 0 -1
    outer loop
      vertex 1.31446 -0.722631 0
      vertex 3.48029 -1.31333 0
      vertex 3.42146 -1.62172 0
    endloop
  endfacet
  facet normal 0 0 -1
    outer loop
      vertex 1.48817 0.188 0
      vertex 3.5 1 0
      vertex 1.5 0 0
    endloop
  endfacet
  facet normal 0 0 -1
    outer loop
      vertex 1.31446 -0.722631 0
      vertex 3.42146 -1.62172 0
      vertex 3.32444 -1.92031 0
    endloop
  endfacet
  facet normal 0 0 -1
    outer loop
      vertex 1.45287 0.373034 0
      vertex 3.5 1 0
      vertex 1.48817 0.188 0
    endloop
  endfacet
  facet normal 0 0 -1
    outer loop
      vertex 1.21352 -0.881678 0
      vertex 3.32444 -1.92031 0
      vertex 3.19077 -2.20438 0
    endloop
  endfacet
  facet normal 0 0 -1
    outer loop
      vertex 1.39466 0.552186 0
      vertex 3.5 1 0
      vertex 1.45287 0.373034 0
    endloop
  endfacet
  facet normal 0 0 -1
    outer loop
      vertex 1.21352 -0.881678 0
      vertex 3.19077 -2.20438 0
      vertex 3.02254 -2.46946 0
    endloop
  endfacet
  facet normal -0 0 -1
    outer loop
      vertex 3.5 1 0
      vertex 1.39466 0.552186 0
      vertex 3.48029 1.31333 0
    endloop
  endfacet
  facet normal 0 0 -1
    outer loop
      vertex 1.09345 -1.02682 0
      vertex 3.02254 -2.46946 0
      vertex 2.82242 -2.71137 0
    endloop
  endfacet
  facet normal 0 0 -1
    outer loop
      vertex 1.31446 0.722631 0
      vertex 3.48029 1.31333 0
      vertex 1.39466 0.552186 0
    endloop
  endfacet
  facet normal 0 0 -1
    outer loop
      vertex 1.09345 -1.02682 0
      vertex 2.82242 -2.71137 0
      vertex 2.59356 -2.92628 0
    endloop
  endfacet
  facet normal -0 0 -1
    outer loop
      vertex 3.48029 1.31333 0
      vertex 1.31446 0.722631 0
      vertex 3.42146 1.62172 0
    endloop
  endfacet
  facet normal 0 0 -1
    outer loop
      vertex 0.956136 -1.15577 0
      vertex 2.59356 -2.92628 0
      vertex 2.33957 -3.11082 0
    endloop
  endfacet
  facet normal -0 0 -1
    outer loop
      vertex 3.42146 1.62172 0
      vertex 1.31446 0.722631 0
      vertex 3.32444 1.92031 0
    endloop
  endfacet
  facet normal 0 0 -1
    outer loop
      vertex 0.956136 -1.15577 0
      vertex 2.33957 -3.11082 0
      vertex 2.06445 -3.26207 0
    endloop
  endfacet
  facet normal 0 0 -1
    outer loop
      vertex 1.21352 0.881678 0
      vertex 3.32444 1.92031 0
      vertex 1.31446 0.722631 0
    endloop
  endfacet
  facet normal 0 0 -1
    outer loop
      vertex 0.80374 -1.26649 0
      vertex 2.06445 -3.26207 0
      vertex 1.77254 -3.37764 0
    endloop
  endfacet
  facet normal -0 0 -1
    outer loop
      vertex 3.32444 1.92031 0
      vertex 1.21352 0.881678 0
      vertex 3.19077 2.20438 0
    endloop
  endfacet
  facet normal -0 0 -1
    outer loop
      vertex 3.19077 2.20438 0
      vertex 1.21352 0.881678 0
      vertex 3.02254 2.46946 0
    endloop
  endfacet
  facet normal 0 0 -1
    outer loop
      vertex 3.5 -1 0
      vertex 1.48817 -0.188 0
      vertex 1.5 0 0
    endloop
  endfacet
  facet normal 0 0 -1
    outer loop
      vertex 0.80374 -1.26649 0
      vertex 1.77254 -3.37764 0
      vertex 1.46845 -3.45572 0
    endloop
  endfacet
  facet normal 0 0 -1
    outer loop
      vertex 3.5 -1 0
      vertex 1.45287 -0.373034 0
      vertex 1.48817 -0.188 0
    endloop
  endfacet
  facet normal 0 0 -1
    outer loop
      vertex 3.5 -1 0
      vertex 1.39466 -0.552186 0
      vertex 1.45287 -0.373034 0
    endloop
  endfacet
  facet normal 0 0 -1
    outer loop
      vertex 3.48029 -1.31333 0
      vertex 1.31446 -0.722631 0
      vertex 1.39466 -0.552186 0
    endloop
  endfacet
  facet normal 0 0 -1
    outer loop
      vertex 3.32444 -1.92031 0
      vertex 1.21352 -0.881678 0
      vertex 1.31446 -0.722631 0
    endloop
  endfacet
  facet normal 0 0 -1
    outer loop
      vertex 0.638668 -1.35724 0
      vertex 1.46845 -3.45572 0
      vertex 1.15698 -3.49507 0
    endloop
  endfacet
  facet normal 0 0 -1
    outer loop
      vertex 3.02254 -2.46946 0
      vertex 1.09345 -1.02682 0
      vertex 1.21352 -0.881678 0
    endloop
  endfacet
  facet normal 0 0 -1
    outer loop
      vertex 2.59356 -2.92628 0
      vertex 0.956136 -1.15577 0
      vertex 1.09345 -1.02682 0
    endloop
  endfacet
  facet normal 0 0 -1
    outer loop
      vertex 2.06445 -3.26207 0
      vertex 0.80374 -1.26649 0
      vertex 0.956136 -1.15577 0
    endloop
  endfacet
  facet normal 0 0 -1
    outer loop
      vertex 1.46845 -3.45572 0
      vertex 0.638668 -1.35724 0
      vertex 0.80374 -1.26649 0
    endloop
  endfacet
  facet normal 0 0 -1
    outer loop
      vertex 1.15698 -3.49507 0
      vertex 0.463525 -1.42658 0
      vertex 0.638668 -1.35724 0
    endloop
  endfacet
  facet normal 0 0 -1
    outer loop
      vertex 1.15698 -3.49507 0
      vertex 0.281072 -1.47343 0
      vertex 0.463525 -1.42658 0
    endloop
  endfacet
  facet normal 0 0 -1
    outer loop
      vertex 1.15698 -3.49507 0
      vertex 0.0941849 -1.49704 0
      vertex 0.281072 -1.47343 0
    endloop
  endfacet
  facet normal 0 0 -1
    outer loop
      vertex 1.15698 -3.49507 0
      vertex -0.0941849 -1.49704 0
      vertex 0.0941849 -1.49704 0
    endloop
  endfacet
  facet normal 0 0 -1
    outer loop
      vertex -1.15698 -3.49507 0
      vertex -0.0941849 -1.49704 0
      vertex 1.15698 -3.49507 0
    endloop
  endfacet
  facet normal -0 0 -1
    outer loop
      vertex -0.0941849 -1.49704 0
      vertex -1.15698 -3.49507 0
      vertex -0.281072 -1.47343 0
    endloop
  endfacet
  facet normal -0 0 -1
    outer loop
      vertex -0.281072 -1.47343 0
      vertex -1.15698 -3.49507 0
      vertex -0.463525 -1.42658 0
    endloop
  endfacet
  facet normal -0 0 -1
    outer loop
      vertex -0.463525 -1.42658 0
      vertex -1.15698 -3.49507 0
      vertex -0.638668 -1.35724 0
    endloop
  endfacet
  facet normal 0 0 -1
    outer loop
      vertex -1.46845 -3.45572 0
      vertex -0.638668 -1.35724 0
      vertex -1.15698 -3.49507 0
    endloop
  endfacet
  facet normal -0 0 -1
    outer loop
      vertex -0.638668 -1.35724 0
      vertex -1.46845 -3.45572 0
      vertex -0.80374 -1.26649 0
    endloop
  endfacet
  facet normal 0 0 -1
    outer loop
      vertex -1.77254 -3.37764 0
      vertex -0.80374 -1.26649 0
      vertex -1.46845 -3.45572 0
    endloop
  endfacet
  facet normal 0 0 -1
    outer loop
      vertex -2.06445 -3.26207 0
      vertex -0.80374 -1.26649 0
      vertex -1.77254 -3.37764 0
    endloop
  endfacet
  facet normal -0 0 -1
    outer loop
      vertex -0.80374 -1.26649 0
      vertex -2.06445 -3.26207 0
      vertex -0.956136 -1.15577 0
    endloop
  endfacet
  facet normal 0 0 -1
    outer loop
      vertex -2.33957 -3.11082 0
      vertex -0.956136 -1.15577 0
      vertex -2.06445 -3.26207 0
    endloop
  endfacet
  facet normal 0 0 -1
    outer loop
      vertex -2.59356 -2.92628 0
      vertex -0.956136 -1.15577 0
      vertex -2.33957 -3.11082 0
    endloop
  endfacet
  facet normal -0 0 -1
    outer loop
      vertex -0.956136 -1.15577 0
      vertex -2.59356 -2.92628 0
      vertex -1.09345 -1.02682 0
    endloop
  endfacet
  facet normal 0 0 -1
    outer loop
      vertex -2.82242 -2.71137 0
      vertex -1.09345 -1.02682 0
      vertex -2.59356 -2.92628 0
    endloop
  endfacet
  facet normal 0 0 -1
    outer loop
      vertex -3.02254 -2.46946 0
      vertex -1.09345 -1.02682 0
      vertex -2.82242 -2.71137 0
    endloop
  endfacet
  facet normal -0 0 -1
    outer loop
      vertex -1.09345 -1.02682 0
      vertex -3.02254 -2.46946 0
      vertex -1.21352 -0.881678 0
    endloop
  endfacet
  facet normal 0 0 -1
    outer loop
      vertex 1.09345 1.02682 0
      vertex 3.02254 2.46946 0
      vertex 1.21352 0.881678 0
    endloop
  endfacet
  facet normal -0 0 -1
    outer loop
      vertex 3.02254 2.46946 0
      vertex 1.09345 1.02682 0
      vertex 2.82242 2.71137 0
    endloop
  endfacet
  facet normal -0 0 -1
    outer loop
      vertex 2.82242 2.71137 0
      vertex 1.09345 1.02682 0
      vertex 2.59356 2.92628 0
    endloop
  endfacet
  facet normal 0 0 -1
    outer loop
      vertex 0.956136 1.15577 0
      vertex 2.59356 2.92628 0
      vertex 1.09345 1.02682 0
    endloop
  endfacet
  facet normal -0 0 -1
    outer loop
      vertex 2.59356 2.92628 0
      vertex 0.956136 1.15577 0
      vertex 2.33957 3.11082 0
    endloop
  endfacet
  facet normal -0 0 -1
    outer loop
      vertex 2.33957 3.11082 0
      vertex 0.956136 1.15577 0
      vertex 2.06445 3.26207 0
    endloop
  endfacet
  facet normal 0 0 -1
    outer loop
      vertex 0.80374 1.26649 0
      vertex 2.06445 3.26207 0
      vertex 0.956136 1.15577 0
    endloop
  endfacet
  facet normal -0 0 -1
    outer loop
      vertex 2.06445 3.26207 0
      vertex 0.80374 1.26649 0
      vertex 1.77254 3.37764 0
    endloop
  endfacet
  facet normal -0 0 -1
    outer loop
      vertex 1.77254 3.37764 0
      vertex 0.80374 1.26649 0
      vertex 1.46845 3.45572 0
    endloop
  endfacet
  facet normal 0 0 -1
    outer loop
      vertex 0.638668 1.35724 0
      vertex 1.46845 3.45572 0
      vertex 0.80374 1.26649 0
    endloop
  endfacet
  facet normal -0 0 -1
    outer loop
      vertex 1.46845 3.45572 0
      vertex 0.638668 1.35724 0
      vertex 1.15698 3.49507 0
    endloop
  endfacet
  facet normal 0 0 -1
    outer loop
      vertex 0.463525 1.42658 0
      vertex 1.15698 3.49507 0
      vertex 0.638668 1.35724 0
    endloop
  endfacet
  facet normal 0 0 -1
    outer loop
      vertex 0.281072 1.47343 0
      vertex 1.15698 3.49507 0
      vertex 0.463525 1.42658 0
    endloop
  endfacet
  facet normal 0 0 -1
    outer loop
      vertex 0.0941849 1.49704 0
      vertex 1.15698 3.49507 0
      vertex 0.281072 1.47343 0
    endloop
  endfacet
  facet normal 0 0 -1
    outer loop
      vertex -0.0941849 1.49704 0
      vertex 1.15698 3.49507 0
      vertex 0.0941849 1.49704 0
    endloop
  endfacet
  facet normal 0 0 -1
    outer loop
      vertex -1.15698 3.49507 0
      vertex -0.0941849 1.49704 0
      vertex -0.281072 1.47343 0
    endloop
  endfacet
  facet normal 0 0 -1
    outer loop
      vertex -1.15698 3.49507 0
      vertex -0.281072 1.47343 0
      vertex -0.463525 1.42658 0
    endloop
  endfacet
  facet normal 0 0 -1
    outer loop
      vertex -1.15698 3.49507 0
      vertex -0.463525 1.42658 0
      vertex -0.638668 1.35724 0
    endloop
  endfacet
  facet normal 0 0 -1
    outer loop
      vertex -1.46845 3.45572 0
      vertex -0.638668 1.35724 0
      vertex -0.80374 1.26649 0
    endloop
  endfacet
  facet normal 0 0 -1
    outer loop
      vertex -2.06445 3.26207 0
      vertex -0.80374 1.26649 0
      vertex -0.956136 1.15577 0
    endloop
  endfacet
  facet normal 0 0 -1
    outer loop
      vertex -2.59356 2.92628 0
      vertex -0.956136 1.15577 0
      vertex -1.09345 1.02682 0
    endloop
  endfacet
  facet normal 0 0 -1
    outer loop
      vertex -0.0941849 1.49704 0
      vertex -1.15698 3.49507 0
      vertex 1.15698 3.49507 0
    endloop
  endfacet
  facet normal 0 0 -1
    outer loop
      vertex -3.02254 2.46946 0
      vertex -1.09345 1.02682 0
      vertex -1.21352 0.881678 0
    endloop
  endfacet
  facet normal 0 0 -1
    outer loop
      vertex -3.32444 1.92031 0
      vertex -1.21352 0.881678 0
      vertex -1.31446 0.722631 0
    endloop
  endfacet
  facet normal 0 0 -1
    outer loop
      vertex -3.48029 1.31333 0
      vertex -1.31446 0.722631 0
      vertex -1.39466 0.552186 0
    endloop
  endfacet
  facet normal 0 0 -1
    outer loop
      vertex -3.5 1 0
      vertex -1.39466 0.552186 0
      vertex -1.45287 0.373034 0
    endloop
  endfacet
  facet normal 0 0 -1
    outer loop
      vertex -0.638668 1.35724 0
      vertex -1.46845 3.45572 0
      vertex -1.15698 3.49507 0
    endloop
  endfacet
  facet normal 0 0 -1
    outer loop
      vertex -3.5 1 0
      vertex -1.45287 0.373034 0
      vertex -1.48817 0.188 0
    endloop
  endfacet
  facet normal 0 0 -1
    outer loop
      vertex -3.5 1 0
      vertex -1.48817 0.188 0
      vertex -1.5 0 0
    endloop
  endfacet
  facet normal 0 0 -1
    outer loop
      vertex -3.19077 -2.20438 0
      vertex -1.21352 -0.881678 0
      vertex -3.02254 -2.46946 0
    endloop
  endfacet
  facet normal 0 0 -1
    outer loop
      vertex -3.5 1 0
      vertex -1.5 0 0
      vertex -3.5 -1 0
    endloop
  endfacet
  facet normal 0 0 -1
    outer loop
      vertex -3.32444 -1.92031 0
      vertex -1.21352 -0.881678 0
      vertex -3.19077 -2.20438 0
    endloop
  endfacet
  facet normal 0 0 -1
    outer loop
      vertex -1.39466 0.552186 0
      vertex -3.5 1 0
      vertex -3.48029 1.31333 0
    endloop
  endfacet
  facet normal -0 0 -1
    outer loop
      vertex -1.21352 -0.881678 0
      vertex -3.32444 -1.92031 0
      vertex -1.31446 -0.722631 0
    endloop
  endfacet
  facet normal 0 0 -1
    outer loop
      vertex -0.80374 1.26649 0
      vertex -1.77254 3.37764 0
      vertex -1.46845 3.45572 0
    endloop
  endfacet
  facet normal 0 0 -1
    outer loop
      vertex -3.42146 -1.62172 0
      vertex -1.31446 -0.722631 0
      vertex -3.32444 -1.92031 0
    endloop
  endfacet
  facet normal 0 0 -1
    outer loop
      vertex -0.80374 1.26649 0
      vertex -2.06445 3.26207 0
      vertex -1.77254 3.37764 0
    endloop
  endfacet
  facet normal 0 0 -1
    outer loop
      vertex -3.48029 -1.31333 0
      vertex -1.31446 -0.722631 0
      vertex -3.42146 -1.62172 0
    endloop
  endfacet
  facet normal 0 0 -1
    outer loop
      vertex -0.956136 1.15577 0
      vertex -2.33957 3.11082 0
      vertex -2.06445 3.26207 0
    endloop
  endfacet
  facet normal -0 0 -1
    outer loop
      vertex -1.31446 -0.722631 0
      vertex -3.48029 -1.31333 0
      vertex -1.39466 -0.552186 0
    endloop
  endfacet
  facet normal 0 0 -1
    outer loop
      vertex -0.956136 1.15577 0
      vertex -2.59356 2.92628 0
      vertex -2.33957 3.11082 0
    endloop
  endfacet
  facet normal 0 0 -1
    outer loop
      vertex -3.5 -1 0
      vertex -1.39466 -0.552186 0
      vertex -3.48029 -1.31333 0
    endloop
  endfacet
  facet normal 0 0 -1
    outer loop
      vertex -1.09345 1.02682 0
      vertex -2.82242 2.71137 0
      vertex -2.59356 2.92628 0
    endloop
  endfacet
  facet normal -0 0 -1
    outer loop
      vertex -1.39466 -0.552186 0
      vertex -3.5 -1 0
      vertex -1.45287 -0.373034 0
    endloop
  endfacet
  facet normal 0 0 -1
    outer loop
      vertex -1.09345 1.02682 0
      vertex -3.02254 2.46946 0
      vertex -2.82242 2.71137 0
    endloop
  endfacet
  facet normal -0 0 -1
    outer loop
      vertex -1.45287 -0.373034 0
      vertex -3.5 -1 0
      vertex -1.48817 -0.188 0
    endloop
  endfacet
  facet normal 0 0 -1
    outer loop
      vertex -1.21352 0.881678 0
      vertex -3.19077 2.20438 0
      vertex -3.02254 2.46946 0
    endloop
  endfacet
  facet normal -0 0 -1
    outer loop
      vertex -1.48817 -0.188 0
      vertex -3.5 -1 0
      vertex -1.5 0 0
    endloop
  endfacet
  facet normal 0 0 -1
    outer loop
      vertex -1.21352 0.881678 0
      vertex -3.32444 1.92031 0
      vertex -3.19077 2.20438 0
    endloop
  endfacet
  facet normal 0 0 -1
    outer loop
      vertex -1.31446 0.722631 0
      vertex -3.42146 1.62172 0
      vertex -3.32444 1.92031 0
    endloop
  endfacet
  facet normal 0 0 -1
    outer loop
      vertex -1.31446 0.722631 0
      vertex -3.48029 1.31333 0
      vertex -3.42146 1.62172 0
    endloop
  endfacet
  facet normal 0.587797 -0.809009 0
    outer loop
      vertex 2.33957 -3.11082 0
      vertex 2.59356 -2.92628 3
      vertex 2.33957 -3.11082 3
    endloop
  endfacet
  facet normal 0.587797 -0.809009 0
    outer loop
      vertex 2.59356 -2.92628 3
      vertex 2.33957 -3.11082 0
      vertex 2.59356 -2.92628 0
    endloop
  endfacet
  facet normal 0.684541 -0.728975 0
    outer loop
      vertex 2.59356 -2.92628 0
      vertex 2.82242 -2.71137 3
      vertex 2.59356 -2.92628 3
    endloop
  endfacet
  facet normal 0.684541 -0.728975 0
    outer loop
      vertex 2.82242 -2.71137 3
      vertex 2.59356 -2.92628 0
      vertex 2.82242 -2.71137 0
    endloop
  endfacet
  facet normal 0.998027 -0.0627808 0
    outer loop
      vertex 3.48029 -1.31333 3
      vertex 3.5 -1 0
      vertex 3.5 -1 3
    endloop
  endfacet
  facet normal 0.998027 -0.0627808 0
    outer loop
      vertex 3.5 -1 0
      vertex 3.48029 -1.31333 3
      vertex 3.48029 -1.31333 0
    endloop
  endfacet
  facet normal -0.982286 0.187386 0
    outer loop
      vertex -3.48029 1.31333 0
      vertex -3.42146 1.62172 3
      vertex -3.42146 1.62172 0
    endloop
  endfacet
  facet normal -0.982286 0.187386 0
    outer loop
      vertex -3.42146 1.62172 3
      vertex -3.48029 1.31333 0
      vertex -3.48029 1.31333 3
    endloop
  endfacet
  facet normal -0.951054 0.309023 0
    outer loop
      vertex -3.42146 1.62172 0
      vertex -3.32444 1.92031 3
      vertex -3.32444 1.92031 0
    endloop
  endfacet
  facet normal -0.951054 0.309023 0
    outer loop
      vertex -3.32444 1.92031 3
      vertex -3.42146 1.62172 0
      vertex -3.42146 1.62172 3
    endloop
  endfacet
  facet normal -0.844321 0.535838 0
    outer loop
      vertex -3.19077 2.20438 0
      vertex -3.02254 2.46946 3
      vertex -3.02254 2.46946 0
    endloop
  endfacet
  facet normal -0.844321 0.535838 0
    outer loop
      vertex -3.02254 2.46946 3
      vertex -3.19077 2.20438 0
      vertex -3.19077 2.20438 3
    endloop
  endfacet
  facet normal -0.770522 0.637414 0
    outer loop
      vertex -3.02254 2.46946 0
      vertex -2.82242 2.71137 3
      vertex -2.82242 2.71137 0
    endloop
  endfacet
  facet normal -0.770522 0.637414 0
    outer loop
      vertex -2.82242 2.71137 3
      vertex -3.02254 2.46946 0
      vertex -3.02254 2.46946 3
    endloop
  endfacet
  facet normal -0.36811 0.929782 0
    outer loop
      vertex -1.77254 3.37764 0
      vertex -2.06445 3.26207 3
      vertex -1.77254 3.37764 3
    endloop
  endfacet
  facet normal -0.36811 0.929782 0
    outer loop
      vertex -2.06445 3.26207 3
      vertex -1.77254 3.37764 0
      vertex -2.06445 3.26207 0
    endloop
  endfacet
  facet normal 0.951054 0.309023 0
    outer loop
      vertex 3.42146 1.62172 3
      vertex 3.32444 1.92031 0
      vertex 3.32444 1.92031 3
    endloop
  endfacet
  facet normal 0.951054 0.309023 0
    outer loop
      vertex 3.32444 1.92031 0
      vertex 3.42146 1.62172 3
      vertex 3.42146 1.62172 0
    endloop
  endfacet
  facet normal -0.248699 -0.968581 0
    outer loop
      vertex -1.77254 -3.37764 0
      vertex -1.46845 -3.45572 3
      vertex -1.77254 -3.37764 3
    endloop
  endfacet
  facet normal -0.248699 -0.968581 -0
    outer loop
      vertex -1.46845 -3.45572 3
      vertex -1.77254 -3.37764 0
      vertex -1.46845 -3.45572 0
    endloop
  endfacet
  facet normal -0.587797 -0.809009 0
    outer loop
      vertex -2.59356 -2.92628 0
      vertex -2.33957 -3.11082 3
      vertex -2.59356 -2.92628 3
    endloop
  endfacet
  facet normal -0.587797 -0.809009 -0
    outer loop
      vertex -2.33957 -3.11082 3
      vertex -2.59356 -2.92628 0
      vertex -2.33957 -3.11082 0
    endloop
  endfacet
  facet normal -0.770522 -0.637414 0
    outer loop
      vertex -2.82242 -2.71137 0
      vertex -3.02254 -2.46946 3
      vertex -3.02254 -2.46946 0
    endloop
  endfacet
  facet normal -0.770522 -0.637414 0
    outer loop
      vertex -3.02254 -2.46946 3
      vertex -2.82242 -2.71137 0
      vertex -2.82242 -2.71137 3
    endloop
  endfacet
  facet normal -0.982286 -0.187386 0
    outer loop
      vertex -3.42146 -1.62172 0
      vertex -3.48029 -1.31333 3
      vertex -3.48029 -1.31333 0
    endloop
  endfacet
  facet normal -0.982286 -0.187386 0
    outer loop
      vertex -3.48029 -1.31333 3
      vertex -3.42146 -1.62172 0
      vertex -3.42146 -1.62172 3
    endloop
  endfacet
  facet normal 0.844321 -0.535838 0
    outer loop
      vertex 3.02254 -2.46946 3
      vertex 3.19077 -2.20438 0
      vertex 3.19077 -2.20438 3
    endloop
  endfacet
  facet normal 0.844321 -0.535838 0
    outer loop
      vertex 3.19077 -2.20438 0
      vertex 3.02254 -2.46946 3
      vertex 3.02254 -2.46946 0
    endloop
  endfacet
  facet normal 0.481757 -0.876305 0
    outer loop
      vertex 2.06445 -3.26207 0
      vertex 2.33957 -3.11082 3
      vertex 2.06445 -3.26207 3
    endloop
  endfacet
  facet normal 0.481757 -0.876305 0
    outer loop
      vertex 2.33957 -3.11082 3
      vertex 2.06445 -3.26207 0
      vertex 2.33957 -3.11082 0
    endloop
  endfacet
  facet normal 0.982286 -0.187386 0
    outer loop
      vertex 3.42146 -1.62172 3
      vertex 3.48029 -1.31333 0
      vertex 3.48029 -1.31333 3
    endloop
  endfacet
  facet normal 0.982286 -0.187386 0
    outer loop
      vertex 3.48029 -1.31333 0
      vertex 3.42146 -1.62172 3
      vertex 3.42146 -1.62172 0
    endloop
  endfacet
  facet normal -0.587797 0.809009 0
    outer loop
      vertex -2.33957 3.11082 0
      vertex -2.59356 2.92628 3
      vertex -2.33957 3.11082 3
    endloop
  endfacet
  facet normal -0.587797 0.809009 0
    outer loop
      vertex -2.59356 2.92628 3
      vertex -2.33957 3.11082 0
      vertex -2.59356 2.92628 0
    endloop
  endfacet
  facet normal -0.481757 0.876305 0
    outer loop
      vertex -2.06445 3.26207 0
      vertex -2.33957 3.11082 3
      vertex -2.06445 3.26207 3
    endloop
  endfacet
  facet normal -0.481757 0.876305 0
    outer loop
      vertex -2.33957 3.11082 3
      vertex -2.06445 3.26207 0
      vertex -2.33957 3.11082 0
    endloop
  endfacet
  facet normal 0.982286 0.187386 0
    outer loop
      vertex 3.48029 1.31333 3
      vertex 3.42146 1.62172 0
      vertex 3.42146 1.62172 3
    endloop
  endfacet
  facet normal 0.982286 0.187386 0
    outer loop
      vertex 3.42146 1.62172 0
      vertex 3.48029 1.31333 3
      vertex 3.48029 1.31333 0
    endloop
  endfacet
  facet normal 0.998027 0.0627808 0
    outer loop
      vertex 3.5 1 3
      vertex 3.48029 1.31333 0
      vertex 3.48029 1.31333 3
    endloop
  endfacet
  facet normal 0.998027 0.0627808 0
    outer loop
      vertex 3.48029 1.31333 0
      vertex 3.5 1 3
      vertex 3.5 1 0
    endloop
  endfacet
  facet normal 0.12534 0.992114 -0
    outer loop
      vertex 1.46845 3.45572 0
      vertex 1.15698 3.49507 3
      vertex 1.46845 3.45572 3
    endloop
  endfacet
  facet normal 0.12534 0.992114 0
    outer loop
      vertex 1.15698 3.49507 3
      vertex 1.46845 3.45572 0
      vertex 1.15698 3.49507 0
    endloop
  endfacet
  facet normal 0.248699 0.968581 -0
    outer loop
      vertex 1.77254 3.37764 0
      vertex 1.46845 3.45572 3
      vertex 1.77254 3.37764 3
    endloop
  endfacet
  facet normal 0.248699 0.968581 0
    outer loop
      vertex 1.46845 3.45572 3
      vertex 1.77254 3.37764 0
      vertex 1.46845 3.45572 0
    endloop
  endfacet
  facet normal 0.36811 0.929782 -0
    outer loop
      vertex 2.06445 3.26207 0
      vertex 1.77254 3.37764 3
      vertex 2.06445 3.26207 3
    endloop
  endfacet
  facet normal 0.36811 0.929782 0
    outer loop
      vertex 1.77254 3.37764 3
      vertex 2.06445 3.26207 0
      vertex 1.77254 3.37764 0
    endloop
  endfacet
  facet normal 0.587797 0.809009 -0
    outer loop
      vertex 2.59356 2.92628 0
      vertex 2.33957 3.11082 3
      vertex 2.59356 2.92628 3
    endloop
  endfacet
  facet normal 0.587797 0.809009 0
    outer loop
      vertex 2.33957 3.11082 3
      vertex 2.59356 2.92628 0
      vertex 2.33957 3.11082 0
    endloop
  endfacet
  facet normal 0.481757 0.876305 -0
    outer loop
      vertex 2.33957 3.11082 0
      vertex 2.06445 3.26207 3
      vertex 2.33957 3.11082 3
    endloop
  endfacet
  facet normal 0.481757 0.876305 0
    outer loop
      vertex 2.06445 3.26207 3
      vertex 2.33957 3.11082 0
      vertex 2.06445 3.26207 0
    endloop
  endfacet
  facet normal 0.770522 0.637414 0
    outer loop
      vertex 3.02254 2.46946 3
      vertex 2.82242 2.71137 0
      vertex 2.82242 2.71137 3
    endloop
  endfacet
  facet normal 0.770522 0.637414 0
    outer loop
      vertex 2.82242 2.71137 0
      vertex 3.02254 2.46946 3
      vertex 3.02254 2.46946 0
    endloop
  endfacet
  facet normal 0.844321 0.535838 0
    outer loop
      vertex 3.19077 2.20438 3
      vertex 3.02254 2.46946 0
      vertex 3.02254 2.46946 3
    endloop
  endfacet
  facet normal 0.844321 0.535838 0
    outer loop
      vertex 3.02254 2.46946 0
      vertex 3.19077 2.20438 3
      vertex 3.19077 2.20438 0
    endloop
  endfacet
  facet normal -0.998026 -0.0628013 0
    outer loop
      vertex 1.5 0 0
      vertex 1.48817 0.188 3
      vertex 1.48817 0.188 0
    endloop
  endfacet
  facet normal -0.998026 -0.0628013 0
    outer loop
      vertex 1.48817 0.188 3
      vertex 1.5 0 0
      vertex 1.5 0 3
    endloop
  endfacet
  facet normal 0.998026 -0.0628013 0
    outer loop
      vertex -1.5 0 3
      vertex -1.48817 0.188 0
      vertex -1.48817 0.188 3
    endloop
  endfacet
  facet normal 0.998026 -0.0628013 0
    outer loop
      vertex -1.48817 0.188 0
      vertex -1.5 0 3
      vertex -1.5 0 0
    endloop
  endfacet
  facet normal 0 -1 0
    outer loop
      vertex -0.0941849 1.49704 0
      vertex 0.0941849 1.49704 3
      vertex -0.0941849 1.49704 3
    endloop
  endfacet
  facet normal 0 -1 -0
    outer loop
      vertex 0.0941849 1.49704 3
      vertex -0.0941849 1.49704 0
      vertex 0.0941849 1.49704 0
    endloop
  endfacet
  facet normal 0 1 -0
    outer loop
      vertex 0.0941849 -1.49704 0
      vertex -0.0941849 -1.49704 3
      vertex 0.0941849 -1.49704 3
    endloop
  endfacet
  facet normal 0 1 0
    outer loop
      vertex -0.0941849 -1.49704 3
      vertex 0.0941849 -1.49704 0
      vertex -0.0941849 -1.49704 0
    endloop
  endfacet
  facet normal -0.684557 -0.728959 0
    outer loop
      vertex 0.956136 1.15577 0
      vertex 1.09345 1.02682 3
      vertex 0.956136 1.15577 3
    endloop
  endfacet
  facet normal -0.684557 -0.728959 -0
    outer loop
      vertex 1.09345 1.02682 3
      vertex 0.956136 1.15577 0
      vertex 1.09345 1.02682 0
    endloop
  endfacet
  facet normal 0.684557 -0.728959 0
    outer loop
      vertex -1.09345 1.02682 0
      vertex -0.956136 1.15577 3
      vertex -1.09345 1.02682 3
    endloop
  endfacet
  facet normal 0.684557 -0.728959 0
    outer loop
      vertex -0.956136 1.15577 3
      vertex -1.09345 1.02682 0
      vertex -0.956136 1.15577 0
    endloop
  endfacet
  facet normal 0.368106 -0.929784 0
    outer loop
      vertex -0.638668 1.35724 0
      vertex -0.463525 1.42658 3
      vertex -0.638668 1.35724 3
    endloop
  endfacet
  facet normal 0.368106 -0.929784 0
    outer loop
      vertex -0.463525 1.42658 3
      vertex -0.638668 1.35724 0
      vertex -0.463525 1.42658 0
    endloop
  endfacet
  facet normal -0.904838 -0.425756 0
    outer loop
      vertex 1.39466 0.552186 0
      vertex 1.31446 0.722631 3
      vertex 1.31446 0.722631 0
    endloop
  endfacet
  facet normal -0.904838 -0.425756 0
    outer loop
      vertex 1.31446 0.722631 3
      vertex 1.39466 0.552186 0
      vertex 1.39466 0.552186 3
    endloop
  endfacet
  facet normal -0.982284 -0.187396 0
    outer loop
      vertex 1.48817 0.188 0
      vertex 1.45287 0.373034 3
      vertex 1.45287 0.373034 0
    endloop
  endfacet
  facet normal -0.982284 -0.187396 0
    outer loop
      vertex 1.45287 0.373034 3
      vertex 1.48817 0.188 0
      vertex 1.48817 0.188 3
    endloop
  endfacet
  facet normal -0.368106 -0.929784 0
    outer loop
      vertex 0.463525 1.42658 0
      vertex 0.638668 1.35724 3
      vertex 0.463525 1.42658 3
    endloop
  endfacet
  facet normal -0.368106 -0.929784 -0
    outer loop
      vertex 0.638668 1.35724 3
      vertex 0.463525 1.42658 0
      vertex 0.638668 1.35724 0
    endloop
  endfacet
  facet normal -0.24871 -0.968578 0
    outer loop
      vertex 0.281072 1.47343 0
      vertex 0.463525 1.42658 3
      vertex 0.281072 1.47343 3
    endloop
  endfacet
  facet normal -0.24871 -0.968578 -0
    outer loop
      vertex 0.463525 1.42658 3
      vertex 0.281072 1.47343 0
      vertex 0.463525 1.42658 0
    endloop
  endfacet
  facet normal -0.481757 -0.876305 0
    outer loop
      vertex 0.638668 1.35724 0
      vertex 0.80374 1.26649 3
      vertex 0.638668 1.35724 3
    endloop
  endfacet
  facet normal -0.481757 -0.876305 -0
    outer loop
      vertex 0.80374 1.26649 3
      vertex 0.638668 1.35724 0
      vertex 0.80374 1.26649 0
    endloop
  endfacet
  facet normal 0.904838 -0.425756 0
    outer loop
      vertex -1.39466 0.552186 3
      vertex -1.31446 0.722631 0
      vertex -1.31446 0.722631 3
    endloop
  endfacet
  facet normal 0.904838 -0.425756 0
    outer loop
      vertex -1.31446 0.722631 0
      vertex -1.39466 0.552186 3
      vertex -1.39466 0.552186 0
    endloop
  endfacet
  facet normal 0.844314 -0.535848 0
    outer loop
      vertex -1.31446 0.722631 3
      vertex -1.21352 0.881678 0
      vertex -1.21352 0.881678 3
    endloop
  endfacet
  facet normal 0.844314 -0.535848 0
    outer loop
      vertex -1.21352 0.881678 0
      vertex -1.31446 0.722631 3
      vertex -1.31446 0.722631 0
    endloop
  endfacet
  facet normal 0.951057 -0.309017 0
    outer loop
      vertex -1.45287 0.373034 3
      vertex -1.39466 0.552186 0
      vertex -1.39466 0.552186 3
    endloop
  endfacet
  facet normal 0.951057 -0.309017 0
    outer loop
      vertex -1.39466 0.552186 0
      vertex -1.45287 0.373034 3
      vertex -1.45287 0.373034 0
    endloop
  endfacet
  facet normal 0.587778 -0.809022 0
    outer loop
      vertex -0.956136 1.15577 0
      vertex -0.80374 1.26649 3
      vertex -0.956136 1.15577 3
    endloop
  endfacet
  facet normal 0.587778 -0.809022 0
    outer loop
      vertex -0.80374 1.26649 3
      vertex -0.956136 1.15577 0
      vertex -0.80374 1.26649 0
    endloop
  endfacet
  facet normal 0.125337 -0.992114 0
    outer loop
      vertex -0.281072 1.47343 0
      vertex -0.0941849 1.49704 3
      vertex -0.281072 1.47343 3
    endloop
  endfacet
  facet normal 0.125337 -0.992114 0
    outer loop
      vertex -0.0941849 1.49704 3
      vertex -0.281072 1.47343 0
      vertex -0.0941849 1.49704 0
    endloop
  endfacet
  facet normal -0.951057 0.309017 0
    outer loop
      vertex 1.39466 -0.552186 0
      vertex 1.45287 -0.373034 3
      vertex 1.45287 -0.373034 0
    endloop
  endfacet
  facet normal -0.951057 0.309017 0
    outer loop
      vertex 1.45287 -0.373034 3
      vertex 1.39466 -0.552186 0
      vertex 1.39466 -0.552186 3
    endloop
  endfacet
  facet normal -0.125337 0.992114 0
    outer loop
      vertex 0.281072 -1.47343 0
      vertex 0.0941849 -1.49704 3
      vertex 0.281072 -1.47343 3
    endloop
  endfacet
  facet normal -0.125337 0.992114 0
    outer loop
      vertex 0.0941849 -1.49704 3
      vertex 0.281072 -1.47343 0
      vertex 0.0941849 -1.49704 0
    endloop
  endfacet
  facet normal -0.951057 -0.309017 0
    outer loop
      vertex 1.45287 0.373034 0
      vertex 1.39466 0.552186 3
      vertex 1.39466 0.552186 0
    endloop
  endfacet
  facet normal -0.951057 -0.309017 0
    outer loop
      vertex 1.39466 0.552186 3
      vertex 1.45287 0.373034 0
      vertex 1.45287 0.373034 3
    endloop
  endfacet
  facet normal -0.770518 -0.637418 0
    outer loop
      vertex 1.21352 0.881678 0
      vertex 1.09345 1.02682 3
      vertex 1.09345 1.02682 0
    endloop
  endfacet
  facet normal -0.770518 -0.637418 0
    outer loop
      vertex 1.09345 1.02682 3
      vertex 1.21352 0.881678 0
      vertex 1.21352 0.881678 3
    endloop
  endfacet
  facet normal -0.844314 -0.535848 0
    outer loop
      vertex 1.31446 0.722631 0
      vertex 1.21352 0.881678 3
      vertex 1.21352 0.881678 0
    endloop
  endfacet
  facet normal -0.844314 -0.535848 0
    outer loop
      vertex 1.21352 0.881678 3
      vertex 1.31446 0.722631 0
      vertex 1.31446 0.722631 3
    endloop
  endfacet
  facet normal -0.125337 -0.992114 0
    outer loop
      vertex 0.0941849 1.49704 0
      vertex 0.281072 1.47343 3
      vertex 0.0941849 1.49704 3
    endloop
  endfacet
  facet normal -0.125337 -0.992114 -0
    outer loop
      vertex 0.281072 1.47343 3
      vertex 0.0941849 1.49704 0
      vertex 0.281072 1.47343 0
    endloop
  endfacet
  facet normal -0.587778 -0.809022 0
    outer loop
      vertex 0.80374 1.26649 0
      vertex 0.956136 1.15577 3
      vertex 0.80374 1.26649 3
    endloop
  endfacet
  facet normal -0.587778 -0.809022 -0
    outer loop
      vertex 0.956136 1.15577 3
      vertex 0.80374 1.26649 0
      vertex 0.956136 1.15577 0
    endloop
  endfacet
  facet normal 0.982284 -0.187396 0
    outer loop
      vertex -1.48817 0.188 3
      vertex -1.45287 0.373034 0
      vertex -1.45287 0.373034 3
    endloop
  endfacet
  facet normal 0.982284 -0.187396 0
    outer loop
      vertex -1.45287 0.373034 0
      vertex -1.48817 0.188 3
      vertex -1.48817 0.188 0
    endloop
  endfacet
  facet normal 0.481757 -0.876305 0
    outer loop
      vertex -0.80374 1.26649 0
      vertex -0.638668 1.35724 3
      vertex -0.80374 1.26649 3
    endloop
  endfacet
  facet normal 0.481757 -0.876305 0
    outer loop
      vertex -0.638668 1.35724 3
      vertex -0.80374 1.26649 0
      vertex -0.638668 1.35724 0
    endloop
  endfacet
  facet normal -0.684557 0.728959 0
    outer loop
      vertex 1.09345 -1.02682 0
      vertex 0.956136 -1.15577 3
      vertex 1.09345 -1.02682 3
    endloop
  endfacet
  facet normal -0.684557 0.728959 0
    outer loop
      vertex 0.956136 -1.15577 3
      vertex 1.09345 -1.02682 0
      vertex 0.956136 -1.15577 0
    endloop
  endfacet
  facet normal -0.982284 0.187396 0
    outer loop
      vertex 1.45287 -0.373034 0
      vertex 1.48817 -0.188 3
      vertex 1.48817 -0.188 0
    endloop
  endfacet
  facet normal -0.982284 0.187396 0
    outer loop
      vertex 1.48817 -0.188 3
      vertex 1.45287 -0.373034 0
      vertex 1.45287 -0.373034 3
    endloop
  endfacet
  facet normal 0.904838 0.425756 0
    outer loop
      vertex -1.31446 -0.722631 3
      vertex -1.39466 -0.552186 0
      vertex -1.39466 -0.552186 3
    endloop
  endfacet
  facet normal 0.904838 0.425756 0
    outer loop
      vertex -1.39466 -0.552186 0
      vertex -1.31446 -0.722631 3
      vertex -1.31446 -0.722631 0
    endloop
  endfacet
  facet normal -0.368106 0.929784 0
    outer loop
      vertex 0.638668 -1.35724 0
      vertex 0.463525 -1.42658 3
      vertex 0.638668 -1.35724 3
    endloop
  endfacet
  facet normal -0.368106 0.929784 0
    outer loop
      vertex 0.463525 -1.42658 3
      vertex 0.638668 -1.35724 0
      vertex 0.463525 -1.42658 0
    endloop
  endfacet
  facet normal 0.770518 -0.637418 0
    outer loop
      vertex -1.21352 0.881678 3
      vertex -1.09345 1.02682 0
      vertex -1.09345 1.02682 3
    endloop
  endfacet
  facet normal 0.770518 -0.637418 0
    outer loop
      vertex -1.09345 1.02682 0
      vertex -1.21352 0.881678 3
      vertex -1.21352 0.881678 0
    endloop
  endfacet
  facet normal 0.24871 -0.968578 0
    outer loop
      vertex -0.463525 1.42658 0
      vertex -0.281072 1.47343 3
      vertex -0.463525 1.42658 3
    endloop
  endfacet
  facet normal 0.24871 -0.968578 0
    outer loop
      vertex -0.281072 1.47343 3
      vertex -0.463525 1.42658 0
      vertex -0.281072 1.47343 0
    endloop
  endfacet
  facet normal -0.481757 0.876305 0
    outer loop
      vertex 0.80374 -1.26649 0
      vertex 0.638668 -1.35724 3
      vertex 0.80374 -1.26649 3
    endloop
  endfacet
  facet normal -0.481757 0.876305 0
    outer loop
      vertex 0.638668 -1.35724 3
      vertex 0.80374 -1.26649 0
      vertex 0.638668 -1.35724 0
    endloop
  endfacet
  facet normal -0.904838 0.425756 0
    outer loop
      vertex 1.31446 -0.722631 0
      vertex 1.39466 -0.552186 3
      vertex 1.39466 -0.552186 0
    endloop
  endfacet
  facet normal -0.904838 0.425756 0
    outer loop
      vertex 1.39466 -0.552186 3
      vertex 1.31446 -0.722631 0
      vertex 1.31446 -0.722631 3
    endloop
  endfacet
  facet normal -0.770518 0.637418 0
    outer loop
      vertex 1.09345 -1.02682 0
      vertex 1.21352 -0.881678 3
      vertex 1.21352 -0.881678 0
    endloop
  endfacet
  facet normal -0.770518 0.637418 0
    outer loop
      vertex 1.21352 -0.881678 3
      vertex 1.09345 -1.02682 0
      vertex 1.09345 -1.02682 3
    endloop
  endfacet
  facet normal -0.998026 0.0628013 0
    outer loop
      vertex 1.48817 -0.188 0
      vertex 1.5 0 3
      vertex 1.5 0 0
    endloop
  endfacet
  facet normal -0.998026 0.0628013 0
    outer loop
      vertex 1.5 0 3
      vertex 1.48817 -0.188 0
      vertex 1.48817 -0.188 3
    endloop
  endfacet
  facet normal 0.368106 0.929784 -0
    outer loop
      vertex -0.463525 -1.42658 0
      vertex -0.638668 -1.35724 3
      vertex -0.463525 -1.42658 3
    endloop
  endfacet
  facet normal 0.368106 0.929784 0
    outer loop
      vertex -0.638668 -1.35724 3
      vertex -0.463525 -1.42658 0
      vertex -0.638668 -1.35724 0
    endloop
  endfacet
  facet normal 0.684557 0.728959 -0
    outer loop
      vertex -0.956136 -1.15577 0
      vertex -1.09345 -1.02682 3
      vertex -0.956136 -1.15577 3
    endloop
  endfacet
  facet normal 0.684557 0.728959 0
    outer loop
      vertex -1.09345 -1.02682 3
      vertex -0.956136 -1.15577 0
      vertex -1.09345 -1.02682 0
    endloop
  endfacet
  facet normal 0.951057 0.309017 0
    outer loop
      vertex -1.39466 -0.552186 3
      vertex -1.45287 -0.373034 0
      vertex -1.45287 -0.373034 3
    endloop
  endfacet
  facet normal 0.951057 0.309017 0
    outer loop
      vertex -1.45287 -0.373034 0
      vertex -1.39466 -0.552186 3
      vertex -1.39466 -0.552186 0
    endloop
  endfacet
  facet normal -0.24871 0.968578 0
    outer loop
      vertex 0.463525 -1.42658 0
      vertex 0.281072 -1.47343 3
      vertex 0.463525 -1.42658 3
    endloop
  endfacet
  facet normal -0.24871 0.968578 0
    outer loop
      vertex 0.281072 -1.47343 3
      vertex 0.463525 -1.42658 0
      vertex 0.281072 -1.47343 0
    endloop
  endfacet
  facet normal -0.587778 0.809022 0
    outer loop
      vertex 0.956136 -1.15577 0
      vertex 0.80374 -1.26649 3
      vertex 0.956136 -1.15577 3
    endloop
  endfacet
  facet normal -0.587778 0.809022 0
    outer loop
      vertex 0.80374 -1.26649 3
      vertex 0.956136 -1.15577 0
      vertex 0.80374 -1.26649 0
    endloop
  endfacet
  facet normal -0.844314 0.535848 0
    outer loop
      vertex 1.21352 -0.881678 0
      vertex 1.31446 -0.722631 3
      vertex 1.31446 -0.722631 0
    endloop
  endfacet
  facet normal -0.844314 0.535848 0
    outer loop
      vertex 1.31446 -0.722631 3
      vertex 1.21352 -0.881678 0
      vertex 1.21352 -0.881678 3
    endloop
  endfacet
  facet normal 0.125337 0.992114 -0
    outer loop
      vertex -0.0941849 -1.49704 0
      vertex -0.281072 -1.47343 3
      vertex -0.0941849 -1.49704 3
    endloop
  endfacet
  facet normal 0.125337 0.992114 0
    outer loop
      vertex -0.281072 -1.47343 3
      vertex -0.0941849 -1.49704 0
      vertex -0.281072 -1.47343 0
    endloop
  endfacet
  facet normal 0.587778 0.809022 -0
    outer loop
      vertex -0.80374 -1.26649 0
      vertex -0.956136 -1.15577 3
      vertex -0.80374 -1.26649 3
    endloop
  endfacet
  facet normal 0.587778 0.809022 0
    outer loop
      vertex -0.956136 -1.15577 3
      vertex -0.80374 -1.26649 0
      vertex -0.956136 -1.15577 0
    endloop
  endfacet
  facet normal 0.24871 0.968578 -0
    outer loop
      vertex -0.281072 -1.47343 0
      vertex -0.463525 -1.42658 3
      vertex -0.281072 -1.47343 3
    endloop
  endfacet
  facet normal 0.24871 0.968578 0
    outer loop
      vertex -0.463525 -1.42658 3
      vertex -0.281072 -1.47343 0
      vertex -0.463525 -1.42658 0
    endloop
  endfacet
  facet normal 0.844314 0.535848 0
    outer loop
      vertex -1.21352 -0.881678 3
      vertex -1.31446 -0.722631 0
      vertex -1.31446 -0.722631 3
    endloop
  endfacet
  facet normal 0.844314 0.535848 0
    outer loop
      vertex -1.31446 -0.722631 0
      vertex -1.21352 -0.881678 3
      vertex -1.21352 -0.881678 0
    endloop
  endfacet
  facet normal 0.982284 0.187396 0
    outer loop
      vertex -1.45287 -0.373034 3
      vertex -1.48817 -0.188 0
      vertex -1.48817 -0.188 3
    endloop
  endfacet
  facet normal 0.982284 0.187396 0
    outer loop
      vertex -1.48817 -0.188 0
      vertex -1.45287 -0.373034 3
      vertex -1.45287 -0.373034 0
    endloop
  endfacet
  facet normal 0.998026 0.0628013 0
    outer loop
      vertex -1.48817 -0.188 3
      vertex -1.5 0 0
      vertex -1.5 0 3
    endloop
  endfacet
  facet normal 0.998026 0.0628013 0
    outer loop
      vertex -1.5 0 0
      vertex -1.48817 -0.188 3
      vertex -1.48817 -0.188 0
    endloop
  endfacet
  facet normal 0.481757 0.876305 -0
    outer loop
      vertex -0.638668 -1.35724 0
      vertex -0.80374 -1.26649 3
      vertex -0.638668 -1.35724 3
    endloop
  endfacet
  facet normal 0.481757 0.876305 0
    outer loop
      vertex -0.80374 -1.26649 3
      vertex -0.638668 -1.35724 0
      vertex -0.80374 -1.26649 0
    endloop
  endfacet
  facet normal 0.770518 0.637418 0
    outer loop
      vertex -1.09345 -1.02682 3
      vertex -1.21352 -0.881678 0
      vertex -1.21352 -0.881678 3
    endloop
  endfacet
  facet normal 0.770518 0.637418 0
    outer loop
      vertex -1.21352 -0.881678 0
      vertex -1.09345 -1.02682 3
      vertex -1.09345 -1.02682 0
    endloop
  endfacet
endsolid OpenSCAD_Model
