  0
SECTION
  2
BLOCKS
  0
ENDSEC
  0
SECTION
  2
ENTITIES
  0
LINE
  8
0
 10
8.96844
 20
-3.4557
 11
9.27254
 21
-3.37764
  0
LINE
  8
0
 10
9.27254
 20
-3.37764
 11
9.56444
 21
-3.26205
  0
LINE
  8
0
 10
9.56444
 20
-3.26205
 11
9.83955
 21
-3.11081
  0
LINE
  8
0
 10
9.83955
 20
-3.11081
 11
10.0936
 21
-2.92627
  0
LINE
  8
0
 10
10.0936
 20
-2.92627
 11
10.3224
 21
-2.71136
  0
LINE
  8
0
 10
10.3224
 20
-2.71136
 11
10.5225
 21
-2.46945
  0
LINE
  8
0
 10
10.5225
 20
-2.46945
 11
10.6908
 21
-2.20438
  0
LINE
  8
0
 10
10.6908
 20
-2.20438
 11
10.8244
 21
-1.9203
  0
LINE
  8
0
 10
10.8244
 20
-1.9203
 11
10.9214
 21
-1.62172
  0
LINE
  8
0
 10
10.9214
 20
-1.62172
 11
10.9803
 21
-1.31332
  0
LINE
  8
0
 10
10.9803
 20
-1.31332
 11
11
 21
-1
  0
LINE
  8
0
 10
11
 20
-1
 11
11
 21
1
  0
LINE
  8
0
 10
11
 20
1
 11
10.9803
 21
1.31332
  0
LINE
  8
0
 10
10.9803
 20
1.31332
 11
10.9214
 21
1.62172
  0
LINE
  8
0
 10
10.9214
 20
1.62172
 11
10.8244
 21
1.9203
  0
LINE
  8
0
 10
10.8244
 20
1.9203
 11
10.6908
 21
2.20438
  0
LINE
  8
0
 10
10.6908
 20
2.20438
 11
10.5225
 21
2.46945
  0
LINE
  8
0
 10
10.5225
 20
2.46945
 11
10.3224
 21
2.71136
  0
LINE
  8
0
 10
10.3224
 20
2.71136
 11
10.0936
 21
2.92627
  0
LINE
  8
0
 10
10.0936
 20
2.92627
 11
9.83955
 21
3.11081
  0
LINE
  8
0
 10
9.83955
 20
3.11081
 11
9.56444
 21
3.26205
  0
LINE
  8
0
 10
9.56444
 20
3.26205
 11
9.27254
 21
3.37764
  0
LINE
  8
0
 10
9.27254
 20
3.37764
 11
8.96844
 21
3.4557
  0
LINE
  8
0
 10
8.96844
 20
3.4557
 11
8.65697
 21
3.49506
  0
LINE
  8
0
 10
8.65697
 20
3.49506
 11
-8.65697
 21
3.49506
  0
LINE
  8
0
 10
-8.65697
 20
3.49506
 11
-8.96844
 21
3.4557
  0
LINE
  8
0
 10
-8.96844
 20
3.4557
 11
-9.27254
 21
3.37764
  0
LINE
  8
0
 10
-9.27254
 20
3.37764
 11
-9.56444
 21
3.26205
  0
LINE
  8
0
 10
-9.56444
 20
3.26205
 11
-9.83955
 21
3.11081
  0
LINE
  8
0
 10
-9.83955
 20
3.11081
 11
-10.0936
 21
2.92627
  0
LINE
  8
0
 10
-10.0936
 20
2.92627
 11
-10.3224
 21
2.71136
  0
LINE
  8
0
 10
-10.3224
 20
2.71136
 11
-10.5225
 21
2.46945
  0
LINE
  8
0
 10
-10.5225
 20
2.46945
 11
-10.6908
 21
2.20438
  0
LINE
  8
0
 10
-10.6908
 20
2.20438
 11
-10.8244
 21
1.9203
  0
LINE
  8
0
 10
-10.8244
 20
1.9203
 11
-10.9214
 21
1.62172
  0
LINE
  8
0
 10
-10.9214
 20
1.62172
 11
-10.9803
 21
1.31332
  0
LINE
  8
0
 10
-10.9803
 20
1.31332
 11
-11
 21
1
  0
LINE
  8
0
 10
-11
 20
1
 11
-11
 21
-1
  0
LINE
  8
0
 10
-11
 20
-1
 11
-10.9803
 21
-1.31332
  0
LINE
  8
0
 10
-10.9803
 20
-1.31332
 11
-10.9214
 21
-1.62172
  0
LINE
  8
0
 10
-10.9214
 20
-1.62172
 11
-10.8244
 21
-1.9203
  0
LINE
  8
0
 10
-10.8244
 20
-1.9203
 11
-10.6908
 21
-2.20438
  0
LINE
  8
0
 10
-10.6908
 20
-2.20438
 11
-10.5225
 21
-2.46945
  0
LINE
  8
0
 10
-10.5225
 20
-2.46945
 11
-10.3224
 21
-2.71136
  0
LINE
  8
0
 10
-10.3224
 20
-2.71136
 11
-10.0936
 21
-2.92627
  0
LINE
  8
0
 10
-10.0936
 20
-2.92627
 11
-9.83955
 21
-3.11081
  0
LINE
  8
0
 10
-9.83955
 20
-3.11081
 11
-9.56444
 21
-3.26205
  0
LINE
  8
0
 10
-9.56444
 20
-3.26205
 11
-9.27254
 21
-3.37764
  0
LINE
  8
0
 10
-9.27254
 20
-3.37764
 11
-8.96844
 21
-3.4557
  0
LINE
  8
0
 10
-8.96844
 20
-3.4557
 11
-8.65697
 21
-3.49506
  0
LINE
  8
0
 10
-8.65697
 20
-3.49506
 11
8.65697
 21
-3.49506
  0
LINE
  8
0
 10
8.65697
 20
-3.49506
 11
8.96844
 21
-3.4557
  0
LINE
  8
0
 10
-7.59418
 20
-1.49704
 11
-7.78107
 21
-1.47342
  0
LINE
  8
0
 10
-7.78107
 20
-1.47342
 11
-7.96352
 21
-1.42657
  0
LINE
  8
0
 10
-7.96352
 20
-1.42657
 11
-8.13866
 21
-1.35724
  0
LINE
  8
0
 10
-8.13866
 20
-1.35724
 11
-8.30373
 21
-1.26648
  0
LINE
  8
0
 10
-8.30373
 20
-1.26648
 11
-8.45613
 21
-1.15576
  0
LINE
  8
0
 10
-8.45613
 20
-1.15576
 11
-8.59344
 21
-1.02681
  0
LINE
  8
0
 10
-8.59344
 20
-1.02681
 11
-8.71352
 21
-0.881668
  0
LINE
  8
0
 10
-8.71352
 20
-0.881668
 11
-8.81445
 21
-0.722626
  0
LINE
  8
0
 10
-8.81445
 20
-0.722626
 11
-8.89465
 21
-0.552185
  0
LINE
  8
0
 10
-8.89465
 20
-0.552185
 11
-8.95287
 21
-0.373032
  0
LINE
  8
0
 10
-8.95287
 20
-0.373032
 11
-8.98816
 21
-0.187988
  0
LINE
  8
0
 10
-8.98816
 20
-0.187988
 11
-9
 21
0
  0
LINE
  8
0
 10
-9
 20
0
 11
-8.98816
 21
0.187988
  0
LINE
  8
0
 10
-8.98816
 20
0.187988
 11
-8.95287
 21
0.373032
  0
LINE
  8
0
 10
-8.95287
 20
0.373032
 11
-8.89465
 21
0.552185
  0
LINE
  8
0
 10
-8.89465
 20
0.552185
 11
-8.81445
 21
0.722626
  0
LINE
  8
0
 10
-8.81445
 20
0.722626
 11
-8.71352
 21
0.881668
  0
LINE
  8
0
 10
-8.71352
 20
0.881668
 11
-8.59344
 21
1.02681
  0
LINE
  8
0
 10
-8.59344
 20
1.02681
 11
-8.45613
 21
1.15576
  0
LINE
  8
0
 10
-8.45613
 20
1.15576
 11
-8.30373
 21
1.26648
  0
LINE
  8
0
 10
-8.30373
 20
1.26648
 11
-8.13866
 21
1.35724
  0
LINE
  8
0
 10
-8.13866
 20
1.35724
 11
-7.96352
 21
1.42657
  0
LINE
  8
0
 10
-7.96352
 20
1.42657
 11
-7.78107
 21
1.47342
  0
LINE
  8
0
 10
-7.78107
 20
1.47342
 11
-7.59418
 21
1.49704
  0
LINE
  8
0
 10
-7.59418
 20
1.49704
 11
-7.40581
 21
1.49704
  0
LINE
  8
0
 10
-7.40581
 20
1.49704
 11
-7.21892
 21
1.47342
  0
LINE
  8
0
 10
-7.21892
 20
1.47342
 11
-7.03647
 21
1.42657
  0
LINE
  8
0
 10
-7.03647
 20
1.42657
 11
-6.86133
 21
1.35724
  0
LINE
  8
0
 10
-6.86133
 20
1.35724
 11
-6.69626
 21
1.26648
  0
LINE
  8
0
 10
-6.69626
 20
1.26648
 11
-6.54385
 21
1.15576
  0
LINE
  8
0
 10
-6.54385
 20
1.15576
 11
-6.40654
 21
1.02681
  0
LINE
  8
0
 10
-6.40654
 20
1.02681
 11
-6.28647
 21
0.881668
  0
LINE
  8
0
 10
-6.28647
 20
0.881668
 11
-6.18553
 21
0.722626
  0
LINE
  8
0
 10
-6.18553
 20
0.722626
 11
-6.10533
 21
0.552185
  0
LINE
  8
0
 10
-6.10533
 20
0.552185
 11
-6.04712
 21
0.373032
  0
LINE
  8
0
 10
-6.04712
 20
0.373032
 11
-6.01183
 21
0.187988
  0
LINE
  8
0
 10
-6.01183
 20
0.187988
 11
-6
 21
0
  0
LINE
  8
0
 10
-6
 20
0
 11
-6.01183
 21
-0.187988
  0
LINE
  8
0
 10
-6.01183
 20
-0.187988
 11
-6.04712
 21
-0.373032
  0
LINE
  8
0
 10
-6.04712
 20
-0.373032
 11
-6.10533
 21
-0.552185
  0
LINE
  8
0
 10
-6.10533
 20
-0.552185
 11
-6.18553
 21
-0.722626
  0
LINE
  8
0
 10
-6.18553
 20
-0.722626
 11
-6.28647
 21
-0.881668
  0
LINE
  8
0
 10
-6.28647
 20
-0.881668
 11
-6.40654
 21
-1.02681
  0
LINE
  8
0
 10
-6.40654
 20
-1.02681
 11
-6.54385
 21
-1.15576
  0
LINE
  8
0
 10
-6.54385
 20
-1.15576
 11
-6.69626
 21
-1.26648
  0
LINE
  8
0
 10
-6.69626
 20
-1.26648
 11
-6.86133
 21
-1.35724
  0
LINE
  8
0
 10
-6.86133
 20
-1.35724
 11
-7.03647
 21
-1.42657
  0
LINE
  8
0
 10
-7.03647
 20
-1.42657
 11
-7.21892
 21
-1.47342
  0
LINE
  8
0
 10
-7.21892
 20
-1.47342
 11
-7.40581
 21
-1.49704
  0
LINE
  8
0
 10
-7.40581
 20
-1.49704
 11
-7.59418
 21
-1.49704
  0
LINE
  8
0
 10
-0.0941772
 20
-1.49704
 11
-0.281067
 21
-1.47342
  0
LINE
  8
0
 10
-0.281067
 20
-1.47342
 11
-0.463516
 21
-1.42657
  0
LINE
  8
0
 10
-0.463516
 20
-1.42657
 11
-0.638657
 21
-1.35724
  0
LINE
  8
0
 10
-0.638657
 20
-1.35724
 11
-0.803726
 21
-1.26648
  0
LINE
  8
0
 10
-0.803726
 20
-1.26648
 11
-0.956131
 21
-1.15576
  0
LINE
  8
0
 10
-0.956131
 20
-1.15576
 11
-1.09344
 21
-1.02681
  0
LINE
  8
0
 10
-1.09344
 20
-1.02681
 11
-1.21352
 21
-0.881668
  0
LINE
  8
0
 10
-1.21352
 20
-0.881668
 11
-1.31445
 21
-0.722626
  0
LINE
  8
0
 10
-1.31445
 20
-0.722626
 11
-1.39465
 21
-0.552185
  0
LINE
  8
0
 10
-1.39465
 20
-0.552185
 11
-1.45287
 21
-0.373032
  0
LINE
  8
0
 10
-1.45287
 20
-0.373032
 11
-1.48816
 21
-0.187988
  0
LINE
  8
0
 10
-1.48816
 20
-0.187988
 11
-1.5
 21
0
  0
LINE
  8
0
 10
-1.5
 20
0
 11
-1.48816
 21
0.187988
  0
LINE
  8
0
 10
-1.48816
 20
0.187988
 11
-1.45287
 21
0.373032
  0
LINE
  8
0
 10
-1.45287
 20
0.373032
 11
-1.39465
 21
0.552185
  0
LINE
  8
0
 10
-1.39465
 20
0.552185
 11
-1.31445
 21
0.722626
  0
LINE
  8
0
 10
-1.31445
 20
0.722626
 11
-1.21352
 21
0.881668
  0
LINE
  8
0
 10
-1.21352
 20
0.881668
 11
-1.09344
 21
1.02681
  0
LINE
  8
0
 10
-1.09344
 20
1.02681
 11
-0.956131
 21
1.15576
  0
LINE
  8
0
 10
-0.956131
 20
1.15576
 11
-0.803726
 21
1.26648
  0
LINE
  8
0
 10
-0.803726
 20
1.26648
 11
-0.638657
 21
1.35724
  0
LINE
  8
0
 10
-0.638657
 20
1.35724
 11
-0.463516
 21
1.42657
  0
LINE
  8
0
 10
-0.463516
 20
1.42657
 11
-0.281067
 21
1.47342
  0
LINE
  8
0
 10
-0.281067
 20
1.47342
 11
-0.0941772
 21
1.49704
  0
LINE
  8
0
 10
-0.0941772
 20
1.49704
 11
0.0941772
 21
1.49704
  0
LINE
  8
0
 10
0.0941772
 20
1.49704
 11
0.281067
 21
1.47342
  0
LINE
  8
0
 10
0.281067
 20
1.47342
 11
0.463516
 21
1.42657
  0
LINE
  8
0
 10
0.463516
 20
1.42657
 11
0.638657
 21
1.35724
  0
LINE
  8
0
 10
0.638657
 20
1.35724
 11
0.803726
 21
1.26648
  0
LINE
  8
0
 10
0.803726
 20
1.26648
 11
0.956131
 21
1.15576
  0
LINE
  8
0
 10
0.956131
 20
1.15576
 11
1.09344
 21
1.02681
  0
LINE
  8
0
 10
1.09344
 20
1.02681
 11
1.21352
 21
0.881668
  0
LINE
  8
0
 10
1.21352
 20
0.881668
 11
1.31445
 21
0.722626
  0
LINE
  8
0
 10
1.31445
 20
0.722626
 11
1.39465
 21
0.552185
  0
LINE
  8
0
 10
1.39465
 20
0.552185
 11
1.45287
 21
0.373032
  0
LINE
  8
0
 10
1.45287
 20
0.373032
 11
1.48816
 21
0.187988
  0
LINE
  8
0
 10
1.48816
 20
0.187988
 11
1.5
 21
0
  0
LINE
  8
0
 10
1.5
 20
0
 11
1.48816
 21
-0.187988
  0
LINE
  8
0
 10
1.48816
 20
-0.187988
 11
1.45287
 21
-0.373032
  0
LINE
  8
0
 10
1.45287
 20
-0.373032
 11
1.39465
 21
-0.552185
  0
LINE
  8
0
 10
1.39465
 20
-0.552185
 11
1.31445
 21
-0.722626
  0
LINE
  8
0
 10
1.31445
 20
-0.722626
 11
1.21352
 21
-0.881668
  0
LINE
  8
0
 10
1.21352
 20
-0.881668
 11
1.09344
 21
-1.02681
  0
LINE
  8
0
 10
1.09344
 20
-1.02681
 11
0.956131
 21
-1.15576
  0
LINE
  8
0
 10
0.956131
 20
-1.15576
 11
0.803726
 21
-1.26648
  0
LINE
  8
0
 10
0.803726
 20
-1.26648
 11
0.638657
 21
-1.35724
  0
LINE
  8
0
 10
0.638657
 20
-1.35724
 11
0.463516
 21
-1.42657
  0
LINE
  8
0
 10
0.463516
 20
-1.42657
 11
0.281067
 21
-1.47342
  0
LINE
  8
0
 10
0.281067
 20
-1.47342
 11
0.0941772
 21
-1.49704
  0
LINE
  8
0
 10
0.0941772
 20
-1.49704
 11
-0.0941772
 21
-1.49704
  0
LINE
  8
0
 10
7.40581
 20
-1.49704
 11
7.21892
 21
-1.47342
  0
LINE
  8
0
 10
7.21892
 20
-1.47342
 11
7.03647
 21
-1.42657
  0
LINE
  8
0
 10
7.03647
 20
-1.42657
 11
6.86133
 21
-1.35724
  0
LINE
  8
0
 10
6.86133
 20
-1.35724
 11
6.69626
 21
-1.26648
  0
LINE
  8
0
 10
6.69626
 20
-1.26648
 11
6.54385
 21
-1.15576
  0
LINE
  8
0
 10
6.54385
 20
-1.15576
 11
6.40654
 21
-1.02681
  0
LINE
  8
0
 10
6.40654
 20
-1.02681
 11
6.28647
 21
-0.881668
  0
LINE
  8
0
 10
6.28647
 20
-0.881668
 11
6.18553
 21
-0.722626
  0
LINE
  8
0
 10
6.18553
 20
-0.722626
 11
6.10533
 21
-0.552185
  0
LINE
  8
0
 10
6.10533
 20
-0.552185
 11
6.04712
 21
-0.373032
  0
LINE
  8
0
 10
6.04712
 20
-0.373032
 11
6.01183
 21
-0.187988
  0
LINE
  8
0
 10
6.01183
 20
-0.187988
 11
6
 21
0
  0
LINE
  8
0
 10
6
 20
0
 11
6.01183
 21
0.187988
  0
LINE
  8
0
 10
6.01183
 20
0.187988
 11
6.04712
 21
0.373032
  0
LINE
  8
0
 10
6.04712
 20
0.373032
 11
6.10533
 21
0.552185
  0
LINE
  8
0
 10
6.10533
 20
0.552185
 11
6.18553
 21
0.722626
  0
LINE
  8
0
 10
6.18553
 20
0.722626
 11
6.28647
 21
0.881668
  0
LINE
  8
0
 10
6.28647
 20
0.881668
 11
6.40654
 21
1.02681
  0
LINE
  8
0
 10
6.40654
 20
1.02681
 11
6.54385
 21
1.15576
  0
LINE
  8
0
 10
6.54385
 20
1.15576
 11
6.69626
 21
1.26648
  0
LINE
  8
0
 10
6.69626
 20
1.26648
 11
6.86133
 21
1.35724
  0
LINE
  8
0
 10
6.86133
 20
1.35724
 11
7.03647
 21
1.42657
  0
LINE
  8
0
 10
7.03647
 20
1.42657
 11
7.21892
 21
1.47342
  0
LINE
  8
0
 10
7.21892
 20
1.47342
 11
7.40581
 21
1.49704
  0
LINE
  8
0
 10
7.40581
 20
1.49704
 11
7.59418
 21
1.49704
  0
LINE
  8
0
 10
7.59418
 20
1.49704
 11
7.78107
 21
1.47342
  0
LINE
  8
0
 10
7.78107
 20
1.47342
 11
7.96352
 21
1.42657
  0
LINE
  8
0
 10
7.96352
 20
1.42657
 11
8.13866
 21
1.35724
  0
LINE
  8
0
 10
8.13866
 20
1.35724
 11
8.30373
 21
1.26648
  0
LINE
  8
0
 10
8.30373
 20
1.26648
 11
8.45613
 21
1.15576
  0
LINE
  8
0
 10
8.45613
 20
1.15576
 11
8.59344
 21
1.02681
  0
LINE
  8
0
 10
8.59344
 20
1.02681
 11
8.71352
 21
0.881668
  0
LINE
  8
0
 10
8.71352
 20
0.881668
 11
8.81445
 21
0.722626
  0
LINE
  8
0
 10
8.81445
 20
0.722626
 11
8.89465
 21
0.552185
  0
LINE
  8
0
 10
8.89465
 20
0.552185
 11
8.95287
 21
0.373032
  0
LINE
  8
0
 10
8.95287
 20
0.373032
 11
8.98816
 21
0.187988
  0
LINE
  8
0
 10
8.98816
 20
0.187988
 11
9
 21
0
  0
LINE
  8
0
 10
9
 20
0
 11
8.98816
 21
-0.187988
  0
LINE
  8
0
 10
8.98816
 20
-0.187988
 11
8.95287
 21
-0.373032
  0
LINE
  8
0
 10
8.95287
 20
-0.373032
 11
8.89465
 21
-0.552185
  0
LINE
  8
0
 10
8.89465
 20
-0.552185
 11
8.81445
 21
-0.722626
  0
LINE
  8
0
 10
8.81445
 20
-0.722626
 11
8.71352
 21
-0.881668
  0
LINE
  8
0
 10
8.71352
 20
-0.881668
 11
8.59344
 21
-1.02681
  0
LINE
  8
0
 10
8.59344
 20
-1.02681
 11
8.45613
 21
-1.15576
  0
LINE
  8
0
 10
8.45613
 20
-1.15576
 11
8.30373
 21
-1.26648
  0
LINE
  8
0
 10
8.30373
 20
-1.26648
 11
8.13866
 21
-1.35724
  0
LINE
  8
0
 10
8.13866
 20
-1.35724
 11
7.96352
 21
-1.42657
  0
LINE
  8
0
 10
7.96352
 20
-1.42657
 11
7.78107
 21
-1.47342
  0
LINE
  8
0
 10
7.78107
 20
-1.47342
 11
7.59418
 21
-1.49704
  0
LINE
  8
0
 10
7.59418
 20
-1.49704
 11
7.40581
 21
-1.49704
  0
ENDSEC
  0
SECTION
  2
OBJECTS
  0
DICTIONARY
  0
ENDSEC
  0
EOF
