  0
SECTION
  2
BLOCKS
  0
ENDSEC
  0
SECTION
  2
ENTITIES
  0
LINE
  8
0
 10
5.21844
 20
-7.2057
 11
5.52254
 21
-7.12764
  0
LINE
  8
0
 10
5.52254
 20
-7.12764
 11
5.81444
 21
-7.01205
  0
LINE
  8
0
 10
5.81444
 20
-7.01205
 11
6.08955
 21
-6.86081
  0
LINE
  8
0
 10
6.08955
 20
-6.86081
 11
6.34355
 21
-6.67627
  0
LINE
  8
0
 10
6.34355
 20
-6.67627
 11
6.57242
 21
-6.46136
  0
LINE
  8
0
 10
6.57242
 20
-6.46136
 11
6.77254
 21
-6.21945
  0
LINE
  8
0
 10
6.77254
 20
-6.21945
 11
6.94077
 21
-5.95438
  0
LINE
  8
0
 10
6.94077
 20
-5.95438
 11
7.07443
 21
-5.6703
  0
LINE
  8
0
 10
7.07443
 20
-5.6703
 11
7.17145
 21
-5.37172
  0
LINE
  8
0
 10
7.17145
 20
-5.37172
 11
7.23029
 21
-5.06332
  0
LINE
  8
0
 10
7.23029
 20
-5.06332
 11
7.25
 21
-4.75
  0
LINE
  8
0
 10
7.25
 20
-4.75
 11
7.25
 21
4.75
  0
LINE
  8
0
 10
7.25
 20
4.75
 11
7.23029
 21
5.06332
  0
LINE
  8
0
 10
7.23029
 20
5.06332
 11
7.17145
 21
5.37172
  0
LINE
  8
0
 10
7.17145
 20
5.37172
 11
7.07443
 21
5.6703
  0
LINE
  8
0
 10
7.07443
 20
5.6703
 11
6.94077
 21
5.95438
  0
LINE
  8
0
 10
6.94077
 20
5.95438
 11
6.77254
 21
6.21945
  0
LINE
  8
0
 10
6.77254
 20
6.21945
 11
6.57242
 21
6.46136
  0
LINE
  8
0
 10
6.57242
 20
6.46136
 11
6.34355
 21
6.67627
  0
LINE
  8
0
 10
6.34355
 20
6.67627
 11
6.08955
 21
6.86081
  0
LINE
  8
0
 10
6.08955
 20
6.86081
 11
5.81444
 21
7.01205
  0
LINE
  8
0
 10
5.81444
 20
7.01205
 11
5.52254
 21
7.12764
  0
LINE
  8
0
 10
5.52254
 20
7.12764
 11
5.21844
 21
7.2057
  0
LINE
  8
0
 10
5.21844
 20
7.2057
 11
4.90697
 21
7.24506
  0
LINE
  8
0
 10
4.90697
 20
7.24506
 11
-4.90697
 21
7.24506
  0
LINE
  8
0
 10
-4.90697
 20
7.24506
 11
-5.21844
 21
7.2057
  0
LINE
  8
0
 10
-5.21844
 20
7.2057
 11
-5.52254
 21
7.12764
  0
LINE
  8
0
 10
-5.52254
 20
7.12764
 11
-5.81444
 21
7.01205
  0
LINE
  8
0
 10
-5.81444
 20
7.01205
 11
-6.08955
 21
6.86081
  0
LINE
  8
0
 10
-6.08955
 20
6.86081
 11
-6.34355
 21
6.67627
  0
LINE
  8
0
 10
-6.34355
 20
6.67627
 11
-6.57242
 21
6.46136
  0
LINE
  8
0
 10
-6.57242
 20
6.46136
 11
-6.77254
 21
6.21945
  0
LINE
  8
0
 10
-6.77254
 20
6.21945
 11
-6.94077
 21
5.95438
  0
LINE
  8
0
 10
-6.94077
 20
5.95438
 11
-7.07443
 21
5.6703
  0
LINE
  8
0
 10
-7.07443
 20
5.6703
 11
-7.17145
 21
5.37172
  0
LINE
  8
0
 10
-7.17145
 20
5.37172
 11
-7.23029
 21
5.06332
  0
LINE
  8
0
 10
-7.23029
 20
5.06332
 11
-7.25
 21
4.75
  0
LINE
  8
0
 10
-7.25
 20
4.75
 11
-7.25
 21
-4.75
  0
LINE
  8
0
 10
-7.25
 20
-4.75
 11
-7.23029
 21
-5.06332
  0
LINE
  8
0
 10
-7.23029
 20
-5.06332
 11
-7.17145
 21
-5.37172
  0
LINE
  8
0
 10
-7.17145
 20
-5.37172
 11
-7.07443
 21
-5.6703
  0
LINE
  8
0
 10
-7.07443
 20
-5.6703
 11
-6.94077
 21
-5.95438
  0
LINE
  8
0
 10
-6.94077
 20
-5.95438
 11
-6.77254
 21
-6.21945
  0
LINE
  8
0
 10
-6.77254
 20
-6.21945
 11
-6.57242
 21
-6.46136
  0
LINE
  8
0
 10
-6.57242
 20
-6.46136
 11
-6.34355
 21
-6.67627
  0
LINE
  8
0
 10
-6.34355
 20
-6.67627
 11
-6.08955
 21
-6.86081
  0
LINE
  8
0
 10
-6.08955
 20
-6.86081
 11
-5.81444
 21
-7.01205
  0
LINE
  8
0
 10
-5.81444
 20
-7.01205
 11
-5.52254
 21
-7.12764
  0
LINE
  8
0
 10
-5.52254
 20
-7.12764
 11
-5.21844
 21
-7.2057
  0
LINE
  8
0
 10
-5.21844
 20
-7.2057
 11
-4.90697
 21
-7.24506
  0
LINE
  8
0
 10
-4.90697
 20
-7.24506
 11
4.90697
 21
-7.24506
  0
LINE
  8
0
 10
4.90697
 20
-7.24506
 11
5.21844
 21
-7.2057
  0
LINE
  8
0
 10
-3.84418
 20
2.25294
 11
-4.03107
 21
2.27657
  0
LINE
  8
0
 10
-4.03107
 20
2.27657
 11
-4.21352
 21
2.32341
  0
LINE
  8
0
 10
-4.21352
 20
2.32341
 11
-4.38866
 21
2.39275
  0
LINE
  8
0
 10
-4.38866
 20
2.39275
 11
-4.55373
 21
2.48351
  0
LINE
  8
0
 10
-4.55373
 20
2.48351
 11
-4.70613
 21
2.59422
  0
LINE
  8
0
 10
-4.70613
 20
2.59422
 11
-4.84344
 21
2.72318
  0
LINE
  8
0
 10
-4.84344
 20
2.72318
 11
-4.96352
 21
2.86832
  0
LINE
  8
0
 10
-4.96352
 20
2.86832
 11
-5.06445
 21
3.02736
  0
LINE
  8
0
 10
-5.06445
 20
3.02736
 11
-5.14465
 21
3.1978
  0
LINE
  8
0
 10
-5.14465
 20
3.1978
 11
-5.20287
 21
3.37695
  0
LINE
  8
0
 10
-5.20287
 20
3.37695
 11
-5.23816
 21
3.562
  0
LINE
  8
0
 10
-5.23816
 20
3.562
 11
-5.25
 21
3.75
  0
LINE
  8
0
 10
-5.25
 20
3.75
 11
-5.23816
 21
3.93799
  0
LINE
  8
0
 10
-5.23816
 20
3.93799
 11
-5.20287
 21
4.12303
  0
LINE
  8
0
 10
-5.20287
 20
4.12303
 11
-5.14465
 21
4.30219
  0
LINE
  8
0
 10
-5.14465
 20
4.30219
 11
-5.06445
 21
4.47263
  0
LINE
  8
0
 10
-5.06445
 20
4.47263
 11
-4.96352
 21
4.63167
  0
LINE
  8
0
 10
-4.96352
 20
4.63167
 11
-4.84344
 21
4.77681
  0
LINE
  8
0
 10
-4.84344
 20
4.77681
 11
-4.70613
 21
4.90576
  0
LINE
  8
0
 10
-4.70613
 20
4.90576
 11
-4.55373
 21
5.01648
  0
LINE
  8
0
 10
-4.55373
 20
5.01648
 11
-4.38866
 21
5.10724
  0
LINE
  8
0
 10
-4.38866
 20
5.10724
 11
-4.21352
 21
5.17657
  0
LINE
  8
0
 10
-4.21352
 20
5.17657
 11
-4.03107
 21
5.22342
  0
LINE
  8
0
 10
-4.03107
 20
5.22342
 11
-3.84418
 21
5.24704
  0
LINE
  8
0
 10
-3.84418
 20
5.24704
 11
-3.65581
 21
5.24704
  0
LINE
  8
0
 10
-3.65581
 20
5.24704
 11
-3.46892
 21
5.22342
  0
LINE
  8
0
 10
-3.46892
 20
5.22342
 11
-3.28647
 21
5.17657
  0
LINE
  8
0
 10
-3.28647
 20
5.17657
 11
-3.11133
 21
5.10724
  0
LINE
  8
0
 10
-3.11133
 20
5.10724
 11
-2.94626
 21
5.01648
  0
LINE
  8
0
 10
-2.94626
 20
5.01648
 11
-2.79385
 21
4.90576
  0
LINE
  8
0
 10
-2.79385
 20
4.90576
 11
-2.65654
 21
4.77681
  0
LINE
  8
0
 10
-2.65654
 20
4.77681
 11
-2.53647
 21
4.63167
  0
LINE
  8
0
 10
-2.53647
 20
4.63167
 11
-2.43553
 21
4.47263
  0
LINE
  8
0
 10
-2.43553
 20
4.47263
 11
-2.35533
 21
4.30219
  0
LINE
  8
0
 10
-2.35533
 20
4.30219
 11
-2.29712
 21
4.12303
  0
LINE
  8
0
 10
-2.29712
 20
4.12303
 11
-2.26183
 21
3.93799
  0
LINE
  8
0
 10
-2.26183
 20
3.93799
 11
-2.25
 21
3.75
  0
LINE
  8
0
 10
-2.25
 20
3.75
 11
-2.26183
 21
3.562
  0
LINE
  8
0
 10
-2.26183
 20
3.562
 11
-2.29712
 21
3.37695
  0
LINE
  8
0
 10
-2.29712
 20
3.37695
 11
-2.35533
 21
3.1978
  0
LINE
  8
0
 10
-2.35533
 20
3.1978
 11
-2.43553
 21
3.02736
  0
LINE
  8
0
 10
-2.43553
 20
3.02736
 11
-2.53647
 21
2.86832
  0
LINE
  8
0
 10
-2.53647
 20
2.86832
 11
-2.65654
 21
2.72318
  0
LINE
  8
0
 10
-2.65654
 20
2.72318
 11
-2.79385
 21
2.59422
  0
LINE
  8
0
 10
-2.79385
 20
2.59422
 11
-2.94626
 21
2.48351
  0
LINE
  8
0
 10
-2.94626
 20
2.48351
 11
-3.11133
 21
2.39275
  0
LINE
  8
0
 10
-3.11133
 20
2.39275
 11
-3.28647
 21
2.32341
  0
LINE
  8
0
 10
-3.28647
 20
2.32341
 11
-3.46892
 21
2.27657
  0
LINE
  8
0
 10
-3.46892
 20
2.27657
 11
-3.65581
 21
2.25294
  0
LINE
  8
0
 10
-3.65581
 20
2.25294
 11
-3.84418
 21
2.25294
  0
LINE
  8
0
 10
3.65581
 20
2.25294
 11
3.46892
 21
2.27657
  0
LINE
  8
0
 10
3.46892
 20
2.27657
 11
3.28647
 21
2.32341
  0
LINE
  8
0
 10
3.28647
 20
2.32341
 11
3.11133
 21
2.39275
  0
LINE
  8
0
 10
3.11133
 20
2.39275
 11
2.94626
 21
2.48351
  0
LINE
  8
0
 10
2.94626
 20
2.48351
 11
2.79385
 21
2.59422
  0
LINE
  8
0
 10
2.79385
 20
2.59422
 11
2.65654
 21
2.72318
  0
LINE
  8
0
 10
2.65654
 20
2.72318
 11
2.53647
 21
2.86832
  0
LINE
  8
0
 10
2.53647
 20
2.86832
 11
2.43553
 21
3.02736
  0
LINE
  8
0
 10
2.43553
 20
3.02736
 11
2.35533
 21
3.1978
  0
LINE
  8
0
 10
2.35533
 20
3.1978
 11
2.29712
 21
3.37695
  0
LINE
  8
0
 10
2.29712
 20
3.37695
 11
2.26183
 21
3.562
  0
LINE
  8
0
 10
2.26183
 20
3.562
 11
2.25
 21
3.75
  0
LINE
  8
0
 10
2.25
 20
3.75
 11
2.26183
 21
3.93799
  0
LINE
  8
0
 10
2.26183
 20
3.93799
 11
2.29712
 21
4.12303
  0
LINE
  8
0
 10
2.29712
 20
4.12303
 11
2.35533
 21
4.30219
  0
LINE
  8
0
 10
2.35533
 20
4.30219
 11
2.43553
 21
4.47263
  0
LINE
  8
0
 10
2.43553
 20
4.47263
 11
2.53647
 21
4.63167
  0
LINE
  8
0
 10
2.53647
 20
4.63167
 11
2.65654
 21
4.77681
  0
LINE
  8
0
 10
2.65654
 20
4.77681
 11
2.79385
 21
4.90576
  0
LINE
  8
0
 10
2.79385
 20
4.90576
 11
2.94626
 21
5.01648
  0
LINE
  8
0
 10
2.94626
 20
5.01648
 11
3.11133
 21
5.10724
  0
LINE
  8
0
 10
3.11133
 20
5.10724
 11
3.28647
 21
5.17657
  0
LINE
  8
0
 10
3.28647
 20
5.17657
 11
3.46892
 21
5.22342
  0
LINE
  8
0
 10
3.46892
 20
5.22342
 11
3.65581
 21
5.24704
  0
LINE
  8
0
 10
3.65581
 20
5.24704
 11
3.84418
 21
5.24704
  0
LINE
  8
0
 10
3.84418
 20
5.24704
 11
4.03107
 21
5.22342
  0
LINE
  8
0
 10
4.03107
 20
5.22342
 11
4.21352
 21
5.17657
  0
LINE
  8
0
 10
4.21352
 20
5.17657
 11
4.38866
 21
5.10724
  0
LINE
  8
0
 10
4.38866
 20
5.10724
 11
4.55373
 21
5.01648
  0
LINE
  8
0
 10
4.55373
 20
5.01648
 11
4.70613
 21
4.90576
  0
LINE
  8
0
 10
4.70613
 20
4.90576
 11
4.84344
 21
4.77681
  0
LINE
  8
0
 10
4.84344
 20
4.77681
 11
4.96352
 21
4.63167
  0
LINE
  8
0
 10
4.96352
 20
4.63167
 11
5.06445
 21
4.47263
  0
LINE
  8
0
 10
5.06445
 20
4.47263
 11
5.14465
 21
4.30219
  0
LINE
  8
0
 10
5.14465
 20
4.30219
 11
5.20287
 21
4.12303
  0
LINE
  8
0
 10
5.20287
 20
4.12303
 11
5.23816
 21
3.93799
  0
LINE
  8
0
 10
5.23816
 20
3.93799
 11
5.25
 21
3.75
  0
LINE
  8
0
 10
5.25
 20
3.75
 11
5.23816
 21
3.562
  0
LINE
  8
0
 10
5.23816
 20
3.562
 11
5.20287
 21
3.37695
  0
LINE
  8
0
 10
5.20287
 20
3.37695
 11
5.14465
 21
3.1978
  0
LINE
  8
0
 10
5.14465
 20
3.1978
 11
5.06445
 21
3.02736
  0
LINE
  8
0
 10
5.06445
 20
3.02736
 11
4.96352
 21
2.86832
  0
LINE
  8
0
 10
4.96352
 20
2.86832
 11
4.84344
 21
2.72318
  0
LINE
  8
0
 10
4.84344
 20
2.72318
 11
4.70613
 21
2.59422
  0
LINE
  8
0
 10
4.70613
 20
2.59422
 11
4.55373
 21
2.48351
  0
LINE
  8
0
 10
4.55373
 20
2.48351
 11
4.38866
 21
2.39275
  0
LINE
  8
0
 10
4.38866
 20
2.39275
 11
4.21352
 21
2.32341
  0
LINE
  8
0
 10
4.21352
 20
2.32341
 11
4.03107
 21
2.27657
  0
LINE
  8
0
 10
4.03107
 20
2.27657
 11
3.84418
 21
2.25294
  0
LINE
  8
0
 10
3.84418
 20
2.25294
 11
3.65581
 21
2.25294
  0
LINE
  8
0
 10
-3.84418
 20
-5.24704
 11
-4.03107
 21
-5.22342
  0
LINE
  8
0
 10
-4.03107
 20
-5.22342
 11
-4.21352
 21
-5.17657
  0
LINE
  8
0
 10
-4.21352
 20
-5.17657
 11
-4.38866
 21
-5.10724
  0
LINE
  8
0
 10
-4.38866
 20
-5.10724
 11
-4.55373
 21
-5.01648
  0
LINE
  8
0
 10
-4.55373
 20
-5.01648
 11
-4.70613
 21
-4.90576
  0
LINE
  8
0
 10
-4.70613
 20
-4.90576
 11
-4.84344
 21
-4.77681
  0
LINE
  8
0
 10
-4.84344
 20
-4.77681
 11
-4.96352
 21
-4.63167
  0
LINE
  8
0
 10
-4.96352
 20
-4.63167
 11
-5.06445
 21
-4.47263
  0
LINE
  8
0
 10
-5.06445
 20
-4.47263
 11
-5.14465
 21
-4.30219
  0
LINE
  8
0
 10
-5.14465
 20
-4.30219
 11
-5.20287
 21
-4.12303
  0
LINE
  8
0
 10
-5.20287
 20
-4.12303
 11
-5.23816
 21
-3.93799
  0
LINE
  8
0
 10
-5.23816
 20
-3.93799
 11
-5.25
 21
-3.75
  0
LINE
  8
0
 10
-5.25
 20
-3.75
 11
-5.23816
 21
-3.562
  0
LINE
  8
0
 10
-5.23816
 20
-3.562
 11
-5.20287
 21
-3.37695
  0
LINE
  8
0
 10
-5.20287
 20
-3.37695
 11
-5.14465
 21
-3.1978
  0
LINE
  8
0
 10
-5.14465
 20
-3.1978
 11
-5.06445
 21
-3.02736
  0
LINE
  8
0
 10
-5.06445
 20
-3.02736
 11
-4.96352
 21
-2.86832
  0
LINE
  8
0
 10
-4.96352
 20
-2.86832
 11
-4.84344
 21
-2.72318
  0
LINE
  8
0
 10
-4.84344
 20
-2.72318
 11
-4.70613
 21
-2.59422
  0
LINE
  8
0
 10
-4.70613
 20
-2.59422
 11
-4.55373
 21
-2.48351
  0
LINE
  8
0
 10
-4.55373
 20
-2.48351
 11
-4.38866
 21
-2.39275
  0
LINE
  8
0
 10
-4.38866
 20
-2.39275
 11
-4.21352
 21
-2.32341
  0
LINE
  8
0
 10
-4.21352
 20
-2.32341
 11
-4.03107
 21
-2.27657
  0
LINE
  8
0
 10
-4.03107
 20
-2.27657
 11
-3.84418
 21
-2.25294
  0
LINE
  8
0
 10
-3.84418
 20
-2.25294
 11
-3.65581
 21
-2.25294
  0
LINE
  8
0
 10
-3.65581
 20
-2.25294
 11
-3.46892
 21
-2.27657
  0
LINE
  8
0
 10
-3.46892
 20
-2.27657
 11
-3.28647
 21
-2.32341
  0
LINE
  8
0
 10
-3.28647
 20
-2.32341
 11
-3.11133
 21
-2.39275
  0
LINE
  8
0
 10
-3.11133
 20
-2.39275
 11
-2.94626
 21
-2.48351
  0
LINE
  8
0
 10
-2.94626
 20
-2.48351
 11
-2.79385
 21
-2.59422
  0
LINE
  8
0
 10
-2.79385
 20
-2.59422
 11
-2.65654
 21
-2.72318
  0
LINE
  8
0
 10
-2.65654
 20
-2.72318
 11
-2.53647
 21
-2.86832
  0
LINE
  8
0
 10
-2.53647
 20
-2.86832
 11
-2.43553
 21
-3.02736
  0
LINE
  8
0
 10
-2.43553
 20
-3.02736
 11
-2.35533
 21
-3.1978
  0
LINE
  8
0
 10
-2.35533
 20
-3.1978
 11
-2.29712
 21
-3.37695
  0
LINE
  8
0
 10
-2.29712
 20
-3.37695
 11
-2.26183
 21
-3.562
  0
LINE
  8
0
 10
-2.26183
 20
-3.562
 11
-2.25
 21
-3.75
  0
LINE
  8
0
 10
-2.25
 20
-3.75
 11
-2.26183
 21
-3.93799
  0
LINE
  8
0
 10
-2.26183
 20
-3.93799
 11
-2.29712
 21
-4.12303
  0
LINE
  8
0
 10
-2.29712
 20
-4.12303
 11
-2.35533
 21
-4.30219
  0
LINE
  8
0
 10
-2.35533
 20
-4.30219
 11
-2.43553
 21
-4.47263
  0
LINE
  8
0
 10
-2.43553
 20
-4.47263
 11
-2.53647
 21
-4.63167
  0
LINE
  8
0
 10
-2.53647
 20
-4.63167
 11
-2.65654
 21
-4.77681
  0
LINE
  8
0
 10
-2.65654
 20
-4.77681
 11
-2.79385
 21
-4.90576
  0
LINE
  8
0
 10
-2.79385
 20
-4.90576
 11
-2.94626
 21
-5.01648
  0
LINE
  8
0
 10
-2.94626
 20
-5.01648
 11
-3.11133
 21
-5.10724
  0
LINE
  8
0
 10
-3.11133
 20
-5.10724
 11
-3.28647
 21
-5.17657
  0
LINE
  8
0
 10
-3.28647
 20
-5.17657
 11
-3.46892
 21
-5.22342
  0
LINE
  8
0
 10
-3.46892
 20
-5.22342
 11
-3.65581
 21
-5.24704
  0
LINE
  8
0
 10
-3.65581
 20
-5.24704
 11
-3.84418
 21
-5.24704
  0
LINE
  8
0
 10
3.65581
 20
-5.24704
 11
3.46892
 21
-5.22342
  0
LINE
  8
0
 10
3.46892
 20
-5.22342
 11
3.28647
 21
-5.17657
  0
LINE
  8
0
 10
3.28647
 20
-5.17657
 11
3.11133
 21
-5.10724
  0
LINE
  8
0
 10
3.11133
 20
-5.10724
 11
2.94626
 21
-5.01648
  0
LINE
  8
0
 10
2.94626
 20
-5.01648
 11
2.79385
 21
-4.90576
  0
LINE
  8
0
 10
2.79385
 20
-4.90576
 11
2.65654
 21
-4.77681
  0
LINE
  8
0
 10
2.65654
 20
-4.77681
 11
2.53647
 21
-4.63167
  0
LINE
  8
0
 10
2.53647
 20
-4.63167
 11
2.43553
 21
-4.47263
  0
LINE
  8
0
 10
2.43553
 20
-4.47263
 11
2.35533
 21
-4.30219
  0
LINE
  8
0
 10
2.35533
 20
-4.30219
 11
2.29712
 21
-4.12303
  0
LINE
  8
0
 10
2.29712
 20
-4.12303
 11
2.26183
 21
-3.93799
  0
LINE
  8
0
 10
2.26183
 20
-3.93799
 11
2.25
 21
-3.75
  0
LINE
  8
0
 10
2.25
 20
-3.75
 11
2.26183
 21
-3.562
  0
LINE
  8
0
 10
2.26183
 20
-3.562
 11
2.29712
 21
-3.37695
  0
LINE
  8
0
 10
2.29712
 20
-3.37695
 11
2.35533
 21
-3.1978
  0
LINE
  8
0
 10
2.35533
 20
-3.1978
 11
2.43553
 21
-3.02736
  0
LINE
  8
0
 10
2.43553
 20
-3.02736
 11
2.53647
 21
-2.86832
  0
LINE
  8
0
 10
2.53647
 20
-2.86832
 11
2.65654
 21
-2.72318
  0
LINE
  8
0
 10
2.65654
 20
-2.72318
 11
2.79385
 21
-2.59422
  0
LINE
  8
0
 10
2.79385
 20
-2.59422
 11
2.94626
 21
-2.48351
  0
LINE
  8
0
 10
2.94626
 20
-2.48351
 11
3.11133
 21
-2.39275
  0
LINE
  8
0
 10
3.11133
 20
-2.39275
 11
3.28647
 21
-2.32341
  0
LINE
  8
0
 10
3.28647
 20
-2.32341
 11
3.46892
 21
-2.27657
  0
LINE
  8
0
 10
3.46892
 20
-2.27657
 11
3.65581
 21
-2.25294
  0
LINE
  8
0
 10
3.65581
 20
-2.25294
 11
3.84418
 21
-2.25294
  0
LINE
  8
0
 10
3.84418
 20
-2.25294
 11
4.03107
 21
-2.27657
  0
LINE
  8
0
 10
4.03107
 20
-2.27657
 11
4.21352
 21
-2.32341
  0
LINE
  8
0
 10
4.21352
 20
-2.32341
 11
4.38866
 21
-2.39275
  0
LINE
  8
0
 10
4.38866
 20
-2.39275
 11
4.55373
 21
-2.48351
  0
LINE
  8
0
 10
4.55373
 20
-2.48351
 11
4.70613
 21
-2.59422
  0
LINE
  8
0
 10
4.70613
 20
-2.59422
 11
4.84344
 21
-2.72318
  0
LINE
  8
0
 10
4.84344
 20
-2.72318
 11
4.96352
 21
-2.86832
  0
LINE
  8
0
 10
4.96352
 20
-2.86832
 11
5.06445
 21
-3.02736
  0
LINE
  8
0
 10
5.06445
 20
-3.02736
 11
5.14465
 21
-3.1978
  0
LINE
  8
0
 10
5.14465
 20
-3.1978
 11
5.20287
 21
-3.37695
  0
LINE
  8
0
 10
5.20287
 20
-3.37695
 11
5.23816
 21
-3.562
  0
LINE
  8
0
 10
5.23816
 20
-3.562
 11
5.25
 21
-3.75
  0
LINE
  8
0
 10
5.25
 20
-3.75
 11
5.23816
 21
-3.93799
  0
LINE
  8
0
 10
5.23816
 20
-3.93799
 11
5.20287
 21
-4.12303
  0
LINE
  8
0
 10
5.20287
 20
-4.12303
 11
5.14465
 21
-4.30219
  0
LINE
  8
0
 10
5.14465
 20
-4.30219
 11
5.06445
 21
-4.47263
  0
LINE
  8
0
 10
5.06445
 20
-4.47263
 11
4.96352
 21
-4.63167
  0
LINE
  8
0
 10
4.96352
 20
-4.63167
 11
4.84344
 21
-4.77681
  0
LINE
  8
0
 10
4.84344
 20
-4.77681
 11
4.70613
 21
-4.90576
  0
LINE
  8
0
 10
4.70613
 20
-4.90576
 11
4.55373
 21
-5.01648
  0
LINE
  8
0
 10
4.55373
 20
-5.01648
 11
4.38866
 21
-5.10724
  0
LINE
  8
0
 10
4.38866
 20
-5.10724
 11
4.21352
 21
-5.17657
  0
LINE
  8
0
 10
4.21352
 20
-5.17657
 11
4.03107
 21
-5.22342
  0
LINE
  8
0
 10
4.03107
 20
-5.22342
 11
3.84418
 21
-5.24704
  0
LINE
  8
0
 10
3.84418
 20
-5.24704
 11
3.65581
 21
-5.24704
  0
ENDSEC
  0
SECTION
  2
OBJECTS
  0
DICTIONARY
  0
ENDSEC
  0
EOF
