<?xml version="1.0" standalone="no"?>
<!DOCTYPE svg PUBLIC "-//W3C//DTD SVG 1.1//EN" "http://www.w3.org/Graphics/SVG/1.1/DTD/svg11.dtd">
<svg width="46mm" height="46mm" viewBox="-23 -23 46 46" xmlns="http://www.w3.org/2000/svg" version="1.1">
<title>OpenSCAD Model</title>
<path d="
M 20.2184,22.2057 L 20.5225,22.1276 L 20.8144,22.0121 L 21.0896,21.8608 L 21.3436,21.6763 L 21.5724,21.4614
 L 21.7725,21.2195 L 21.9408,20.9544 L 22.0744,20.6703 L 22.1714,20.3717 L 22.2303,20.0633 L 22.25,19.75
 L 22.25,-19.75 L 22.2303,-20.0633 L 22.1714,-20.3717 L 22.0744,-20.6703 L 21.9408,-20.9544 L 21.7725,-21.2195
 L 21.5724,-21.4614 L 21.3436,-21.6763 L 21.0896,-21.8608 L 20.8144,-22.0121 L 20.5225,-22.1276 L 20.2184,-22.2057
 L 19.907,-22.2451 L -19.907,-22.2451 L -20.2184,-22.2057 L -20.5225,-22.1276 L -20.8144,-22.0121 L -21.0896,-21.8608
 L -21.3436,-21.6763 L -21.5724,-21.4614 L -21.7725,-21.2195 L -21.9408,-20.9544 L -22.0744,-20.6703 L -22.1714,-20.3717
 L -22.2303,-20.0633 L -22.25,-19.75 L -22.25,19.75 L -22.2303,20.0633 L -22.1714,20.3717 L -22.0744,20.6703
 L -21.9408,20.9544 L -21.7725,21.2195 L -21.5724,21.4614 L -21.3436,21.6763 L -21.0896,21.8608 L -20.8144,22.0121
 L -20.5225,22.1276 L -20.2184,22.2057 L -19.907,22.2451 L 19.907,22.2451 z
M 11.1558,-17.253 L 10.9689,-17.2766 L 10.7865,-17.3234 L 10.6113,-17.3927 L 10.4463,-17.4835 L 10.2939,-17.5942
 L 10.1565,-17.7232 L 10.0365,-17.8683 L 9.93553,-18.0274 L 9.85533,-18.1978 L 9.79712,-18.377 L 9.76183,-18.562
 L 9.75,-18.75 L 9.76183,-18.938 L 9.79712,-19.123 L 9.85533,-19.3022 L 9.93553,-19.4726 L 10.0365,-19.6317
 L 10.1565,-19.7768 L 10.2939,-19.9058 L 10.4463,-20.0165 L 10.6113,-20.1072 L 10.7865,-20.1766 L 10.9689,-20.2234
 L 11.1558,-20.247 L 11.3442,-20.247 L 11.5311,-20.2234 L 11.7135,-20.1766 L 11.8887,-20.1072 L 12.0537,-20.0165
 L 12.2061,-19.9058 L 12.3434,-19.7768 L 12.4635,-19.6317 L 12.5645,-19.4726 L 12.6447,-19.3022 L 12.7029,-19.123
 L 12.7382,-18.938 L 12.75,-18.75 L 12.7382,-18.562 L 12.7029,-18.377 L 12.6447,-18.1978 L 12.5645,-18.0274
 L 12.4635,-17.8683 L 12.3434,-17.7232 L 12.2061,-17.5942 L 12.0537,-17.4835 L 11.8887,-17.3927 L 11.7135,-17.3234
 L 11.5311,-17.2766 L 11.3442,-17.253 z
M -3.84418,-17.253 L -4.03107,-17.2766 L -4.21352,-17.3234 L -4.38866,-17.3927 L -4.55373,-17.4835 L -4.70613,-17.5942
 L -4.84344,-17.7232 L -4.96352,-17.8683 L -5.06445,-18.0274 L -5.14465,-18.1978 L -5.20287,-18.377 L -5.23816,-18.562
 L -5.25,-18.75 L -5.23816,-18.938 L -5.20287,-19.123 L -5.14465,-19.3022 L -5.06445,-19.4726 L -4.96352,-19.6317
 L -4.84344,-19.7768 L -4.70613,-19.9058 L -4.55373,-20.0165 L -4.38866,-20.1072 L -4.21352,-20.1766 L -4.03107,-20.2234
 L -3.84418,-20.247 L -3.65581,-20.247 L -3.46892,-20.2234 L -3.28647,-20.1766 L -3.11133,-20.1072 L -2.94626,-20.0165
 L -2.79385,-19.9058 L -2.65654,-19.7768 L -2.53647,-19.6317 L -2.43553,-19.4726 L -2.35533,-19.3022 L -2.29712,-19.123
 L -2.26183,-18.938 L -2.25,-18.75 L -2.26183,-18.562 L -2.29712,-18.377 L -2.35533,-18.1978 L -2.43553,-18.0274
 L -2.53647,-17.8683 L -2.65654,-17.7232 L -2.79385,-17.5942 L -2.94626,-17.4835 L -3.11133,-17.3927 L -3.28647,-17.3234
 L -3.46892,-17.2766 L -3.65581,-17.253 z
M -18.8442,-17.253 L -19.0311,-17.2766 L -19.2135,-17.3234 L -19.3887,-17.3927 L -19.5537,-17.4835 L -19.7061,-17.5942
 L -19.8434,-17.7232 L -19.9635,-17.8683 L -20.0645,-18.0274 L -20.1447,-18.1978 L -20.2029,-18.377 L -20.2382,-18.562
 L -20.25,-18.75 L -20.2382,-18.938 L -20.2029,-19.123 L -20.1447,-19.3022 L -20.0645,-19.4726 L -19.9635,-19.6317
 L -19.8434,-19.7768 L -19.7061,-19.9058 L -19.5537,-20.0165 L -19.3887,-20.1072 L -19.2135,-20.1766 L -19.0311,-20.2234
 L -18.8442,-20.247 L -18.6558,-20.247 L -18.4689,-20.2234 L -18.2865,-20.1766 L -18.1113,-20.1072 L -17.9463,-20.0165
 L -17.7939,-19.9058 L -17.6565,-19.7768 L -17.5365,-19.6317 L -17.4355,-19.4726 L -17.3553,-19.3022 L -17.2971,-19.123
 L -17.2618,-18.938 L -17.25,-18.75 L -17.2618,-18.562 L -17.2971,-18.377 L -17.3553,-18.1978 L -17.4355,-18.0274
 L -17.5365,-17.8683 L -17.6565,-17.7232 L -17.7939,-17.5942 L -17.9463,-17.4835 L -18.1113,-17.3927 L -18.2865,-17.3234
 L -18.4689,-17.2766 L -18.6558,-17.253 z
M 18.6558,-17.253 L 18.4689,-17.2766 L 18.2865,-17.3234 L 18.1113,-17.3927 L 17.9463,-17.4835 L 17.7939,-17.5942
 L 17.6565,-17.7232 L 17.5365,-17.8683 L 17.4355,-18.0274 L 17.3553,-18.1978 L 17.2971,-18.377 L 17.2618,-18.562
 L 17.25,-18.75 L 17.2618,-18.938 L 17.2971,-19.123 L 17.3553,-19.3022 L 17.4355,-19.4726 L 17.5365,-19.6317
 L 17.6565,-19.7768 L 17.7939,-19.9058 L 17.9463,-20.0165 L 18.1113,-20.1072 L 18.2865,-20.1766 L 18.4689,-20.2234
 L 18.6558,-20.247 L 18.8442,-20.247 L 19.0311,-20.2234 L 19.2135,-20.1766 L 19.3887,-20.1072 L 19.5537,-20.0165
 L 19.7061,-19.9058 L 19.8434,-19.7768 L 19.9635,-19.6317 L 20.0645,-19.4726 L 20.1447,-19.3022 L 20.2029,-19.123
 L 20.2382,-18.938 L 20.25,-18.75 L 20.2382,-18.562 L 20.2029,-18.377 L 20.1447,-18.1978 L 20.0645,-18.0274
 L 19.9635,-17.8683 L 19.8434,-17.7232 L 19.7061,-17.5942 L 19.5537,-17.4835 L 19.3887,-17.3927 L 19.2135,-17.3234
 L 19.0311,-17.2766 L 18.8442,-17.253 z
M -11.3442,-17.253 L -11.5311,-17.2766 L -11.7135,-17.3234 L -11.8887,-17.3927 L -12.0537,-17.4835 L -12.2061,-17.5942
 L -12.3434,-17.7232 L -12.4635,-17.8683 L -12.5645,-18.0274 L -12.6447,-18.1978 L -12.7029,-18.377 L -12.7382,-18.562
 L -12.75,-18.75 L -12.7382,-18.938 L -12.7029,-19.123 L -12.6447,-19.3022 L -12.5645,-19.4726 L -12.4635,-19.6317
 L -12.3434,-19.7768 L -12.2061,-19.9058 L -12.0537,-20.0165 L -11.8887,-20.1072 L -11.7135,-20.1766 L -11.5311,-20.2234
 L -11.3442,-20.247 L -11.1558,-20.247 L -10.9689,-20.2234 L -10.7865,-20.1766 L -10.6113,-20.1072 L -10.4463,-20.0165
 L -10.2939,-19.9058 L -10.1565,-19.7768 L -10.0365,-19.6317 L -9.93553,-19.4726 L -9.85533,-19.3022 L -9.79712,-19.123
 L -9.76183,-18.938 L -9.75,-18.75 L -9.76183,-18.562 L -9.79712,-18.377 L -9.85533,-18.1978 L -9.93553,-18.0274
 L -10.0365,-17.8683 L -10.1565,-17.7232 L -10.2939,-17.5942 L -10.4463,-17.4835 L -10.6113,-17.3927 L -10.7865,-17.3234
 L -10.9689,-17.2766 L -11.1558,-17.253 z
M 3.65581,-17.253 L 3.46892,-17.2766 L 3.28647,-17.3234 L 3.11133,-17.3927 L 2.94626,-17.4835 L 2.79385,-17.5942
 L 2.65654,-17.7232 L 2.53647,-17.8683 L 2.43553,-18.0274 L 2.35533,-18.1978 L 2.29712,-18.377 L 2.26183,-18.562
 L 2.25,-18.75 L 2.26183,-18.938 L 2.29712,-19.123 L 2.35533,-19.3022 L 2.43553,-19.4726 L 2.53647,-19.6317
 L 2.65654,-19.7768 L 2.79385,-19.9058 L 2.94626,-20.0165 L 3.11133,-20.1072 L 3.28647,-20.1766 L 3.46892,-20.2234
 L 3.65581,-20.247 L 3.84418,-20.247 L 4.03107,-20.2234 L 4.21352,-20.1766 L 4.38866,-20.1072 L 4.55373,-20.0165
 L 4.70613,-19.9058 L 4.84344,-19.7768 L 4.96352,-19.6317 L 5.06445,-19.4726 L 5.14465,-19.3022 L 5.20287,-19.123
 L 5.23816,-18.938 L 5.25,-18.75 L 5.23816,-18.562 L 5.20287,-18.377 L 5.14465,-18.1978 L 5.06445,-18.0274
 L 4.96352,-17.8683 L 4.84344,-17.7232 L 4.70613,-17.5942 L 4.55373,-17.4835 L 4.38866,-17.3927 L 4.21352,-17.3234
 L 4.03107,-17.2766 L 3.84418,-17.253 z
M -5.06445,-10.5274 L -5.14465,-10.6978 L -5.20287,-10.877 L -5.23816,-11.062 L -5.25,-11.25 L -5.23816,-11.438
 L -5.20287,-11.623 L -5.14465,-11.8022 L -5.06445,-11.9726 L -4.96352,-12.1317 L -4.84344,-12.2768 L -4.70613,-12.4058
 L -4.55373,-12.5165 L -4.38866,-12.6072 L -4.21352,-12.6766 L -4.03107,-12.7234 L -3.84418,-12.747 L -3.65581,-12.747
 L -3.46892,-12.7234 L -3.28647,-12.6766 L -3.11133,-12.6072 L -2.94626,-12.5165 L -2.79385,-12.4058 L -2.65654,-12.2768
 L -2.53647,-12.1317 L -2.43553,-11.9726 L -2.35533,-11.8022 L -2.29712,-11.623 L -2.26183,-11.438 L -2.25,-11.25
 L -2.26183,-11.062 L -2.29712,-10.877 L -2.35533,-10.6978 L -2.43553,-10.5274 L -2.53647,-10.3683 L -2.65654,-10.2232
 L -2.79385,-10.0942 L -2.94626,-9.98351 L -3.11133,-9.89275 L -3.28647,-9.82341 L -3.46892,-9.77657 L -3.65581,-9.75294
 L -3.84418,-9.75294 L -4.03107,-9.77657 L -4.21352,-9.82341 L -4.38866,-9.89275 L -4.55373,-9.98351 L -4.70613,-10.0942
 L -4.84344,-10.2232 L -4.96352,-10.3683 z
M -18.8442,-9.75294 L -19.0311,-9.77657 L -19.2135,-9.82341 L -19.3887,-9.89275 L -19.5537,-9.98351 L -19.7061,-10.0942
 L -19.8434,-10.2232 L -19.9635,-10.3683 L -20.0645,-10.5274 L -20.1447,-10.6978 L -20.2029,-10.877 L -20.2382,-11.062
 L -20.25,-11.25 L -20.2382,-11.438 L -20.2029,-11.623 L -20.1447,-11.8022 L -20.0645,-11.9726 L -19.9635,-12.1317
 L -19.8434,-12.2768 L -19.7061,-12.4058 L -19.5537,-12.5165 L -19.3887,-12.6072 L -19.2135,-12.6766 L -19.0311,-12.7234
 L -18.8442,-12.747 L -18.6558,-12.747 L -18.4689,-12.7234 L -18.2865,-12.6766 L -18.1113,-12.6072 L -17.9463,-12.5165
 L -17.7939,-12.4058 L -17.6565,-12.2768 L -17.5365,-12.1317 L -17.4355,-11.9726 L -17.3553,-11.8022 L -17.2971,-11.623
 L -17.2618,-11.438 L -17.25,-11.25 L -17.2618,-11.062 L -17.2971,-10.877 L -17.3553,-10.6978 L -17.4355,-10.5274
 L -17.5365,-10.3683 L -17.6565,-10.2232 L -17.7939,-10.0942 L -17.9463,-9.98351 L -18.1113,-9.89275 L -18.2865,-9.82341
 L -18.4689,-9.77657 L -18.6558,-9.75294 z
M 18.6558,-9.75294 L 18.4689,-9.77657 L 18.2865,-9.82341 L 18.1113,-9.89275 L 17.9463,-9.98351 L 17.7939,-10.0942
 L 17.6565,-10.2232 L 17.5365,-10.3683 L 17.4355,-10.5274 L 17.3553,-10.6978 L 17.2971,-10.877 L 17.2618,-11.062
 L 17.25,-11.25 L 17.2618,-11.438 L 17.2971,-11.623 L 17.3553,-11.8022 L 17.4355,-11.9726 L 17.5365,-12.1317
 L 17.6565,-12.2768 L 17.7939,-12.4058 L 17.9463,-12.5165 L 18.1113,-12.6072 L 18.2865,-12.6766 L 18.4689,-12.7234
 L 18.6558,-12.747 L 18.8442,-12.747 L 19.0311,-12.7234 L 19.2135,-12.6766 L 19.3887,-12.6072 L 19.5537,-12.5165
 L 19.7061,-12.4058 L 19.8434,-12.2768 L 19.9635,-12.1317 L 20.0645,-11.9726 L 20.1447,-11.8022 L 20.2029,-11.623
 L 20.2382,-11.438 L 20.25,-11.25 L 20.2382,-11.062 L 20.2029,-10.877 L 20.1447,-10.6978 L 20.0645,-10.5274
 L 19.9635,-10.3683 L 19.8434,-10.2232 L 19.7061,-10.0942 L 19.5537,-9.98351 L 19.3887,-9.89275 L 19.2135,-9.82341
 L 19.0311,-9.77657 L 18.8442,-9.75294 z
M 3.65581,-9.75294 L 3.46892,-9.77657 L 3.28647,-9.82341 L 3.11133,-9.89275 L 2.94626,-9.98351 L 2.79385,-10.0942
 L 2.65654,-10.2232 L 2.53647,-10.3683 L 2.43553,-10.5274 L 2.35533,-10.6978 L 2.29712,-10.877 L 2.26183,-11.062
 L 2.25,-11.25 L 2.26183,-11.438 L 2.29712,-11.623 L 2.35533,-11.8022 L 2.43553,-11.9726 L 2.53647,-12.1317
 L 2.65654,-12.2768 L 2.79385,-12.4058 L 2.94626,-12.5165 L 3.11133,-12.6072 L 3.28647,-12.6766 L 3.46892,-12.7234
 L 3.65581,-12.747 L 3.84418,-12.747 L 4.03107,-12.7234 L 4.21352,-12.6766 L 4.38866,-12.6072 L 4.55373,-12.5165
 L 4.70613,-12.4058 L 4.84344,-12.2768 L 4.96352,-12.1317 L 5.06445,-11.9726 L 5.14465,-11.8022 L 5.20287,-11.623
 L 5.23816,-11.438 L 5.25,-11.25 L 5.23816,-11.062 L 5.20287,-10.877 L 5.14465,-10.6978 L 5.06445,-10.5274
 L 4.96352,-10.3683 L 4.84344,-10.2232 L 4.70613,-10.0942 L 4.55373,-9.98351 L 4.38866,-9.89275 L 4.21352,-9.82341
 L 4.03107,-9.77657 L 3.84418,-9.75294 z
M 11.1558,-9.75294 L 10.9689,-9.77657 L 10.7865,-9.82341 L 10.6113,-9.89275 L 10.4463,-9.98351 L 10.2939,-10.0942
 L 10.1565,-10.2232 L 10.0365,-10.3683 L 9.93553,-10.5274 L 9.85533,-10.6978 L 9.79712,-10.877 L 9.76183,-11.062
 L 9.75,-11.25 L 9.76183,-11.438 L 9.79712,-11.623 L 9.85533,-11.8022 L 9.93553,-11.9726 L 10.0365,-12.1317
 L 10.1565,-12.2768 L 10.2939,-12.4058 L 10.4463,-12.5165 L 10.6113,-12.6072 L 10.7865,-12.6766 L 10.9689,-12.7234
 L 11.1558,-12.747 L 11.3442,-12.747 L 11.5311,-12.7234 L 11.7135,-12.6766 L 11.8887,-12.6072 L 12.0537,-12.5165
 L 12.2061,-12.4058 L 12.3434,-12.2768 L 12.4635,-12.1317 L 12.5645,-11.9726 L 12.6447,-11.8022 L 12.7029,-11.623
 L 12.7382,-11.438 L 12.75,-11.25 L 12.7382,-11.062 L 12.7029,-10.877 L 12.6447,-10.6978 L 12.5645,-10.5274
 L 12.4635,-10.3683 L 12.3434,-10.2232 L 12.2061,-10.0942 L 12.0537,-9.98351 L 11.8887,-9.89275 L 11.7135,-9.82341
 L 11.5311,-9.77657 L 11.3442,-9.75294 z
M 11.1558,-2.25294 L 10.9689,-2.27657 L 10.7865,-2.32341 L 10.6113,-2.39275 L 10.4463,-2.48351 L 10.2939,-2.59422
 L 10.1565,-2.72318 L 10.0365,-2.86832 L 9.93553,-3.02736 L 9.85533,-3.1978 L 9.79712,-3.37695 L 9.76183,-3.562
 L 9.75,-3.75 L 9.76183,-3.93799 L 9.79712,-4.12303 L 9.85533,-4.30219 L 9.93553,-4.47263 L 10.0365,-4.63167
 L 10.1565,-4.77681 L 10.2939,-4.90576 L 10.4463,-5.01648 L 10.6113,-5.10724 L 10.7865,-5.17657 L 10.9689,-5.22342
 L 11.1558,-5.24704 L 11.3442,-5.24704 L 11.5311,-5.22342 L 11.7135,-5.17657 L 11.8887,-5.10724 L 12.0537,-5.01648
 L 12.2061,-4.90576 L 12.3434,-4.77681 L 12.4635,-4.63167 L 12.5645,-4.47263 L 12.6447,-4.30219 L 12.7029,-4.12303
 L 12.7382,-3.93799 L 12.75,-3.75 L 12.7382,-3.562 L 12.7029,-3.37695 L 12.6447,-3.1978 L 12.5645,-3.02736
 L 12.4635,-2.86832 L 12.3434,-2.72318 L 12.2061,-2.59422 L 12.0537,-2.48351 L 11.8887,-2.39275 L 11.7135,-2.32341
 L 11.5311,-2.27657 L 11.3442,-2.25294 z
M -11.3442,-2.25294 L -11.5311,-2.27657 L -11.7135,-2.32341 L -11.8887,-2.39275 L -12.0537,-2.48351 L -12.2061,-2.59422
 L -12.3434,-2.72318 L -12.4635,-2.86832 L -12.5645,-3.02736 L -12.6447,-3.1978 L -12.7029,-3.37695 L -12.7382,-3.562
 L -12.75,-3.75 L -12.7382,-3.93799 L -12.7029,-4.12303 L -12.6447,-4.30219 L -12.5645,-4.47263 L -12.4635,-4.63167
 L -12.3434,-4.77681 L -12.2061,-4.90576 L -12.0537,-5.01648 L -11.8887,-5.10724 L -11.7135,-5.17657 L -11.5311,-5.22342
 L -11.3442,-5.24704 L -11.1558,-5.24704 L -10.9689,-5.22342 L -10.7865,-5.17657 L -10.6113,-5.10724 L -10.4463,-5.01648
 L -10.2939,-4.90576 L -10.1565,-4.77681 L -10.0365,-4.63167 L -9.93553,-4.47263 L -9.85533,-4.30219 L -9.79712,-4.12303
 L -9.76183,-3.93799 L -9.75,-3.75 L -9.76183,-3.562 L -9.79712,-3.37695 L -9.85533,-3.1978 L -9.93553,-3.02736
 L -10.0365,-2.86832 L -10.1565,-2.72318 L -10.2939,-2.59422 L -10.4463,-2.48351 L -10.6113,-2.39275 L -10.7865,-2.32341
 L -10.9689,-2.27657 L -11.1558,-2.25294 z
M -3.84418,-2.25294 L -4.03107,-2.27657 L -4.21352,-2.32341 L -4.38866,-2.39275 L -4.55373,-2.48351 L -4.70613,-2.59422
 L -4.84344,-2.72318 L -4.96352,-2.86832 L -5.06445,-3.02736 L -5.14465,-3.1978 L -5.20287,-3.37695 L -5.23816,-3.562
 L -5.25,-3.75 L -5.23816,-3.93799 L -5.20287,-4.12303 L -5.14465,-4.30219 L -5.06445,-4.47263 L -4.96352,-4.63167
 L -4.84344,-4.77681 L -4.70613,-4.90576 L -4.55373,-5.01648 L -4.38866,-5.10724 L -4.21352,-5.17657 L -4.03107,-5.22342
 L -3.84418,-5.24704 L -3.65581,-5.24704 L -3.46892,-5.22342 L -3.28647,-5.17657 L -3.11133,-5.10724 L -2.94626,-5.01648
 L -2.79385,-4.90576 L -2.65654,-4.77681 L -2.53647,-4.63167 L -2.43553,-4.47263 L -2.35533,-4.30219 L -2.29712,-4.12303
 L -2.26183,-3.93799 L -2.25,-3.75 L -2.26183,-3.562 L -2.29712,-3.37695 L -2.35533,-3.1978 L -2.43553,-3.02736
 L -2.53647,-2.86832 L -2.65654,-2.72318 L -2.79385,-2.59422 L -2.94626,-2.48351 L -3.11133,-2.39275 L -3.28647,-2.32341
 L -3.46892,-2.27657 L -3.65581,-2.25294 z
M 3.65581,-2.25294 L 3.46892,-2.27657 L 3.28647,-2.32341 L 3.11133,-2.39275 L 2.94626,-2.48351 L 2.79385,-2.59422
 L 2.65654,-2.72318 L 2.53647,-2.86832 L 2.43553,-3.02736 L 2.35533,-3.1978 L 2.29712,-3.37695 L 2.26183,-3.562
 L 2.25,-3.75 L 2.26183,-3.93799 L 2.29712,-4.12303 L 2.35533,-4.30219 L 2.43553,-4.47263 L 2.53647,-4.63167
 L 2.65654,-4.77681 L 2.79385,-4.90576 L 2.94626,-5.01648 L 3.11133,-5.10724 L 3.28647,-5.17657 L 3.46892,-5.22342
 L 3.65581,-5.24704 L 3.84418,-5.24704 L 4.03107,-5.22342 L 4.21352,-5.17657 L 4.38866,-5.10724 L 4.55373,-5.01648
 L 4.70613,-4.90576 L 4.84344,-4.77681 L 4.96352,-4.63167 L 5.06445,-4.47263 L 5.14465,-4.30219 L 5.20287,-4.12303
 L 5.23816,-3.93799 L 5.25,-3.75 L 5.23816,-3.562 L 5.20287,-3.37695 L 5.14465,-3.1978 L 5.06445,-3.02736
 L 4.96352,-2.86832 L 4.84344,-2.72318 L 4.70613,-2.59422 L 4.55373,-2.48351 L 4.38866,-2.39275 L 4.21352,-2.32341
 L 4.03107,-2.27657 L 3.84418,-2.25294 z
M -18.8442,-2.25294 L -19.0311,-2.27657 L -19.2135,-2.32341 L -19.3887,-2.39275 L -19.5537,-2.48351 L -19.7061,-2.59422
 L -19.8434,-2.72318 L -19.9635,-2.86832 L -20.0645,-3.02736 L -20.1447,-3.1978 L -20.2029,-3.37695 L -20.2382,-3.562
 L -20.25,-3.75 L -20.2382,-3.93799 L -20.2029,-4.12303 L -20.1447,-4.30219 L -20.0645,-4.47263 L -19.9635,-4.63167
 L -19.8434,-4.77681 L -19.7061,-4.90576 L -19.5537,-5.01648 L -19.3887,-5.10724 L -19.2135,-5.17657 L -19.0311,-5.22342
 L -18.8442,-5.24704 L -18.6558,-5.24704 L -18.4689,-5.22342 L -18.2865,-5.17657 L -18.1113,-5.10724 L -17.9463,-5.01648
 L -17.7939,-4.90576 L -17.6565,-4.77681 L -17.5365,-4.63167 L -17.4355,-4.47263 L -17.3553,-4.30219 L -17.2971,-4.12303
 L -17.2618,-3.93799 L -17.25,-3.75 L -17.2618,-3.562 L -17.2971,-3.37695 L -17.3553,-3.1978 L -17.4355,-3.02736
 L -17.5365,-2.86832 L -17.6565,-2.72318 L -17.7939,-2.59422 L -17.9463,-2.48351 L -18.1113,-2.39275 L -18.2865,-2.32341
 L -18.4689,-2.27657 L -18.6558,-2.25294 z
M 18.6558,-2.25294 L 18.4689,-2.27657 L 18.2865,-2.32341 L 18.1113,-2.39275 L 17.9463,-2.48351 L 17.7939,-2.59422
 L 17.6565,-2.72318 L 17.5365,-2.86832 L 17.4355,-3.02736 L 17.3553,-3.1978 L 17.2971,-3.37695 L 17.2618,-3.562
 L 17.25,-3.75 L 17.2618,-3.93799 L 17.2971,-4.12303 L 17.3553,-4.30219 L 17.4355,-4.47263 L 17.5365,-4.63167
 L 17.6565,-4.77681 L 17.7939,-4.90576 L 17.9463,-5.01648 L 18.1113,-5.10724 L 18.2865,-5.17657 L 18.4689,-5.22342
 L 18.6558,-5.24704 L 18.8442,-5.24704 L 19.0311,-5.22342 L 19.2135,-5.17657 L 19.3887,-5.10724 L 19.5537,-5.01648
 L 19.7061,-4.90576 L 19.8434,-4.77681 L 19.9635,-4.63167 L 20.0645,-4.47263 L 20.1447,-4.30219 L 20.2029,-4.12303
 L 20.2382,-3.93799 L 20.25,-3.75 L 20.2382,-3.562 L 20.2029,-3.37695 L 20.1447,-3.1978 L 20.0645,-3.02736
 L 19.9635,-2.86832 L 19.8434,-2.72318 L 19.7061,-2.59422 L 19.5537,-2.48351 L 19.3887,-2.39275 L 19.2135,-2.32341
 L 19.0311,-2.27657 L 18.8442,-2.25294 z
M -11.3442,5.24704 L -11.5311,5.22342 L -11.7135,5.17657 L -11.8887,5.10724 L -12.0537,5.01648 L -12.2061,4.90576
 L -12.3434,4.77681 L -12.4635,4.63167 L -12.5645,4.47263 L -12.6447,4.30219 L -12.7029,4.12303 L -12.7382,3.93799
 L -12.75,3.75 L -12.7382,3.562 L -12.7029,3.37695 L -12.6447,3.1978 L -12.5645,3.02736 L -12.4635,2.86832
 L -12.3434,2.72318 L -12.2061,2.59422 L -12.0537,2.48351 L -11.8887,2.39275 L -11.7135,2.32341 L -11.5311,2.27657
 L -11.3442,2.25294 L -11.1558,2.25294 L -10.9689,2.27657 L -10.7865,2.32341 L -10.6113,2.39275 L -10.4463,2.48351
 L -10.2939,2.59422 L -10.1565,2.72318 L -10.0365,2.86832 L -9.93553,3.02736 L -9.85533,3.1978 L -9.79712,3.37695
 L -9.76183,3.562 L -9.75,3.75 L -9.76183,3.93799 L -9.79712,4.12303 L -9.85533,4.30219 L -9.93553,4.47263
 L -10.0365,4.63167 L -10.1565,4.77681 L -10.2939,4.90576 L -10.4463,5.01648 L -10.6113,5.10724 L -10.7865,5.17657
 L -10.9689,5.22342 L -11.1558,5.24704 z
M 11.1558,5.24704 L 10.9689,5.22342 L 10.7865,5.17657 L 10.6113,5.10724 L 10.4463,5.01648 L 10.2939,4.90576
 L 10.1565,4.77681 L 10.0365,4.63167 L 9.93553,4.47263 L 9.85533,4.30219 L 9.79712,4.12303 L 9.76183,3.93799
 L 9.75,3.75 L 9.76183,3.562 L 9.79712,3.37695 L 9.85533,3.1978 L 9.93553,3.02736 L 10.0365,2.86832
 L 10.1565,2.72318 L 10.2939,2.59422 L 10.4463,2.48351 L 10.6113,2.39275 L 10.7865,2.32341 L 10.9689,2.27657
 L 11.1558,2.25294 L 11.3442,2.25294 L 11.5311,2.27657 L 11.7135,2.32341 L 11.8887,2.39275 L 12.0537,2.48351
 L 12.2061,2.59422 L 12.3434,2.72318 L 12.4635,2.86832 L 12.5645,3.02736 L 12.6447,3.1978 L 12.7029,3.37695
 L 12.7382,3.562 L 12.75,3.75 L 12.7382,3.93799 L 12.7029,4.12303 L 12.6447,4.30219 L 12.5645,4.47263
 L 12.4635,4.63167 L 12.3434,4.77681 L 12.2061,4.90576 L 12.0537,5.01648 L 11.8887,5.10724 L 11.7135,5.17657
 L 11.5311,5.22342 L 11.3442,5.24704 z
M 3.65581,5.24704 L 3.46892,5.22342 L 3.28647,5.17657 L 3.11133,5.10724 L 2.94626,5.01648 L 2.79385,4.90576
 L 2.65654,4.77681 L 2.53647,4.63167 L 2.43553,4.47263 L 2.35533,4.30219 L 2.29712,4.12303 L 2.26183,3.93799
 L 2.25,3.75 L 2.26183,3.562 L 2.29712,3.37695 L 2.35533,3.1978 L 2.43553,3.02736 L 2.53647,2.86832
 L 2.65654,2.72318 L 2.79385,2.59422 L 2.94626,2.48351 L 3.11133,2.39275 L 3.28647,2.32341 L 3.46892,2.27657
 L 3.65581,2.25294 L 3.84418,2.25294 L 4.03107,2.27657 L 4.21352,2.32341 L 4.38866,2.39275 L 4.55373,2.48351
 L 4.70613,2.59422 L 4.84344,2.72318 L 4.96352,2.86832 L 5.06445,3.02736 L 5.14465,3.1978 L 5.20287,3.37695
 L 5.23816,3.562 L 5.25,3.75 L 5.23816,3.93799 L 5.20287,4.12303 L 5.14465,4.30219 L 5.06445,4.47263
 L 4.96352,4.63167 L 4.84344,4.77681 L 4.70613,4.90576 L 4.55373,5.01648 L 4.38866,5.10724 L 4.21352,5.17657
 L 4.03107,5.22342 L 3.84418,5.24704 z
M -3.84418,5.24704 L -4.03107,5.22342 L -4.21352,5.17657 L -4.38866,5.10724 L -4.55373,5.01648 L -4.70613,4.90576
 L -4.84344,4.77681 L -4.96352,4.63167 L -5.06445,4.47263 L -5.14465,4.30219 L -5.20287,4.12303 L -5.23816,3.93799
 L -5.25,3.75 L -5.23816,3.562 L -5.20287,3.37695 L -5.14465,3.1978 L -5.06445,3.02736 L -4.96352,2.86832
 L -4.84344,2.72318 L -4.70613,2.59422 L -4.55373,2.48351 L -4.38866,2.39275 L -4.21352,2.32341 L -4.03107,2.27657
 L -3.84418,2.25294 L -3.65581,2.25294 L -3.46892,2.27657 L -3.28647,2.32341 L -3.11133,2.39275 L -2.94626,2.48351
 L -2.79385,2.59422 L -2.65654,2.72318 L -2.53647,2.86832 L -2.43553,3.02736 L -2.35533,3.1978 L -2.29712,3.37695
 L -2.26183,3.562 L -2.25,3.75 L -2.26183,3.93799 L -2.29712,4.12303 L -2.35533,4.30219 L -2.43553,4.47263
 L -2.53647,4.63167 L -2.65654,4.77681 L -2.79385,4.90576 L -2.94626,5.01648 L -3.11133,5.10724 L -3.28647,5.17657
 L -3.46892,5.22342 L -3.65581,5.24704 z
M -18.8442,5.24704 L -19.0311,5.22342 L -19.2135,5.17657 L -19.3887,5.10724 L -19.5537,5.01648 L -19.7061,4.90576
 L -19.8434,4.77681 L -19.9635,4.63167 L -20.0645,4.47263 L -20.1447,4.30219 L -20.2029,4.12303 L -20.2382,3.93799
 L -20.25,3.75 L -20.2382,3.562 L -20.2029,3.37695 L -20.1447,3.1978 L -20.0645,3.02736 L -19.9635,2.86832
 L -19.8434,2.72318 L -19.7061,2.59422 L -19.5537,2.48351 L -19.3887,2.39275 L -19.2135,2.32341 L -19.0311,2.27657
 L -18.8442,2.25294 L -18.6558,2.25294 L -18.4689,2.27657 L -18.2865,2.32341 L -18.1113,2.39275 L -17.9463,2.48351
 L -17.7939,2.59422 L -17.6565,2.72318 L -17.5365,2.86832 L -17.4355,3.02736 L -17.3553,3.1978 L -17.2971,3.37695
 L -17.2618,3.562 L -17.25,3.75 L -17.2618,3.93799 L -17.2971,4.12303 L -17.3553,4.30219 L -17.4355,4.47263
 L -17.5365,4.63167 L -17.6565,4.77681 L -17.7939,4.90576 L -17.9463,5.01648 L -18.1113,5.10724 L -18.2865,5.17657
 L -18.4689,5.22342 L -18.6558,5.24704 z
M 18.6558,5.24704 L 18.4689,5.22342 L 18.2865,5.17657 L 18.1113,5.10724 L 17.9463,5.01648 L 17.7939,4.90576
 L 17.6565,4.77681 L 17.5365,4.63167 L 17.4355,4.47263 L 17.3553,4.30219 L 17.2971,4.12303 L 17.2618,3.93799
 L 17.25,3.75 L 17.2618,3.562 L 17.2971,3.37695 L 17.3553,3.1978 L 17.4355,3.02736 L 17.5365,2.86832
 L 17.6565,2.72318 L 17.7939,2.59422 L 17.9463,2.48351 L 18.1113,2.39275 L 18.2865,2.32341 L 18.4689,2.27657
 L 18.6558,2.25294 L 18.8442,2.25294 L 19.0311,2.27657 L 19.2135,2.32341 L 19.3887,2.39275 L 19.5537,2.48351
 L 19.7061,2.59422 L 19.8434,2.72318 L 19.9635,2.86832 L 20.0645,3.02736 L 20.1447,3.1978 L 20.2029,3.37695
 L 20.2382,3.562 L 20.25,3.75 L 20.2382,3.93799 L 20.2029,4.12303 L 20.1447,4.30219 L 20.0645,4.47263
 L 19.9635,4.63167 L 19.8434,4.77681 L 19.7061,4.90576 L 19.5537,5.01648 L 19.3887,5.10724 L 19.2135,5.17657
 L 19.0311,5.22342 L 18.8442,5.24704 z
M 11.1558,12.747 L 10.9689,12.7234 L 10.7865,12.6766 L 10.6113,12.6072 L 10.4463,12.5165 L 10.2939,12.4058
 L 10.1565,12.2768 L 10.0365,12.1317 L 9.93553,11.9726 L 9.85533,11.8022 L 9.79712,11.623 L 9.76183,11.438
 L 9.75,11.25 L 9.76183,11.062 L 9.79712,10.877 L 9.85533,10.6978 L 9.93553,10.5274 L 10.0365,10.3683
 L 10.1565,10.2232 L 10.2939,10.0942 L 10.4463,9.98351 L 10.6113,9.89275 L 10.7865,9.82341 L 10.9689,9.77657
 L 11.1558,9.75294 L 11.3442,9.75294 L 11.5311,9.77657 L 11.7135,9.82341 L 11.8887,9.89275 L 12.0537,9.98351
 L 12.2061,10.0942 L 12.3434,10.2232 L 12.4635,10.3683 L 12.5645,10.5274 L 12.6447,10.6978 L 12.7029,10.877
 L 12.7382,11.062 L 12.75,11.25 L 12.7382,11.438 L 12.7029,11.623 L 12.6447,11.8022 L 12.5645,11.9726
 L 12.4635,12.1317 L 12.3434,12.2768 L 12.2061,12.4058 L 12.0537,12.5165 L 11.8887,12.6072 L 11.7135,12.6766
 L 11.5311,12.7234 L 11.3442,12.747 z
M 3.65581,12.747 L 3.46892,12.7234 L 3.28647,12.6766 L 3.11133,12.6072 L 2.94626,12.5165 L 2.79385,12.4058
 L 2.65654,12.2768 L 2.53647,12.1317 L 2.43553,11.9726 L 2.35533,11.8022 L 2.29712,11.623 L 2.26183,11.438
 L 2.25,11.25 L 2.26183,11.062 L 2.29712,10.877 L 2.35533,10.6978 L 2.43553,10.5274 L 2.53647,10.3683
 L 2.65654,10.2232 L 2.79385,10.0942 L 2.94626,9.98351 L 3.11133,9.89275 L 3.28647,9.82341 L 3.46892,9.77657
 L 3.65581,9.75294 L 3.84418,9.75294 L 4.03107,9.77657 L 4.21352,9.82341 L 4.38866,9.89275 L 4.55373,9.98351
 L 4.70613,10.0942 L 4.84344,10.2232 L 4.96352,10.3683 L 5.06445,10.5274 L 5.14465,10.6978 L 5.20287,10.877
 L 5.23816,11.062 L 5.25,11.25 L 5.23816,11.438 L 5.20287,11.623 L 5.14465,11.8022 L 5.06445,11.9726
 L 4.96352,12.1317 L 4.84344,12.2768 L 4.70613,12.4058 L 4.55373,12.5165 L 4.38866,12.6072 L 4.21352,12.6766
 L 4.03107,12.7234 L 3.84418,12.747 z
M -18.8442,12.747 L -19.0311,12.7234 L -19.2135,12.6766 L -19.3887,12.6072 L -19.5537,12.5165 L -19.7061,12.4058
 L -19.8434,12.2768 L -19.9635,12.1317 L -20.0645,11.9726 L -20.1447,11.8022 L -20.2029,11.623 L -20.2382,11.438
 L -20.25,11.25 L -20.2382,11.062 L -20.2029,10.877 L -20.1447,10.6978 L -20.0645,10.5274 L -19.9635,10.3683
 L -19.8434,10.2232 L -19.7061,10.0942 L -19.5537,9.98351 L -19.3887,9.89275 L -19.2135,9.82341 L -19.0311,9.77657
 L -18.8442,9.75294 L -18.6558,9.75294 L -18.4689,9.77657 L -18.2865,9.82341 L -18.1113,9.89275 L -17.9463,9.98351
 L -17.7939,10.0942 L -17.6565,10.2232 L -17.5365,10.3683 L -17.4355,10.5274 L -17.3553,10.6978 L -17.2971,10.877
 L -17.2618,11.062 L -17.25,11.25 L -17.2618,11.438 L -17.2971,11.623 L -17.3553,11.8022 L -17.4355,11.9726
 L -17.5365,12.1317 L -17.6565,12.2768 L -17.7939,12.4058 L -17.9463,12.5165 L -18.1113,12.6072 L -18.2865,12.6766
 L -18.4689,12.7234 L -18.6558,12.747 z
M 18.6558,12.747 L 18.4689,12.7234 L 18.2865,12.6766 L 18.1113,12.6072 L 17.9463,12.5165 L 17.7939,12.4058
 L 17.6565,12.2768 L 17.5365,12.1317 L 17.4355,11.9726 L 17.3553,11.8022 L 17.2971,11.623 L 17.2618,11.438
 L 17.25,11.25 L 17.2618,11.062 L 17.2971,10.877 L 17.3553,10.6978 L 17.4355,10.5274 L 17.5365,10.3683
 L 17.6565,10.2232 L 17.7939,10.0942 L 17.9463,9.98351 L 18.1113,9.89275 L 18.2865,9.82341 L 18.4689,9.77657
 L 18.6558,9.75294 L 18.8442,9.75294 L 19.0311,9.77657 L 19.2135,9.82341 L 19.3887,9.89275 L 19.5537,9.98351
 L 19.7061,10.0942 L 19.8434,10.2232 L 19.9635,10.3683 L 20.0645,10.5274 L 20.1447,10.6978 L 20.2029,10.877
 L 20.2382,11.062 L 20.25,11.25 L 20.2382,11.438 L 20.2029,11.623 L 20.1447,11.8022 L 20.0645,11.9726
 L 19.9635,12.1317 L 19.8434,12.2768 L 19.7061,12.4058 L 19.5537,12.5165 L 19.3887,12.6072 L 19.2135,12.6766
 L 19.0311,12.7234 L 18.8442,12.747 z
M -11.3442,12.747 L -11.5311,12.7234 L -11.7135,12.6766 L -11.8887,12.6072 L -12.0537,12.5165 L -12.2061,12.4058
 L -12.3434,12.2768 L -12.4635,12.1317 L -12.5645,11.9726 L -12.6447,11.8022 L -12.7029,11.623 L -12.7382,11.438
 L -12.75,11.25 L -12.7382,11.062 L -12.7029,10.877 L -12.6447,10.6978 L -12.5645,10.5274 L -12.4635,10.3683
 L -12.3434,10.2232 L -12.2061,10.0942 L -12.0537,9.98351 L -11.8887,9.89275 L -11.7135,9.82341 L -11.5311,9.77657
 L -11.3442,9.75294 L -11.1558,9.75294 L -10.9689,9.77657 L -10.7865,9.82341 L -10.6113,9.89275 L -10.4463,9.98351
 L -10.2939,10.0942 L -10.1565,10.2232 L -10.0365,10.3683 L -9.93553,10.5274 L -9.85533,10.6978 L -9.79712,10.877
 L -9.76183,11.062 L -9.75,11.25 L -9.76183,11.438 L -9.79712,11.623 L -9.85533,11.8022 L -9.93553,11.9726
 L -10.0365,12.1317 L -10.1565,12.2768 L -10.2939,12.4058 L -10.4463,12.5165 L -10.6113,12.6072 L -10.7865,12.6766
 L -10.9689,12.7234 L -11.1558,12.747 z
M -3.84418,12.747 L -4.03107,12.7234 L -4.21352,12.6766 L -4.38866,12.6072 L -4.55373,12.5165 L -4.70613,12.4058
 L -4.84344,12.2768 L -4.96352,12.1317 L -5.06445,11.9726 L -5.14465,11.8022 L -5.20287,11.623 L -5.23816,11.438
 L -5.25,11.25 L -5.23816,11.062 L -5.20287,10.877 L -5.14465,10.6978 L -5.06445,10.5274 L -4.96352,10.3683
 L -4.84344,10.2232 L -4.70613,10.0942 L -4.55373,9.98351 L -4.38866,9.89275 L -4.21352,9.82341 L -4.03107,9.77657
 L -3.84418,9.75294 L -3.65581,9.75294 L -3.46892,9.77657 L -3.28647,9.82341 L -3.11133,9.89275 L -2.94626,9.98351
 L -2.79385,10.0942 L -2.65654,10.2232 L -2.53647,10.3683 L -2.43553,10.5274 L -2.35533,10.6978 L -2.29712,10.877
 L -2.26183,11.062 L -2.25,11.25 L -2.26183,11.438 L -2.29712,11.623 L -2.35533,11.8022 L -2.43553,11.9726
 L -2.53647,12.1317 L -2.65654,12.2768 L -2.79385,12.4058 L -2.94626,12.5165 L -3.11133,12.6072 L -3.28647,12.6766
 L -3.46892,12.7234 L -3.65581,12.747 z
M 11.1558,20.247 L 10.9689,20.2234 L 10.7865,20.1766 L 10.6113,20.1072 L 10.4463,20.0165 L 10.2939,19.9058
 L 10.1565,19.7768 L 10.0365,19.6317 L 9.93553,19.4726 L 9.85533,19.3022 L 9.79712,19.123 L 9.76183,18.938
 L 9.75,18.75 L 9.76183,18.562 L 9.79712,18.377 L 9.85533,18.1978 L 9.93553,18.0274 L 10.0365,17.8683
 L 10.1565,17.7232 L 10.2939,17.5942 L 10.4463,17.4835 L 10.6113,17.3927 L 10.7865,17.3234 L 10.9689,17.2766
 L 11.1558,17.253 L 11.3442,17.253 L 11.5311,17.2766 L 11.7135,17.3234 L 11.8887,17.3927 L 12.0537,17.4835
 L 12.2061,17.5942 L 12.3434,17.7232 L 12.4635,17.8683 L 12.5645,18.0274 L 12.6447,18.1978 L 12.7029,18.377
 L 12.7382,18.562 L 12.75,18.75 L 12.7382,18.938 L 12.7029,19.123 L 12.6447,19.3022 L 12.5645,19.4726
 L 12.4635,19.6317 L 12.3434,19.7768 L 12.2061,19.9058 L 12.0537,20.0165 L 11.8887,20.1072 L 11.7135,20.1766
 L 11.5311,20.2234 L 11.3442,20.247 z
M -3.84418,20.247 L -4.03107,20.2234 L -4.21352,20.1766 L -4.38866,20.1072 L -4.55373,20.0165 L -4.70613,19.9058
 L -4.84344,19.7768 L -4.96352,19.6317 L -5.06445,19.4726 L -5.14465,19.3022 L -5.20287,19.123 L -5.23816,18.938
 L -5.25,18.75 L -5.23816,18.562 L -5.20287,18.377 L -5.14465,18.1978 L -5.06445,18.0274 L -4.96352,17.8683
 L -4.84344,17.7232 L -4.70613,17.5942 L -4.55373,17.4835 L -4.38866,17.3927 L -4.21352,17.3234 L -4.03107,17.2766
 L -3.84418,17.253 L -3.65581,17.253 L -3.46892,17.2766 L -3.28647,17.3234 L -3.11133,17.3927 L -2.94626,17.4835
 L -2.79385,17.5942 L -2.65654,17.7232 L -2.53647,17.8683 L -2.43553,18.0274 L -2.35533,18.1978 L -2.29712,18.377
 L -2.26183,18.562 L -2.25,18.75 L -2.26183,18.938 L -2.29712,19.123 L -2.35533,19.3022 L -2.43553,19.4726
 L -2.53647,19.6317 L -2.65654,19.7768 L -2.79385,19.9058 L -2.94626,20.0165 L -3.11133,20.1072 L -3.28647,20.1766
 L -3.46892,20.2234 L -3.65581,20.247 z
M -18.8442,20.247 L -19.0311,20.2234 L -19.2135,20.1766 L -19.3887,20.1072 L -19.5537,20.0165 L -19.7061,19.9058
 L -19.8434,19.7768 L -19.9635,19.6317 L -20.0645,19.4726 L -20.1447,19.3022 L -20.2029,19.123 L -20.2382,18.938
 L -20.25,18.75 L -20.2382,18.562 L -20.2029,18.377 L -20.1447,18.1978 L -20.0645,18.0274 L -19.9635,17.8683
 L -19.8434,17.7232 L -19.7061,17.5942 L -19.5537,17.4835 L -19.3887,17.3927 L -19.2135,17.3234 L -19.0311,17.2766
 L -18.8442,17.253 L -18.6558,17.253 L -18.4689,17.2766 L -18.2865,17.3234 L -18.1113,17.3927 L -17.9463,17.4835
 L -17.7939,17.5942 L -17.6565,17.7232 L -17.5365,17.8683 L -17.4355,18.0274 L -17.3553,18.1978 L -17.2971,18.377
 L -17.2618,18.562 L -17.25,18.75 L -17.2618,18.938 L -17.2971,19.123 L -17.3553,19.3022 L -17.4355,19.4726
 L -17.5365,19.6317 L -17.6565,19.7768 L -17.7939,19.9058 L -17.9463,20.0165 L -18.1113,20.1072 L -18.2865,20.1766
 L -18.4689,20.2234 L -18.6558,20.247 z
M 3.65581,20.247 L 3.46892,20.2234 L 3.28647,20.1766 L 3.11133,20.1072 L 2.94626,20.0165 L 2.79385,19.9058
 L 2.65654,19.7768 L 2.53647,19.6317 L 2.43553,19.4726 L 2.35533,19.3022 L 2.29712,19.123 L 2.26183,18.938
 L 2.25,18.75 L 2.26183,18.562 L 2.29712,18.377 L 2.35533,18.1978 L 2.43553,18.0274 L 2.53647,17.8683
 L 2.65654,17.7232 L 2.79385,17.5942 L 2.94626,17.4835 L 3.11133,17.3927 L 3.28647,17.3234 L 3.46892,17.2766
 L 3.65581,17.253 L 3.84418,17.253 L 4.03107,17.2766 L 4.21352,17.3234 L 4.38866,17.3927 L 4.55373,17.4835
 L 4.70613,17.5942 L 4.84344,17.7232 L 4.96352,17.8683 L 5.06445,18.0274 L 5.14465,18.1978 L 5.20287,18.377
 L 5.23816,18.562 L 5.25,18.75 L 5.23816,18.938 L 5.20287,19.123 L 5.14465,19.3022 L 5.06445,19.4726
 L 4.96352,19.6317 L 4.84344,19.7768 L 4.70613,19.9058 L 4.55373,20.0165 L 4.38866,20.1072 L 4.21352,20.1766
 L 4.03107,20.2234 L 3.84418,20.247 z
M 18.6558,20.247 L 18.4689,20.2234 L 18.2865,20.1766 L 18.1113,20.1072 L 17.9463,20.0165 L 17.7939,19.9058
 L 17.6565,19.7768 L 17.5365,19.6317 L 17.4355,19.4726 L 17.3553,19.3022 L 17.2971,19.123 L 17.2618,18.938
 L 17.25,18.75 L 17.2618,18.562 L 17.2971,18.377 L 17.3553,18.1978 L 17.4355,18.0274 L 17.5365,17.8683
 L 17.6565,17.7232 L 17.7939,17.5942 L 17.9463,17.4835 L 18.1113,17.3927 L 18.2865,17.3234 L 18.4689,17.2766
 L 18.6558,17.253 L 18.8442,17.253 L 19.0311,17.2766 L 19.2135,17.3234 L 19.3887,17.3927 L 19.5537,17.4835
 L 19.7061,17.5942 L 19.8434,17.7232 L 19.9635,17.8683 L 20.0645,18.0274 L 20.1447,18.1978 L 20.2029,18.377
 L 20.2382,18.562 L 20.25,18.75 L 20.2382,18.938 L 20.2029,19.123 L 20.1447,19.3022 L 20.0645,19.4726
 L 19.9635,19.6317 L 19.8434,19.7768 L 19.7061,19.9058 L 19.5537,20.0165 L 19.3887,20.1072 L 19.2135,20.1766
 L 19.0311,20.2234 L 18.8442,20.247 z
M -11.3442,20.247 L -11.5311,20.2234 L -11.7135,20.1766 L -11.8887,20.1072 L -12.0537,20.0165 L -12.2061,19.9058
 L -12.3434,19.7768 L -12.4635,19.6317 L -12.5645,19.4726 L -12.6447,19.3022 L -12.7029,19.123 L -12.7382,18.938
 L -12.75,18.75 L -12.7382,18.562 L -12.7029,18.377 L -12.6447,18.1978 L -12.5645,18.0274 L -12.4635,17.8683
 L -12.3434,17.7232 L -12.2061,17.5942 L -12.0537,17.4835 L -11.8887,17.3927 L -11.7135,17.3234 L -11.5311,17.2766
 L -11.3442,17.253 L -11.1558,17.253 L -10.9689,17.2766 L -10.7865,17.3234 L -10.6113,17.3927 L -10.4463,17.4835
 L -10.2939,17.5942 L -10.1565,17.7232 L -10.0365,17.8683 L -9.93553,18.0274 L -9.85533,18.1978 L -9.79712,18.377
 L -9.76183,18.562 L -9.75,18.75 L -9.76183,18.938 L -9.79712,19.123 L -9.85533,19.3022 L -9.93553,19.4726
 L -10.0365,19.6317 L -10.1565,19.7768 L -10.2939,19.9058 L -10.4463,20.0165 L -10.6113,20.1072 L -10.7865,20.1766
 L -10.9689,20.2234 L -11.1558,20.247 z
M -10.4463,-9.98351 L -10.6113,-9.89275 L -10.7865,-9.82341 L -10.9689,-9.77657 L -11.1558,-9.75294 L -11.3442,-9.75294
 L -11.5311,-9.77657 L -11.7135,-9.82341 L -11.8887,-9.89275 L -12.0537,-9.98351 L -12.2061,-10.0942 L -12.3434,-10.2232
 L -12.4635,-10.3683 L -12.5645,-10.5274 L -12.6447,-10.6978 L -12.7029,-10.877 L -12.7382,-11.062 L -12.75,-11.25
 L -12.7382,-11.438 L -12.7029,-11.623 L -12.6447,-11.8022 L -12.5645,-11.9726 L -12.4635,-12.1317 L -12.3434,-12.2768
 L -12.2061,-12.4058 L -12.0537,-12.5165 L -11.8887,-12.6072 L -11.7135,-12.6766 L -11.5311,-12.7234 L -11.3442,-12.747
 L -11.1558,-12.747 L -10.9689,-12.7234 L -10.7865,-12.6766 L -10.6113,-12.6072 L -10.4463,-12.5165 L -10.2939,-12.4058
 L -10.1565,-12.2768 L -10.0365,-12.1317 L -9.93553,-11.9726 L -9.85533,-11.8022 L -9.79712,-11.623 L -9.76183,-11.438
 L -9.75,-11.25 L -9.76183,-11.062 L -9.79712,-10.877 L -9.85533,-10.6978 L -9.93553,-10.5274 L -10.0365,-10.3683
 L -10.1565,-10.2232 L -10.2939,-10.0942 z
" stroke="black" fill="lightgray" stroke-width="0.5"/>
</svg>
