<?xml version="1.0" standalone="no"?>
<!DOCTYPE svg PUBLIC "-//W3C//DTD SVG 1.1//EN" "http://www.w3.org/Graphics/SVG/1.1/DTD/svg11.dtd">
<svg width="68mm" height="22mm" viewBox="-34 -11 68 22" xmlns="http://www.w3.org/2000/svg" version="1.1">
<title>OpenSCAD Model</title>
<path d="
M 31.4684,10.9557 L 31.7725,10.8776 L 32.0644,10.7621 L 32.3396,10.6108 L 32.5936,10.4263 L 32.8224,10.2114
 L 33.0225,9.96945 L 33.1908,9.70438 L 33.3244,9.4203 L 33.4214,9.12172 L 33.4803,8.81332 L 33.5,8.5
 L 33.5,-8.5 L 33.4803,-8.81332 L 33.4214,-9.12172 L 33.3244,-9.4203 L 33.1908,-9.70438 L 33.0225,-9.96945
 L 32.8224,-10.2114 L 32.5936,-10.4263 L 32.3396,-10.6108 L 32.0644,-10.7621 L 31.7725,-10.8776 L 31.4684,-10.9557
 L 31.157,-10.9951 L -31.157,-10.9951 L -31.4684,-10.9557 L -31.7725,-10.8776 L -32.0644,-10.7621 L -32.3396,-10.6108
 L -32.5936,-10.4263 L -32.8224,-10.2114 L -33.0225,-9.96945 L -33.1908,-9.70438 L -33.3244,-9.4203 L -33.4214,-9.12172
 L -33.4803,-8.81332 L -33.5,-8.5 L -33.5,8.5 L -33.4803,8.81332 L -33.4214,9.12172 L -33.3244,9.4203
 L -33.1908,9.70438 L -33.0225,9.96945 L -32.8224,10.2114 L -32.5936,10.4263 L -32.3396,10.6108 L -32.0644,10.7621
 L -31.7725,10.8776 L -31.4684,10.9557 L -31.157,10.9951 L 31.157,10.9951 z
M -7.59418,-6.00294 L -7.78107,-6.02657 L -7.96352,-6.07341 L -8.13866,-6.14275 L -8.30373,-6.23351 L -8.45613,-6.34422
 L -8.59344,-6.47318 L -8.71352,-6.61832 L -8.81445,-6.77736 L -8.89465,-6.9478 L -8.95287,-7.12695 L -8.98816,-7.312
 L -9,-7.5 L -8.98816,-7.68799 L -8.95287,-7.87303 L -8.89465,-8.05219 L -8.81445,-8.22263 L -8.71352,-8.38167
 L -8.59344,-8.52681 L -8.45613,-8.65576 L -8.30373,-8.76648 L -8.13866,-8.85724 L -7.96352,-8.92657 L -7.78107,-8.97342
 L -7.59418,-8.99704 L -7.40581,-8.99704 L -7.21892,-8.97342 L -7.03647,-8.92657 L -6.86133,-8.85724 L -6.69626,-8.76648
 L -6.54385,-8.65576 L -6.40654,-8.52681 L -6.28647,-8.38167 L -6.18553,-8.22263 L -6.10533,-8.05219 L -6.04712,-7.87303
 L -6.01183,-7.68799 L -6,-7.5 L -6.01183,-7.312 L -6.04712,-7.12695 L -6.10533,-6.9478 L -6.18553,-6.77736
 L -6.28647,-6.61832 L -6.40654,-6.47318 L -6.54385,-6.34422 L -6.69626,-6.23351 L -6.86133,-6.14275 L -7.03647,-6.07341
 L -7.21892,-6.02657 L -7.40581,-6.00294 z
M 21.1855,-6.77736 L 21.1053,-6.9478 L 21.0471,-7.12695 L 21.0118,-7.312 L 21,-7.5 L 21.0118,-7.68799
 L 21.0471,-7.87303 L 21.1053,-8.05219 L 21.1855,-8.22263 L 21.2865,-8.38167 L 21.4065,-8.52681 L 21.5439,-8.65576
 L 21.6963,-8.76648 L 21.8613,-8.85724 L 22.0365,-8.92657 L 22.2189,-8.97342 L 22.4058,-8.99704 L 22.5942,-8.99704
 L 22.7811,-8.97342 L 22.9635,-8.92657 L 23.1387,-8.85724 L 23.3037,-8.76648 L 23.4561,-8.65576 L 23.5934,-8.52681
 L 23.7135,-8.38167 L 23.8145,-8.22263 L 23.8947,-8.05219 L 23.9529,-7.87303 L 23.9882,-7.68799 L 24,-7.5
 L 23.9882,-7.312 L 23.9529,-7.12695 L 23.8947,-6.9478 L 23.8145,-6.77736 L 23.7135,-6.61832 L 23.5934,-6.47318
 L 23.4561,-6.34422 L 23.3037,-6.23351 L 23.1387,-6.14275 L 22.9635,-6.07341 L 22.7811,-6.02657 L 22.5942,-6.00294
 L 22.4058,-6.00294 L 22.2189,-6.02657 L 22.0365,-6.07341 L 21.8613,-6.14275 L 21.6963,-6.23351 L 21.5439,-6.34422
 L 21.4065,-6.47318 L 21.2865,-6.61832 z
M -22.5942,-6.00294 L -22.7811,-6.02657 L -22.9635,-6.07341 L -23.1387,-6.14275 L -23.3037,-6.23351 L -23.4561,-6.34422
 L -23.5934,-6.47318 L -23.7135,-6.61832 L -23.8145,-6.77736 L -23.8947,-6.9478 L -23.9529,-7.12695 L -23.9882,-7.312
 L -24,-7.5 L -23.9882,-7.68799 L -23.9529,-7.87303 L -23.8947,-8.05219 L -23.8145,-8.22263 L -23.7135,-8.38167
 L -23.5934,-8.52681 L -23.4561,-8.65576 L -23.3037,-8.76648 L -23.1387,-8.85724 L -22.9635,-8.92657 L -22.7811,-8.97342
 L -22.5942,-8.99704 L -22.4058,-8.99704 L -22.2189,-8.97342 L -22.0365,-8.92657 L -21.8613,-8.85724 L -21.6963,-8.76648
 L -21.5439,-8.65576 L -21.4065,-8.52681 L -21.2865,-8.38167 L -21.1855,-8.22263 L -21.1053,-8.05219 L -21.0471,-7.87303
 L -21.0118,-7.68799 L -21,-7.5 L -21.0118,-7.312 L -21.0471,-7.12695 L -21.1053,-6.9478 L -21.1855,-6.77736
 L -21.2865,-6.61832 L -21.4065,-6.47318 L -21.5439,-6.34422 L -21.6963,-6.23351 L -21.8613,-6.14275 L -22.0365,-6.07341
 L -22.2189,-6.02657 L -22.4058,-6.00294 z
M 29.9058,-6.00294 L 29.7189,-6.02657 L 29.5365,-6.07341 L 29.3613,-6.14275 L 29.1963,-6.23351 L 29.0439,-6.34422
 L 28.9065,-6.47318 L 28.7865,-6.61832 L 28.6855,-6.77736 L 28.6053,-6.9478 L 28.5471,-7.12695 L 28.5118,-7.312
 L 28.5,-7.5 L 28.5118,-7.68799 L 28.5471,-7.87303 L 28.6053,-8.05219 L 28.6855,-8.22263 L 28.7865,-8.38167
 L 28.9065,-8.52681 L 29.0439,-8.65576 L 29.1963,-8.76648 L 29.3613,-8.85724 L 29.5365,-8.92657 L 29.7189,-8.97342
 L 29.9058,-8.99704 L 30.0942,-8.99704 L 30.2811,-8.97342 L 30.4635,-8.92657 L 30.6387,-8.85724 L 30.8037,-8.76648
 L 30.9561,-8.65576 L 31.0934,-8.52681 L 31.2135,-8.38167 L 31.3145,-8.22263 L 31.3947,-8.05219 L 31.4529,-7.87303
 L 31.4882,-7.68799 L 31.5,-7.5 L 31.4882,-7.312 L 31.4529,-7.12695 L 31.3947,-6.9478 L 31.3145,-6.77736
 L 31.2135,-6.61832 L 31.0934,-6.47318 L 30.9561,-6.34422 L 30.8037,-6.23351 L 30.6387,-6.14275 L 30.4635,-6.07341
 L 30.2811,-6.02657 L 30.0942,-6.00294 z
M -15.0942,-6.00294 L -15.2811,-6.02657 L -15.4635,-6.07341 L -15.6387,-6.14275 L -15.8037,-6.23351 L -15.9561,-6.34422
 L -16.0934,-6.47318 L -16.2135,-6.61832 L -16.3145,-6.77736 L -16.3947,-6.9478 L -16.4529,-7.12695 L -16.4882,-7.312
 L -16.5,-7.5 L -16.4882,-7.68799 L -16.4529,-7.87303 L -16.3947,-8.05219 L -16.3145,-8.22263 L -16.2135,-8.38167
 L -16.0934,-8.52681 L -15.9561,-8.65576 L -15.8037,-8.76648 L -15.6387,-8.85724 L -15.4635,-8.92657 L -15.2811,-8.97342
 L -15.0942,-8.99704 L -14.9058,-8.99704 L -14.7189,-8.97342 L -14.5365,-8.92657 L -14.3613,-8.85724 L -14.1963,-8.76648
 L -14.0439,-8.65576 L -13.9065,-8.52681 L -13.7865,-8.38167 L -13.6855,-8.22263 L -13.6053,-8.05219 L -13.5471,-7.87303
 L -13.5118,-7.68799 L -13.5,-7.5 L -13.5118,-7.312 L -13.5471,-7.12695 L -13.6053,-6.9478 L -13.6855,-6.77736
 L -13.7865,-6.61832 L -13.9065,-6.47318 L -14.0439,-6.34422 L -14.1963,-6.23351 L -14.3613,-6.14275 L -14.5365,-6.07341
 L -14.7189,-6.02657 L -14.9058,-6.00294 z
M -0.0941772,-6.00294 L -0.281067,-6.02657 L -0.463516,-6.07341 L -0.638657,-6.14275 L -0.803726,-6.23351 L -0.956131,-6.34422
 L -1.09344,-6.47318 L -1.21352,-6.61832 L -1.31445,-6.77736 L -1.39465,-6.9478 L -1.45287,-7.12695 L -1.48816,-7.312
 L -1.5,-7.5 L -1.48816,-7.68799 L -1.45287,-7.87303 L -1.39465,-8.05219 L -1.31445,-8.22263 L -1.21352,-8.38167
 L -1.09344,-8.52681 L -0.956131,-8.65576 L -0.803726,-8.76648 L -0.638657,-8.85724 L -0.463516,-8.92657 L -0.281067,-8.97342
 L -0.0941772,-8.99704 L 0.0941772,-8.99704 L 0.281067,-8.97342 L 0.463516,-8.92657 L 0.638657,-8.85724 L 0.803726,-8.76648
 L 0.956131,-8.65576 L 1.09344,-8.52681 L 1.21352,-8.38167 L 1.31445,-8.22263 L 1.39465,-8.05219 L 1.45287,-7.87303
 L 1.48816,-7.68799 L 1.5,-7.5 L 1.48816,-7.312 L 1.45287,-7.12695 L 1.39465,-6.9478 L 1.31445,-6.77736
 L 1.21352,-6.61832 L 1.09344,-6.47318 L 0.956131,-6.34422 L 0.803726,-6.23351 L 0.638657,-6.14275 L 0.463516,-6.07341
 L 0.281067,-6.02657 L 0.0941772,-6.00294 z
M -30.0942,-6.00294 L -30.2811,-6.02657 L -30.4635,-6.07341 L -30.6387,-6.14275 L -30.8037,-6.23351 L -30.9561,-6.34422
 L -31.0934,-6.47318 L -31.2135,-6.61832 L -31.3145,-6.77736 L -31.3947,-6.9478 L -31.4529,-7.12695 L -31.4882,-7.312
 L -31.5,-7.5 L -31.4882,-7.68799 L -31.4529,-7.87303 L -31.3947,-8.05219 L -31.3145,-8.22263 L -31.2135,-8.38167
 L -31.0934,-8.52681 L -30.9561,-8.65576 L -30.8037,-8.76648 L -30.6387,-8.85724 L -30.4635,-8.92657 L -30.2811,-8.97342
 L -30.0942,-8.99704 L -29.9058,-8.99704 L -29.7189,-8.97342 L -29.5365,-8.92657 L -29.3613,-8.85724 L -29.1963,-8.76648
 L -29.0439,-8.65576 L -28.9065,-8.52681 L -28.7865,-8.38167 L -28.6855,-8.22263 L -28.6053,-8.05219 L -28.5471,-7.87303
 L -28.5118,-7.68799 L -28.5,-7.5 L -28.5118,-7.312 L -28.5471,-7.12695 L -28.6053,-6.9478 L -28.6855,-6.77736
 L -28.7865,-6.61832 L -28.9065,-6.47318 L -29.0439,-6.34422 L -29.1963,-6.23351 L -29.3613,-6.14275 L -29.5365,-6.07341
 L -29.7189,-6.02657 L -29.9058,-6.00294 z
M -30.0942,1.49704 L -30.2811,1.47342 L -30.4635,1.42657 L -30.6387,1.35724 L -30.8037,1.26648 L -30.9561,1.15576
 L -31.0934,1.02681 L -31.2135,0.881668 L -31.3145,0.722626 L -31.3947,0.552185 L -31.4529,0.373032 L -31.4882,0.187988
 L -31.5,-0 L -31.4882,-0.187988 L -31.4529,-0.373032 L -31.3947,-0.552185 L -31.3145,-0.722626 L -31.2135,-0.881668
 L -31.0934,-1.02681 L -30.9561,-1.15576 L -30.8037,-1.26648 L -30.6387,-1.35724 L -30.4635,-1.42657 L -30.2811,-1.47342
 L -30.0942,-1.49704 L -29.9058,-1.49704 L -29.7189,-1.47342 L -29.5365,-1.42657 L -29.3613,-1.35724 L -29.1963,-1.26648
 L -29.0439,-1.15576 L -28.9065,-1.02681 L -28.7865,-0.881668 L -28.6855,-0.722626 L -28.6053,-0.552185 L -28.5471,-0.373032
 L -28.5118,-0.187988 L -28.5,-0 L -28.5118,0.187988 L -28.5471,0.373032 L -28.6053,0.552185 L -28.6855,0.722626
 L -28.7865,0.881668 L -28.9065,1.02681 L -29.0439,1.15576 L -29.1963,1.26648 L -29.3613,1.35724 L -29.5365,1.42657
 L -29.7189,1.47342 L -29.9058,1.49704 z
M 22.4058,1.49704 L 22.2189,1.47342 L 22.0365,1.42657 L 21.8613,1.35724 L 21.6963,1.26648 L 21.5439,1.15576
 L 21.4065,1.02681 L 21.2865,0.881668 L 21.1855,0.722626 L 21.1053,0.552185 L 21.0471,0.373032 L 21.0118,0.187988
 L 21,-0 L 21.0118,-0.187988 L 21.0471,-0.373032 L 21.1053,-0.552185 L 21.1855,-0.722626 L 21.2865,-0.881668
 L 21.4065,-1.02681 L 21.5439,-1.15576 L 21.6963,-1.26648 L 21.8613,-1.35724 L 22.0365,-1.42657 L 22.2189,-1.47342
 L 22.4058,-1.49704 L 22.5942,-1.49704 L 22.7811,-1.47342 L 22.9635,-1.42657 L 23.1387,-1.35724 L 23.3037,-1.26648
 L 23.4561,-1.15576 L 23.5934,-1.02681 L 23.7135,-0.881668 L 23.8145,-0.722626 L 23.8947,-0.552185 L 23.9529,-0.373032
 L 23.9882,-0.187988 L 24,-0 L 23.9882,0.187988 L 23.9529,0.373032 L 23.8947,0.552185 L 23.8145,0.722626
 L 23.7135,0.881668 L 23.5934,1.02681 L 23.4561,1.15576 L 23.3037,1.26648 L 23.1387,1.35724 L 22.9635,1.42657
 L 22.7811,1.47342 L 22.5942,1.49704 z
M -15.0942,1.49704 L -15.2811,1.47342 L -15.4635,1.42657 L -15.6387,1.35724 L -15.8037,1.26648 L -15.9561,1.15576
 L -16.0934,1.02681 L -16.2135,0.881668 L -16.3145,0.722626 L -16.3947,0.552185 L -16.4529,0.373032 L -16.4882,0.187988
 L -16.5,-0 L -16.4882,-0.187988 L -16.4529,-0.373032 L -16.3947,-0.552185 L -16.3145,-0.722626 L -16.2135,-0.881668
 L -16.0934,-1.02681 L -15.9561,-1.15576 L -15.8037,-1.26648 L -15.6387,-1.35724 L -15.4635,-1.42657 L -15.2811,-1.47342
 L -15.0942,-1.49704 L -14.9058,-1.49704 L -14.7189,-1.47342 L -14.5365,-1.42657 L -14.3613,-1.35724 L -14.1963,-1.26648
 L -14.0439,-1.15576 L -13.9065,-1.02681 L -13.7865,-0.881668 L -13.6855,-0.722626 L -13.6053,-0.552185 L -13.5471,-0.373032
 L -13.5118,-0.187988 L -13.5,-0 L -13.5118,0.187988 L -13.5471,0.373032 L -13.6053,0.552185 L -13.6855,0.722626
 L -13.7865,0.881668 L -13.9065,1.02681 L -14.0439,1.15576 L -14.1963,1.26648 L -14.3613,1.35724 L -14.5365,1.42657
 L -14.7189,1.47342 L -14.9058,1.49704 z
M -22.5942,1.49704 L -22.7811,1.47342 L -22.9635,1.42657 L -23.1387,1.35724 L -23.3037,1.26648 L -23.4561,1.15576
 L -23.5934,1.02681 L -23.7135,0.881668 L -23.8145,0.722626 L -23.8947,0.552185 L -23.9529,0.373032 L -23.9882,0.187988
 L -24,-0 L -23.9882,-0.187988 L -23.9529,-0.373032 L -23.8947,-0.552185 L -23.8145,-0.722626 L -23.7135,-0.881668
 L -23.5934,-1.02681 L -23.4561,-1.15576 L -23.3037,-1.26648 L -23.1387,-1.35724 L -22.9635,-1.42657 L -22.7811,-1.47342
 L -22.5942,-1.49704 L -22.4058,-1.49704 L -22.2189,-1.47342 L -22.0365,-1.42657 L -21.8613,-1.35724 L -21.6963,-1.26648
 L -21.5439,-1.15576 L -21.4065,-1.02681 L -21.2865,-0.881668 L -21.1855,-0.722626 L -21.1053,-0.552185 L -21.0471,-0.373032
 L -21.0118,-0.187988 L -21,-0 L -21.0118,0.187988 L -21.0471,0.373032 L -21.1053,0.552185 L -21.1855,0.722626
 L -21.2865,0.881668 L -21.4065,1.02681 L -21.5439,1.15576 L -21.6963,1.26648 L -21.8613,1.35724 L -22.0365,1.42657
 L -22.2189,1.47342 L -22.4058,1.49704 z
M -7.59418,1.49704 L -7.78107,1.47342 L -7.96352,1.42657 L -8.13866,1.35724 L -8.30373,1.26648 L -8.45613,1.15576
 L -8.59344,1.02681 L -8.71352,0.881668 L -8.81445,0.722626 L -8.89465,0.552185 L -8.95287,0.373032 L -8.98816,0.187988
 L -9,-0 L -8.98816,-0.187988 L -8.95287,-0.373032 L -8.89465,-0.552185 L -8.81445,-0.722626 L -8.71352,-0.881668
 L -8.59344,-1.02681 L -8.45613,-1.15576 L -8.30373,-1.26648 L -8.13866,-1.35724 L -7.96352,-1.42657 L -7.78107,-1.47342
 L -7.59418,-1.49704 L -7.40581,-1.49704 L -7.21892,-1.47342 L -7.03647,-1.42657 L -6.86133,-1.35724 L -6.69626,-1.26648
 L -6.54385,-1.15576 L -6.40654,-1.02681 L -6.28647,-0.881668 L -6.18553,-0.722626 L -6.10533,-0.552185 L -6.04712,-0.373032
 L -6.01183,-0.187988 L -6,-0 L -6.01183,0.187988 L -6.04712,0.373032 L -6.10533,0.552185 L -6.18553,0.722626
 L -6.28647,0.881668 L -6.40654,1.02681 L -6.54385,1.15576 L -6.69626,1.26648 L -6.86133,1.35724 L -7.03647,1.42657
 L -7.21892,1.47342 L -7.40581,1.49704 z
M 29.9058,1.49704 L 29.7189,1.47342 L 29.5365,1.42657 L 29.3613,1.35724 L 29.1963,1.26648 L 29.0439,1.15576
 L 28.9065,1.02681 L 28.7865,0.881668 L 28.6855,0.722626 L 28.6053,0.552185 L 28.5471,0.373032 L 28.5118,0.187988
 L 28.5,-0 L 28.5118,-0.187988 L 28.5471,-0.373032 L 28.6053,-0.552185 L 28.6855,-0.722626 L 28.7865,-0.881668
 L 28.9065,-1.02681 L 29.0439,-1.15576 L 29.1963,-1.26648 L 29.3613,-1.35724 L 29.5365,-1.42657 L 29.7189,-1.47342
 L 29.9058,-1.49704 L 30.0942,-1.49704 L 30.2811,-1.47342 L 30.4635,-1.42657 L 30.6387,-1.35724 L 30.8037,-1.26648
 L 30.9561,-1.15576 L 31.0934,-1.02681 L 31.2135,-0.881668 L 31.3145,-0.722626 L 31.3947,-0.552185 L 31.4529,-0.373032
 L 31.4882,-0.187988 L 31.5,-0 L 31.4882,0.187988 L 31.4529,0.373032 L 31.3947,0.552185 L 31.3145,0.722626
 L 31.2135,0.881668 L 31.0934,1.02681 L 30.9561,1.15576 L 30.8037,1.26648 L 30.6387,1.35724 L 30.4635,1.42657
 L 30.2811,1.47342 L 30.0942,1.49704 z
M -0.0941772,1.49704 L -0.281067,1.47342 L -0.463516,1.42657 L -0.638657,1.35724 L -0.803726,1.26648 L -0.956131,1.15576
 L -1.09344,1.02681 L -1.21352,0.881668 L -1.31445,0.722626 L -1.39465,0.552185 L -1.45287,0.373032 L -1.48816,0.187988
 L -1.5,-0 L -1.48816,-0.187988 L -1.45287,-0.373032 L -1.39465,-0.552185 L -1.31445,-0.722626 L -1.21352,-0.881668
 L -1.09344,-1.02681 L -0.956131,-1.15576 L -0.803726,-1.26648 L -0.638657,-1.35724 L -0.463516,-1.42657 L -0.281067,-1.47342
 L -0.0941772,-1.49704 L 0.0941772,-1.49704 L 0.281067,-1.47342 L 0.463516,-1.42657 L 0.638657,-1.35724 L 0.803726,-1.26648
 L 0.956131,-1.15576 L 1.09344,-1.02681 L 1.21352,-0.881668 L 1.31445,-0.722626 L 1.39465,-0.552185 L 1.45287,-0.373032
 L 1.48816,-0.187988 L 1.5,-0 L 1.48816,0.187988 L 1.45287,0.373032 L 1.39465,0.552185 L 1.31445,0.722626
 L 1.21352,0.881668 L 1.09344,1.02681 L 0.956131,1.15576 L 0.803726,1.26648 L 0.638657,1.35724 L 0.463516,1.42657
 L 0.281067,1.47342 L 0.0941772,1.49704 z
M 14.9058,1.49704 L 14.7189,1.47342 L 14.5365,1.42657 L 14.3613,1.35724 L 14.1963,1.26648 L 14.0439,1.15576
 L 13.9065,1.02681 L 13.7865,0.881668 L 13.6855,0.722626 L 13.6053,0.552185 L 13.5471,0.373032 L 13.5118,0.187988
 L 13.5,-0 L 13.5118,-0.187988 L 13.5471,-0.373032 L 13.6053,-0.552185 L 13.6855,-0.722626 L 13.7865,-0.881668
 L 13.9065,-1.02681 L 14.0439,-1.15576 L 14.1963,-1.26648 L 14.3613,-1.35724 L 14.5365,-1.42657 L 14.7189,-1.47342
 L 14.9058,-1.49704 L 15.0942,-1.49704 L 15.2811,-1.47342 L 15.4635,-1.42657 L 15.6387,-1.35724 L 15.8037,-1.26648
 L 15.9561,-1.15576 L 16.0934,-1.02681 L 16.2135,-0.881668 L 16.3145,-0.722626 L 16.3947,-0.552185 L 16.4529,-0.373032
 L 16.4882,-0.187988 L 16.5,-0 L 16.4882,0.187988 L 16.4529,0.373032 L 16.3947,0.552185 L 16.3145,0.722626
 L 16.2135,0.881668 L 16.0934,1.02681 L 15.9561,1.15576 L 15.8037,1.26648 L 15.6387,1.35724 L 15.4635,1.42657
 L 15.2811,1.47342 L 15.0942,1.49704 z
M 7.40581,1.49704 L 7.21892,1.47342 L 7.03647,1.42657 L 6.86133,1.35724 L 6.69626,1.26648 L 6.54385,1.15576
 L 6.40654,1.02681 L 6.28647,0.881668 L 6.18553,0.722626 L 6.10533,0.552185 L 6.04712,0.373032 L 6.01183,0.187988
 L 6,-0 L 6.01183,-0.187988 L 6.04712,-0.373032 L 6.10533,-0.552185 L 6.18553,-0.722626 L 6.28647,-0.881668
 L 6.40654,-1.02681 L 6.54385,-1.15576 L 6.69626,-1.26648 L 6.86133,-1.35724 L 7.03647,-1.42657 L 7.21892,-1.47342
 L 7.40581,-1.49704 L 7.59418,-1.49704 L 7.78107,-1.47342 L 7.96352,-1.42657 L 8.13866,-1.35724 L 8.30373,-1.26648
 L 8.45613,-1.15576 L 8.59344,-1.02681 L 8.71352,-0.881668 L 8.81445,-0.722626 L 8.89465,-0.552185 L 8.95287,-0.373032
 L 8.98816,-0.187988 L 9,-0 L 8.98816,0.187988 L 8.95287,0.373032 L 8.89465,0.552185 L 8.81445,0.722626
 L 8.71352,0.881668 L 8.59344,1.02681 L 8.45613,1.15576 L 8.30373,1.26648 L 8.13866,1.35724 L 7.96352,1.42657
 L 7.78107,1.47342 L 7.59418,1.49704 z
M 22.4058,8.99704 L 22.2189,8.97342 L 22.0365,8.92657 L 21.8613,8.85724 L 21.6963,8.76648 L 21.5439,8.65576
 L 21.4065,8.52681 L 21.2865,8.38167 L 21.1855,8.22263 L 21.1053,8.05219 L 21.0471,7.87303 L 21.0118,7.68799
 L 21,7.5 L 21.0118,7.312 L 21.0471,7.12695 L 21.1053,6.9478 L 21.1855,6.77736 L 21.2865,6.61832
 L 21.4065,6.47318 L 21.5439,6.34422 L 21.6963,6.23351 L 21.8613,6.14275 L 22.0365,6.07341 L 22.2189,6.02657
 L 22.4058,6.00294 L 22.5942,6.00294 L 22.7811,6.02657 L 22.9635,6.07341 L 23.1387,6.14275 L 23.3037,6.23351
 L 23.4561,6.34422 L 23.5934,6.47318 L 23.7135,6.61832 L 23.8145,6.77736 L 23.8947,6.9478 L 23.9529,7.12695
 L 23.9882,7.312 L 24,7.5 L 23.9882,7.68799 L 23.9529,7.87303 L 23.8947,8.05219 L 23.8145,8.22263
 L 23.7135,8.38167 L 23.5934,8.52681 L 23.4561,8.65576 L 23.3037,8.76648 L 23.1387,8.85724 L 22.9635,8.92657
 L 22.7811,8.97342 L 22.5942,8.99704 z
M -30.0942,8.99704 L -30.2811,8.97342 L -30.4635,8.92657 L -30.6387,8.85724 L -30.8037,8.76648 L -30.9561,8.65576
 L -31.0934,8.52681 L -31.2135,8.38167 L -31.3145,8.22263 L -31.3947,8.05219 L -31.4529,7.87303 L -31.4882,7.68799
 L -31.5,7.5 L -31.4882,7.312 L -31.4529,7.12695 L -31.3947,6.9478 L -31.3145,6.77736 L -31.2135,6.61832
 L -31.0934,6.47318 L -30.9561,6.34422 L -30.8037,6.23351 L -30.6387,6.14275 L -30.4635,6.07341 L -30.2811,6.02657
 L -30.0942,6.00294 L -29.9058,6.00294 L -29.7189,6.02657 L -29.5365,6.07341 L -29.3613,6.14275 L -29.1963,6.23351
 L -29.0439,6.34422 L -28.9065,6.47318 L -28.7865,6.61832 L -28.6855,6.77736 L -28.6053,6.9478 L -28.5471,7.12695
 L -28.5118,7.312 L -28.5,7.5 L -28.5118,7.68799 L -28.5471,7.87303 L -28.6053,8.05219 L -28.6855,8.22263
 L -28.7865,8.38167 L -28.9065,8.52681 L -29.0439,8.65576 L -29.1963,8.76648 L -29.3613,8.85724 L -29.5365,8.92657
 L -29.7189,8.97342 L -29.9058,8.99704 z
M 14.9058,8.99704 L 14.7189,8.97342 L 14.5365,8.92657 L 14.3613,8.85724 L 14.1963,8.76648 L 14.0439,8.65576
 L 13.9065,8.52681 L 13.7865,8.38167 L 13.6855,8.22263 L 13.6053,8.05219 L 13.5471,7.87303 L 13.5118,7.68799
 L 13.5,7.5 L 13.5118,7.312 L 13.5471,7.12695 L 13.6053,6.9478 L 13.6855,6.77736 L 13.7865,6.61832
 L 13.9065,6.47318 L 14.0439,6.34422 L 14.1963,6.23351 L 14.3613,6.14275 L 14.5365,6.07341 L 14.7189,6.02657
 L 14.9058,6.00294 L 15.0942,6.00294 L 15.2811,6.02657 L 15.4635,6.07341 L 15.6387,6.14275 L 15.8037,6.23351
 L 15.9561,6.34422 L 16.0934,6.47318 L 16.2135,6.61832 L 16.3145,6.77736 L 16.3947,6.9478 L 16.4529,7.12695
 L 16.4882,7.312 L 16.5,7.5 L 16.4882,7.68799 L 16.4529,7.87303 L 16.3947,8.05219 L 16.3145,8.22263
 L 16.2135,8.38167 L 16.0934,8.52681 L 15.9561,8.65576 L 15.8037,8.76648 L 15.6387,8.85724 L 15.4635,8.92657
 L 15.2811,8.97342 L 15.0942,8.99704 z
M -22.5942,8.99704 L -22.7811,8.97342 L -22.9635,8.92657 L -23.1387,8.85724 L -23.3037,8.76648 L -23.4561,8.65576
 L -23.5934,8.52681 L -23.7135,8.38167 L -23.8145,8.22263 L -23.8947,8.05219 L -23.9529,7.87303 L -23.9882,7.68799
 L -24,7.5 L -23.9882,7.312 L -23.9529,7.12695 L -23.8947,6.9478 L -23.8145,6.77736 L -23.7135,6.61832
 L -23.5934,6.47318 L -23.4561,6.34422 L -23.3037,6.23351 L -23.1387,6.14275 L -22.9635,6.07341 L -22.7811,6.02657
 L -22.5942,6.00294 L -22.4058,6.00294 L -22.2189,6.02657 L -22.0365,6.07341 L -21.8613,6.14275 L -21.6963,6.23351
 L -21.5439,6.34422 L -21.4065,6.47318 L -21.2865,6.61832 L -21.1855,6.77736 L -21.1053,6.9478 L -21.0471,7.12695
 L -21.0118,7.312 L -21,7.5 L -21.0118,7.68799 L -21.0471,7.87303 L -21.1053,8.05219 L -21.1855,8.22263
 L -21.2865,8.38167 L -21.4065,8.52681 L -21.5439,8.65576 L -21.6963,8.76648 L -21.8613,8.85724 L -22.0365,8.92657
 L -22.2189,8.97342 L -22.4058,8.99704 z
M 29.9058,8.99704 L 29.7189,8.97342 L 29.5365,8.92657 L 29.3613,8.85724 L 29.1963,8.76648 L 29.0439,8.65576
 L 28.9065,8.52681 L 28.7865,8.38167 L 28.6855,8.22263 L 28.6053,8.05219 L 28.5471,7.87303 L 28.5118,7.68799
 L 28.5,7.5 L 28.5118,7.312 L 28.5471,7.12695 L 28.6053,6.9478 L 28.6855,6.77736 L 28.7865,6.61832
 L 28.9065,6.47318 L 29.0439,6.34422 L 29.1963,6.23351 L 29.3613,6.14275 L 29.5365,6.07341 L 29.7189,6.02657
 L 29.9058,6.00294 L 30.0942,6.00294 L 30.2811,6.02657 L 30.4635,6.07341 L 30.6387,6.14275 L 30.8037,6.23351
 L 30.9561,6.34422 L 31.0934,6.47318 L 31.2135,6.61832 L 31.3145,6.77736 L 31.3947,6.9478 L 31.4529,7.12695
 L 31.4882,7.312 L 31.5,7.5 L 31.4882,7.68799 L 31.4529,7.87303 L 31.3947,8.05219 L 31.3145,8.22263
 L 31.2135,8.38167 L 31.0934,8.52681 L 30.9561,8.65576 L 30.8037,8.76648 L 30.6387,8.85724 L 30.4635,8.92657
 L 30.2811,8.97342 L 30.0942,8.99704 z
M -15.0942,8.99704 L -15.2811,8.97342 L -15.4635,8.92657 L -15.6387,8.85724 L -15.8037,8.76648 L -15.9561,8.65576
 L -16.0934,8.52681 L -16.2135,8.38167 L -16.3145,8.22263 L -16.3947,8.05219 L -16.4529,7.87303 L -16.4882,7.68799
 L -16.5,7.5 L -16.4882,7.312 L -16.4529,7.12695 L -16.3947,6.9478 L -16.3145,6.77736 L -16.2135,6.61832
 L -16.0934,6.47318 L -15.9561,6.34422 L -15.8037,6.23351 L -15.6387,6.14275 L -15.4635,6.07341 L -15.2811,6.02657
 L -15.0942,6.00294 L -14.9058,6.00294 L -14.7189,6.02657 L -14.5365,6.07341 L -14.3613,6.14275 L -14.1963,6.23351
 L -14.0439,6.34422 L -13.9065,6.47318 L -13.7865,6.61832 L -13.6855,6.77736 L -13.6053,6.9478 L -13.5471,7.12695
 L -13.5118,7.312 L -13.5,7.5 L -13.5118,7.68799 L -13.5471,7.87303 L -13.6053,8.05219 L -13.6855,8.22263
 L -13.7865,8.38167 L -13.9065,8.52681 L -14.0439,8.65576 L -14.1963,8.76648 L -14.3613,8.85724 L -14.5365,8.92657
 L -14.7189,8.97342 L -14.9058,8.99704 z
M 7.40581,8.99704 L 7.21892,8.97342 L 7.03647,8.92657 L 6.86133,8.85724 L 6.69626,8.76648 L 6.54385,8.65576
 L 6.40654,8.52681 L 6.28647,8.38167 L 6.18553,8.22263 L 6.10533,8.05219 L 6.04712,7.87303 L 6.01183,7.68799
 L 6,7.5 L 6.01183,7.312 L 6.04712,7.12695 L 6.10533,6.9478 L 6.18553,6.77736 L 6.28647,6.61832
 L 6.40654,6.47318 L 6.54385,6.34422 L 6.69626,6.23351 L 6.86133,6.14275 L 7.03647,6.07341 L 7.21892,6.02657
 L 7.40581,6.00294 L 7.59418,6.00294 L 7.78107,6.02657 L 7.96352,6.07341 L 8.13866,6.14275 L 8.30373,6.23351
 L 8.45613,6.34422 L 8.59344,6.47318 L 8.71352,6.61832 L 8.81445,6.77736 L 8.89465,6.9478 L 8.95287,7.12695
 L 8.98816,7.312 L 9,7.5 L 8.98816,7.68799 L 8.95287,7.87303 L 8.89465,8.05219 L 8.81445,8.22263
 L 8.71352,8.38167 L 8.59344,8.52681 L 8.45613,8.65576 L 8.30373,8.76648 L 8.13866,8.85724 L 7.96352,8.92657
 L 7.78107,8.97342 L 7.59418,8.99704 z
M -7.59418,8.99704 L -7.78107,8.97342 L -7.96352,8.92657 L -8.13866,8.85724 L -8.30373,8.76648 L -8.45613,8.65576
 L -8.59344,8.52681 L -8.71352,8.38167 L -8.81445,8.22263 L -8.89465,8.05219 L -8.95287,7.87303 L -8.98816,7.68799
 L -9,7.5 L -8.98816,7.312 L -8.95287,7.12695 L -8.89465,6.9478 L -8.81445,6.77736 L -8.71352,6.61832
 L -8.59344,6.47318 L -8.45613,6.34422 L -8.30373,6.23351 L -8.13866,6.14275 L -7.96352,6.07341 L -7.78107,6.02657
 L -7.59418,6.00294 L -7.40581,6.00294 L -7.21892,6.02657 L -7.03647,6.07341 L -6.86133,6.14275 L -6.69626,6.23351
 L -6.54385,6.34422 L -6.40654,6.47318 L -6.28647,6.61832 L -6.18553,6.77736 L -6.10533,6.9478 L -6.04712,7.12695
 L -6.01183,7.312 L -6,7.5 L -6.01183,7.68799 L -6.04712,7.87303 L -6.10533,8.05219 L -6.18553,8.22263
 L -6.28647,8.38167 L -6.40654,8.52681 L -6.54385,8.65576 L -6.69626,8.76648 L -6.86133,8.85724 L -7.03647,8.92657
 L -7.21892,8.97342 L -7.40581,8.99704 z
M -0.0941772,8.99704 L -0.281067,8.97342 L -0.463516,8.92657 L -0.638657,8.85724 L -0.803726,8.76648 L -0.956131,8.65576
 L -1.09344,8.52681 L -1.21352,8.38167 L -1.31445,8.22263 L -1.39465,8.05219 L -1.45287,7.87303 L -1.48816,7.68799
 L -1.5,7.5 L -1.48816,7.312 L -1.45287,7.12695 L -1.39465,6.9478 L -1.31445,6.77736 L -1.21352,6.61832
 L -1.09344,6.47318 L -0.956131,6.34422 L -0.803726,6.23351 L -0.638657,6.14275 L -0.463516,6.07341 L -0.281067,6.02657
 L -0.0941772,6.00294 L 0.0941772,6.00294 L 0.281067,6.02657 L 0.463516,6.07341 L 0.638657,6.14275 L 0.803726,6.23351
 L 0.956131,6.34422 L 1.09344,6.47318 L 1.21352,6.61832 L 1.31445,6.77736 L 1.39465,6.9478 L 1.45287,7.12695
 L 1.48816,7.312 L 1.5,7.5 L 1.48816,7.68799 L 1.45287,7.87303 L 1.39465,8.05219 L 1.31445,8.22263
 L 1.21352,8.38167 L 1.09344,8.52681 L 0.956131,8.65576 L 0.803726,8.76648 L 0.638657,8.85724 L 0.463516,8.92657
 L 0.281067,8.97342 L 0.0941772,8.99704 z
M 8.30373,-6.23351 L 8.13866,-6.14275 L 7.96352,-6.07341 L 7.78107,-6.02657 L 7.59418,-6.00294 L 7.40581,-6.00294
 L 7.21892,-6.02657 L 7.03647,-6.07341 L 6.86133,-6.14275 L 6.69626,-6.23351 L 6.54385,-6.34422 L 6.40654,-6.47318
 L 6.28647,-6.61832 L 6.18553,-6.77736 L 6.10533,-6.9478 L 6.04712,-7.12695 L 6.01183,-7.312 L 6,-7.5
 L 6.01183,-7.68799 L 6.04712,-7.87303 L 6.10533,-8.05219 L 6.18553,-8.22263 L 6.28647,-8.38167 L 6.40654,-8.52681
 L 6.54385,-8.65576 L 6.69626,-8.76648 L 6.86133,-8.85724 L 7.03647,-8.92657 L 7.21892,-8.97342 L 7.40581,-8.99704
 L 7.59418,-8.99704 L 7.78107,-8.97342 L 7.96352,-8.92657 L 8.13866,-8.85724 L 8.30373,-8.76648 L 8.45613,-8.65576
 L 8.59344,-8.52681 L 8.71352,-8.38167 L 8.81445,-8.22263 L 8.89465,-8.05219 L 8.95287,-7.87303 L 8.98816,-7.68799
 L 9,-7.5 L 8.98816,-7.312 L 8.95287,-7.12695 L 8.89465,-6.9478 L 8.81445,-6.77736 L 8.71352,-6.61832
 L 8.59344,-6.47318 L 8.45613,-6.34422 z
M 13.6855,-6.77736 L 13.6053,-6.9478 L 13.5471,-7.12695 L 13.5118,-7.312 L 13.5,-7.5 L 13.5118,-7.68799
 L 13.5471,-7.87303 L 13.6053,-8.05219 L 13.6855,-8.22263 L 13.7865,-8.38167 L 13.9065,-8.52681 L 14.0439,-8.65576
 L 14.1963,-8.76648 L 14.3613,-8.85724 L 14.5365,-8.92657 L 14.7189,-8.97342 L 14.9058,-8.99704 L 15.0942,-8.99704
 L 15.2811,-8.97342 L 15.4635,-8.92657 L 15.6387,-8.85724 L 15.8037,-8.76648 L 15.9561,-8.65576 L 16.0934,-8.52681
 L 16.2135,-8.38167 L 16.3145,-8.22263 L 16.3947,-8.05219 L 16.4529,-7.87303 L 16.4882,-7.68799 L 16.5,-7.5
 L 16.4882,-7.312 L 16.4529,-7.12695 L 16.3947,-6.9478 L 16.3145,-6.77736 L 16.2135,-6.61832 L 16.0934,-6.47318
 L 15.9561,-6.34422 L 15.8037,-6.23351 L 15.6387,-6.14275 L 15.4635,-6.07341 L 15.2811,-6.02657 L 15.0942,-6.00294
 L 14.9058,-6.00294 L 14.7189,-6.02657 L 14.5365,-6.07341 L 14.3613,-6.14275 L 14.1963,-6.23351 L 14.0439,-6.34422
 L 13.9065,-6.47318 L 13.7865,-6.61832 z
" stroke="black" fill="lightgray" stroke-width="0.5"/>
</svg>
